<svg xmlns="http://www.w3.org/2000/svg" xmlns:xlink="http://www.w3.org/1999/xlink" viewBox="0 0 18.365 21.01178"><defs><style>.a{fill:#3f8f22;}.b{fill:#ffd54f;}.c{fill:#fff;}.d{fill:url(#a);}.e{fill:url(#b);}</style><linearGradient id="a" x1="-501.87775" y1="1118.82625" x2="-501.39575" y2="1118.34425" gradientTransform="matrix(10.874, 0, 0, -10.874, 5464.06678, 12173.96122)" gradientUnits="userSpaceOnUse"><stop offset="0" stop-color="#b9dd39"/><stop offset="1" stop-color="#90cc1c"/></linearGradient><linearGradient id="b" x1="-492.78697" y1="1087.48338" x2="-492.99597" y2="1087.71238" gradientTransform="matrix(9.3308, 0, 0, -8.507, 4612.21999, 9264.77966)" gradientUnits="userSpaceOnUse"><stop offset="0" stop-color="#6b0" stop-opacity="0"/><stop offset="1" stop-color="#6b0"/></linearGradient></defs><path class="a" d="M17.056,2.799A10.066,10.066,0,0,1,10.704.54a2.411,2.411,0,0,0-3.043,0A10.065,10.065,0,0,1,1.308,2.799,1.308,1.308,0,0,0,0,4.107V7.613a14.949,14.949,0,0,0,5.515,11.6l1.077.876a4.1,4.1,0,0,0,5.181,0l1.077-.876a14.95,14.95,0,0,0,5.515-11.6V4.106a1.308,1.308,0,0,0-1.309-1.307Z" transform="translate(0 0.00072)"/><path class="b" d="M9.182,19.852a1.1,1.1,0,0,1-.695-.247L6.427,17.93A13.137,13.137,0,0,1,1.581,7.739V4.956a.651.651,0,0,1,.611-.641A10.912,10.912,0,0,0,8.487,1.891a1.1,1.1,0,0,1,1.389,0,10.912,10.912,0,0,0,6.295,2.425.651.651,0,0,1,.611.641V7.74a13.138,13.138,0,0,1-4.846,10.19l-2.06,1.676A1.1,1.1,0,0,1,9.182,19.852Z" transform="translate(0 0.00072)"/><path class="c" d="M9.187,19.083a1.011,1.011,0,0,1-.636-.226L6.665,17.323A12.029,12.029,0,0,1,2.228,7.992V5.446a.6.6,0,0,1,.56-.587,9.991,9.991,0,0,0,5.764-2.22,1.008,1.008,0,0,1,1.272,0,9.991,9.991,0,0,0,5.764,2.22.6.6,0,0,1,.56.586V7.993a12.029,12.029,0,0,1-4.437,9.331L9.825,18.858a1.01,1.01,0,0,1-.636.226Z" transform="translate(0 0.00072)"/><circle class="d" cx="9.182" cy="10.37872" r="5.437"/><path class="e" d="M13.573,7.166l-4.16,4.16a.67689.67689,0,0,1-.231.145.2.2,0,0,1-.146-.061L7.068,9.442a1,1,0,0,0-1.4138-.03419L5.62,9.442a.956.956,0,0,0-.09612,1.34857q.02586.02984.05411.05744l4.824,4.824a5.438,5.438,0,0,0,3.171-8.507Z" transform="translate(0 0.00072)"/><path class="b" d="M9.182,13.5a2.3,2.3,0,0,1-1.636-.678L5.578,10.854A1.054,1.054,0,0,1,7.02658,9.32257q.02128.02014.04143.04143l1.968,1.968a.207.207,0,0,0,.292,0l5.218-5.218a1.054,1.054,0,0,1,1.49,1.49l-5.218,5.218a2.3,2.3,0,0,1-1.636.678Z" transform="translate(0 0.00072)"/></svg>