<svg xmlns="http://www.w3.org/2000/svg" width="24.38" height="24.038" viewBox="0 0 24.38 24.038"><defs><style>.a{fill:#296f0a;}.b{fill:#469a21;}</style></defs><g transform="translate(-37.496 -212.368)"><path class="a" d="M26.034,10.633a10.311,10.311,0,0,1-.447,2.577,6.976,6.976,0,0,1-1.169,2.263,5.883,5.883,0,0,1-1.982,1.608,6.347,6.347,0,0,1-2.895.612,4.765,4.765,0,0,1-2.093-.439,3.357,3.357,0,0,1-1.415-1.242,4.763,4.763,0,0,1-3.794,1.633,4.439,4.439,0,0,1-1.892-.4,3.772,3.772,0,0,1-1.42-1.13A4.613,4.613,0,0,1,8.1,14.35,6.552,6.552,0,0,1,8,12.044a9.489,9.489,0,0,1,.82-2.825,7.559,7.559,0,0,1,1.515-2.164,6.39,6.39,0,0,1,2.083-1.379,6.636,6.636,0,0,1,2.534-.482,9.16,9.16,0,0,1,1.515.111,7,7,0,0,1,1.176.3,6.783,6.783,0,0,1,.974.441c.3.164.6.334.894.507l-.736,7.256a2.073,2.073,0,0,0,.022.849,1.134,1.134,0,0,0,.3.524,1.12,1.12,0,0,0,.491.274,2.061,2.061,0,0,0,1.724-.291,3.282,3.282,0,0,0,.924-1.008,5.907,5.907,0,0,0,.622-1.514,8.984,8.984,0,0,0,.272-1.886,10.389,10.389,0,0,0-.346-3.524,6.639,6.639,0,0,0-1.522-2.727,7.078,7.078,0,0,0-2.728-1.756,11.37,11.37,0,0,0-3.975-.623,10.02,10.02,0,0,0-3.931.734A8.933,8.933,0,0,0,7.639,4.9,9.451,9.451,0,0,0,5.683,7.96a12.059,12.059,0,0,0-.823,3.815,10.947,10.947,0,0,0,.42,3.893,6.733,6.733,0,0,0,1.66,2.79,7.041,7.041,0,0,0,2.812,1.676,12.422,12.422,0,0,0,3.881.556,15.432,15.432,0,0,0,2.547-.235c.42-.072.818-.158,1.2-.253a10.044,10.044,0,0,0,1.032-.317l.533,2.053a6.359,6.359,0,0,1-1.154.489,12.566,12.566,0,0,1-1.364.338,15.446,15.446,0,0,1-2.849.274,17.221,17.221,0,0,1-5.195-.717,9.816,9.816,0,0,1-3.787-2.134A8.7,8.7,0,0,1,2.32,16.665a13,13,0,0,1-.635-4.89A13.077,13.077,0,0,1,2.777,7.081,11.451,11.451,0,0,1,5.408,3.353,12.129,12.129,0,0,1,9.421.893,14.394,14.394,0,0,1,14.619,0a15.077,15.077,0,0,1,5.037.773,9.95,9.95,0,0,1,3.636,2.174,8.649,8.649,0,0,1,2.157,3.359A11.114,11.114,0,0,1,26.034,10.633ZM11.605,12.044a4.25,4.25,0,0,0,.3,2.429,1.546,1.546,0,0,0,1.462.821,1.822,1.822,0,0,0,1.077-.376,2.78,2.78,0,0,0,.585-.6,4.355,4.355,0,0,0,.538-1.022l.575-5.638a3.974,3.974,0,0,0-.894-.1,3.518,3.518,0,0,0-1.487.292A2.8,2.8,0,0,0,12.7,8.7a4.686,4.686,0,0,0-.7,1.411,10.432,10.432,0,0,0-.4,1.929Z" transform="translate(35.827 213.368)"/><path class="b" d="M25.034,10.633a10.711,10.711,0,0,1-.429,2.577,7.088,7.088,0,0,1-1.121,2.263,5.7,5.7,0,0,1-1.9,1.608,5.877,5.877,0,0,1-2.776.612,4.411,4.411,0,0,1-2.007-.439,3.266,3.266,0,0,1-1.357-1.242,4.484,4.484,0,0,1-3.638,1.633,4.109,4.109,0,0,1-1.814-.4,3.648,3.648,0,0,1-1.361-1.13A4.7,4.7,0,0,1,7.84,14.35a6.827,6.827,0,0,1-.1-2.306,9.8,9.8,0,0,1,.786-2.825A7.569,7.569,0,0,1,9.977,7.056,6.049,6.049,0,0,1,14.4,5.194a8.431,8.431,0,0,1,1.453.111,6.488,6.488,0,0,1,1.128.3,6.378,6.378,0,0,1,.934.441c.285.164.572.334.857.507l-.706,7.256a2.16,2.16,0,0,0,.021.849,1.146,1.146,0,0,0,.29.524,1.063,1.063,0,0,0,.47.274,1.91,1.91,0,0,0,1.653-.291,3.234,3.234,0,0,0,.886-1.008,6.05,6.05,0,0,0,.6-1.514,9.343,9.343,0,0,0,.261-1.886,10.814,10.814,0,0,0-.332-3.524,6.721,6.721,0,0,0-1.46-2.727A6.765,6.765,0,0,0,17.84,2.751a10.5,10.5,0,0,0-3.812-.623,9.264,9.264,0,0,0-3.77.734A8.562,8.562,0,0,0,7.394,4.9,9.51,9.51,0,0,0,5.519,7.96a12.5,12.5,0,0,0-.789,3.815,11.391,11.391,0,0,0,.4,3.893,6.8,6.8,0,0,0,1.592,2.79,6.7,6.7,0,0,0,2.7,1.676,11.461,11.461,0,0,0,3.722.556,14.21,14.21,0,0,0,2.442-.235c.4-.072.785-.158,1.149-.253a9.342,9.342,0,0,0,.989-.317l.511,2.053a5.967,5.967,0,0,1-1.107.489,11.644,11.644,0,0,1-1.308.338,14.224,14.224,0,0,1-2.732.274A15.886,15.886,0,0,1,8.1,22.321a9.321,9.321,0,0,1-3.631-2.134,8.746,8.746,0,0,1-2.18-3.523,13.515,13.515,0,0,1-.609-4.89A13.542,13.542,0,0,1,2.731,7.081,11.462,11.462,0,0,1,5.254,3.353,11.561,11.561,0,0,1,9.1.893,13.3,13.3,0,0,1,14.088,0a13.917,13.917,0,0,1,4.83.773A9.474,9.474,0,0,1,22.4,2.947a8.7,8.7,0,0,1,2.069,3.359A11.555,11.555,0,0,1,25.034,10.633ZM11.2,12.044a4.415,4.415,0,0,0,.284,2.429,1.472,1.472,0,0,0,1.4.821,1.713,1.713,0,0,0,.48-.079,1.765,1.765,0,0,0,.553-.3,2.731,2.731,0,0,0,.561-.6,4.421,4.421,0,0,0,.516-1.022l.551-5.638a3.662,3.662,0,0,0-.857-.1,3.255,3.255,0,0,0-1.426.292,2.715,2.715,0,0,0-1.01.858,4.769,4.769,0,0,0-.67,1.411,10.822,10.822,0,0,0-.38,1.929Z" transform="translate(35.827 212.368)"/></g></svg>