<svg xmlns="http://www.w3.org/2000/svg" width="68.969" height="61.072" viewBox="0 0 68.969 61.072"><defs><style>.a{fill:#707070;}.b{fill:#469a09;}</style></defs><g transform="translate(0 -346.807)"><circle class="a" cx="7.664" cy="7.664" r="7.664" transform="translate(7.389 353.837)"/><path class="a" d="M64.889,61.249a14.592,14.592,0,0,0-8.16-3.883V33.279a9.475,9.475,0,0,0-2.7-6.581A9.2,9.2,0,0,0,47.449,24H9.279A9.475,9.475,0,0,0,2.7,26.7,9.2,9.2,0,0,0,0,33.279V72.568a9.475,9.475,0,0,0,2.7,6.581,9.2,9.2,0,0,0,6.581,2.7H46.2a13.923,13.923,0,0,0,18.69-20.6ZM3.488,33.279a5.843,5.843,0,0,1,5.791-5.791h38.17a5.843,5.843,0,0,1,5.791,5.791V53.812L43.5,44.138a1.767,1.767,0,0,0-2.5,0L26.324,58.879l-9.937-10a1.767,1.767,0,0,0-2.5,0l-10.4,10.53ZM9.213,78.425v-.066a5.775,5.775,0,0,1-4.08-1.711,6.006,6.006,0,0,1-1.645-4.08V64.342L15.2,52.628l9.937,9.937a1.83,1.83,0,0,0,2.5,0L42.316,47.823,51.924,57.5l-.592.2a6.112,6.112,0,0,0-.856.263c-.263.066-.526.2-.79.263a1.971,1.971,0,0,0-.526.263,6.117,6.117,0,0,0-.658.329l-.987.592c-.2.132-.329.2-.526.329-.132.066-.2.132-.329.2a7.94,7.94,0,0,0-1.579,1.382A13.922,13.922,0,0,0,41,71.186a14.468,14.468,0,0,0,.329,2.9c.066.263.132.461.2.724.2.658.395,1.316.658,1.974v.066a12.071,12.071,0,0,0,.856,1.579Zm53.109.066a10.411,10.411,0,0,1-14.544.132c-.263-.263-.526-.592-.79-.856-.2-.2-.395-.461-.592-.658a6.249,6.249,0,0,1-.658-1.119c-.132-.263-.263-.461-.395-.724a5.559,5.559,0,0,1-.329-1.119c-.066-.263-.2-.592-.263-.856a10.892,10.892,0,0,1-.2-2.106,10.563,10.563,0,0,1,3.027-7.371,10.286,10.286,0,0,1,7.371-3.027,10.563,10.563,0,0,1,7.371,3.027,10.175,10.175,0,0,1,3.027,7.371A10.526,10.526,0,0,1,62.322,78.491Z" transform="translate(0 322.807)"/><path class="b" d="M303.308,271.21h-4.72v-4.72a2.089,2.089,0,1,0-4.178,0v4.72h-4.72a2.089,2.089,0,1,0,0,4.178h4.72v4.72a2.089,2.089,0,0,0,4.178,0v-4.72h4.72a2.089,2.089,0,0,0,0-4.178Z" transform="translate(-241.199 121.058)"/></g></svg>