<svg xmlns="http://www.w3.org/2000/svg" viewBox="0 0 37.89908 33.034"><defs><style>.a{fill:#193802;}.b{fill:#469a09;}.c{fill:#2b2929;}.d{fill:#5e5e5e;}</style></defs><path class="a" d="M37.35,8.139a2.7,2.7,0,0,0-2.085-.982H8.13l-.782-3.91A2.71,2.71,0,0,0,4.696,1.073H2.425a1.352,1.352,0,0,0,0,2.7H4.696S8.815,24.331,8.847,24.404a4.056,4.056,0,0,0,3.907,3.029H31.291a4.062,4.062,0,0,0,3.983-3.29l2.65-13.77a2.7,2.7,0,0,0-.573-2.233Z" transform="translate(-0.07348)"/><path class="b" d="M36.277,7.066a2.7,2.7,0,0,0-2.085-.982H7.057l-.782-3.91A2.71,2.71,0,0,0,3.623,0H1.352a1.352,1.352,0,0,0,0,2.7H3.623S7.742,23.258,7.774,23.331a4.056,4.056,0,0,0,3.907,3.029H30.218a4.062,4.062,0,0,0,3.983-3.29L36.851,9.3a2.7,2.7,0,0,0-.573-2.233Z" transform="translate(-0.07348)"/><path class="c" d="M14.479,24.454a4.29,4.29,0,1,1-4.29,4.29h0A4.29,4.29,0,0,1,14.479,24.454Z" transform="translate(-0.07348)"/><path class="c" d="M28.422,24.454a4.29,4.29,0,1,1-4.29,4.29h0A4.29,4.29,0,0,1,28.422,24.454Z" transform="translate(-0.07348)"/><path class="d" d="M14,23.234a4.272,4.272,0,0,1,4,4.5,4.272,4.272,0,0,1-4,4.5,4.272,4.272,0,0,1-4-4.5A4.272,4.272,0,0,1,14,23.234Z" transform="translate(-0.07348)"/><path class="d" d="M28,23.234a4.272,4.272,0,0,1,4,4.5,4.272,4.272,0,0,1-4,4.5,4.272,4.272,0,0,1-4-4.5A4.272,4.272,0,0,1,28,23.234Z" transform="translate(-0.07348)"/></svg>