<svg xmlns="http://www.w3.org/2000/svg" width="77.107" height="65.819" viewBox="0 0 77.107 65.819"><defs><style>.a{opacity:0.501;}.b{fill:#3f8f22;}</style></defs><g class="a" transform="translate(0 -36.892)"><path class="b" d="M287.794,108.74a4.245,4.245,0,1,0,4.246,4.246A4.25,4.25,0,0,0,287.794,108.74Z" transform="translate(-240.168 -60.856)"/><path class="b" d="M175.5,286.1a13.846,13.846,0,1,0,13.847,13.846A13.846,13.846,0,0,0,175.5,286.1Zm7.8,15.487h-6.018v6.172a1.807,1.807,0,0,1-3.614,0v-6.172h-5.993a1.807,1.807,0,0,1,0-3.614h5.993v-5.839a1.807,1.807,0,0,1,3.614,0v5.839H183.3a1.807,1.807,0,0,1,0,3.614Z" transform="translate(-136.924 -211.082)"/><path class="b" d="M74.1,36.892H3.056A3.165,3.165,0,0,0,0,40.032v45.82A2.916,2.916,0,0,0,3.056,88.7H21.118a17.461,17.461,0,0,1,34.923,0H74.1a2.872,2.872,0,0,0,3.005-2.846V40.032A3.122,3.122,0,0,0,74.1,36.892ZM59.9,57.647,48.5,69.04,31.166,51.7a.6.6,0,0,0-.851,0l-11,11L14.3,57.681a.628.628,0,0,0-.873,0l-8,7.98V42.313H71.685V68.589L60.746,57.647A.6.6,0,0,0,59.9,57.647Z" transform="translate(0)"/></g></svg>