<?xml version="1.0" encoding="utf-8"?>
<!-- Generator: Adobe Illustrator 24.3.0, SVG Export Plug-In . SVG Version: 6.00 Build 0)  -->
<svg version="1.1" id="Layer_1" xmlns="http://www.w3.org/2000/svg" xmlns:xlink="http://www.w3.org/1999/xlink" x="0px" y="0px"
	 viewBox="0 0 38 33" style="enable-background:new 0 0 38 33;" xml:space="preserve">
<style type="text/css">
	.st0{fill:#193802;}
	.st1{fill:#469A09;}
	.st2{fill:#2B2929;}
	.st3{fill:#5E5E5E;}
	.st4{fill:#FFFFFF;}
</style>
<g transform="translate(-5 -5)">
	<path class="st0" d="M42.3,13.1c-0.5-0.6-1.3-1-2.1-1H13.1l-0.8-3.9C12.1,7,11,6.1,9.7,6.1H7.4c-0.7,0-1.3,0.7-1.3,1.4
		c0,0.7,0.6,1.2,1.3,1.3h2.3c0,0,4.1,20.6,4.2,20.6c0.5,1.8,2.1,3,3.9,3h18.5c1.9,0,3.6-1.4,4-3.3l2.7-13.8
		C43.1,14.6,42.9,13.8,42.3,13.1L42.3,13.1z"/>
	<path class="st1" d="M41.3,12.1c-0.5-0.6-1.3-1-2.1-1H12.1l-0.8-3.9C11,5.9,9.9,5,8.6,5H6.4C5.6,5,5,5.7,5.1,6.4
		c0,0.7,0.6,1.2,1.3,1.3h2.3c0,0,4.1,20.6,4.2,20.6c0.5,1.8,2.1,3,3.9,3h18.5c1.9,0,3.6-1.4,4-3.3l2.7-13.8
		C42,13.5,41.8,12.7,41.3,12.1L41.3,12.1z"/>
	<g transform="translate(15.189 29.454)">
		<path class="st2" d="M4.3,0c2.4,0,4.3,1.9,4.3,4.3S6.7,8.6,4.3,8.6S0,6.7,0,4.3c0,0,0,0,0,0C0,1.9,1.9,0,4.3,0z"/>
		<path class="st2" d="M18.2,0c2.4,0,4.3,1.9,4.3,4.3s-1.9,4.3-4.3,4.3s-4.3-1.9-4.3-4.3c0,0,0,0,0,0C13.9,1.9,15.9,0,18.2,0z"/>
	</g>
	<path class="st3" d="M19,28.2c2.3,0.1,4.1,2.2,4,4.5c0.1,2.3-1.7,4.4-4,4.5c-2.3-0.1-4.1-2.2-4-4.5C14.9,30.4,16.7,28.4,19,28.2z"
		/>
	<path class="st3" d="M33,28.2c2.3,0.1,4.1,2.2,4,4.5c0.1,2.3-1.7,4.4-4,4.5c-2.3-0.1-4.1-2.2-4-4.5C28.9,30.4,30.7,28.4,33,28.2z"
		/>
	<g>
		<path class="st4" d="M31.9,20.7c0.1,0.7-0.4,1.4-1.2,1.5c-0.1,0-0.3,0-0.4,0h-3.7v2.8c0,0.5,0.1,1,0.3,1.4
			c-0.2,0.3-0.5,0.5-0.8,0.5c-1.1,0-1.6-0.5-1.6-1.5v-3.3h-4.6c-0.2-0.3-0.3-0.6-0.4-1c0-0.3,0.1-0.6,0.3-0.8
			c0.2-0.2,0.5-0.4,0.8-0.4c0.4,0,0.8,0,1.3,0.1c0.4,0.1,0.8,0.1,1.3,0.1h1.3v-4.3c0.3-0.2,0.7-0.3,1.1-0.3c0.3,0,0.7,0.1,0.9,0.3
			c0.4,0.2,0.5,0.4,0.5,0.7c0,0.4-0.1,0.8-0.2,1.2s-0.2,0.8-0.2,1.2v1.4h3.2c0.5,0,1-0.1,1.5-0.2C31.7,20.2,31.9,20.5,31.9,20.7z"/>
		<path class="st4" d="M26.1,27.5c-1.4,0-2.2-0.7-2.2-2v-2.8h-4.3l-0.1-0.2c-0.2-0.4-0.4-0.8-0.4-1.2c0-0.5,0.2-0.9,0.5-1.2
			c0.3-0.3,0.7-0.5,1.1-0.5c0.5,0,0.9,0,1.3,0.1c0.4,0.1,0.8,0.1,1.2,0.1h0.8v-4.1l0.2-0.1c0.4-0.2,0.8-0.4,1.3-0.4
			c0.5,0,0.9,0.2,1.2,0.4c0.5,0.3,0.8,0.7,0.8,1.1c0,0.5-0.1,0.9-0.2,1.3c-0.1,0.3-0.2,0.7-0.2,1.1l0,0.8h2.7c0.5,0,0.9-0.1,1.4-0.2
			l0.2-0.1l0.2,0.1c0.7,0.4,0.8,0.8,0.8,1.1c0.1,1-0.6,1.9-1.6,2.1c-0.2,0-0.3,0-0.5,0l-3.1,0v2.3c0,0.4,0.1,0.9,0.2,1.3l0.1,0.2
			l-0.1,0.2C27.1,27.2,26.6,27.5,26.1,27.5C26.1,27.5,26.1,27.5,26.1,27.5z M20.2,21.8h4.8v3.8c0,0.6,0.2,1,1.1,1
			c0.1,0,0.2-0.1,0.2-0.1c-0.1-0.4-0.2-0.9-0.2-1.3l0-3.3h4.2c0.2,0,0.2,0,0.3,0c0.2,0,0.4-0.1,0.6-0.3c0.1-0.2,0.2-0.4,0.2-0.6
			l0-0.1c0,0,0-0.1-0.2-0.2c-0.5,0.1-0.9,0.2-1.4,0.2l-3.7,0v-1.9c0-0.5,0.1-0.9,0.2-1.3c0.1-0.3,0.2-0.7,0.2-1.1c0,0,0-0.1-0.3-0.2
			c-0.2-0.1-0.5-0.2-0.7-0.2c-0.2,0-0.3,0.1-0.5,0.1v4.5h-1.8c-0.5,0-0.9,0-1.3-0.1c-0.4-0.1-0.8-0.1-1.2-0.1
			c-0.1,0-0.3,0.1-0.4,0.2c-0.2,0.2-0.2,0.3-0.2,0.5C20,21.4,20.1,21.6,20.2,21.8z M32.4,20.7L32.4,20.7L32.4,20.7z"/>
	</g>
</g>
</svg>
