<svg xmlns="http://www.w3.org/2000/svg" viewBox="0 0 27.143 27.02069"><defs><style>.a{fill:#cbcac7;opacity:0.762;isolation:isolate;}.b{fill:#1c82c8;}.c{fill:#f0efeb;}</style></defs><path class="a" d="M13.894.513A13.249,13.249,0,1,1,.645,13.762h0A13.249,13.249,0,0,1,13.894.513Z" transform="translate(0 0.00969)"/><path class="b" d="M25.644,12.822c0,.158,0,.316-.009.473A12.80844,12.80844,0,0,1,25.4,15.3a12.66116,12.66116,0,0,1-.4,1.555q-.119.362-.26.713A12.824,12.824,0,0,1,0,12.822q0-.219.007-.436.01-.305.035-.606.018-.226.044-.449a12.822,12.822,0,0,1,25.558,1.491Z" transform="translate(0 0.00969)"/><path class="c" d="M1.238,10.438H2.19L1.714,9.226Z" transform="translate(0 0.00969)"/><path class="c" d="M22.316,8.101v.52l-.26-.52H20.022v.52l-.26-.52h-2.77a2.641,2.641,0,0,0-1.212.26v-.26H13.833v.26a1.251,1.251,0,0,0-.822-.26H6.043L5.562,9.183,5.086,8.101H2.883v.52l-.26-.52H.898a12.754,12.754,0,0,0-.811,3.23L1.196,8.707H2.277l1.212,2.9v-2.9H4.662l.952,2.077L6.48,8.707H7.688v3.03H6.952V9.356L5.913,11.737H5.262L4.223,9.356v2.381H2.753l-.3-.649H.979l-.26.692H.043q-.024.3-.035.606h1.1l.26-.692h.606l.26.692h2.51v-.519l.217.519H6.216l.217-.519v.519h6.016V11.261h.086c.086,0,.086,0,.086.13v.952h3.117v-.26a2.59218,2.59218,0,0,0,1.169.26h1.3l.26-.693h.605l.26.693h2.51v-.649l.389.649h2.031V8.101ZM10.63,9.356H8.942v.563h1.645v.606H8.942v.606H10.63v.649H8.207V8.707h2.424Zm3.376,2.424H13.27v-.389a1.032,1.032,0,0,0-.13-.606c-.13-.13-.26-.13-.52-.13h-.778V11.78h-.736V8.707H12.75a1.65892,1.65892,0,0,1,.866.13.737.737,0,0,1,.346.692.861.861,0,0,1-.519.822.825.825,0,0,1,.433.26,1.08413,1.08413,0,0,1,.13.563Zm1.169-.043h-.736V8.661h.736Zm8.439,0h-.952L21.277,9.443v2.294H19.805l-.26-.649H18.031l-.26.692h-.823a1.3,1.3,0,0,1-1.428-1.515,1.777,1.777,0,0,1,.389-1.212,1.365,1.365,0,0,1,1.082-.346h.692v.649h-.692a.8.8,0,0,0-.563.173,1.016,1.016,0,0,0-.217.692.941.941,0,0,0,.217.736.68993.68993,0,0,0,.519.173h.3l1-2.38h1.082l1.212,2.9V8.75h1.082l1.255,2.121V8.75h.736v2.987Z" transform="translate(0 0.00969)"/><path class="c" d="M6.302,14.506v.563h1.6v.606h-1.6v.649H8.077l.822-.909-.779-.909Z" transform="translate(0 0.00969)"/><path class="c" d="M24.176,14.549a.64.64,0,0,0-.3.043c-.086.043-.086.13-.086.216,0,.13.043.173.173.217a.54909.54909,0,0,0,.26.043h.389a1.133,1.133,0,0,1,.794.234,12.8126,12.8126,0,0,0,.231-2.009h-1.5a1.41806,1.41806,0,0,0-.908.26v-.26H21.238a1.3732,1.3732,0,0,0-.866.26v-.26H16.867v.26a1.67522,1.67522,0,0,0-.952-.26H13.578v.26a1.645,1.645,0,0,0-1-.26h-2.6l-.606.649-.563-.649h-3.9v4.241H8.718l.605-.649.563.649h2.337v-1h.3a2.63374,2.63374,0,0,0,1-.13v1.169H15.47V16.448h.087c.13,0,.13,0,.13.13v1h5.886a1.7,1.7,0,0,0,1-.26v.26h1.861c.1,0,.2,0,.3-.01q.14-.352.26-.713a1.6713,1.6713,0,0,1-.517.075H23.092v-.649h1.385a.366.366,0,0,0,.3-.086.314.314,0,0,0,0-.433.36613.36613,0,0,0-.26-.087c-.692-.043-1.515,0-1.515-.952,0-.433.26-.909,1.039-.909h1.428v.736ZM12.534,15.934h-.866v1.038H10.283l-.866-1-.909,1H5.649V13.899h2.9l.866,1,.909-1h2.294c.563,0,1.212.173,1.212,1C13.789,15.759,13.183,15.934,12.534,15.934Zm4.328-.173a.983.983,0,0,1,.13.563v.606h-.736v-.39a.96593.96593,0,0,0-.13-.605c-.086-.13-.26-.13-.519-.13h-.779v1.126h-.736V13.859h1.645a1.74506,1.74506,0,0,1,.866.13.766.766,0,0,1,.389.692.863.863,0,0,1-.519.823.73693.73693,0,0,1,.389.255Zm2.986-1.256H18.16v.563h1.644v.605H18.16v.606h1.689v.649H17.425V13.859h2.424Zm1.818,2.424H20.281V16.28h1.385a.366.366,0,0,0,.3-.086.313.313,0,0,0,0-.433.36406.36406,0,0,0-.26-.087c-.692-.043-1.515,0-1.515-.952,0-.433.26-.909,1.038-.909h1.428v.736H21.316a.63994.63994,0,0,0-.3.043c-.087.043-.087.13-.087.216,0,.13.087.173.173.217a.548.548,0,0,0,.26.043h.387a1.1,1.1,0,0,1,.822.26.9.9,0,0,1,.217.649c.004.65-.386.953-1.122.953Z" transform="translate(0 0.00969)"/><path class="c" d="M13.054,10.005a.337.337,0,0,0,.13-.3.241.241,0,0,0-.13-.3.84421.84421,0,0,0-.346-.043h-.866v.692h.866A.84424.84424,0,0,0,13.054,10.005Z" transform="translate(0 0.00969)"/><path class="c" d="M18.81,9.226l-.519,1.212h1Z" transform="translate(0 0.00969)"/><path class="c" d="M10.933,16.67V14.203L9.808,15.415Z" transform="translate(0 0.00969)"/><path class="c" d="M12.578,14.506h-.909v.779h.952c.26,0,.433-.13.433-.389A.436.436,0,0,0,12.578,14.506Z" transform="translate(0 0.00969)"/><path class="c" d="M16.083,14.593a.84264.84264,0,0,0-.346-.043h-.866v.692h.866a.84365.84365,0,0,0,.346-.043.337.337,0,0,0,.13-.3A.241.241,0,0,0,16.083,14.593Z" transform="translate(0 0.00969)"/></svg>