<svg xmlns="http://www.w3.org/2000/svg" viewBox="0 0 52.755 51.587"><defs><style>.a{fill:#cbcac7;opacity:0.762;isolation:isolate;}.b{fill:#fff;}</style></defs><path class="a" d="M27.255.587a25.5,25.5,0,1,1-25.5,25.5A25.5,25.5,0,0,1,27.255.587Z"/><circle cx="25" cy="25" r="25"/><path class="b" d="M14.832,28.239a13.37906,13.37906,0,0,1-3.629,5.023c-2.4,1.889-3.434-.515-5.666-.515-1.547,0-2.516,1.153-3.765,1.234a24.859,24.859,0,0,1-.11-18.149C3.404,16,3.93,16.891,5.538,16.891c1.774,0,2.232-1.088,4.464-1.088a6.215,6.215,0,0,1,4.5,2.453,5.391,5.391,0,0,0,.334,9.981Z"/><path class="b" d="M4.774,15.601c0,.144.007.286.019.427a5.151,5.151,0,0,0,4.979-5.147c0-.144-.007-.286-.019-.427A5.151,5.151,0,0,0,4.774,15.601Z"/><path class="b" d="M17.813,16.696a.919.919,0,0,1,.98676-.84582L18.83,15.853h4.837c3.051,0,5.433,1.464,5.433,5.457v.2c0,3.969-2.456,5.482-5.581,5.482H20.443v6.127c0,.57-.645.868-1.315.868-.645,0-1.315-.3-1.315-.868Zm2.629,1.488v6.722h3.071c1.836,0,2.952-1.042,2.952-3.225v-.3c0-2.183-1.116-3.2-2.952-3.2Z"/><path class="b" d="M38.447,26.891v6.226c0,.471-.546.868-1.265.868-.67,0-1.191-.4-1.191-.868v-.868a4.862,4.862,0,0,1-3.746,1.935,3.051,3.051,0,0,1-3.3-3.274c0-2.8,2.357-3.547,5.8-3.547h1.096v-.446a2.416,2.416,0,0,0-2.456-2.679c-1.811,0-2.257.744-2.753.744-.62,0-.943-.719-.943-1.315,0-.893,2.059-1.588,3.746-1.588C37.082,22.079,38.447,24.411,38.447,26.891Zm-2.6,1.91h-.62c-1.885,0-3.646.2-3.646,1.786a1.473,1.473,0,0,0,1.612,1.612,2.884,2.884,0,0,0,2.654-2.481v-.917Z"/><path class="b" d="M38.841,23.642a.52484.52484,0,0,1-.1-.347c0-.67,1.017-1.24,1.711-1.24a.8.8,0,0,1,.794.471l3.126,8.062,2.679-8.062a.8.8,0,0,1,.744-.471c.62,0,1.736.546,1.736,1.29a.58318.58318,0,0,1-.049.3l-3.671,9.7c-1.116,2.927-2.332,6.226-5.854,6.226-.67,0-1.216-.174-1.216-1.116,0-.6.2-1.116.719-1.116,1.265,0,3.2-1.265,3.547-4.068Z"/></svg>