<svg xmlns="http://www.w3.org/2000/svg" width="19" height="19" viewBox="0 0 19 19"><defs><style>.a{fill:#e24c4b;}.b{fill:#d1403f;}.c{fill:#fff;}</style></defs><g transform="translate(0.308 0.042)"><circle class="a" cx="9.5" cy="9.5" r="9.5" transform="translate(-0.308 -0.042)"/><path class="b" d="M66.382,57.062a9.349,9.349,0,0,1-9.322,9.322,9.173,9.173,0,0,1-7.283-3.5A9.2,9.2,0,0,0,55.6,64.927a9.349,9.349,0,0,0,9.322-9.322,9.2,9.2,0,0,0-2.039-5.826A9.173,9.173,0,0,1,66.382,57.062Z" transform="translate(-47.738 -47.733)"/><path class="c" d="M126.1,126.1a.914.914,0,0,1-1.282,0l-2.971-2.971-2.971,2.971a.906.906,0,0,1-1.282-1.282l2.971-2.971-2.971-2.971a.906.906,0,1,1,1.282-1.282l2.971,2.971,2.971-2.971a.906.906,0,0,1,1.282,1.282l-2.971,2.971,2.971,2.971A.914.914,0,0,1,126.1,126.1Z" transform="translate(-112.528 -112.521)"/></g></svg>