<svg xmlns="http://www.w3.org/2000/svg" width="26.779" height="26.779" viewBox="0 0 26.779 26.779"><defs><style>.a{fill:#bf2604;}</style></defs><path class="a" d="M11.123,2.8A9.53,9.53,0,0,0,20.586-6.67a9.537,9.537,0,0,0-9.473-9.463A9.528,9.528,0,0,0,1.65-6.67,9.539,9.539,0,0,0,11.123,2.8ZM11.1-2.07a.833.833,0,0,1-.84-.937V-5.82H7.3c-.566,0-.957-.3-.957-.83A.84.84,0,0,1,7.3-7.51h2.959v-2.979a.829.829,0,0,1,.84-.937.843.843,0,0,1,.859.938V-7.51h2.969a.828.828,0,0,1,.938.859.827.827,0,0,1-.937.83H11.963v2.813A.843.843,0,0,1,11.1-2.07Z" transform="translate(0.815 10.241) rotate(45)"/></svg>