<svg xmlns="http://www.w3.org/2000/svg" viewBox="0 0 34.22623 30.3565"><defs><style>.a{fill:#469a09;}.b{fill:#bf2604;}</style></defs><path class="a" d="M10.54691,23.426a3.5613,3.5613,0,0,1-2.386-.887,3.15525,3.15525,0,0,1-1.05908-2.06494h6.88989A3.155,3.155,0,0,1,12.93265,22.539,3.5613,3.5613,0,0,1,10.54691,23.426Zm3.821-4.477H1.73392C.66385,18.94894,0,18.406,0,17.531c0-1.036.9419-1.97,1.853-2.873l.23291-.23206c.719-.73.926-2.19995,1.042-3.68a12.96556,12.96556,0,0,1,1.042-5.255,5.41565,5.41565,0,0,1,3.14209-2.9,3.369,3.369,0,0,1,3.23511-2.59,3.15583,3.15583,0,0,1,2.06494.75,3.81184,3.81184,0,0,1,1.168,1.84,5.41737,5.41737,0,0,1,3.14307,2.9,12.95673,12.95673,0,0,1,1.042,5.255c.03808.481.09009,1.046.18506,1.592a9.53253,9.53253,0,0,0-3.782,6.611Z" transform="translate(-0.00003 -0.00074)"/><path class="b" d="M18.09726,27.61305a9.4665,9.4665,0,1,0-.00213-13.39472A9.53,9.53,0,0,0,18.09726,27.61305Zm3.42734-3.45987a.833.833,0,0,1,.06859-1.25653l1.98909-1.98909-2.093-2.093a.85322.85322,0,1,1,1.195-1.195l2.09233,2.09233,2.10647-2.10647a.829.829,0,0,1,1.25653-.06859.843.843,0,0,1-.05586,1.27067L25.978,20.91322l2.0994,2.0994a.8519.8519,0,1,1-1.1936,1.195l-2.09657-2.09657L22.7981,24.10015a.843.843,0,0,1-1.2735.053Z" transform="translate(-0.00003 -0.00074)"/></svg>