<svg xmlns="http://www.w3.org/2000/svg" viewBox="0 0 18.87658 18.88395"><defs><style>.a{fill:#bf2604;}</style></defs><path class="a" d="M6.70025,20.08605A9.4665,9.4665,0,1,0,20.08083,6.69133,9.4665,9.4665,0,1,0,6.70025,20.08605Zm3.42735-3.45988a.833.833,0,0,1,.06859-1.25652l1.98909-1.9891-2.093-2.093a.85323.85323,0,1,1,1.195-1.195l2.09233,2.09233,2.10647-2.10647a.829.829,0,0,1,1.25653-.06859.843.843,0,0,1-.05586,1.27067L14.581,13.38621l2.0994,2.0994a.85191.85191,0,1,1-1.1936,1.195l-2.09657-2.09657L11.4011,16.57314a.843.843,0,0,1-1.2735.053Z" transform="translate(-3.95267 -3.94629)"/></svg>