<svg xmlns="http://www.w3.org/2000/svg" viewBox="0 0 60.34668 65.22601"><defs><style>.a{opacity:0.999;}.b{fill:#d9b66f;}.c{fill:#ffd54f;}.d{fill:#ffc12f;}.e{fill:#fff;}.f{fill:#469a09;}</style></defs><g class="a"><path class="b" d="M0,26.315H60.338V65.226H0Z" transform="translate(0.00191 0.00001)"/><path class="b" d="M30.16992,65.22556H.002L22.5249,44.92575a11.40091,11.40091,0,0,1,7.646-2.90625h0a11.40009,11.40009,0,0,1,7.64795,2.90625l22.522,20.29981Z" transform="translate(0.00191 0.00001)"/><path class="b" d="M30.17,47.86325h0a12.48548,12.48548,0,0,1-8.374-3.18848L.003,25.03513,21.796,5.39352A12.47312,12.47312,0,0,1,30.17,2.207h0a12.4765,12.4765,0,0,1,8.375,3.18652l21.7998,19.64161L38.5518,44.67477a12.49052,12.49052,0,0,1-8.37792,3.18848Z" transform="translate(0.00191 0.00001)"/><path class="b" d="M30.17,49.14255h0a12.48553,12.48553,0,0,1-8.374-3.18848L.003,26.31442,21.796,6.67282A12.47312,12.47312,0,0,1,30.17,3.4863h0a12.4765,12.4765,0,0,1,8.375,3.18652l21.7998,19.6416L38.5518,45.95407a12.49052,12.49052,0,0,1-8.37792,3.18848Z" transform="translate(0.00191 0.00001)"/><path class="b" d="M29.99512,41.792,23.478,38.04782a7.61361,7.61361,0,0,1-3.82422-6.59961V19.4863l10.34082-4.75293L40.33545,19.4863V31.44821a7.61486,7.61486,0,0,1-3.8208,6.59961Z" transform="translate(0.00191 0.00001)"/><path class="b" d="M22.915,28.69333l2.5498-2.54981,2.6001,2.59961,6.46777-6.46875,2.54883,2.55176-7.081,7.082-1.937,1.93653Z" transform="translate(0.00191 0.00001)"/></g><path class="c" d="M0,24.108H58.13V63.019H0Z" transform="translate(0.00191 0.00001)"/><path class="d" d="M29.06592,63.01855H.002l21.7002-20.2998a10.75789,10.75789,0,0,1,7.36621-2.90625h0a10.75275,10.75275,0,0,1,7.36816,2.90625l21.7002,20.2998Z" transform="translate(0.00191 0.00001)"/><path class="c" d="M29.066,45.65625h0a11.784,11.784,0,0,1-8.06787-3.18848l-21-19.63965,21-19.6416A11.7677,11.7677,0,0,1,29.066,0h0a11.76771,11.76771,0,0,1,8.06788,3.18652l21,19.6416-21,19.63965A11.77888,11.77888,0,0,1,29.064,45.65625Z" transform="translate(0.00191 0.00001)"/><path class="e" d="M29.066,46.93555h0a11.784,11.784,0,0,1-8.06787-3.18848l-21-19.63965,21-19.6416A11.7677,11.7677,0,0,1,29.066,1.2793h0a11.76771,11.76771,0,0,1,8.06788,3.18652l21,19.6416-21,19.63965A11.77888,11.77888,0,0,1,29.064,46.93555Z" transform="translate(0.00191 0.00001)"/><path class="f" d="M28.90137,39.585l-6.51709-3.74414a7.61361,7.61361,0,0,1-3.82422-6.59961V17.2793l10.34082-4.75293L39.2417,17.2793V29.24121a7.61486,7.61486,0,0,1-3.8208,6.59961Z" transform="translate(0.00191 0.00001)"/><path class="e" d="M21.81885,26.48633l2.5498-2.54981,2.6001,2.59961,6.46777-6.46875,2.54883,2.55176-7.081,7.082-1.937,1.93653Z" transform="translate(0.00191 0.00001)"/></svg>