<svg xmlns="http://www.w3.org/2000/svg" viewBox="0 0 280.17525 265.972"><defs><style>.a{fill:#a0616a;}.b{fill:#575a89;}.c,.f{fill:#d9d9d9;}.d{fill:#3f3d56;}.e{fill:#2f2e41;}.f{opacity:0.871;}.f,.g{isolation:isolate;}.g{opacity:0.1;}.h{fill:#ffd54f;}.i{fill:#707070;}.j{fill:#5b5353;}.k{fill:#469a09;}</style></defs><path class="a" d="M127.39,141.476s27.913,1.345,29.595,11.1-32.622,1.009-32.622,1.009Z" transform="translate(0.00225 0.002)"/><path class="b" d="M83.334,110.536s4.708,1.345,8.408,9.417,11.1,15.47,11.1,15.47l29.931,5.717-5.045,15.134-28.586-3.7L81.318,142.485Z" transform="translate(0.00225 0.002)"/><path class="c" d="M83.334,110.536s4.708,1.345,8.408,9.417,11.1,15.47,11.1,15.47l29.931,5.717-5.045,15.134-28.586-3.7L81.318,142.485Z" transform="translate(0.00225 0.002)"/><path class="d" d="M27.873,145.386H252.321V265.405H27.873Z" transform="translate(0.00225 0.002)"/><path class="a" d="M38.942,95.066l3.027,19.169,20.851,1.009-2.354-28.25Z" transform="translate(0.00225 0.002)"/><path class="e" d="M16.913,223.031l-1.009,42.375H47.517l4.708-16.815,3.7,16.815H88.883s.675-48.429-3.025-48.769S16.913,223.031,16.913,223.031Z" transform="translate(0.00225 0.002)"/><path class="a" d="M45.668,63.79A18.161,18.161,0,1,1,27.507,81.951h0A18.161,18.161,0,0,1,45.668,63.79Z" transform="translate(0.00225 0.002)"/><path class="f" d="M15.064,224.88l9.417-46.41L12.038,116.926l28.653-10.754,14.053-1.69,7.065-1.319,5.042,1.319s20.178,5.045,21.187,8.744-4.036,33.967-4.036,33.967L79.294,172.08l10.425,44.729s-43.383,14.8-73.987,8.071Z" transform="translate(0.00225 0.002)"/><path class="g" d="M27.676,133.909v12.443l39.681.054-37.664-4.09Z" transform="translate(0.00225 0.002)"/><path class="g" d="M24.267,168.275l49.818-7.125L24.267,175.26Z" transform="translate(0.00225 0.002)"/><path class="g" d="M103.345,135.591l-5.341,19.245,9.04-18.61Z" transform="translate(0.00225 0.002)"/><path class="e" d="M60.613,63.737l3.34-1.337s-6.983-7.688-16.7-7.019l2.732-3.008s-6.679-2.674-12.751,4.345c-3.192,3.69-6.885,8.027-9.187,12.913H24.471l1.493,3.287L20.74,76.205l5.362-.59a18.36733,18.36733,0,0,0-.146,5.452,7.05391,7.05391,0,0,0,2.583,4.614h0s4.142-8.573,4.142-9.91v3.342s3.34-3.008,3.34-5.014l1.822,2.34.911-3.677,11.233,3.677-1.822-3.008,6.983,1-2.732-3.677s7.893,4.345,8.2,8.022a17.652,17.652,0,0,0,2.614,7.16S69.418,68.75,60.613,63.737Z" transform="translate(0.00225 0.002)"/><path class="h" d="M78.458,130.883H207.599V265.742H78.458Z" transform="translate(0.00225 0.002)"/><path class="i" d="M91.91,160.478h95.511V173.93H91.91Z" transform="translate(0.00225 0.002)"/><path class="i" d="M108.33,196.126h62.551v6.726H108.33Z" transform="translate(0.00225 0.002)"/><path class="i" d="M108.45,207.897h62.551v6.726H108.45Z" transform="translate(0.00225 0.002)"/><path class="i" d="M108.571,219.667h31.275v6.726H108.571Z" transform="translate(0.00225 0.002)"/><path class="i" d="M174.641,253.634h14.461v6.726H174.641Z" transform="translate(0.00225 0.002)"/><path class="a" d="M69.21,147.866s29.259-4.372,33.631,2.018-30.94,9.753-30.94,9.753Z" transform="translate(0.00225 0.002)"/><path class="c" d="M15.401,116.59H13.294a3.436,3.436,0,0,0-2.339.91c-2,1.857-6.23,6.65-8,15.232-2.354,11.434-6.39,33.631,2.69,35.312s68.606-6.39,68.606-6.39l-4.372-15.47-43.047.336s.673-7.4-.673-12.107S15.401,116.59,15.401,116.59Z" transform="translate(0.00225 0.002)"/><path class="d" d="M196.5293,17.48176v-.67188h35.31347v.67188Zm-139.56739,0v-.67188H168.95312v.67188Z" transform="translate(0.00225 0.002)"/><path class="c" d="M56.959,3.355A13.789,13.789,0,1,1,43.17,17.144,13.789,13.789,0,0,1,56.959,3.355Z" transform="translate(0.00225 0.002)"/><path class="j" d="M119.849,3.355A13.789,13.789,0,1,1,106.06,17.144,13.789,13.789,0,0,1,119.849,3.355Z" transform="translate(0.00225 0.002)"/><path class="d" d="M231.501,17.14484a14.125,14.125,0,1,1,14.125,14.125A14.12531,14.12531,0,0,1,231.501,17.14484Zm.67285,0A13.45139,13.45139,0,0,0,245.625,30.596h.001A13.44972,13.44972,0,0,0,259.07715,17.1468v-.002a13.45166,13.45166,0,1,0-26.90332,0Zm-63.56348,0a14.12549,14.12549,0,1,1,14.126,14.125A14.12677,14.12677,0,0,1,168.61035,17.14484Zm.67383,0A13.44973,13.44973,0,0,0,182.7334,30.596h.00293A13.44972,13.44972,0,0,0,196.1875,17.1468v-.002A13.45313,13.45313,0,0,0,169.28125,17.14v.00488Z" transform="translate(0.00225 0.002)"/><path class="k" d="M55.059,23.009l-5.976-7.968,2.152-1.615,4.114,5.485L74.263-.002l1.9,1.9Z" transform="translate(0.00225 0.002)"/><path class="d" d="M5.548,265.034H280.173v.936H5.548Z" transform="translate(0.00225 0.002)"/></svg>