<?xml version="1.0" encoding="utf-8"?>
<!-- Generator: Adobe Illustrator 24.3.0, SVG Export Plug-In . SVG Version: 6.00 Build 0)  -->
<svg version="1.1" id="Layer_1" xmlns="http://www.w3.org/2000/svg" xmlns:xlink="http://www.w3.org/1999/xlink" x="0px" y="0px"
	 viewBox="0 0 296 223.6" style="enable-background:new 0 0 296 223.6;" xml:space="preserve">
<style type="text/css">
	.st0{fill:#F2F2F2;}
	.st1{fill:#FFFFFF;}
	.st2{fill:#3F3D56;}
	.st3{fill:#2F2E41;}
	.st4{fill:#FFB8B8;}
	.st5{fill:#CCCCCC;}
	.st6{fill:#FFD54F;}
	.st7{fill:#469A09;}
	.st8{opacity:0.2;enable-background:new    ;}
	.st9{fill:#FF6584;}
	.st10{fill:#E6E6E6;}
	.st11{fill:#F9A825;}
	.st12{fill:#00BF71;}
	.st13{opacity:0.1;enable-background:new    ;}
	.st14{fill:#61AB43;}
	.st15{fill:#EA565C;}
	.st16{opacity:0.2;fill:#FFFFFF;enable-background:new    ;}
	.st17{fill:#714B4F;}
	.st18{fill:#F6C964;}
	.st19{fill:#784F69;}
	.st20{opacity:0.15;enable-background:new    ;}
	.st21{opacity:7.000000e-02;enable-background:new    ;}
	.st22{opacity:3.000000e-02;enable-background:new    ;}
	.st23{fill:#4D4981;}
	.st24{opacity:0.5;fill:#FFFFFF;enable-background:new    ;}
	.st25{opacity:0.5;fill:#FD6F8D;enable-background:new    ;}
	.st26{opacity:0.5;}
	.st27{fill:#5B5353;}
</style>
<g transform="translate(-26 -260)">
	<g transform="translate(33 260)">
		<path class="st0" d="M12.8,217.3c9,6.5,20.7,6.8,32,6c1.6-0.1,3.1-0.2,4.7-0.4c0,0,0,0,0,0c0.1,0,0.1,0,0.2,0l1-0.1l-0.1,0.1
			l-0.2,0.4c0.1-0.1,0.2-0.3,0.3-0.4c0,0,0.1-0.1,0.1-0.1c2.9-5.1,5.8-10.4,6.6-16.2c0.8-6-1.4-12.9-6.7-15.8
			c-0.7-0.4-1.4-0.7-2.2-0.9c-0.3-0.1-0.6-0.2-1-0.2c-6.2-1.4-12.3,2.5-13.7,8.7c-0.5,2.1-0.3,4.2,0.3,6.2
			c-4.5-4.6-3.7-12.1-2.1-18.4s3.4-13.2,0.3-18.8c-1.8-3-4.8-5.2-8.3-5.8c-0.1,0-0.2,0-0.3-0.1c-4.1-0.8-8.4-0.1-12,2.1
			c-6.6,4.2-10,12.1-11.1,19.9C-1.4,195.9,2.6,209.9,12.8,217.3z"/>
		<path class="st1" d="M15.7,197.2c0.3,2.8,0.9,5.5,2,8c1,2.3,2.3,4.4,3.8,6.3c3.3,3.9,7.5,6.9,12.2,8.8c3.6,1.5,7.3,2.5,11.1,3
			c1.6-0.1,3.1-0.2,4.7-0.4c0,0,0,0,0,0c0.1,0,0.1,0,0.2,0l1-0.1l-0.1,0.1l-0.2,0.4c0.1-0.1,0.2-0.3,0.3-0.4c0,0,0.1-0.1,0.1-0.1
			c-8.9-8.8-9.9-22.9-2.3-32.9c-0.3-0.1-0.6-0.2-1-0.2c-0.9,1.3-1.7,2.6-2.4,4c-2.4,5-3.2,10.6-2.2,16.1c0.9,4.9,3.3,9.5,6.7,13.2
			c-0.3,0-0.6,0-0.9-0.1c-5.7-0.4-11.2-1.8-16.4-4.2c-4.4-2.1-8.2-5.2-11-9.1c-3-4.3-4.6-9.4-4.7-14.6c-0.2-5.6,0.4-11.2,1.8-16.7
			c1.3-5.6,3.3-11,5.9-16c0.1-0.2,0-0.5-0.2-0.7c-0.1-0.1-0.2-0.1-0.3-0.1c-0.1,0-0.2,0.1-0.2,0.2c-0.3,0.6-0.6,1.3-0.9,1.9
			c-2.5,5.3-4.4,10.9-5.5,16.6C15.6,185.8,15.2,191.5,15.7,197.2z"/>
		<path class="st1" d="M283.2,192.3h-149c-3.2,0-5.8-2.6-5.8-5.8V5.8c0-3.2,2.6-5.8,5.8-5.8h149c3.2,0,5.8,2.6,5.8,5.8v180.7
			C289,189.7,286.4,192.3,283.2,192.3L283.2,192.3z M134.2,0.7c-2.8,0-5.1,2.3-5.1,5.1v180.7c0,2.8,2.3,5.1,5.1,5.1h149
			c2.8,0,5.1-2.3,5.1-5.1V5.8c0-2.8-2.3-5.1-5.1-5.1L134.2,0.7z"/>
		<rect x="128.8" y="14.2" class="st1" width="159.9" height="0.7"/>
		<circle class="st2" cx="136.6" cy="7.5" r="2.7"/>
		<circle class="st2" cx="145.1" cy="7.5" r="2.7"/>
		<circle class="st2" cx="153.7" cy="7.5" r="2.7"/>
		<path class="st1" d="M260.1,41.3H153.7c-2.4,0-4.4-2-4.4-4.4c0-2.4,2-4.4,4.4-4.4c0,0,0,0,0,0h106.4c2.4,0,4.4,2,4.4,4.4
			C264.5,39.3,262.6,41.3,260.1,41.3z M153.7,33.1c-2.1,0-3.8,1.7-3.8,3.8s1.7,3.8,3.8,3.8h106.4c2.1,0,3.8-1.7,3.8-3.8
			s-1.7-3.8-3.8-3.8H153.7z"/>
		<path class="st1" d="M193.5,103.6h-41.9c-3.2,0-5.8-2.6-5.8-5.8V63.4c0-3.2,2.6-5.8,5.8-5.8h41.9c3.2,0,5.8,2.6,5.8,5.8v34.4
			C199.3,101,196.7,103.6,193.5,103.6z M151.6,58.3c-2.8,0-5.1,2.3-5.1,5.1v34.4c0,2.8,2.3,5.1,5.1,5.1h41.9c2.8,0,5.1-2.3,5.1-5.1
			V63.4c0-2.8-2.3-5.1-5.1-5.1L151.6,58.3z"/>
		<path class="st0" d="M234.4,59.3h20.8c8.8,0,16,7.2,16,16v13.3c0,8.8-7.2,16-16,16h-20.8c-8.8,0-16-7.2-16-16V75.3
			C218.4,66.5,225.6,59.3,234.4,59.3z"/>
		<path class="st1" d="M193.5,167.7h-41.9c-3.2,0-5.8-2.6-5.8-5.8v-34.4c0-3.2,2.6-5.8,5.8-5.8h41.9c3.2,0,5.8,2.6,5.8,5.8v34.4
			C199.3,165.1,196.7,167.7,193.5,167.7z M151.6,122.4c-2.8,0-5.1,2.3-5.1,5.1v34.4c0,2.8,2.3,5.1,5.1,5.1h41.9
			c2.8,0,5.1-2.3,5.1-5.1v-34.4c0-2.8-2.3-5.1-5.1-5.1L151.6,122.4z"/>
		<path class="st0" d="M234.4,123.4h20.8c8.8,0,16,7.2,16,16v13.3c0,8.8-7.2,16-16,16h-20.8c-8.8,0-16-7.2-16-16v-13.3
			C218.4,130.6,225.6,123.4,234.4,123.4z"/>
		<circle class="st3" cx="65.7" cy="110.3" r="10.2"/>
		<circle class="st4" cx="66.5" cy="112.2" r="8.4"/>
		<path class="st4" d="M98.4,137.7c-0.1,0.1-0.3,0.3-0.4,0.4l-16.9-0.6l-1.9-3.6l-5.9,2.2l2.8,6.7c0.5,1.1,1.6,1.8,2.8,1.7l19.1-2.1
			c1.2,1.6,3.5,1.9,5,0.6c1.6-1.2,1.9-3.5,0.6-5s-3.5-1.9-5-0.6C98.6,137.5,98.5,137.6,98.4,137.7L98.4,137.7z"/>
		<path class="st5" d="M71.1,139.3c-0.4-0.2-0.8-0.6-0.9-1l-2.4-7.9c-1-2.3,0-5,2.3-6c2.3-1,4.9-0.1,6,2.2l4.6,6.9
			c0.5,0.8,0.3,1.8-0.5,2.3c-0.1,0-0.1,0.1-0.2,0.1l-7.5,3.5C72.1,139.5,71.6,139.5,71.1,139.3z"/>
		<path class="st4" d="M87.8,219.5l3.7-2l-6-15.1l-5.4,2.9L87.8,219.5z"/>
		<path class="st3" d="M86.2,218.8l7.2-3.9l0,0c2.5-1.4,5.7-0.4,7.1,2.1c0,0,0,0,0,0l0.1,0.2l-11.8,6.4L86.2,218.8z"/>
		<path class="st4" d="M47.4,219.5h4.2l2-16.1h-6.2L47.4,219.5z"/>
		<path class="st3" d="M46.3,218.2h8.2c2.9,0,5.2,2.3,5.2,5.2c0,0,0,0,0,0v0.2H46.3V218.2z"/>
		<path class="st3" d="M73.3,148l1.4,16.4L89.9,210c0.2,0.7-0.1,1.5-0.9,1.7c0,0-0.1,0-0.1,0l-4.7,1.1c-0.6,0.1-1.2-0.1-1.5-0.7
			l-19.4-38.6c-0.2-0.3-0.6-0.5-0.9-0.3c-0.2,0.1-0.3,0.3-0.4,0.5l-8.6,39c-0.1,0.6-0.7,1.1-1.3,1.1h-4.3c-0.8,0-1.4-0.6-1.4-1.4
			c0,0,0,0,0,0c0.4-27-0.9-57.8,9.5-62.7l1.7-4.4L73.3,148z"/>
		<path class="st5" d="M57.2,146.4l-1.8-10.6c-0.6-3.5,0.7-7.1,3.3-9.5c2.6-2.4,6.2-3.3,9.7-2.4l0.3,0.1c4.2,1.2,7.3,4.9,7.6,9.3
			c0.3,4.6,0,11.3-3.3,17l-0.1,0.1L57.2,146.4z"/>
		<path class="st3" d="M74.9,107.7c-1.9,1.3-4.2,2-6.5,2c0.8,0.6,1.8,1,2.8,1.1c-3.1,0.7-6.3,0.7-9.4,0.1c-0.7-0.1-1.4-0.3-2-0.7
			c-0.6-0.3-1.1-0.9-1.2-1.6c-0.2-1.2,0.7-2.2,1.7-3c3-2.2,6.7-3,10.3-2.1c1.2,0.2,2.2,0.8,3.1,1.7c0.8,0.9,0.9,2.3,0.3,3.3
			L74.9,107.7z"/>
		<path class="st3" d="M65.5,100c0.7-3.8-1.8-7.4-5.5-8.1c-0.3-0.1-0.7-0.1-1-0.1c-4.1,0.1-7.1,3.8-9.2,7.3s-4.1,7.5-7.9,9.1
			c-4.2,1.7-9-0.4-10.6-4.6c-0.4-1-0.6-2.1-0.6-3.2c-0.5,4.3,0.2,8.9,3,12.3s7.9,4.8,11.6,2.6c2.1-1.3,3.5-3.5,4.6-5.7
			s2.1-4.5,3.8-6.3s4.3-3,6.6-2.2c0.9,0.4,1.8,0.8,2.7,1.1c1,0.2,2.2-0.3,2.3-1.3L65.5,100z"/>
		<path class="st4" d="M45.4,171.1c-1.3-1.5-1.1-3.8,0.4-5.2c0.2-0.1,0.3-0.3,0.5-0.4l7.3-32.6l7.4,3l-9.5,31.1
			c0.9,1.8,0.2,4-1.6,4.9C48.3,172.8,46.5,172.4,45.4,171.1L45.4,171.1z"/>
		<path class="st5" d="M50.7,137.7c-0.2-0.4-0.3-0.9-0.1-1.4l2.8-7.8c0.5-2.5,2.9-4.1,5.3-3.6s4.1,2.9,3.6,5.3c0,0,0,0,0,0.1
			l-0.4,8.3c0,0.9-0.8,1.6-1.7,1.6c-0.1,0-0.2,0-0.2,0l-8.1-1.6C51.3,138.4,50.9,138.1,50.7,137.7L50.7,137.7z"/>
		<path class="st2" d="M110.2,134l-0.1,0l0.5-3.3c0.1-1.1-0.6-2-1.7-2.2l-7-1c-1.1-0.1-2,0.6-2.2,1.7l-2.5,18.2
			c-0.1,1.1,0.6,2,1.7,2.2l7,1c1.1,0.1,2-0.6,2.2-1.7c0,0,0,0,0,0l1.7-12.5l0.1,0L110.2,134z"/>
		<path class="st1" d="M108.6,129.5l-0.9-0.1c0.1,0.4-0.1,0.7-0.5,0.8c-0.1,0-0.2,0-0.3,0l-3.8-0.5c-0.4,0-0.6-0.4-0.6-0.7
			c0-0.1,0-0.2,0.1-0.2l-0.8-0.1c-0.8-0.1-1.5,0.4-1.6,1.2c0,0,0,0,0,0L98,147.1c-0.1,0.8,0.4,1.5,1.2,1.6l6.7,0.9
			c0.8,0.1,1.5-0.4,1.6-1.2c0,0,0,0,0,0l0,0l2.4-17.3C109.9,130.3,109.4,129.6,108.6,129.5C108.7,129.5,108.7,129.5,108.6,129.5
			L108.6,129.5z"/>
		<circle class="st6" cx="103.9" cy="140.1" r="3.8"/>
		<path class="st1" d="M103.5,141.6c-0.1,0-0.2,0-0.2-0.1l0,0l-0.9-0.7c-0.2-0.1-0.2-0.4-0.1-0.5c0.1-0.2,0.4-0.2,0.5-0.1
			c0,0,0,0,0,0l0.6,0.4l1.3-1.8c0.1-0.2,0.4-0.2,0.5-0.1l0,0l0,0c0.2,0.1,0.2,0.4,0.1,0.5l-1.6,2.1
			C103.8,141.5,103.6,141.6,103.5,141.6z"/>
		<path class="st2" d="M138.4,223.6H8.5c-0.2,0-0.3-0.2-0.3-0.3s0.2-0.3,0.3-0.3h129.9c0.2,0,0.3,0.2,0.3,0.3
			S138.6,223.6,138.4,223.6z"/>
	</g>
	<path class="st7" d="M134.3,476.8c-1.9,0-3.4,1.5-3.4,3.4c0,1.9,1.5,3.4,3.4,3.4c1.9,0,3.4-1.5,3.4-3.4
		C137.7,478.3,136.2,476.8,134.3,476.8L134.3,476.8z M124.4,450.2v3.4h3.4l6.1,12.4l-2.5,4.2c-0.3,0.5-0.4,1-0.4,1.6
		c0,2.3,1.5,3.4,3.7,3.4h19.8v-3.3H135c-0.2,0-0.4-0.2-0.4-0.4c0,0,0,0,0,0c0-0.1,0.1-0.3,0.2-0.4l1.7-2.7h12.6c1.2,0,2.4-0.7,3-1.8
		l6.1-10.5c0.1-0.3,0.2-0.6,0.2-0.8c0-0.9-0.7-1.6-1.6-1.6c0,0,0,0,0,0h-25.1l-1.6-3.4L124.4,450.2z M151,476.8
		c-1.9,0-3.4,1.5-3.4,3.4c0,1.9,1.5,3.4,3.4,3.4c1.9,0,3.4-1.5,3.4-3.4C154.4,478.3,152.9,476.8,151,476.8
		C151,476.8,151,476.8,151,476.8L151,476.8z"/>
	<g transform="translate(168 320)">
		<circle class="st6" cx="37.4" cy="20.3" r="20.3"/>
		<path class="st8" d="M37.4,35.2c-8.2,0-14.8-6.6-14.8-14.8S29.2,5.5,37.4,5.5s14.8,6.6,14.8,14.8c0,3.9-1.6,7.7-4.3,10.5
			S41.3,35.2,37.4,35.2z M37.4,6.4c-7.7,0-13.9,6.2-13.9,13.9s6.2,13.9,13.9,13.9c7.7,0,13.9-6.2,13.9-13.9
			C51.3,12.6,45.1,6.4,37.4,6.4z"/>
		<circle class="st2" cx="37.4" cy="20.3" r="14.4"/>
		<path class="st9" d="M26.7,14.6c-0.5-0.9-0.1-2,0.8-2.5s2-0.1,2.5,0.8l4.1,8c0.5,0.9,0.1,2-0.8,2.5s-2,0.1-2.5-0.8l0,0L26.7,14.6z
			"/>
		<path class="st8" d="M27.1,15.5l-0.2-0.4c1-0.7,2.1-1.3,3.3-1.7l0.2,0.4C29.2,14,28,14.6,27.1,15.5z"/>
		<path class="st8" d="M28,17.2l-0.2-0.4c1-0.7,2.1-1.3,3.3-1.7l0.2,0.4C30,15.7,28.9,16.3,28,17.2z"/>
		<path class="st8" d="M28.9,18.9l-0.2-0.4c1-0.7,2.1-1.3,3.3-1.7l0.2,0.4C30.9,17.4,29.8,18,28.9,18.9z"/>
		<path class="st8" d="M29.8,20.6l-0.2-0.4c1-0.7,2.1-1.3,3.3-1.7L33,19C31.8,19.2,30.6,19.7,29.8,20.6z"/>
		<path class="st8" d="M30.6,22.3L30.4,22c1-0.7,2.1-1.3,3.3-1.7l0.2,0.4C32.7,20.9,31.5,21.5,30.6,22.3z"/>
		<path class="st9" d="M23.6,17.6c-0.5-0.9-0.1-2,0.8-2.5s2-0.1,2.5,0.8l4.1,8c0.5,0.9,0.1,2-0.8,2.5s-2,0.1-2.5-0.8l0,0L23.6,17.6z
			"/>
		<path class="st8" d="M24.1,18.5l-0.2-0.4c1-0.7,2.1-1.3,3.3-1.7l0.2,0.4C26.1,17,25,17.6,24.1,18.5z"/>
		<path class="st8" d="M25,20.2l-0.2-0.4c1-0.7,2.1-1.3,3.3-1.7l0.2,0.4C27,18.7,25.8,19.3,25,20.2z"/>
		<path class="st8" d="M25.8,21.9l-0.2-0.4c1-0.7,2.1-1.3,3.3-1.7l0.2,0.4C27.9,20.4,26.7,21,25.8,21.9z"/>
		<path class="st8" d="M26.7,23.6l-0.2-0.4c1-0.7,2.1-1.3,3.3-1.7L30,22C28.7,22.2,27.6,22.7,26.7,23.6z"/>
		<path class="st8" d="M27.6,25.3L27.4,25c1-0.7,2.1-1.3,3.3-1.7l0.2,0.4C29.6,23.9,28.5,24.4,27.6,25.3z"/>
		<path class="st10" d="M47,20.8L47,20.8c0.9,0,1.7-0.5,2.1-1.4c1.4-3.7-0.3-7.8-4-9.2c-3.7-1.4-7.8,0.3-9.2,4
			c-1.4,3.6,0.2,7.6,3.8,9.1c0.8,0.4,1.8,0.2,2.4-0.4C43.3,21.5,45.1,20.8,47,20.8z"/>
		<circle class="st11" cx="43.3" cy="16.3" r="2.4"/>
		<circle class="st2" cx="38.2" cy="15.7" r="0.3"/>
		<circle class="st2" cx="29.1" cy="16" r="0.3"/>
		<circle class="st2" cx="39.7" cy="12.9" r="0.3"/>
		<circle class="st2" cx="39.7" cy="20.9" r="0.3"/>
		<circle class="st2" cx="45.2" cy="12.3" r="0.3"/>
		<circle class="st2" cx="27.3" cy="19.9" r="0.3"/>
		<circle class="st2" cx="29.3" cy="23.9" r="0.3"/>
		<circle class="st9" cx="42" cy="24.4" r="1"/>
		<path class="st8" d="M42.8,24.4c0,0.4-0.4,0.8-0.8,0.8s-0.8-0.4-0.8-0.8"/>
		<path class="st8" d="M41.2,24.3c0-0.4,0.4-0.8,0.8-0.8s0.8,0.4,0.8,0.8"/>
		<ellipse class="st9" cx="41.6" cy="24" rx="0.1" ry="0.1"/>
		<ellipse class="st9" cx="42" cy="23.9" rx="0.1" ry="0.1"/>
		<ellipse class="st9" cx="42" cy="24.7" rx="0.1" ry="0.1"/>
		<ellipse class="st9" cx="42.4" cy="24.2" rx="0.1" ry="0.1"/>
		<ellipse class="st9" cx="42.3" cy="24.9" rx="0.1" ry="0.1"/>
		<ellipse class="st9" cx="41.6" cy="24.6" rx="0.1" ry="0.1"/>
		<circle class="st9" cx="44.1" cy="21.6" r="1"/>
		<path class="st8" d="M44.9,21.6c0,0.4-0.4,0.8-0.8,0.8s-0.8-0.4-0.8-0.8l0,0"/>
		<path class="st8" d="M43.3,21.5c0-0.4,0.4-0.8,0.8-0.8s0.8,0.4,0.8,0.8"/>
		<ellipse class="st9" cx="43.7" cy="21.2" rx="0.1" ry="0.1"/>
		<ellipse class="st9" cx="44.1" cy="21.1" rx="0.1" ry="0.1"/>
		<ellipse class="st9" cx="44.1" cy="21.9" rx="0.1" ry="0.1"/>
		<ellipse class="st9" cx="44.5" cy="21.4" rx="0.1" ry="0.1"/>
		<ellipse class="st9" cx="44.4" cy="22.1" rx="0.1" ry="0.1"/>
		<ellipse class="st9" cx="43.7" cy="21.8" rx="0.1" ry="0.1"/>
		<circle class="st6" cx="46.2" cy="23" r="1"/>
		<path class="st8" d="M47,23.1c0,0.4-0.4,0.8-0.8,0.8s-0.8-0.4-0.8-0.8l0,0"/>
		<path class="st8" d="M45.4,22.9c0-0.4,0.4-0.8,0.8-0.8s0.8,0.4,0.8,0.8"/>
		<ellipse class="st6" cx="45.8" cy="22.6" rx="0.1" ry="0.1"/>
		<ellipse class="st6" cx="46.2" cy="22.5" rx="0.1" ry="0.1"/>
		<ellipse class="st6" cx="46.2" cy="23.4" rx="0.1" ry="0.1"/>
		<ellipse class="st6" cx="46.6" cy="22.8" rx="0.1" ry="0.1"/>
		<ellipse class="st6" cx="46.5" cy="23.6" rx="0.1" ry="0.1"/>
		<ellipse class="st6" cx="45.7" cy="23.2" rx="0.1" ry="0.1"/>
		<circle class="st6" cx="41" cy="23.1" r="1"/>
		<path class="st8" d="M41.8,23.2c0,0.4-0.4,0.8-0.8,0.8s-0.8-0.4-0.8-0.8"/>
		<path class="st8" d="M40.2,23.1c0-0.4,0.4-0.8,0.8-0.8s0.8,0.4,0.8,0.8"/>
		<ellipse class="st6" cx="40.6" cy="22.8" rx="0.1" ry="0.1"/>
		<ellipse class="st6" cx="41" cy="22.6" rx="0.1" ry="0.1"/>
		<ellipse class="st6" cx="41" cy="23.5" rx="0.1" ry="0.1"/>
		<ellipse class="st6" cx="41.4" cy="23" rx="0.1" ry="0.1"/>
		<ellipse class="st6" cx="41.3" cy="23.7" rx="0.1" ry="0.1"/>
		<ellipse class="st6" cx="40.5" cy="23.4" rx="0.1" ry="0.1"/>
		<circle class="st6" cx="43.3" cy="23.6" r="1"/>
		<path class="st8" d="M44.1,23.7c0,0.4-0.4,0.8-0.8,0.8s-0.8-0.4-0.8-0.8"/>
		<path class="st8" d="M42.5,23.5c0-0.4,0.4-0.8,0.8-0.8s0.8,0.4,0.8,0.8"/>
		<ellipse class="st6" cx="42.9" cy="23.2" rx="0.1" ry="0.1"/>
		<ellipse class="st6" cx="43.3" cy="23.1" rx="0.1" ry="0.1"/>
		<ellipse class="st6" cx="43.3" cy="24" rx="0.1" ry="0.1"/>
		<ellipse class="st6" cx="43.7" cy="23.4" rx="0.1" ry="0.1"/>
		<ellipse class="st6" cx="43.7" cy="24.2" rx="0.1" ry="0.1"/>
		<ellipse class="st6" cx="42.9" cy="23.8" rx="0.1" ry="0.1"/>
		<circle class="st9" cx="45" cy="24.7" r="1"/>
		<path class="st8" d="M45.7,24.8c0,0.4-0.4,0.8-0.8,0.8s-0.8-0.4-0.8-0.8"/>
		<path class="st8" d="M44.2,24.6c0-0.4,0.4-0.8,0.8-0.8s0.8,0.4,0.8,0.8"/>
		<ellipse class="st9" cx="44.6" cy="24.3" rx="0.1" ry="0.1"/>
		<ellipse class="st9" cx="45" cy="24.2" rx="0.1" ry="0.1"/>
		<ellipse class="st9" cx="45" cy="25.1" rx="0.1" ry="0.1"/>
		<ellipse class="st9" cx="45.4" cy="24.5" rx="0.1" ry="0.1"/>
		<ellipse class="st9" cx="45.3" cy="25.3" rx="0.1" ry="0.1"/>
		<ellipse class="st9" cx="44.5" cy="24.9" rx="0.1" ry="0.1"/>
		<circle class="st2" cx="31.5" cy="20.7" r="0.3"/>
		<path class="st11" d="M39,30.8l-6.7-1.9l0.3-0.9l6.7,1.8L39,30.8z"/>
		<path class="st11" d="M38.1,30.5c-2.3,0.4-4.6,0.4-6.9,0v-1c2.3,0.4,4.6,0.4,6.9,0V30.5z"/>
		<path class="st11" d="M38.8,27.5c-2.3,0.4-4.6,0.4-6.9,0v-1c2.3,0.4,4.6,0.4,6.9,0V27.5z"/>
		<path class="st11" d="M41.2,28.7c-2.3,0.4-4.6,0.4-6.9,0v-1c2.3,0.4,4.6,0.4,6.9,0V28.7z"/>
		<path class="st11" d="M41.7,29.8c-2.3,0.4-4.6,0.4-6.9,0v-1c2.3,0.4,4.6,0.4,6.9,0V29.8z"/>
		<path class="st11" d="M43.8,31.3L37,32.4l-0.2-1l6.8-1.1L43.8,31.3z"/>
		<path class="st11" d="M42.8,31.4c-1.9,1.4-4,2.4-6.3,2.9l-0.4-0.9c2.2-0.6,4.4-1.6,6.3-2.9L42.8,31.4z"/>
		<path class="st11" d="M42.2,28.4c-1.9,1.4-4,2.4-6.3,2.9l-0.4-0.9c2.2-0.6,4.4-1.6,6.3-2.9L42.2,28.4z"/>
		<path class="st11" d="M44.8,28.5c-1.9,1.4-4,2.4-6.3,2.9l-0.4-0.9c2.2-0.6,4.4-1.6,6.3-2.9L44.8,28.5z"/>
		<path class="st11" d="M45.8,29.2c-1.9,1.4-4,2.4-6.3,2.9l-0.4-0.9c2.2-0.6,4.4-1.6,6.3-2.9L45.8,29.2z"/>
		<rect x="37.2" y="27.3" class="st12" width="0.3" height="0.3"/>
		<rect x="38.2" y="33" class="st12" width="0.3" height="0.3"/>
		<rect x="33" y="27.3" class="st12" width="0.3" height="0.3"/>
		<rect x="40.6" y="31.4" class="st12" width="0.3" height="0.3"/>
		<rect x="40.8" y="29.5" class="st12" width="0.3" height="0.3"/>
		
			<rect x="35.3" y="28.3" transform="matrix(0.5614 -0.8275 0.8275 0.5614 -8.0904 41.8613)" class="st12" width="0.3" height="0.5"/>
		
			<rect x="39.2" y="29.1" transform="matrix(0.5614 -0.8275 0.8275 0.5614 -6.9938 45.3683)" class="st12" width="0.3" height="0.5"/>
		
			<rect x="34.5" y="30.3" transform="matrix(0.5614 -0.8275 0.8275 0.5614 -10.0859 42.0179)" class="st12" width="0.3" height="0.5"/>
		
			<rect x="37.1" y="30.1" transform="matrix(0.5614 -0.8275 0.8275 0.5614 -8.695 44.1216)" class="st12" width="0.5" height="0.3"/>
		
			<rect x="38.8" y="30.6" transform="matrix(0.5614 -0.8275 0.8275 0.5614 -8.2992 45.7826)" class="st12" width="0.5" height="0.3"/>
		<rect x="43.5" y="29" transform="matrix(0.5614 -0.8275 0.8275 0.5614 -4.9378 48.9892)" class="st12" width="0.5" height="0.3"/>
	</g>
	<g transform="translate(-123.23 312.252)">
		<path class="st2" d="M313.6,104.8c0,0-2.5,5-0.4,5s29.5,0.1,30.2-1.3c0.5-1,0.2-4.5,0-6.5c-0.1-0.8-0.8-1.4-1.6-1.4
			c-5.9,0.3-28,1.5-27.9,1.4c0.2-0.3,0.1-0.2,0.1-0.2S313.2,104.6,313.6,104.8z"/>
		<path class="st13" d="M343.5,102c-0.1-0.8-0.8-1.4-1.6-1.4c-5.9,0.3-28,1.5-27.9,1.4c0.2-0.3,0.1-0.2,0.1-0.2s-0.2,0.6-0.4,1.3
			c0,0,0,0,0,0.1l0,0.1c0.9,0.1,22.1-1.1,27.8-1.4c0.8,0,1.5,0.6,1.6,1.4c0.2,1.8,0.3,3.5,0.2,5.3c0,0,0.1-0.1,0.1-0.1
			C344.1,107.6,343.8,104,343.5,102z"/>
		<path class="st14" d="M316.7,97.3c-0.3-0.1-0.6-0.2-0.6-0.4c0-0.1,0.1-0.2,0.2-0.3c0.2-0.2,0.2-0.4,0-0.5c-0.3-0.2-0.6-0.2-0.8,0
			c-0.1,0.1-0.1,0.2-0.1,0.3c-0.1,0.3-0.7,0.4-1.2,0.5s-1,0.3-1,0.6c0,0.3,0.8,0.6,0.5,0.9c-0.1,0.1-0.3,0.2-0.4,0.3
			c0,0.1,0,0.2,0.1,0.2l0.5,0.5c0.2,0.2,0.4,0.4,0.3,0.7c-0.1,0.5-1.2,0.6-2,0.6c-0.3-0.1-0.6,0-0.9,0.1c-0.1,0.1-0.2,0.2-0.1,0.4
			c0.2,0.4,0.7,0.7,1.1,0.7c-0.6,0.1-0.9,0.6-0.4,0.9c-0.2,0.1-0.5,0.1-0.8,0c-0.2,0.2-0.1,0.5,0.2,0.6c0.3,0.2,0.7,0.3,1,0.4
			l-0.3,0.3c0.4,0.2,0.8,0.2,1.2,0c0.4-0.2,0.8-0.2,1.2-0.2c0.4,0.1,0.7,0.3,1.1,0.3c0.2,0,0.4-0.2,0.5-0.4l0.4-0.7
			c0.6,0.1,1.2-0.3,0.9-0.6c0.6,0.1,1.3-0.3,1.1-0.7c0.3,0.2,0.6,0.5,0.7,0.9c0,0.2,0.1,0.3,0.2,0.4c0.2,0.1,0.4,0.2,0.7,0.1
			c-0.1,0.2-0.2,0.5,0,0.7s0.9,0.1,0.9-0.1c0.4,0.2,0.8,0.3,1.2,0.3c0.5,0,1-0.2,1-0.4c0.6,0.2,1.3,0.3,2,0.3
			c0.1-0.2,0.5-0.2,0.8-0.2c0.3,0.1,0.6,0.1,0.9,0.1c0.3,0,0.6-0.2,0.5-0.3c0.6,0.1,1.3,0.2,2,0.1c0.6-0.1,1.2-0.2,1.8-0.3
			c0.6,0,1.3,0.1,1.9,0.3c0.2,0.1,0.5,0.2,0.7,0.1c0.1,0,0.2-0.1,0.3-0.2c0.5-0.2,1.2-0.3,1.7-0.1c0.6,0.2,1.2,0.2,1.8,0
			c0.2-0.1,0.3-0.2,0.5-0.3c0.7-0.2,1.6,0.4,2.4,0.2c0.2-0.1,0.5-0.2,0.7-0.2c0.5,0,0.8,0.3,1.3,0.4c0.5,0.1,1-0.2,0.9-0.5
			c0.5,0,0.9-0.1,1.4-0.2l-0.2-0.4c0.6,0,1-0.4,0.7-0.7c0.5,0,0.9-0.3,1.1-0.7c0.1-0.3-0.1-0.7-0.5-0.9c-0.3-0.1-0.5-0.2-0.8-0.4
			c-0.1-0.1-0.1-0.3-0.1-0.4c-0.2-0.4-0.6-0.6-1-0.7c-0.2,0-0.4-0.1-0.7-0.1c-0.2-0.1-0.3-0.2-0.2-0.3c0.1-0.1,0.2-0.1,0.3-0.2
			c0.3-0.2-0.2-0.5-0.7-0.6l1.1,0l0.2-1.1c-0.6,0.3-1.3,0.3-1.8-0.1c0.3,0.1,0.7,0,1-0.2c0.1-0.2,0.2-0.5,0.1-0.7
			c0-0.1-0.1-0.2-0.2-0.3c-0.1-0.1-0.3-0.1-0.3-0.1s0.1-0.1,0.1-0.2c0-0.2-0.3-0.2-0.6-0.3c-0.6-0.2-0.8-0.7-1.5-0.7
			c-0.4,0-0.8,0.3-0.8,0.8c0,0,0,0.1,0,0.1c0,0.4-0.3,0.8-0.8,0.8c0,0-0.1,0-0.1,0c-0.2,0-0.5-0.1-0.7-0.2l-1.8-0.8
			c-0.2-0.1-0.5-0.2-0.7-0.3c-0.4-0.1-0.8-0.1-1.2-0.1l-2.5-0.1c-0.1,0-0.3,0-0.4,0c-0.1,0-0.2,0.1-0.3,0.2
			c-0.5,0.4-1.2,0.5-1.8,0.3c-0.2,0-0.3-0.1-0.5-0.2c-0.6,0-1.1,0-1.6,0.2c-0.9,0.1-2-0.1-2.7,0.3c-0.2,0.1-0.3,0.3-0.5,0.4
			c-0.2,0.2-0.5,0.2-0.8,0.1c0.1,0.3,0,0.5-0.1,0.7c-0.3,0.3-0.6,0.4-1,0.4c-0.2-0.1-0.2-0.2-0.1-0.4s0.3-0.3,0.2-0.4
			s-0.3-0.2-0.5-0.3s-0.3-0.3-0.1-0.4c-0.1-0.2-0.6-0.1-0.8,0c-0.2,0.1-0.3,0.3-0.2,0.5c0,0.2-0.1,0.4-0.3,0.5
			c-0.4,0.2-1.2,0.1-1.4,0.4c-0.1,0.1-0.1,0.2-0.1,0.3c-0.2,0.4-1.2,0.5-1.9,0.6c0,0.1,0,0.2,0,0.3
			C317.3,97.5,316.9,97.3,316.7,97.3z"/>
		<path class="st13" d="M343.1,96.8c0.1,0.2,0.1,0.5-0.1,0.7c0,0-0.1,0.1-0.1,0.1l0.7,0l0.2-1.1C343.6,96.6,343.4,96.7,343.1,96.8
			C343.1,96.7,343.1,96.7,343.1,96.8z"/>
		<path class="st13" d="M343.3,98c0-0.1-0.3-0.3-0.5-0.4c-0.2,0.1-0.5,0.1-0.7,0.1C342.4,98,342.9,98.1,343.3,98z"/>
		<path class="st13" d="M343.7,98.8L343.7,98.8l-1.1,0.1c0.5,0.1,1,0.4,0.7,0.7c-0.1,0-0.2,0.1-0.3,0.2c-0.1,0.1,0,0.3,0.2,0.3
			c0.2,0.1,0.4,0.1,0.7,0.1c0.4,0,0.8,0.3,1,0.7c0,0.1,0,0.3,0.1,0.4c0.2,0.2,0.5,0.3,0.8,0.4l0.1,0c0.2-0.1,0.4-0.3,0.5-0.5
			c0.1-0.3-0.1-0.7-0.5-0.9c-0.3-0.1-0.5-0.2-0.8-0.4c-0.1-0.1-0.1-0.3-0.1-0.4c-0.2-0.4-0.6-0.6-1-0.7
			C343.8,98.8,343.7,98.8,343.7,98.8z"/>
		<path class="st13" d="M311.8,103.7c0.1-0.2,0.4-0.4,0.6-0.4c-0.3-0.1-0.6-0.2-0.8-0.4c-0.1,0-0.3,0-0.4,0
			c-0.2,0.2-0.1,0.5,0.2,0.6C311.5,103.6,311.6,103.6,311.8,103.7z"/>
		<path class="st13" d="M313.7,98.4c0.2-0.1,0.3-0.1,0.5-0.1c0.5-0.1,1.1-0.2,1.2-0.5c0-0.1,0-0.2,0.1-0.3c0.3-0.2,0.6-0.1,0.8,0
			c0.2,0.2,0.1,0.4,0,0.5c-0.1,0.1-0.2,0.2-0.2,0.3c0,0.2,0.3,0.3,0.6,0.4c0.1,0,0.3,0.1,0.4,0.2c0,0,0,0,0-0.1
			c0.8,0,1.7-0.1,1.9-0.6c0-0.1,0.1-0.2,0.1-0.3c0.3-0.3,1-0.2,1.4-0.4c0.2-0.1,0.3-0.3,0.3-0.5c0-0.2,0.1-0.4,0.2-0.5
			c0.2-0.1,0.7-0.2,0.8,0c-0.2,0.1-0.1,0.3,0.1,0.4s0.4,0.2,0.5,0.3s-0.1,0.3-0.2,0.4s-0.1,0.3,0.1,0.4c0.4,0.1,0.8-0.1,1-0.4
			c0.1-0.2,0.2-0.5,0.1-0.7c0.3,0.1,0.6,0,0.8-0.1c0.2-0.1,0.3-0.3,0.5-0.4c0.7-0.4,1.8-0.2,2.7-0.3c0.5-0.2,1.1-0.2,1.6-0.2
			c0.2,0,0.3,0.1,0.5,0.2c0.6,0.2,1.3,0.1,1.8-0.3c0.1-0.1,0.2-0.2,0.3-0.2c0.1,0,0.3,0,0.4,0l2.5,0.1c0.4,0,0.8,0,1.2,0.1
			c0.3,0.1,0.5,0.2,0.7,0.3l1.8,0.8c0.2,0.1,0.4,0.2,0.7,0.2c0.4,0,0.8-0.3,0.9-0.7c0,0,0-0.1,0-0.1c0-0.4,0.3-0.8,0.7-0.9
			c0,0,0.1,0,0.1,0c0.6,0,0.9,0.5,1.5,0.7c0.2,0.1,0.6,0.1,0.6,0.3c0,0.1-0.1,0.1-0.1,0.2c0.2,0,0.3-0.1,0.4-0.2
			c0.1-0.2,0.2-0.5,0.1-0.7c0-0.1-0.1-0.2-0.2-0.3c-0.1-0.1-0.3-0.1-0.3-0.1s0.1-0.1,0.1-0.2c0-0.2-0.3-0.2-0.6-0.3
			c-0.6-0.2-0.8-0.7-1.5-0.7c-0.4,0-0.8,0.3-0.8,0.8c0,0,0,0.1,0,0.1c0,0.4-0.3,0.8-0.8,0.8c0,0-0.1,0-0.1,0c-0.2,0-0.5-0.1-0.7-0.2
			l-1.8-0.8c-0.2-0.1-0.5-0.2-0.7-0.3c-0.4-0.1-0.8-0.1-1.2-0.1l-2.5-0.1c-0.1,0-0.3,0-0.4,0c-0.1,0-0.2,0.1-0.3,0.2
			c-0.5,0.4-1.2,0.5-1.8,0.3c-0.2,0-0.3-0.1-0.5-0.2c-0.6,0-1.1,0-1.6,0.2c-0.9,0.1-2-0.1-2.7,0.3c-0.2,0.1-0.3,0.3-0.5,0.4
			c-0.2,0.2-0.5,0.2-0.8,0.1c0.1,0.3,0,0.5-0.1,0.7c-0.3,0.3-0.6,0.4-1,0.4c-0.2-0.1-0.2-0.2-0.1-0.4s0.3-0.3,0.2-0.4
			s-0.3-0.2-0.5-0.3s-0.3-0.3-0.1-0.4c-0.1-0.2-0.6-0.1-0.8,0c-0.2,0.1-0.3,0.3-0.2,0.5c0,0.2-0.1,0.4-0.3,0.5
			c-0.4,0.2-1.2,0.1-1.4,0.4c-0.1,0.1-0.1,0.2-0.1,0.3c-0.2,0.4-1.2,0.5-1.9,0.6c0,0,0,0,0,0.1c-0.1-0.1-0.2-0.2-0.4-0.2
			c-0.3-0.1-0.6-0.2-0.6-0.4c0-0.1,0.1-0.2,0.2-0.3c0.2-0.2,0.2-0.4,0-0.5c-0.3-0.2-0.6-0.2-0.8,0c-0.1,0.1-0.1,0.2-0.1,0.3
			c-0.1,0.3-0.7,0.4-1.2,0.5s-1,0.3-1,0.6C313.2,97.8,314,98.1,313.7,98.4z"/>
		<path class="st13" d="M312.4,101.9c-0.1,0-0.3,0.1-0.4,0.1c0.1,0,0.1,0,0.2,0c0.8,0.1,1.8-0.1,2-0.6c0.1-0.2-0.1-0.5-0.3-0.7
			l-0.2-0.3c-0.5,0.1-0.9,0.2-1.4,0.2c-0.3-0.1-0.6,0-0.9,0.1c-0.1,0.1-0.2,0.2-0.1,0.4C311.5,101.6,311.9,101.8,312.4,101.9z"/>
		<ellipse class="st15" cx="329" cy="94.4" rx="8.1" ry="5.4"/>
		<path class="st16" d="M326.2,94.1c0,0-3.7,0.4-2.6-1.2s2.4-2.1,3.1-1.7c0.5,0.4,0.8,1,0.8,1.6c-0.1,0-1.7-0.9-2.2-0.2
			S326.2,94.1,326.2,94.1z"/>
		<path class="st16" d="M329.4,94.2c0,0,3,2.1,1.2,2.6s-3.2,0-3.4-0.7c-0.1-0.6,0-1.3,0.4-1.8c0.1,0.1,0.7,1.8,1.5,1.6
			S329.4,94.2,329.4,94.2z"/>
		<path class="st16" d="M330.1,92.9c0,0,0.2-3.7,1.6-2.4s1.7,2.8,1.1,3.3c-0.5,0.4-1.1,0.6-1.7,0.5c0-0.1,1.2-1.5,0.6-2.2
			S330.1,92.9,330.1,92.9z"/>
		<ellipse class="st15" cx="319.2" cy="94" rx="8.1" ry="5.4"/>
		<path class="st16" d="M316.4,93.6c0,0-3.7,0.4-2.6-1.2s2.4-2.1,3.1-1.7c0.5,0.4,0.8,1,0.8,1.6c-0.1,0-1.7-0.9-2.2-0.2
			S316.4,93.6,316.4,93.6z"/>
		<path class="st16" d="M319.6,93.8c0,0,3,2.1,1.2,2.6s-3.2,0-3.4-0.7c-0.1-0.6,0-1.3,0.4-1.8c0.1,0.1,0.7,1.8,1.5,1.6
			S319.6,93.8,319.6,93.8z"/>
		<path class="st16" d="M320.3,92.4c0,0,0.2-3.7,1.6-2.4s1.7,2.8,1.1,3.3c-0.5,0.4-1.1,0.6-1.7,0.5c0-0.1,1.2-1.5,0.6-2.2
			S320.3,92.4,320.3,92.4z"/>
		<path class="st13" d="M323.4,89.4c1.6,0.7,2.8,2.3,2.9,4.1c0,3-3.6,5.4-8.1,5.4c-1.4,0-2.9-0.3-4.2-0.8c1.6,0.9,3.4,1.3,5.2,1.3
			c4.5,0,8.1-2.4,8.1-5.4C327.3,92.1,325.8,90.4,323.4,89.4z"/>
		<path class="st13" d="M333.2,89.8c1.6,0.7,2.8,2.3,2.9,4.1c0,3-3.6,5.4-8.1,5.4c-1.4,0-2.9-0.3-4.2-0.8c1.6,0.9,3.4,1.3,5.2,1.3
			c4.5,0,8.1-2.4,8.1-5.4C337.2,92.5,335.6,90.7,333.2,89.8z"/>
		<path class="st17" d="M314.3,93c0,0,7-7.5,24.1-4.4c13.5,2.4,2.4,6.6-2.8,8.3c-1.5,0.5-3.1,0.8-4.7,0.8
			C324.9,98,310,98.3,314.3,93z"/>
		<path class="st13" d="M335.5,95.2c-1.5,0.5-3.1,0.8-4.7,0.8c-4.8,0.2-15.5,0.5-17.1-2.3c-2.1,4.5,11.5,4.2,17.1,3.9
			c1.6-0.1,3.2-0.4,4.7-0.8c3.8-1.2,10.8-3.8,9-6C343.3,92.5,338.5,94.3,335.5,95.2z"/>
		
			<rect x="329.1" y="88.4" transform="matrix(0.8918 -0.4524 0.4524 0.8918 -5.2151 159.1503)" class="st13" width="2" height="4.2"/>
		
			<rect x="323.1" y="89.8" transform="matrix(0.8882 -0.4594 0.4594 0.8882 -5.8185 159.1557)" class="st13" width="2" height="3.5"/>
		
			<rect x="332.9" y="88.2" transform="matrix(0.8264 -0.5631 0.5631 0.8264 7.0146 203.7086)" class="st13" width="2" height="4.5"/>
		<rect x="323.3" y="91.3" transform="matrix(0.992 -0.126 0.126 0.992 -8.9885 42.5364)" class="st13" width="17.2" height="2"/>
		
			<rect x="339.3" y="89.1" transform="matrix(0.8153 -0.5791 0.5791 0.8153 10.6653 213.7403)" class="st13" width="2" height="2.1"/>
		
			<rect x="319.4" y="91.2" transform="matrix(0.9007 -0.4344 0.4344 0.9007 -8.1806 148.3029)" class="st13" width="2" height="1.7"/>
		<path class="st18" d="M322.5,86.2c0,0,15.6-0.1,15.7-0.2s3.4-0.2,4.1,0.7s0.9,1.3,0,1.5s-29.1,14.6-29.1,14.6s-1.6,0.1-0.8-1.4
			S322.5,86.2,322.5,86.2z"/>
		<path class="st14" d="M329.1,92.6c0,0.6-2.8,2-6.3,2s-6.3-1.4-6.3-2s2.8-0.8,6.3-0.8S329.1,92,329.1,92.6z"/>
		<ellipse class="st14" cx="322.8" cy="92.6" rx="6.3" ry="1.1"/>
		<path class="st14" d="M336.6,91.6c0,0.6-2.8,2-6.3,2s-6.3-1.4-6.3-2s2.8-0.8,6.3-0.8S336.6,91.1,336.6,91.6z"/>
		<ellipse class="st14" cx="330.4" cy="91.6" rx="6.3" ry="1.1"/>
		<path class="st14" d="M344.2,90.7c0,0.6-2.8,2-6.3,2s-6.3-1.4-6.3-2s2.8-0.8,6.3-0.8S344.2,90.1,344.2,90.7z"/>
		<ellipse class="st14" cx="337.9" cy="90.6" rx="6.3" ry="1.1"/>
		<path class="st2" d="M314.8,91c0,0-2.6-0.4-1.3-2.5s1.8-4.5,2.3-5c0.6-0.6,14-10.9,24.3,0.5c1.1,1.2,2,2.6,2.6,4.1
			c0.1,0.2,0.2,0.5,0.4,0.7c0.6,0.6,0.6,1.6,0,2.2C342.5,91.6,319.5,93.9,314.8,91z"/>
		<path class="st0" d="M326.9,82.2c-0.2,0.1-0.3,0.2-0.5,0.2c-0.3,0-0.5-0.1-0.5-0.2s0.2-0.2,0.5-0.2
			C326.6,82.1,326.8,82.1,326.9,82.2z"/>
		<path class="st0" d="M322.6,81.1c-0.2,0.1-0.3,0.2-0.5,0.2c-0.3,0-0.5-0.1-0.5-0.2s0.2-0.2,0.5-0.2
			C322.2,80.9,322.4,81,322.6,81.1z"/>
		<path class="st0" d="M334.3,82.7c-0.2,0.1-0.4,0.1-0.6,0c-0.3-0.1-0.5-0.2-0.5-0.3s0.3-0.1,0.6,0
			C334.1,82.5,334.2,82.6,334.3,82.7z"/>
		<path class="st0" d="M326.4,79.7c-0.2,0.1-0.4,0.1-0.6,0c-0.3-0.1-0.5-0.2-0.5-0.3s0.3-0.1,0.6,0
			C326.1,79.4,326.2,79.5,326.4,79.7z"/>
		<path class="st0" d="M335.1,80.8c-0.2,0.1-0.4,0.1-0.6,0c-0.3-0.1-0.5-0.2-0.5-0.3s0.3-0.1,0.6,0
			C334.8,80.5,334.9,80.6,335.1,80.8z"/>
		<path class="st0" d="M333.3,80.6c-0.2,0.1-0.3,0.2-0.5,0.2c-0.3,0-0.5-0.1-0.5-0.2s0.2-0.2,0.5-0.2
			C332.9,80.4,333.1,80.5,333.3,80.6z"/>
		<path class="st0" d="M328.1,79.5c-0.2,0.1-0.3,0.2-0.5,0.2c-0.3,0-0.5-0.1-0.5-0.2s0.2-0.2,0.5-0.2
			C327.8,79.3,328,79.4,328.1,79.5z"/>
		<path class="st0" d="M332.1,79.5c-0.2,0.1-0.3,0.2-0.5,0.2c-0.3,0-0.5-0.1-0.5-0.2s0.2-0.2,0.5-0.2
			C331.7,79.3,331.9,79.4,332.1,79.5z"/>
		<path class="st0" d="M330.6,81.9c-0.2,0.1-0.3,0.2-0.5,0.2c-0.3,0-0.5-0.1-0.5-0.2s0.2-0.2,0.5-0.2
			C330.2,81.7,330.4,81.8,330.6,81.9z"/>
		<path class="st0" d="M326.2,81.4c0-0.2,0.1-0.4,0.3-0.5c0.2-0.2,0.5-0.3,0.5-0.2s-0.1,0.3-0.3,0.5
			C326.6,81.3,326.4,81.4,326.2,81.4z"/>
		<path class="st0" d="M323.5,80.8c0-0.2,0.1-0.4,0.3-0.5c0.2-0.2,0.5-0.3,0.5-0.2s-0.1,0.3-0.3,0.5
			C323.9,80.7,323.7,80.8,323.5,80.8z"/>
		<path class="st0" d="M318.8,84c0-0.2,0.1-0.4,0.3-0.5c0.2-0.2,0.5-0.3,0.5-0.2s-0.1,0.3-0.3,0.5C319.2,83.9,319,84,318.8,84z"/>
		<path class="st0" d="M329.2,80.4c0-0.2,0.1-0.4,0.3-0.5c0.2-0.2,0.5-0.3,0.5-0.2s-0.1,0.3-0.3,0.5
			C329.6,80.3,329.4,80.4,329.2,80.4z"/>
		<path class="st0" d="M328.1,82.6c0-0.2,0.1-0.4,0.3-0.5c0.2-0.2,0.5-0.3,0.5-0.2s-0.1,0.3-0.3,0.5
			C328.5,82.5,328.3,82.6,328.1,82.6z"/>
	</g>
	<g transform="translate(24 74.896)">
		<path class="st7" d="M263.8,254.3c0,0-2-4.1-5.8-3.7s0.3,4.3,0.3,4.3S263,255.3,263.8,254.3z"/>
		<path class="st13" d="M263.8,254.3c0,0-2-4.1-5.8-3.7s0.3,4.3,0.3,4.3S263,255.3,263.8,254.3z"/>
		<path class="st7" d="M251,253.6c0,0,0-0.1,0-0.1c0.1-0.7,0.6-3.3,4.9-3.9c0,0,3.3-0.6,3.9-1.7v3.4c0,0-0.7,2.4-4.1,3.2
			S251,253.6,251,253.6z"/>
		<path class="st19" d="M241,263.9c0,0-2.5,1.5-0.7,4.5s29.4,0,29.4,0s1.8-3.7-1.4-5C265.1,262.1,241,263.9,241,263.9z"/>
		<path class="st7" d="M262.2,264.5c0.9,1.5,2.8,1.9,4.2,1.1c0.3-0.2,0.6-0.4,0.8-0.7c2.8-2.8,1.6-4.7,0-4.8
			S262.2,264.5,262.2,264.5z"/>
		<path class="st20" d="M262.2,264.5c0.9,1.5,2.8,1.9,4.2,1.1c0.3-0.2,0.6-0.4,0.8-0.7c2.8-2.8,1.6-4.7,0-4.8
			S262.2,264.5,262.2,264.5z"/>
		<path class="st7" d="M268,260.5c0,0,0.5-4.5-6.3-1.1s-5.1,5.2-5.1,5.2s3.4,2.6,6.1,0.5S267.2,262.4,268,260.5z"/>
		<path class="st13" d="M268,260.5c0,0,0.5-4.5-6.3-1.1s-5.1,5.2-5.1,5.2s3.4,2.6,6.1,0.5S267.2,262.4,268,260.5z"/>
		<path class="st7" d="M262.7,259.1c0,0-2.6-1.8-6.5,0s-8.6,6.3-8.6,6.3s6.1,2.2,9.3-0.3S262.6,260.8,262.7,259.1z"/>
		<path class="st21" d="M262.7,259.1c0,0-2.6-1.8-6.5,0s-8.6,6.3-8.6,6.3s6.1,2.2,9.3-0.3S262.6,260.8,262.7,259.1z"/>
		<path class="st7" d="M257.4,258.9c0,0-5.3-0.7-7.7,0.7s-7.4,5.4-7.4,5.4s1.5,2.9,5.9,0.7C248.2,265.7,257.3,260,257.4,258.9z"/>
		<path class="st22" d="M257.4,258.9c0,0-5.3-0.7-7.7,0.7s-7.4,5.4-7.4,5.4s1.5,2.9,5.9,0.7C248.2,265.7,257.3,260,257.4,258.9z"/>
		<path class="st7" d="M243.6,259.5c0,0-4.7,3.7-1,5.7c0,0,7.8-5.1,8-5.7C248.3,258.7,245.9,258.7,243.6,259.5z"/>
		<path class="st7" d="M253.8,253.4c0,0-3.1-0.5-4,0s-7.2,2.2-5.9,6.6l1.9-0.7C245.9,259.4,249.5,254.8,253.8,253.4z"/>
		<path class="st13" d="M253.8,253.4c0,0-3.1-0.5-4,0s-7.2,2.2-5.9,6.6l1.9-0.7C245.9,259.4,249.5,254.8,253.8,253.4z"/>
		<path class="st7" d="M259,254.1c0,0-2.2-2.1-7.1-0.2c-2.7,0.9-5.1,2.8-6.5,5.3l7.4,0.6C252.7,259.9,256.8,253.9,259,254.1z"/>
		<path class="st21" d="M259,254.1c0,0-2.2-2.1-7.1-0.2c-2.7,0.9-5.1,2.8-6.5,5.3l7.4,0.6C252.7,259.9,256.8,253.9,259,254.1z"/>
		<path class="st7" d="M262.4,254.4c0,0-3.5-1.2-6.3,0.4c-1.7,1.1-3.1,2.8-3.7,4.7l4.4-0.2C256.8,259.3,260.2,253.9,262.4,254.4z"/>
		<path class="st22" d="M262.4,254.4c0,0-3.5-1.2-6.3,0.4c-1.7,1.1-3.1,2.8-3.7,4.7l4.4-0.2C256.8,259.3,260.2,253.9,262.4,254.4z"
			/>
		<path class="st7" d="M267.1,258.7c0,0,1.2-6.2-6.8-4.3c0,0-4.6,4-3.3,5.1S267.1,258.7,267.1,258.7z"/>
		<path class="st13" d="M239.6,267.8l4.3,14.3c0,0.1,0.1,0.2,0.2,0.2c1.2,0.8,10.4,6.8,21.7,0c0.1-0.1,0.2-0.2,0.2-0.3l4.3-14.3
			c0.1-0.2-0.1-0.5-0.3-0.6c-0.1,0-0.2,0-0.2,0l-1.9,0.5c-0.1,0-0.1,0-0.2,0l-1.7-0.3c-0.1,0-0.2,0-0.3,0l-2.1,1.1
			c-0.1,0.1-0.2,0.1-0.3,0l-2.2-0.6c-0.1,0-0.2,0-0.3,0l-2.6,0.8c-0.1,0-0.2,0-0.4,0l-1.7-0.9c-0.1-0.1-0.2-0.1-0.4,0l-2.2,0.7
			c-0.1,0-0.1,0-0.2,0l-2.1-0.1c0,0-0.1,0-0.1,0l-1.7-0.5c-0.1,0-0.1,0-0.2,0l-2.3,0.5c-0.1,0-0.2,0-0.3,0l-2.3-0.9
			c-0.1,0-0.2,0-0.3,0l-1.8,0.3c-0.1,0-0.1,0-0.2,0l-1.8-0.6c-0.2-0.1-0.5,0.1-0.6,0.3C239.6,267.6,239.6,267.7,239.6,267.8
			L239.6,267.8z"/>
		<path class="st23" d="M239.6,267.9l4.3,14.3c0,0.1,0.1,0.2,0.2,0.2c1.2,0.8,10.4,6.8,21.7,0c0.1-0.1,0.2-0.2,0.2-0.3l4.3-14.3
			c0.1-0.2-0.1-0.5-0.3-0.6c-0.1,0-0.2,0-0.2,0l-1.9,0.5c-0.1,0-0.1,0-0.2,0l-1.7-0.3c-0.1,0-0.2,0-0.3,0l-2.1,1.1
			c-0.1,0.1-0.2,0.1-0.3,0L261,268c-0.1,0-0.2,0-0.3,0l-2.6,0.8c-0.1,0-0.2,0-0.4,0l-1.7-0.9c-0.1-0.1-0.2-0.1-0.4,0l-2.2,0.7
			c-0.1,0-0.1,0-0.2,0l-2.1-0.1c0,0-0.1,0-0.1,0l-1.7-0.5c-0.1,0-0.1,0-0.2,0l-2.3,0.5c-0.1,0-0.2,0-0.3,0l-2.3-0.9
			c-0.1,0-0.2,0-0.3,0l-1.8,0.3c-0.1,0-0.1,0-0.2,0l-1.8-0.6c-0.2-0.1-0.5,0.1-0.6,0.3C239.6,267.7,239.6,267.8,239.6,267.9
			L239.6,267.9z"/>
		<path class="st24" d="M244.3,262.8l-0.4-0.2l-0.3-0.4l1.1-1.4l0.4,0.2l0.3,0.4L244.3,262.8z"/>
		<path class="st24" d="M265.6,265.1l-0.5-0.2l-0.3-0.4l1.1-1.4l0.4,0.2l0.3,0.4L265.6,265.1z"/>
		<path class="st24" d="M256.2,257.5l-0.4-0.2l-0.3-0.4l1.1-1.4l0.5,0.2l0.3,0.4L256.2,257.5z"/>
		<path class="st24" d="M258.7,262.6l-0.4,0.2l-0.5-0.1l-0.1-1.8l0.4-0.2l0.5,0.1L258.7,262.6z"/>
		<path class="st24" d="M251.4,258.2l-0.3,0.4l-0.5,0.1l-0.9-1.5l0.3-0.4l0.5-0.1L251.4,258.2z"/>
		<path class="st24" d="M250.9,262.6l-0.3,0.4l-0.5,0.1l-0.9-1.5l0.3-0.4l0.5-0.1L250.9,262.6z"/>
		<path class="st24" d="M263.8,263l-0.3,0.3l-0.5,0l-0.7-1.6l0.3-0.3l0.5,0L263.8,263z"/>
		<path class="st24" d="M261.5,257.4l0.1-0.5l0.4-0.3l1.5,1l-0.1,0.5l-0.4,0.3L261.5,257.4z"/>
		<path class="st25" d="M245.6,258.1l-0.4-0.2l-0.3-0.4l1.1-1.4l0.4,0.2l0.3,0.4L245.6,258.1z"/>
		<path class="st25" d="M251.2,255.4l-0.1-0.5l0.2-0.4l1.8,0.2l0.1,0.5l-0.2,0.4L251.2,255.4z"/>
		<path class="st25" d="M259.9,252.8l0.1-0.5l0.4-0.3l1.5,0.9l-0.1,0.5l-0.4,0.3L259.9,252.8z"/>
		<path class="st25" d="M256.4,250.4l0.5-0.1l0.4,0.2l-0.2,1.8l-0.5,0.1l-0.4-0.2L256.4,250.4z"/>
		<path class="st25" d="M253.2,264.5l-0.1-0.5l0.2-0.4l1.8,0.2l0.1,0.5l-0.2,0.4L253.2,264.5z"/>
		<path class="st25" d="M246.6,264.8l-0.3-0.4l0-0.5l1.7-0.5l0.3,0.4l0,0.5L246.6,264.8z"/>
		<path class="st25" d="M265.1,261.7l-0.4-0.3l-0.1-0.5l1.5-1l0.4,0.3l0.1,0.5L265.1,261.7z"/>
		<path class="st25" d="M252.8,262l-0.4-0.3l-0.1-0.5l1.5-1l0.4,0.3l0.1,0.5L252.8,262z"/>
		<path class="st13" d="M244,267.4l-1.8,0.3c-0.1,0-0.1,0-0.2,0l0,0l3.3,15.3l-3.3-15.3l-1.8-0.6c-0.2-0.1-0.5,0.1-0.6,0.3
			c0,0.1,0,0.2,0,0.3l4.3,14.3c0,0.1,0.1,0.2,0.2,0.2c1,0.7,2.1,1.3,3.3,1.7l-3.2-16.6C244.1,267.4,244.1,267.4,244,267.4z"/>
		<path class="st13" d="M269.7,267.1l-1.9,0.5c-0.1,0-0.1,0-0.2,0l-1.7-0.3c-0.1,0-0.1,0-0.2,0l-3.1,16.6l3.1-16.6c0,0-0.1,0-0.1,0
			l-2.1,1.1c-0.1,0.1-0.2,0.1-0.3,0l-2.2,16c1.2-0.4,2.4-0.9,3.6-1.5l3.3-15.4l-3.3,15.4c0.4-0.2,0.8-0.4,1.1-0.6
			c0.1-0.1,0.2-0.2,0.2-0.3l4.3-14.3c0.1-0.2-0.1-0.5-0.3-0.6C269.9,267.1,269.8,267.1,269.7,267.1L269.7,267.1z"/>
		<path class="st23" d="M263.2,268.5l-2.2-0.6c0,0-0.1,0-0.1,0l-1.7,17.1c0.6-0.1,1.3-0.3,1.9-0.5L263.2,268.5L263.2,268.5z"/>
		<g transform="translate(241.949 267.358)" class="st26">
			<rect x="1.7" y="0.3" transform="matrix(0.9775 -0.2111 0.2111 0.9775 -1.6819 0.538)" class="st1" width="0.1" height="15.7"/>
			<rect x="5.9" y="1.1" transform="matrix(0.9899 -0.142 0.142 0.9899 -1.2579 0.9346)" class="st1" width="0.1" height="16.4"/>
			<rect x="3.8" y="0" transform="matrix(0.982 -0.1891 0.1891 0.982 -1.5365 0.8757)" class="st1" width="0.1" height="16.9"/>
			
				<rect x="8.1" y="0.6" transform="matrix(0.9961 -8.801056e-02 8.801056e-02 0.9961 -0.7825 0.7487)" class="st1" width="0.1" height="17.3"/>
			
				<rect x="10.4" y="1.2" transform="matrix(0.9996 -2.931733e-02 2.931733e-02 0.9996 -0.2799 0.3108)" class="st1" width="0.1" height="16.9"/>
			
				<rect x="13" y="0.8" transform="matrix(1 -6.457673e-03 6.457673e-03 1 -6.146462e-02 8.434141e-02)" class="st1" width="0.1" height="17.4"/>
			
				<rect x="7.4" y="9.8" transform="matrix(4.100371e-02 -0.9992 0.9992 4.100371e-02 5.1678 25.0943)" class="st1" width="16.5" height="0.1"/>
			
				<rect x="9.4" y="9.2" transform="matrix(9.999875e-02 -0.995 0.995 9.999875e-02 7.032 26.27)" class="st1" width="17.3" height="0.1"/>
			
				<rect x="11.7" y="8.9" transform="matrix(0.1302 -0.9915 0.9915 0.1302 8.4101 27.5052)" class="st1" width="16.3" height="0.1"/>
			
				<rect x="13.8" y="8.3" transform="matrix(0.1811 -0.9835 0.9835 0.1811 10.0482 28.7093)" class="st1" width="16.9" height="0.1"/>
			<rect x="16.5" y="8" transform="matrix(0.2112 -0.9775 0.9775 0.2112 11.381 30.1331)" class="st1" width="15.7" height="0.1"/>
		</g>
	</g>
	<g transform="translate(258 387.929)">
		<rect x="28.9" y="7.6" transform="matrix(0.448 -0.894 0.894 0.448 9.4723 30.8102)" class="st1" width="1.6" height="0.3"/>
		<rect x="33.9" y="8.1" class="st2" width="0.3" height="1.5"/>
		<rect x="33.7" y="11.7" class="st1" width="0.3" height="1.5"/>
		<path class="st6" d="M37.4,10.4c-4.9-9.3-16.5-12.9-25.9-8C2.2,7.4-1.3,19,3.6,28.3c4.9,9.3,16.5,12.9,25.9,8
			c6.3-3.3,10.2-9.8,10.2-16.9C39.7,16.2,38.9,13.2,37.4,10.4z M24.4,26.3c-3.8,2.2-8.7,0.8-10.8-3s-0.8-8.7,3-10.8
			c3.8-2.2,8.7-0.8,10.8,3c0.7,1.2,1,2.5,1,3.9C28.5,22.2,26.9,24.9,24.4,26.3L24.4,26.3z"/>
		<path class="st8" d="M20.5,37.3c-10.3,0-18.8-8.2-19.1-18.5c0,0.2,0,0.4,0,0.6c0,10.6,8.6,19.1,19.1,19.1s19.1-8.6,19.1-19.1
			c0-0.2,0-0.4,0-0.6C39.3,29.1,30.8,37.3,20.5,37.3z"/>
		<path class="st8" d="M20.5,9.8c-5.3,0-9.5,4.3-9.5,9.5c0,5.3,4.3,9.5,9.5,9.5c5.3,0,9.5-4.3,9.5-9.5C30.1,14.1,25.8,9.8,20.5,9.8
			C20.5,9.8,20.5,9.8,20.5,9.8z M24.4,26.3c-3.8,2.2-8.7,0.8-10.8-3c-2.2-3.8-0.8-8.7,3-10.8c3.8-2.2,8.7-0.8,10.8,3
			c0.7,1.2,1,2.5,1,3.9C28.5,22.2,26.9,24.9,24.4,26.3L24.4,26.3z"/>
		<path class="st27" d="M37.4,10.2v3.2c0,0.6-0.5,1.2-1.2,1.2c-0.3,0-0.6-0.1-0.8-0.4v0.4c0,0.8-0.6,1.4-1.4,1.4
			c-0.8,0-1.4-0.6-1.4-1.4v-0.3c-0.5,0.4-1.2,0.4-1.6-0.1c-0.2-0.2-0.3-0.5-0.3-0.8L30.7,10V9.2c0-0.3-0.2-0.5-0.5-0.5
			s-0.5,0.2-0.5,0.5V10l-0.1,2.8c0,0.6-0.5,1.2-1.2,1.2c-0.6,0-1.2-0.5-1.2-1.2L27.2,10V8.5c0-0.4-0.3-0.8-0.8-0.8
			c-0.4,0-0.8,0.3-0.8,0.8V10l-0.1,2.8c-1.2,0.5-2.4,0.9-3.7,0.9v0.8c0,0.8-0.6,1.4-1.4,1.4c-0.8,0-1.4-0.6-1.4-1.4v-2.4
			c0,0.6-0.5,1.2-1.2,1.2c-0.5,0-0.9-0.3-1.1-0.7v1.9c0,0.8-0.6,1.4-1.4,1.4c-0.8,0-1.4-0.6-1.4-1.4V10h0v4.6c0,0.8-0.6,1.4-1.4,1.4
			c-0.8,0-1.4-0.6-1.4-1.4v-1.9c-0.3,0.6-1,0.8-1.5,0.6c-0.4-0.2-0.7-0.6-0.7-1.1V10H9v3.9c0,0.8-0.6,1.4-1.4,1.4
			c-0.8,0-1.4-0.6-1.4-1.4v-1.7c0,0.6-0.5,1.2-1.2,1.2c-0.6,0-1.2-0.5-1.2-1.2V9.6c5.3-9.2,17-12.3,26.1-7
			C33.2,4.4,35.7,7,37.4,10.2L37.4,10.2z"/>
		<path class="st8" d="M12.8,15.2c-0.8,0-1.4-0.6-1.4-1.4v0.7c0,0.8,0.6,1.4,1.4,1.4c0.8,0,1.4-0.6,1.4-1.4v-0.7
			C14.1,14.6,13.5,15.2,12.8,15.2L12.8,15.2z"/>
		<path class="st8" d="M15.5,15.2c-0.8,0-1.4-0.6-1.4-1.4v0.7c0,0.8,0.6,1.4,1.4,1.4s1.4-0.6,1.4-1.4v-0.7
			C16.9,14.6,16.3,15.2,15.5,15.2L15.5,15.2z"/>
		<path class="st8" d="M11.4,12c-0.3,0.6-1,0.8-1.5,0.6c-0.4-0.2-0.7-0.6-0.7-1.1v0.7c0,0.6,0.5,1.2,1.2,1.2c0.5,0,0.9-0.3,1.1-0.7
			V12z"/>
		<rect x="14.1" y="9.3" class="st8" width="0" height="0.7"/>
		<path class="st8" d="M6.3,11.5c0,0.6-0.5,1.2-1.2,1.2c-0.6,0-1.2-0.5-1.2-1.2v0.7c0,0.6,0.5,1.2,1.2,1.2c0.6,0,1.2-0.5,1.2-1.2
			l0,0V11.5z"/>
		<rect x="9" y="9.3" class="st8" width="0.1" height="0.7"/>
		<path class="st8" d="M7.7,14.6c-0.8,0-1.4-0.6-1.4-1.4v0.7c0,0.8,0.6,1.4,1.4,1.4c0.8,0,1.4-0.6,1.4-1.4v-0.7
			C9,14,8.4,14.6,7.7,14.6L7.7,14.6z"/>
		<path class="st8" d="M20.5,15.2c-0.8,0-1.4-0.6-1.4-1.4v0.7c0,0.8,0.6,1.4,1.4,1.4s1.4-0.6,1.4-1.4v-0.7
			C21.9,14.6,21.3,15.2,20.5,15.2L20.5,15.2z"/>
		<path class="st8" d="M30.7,8.5c0-0.3-0.2-0.5-0.5-0.5s-0.5,0.2-0.5,0.5l0,0v0.7c0-0.3,0.2-0.5,0.5-0.5s0.5,0.2,0.5,0.5V8.5z"/>
		<path class="st8" d="M19.1,11.5c0,0.6-0.5,1.2-1.2,1.2c-0.5,0-0.9-0.3-1.1-0.7v0.7c0.3,0.6,1,0.8,1.5,0.6c0.4-0.2,0.7-0.6,0.7-1.1
			V11.5z"/>
		<path class="st8" d="M28.5,13.3c-0.6,0-1.2-0.5-1.2-1.2c0,0,0,0,0,0l-0.1-2.8V10l0.1,2.8c0,0.6,0.5,1.2,1.2,1.2
			c0.6,0,1.2-0.5,1.2-1.2l0,0l0.1-2.8V9.3l-0.1,2.8C29.7,12.8,29.2,13.3,28.5,13.3C28.5,13.3,28.5,13.3,28.5,13.3L28.5,13.3z"/>
		<path class="st8" d="M36.3,13.9c-0.3,0-0.6-0.1-0.8-0.4v0.4c0,0.8-0.6,1.4-1.4,1.4s-1.4-0.6-1.4-1.4v-0.3C32.2,14,31.5,14,31,13.5
			c-0.2-0.2-0.3-0.5-0.3-0.8l-0.1-3.4V10l0.1,3.4c0,0.6,0.5,1.2,1.2,1.2c0.3,0,0.6-0.1,0.8-0.3v0.3c0,0.8,0.6,1.4,1.4,1.4
			s1.4-0.6,1.4-1.4v-0.4c0.4,0.5,1.2,0.5,1.6,0c0.2-0.2,0.4-0.5,0.4-0.8v-0.7C37.4,13.3,36.9,13.9,36.3,13.9
			C36.3,13.9,36.3,13.9,36.3,13.9L36.3,13.9z"/>
		<path class="st8" d="M24.4,13.3c-0.7-0.6-1.7-0.7-2.5-0.2v0.7c0.9-0.4,2-0.3,2.9,0.2c0.5-0.2,0.8-0.6,0.8-1.1l0.1-2.8V9.3
			l-0.1,2.8C25.6,12.8,25,13.3,24.4,13.3C24.4,13.3,24.4,13.3,24.4,13.3L24.4,13.3z"/>
		<path class="st8" d="M27.2,7.9c0-0.4-0.3-0.8-0.8-0.8c-0.4,0-0.8,0.3-0.8,0.8l0,0v0.7c0-0.4,0.3-0.8,0.8-0.8
			c0.4,0,0.8,0.3,0.8,0.8l0,0V7.9z"/>
		<rect x="14" y="8" class="st2" width="0.3" height="1.5"/>
		<rect x="19.2" y="7.2" class="st2" width="0.3" height="1.5"/>
		<rect x="12.6" y="13.1" class="st2" width="0.3" height="1.5"/>
		<rect x="22.9" y="10.9" transform="matrix(0.5692 -0.8222 0.8222 0.5692 1.142 24.1916)" class="st2" width="1.5" height="0.3"/>
		<rect x="9.9" y="7.9" transform="matrix(0.6205 -0.7842 0.7842 0.6205 -3.0045 11.1471)" class="st2" width="0.3" height="1.5"/>
		<rect x="26.2" y="2.3" transform="matrix(0.6205 -0.7842 0.7842 0.6205 7.5738 21.8061)" class="st2" width="0.3" height="1.5"/>
		<rect x="6.8" y="9.5" transform="matrix(0.6205 -0.7842 0.7842 0.6205 -5.3791 9.3443)" class="st2" width="0.3" height="1.5"/>
		<rect x="15" y="4.5" class="st1" width="0.3" height="1.5"/>
		<rect x="7.4" y="12.2" class="st1" width="0.3" height="1.5"/>
		<rect x="20.4" y="2.3" class="st1" width="0.3" height="1.5"/>
		<rect x="21" y="8" transform="matrix(0.448 -0.894 0.894 0.448 4.7055 23.9777)" class="st1" width="1.5" height="0.3"/>
		<rect x="19.7" y="13.6" transform="matrix(0.448 -0.894 0.894 0.448 -0.9562 25.8976)" class="st1" width="1.5" height="0.3"/>
		<rect x="17.5" y="9.9" transform="matrix(0.6633 -0.7483 0.7483 0.6633 -2.0582 16.7727)" class="st1" width="0.3" height="1.5"/>
		<rect x="12" y="3.4" transform="matrix(0.6633 -0.7483 0.7483 0.6633 0.949 10.4805)" class="st1" width="0.3" height="1.5"/>
		<rect x="30.2" y="5.9" transform="matrix(0.6633 -0.7483 0.7483 0.6633 5.2238 24.9719)" class="st1" width="0.3" height="1.5"/>
		<rect x="23.5" y="1.1" transform="matrix(0.6633 -0.7483 0.7483 0.6633 6.6161 18.3085)" class="st1" width="0.3" height="1.5"/>
		<rect x="17.1" y="7.2" class="st9" width="0.3" height="1.5"/>
		<rect x="31.9" y="8.6" transform="matrix(0.3911 -0.9203 0.9203 0.3911 11.7841 35.3881)" class="st9" width="1.5" height="0.3"/>
		<rect x="12" y="9.6" transform="matrix(0.866 -0.5 0.5 0.866 -3.5464 7.4465)" class="st9" width="0.3" height="1.5"/>
		<rect x="27.8" y="8.5" transform="matrix(0.866 -0.5 0.5 0.866 -0.8948 15.2343)" class="st9" width="0.3" height="1.5"/>
		<rect x="18" y="3" transform="matrix(0.866 -0.5 0.5 0.866 0.5273 9.5639)" class="st9" width="0.3" height="1.5"/>
		<rect x="29.7" y="2.8" transform="matrix(0.866 -0.5 0.5 0.866 2.2407 15.4043)" class="st9" width="0.3" height="1.5"/>
		<rect x="14.5" y="1.6" transform="matrix(0.866 -0.5 0.5 0.866 0.8078 7.6169)" class="st9" width="0.3" height="1.5"/>
		<rect x="24.1" y="4.2" class="st9" width="0.3" height="1.5"/>
		<rect x="8.1" y="6.7" class="st9" width="0.3" height="1.5"/>
		
			<rect x="31.5" y="41.4" transform="matrix(0.9982 -6.002069e-02 6.002069e-02 0.9982 -2.4384 1.971)" class="st1" width="0.1" height="0.4"/>
		
			<rect x="29.9" y="41.4" transform="matrix(0.7071 -0.7071 0.7071 0.7071 -20.4961 33.4102)" class="st9" width="0.4" height="0.1"/>
	</g>
	<g transform="translate(25.998 259.999)">
		<path class="st2" d="M2.8,39.1L102.6,10l2.6,9.1L5.5,48.1L2.8,39.1z"/>
		<path class="st2" d="M14.8,80.7L0.1,30.3c-0.2-0.8,0.2-1.6,1-1.8L98.4,0.1c0.8-0.2,1.6,0.2,1.8,1l13,44.7l-0.4,0.1l-13-44.7
			c-0.2-0.6-0.7-0.9-1.3-0.7L1.2,28.8c-0.6,0.2-0.9,0.7-0.7,1.3l14.7,50.5L14.8,80.7z"/>
		<path class="st6" d="M91.7,46c-0.6,0-1.1-0.4-1.3-1L88,36.5c-0.2-0.7,0.2-1.5,0.9-1.7l8.5-2.5c0.7-0.2,1.5,0.2,1.7,0.9l2.5,8.5
			c0.2,0.7-0.2,1.5-0.9,1.7l-8.5,2.5C92,46,91.9,46,91.7,46z"/>
		<path class="st6" d="M14.5,30.4c0-0.1-0.1-0.2-0.1-0.3c-0.5-1.3-2-1.9-3.3-1.4c-1.1,0.5-1.7,1.6-1.5,2.8c0,0.1,0,0.2,0.1,0.3
			c0.3,1.1,1.3,1.8,2.4,1.8c0.2,0,0.5,0,0.7-0.1C14.2,33.1,14.9,31.7,14.5,30.4z M12.7,33.1c-1.1,0.3-2.3-0.3-2.6-1.4
			c0-0.1,0-0.2-0.1-0.3c-0.2-1.1,0.6-2.2,1.8-2.4c0.9-0.1,1.9,0.4,2.2,1.2c0,0.1,0.1,0.2,0.1,0.3C14.5,31.6,13.8,32.8,12.7,33.1
			L12.7,33.1z"/>
		<path class="st6" d="M8.4,32.2c-0.3-0.9,0.1-2,0.9-2.5c-1.3-0.1-2.4,0.9-2.4,2.2s0.9,2.4,2.2,2.4c0.5,0,1-0.1,1.4-0.4
			C9.5,33.8,8.6,33.2,8.4,32.2L8.4,32.2z"/>
		<path class="st5" d="M73.6,42.6c-0.2-0.7-0.9-1.1-1.6-0.9c0,0,0,0,0,0l-13.9,3.9l-1.5,0.4h9.4l1.5-0.4l5.2-1.5
			C73.4,44,73.8,43.3,73.6,42.6z"/>
		<path class="st5" d="M63.8,39.7c-0.2-0.7-0.9-1.1-1.6-0.9l-20.9,5.9c-0.6,0.2-1,0.8-0.9,1.4h5.4l1.5-0.4l15.6-4.4
			C63.6,41.1,64,40.4,63.8,39.7z"/>
		<path class="st2" d="M117.6,45.6H16.2c-0.8,0-1.5,0.7-1.5,1.5v60.1c0,0.8,0.7,1.5,1.5,1.5h101.4c0.8,0,1.5-0.7,1.5-1.5V47.1
			C119.1,46.3,118.4,45.6,117.6,45.6z M118.7,107.2c0,0.6-0.5,1-1,1H16.2c-0.6,0-1-0.5-1-1V47.1c0-0.6,0.5-1,1-1h101.4
			c0.6,0,1,0.5,1,1V107.2z"/>
		<path class="st6" d="M26.1,53.8c-1.4,0-2.5-1.1-2.5-2.5s1.1-2.5,2.5-2.5s2.5,1.1,2.5,2.5c0,0,0,0,0,0
			C28.6,52.7,27.5,53.8,26.1,53.8z M26.1,49.2c-1.2,0-2.1,0.9-2.1,2.1c0,1.2,0.9,2.1,2.1,2.1c1.2,0,2.1-0.9,2.1-2.1
			S27.2,49.2,26.1,49.2L26.1,49.2z"/>
		<path class="st6" d="M22.2,51.3c0-1,0.6-1.9,1.6-2.2c-1.2-0.4-2.5,0.2-2.9,1.4s0.2,2.5,1.4,2.9c0.5,0.2,1,0.2,1.5,0
			C22.8,53.2,22.2,52.3,22.2,51.3L22.2,51.3z"/>
		<path class="st6" d="M36.3,81.1c-1,0-1.9-0.8-1.9-1.9v-5.7c0-1,0.8-1.9,1.9-1.9c1,0,1.9,0.8,1.9,1.9c0,0,0,0,0,0v5.7
			C38.2,80.2,37.3,81.1,36.3,81.1z"/>
		<path class="st6" d="M41.3,81.1c-1,0-1.9-0.8-1.9-1.9v-5.7c0-1,0.8-1.9,1.9-1.9c1,0,1.9,0.8,1.9,1.9c0,0,0,0,0,0v5.7
			C43.2,80.2,42.4,81.1,41.3,81.1z"/>
		<path class="st6" d="M46.4,81.1c-1,0-1.9-0.8-1.9-1.9v-5.7c0-1,0.8-1.9,1.9-1.9s1.9,0.8,1.9,1.9v5.7
			C48.3,80.2,47.4,81.1,46.4,81.1z"/>
		<path class="st6" d="M54.1,81.1c-1,0-1.9-0.8-1.9-1.9v-5.7c0-1,0.8-1.9,1.9-1.9s1.9,0.8,1.9,1.9v5.7C56,80.2,55.2,81.1,54.1,81.1z
			"/>
		<path class="st6" d="M59.2,81.1c-1,0-1.9-0.8-1.9-1.9v-5.7c0-1,0.8-1.9,1.9-1.9s1.9,0.8,1.9,1.9v5.7
			C61.1,80.2,60.2,81.1,59.2,81.1z"/>
		<path class="st6" d="M64.2,81.1c-1,0-1.9-0.8-1.9-1.9v-5.7c0-1,0.8-1.9,1.9-1.9s1.9,0.8,1.9,1.9v5.7
			C66.1,80.2,65.3,81.1,64.2,81.1z"/>
		<path class="st6" d="M72,81.1c-1,0-1.9-0.8-1.9-1.9v-5.7c0-1,0.8-1.9,1.9-1.9s1.9,0.8,1.9,1.9v5.7C73.9,80.2,73,81.1,72,81.1z"/>
		<path class="st6" d="M77,81.1c-1,0-1.9-0.8-1.9-1.9v-5.7c0-1,0.8-1.9,1.9-1.9s1.9,0.8,1.9,1.9v5.7C78.9,80.2,78.1,81.1,77,81.1z"
			/>
		<path class="st6" d="M82.1,81.1c-1,0-1.9-0.8-1.9-1.9v-5.7c0-1,0.8-1.9,1.9-1.9s1.9,0.8,1.9,1.9v5.7C84,80.2,83.1,81.1,82.1,81.1z
			"/>
		<path class="st6" d="M89.8,81.1c-1,0-1.9-0.8-1.9-1.9v-5.7c0-1,0.8-1.9,1.9-1.9s1.9,0.8,1.9,1.9v5.7
			C91.7,80.2,90.9,81.1,89.8,81.1z"/>
		<path class="st6" d="M94.9,81.1c-1,0-1.9-0.8-1.9-1.9v-5.7c0-1,0.8-1.9,1.9-1.9s1.9,0.8,1.9,1.9v5.7
			C96.8,80.2,95.9,81.1,94.9,81.1z"/>
		<path class="st6" d="M99.9,81.1c-1,0-1.9-0.8-1.9-1.9v-5.7c0-1,0.8-1.9,1.9-1.9s1.9,0.8,1.9,1.9v5.7
			C101.8,80.2,101,81.1,99.9,81.1z"/>
		<path class="st10" d="M49.1,102.1H21.9c-0.7,0-1.3-0.6-1.3-1.3c0-0.7,0.6-1.3,1.3-1.3h27.2c0.7,0,1.3,0.6,1.3,1.3
			C50.4,101.5,49.8,102.1,49.1,102.1L49.1,102.1z"/>
		<path class="st10" d="M40.4,96.7h-9.8c-0.7,0-1.3-0.6-1.3-1.3c0-0.7,0.6-1.3,1.3-1.3h9.8c0.7,0,1.3,0.6,1.3,1.3
			C41.6,96.1,41.1,96.6,40.4,96.7z"/>
		<path class="st2" d="M15.1,58.2h103.5v0.4H15.1V58.2z"/>
	</g>
</g>
</svg>
