<svg xmlns="http://www.w3.org/2000/svg" width="25.486" height="21.664" viewBox="0 0 25.486 21.664"><defs><style>.a{fill:#469a09;}</style></defs><path class="a" d="M24.635,38.4H4.254a.85.85,0,0,0-.851.851V40.1H2.553a.85.85,0,0,0-.851.851V41.8H.851A.85.85,0,0,0,0,42.654V59.213a.85.85,0,0,0,.851.851H21.231a.85.85,0,0,0,.851-.851v-.851h.851a.85.85,0,0,0,.851-.851v-.851h.851a.85.85,0,0,0,.851-.851V39.251A.847.847,0,0,0,24.635,38.4Zm-3.4,13.733-2.224-2.548a.427.427,0,0,0-.642,0L15.684,52.66,8.359,46.152a.419.419,0,0,0-.562,0L.861,52.317V43.072a.423.423,0,0,1,.423-.423h19.53a.423.423,0,0,1,.423.423Zm1.279,5.374h-.423V42.644a.85.85,0,0,0-.851-.851H2.558v-.423a.423.423,0,0,1,.423-.423H22.51a.423.423,0,0,1,.423.423l0,15.713A.423.423,0,0,1,22.515,57.507Zm1.7-1.7h-.423V40.948a.85.85,0,0,0-.851-.851H4.254v-.423a.423.423,0,0,1,.423-.423h19.53a.423.423,0,0,1,.423.423V55.382h0A.423.423,0,0,1,24.212,55.805Z" transform="translate(0 -38.4)"/><path class="a" d="M275,174.9a1.7,1.7,0,1,0,1.7,1.7A1.7,1.7,0,0,0,275,174.9Z" transform="translate(-259.701 -168.108)"/></svg>