<svg xmlns="http://www.w3.org/2000/svg" width="17.203" height="16.41" viewBox="0 0 17.203 16.41"><defs><style>.a{fill:#bf2604;}</style></defs><g transform="translate(0 -0.935)"><path class="a" d="M8.6.935C3.859.935,0,3.9,0,7.555c0,2.483,1.769,4.721,4.625,5.868.06.616-.156,1.8-1.9,3.515a.25.25,0,0,0-.044.286.215.215,0,0,0,.189.122.184.184,0,0,0,.057-.008,20.1,20.1,0,0,0,6.324-3.186c4.462-.26,7.947-3.146,7.947-6.6C17.2,3.9,13.346.935,8.6.935Zm2.849,9.872a1.063,1.063,0,0,1-1.59,0L8.606,9.457l-1.25,1.358a1.064,1.064,0,0,1-1.59,0,1.291,1.291,0,0,1,0-1.722L7.013,7.74,5.759,6.387a1.288,1.288,0,0,1,0-1.722,1.065,1.065,0,0,1,1.591,0L8.6,6.016l1.25-1.359a1.064,1.064,0,0,1,1.589,0,1.291,1.291,0,0,1,0,1.722l-1.25,1.358,1.255,1.353A1.288,1.288,0,0,1,11.451,10.807Z"/></g></svg>