<svg xmlns="http://www.w3.org/2000/svg" viewBox="0 0 17.198 16.41103"><defs><style>.a{fill:#bf2604;}</style></defs><path class="a" d="M8.6,0C3.859,0,0,2.965,0,6.62c0,2.483,1.769,4.721,4.625,5.868.06.616-.156,1.8-1.9,3.515a.25.25,0,0,0-.044.286.215.215,0,0,0,.189.122.184.184,0,0,0,.057-.008,20.1,20.1,0,0,0,6.324-3.186c4.462-.26,7.947-3.146,7.947-6.6C17.2,2.965,13.346,0,8.6,0Zm2.849,9.872a1.063,1.063,0,0,1-1.59,0L8.606,8.522,7.356,9.88a1.064,1.064,0,0,1-1.59,0,1.291,1.291,0,0,1,0-1.722L7.013,6.805,5.759,5.452a1.288,1.288,0,0,1,0-1.722,1.065,1.065,0,0,1,1.591,0L8.6,5.081,9.85,3.722a1.064,1.064,0,0,1,1.589,0,1.291,1.291,0,0,1,0,1.722l-1.25,1.358,1.255,1.353a1.288,1.288,0,0,1,.007,1.717Z"/></svg>