<svg xmlns="http://www.w3.org/2000/svg" width="15.621" height="15.621" viewBox="0 0 15.621 15.621"><defs><style>.a,.c{fill:#fff;}.a{stroke-linecap:round;stroke-linejoin:bevel;}.b,.c{stroke:none;}</style></defs><g transform="translate(0.354 0.354)"><g class="a" transform="translate(-7.5 -7.5)"><path class="b" d="M 20.91156768798828 22.76712799072266 L 20.73478698730469 22.59035682678223 L 14.956787109375 16.81235694885254 L 9.178787231445312 22.59035682678223 L 9.002007484436035 22.76712799072266 L 8.825226783752441 22.59035682678223 L 7.323216915130615 21.08834648132324 L 7.14644718170166 20.91156768798828 L 7.323216915130615 20.73478698730469 L 13.10121726989746 14.956787109375 L 7.323216915130615 9.178787231445312 L 7.14644718170166 9.002007484436035 L 7.323216915130615 8.825226783752441 L 8.825226783752441 7.323216915130615 L 9.002007484436035 7.14644718170166 L 9.178787231445312 7.323216915130615 L 14.956787109375 13.10121726989746 L 20.73478698730469 7.323216915130615 L 20.91156768798828 7.14644718170166 L 21.08834648132324 7.323216915130615 L 22.59035682678223 8.825226783752441 L 22.76712799072266 9.002007484436035 L 22.59035682678223 9.178787231445312 L 16.81235694885254 14.956787109375 L 22.59035682678223 20.73478698730469 L 22.76712799072266 20.91156768798828 L 22.59035682678223 21.08834648132324 L 21.08834648132324 22.59035682678223 L 20.91156768798828 22.76712799072266 Z"/><path class="c" d="M 9.002006530761719 7.499996185302734 L 7.499996185302734 9.002006530761719 L 13.45477676391602 14.956787109375 L 7.499996185302734 20.91156768798828 L 9.002006530761719 22.41357803344727 L 14.956787109375 16.45879745483398 L 20.91156768798828 22.41357803344727 L 22.41357803344727 20.91156768798828 L 16.45879745483398 14.956787109375 L 22.41357803344727 9.002006530761719 L 20.91156768798828 7.499996185302734 L 14.956787109375 13.45477676391602 L 9.002006530761719 7.499996185302734 M 8.648456573486328 7.146446228027344 L 9.355556488037109 7.146446228027344 L 14.956787109375 12.74767684936523 L 20.55801773071289 7.146446228027344 L 21.26511764526367 7.146446228027344 L 22.76712799072266 8.648456573486328 L 22.76712799072266 9.355556488037109 L 17.16589736938477 14.956787109375 L 22.76712799072266 20.55801773071289 L 22.76712799072266 21.26511764526367 L 21.26511764526367 22.76712799072266 L 20.55801773071289 22.76712799072266 L 14.956787109375 17.16589736938477 L 9.355556488037109 22.76712799072266 L 8.648456573486328 22.76712799072266 L 7.146446228027344 21.26511764526367 L 7.146446228027344 20.55801773071289 L 12.74767684936523 14.956787109375 L 7.146446228027344 9.355556488037109 L 7.146446228027344 8.648456573486328 L 8.648456573486328 7.146446228027344 Z"/></g></g></svg>