<svg xmlns="http://www.w3.org/2000/svg" width="23" height="16" viewBox="0 0 23 16"><defs><style>.a{fill:#948f8c;}.b{fill:#fff;}.c{fill:#baadad;}.d{fill:#5b5353;}</style></defs><g transform="translate(-180 -149)"><path class="a" d="M7,0h8a7,7,0,0,1,7,7V8a7,7,0,0,1-7,7H7A7,7,0,0,1,0,8V7A7,7,0,0,1,7,0Z" transform="translate(181 150)"/><path class="b" d="M7,0h8a7,7,0,0,1,7,7V8a7,7,0,0,1-7,7H7A7,7,0,0,1,0,8V7A7,7,0,0,1,7,0Z" transform="translate(180 149)"/><path class="c" d="M4.5,13.208V15.5H6.792l6.76-6.76L11.26,6.448ZM15.325,6.967a.609.609,0,0,0,0-.862l-1.43-1.43a.609.609,0,0,0-.862,0L11.914,5.794l2.292,2.292Z" transform="translate(180.5 146.504)"/><path class="d" d="M4.5,13.208V15.5H6.792l6.76-6.76L11.26,6.448ZM15.325,6.967a.609.609,0,0,0,0-.862l-1.43-1.43a.609.609,0,0,0-.862,0L11.914,5.794l2.292,2.292Z" transform="translate(181.5 146.504)"/></g></svg>