<svg xmlns="http://www.w3.org/2000/svg" viewBox="0 0 52.00007 50.99724"><defs><style>.a{fill:#3f8f22;}</style></defs><path class="a" d="M35,57a26.26407,26.26407,0,0,1-10.11914-2,25.95755,25.95755,0,0,1-8.26465-5.46387A25.40435,25.40435,0,0,1,11.044,41.42969a25.13529,25.13529,0,0,1-.001-19.85449,25.40439,25.40439,0,0,1,5.57226-8.10645,25.95215,25.95215,0,0,1,8.26465-5.46582,26.60173,26.60173,0,0,1,20.23926,0,25.95215,25.95215,0,0,1,8.26465,5.46582,25.40439,25.40439,0,0,1,5.57226,8.10645,25.12341,25.12341,0,0,1,.001,19.8496,25.40439,25.40439,0,0,1-5.57226,8.10645,25.95755,25.95755,0,0,1-8.26465,5.46387A26.25214,26.25214,0,0,1,35,57ZM32.31152,34.668v6.72754a2.90536,2.90536,0,0,0,.84082,2.26758,3.68986,3.68986,0,0,0,2.52344.75586,2.02794,2.02794,0,0,0,1.6084-1.07325,12.732,12.732,0,0,1-.53809-2.9248V34.668h7.60645a3.35918,3.35918,0,0,0,2.41308-.78027,3.12633,3.12633,0,0,0,.79981-2.33887c0-.55078-.39453-1.042-1.17188-1.46192a15.25224,15.25224,0,0,1-3.11914.48536h-6.5332V27.794a11.02621,11.02621,0,0,1,.3916-2.41211,11.04769,11.04769,0,0,0,.38867-2.41407c0-.48437-.36816-.94336-1.0996-1.36328a3.98855,3.98855,0,0,0-1.92676-.63379,5.04745,5.04745,0,0,0-2.19239.68164v8.91993H29.62109a25.12827,25.12827,0,0,1-2.584-.19239,24.30474,24.30474,0,0,0-2.583-.20019,2.06122,2.06122,0,0,0-1.56055.75683,2.44292,2.44292,0,0,0-.68261,1.67969,4.47241,4.47241,0,0,0,.73047,2.04785Z" transform="translate(-8.99996 -6.00285)"/></svg>