<svg xmlns="http://www.w3.org/2000/svg" viewBox="0 0 15.335 17.446"><defs><style>.a{fill:#bf2604;}</style></defs><path class="a" d="M1.063,5.111,1.968,16.04a1.541,1.541,0,0,0,1.527,1.406h8.343a1.542,1.542,0,0,0,1.527-1.406l.906-10.929ZM5.111,15.402a.511.511,0,0,1-.51-.479L4.09,6.677a.511.511,0,0,1,.478-.542h0a.5.5,0,0,1,.5406.45579L5.11,6.613l.511,8.246a.511.511,0,0,1-.478.542Zm3.067-.511a.511.511,0,0,1-1.022,0V6.645a.511.511,0,0,1,1.022,0Zm3.066-8.214-.511,8.246a.511.511,0,0,1-1.02-.064h0l.511-8.246a.519.519,0,0,1,.542-.478.511.511,0,0,1,.478.541Z" transform="translate(0.0005)"/><path class="a" d="M14.312,2.045H11.245V1.533A1.535,1.535,0,0,0,9.712,0H5.623A1.535,1.535,0,0,0,4.09,1.533v.511H1.022a1.0225,1.0225,0,0,0,0,2.045h13.29a1.0225,1.0225,0,1,0,0-2.045Zm-4.089,0H5.111V1.533a.512.512,0,0,1,.511-.511H9.711a.512.512,0,0,1,.511.511Z" transform="translate(0.0005)"/></svg>