<svg xmlns="http://www.w3.org/2000/svg" width="17.578" height="20" viewBox="0 0 17.578 20"><defs><style>.a{fill:#bf2604;}</style></defs><path class="a" d="M62.205,150l1.038,12.529a1.767,1.767,0,0,0,1.751,1.612h9.563a1.767,1.767,0,0,0,1.751-1.612L77.345,150Zm4.64,11.8a.586.586,0,0,1-.584-.549l-.586-9.453a.586.586,0,0,1,.548-.621.577.577,0,0,1,.621.548l.586,9.453A.586.586,0,0,1,66.845,161.8Zm3.516-.586a.586.586,0,0,1-1.172,0v-9.453a.586.586,0,0,1,1.172,0Zm3.514-9.416-.586,9.453a.586.586,0,0,1-1.17-.073l.586-9.453a.6.6,0,0,1,.621-.548A.586.586,0,0,1,73.875,151.794Z" transform="translate(-60.986 -144.141)"/><path class="a" d="M47.406,2.344H43.891V1.758A1.76,1.76,0,0,0,42.133,0H37.445a1.76,1.76,0,0,0-1.758,1.758v.586H32.172a1.172,1.172,0,1,0,0,2.344H47.406a1.172,1.172,0,1,0,0-2.344Zm-4.687,0H36.859V1.758a.586.586,0,0,1,.586-.586h4.687a.586.586,0,0,1,.586.586Z" transform="translate(-31)"/></svg>