<svg xmlns="http://www.w3.org/2000/svg" viewBox="0 0 27.35968 27.12438"><defs><style>.a{fill:#cbcac7;opacity:0.762;isolation:isolate;}.b{fill:#f0efeb;}.c{fill:#5c5560;}.d{fill:#f98200;}.e{fill:#df5000;}</style></defs><path class="a" d="M13.894.513A13.249,13.249,0,1,1,.645,13.762h0A13.249,13.249,0,0,1,13.894.513Z" transform="translate(0.21668 0.11338)"/><path class="b" d="M25.644,12.822q0,.463-.033.918-.037.535-.119,1.056a12.48985,12.48985,0,0,1-.263,1.274,12.929,12.929,0,1,1,.415-3.361Z" transform="translate(0.21668 0.11338)"/><path class="c" d="M25.644,12.709a12.8121,12.8121,0,0,0-.171-1.988,1.90008,1.90008,0,0,0-.968-.223H23.262v4.3h.839V13.071h.109l1.16,1.727h.123q.082-.521.119-1.056l-.564-.755A1.291,1.291,0,0,0,25.644,12.709Zm-1.3-.232H24.1v-1.3h.257c.522,0,.806.219.806.636.001.431-.283.664-.818.664Z" transform="translate(0.21668 0.11338)"/><path class="c" d="M22.706,14.068v.727H20.325v-4.3h2.376v.728H21.162v.954h1.483v.728H21.162v1.16Z" transform="translate(0.21668 0.11338)"/><path class="c" d="M19.946,10.498l-1.857,4.407h-.443l-1.824-4.407h.916l1.146,2.886,1.161-2.886Z" transform="translate(0.21668 0.11338)"/><path class="d" d="M16.083,12.662a2.28359,2.28359,0,0,1-.047.462c-.007.033-.017.066-.025.1s-.019.079-.032.119a2.286,2.286,0,1,1,.1-.68Z" transform="translate(0.21668 0.11338)"/><path class="e" d="M11.93,13.082a2.285,2.285,0,0,1,3.679-1.812,2.286,2.286,0,1,0-3.205,3.2A2.27409,2.27409,0,0,1,11.93,13.082Z" transform="translate(0.21668 0.11338)"/><path class="c" d="M11.237,10.667v.986a1.4,1.4,0,0,0-1.051-.484,1.429,1.429,0,0,0-1.40049,1.45694l.0005.01906a1.4,1.4,0,0,0,1.31482,1.48028q.064.00381.12817.00171a1.341,1.341,0,0,0,1.011-.471v.986a2.29391,2.29391,0,0,1-1.051.251,2.225,2.225,0,0,1-2.26666-2.18254q-.00057-.02973-.00034-.05946a2.258,2.258,0,0,1,2.26778-2.24819L10.21,10.403A2.132,2.132,0,0,1,11.237,10.667Z" transform="translate(0.21668 0.11338)"/><path class="c" d="M7.507,10.904l-.438.575a.868.868,0,0,0-.676-.349c-.362,0-.625.205-.625.476,0,.231.148.355.652.541.952.348,1.235.657,1.235,1.339A1.388,1.388,0,0,1,6.29549,14.9019q-.06129.00126-.12249-.00291a1.671,1.671,0,0,1-1.487-.819l.542-.522a.991.991,0,0,0,.914.573.613.613,0,0,0,.64985-.57379L6.793,13.525a.514.514,0,0,0-.251-.445,3.3566,3.3566,0,0,0-.579-.244c-.787-.284-1.057-.586-1.057-1.178a1.261,1.261,0,0,1,1.28826-1.23313L6.245,10.427A1.886,1.886,0,0,1,7.507,10.904Z" transform="translate(0.21668 0.11338)"/><rect class="c" x="3.74768" y="10.61138" width="0.837" height="4.298"/><path class="c" d="M.838,10.498H.21a12.95012,12.95012,0,0,0-.059,4.3H.833a2.239,2.239,0,0,0,1.533-.5,2.161,2.161,0,0,0,.778-1.65,2.135,2.135,0,0,0-2.113-2.15677Q.93439,10.49027.838,10.498Zm.979,3.228a1.586,1.586,0,0,1-1.145.342H.446V11.226H.672a1.552,1.552,0,0,1,1.145.347,1.448,1.448,0,0,1,.465,1.07A1.472,1.472,0,0,1,1.817,13.726Z" transform="translate(0.21668 0.11338)"/><path class="d" d="M25.23,16.07A12.826,12.826,0,0,1,5.142,23.09,63.08585,63.08585,0,0,0,25.23,16.07Z" transform="translate(0.21668 0.11338)"/></svg>