<svg xmlns="http://www.w3.org/2000/svg" xmlns:xlink="http://www.w3.org/1999/xlink" width="41" height="39" viewBox="0 0 41 39"><defs><style>.a{fill:#d9d9d9;stroke:#98918a;stroke-width:2px;}.b{fill:#ffd54f;}.c{stroke:none;}.d{fill:none;}.e{filter:url(#a);}</style><filter id="a" x="3.5" y="4.001" width="32.949" height="28.499" filterUnits="userSpaceOnUse"><feOffset input="SourceAlpha"/><feGaussianBlur stdDeviation="1.5" result="b"/><feFlood flood-opacity="0.271"/><feComposite operator="in" in2="b"/><feComposite in="SourceGraphic"/></filter></defs><g transform="translate(-225 -184)"><g class="a" transform="translate(225 184)"><ellipse class="c" cx="20.5" cy="19.5" rx="20.5" ry="19.5"/><ellipse class="d" cx="20.5" cy="19.5" rx="19.5" ry="18.5"/></g><g transform="translate(234 190.641)"><g class="e" transform="matrix(1, 0, 0, 1, -9, -6.64)"><path class="b" d="M-3484.7,8817.858h-18.651a2.652,2.652,0,0,1-2.649-2.649v-10.97a2.651,2.651,0,0,1,2.649-2.646h3.255v-.916a2.32,2.32,0,0,1,2.317-2.317h7.5a2.32,2.32,0,0,1,2.317,2.317v.916h3.262a2.654,2.654,0,0,1,2.649,2.646v10.973A2.654,2.654,0,0,1-3484.7,8817.858Zm-9.325-13.981a5.856,5.856,0,0,0-5.849,5.849,5.855,5.855,0,0,0,5.849,5.847,5.859,5.859,0,0,0,5.847-5.847A5.854,5.854,0,0,0-3494.025,8803.877Zm7.026-.019a1,1,0,0,0-1,1,1,1,0,0,0,1,1,1,1,0,0,0,1-1A1,1,0,0,0-3487,8803.858Zm-7.026,9.729a3.866,3.866,0,0,1-3.862-3.861,3.866,3.866,0,0,1,3.862-3.861,3.871,3.871,0,0,1,3.862,3.861A3.866,3.866,0,0,1-3494.025,8813.587Z" transform="translate(3514 -8789.86)"/></g></g></g></svg>