<svg xmlns="http://www.w3.org/2000/svg" viewBox="0 0 94.00789 90.03024"><defs><style>.a,.e{fill:#455a64;}.a{opacity:0.928;isolation:isolate;}.b{fill:#be7316;}.c{fill:#ffd54f;}.d{fill:#ffc107;}.f{fill:#ffa000;}</style></defs><path class="a" d="M62.192,74.121c-2.641,0-3.977-1.988-3.977-5.965a10.061,10.061,0,1,0-2.422,6.431,7.091,7.091,0,0,0,6.4,3.512c7.954,0,7.954-7.484,7.954-9.942a21.873,21.873,0,1,0-6.665,15.721,2,2,0,1,0-2.784-2.859h0A17.9,17.9,0,1,1,66.17,68.158C66.169,72.614,65.167,74.121,62.192,74.121Zm-13.919,0a5.965,5.965,0,1,1,5.965-5.965h0A5.965,5.965,0,0,1,48.273,74.121Z" transform="translate(0.00009 0.00006)"/><path class="b" d="M22.52188,66.17081H12.46793A9.86974,9.86974,0,0,1,5.443,63.26358L37.891,30.81241l5.489,3.97851a8.23013,8.23013,0,0,0,9.783,0l5.488-3.97851L83.892,56.05362,58.651,30.81241l-5.488,3.97851a8.24219,8.24219,0,0,1-9.78295,0l-5.489-3.97851L5.443,63.26358a9.87338,9.87338,0,0,1-2.905-7.03711v-43.749a9.76954,9.76954,0,0,1,1.8689-5.80567,9.90017,9.90017,0,0,1,8.041-4.13379h71.616a9.974,9.974,0,0,1,8.033,4.09961,9.82,9.82,0,0,1,1.91089,5.84375v43.749a9.89273,9.89273,0,0,1-2.8999,7.03711h0a9.87807,9.87807,0,0,1-7.02393,2.90722H71.67178a36.44537,36.44537,0,0,0-.8999-6.26172,41.05441,41.05441,0,0,0-1.551-4.38867A28.56346,28.56346,0,0,0,66.071,50.19327a25.08387,25.08387,0,0,0-8.18188-6.99121,26.41424,26.41424,0,0,0-12.38989-3.085c-5.022-.22852-12.56006,2.42871-17.65088,7.3164s-7.479,12.20606-7.9751,18.74121Z" transform="translate(0.00009 0.00006)"/><path class="c" d="M89.559,4.096,56.113,28.275l-5.488,3.977a8.232,8.232,0,0,1-9.783,0l-5.488-3.977L1.869,4.132A9.887,9.887,0,0,1,9.942,0H81.525A9.942,9.942,0,0,1,89.559,4.096Z" transform="translate(0.00009 0.00006)"/><path class="d" d="M1.869,4.136,35.354,28.275,2.9,60.727A9.942,9.942,0,0,1,0,53.688V9.942A9.823,9.823,0,0,1,1.869,4.136Z" transform="translate(0.00009 0.00006)"/><path class="d" d="M91.468,9.942V53.687a9.942,9.942,0,0,1-2.9,7.039L56.114,28.275,89.559,4.096A9.88506,9.88506,0,0,1,91.468,9.942Z" transform="translate(0.00009 0.00006)"/><path class="e" d="M59.653,71.583c-2.641,0-3.977-1.988-3.977-5.965a10.061,10.061,0,1,0-2.422,6.431,7.091,7.091,0,0,0,6.4,3.512c7.954,0,7.954-7.484,7.954-9.942A21.873,21.873,0,1,0,60.943,81.34a2,2,0,1,0-2.784-2.859h0A17.9,17.9,0,1,1,63.631,65.62C63.63,70.076,62.628,71.583,59.653,71.583Zm-13.919,0a5.965,5.965,0,1,1,5.965-5.965h0A5.965,5.965,0,0,1,45.734,71.583Z" transform="translate(0.00009 0.00006)"/><path class="f" d="M56.113,28.276l-5.484,3.977a8.232,8.232,0,0,1-9.783,0l-5.488-3.977L2.903,60.728a9.941,9.941,0,0,0,7.039,2.9H19.983a25.822,25.822,0,0,1,51.5,0H81.529a9.942,9.942,0,0,0,7.039-2.9Z" transform="translate(0.00009 0.00006)"/></svg>