<svg xmlns="http://www.w3.org/2000/svg" viewBox="0 0 19.47814 21.67072"><defs><style>.a{fill:#5b5353;}.b{fill:#ffd54f;}.c{fill:silver;}.d{fill:#758f9b;}.e{fill:#469a09;}.f{fill:#fff;}.g{fill:#e0e0e0;}</style></defs><path class="a" d="M12.234,10.776a2.991,2.991,0,0,1-2.129-.882l-.526-.526a3.01,3.01,0,0,1-.00022-4.25678L9.579,5.111,13.808.882A3.01,3.01,0,0,1,18.0648.88177L18.065.882l.526.526a3.014,3.014,0,0,1,0,4.257h0L14.362,9.894A2.991,2.991,0,0,1,12.234,10.776Zm3.7-8.888a1.119,1.119,0,0,0-.794.328L10.911,6.445a1.124,1.124,0,0,0,0,1.587l.526.526a1.122,1.122,0,0,0,1.58675.00026L13.024,8.558l4.229-4.229h0a1.124,1.124,0,0,0,0-1.587l-.526-.526a1.119,1.119,0,0,0-.791-.327Z" transform="translate(-0.00093 -0.00028)"/><path class="b" d="M18.592,1.41l-.293-.293L16.964,2.452l.293.293a1.124,1.124,0,0,1,0,1.587h0L13.028,8.561a1.122,1.122,0,0,1-1.58674.00026L11.441,8.561l-.293-.293L9.813,9.603l.293.293a3.01,3.01,0,0,0,4.25679.00022L14.363,9.896l4.229-4.229h0a3.00837,3.00837,0,0,0,.00862-4.25776C18.59929,1.40794,18.598,1.40663,18.592,1.41Z" transform="translate(-0.00093 -0.00028)"/><path class="b" d="M3.536,19.477a2.991,2.991,0,0,1-2.129-.882l-.526-.526a3.014,3.014,0,0,1,0-4.257L5.11,9.583a3.011,3.011,0,0,1,4.257,0l.526.526a3.014,3.014,0,0,1,0,4.257L5.667,18.593A2.991,2.991,0,0,1,3.536,19.477Zm3.7-8.888a1.11907,1.11907,0,0,0-.794.328L2.213,15.146a1.124,1.124,0,0,0,0,1.587l.526.526a1.124,1.124,0,0,0,1.587,0L8.555,13.03h0a1.124,1.124,0,0,0,0-1.587l-.526-.526a1.119,1.119,0,0,0-.791-.33Z" transform="translate(-0.00093 -0.00028)"/><path class="a" d="M18.591,1.41l-.293-.293L16.963,2.452l.293.293a1.124,1.124,0,0,1,0,1.587h0L13.027,8.561a1.122,1.122,0,0,1-1.58675.00026L11.44,8.561l-.293-.293L9.812,9.603l.293.293a3.01,3.01,0,0,0,4.25679.00022L14.362,9.896l4.229-4.229h0a3.00837,3.00837,0,0,0,.00862-4.25776C18.59829,1.40794,18.597,1.40663,18.591,1.41Z" transform="translate(-0.00093 -0.00028)"/><path class="a" d="M3.536,19.477a2.991,2.991,0,0,1-2.129-.882l-.526-.526a3.014,3.014,0,0,1,0-4.257L5.11,9.583a3.011,3.011,0,0,1,4.257,0l.526.526a3.014,3.014,0,0,1,0,4.257L5.667,18.593A2.991,2.991,0,0,1,3.536,19.477Zm3.7-8.888a1.11907,1.11907,0,0,0-.794.328L2.213,15.146a1.124,1.124,0,0,0,0,1.587l.526.526a1.124,1.124,0,0,0,1.587,0L8.555,13.03h0a1.124,1.124,0,0,0,0-1.587l-.526-.526a1.119,1.119,0,0,0-.791-.33Z" transform="translate(-0.00093 -0.00028)"/><path class="a" d="M9.602,9.813,8.267,11.148l.293.293a1.124,1.124,0,0,1,0,1.587h0L4.331,17.257a1.124,1.124,0,0,1-1.587,0l-.293-.293L1.116,18.299l.293.293a3.01,3.01,0,0,0,4.25678.00021L5.666,18.592l4.229-4.229a3.014,3.014,0,0,0,0-4.257Z" transform="translate(-0.00093 -0.00028)"/><rect class="c" x="6.5423" y="8.88819" width="6.263" height="1.888" transform="translate(-4.11995 9.71991) rotate(-45)"/><rect class="d" x="6.85293" y="9.63854" width="6.263" height="1.009" transform="translate(-4.24877 10.03061) rotate(-45)"/><path class="e" d="M10.306,12.471a4.6,4.6,0,1,1-4.6,4.6h0A4.6,4.6,0,0,1,10.306,12.471Z" transform="translate(-0.00093 -0.00028)"/><path class="e" d="M14.901,17.068a4.6,4.6,0,0,0-4.585-4.6v9.194A4.6,4.6,0,0,0,14.901,17.068Z" transform="translate(-0.00093 -0.00028)"/><path class="f" d="M13.46,16.272H11.099v-2.36H9.506v2.36H7.146v1.593h2.36v2.36h1.593v-2.36h2.36Z" transform="translate(-0.00093 -0.00028)"/><path class="g" d="M11.1,16.272v-2.36h-.784v6.317H11.1v-2.36h2.36V16.276Z" transform="translate(-0.00093 -0.00028)"/></svg>