<svg xmlns="http://www.w3.org/2000/svg" width="22.887" height="27.165" viewBox="0 0 22.887 27.165"><defs><style>.a{fill:#716a6a;}.b{fill:#5b5353;}.c{fill:#bf2604;}.d{fill:#469a09;}.e{fill:#ffd54f;}</style></defs><g transform="translate(-330.316 -38.089)"><g transform="translate(315.496 45.288)"><path class="a" d="M42.305,28.391a1,1,0,0,1-1-1V5a1,1,0,0,1,2,0V27.389A1,1,0,0,1,42.305,28.391Z" transform="translate(-23.171 -9.456)"/><path class="a" d="M40.5,26.785a1.2,1.2,0,0,1-1.2-1.2V3.2a1.2,1.2,0,0,1,2.4,0V25.586A1.2,1.2,0,0,1,40.5,26.785Zm0-24.391A.807.807,0,0,0,39.7,3.2V25.586a.806.806,0,0,0,1.611,0V3.2A.807.807,0,0,0,40.5,2.393Z" transform="translate(-21.368 -7.653)"/><path class="a" d="M48.127,121.2a.2.2,0,0,1-.2-.2v-1.273a.2.2,0,1,1,.393,0V121A.2.2,0,0,1,48.127,121.2Z" transform="translate(-29.146 -113.624)"/><path class="a" d="M2.492,0A2.492,2.492,0,1,1,0,2.492,2.492,2.492,0,0,1,2.492,0Z" transform="translate(15.605 -2.964) rotate(-45)"/><path class="a" d="M48.526,4a2.5,2.5,0,0,0-.318.021,2.492,2.492,0,0,1,0,4.942A2.492,2.492,0,1,0,48.526,4Z" transform="translate(-29.397 -9.456)"/><path class="a" d="M195.418,28.391a1,1,0,0,1-1-1V5a1,1,0,1,1,2,0V27.389A1,1,0,0,1,195.418,28.391Z" transform="translate(-161.225 -9.456)"/><path class="a" d="M193.615,26.785a1.2,1.2,0,0,1-1.2-1.2V3.2a1.2,1.2,0,1,1,2.4,0V25.586A1.2,1.2,0,0,1,193.615,26.785Zm0-24.391a.807.807,0,0,0-.806.806V25.586a.806.806,0,1,0,1.611,0V3.2A.806.806,0,0,0,193.615,2.393Z" transform="translate(-159.422 -7.653)"/><path class="a" d="M2.492,0A2.492,2.492,0,1,1,0,2.492,2.492,2.492,0,0,1,2.492,0Z" transform="translate(30.66 16.443) rotate(-45)"/><path class="a" d="M201.639,201.322a2.5,2.5,0,0,0-.318.021,2.492,2.492,0,0,1,0,4.942,2.519,2.519,0,0,0,.318.021,2.492,2.492,0,0,0,0-4.984Z" transform="translate(-167.451 -187.371)"/><path class="a" d="M181.709,206.305a2.493,2.493,0,0,0,.318-.021,2.492,2.492,0,0,1,0-4.942,2.492,2.492,0,1,0-.318,4.963Z" transform="translate(-147.521 -187.37)"/><path class="a" d="M118.862,28.391a1,1,0,0,1-1-1V5a1,1,0,1,1,2,0V27.389A1,1,0,0,1,118.862,28.391Z" transform="translate(-92.198 -9.456)"/><path class="a" d="M117.059,26.785a1.2,1.2,0,0,1-1.2-1.2V3.2a1.2,1.2,0,0,1,2.4,0V25.586A1.2,1.2,0,0,1,117.059,26.785Zm0-24.391a.807.807,0,0,0-.806.806V25.586a.806.806,0,0,0,1.611,0V3.2A.807.807,0,0,0,117.059,2.393Z" transform="translate(-90.395 -7.653)"/><path class="a" d="M2.492,0A2.492,2.492,0,1,1,0,2.492,2.492,2.492,0,0,1,2.492,0Z" transform="translate(24.167 4.088)"/><path class="a" d="M179.907,204.7a2.689,2.689,0,1,1,2.689-2.689A2.692,2.692,0,0,1,179.907,204.7Zm0-4.984a2.3,2.3,0,1,0,2.3,2.3A2.3,2.3,0,0,0,179.907,199.715Z" transform="translate(-145.718 -185.568)"/><path class="a" d="M125.083,101.044a2.5,2.5,0,0,0-.318.021,2.492,2.492,0,0,1,0,4.942,2.492,2.492,0,1,0,.318-4.963Z" transform="translate(-98.424 -96.956)"/><path class="a" d="M105.153,106.028a2.494,2.494,0,0,0,.318-.021,2.492,2.492,0,0,1,0-4.942,2.492,2.492,0,1,0-.318,4.963Z" transform="translate(-78.494 -96.956)"/><path class="a" d="M28.6,8.984a2.5,2.5,0,0,0,.318-.021,2.492,2.492,0,0,1,0-4.942A2.492,2.492,0,1,0,28.6,8.984Z" transform="translate(-9.467 -9.456)"/><g transform="translate(16.44 -5.653)"><path class="a" d="M103.35,104.422a2.689,2.689,0,1,1,2.689-2.689A2.692,2.692,0,0,1,103.35,104.422Zm0-4.984a2.3,2.3,0,1,0,2.3,2.3A2.3,2.3,0,0,0,103.35,99.437Z" transform="translate(-93.131 -89.5)"/><path class="a" d="M26.793,7.378a2.689,2.689,0,1,1,2.689-2.689A2.692,2.692,0,0,1,26.793,7.378Zm0-4.984a2.3,2.3,0,1,0,2.3,2.3A2.3,2.3,0,0,0,26.793,2.393Z" transform="translate(-24.104 -2)"/></g></g><g transform="translate(314.711 44.577)"><path class="b" d="M42.305,28.391a1,1,0,0,1-1-1V5a1,1,0,0,1,2,0V27.389A1,1,0,0,1,42.305,28.391Z" transform="translate(-23.171 -9.456)"/><path class="b" d="M40.5,26.785a1.2,1.2,0,0,1-1.2-1.2V3.2a1.2,1.2,0,0,1,2.4,0V25.586A1.2,1.2,0,0,1,40.5,26.785Zm0-24.391A.807.807,0,0,0,39.7,3.2V25.586a.806.806,0,0,0,1.611,0V3.2A.807.807,0,0,0,40.5,2.393Z" transform="translate(-21.368 -7.653)"/><path class="b" d="M48.127,121.2a.2.2,0,0,1-.2-.2v-1.273a.2.2,0,1,1,.393,0V121A.2.2,0,0,1,48.127,121.2Z" transform="translate(-29.146 -113.624)"/><path class="c" d="M2.492,0A2.492,2.492,0,1,1,0,2.492,2.492,2.492,0,0,1,2.492,0Z" transform="translate(15.605 -2.964) rotate(-45)"/><path class="c" d="M48.526,4a2.5,2.5,0,0,0-.318.021,2.492,2.492,0,0,1,0,4.942A2.492,2.492,0,1,0,48.526,4Z" transform="translate(-29.397 -9.456)"/><path class="b" d="M195.418,28.391a1,1,0,0,1-1-1V5a1,1,0,1,1,2,0V27.389A1,1,0,0,1,195.418,28.391Z" transform="translate(-161.225 -9.456)"/><path class="b" d="M193.615,26.785a1.2,1.2,0,0,1-1.2-1.2V3.2a1.2,1.2,0,1,1,2.4,0V25.586A1.2,1.2,0,0,1,193.615,26.785Zm0-24.391a.807.807,0,0,0-.806.806V25.586a.806.806,0,1,0,1.611,0V3.2A.806.806,0,0,0,193.615,2.393Z" transform="translate(-159.422 -7.653)"/><path class="d" d="M2.492,0A2.492,2.492,0,1,1,0,2.492,2.492,2.492,0,0,1,2.492,0Z" transform="translate(30.66 16.443) rotate(-45)"/><path class="d" d="M201.639,201.322a2.5,2.5,0,0,0-.318.021,2.492,2.492,0,0,1,0,4.942,2.519,2.519,0,0,0,.318.021,2.492,2.492,0,0,0,0-4.984Z" transform="translate(-167.451 -187.371)"/><path class="d" d="M181.709,206.305a2.493,2.493,0,0,0,.318-.021,2.492,2.492,0,0,1,0-4.942,2.492,2.492,0,1,0-.318,4.963Z" transform="translate(-147.521 -187.37)"/><path class="b" d="M118.862,28.391a1,1,0,0,1-1-1V5a1,1,0,1,1,2,0V27.389A1,1,0,0,1,118.862,28.391Z" transform="translate(-92.198 -9.456)"/><path class="b" d="M117.059,26.785a1.2,1.2,0,0,1-1.2-1.2V3.2a1.2,1.2,0,0,1,2.4,0V25.586A1.2,1.2,0,0,1,117.059,26.785Zm0-24.391a.807.807,0,0,0-.806.806V25.586a.806.806,0,0,0,1.611,0V3.2A.807.807,0,0,0,117.059,2.393Z" transform="translate(-90.395 -7.653)"/><path class="e" d="M2.492,0A2.492,2.492,0,1,1,0,2.492,2.492,2.492,0,0,1,2.492,0Z" transform="translate(24.167 4.088)"/><path class="b" d="M179.907,204.7a2.689,2.689,0,1,1,2.689-2.689A2.692,2.692,0,0,1,179.907,204.7Zm0-4.984a2.3,2.3,0,1,0,2.3,2.3A2.3,2.3,0,0,0,179.907,199.715Z" transform="translate(-145.718 -185.568)"/><path class="e" d="M125.083,101.044a2.5,2.5,0,0,0-.318.021,2.492,2.492,0,0,1,0,4.942,2.492,2.492,0,1,0,.318-4.963Z" transform="translate(-98.424 -96.956)"/><path class="e" d="M105.153,106.028a2.494,2.494,0,0,0,.318-.021,2.492,2.492,0,0,1,0-4.942,2.492,2.492,0,1,0-.318,4.963Z" transform="translate(-78.494 -96.956)"/><path class="c" d="M28.6,8.984a2.5,2.5,0,0,0,.318-.021,2.492,2.492,0,0,1,0-4.942A2.492,2.492,0,1,0,28.6,8.984Z" transform="translate(-9.467 -9.456)"/><g transform="translate(16.44 -5.653)"><path class="b" d="M103.35,104.422a2.689,2.689,0,1,1,2.689-2.689A2.692,2.692,0,0,1,103.35,104.422Zm0-4.984a2.3,2.3,0,1,0,2.3,2.3A2.3,2.3,0,0,0,103.35,99.437Z" transform="translate(-93.131 -89.5)"/><path class="b" d="M26.793,7.378a2.689,2.689,0,1,1,2.689-2.689A2.692,2.692,0,0,1,26.793,7.378Zm0-4.984a2.3,2.3,0,1,0,2.3,2.3A2.3,2.3,0,0,0,26.793,2.393Z" transform="translate(-24.104 -2)"/></g></g></g></svg>