<svg xmlns="http://www.w3.org/2000/svg" viewBox="0 0 21.22095 25.49828"><defs><style>.a{fill:#716a6a;}.b{fill:#5b5353;}.c{fill:#469a09;}.d{fill:#ffd54f;}.e{fill:#bf2604;}</style></defs><path class="a" d="M19.267,26.329a2.688,2.688,0,0,1-1.094-5.09375V2.746a1.19979,1.19979,0,0,1,1.19971-1.20019H19.373a1.19984,1.19984,0,0,1,1.2,1.20019h0V21.24012a2.68464,2.68464,0,0,1-1.08594,5.084,1.11259,1.11259,0,0,1-.114.00586A.54836.54836,0,0,1,19.267,26.329Zm-8.62207-1.19434V16.18934a2.68472,2.68472,0,0,1,0-4.81836V2.746a1.19979,1.19979,0,0,1,1.19971-1.20019h.00024A1.19984,1.19984,0,0,1,13.04483,2.746h0v8.62989a2.68638,2.68638,0,0,1,0,4.80566v8.9502a1.19979,1.19979,0,0,1-1.19971,1.20019h-.00024a1.20027,1.20027,0,0,1-1.199-1.19727Zm-7.53,0V6.6454a2.68584,2.68584,0,0,1,1.189-5.09571h.03907A2.6851,2.6851,0,0,1,5.5087,6.63661V25.13075A1.19979,1.19979,0,0,1,4.309,26.33094H4.30875A1.19945,1.19945,0,0,1,3.1149,25.13465Z" transform="translate(-0.83707 -0.83387)"/><path class="b" d="M18.59,25.622h-.00489A2.6901,2.6901,0,0,1,17.392,20.52235V2.03407A1.19979,1.19979,0,0,1,18.59171.83387H18.592a1.19984,1.19984,0,0,1,1.19995,1.2002h0V20.52528a2.68917,2.68917,0,0,1-1.167,5.09082Zm-2.3-2.69043a2.2937,2.2937,0,0,0,1.23388,2.03418,1.2032,1.2032,0,0,1-.1311-.543V20.97255A2.28879,2.28879,0,0,0,16.287,22.93348Zm3.5,1.49121a1.20279,1.20279,0,0,1-.12793.53516A2.293,2.293,0,0,0,19.79,20.98036Zm-9.93091,0V15.47938a2.69193,2.69193,0,0,1,0-4.82129V2.037A1.19979,1.19979,0,0,1,11.05875.8368H11.059a1.19984,1.19984,0,0,1,1.2,1.2002h0v8.62988a2.68421,2.68421,0,0,1,0,4.80078v8.95117a1.19979,1.19979,0,0,1-1.19971,1.2002H11.059a1.20017,1.20017,0,0,1-1.198-1.19629ZM8.75894,13.0702a2.29993,2.29993,0,0,0,1.1001,1.96V11.10829A2.30085,2.30085,0,0,0,8.758,13.0702Zm3.5,1.95117a2.29174,2.29174,0,0,0,0-3.90527ZM2.331,24.42176V5.93348A2.6895,2.6895,0,0,1,3.52505.83485h.03907a2.69006,2.69006,0,0,1,1.166,5.09375V24.42079A1.19979,1.19979,0,0,1,3.53043,25.621H3.53018A1.19973,1.19973,0,0,1,2.331,24.41981h0ZM1.23087,3.52137A2.3,2.3,0,0,0,2.331,5.48036V2.03309a1.20055,1.20055,0,0,1,.13208-.5459A2.3,2.3,0,0,0,1.22818,3.52235Zm3.5-1.48828V5.47548a2.294,2.294,0,0,0-.127-3.98047,1.19084,1.19084,0,0,1,.12525.53906Z" transform="translate(-0.83707 -0.83387)"/><path class="c" d="M16.8171,21.16989a2.492,2.492,0,1,1,0,3.52422,2.492,2.492,0,0,1,0-3.52422Z" transform="translate(-0.83707 -0.83387)"/><path class="d" d="M11.054,10.577a2.492,2.492,0,1,1-2.492,2.492,2.492,2.492,0,0,1,2.492-2.492Z" transform="translate(-0.83707 -0.83387)"/><path class="e" d="M1.76211,1.76189a2.492,2.492,0,1,1,0,3.52422,2.492,2.492,0,0,1,0-3.52422Z" transform="translate(-0.83707 -0.83387)"/></svg>