<svg xmlns="http://www.w3.org/2000/svg" viewBox="0 0 35.49448 40.86289"><defs><style>.a{fill:#656565;}.b{fill:#5b5353;}.c{fill:#346f09;}.d{fill:#469a09;}</style></defs><path class="a" d="M34.159,39.527a4.574,4.574,0,0,1-6.461,0l-6.842-6.842a14.262,14.262,0,0,1-6.436,1.522A14.438,14.438,0,0,1,0,19.78a14.246,14.246,0,0,1,2.162-7.595c-.008.154-.008.308-.008.462a8.73788,8.73788,0,0,0,.372,2.4A12.812,12.812,0,0,0,20.549,31.034a.79986.79986,0,0,1,.162-.089,12.79,12.79,0,0,0,4.866-4.874.91118.91118,0,0,1,.1-.17A12.84211,12.84211,0,0,0,27.22,19.78a12.65206,12.65206,0,0,0-.907-4.745,8.683,8.683,0,0,0,.372-2.388c0-.154,0-.316-.008-.47a14.461,14.461,0,0,1,.648,14.047l6.833,6.842A4.574,4.574,0,0,1,34.159,39.527Z" transform="translate(0.00009)"/><path class="b" d="M34.159,38.527a4.574,4.574,0,0,1-6.461,0l-6.842-6.842a14.262,14.262,0,0,1-6.436,1.522A14.438,14.438,0,0,1,0,18.78a14.246,14.246,0,0,1,2.162-7.595c-.008.154-.008.308-.008.462a8.73788,8.73788,0,0,0,.372,2.4A12.812,12.812,0,0,0,20.549,30.034a.79986.79986,0,0,1,.162-.089,12.79,12.79,0,0,0,4.866-4.874.91118.91118,0,0,1,.1-.17A12.84211,12.84211,0,0,0,27.22,18.78a12.65206,12.65206,0,0,0-.907-4.745,8.683,8.683,0,0,0,.372-2.388c0-.154,0-.316-.008-.47a14.461,14.461,0,0,1,.648,14.047l6.833,6.842A4.574,4.574,0,0,1,34.159,38.527Z" transform="translate(0.00009)"/><path class="c" d="M14.42,1A10.66,10.66,0,0,0,3.773,11.647c0,5.676,9.635,16.493,10.048,16.954a.814.814,0,0,0,1.1498.0562q.02946-.02671.0562-.0562c.4-.462,10.04-11.278,10.04-16.954A10.66,10.66,0,0,0,14.42,1Zm.81,16.444v-1.8a.81.81,0,0,0-1.619,0v1.8a5.848,5.848,0,0,1-4.978-4.987h1.789a.81.81,0,0,0,0-1.619H8.633a5.857,5.857,0,0,1,4.979-4.987v1.8a.81.81,0,0,0,1.619,0v-1.8a5.874,5.874,0,0,1,4.987,4.987h-1.8a.81.81,0,0,0,0,1.619h1.8a5.857,5.857,0,0,1-4.985,4.987Z" transform="translate(0.00009)"/><path class="d" d="M14.42,0A10.66,10.66,0,0,0,3.773,10.647c0,5.676,9.635,16.493,10.048,16.954a.814.814,0,0,0,1.1498.0562q.02946-.02671.0562-.0562c.4-.462,10.04-11.278,10.04-16.954A10.66,10.66,0,0,0,14.42,0Zm.81,16.444v-1.8a.81.81,0,0,0-1.619,0v1.8a5.848,5.848,0,0,1-4.978-4.987h1.789a.81.81,0,0,0,0-1.619H8.633a5.857,5.857,0,0,1,4.979-4.987v1.8a.81.81,0,0,0,1.619,0v-1.8a5.874,5.874,0,0,1,4.987,4.987h-1.8a.81.81,0,0,0,0,1.619h1.8a5.857,5.857,0,0,1-4.985,4.987Z" transform="translate(0.00009)"/></svg>