<svg xmlns="http://www.w3.org/2000/svg" width="13.807" height="13.316" viewBox="0 0 13.807 13.316"><defs><style>.a{fill:#464040;}.b{fill:#469a09;}</style></defs><g transform="translate(0 -18.174)"><path class="a" d="M6.461,18.177a3.9,3.9,0,0,0-3.814,3.814A3.808,3.808,0,0,0,4.03,24.927,6.471,6.471,0,0,0,0,30.912H1.353A5.113,5.113,0,0,1,6.461,25.8a3.814,3.814,0,0,0,3.729-4.615,3.062,3.062,0,0,0-1.146-2.083A3.917,3.917,0,0,0,6.461,18.177Zm0,6.274a2.461,2.461,0,1,1,2.461-2.461A2.464,2.464,0,0,1,6.461,24.451Z" transform="translate(0.555 0.555)"/><path class="b" d="M6.461,18.177a3.9,3.9,0,0,0-3.814,3.814A3.808,3.808,0,0,0,4.03,24.927,6.471,6.471,0,0,0,0,30.912H1.353A5.113,5.113,0,0,1,6.461,25.8a3.814,3.814,0,0,0,3.729-4.615,3.062,3.062,0,0,0-1.146-2.083A3.917,3.917,0,0,0,6.461,18.177Zm0,6.274a2.461,2.461,0,1,1,2.461-2.461A2.464,2.464,0,0,1,6.461,24.451Z"/><g transform="translate(4.516 24.318)"><path class="a" d="M245.551,299.9l-4.7,5.232-2.652-2.525-.933.98,3.661,3.485,5.63-6.269Z" transform="translate(-237.267 -299.903)"/></g><g transform="translate(4.516 23.762)"><path class="b" d="M245.551,299.9l-4.7,5.232-2.652-2.525-.933.98,3.661,3.485,5.63-6.269Z" transform="translate(-237.267 -299.903)"/></g></g></svg>