<svg xmlns="http://www.w3.org/2000/svg" width="116.715" height="112.223" viewBox="0 0 116.715 112.223"><defs><style>.a{fill:#cef;}.b{fill:#ff405c;}.c{fill:#fff;}.d{fill:#00215a;}.e{fill:#004db6;}.f{fill:#192b80;}.g{fill:#0089ff;}.h{fill:#295fcc;}.i{fill:#ffa64d;}.j{fill:#f93;}.k{fill:#7affe4;}.l{fill:#00ecce;}.m{fill:#fc9;}.n{fill:#ffb366;}.o{fill:#ff9100;}.p{fill:#ff641a;}.q{fill:#ffda2d;}.r{fill:#fdbf00;}.s{fill:#c1126b;}.t{fill:#ff5352;}</style></defs><g transform="translate(-135 -211.717)"><g transform="translate(135 218.412)"><path class="a" d="M107.034,93.053H21.986A6.986,6.986,0,0,1,15,86.067V22.574a6.986,6.986,0,0,1,6.986-6.986h85.048a6.986,6.986,0,0,1,6.986,6.986V86.067A6.986,6.986,0,0,1,107.034,93.053Z" transform="translate(-11.92 -11.92)"/><path class="b" d="M298.579,15.588H256.044V93.053h42.535a6.986,6.986,0,0,0,6.986-6.986V22.574a6.986,6.986,0,0,0-6.986-6.986Z" transform="translate(-203.465 -11.92)"/><path class="c" d="M15,204.2V235.95a6.986,6.986,0,0,0,6.986,6.986h85.048a6.986,6.986,0,0,0,6.986-6.986V204.2Z" transform="translate(-11.92 -161.802)"/><path class="d" d="M256.044,204.2v38.733h42.535a6.986,6.986,0,0,0,6.986-6.986V204.2Z" transform="translate(-203.465 -161.802)"/><path class="e" d="M173.041,414.149l3.349-21.331h27.292l3.006,21.329Z" transform="translate(-137.507 -311.685)"/><path class="f" d="M256.044,414.154h16.6l-3.006-21.329h-13.6Z" transform="translate(-203.465 -311.689)"/><g transform="translate(25.145 99.367)"><path class="g" d="M174.259,487.769h-48.73a3.08,3.08,0,0,1,0-6.161h48.73a3.08,3.08,0,1,1,0,6.161Z" transform="translate(-122.449 -481.608)"/></g><path class="h" d="M280.42,481.608H256.044v6.161H280.42a3.08,3.08,0,1,0,0-6.161Z" transform="translate(-203.465 -382.241)"/><circle class="i" cx="7.112" cy="7.112" r="7.112" transform="translate(69.509 52.22)"/><path class="j" d="M373.119,252.019v14.223a7.112,7.112,0,1,0,0-14.223Z" transform="translate(-296.498 -199.799)"/><path class="k" d="M331.925,326.637h-9.331a7.179,7.179,0,0,0-7.123,7.179v1.612a1.88,1.88,0,0,0,1.88,1.88h19.874a1.88,1.88,0,0,0,1.88-1.88v-1.612A7.18,7.18,0,0,0,331.925,326.637Z" transform="translate(-250.688 -259.094)"/><path class="l" d="M377.734,326.637h-4.616V337.31h9.917a1.88,1.88,0,0,0,1.88-1.88v-1.612A7.18,7.18,0,0,0,377.734,326.637Z" transform="translate(-296.497 -259.094)"/><circle class="m" cx="7.112" cy="7.112" r="7.112" transform="translate(21.575 52.22)"/><path class="n" d="M139.7,252.019v14.223a7.112,7.112,0,1,0,0-14.223Z" transform="translate(-111.008 -199.799)"/><path class="o" d="M98.5,326.637H89.17a7.179,7.179,0,0,0-7.123,7.179v1.612a1.88,1.88,0,0,0,1.88,1.88H103.8a1.88,1.88,0,0,0,1.88-1.88v-1.612A7.18,7.18,0,0,0,98.5,326.637Z" transform="translate(-65.198 -259.094)"/><path class="p" d="M144.31,326.637h-4.616V337.31h9.916a1.88,1.88,0,0,0,1.88-1.88v-1.612A7.18,7.18,0,0,0,144.31,326.637Z" transform="translate(-111.007 -259.094)"/><circle class="i" cx="7.112" cy="7.112" r="7.112" transform="translate(69.509 16.402)"/><path class="j" d="M373.119,77.6V91.822a7.112,7.112,0,0,0,0-14.223Z" transform="translate(-296.498 -61.197)"/><path class="q" d="M331.925,152.217h-9.331a7.179,7.179,0,0,0-7.123,7.179v1.612a1.88,1.88,0,0,0,1.88,1.88h19.874a1.88,1.88,0,0,0,1.88-1.88V159.4A7.18,7.18,0,0,0,331.925,152.217Z" transform="translate(-250.688 -120.492)"/><path class="r" d="M377.734,152.217h-4.616V162.89h9.917a1.88,1.88,0,0,0,1.88-1.88V159.4A7.18,7.18,0,0,0,377.734,152.217Z" transform="translate(-296.497 -120.492)"/><circle class="m" cx="7.112" cy="7.112" r="7.112" transform="translate(21.575 16.402)"/><path class="n" d="M139.7,77.6V91.822a7.112,7.112,0,0,0,0-14.223Z" transform="translate(-111.008 -61.197)"/><path class="b" d="M98.5,152.217H89.17a7.179,7.179,0,0,0-7.123,7.179v1.612a1.88,1.88,0,0,0,1.88,1.88H103.8a1.88,1.88,0,0,0,1.88-1.88V159.4A7.18,7.18,0,0,0,98.5,152.217Z" transform="translate(-65.198 -120.492)"/><path class="s" d="M144.31,152.217h-4.616V162.89h9.916a1.88,1.88,0,0,0,1.88-1.88V159.4A7.18,7.18,0,0,0,144.31,152.217Z" transform="translate(-111.007 -120.492)"/><path class="g" d="M95.929,84.214H9.252A9.252,9.252,0,0,1,0,74.961V9.84A9.252,9.252,0,0,1,9.252.588H95.929a9.252,9.252,0,0,1,9.252,9.252V74.962a9.253,9.253,0,0,1-9.252,9.252ZM9.252,6.749A3.092,3.092,0,0,0,6.161,9.84V74.961a3.092,3.092,0,0,0,3.092,3.092H95.929a3.092,3.092,0,0,0,3.092-3.092V9.84a3.092,3.092,0,0,0-3.092-3.092H9.252Z" transform="translate(0 0)"/><path class="h" d="M300.169.588H256.044V6.749h44.125a2.316,2.316,0,0,1,2.316,2.316v65.7a3.285,3.285,0,0,1-3.285,3.285H256.044v6.161h44.125a8.476,8.476,0,0,0,8.476-8.476V9.064A8.476,8.476,0,0,0,300.169.588Z" transform="translate(-203.465)"/></g><g transform="translate(159 196.613)"><path class="t" d="M291,93.41,297.41,87l9.615,9.615L316.64,87l6.41,6.41-9.615,9.615,9.615,9.615-6.41,6.41-9.615-9.615-9.615,9.615L291,112.64l9.615-9.615Z" transform="translate(-232.949 -69.281)"/><path d="M317.673,85.419l-9.025-9.025-9.615,9.615-9.615-9.615-9.025,9.025,9.615,9.615-9.615,9.615,9.025,9.025,9.615-9.615,9.615,9.615,9.025-9.025-9.615-9.615Zm-5.23,19.23-3.8,3.8-9.615-9.615-9.615,9.615-3.8-3.8,9.615-9.615-9.615-9.615,3.8-3.8,9.615,9.615,9.615-9.615,3.8,3.8-9.615,9.615Z" transform="translate(-224.958 -61.29)"/></g></g></svg>