<svg xmlns="http://www.w3.org/2000/svg" width="16.695" height="16.695" viewBox="0 0 16.695 16.695"><defs><style>.a{fill:#bf2604;}</style></defs><g transform="translate(-26 -196.311)"><path class="a" d="M8.348,0A8.348,8.348,0,1,0,16.7,8.348,8.348,8.348,0,0,0,8.348,0Zm0,15.617A6.9,6.9,0,0,1,1.327,8.348,6.791,6.791,0,0,1,8.348,1.215a6.913,6.913,0,0,1,7.173,7.133A7.033,7.033,0,0,1,8.348,15.617Z" transform="translate(26 196.311)"/><path class="a" d="M207.72,197.843h-.687v-5.426c0-.231-.334-.417-.565-.417h-.835a.417.417,0,0,0,0,.835h.286v5.009h-.7a.437.437,0,0,0-.439.417.531.531,0,0,0,.439.515h2.5c.231,0,.414-.285.414-.515A.414.414,0,0,0,207.72,197.843Zm0,0" transform="translate(-172.12 10.572)"/><path class="a" d="M232.5,103.448a1.049,1.049,0,1,1-1.049-1.049A1.049,1.049,0,0,1,232.5,103.448Zm0,0" transform="translate(-197.314 97.252)"/></g></svg>