<svg xmlns="http://www.w3.org/2000/svg" viewBox="0 0 27.04999 26.96644"><defs><style>.a{fill:#cbcac7;opacity:0.762;isolation:isolate;}.b{fill:#f0efeb;}.c{fill:#00529e;}.d{fill:#c70c2f;}.e{fill:#28a032;}</style></defs><path class="a" d="M14.322,1.356A12.822,12.822,0,1,1,1.5,14.178,12.822,12.822,0,0,1,14.322,1.356Z" transform="translate(-0.09401 -0.03356)"/><path class="b" d="M25.644,12.822a12.775,12.775,0,1,1-.354-3A12.775,12.775,0,0,1,25.644,12.822Z" transform="translate(-0.09401 -0.03356)"/><path class="c" d="M7.981,4.751V20.404a3.093,3.093,0,0,1-2.383,3.01A12.85,12.85,0,0,1,.69,16.985a12.61368,12.61368,0,0,0,1.759.262,9.88568,9.88568,0,0,0,2.532-.066,3.566,3.566,0,0,0,1.543-.6,2.066,2.066,0,0,0,.846-1.476,3.99919,3.99919,0,0,0,.022-.494v-3.51H4.707c0,1.195.01,2.524,0,3.718a1.434,1.434,0,0,1-1.40553,1.46191L3.297,16.281a5.19094,5.19094,0,0,1-2.066-.321,8.47755,8.47755,0,0,1-.791-.328.30013.30013,0,0,1-.081-.062V7.843A3.09,3.09,0,0,1,3.447,4.751H7.981Z" transform="translate(-0.09401 -0.03356)"/><path class="d" d="M12.116,4.751A3.092,3.092,0,0,0,9.024,7.843v4.091l.011.007c.016-.012.035-.024.053-.038a3.51815,3.51815,0,0,1,.9-.508,7.04113,7.04113,0,0,1,2.361-.436,12.39946,12.39946,0,0,1,3.392.361c.1.023.114.059.113.147q-.007.548,0,1.1c0,.089-.02.1-.1.061a5.3097,5.3097,0,0,0-.8-.341,4.859,4.859,0,0,0-2.48-.246,1.909,1.909,0,0,0-1.586,1.339,2.53,2.53,0,0,0,0,1.509,1.809,1.809,0,0,0,.979,1.147,2.54594,2.54594,0,0,0,.987.247,5.7061,5.7061,0,0,0,2.738-.57,1.78512,1.78512,0,0,1,.259-.11v1.234c0,.069-.031.086-.085.1a13.54993,13.54993,0,0,1-1.771.31,11.0409,11.0409,0,0,1-2.552-.019,4.74587,4.74587,0,0,1-2.42-.917V23.5h4.533a3.092,3.092,0,0,0,3.092-3.092V4.751Z" transform="translate(-0.09401 -0.03356)"/><path class="e" d="M25.289,4.751V15.826a12.838,12.838,0,0,1-5.362,7.67H17.664V17.131s3.208,0,4.756.007a2.569,2.569,0,0,0,1.291-.295,1.418,1.418,0,0,0,.663-1.81,1.572,1.572,0,0,0-.972-.833,3.64413,3.64413,0,0,0-.7-.158,2.75208,2.75208,0,0,0,.595-.185,1.336,1.336,0,0,0,.818-1.218,1.287,1.287,0,0,0-.744-1.251,2.14286,2.14286,0,0,0-.738-.227,5.89189,5.89189,0,0,0-.787-.043l-4.185.006V7.844a3.092,3.092,0,0,1,3.092-3.092h0Z" transform="translate(-0.09401 -0.03356)"/><path class="e" d="M20.878,13.558a.74.74,0,0,0,.74707-.73286q.00009-.00957-.00006-.01914a.727.727,0,0,0-.70978-.7438L20.901,12.062c-.27-.014-1.717,0-1.717,0v1.5S20.342,13.571,20.878,13.558Z" transform="translate(-0.09401 -0.03356)"/><path class="e" d="M19.185,16.137h1.766a1.12536,1.12536,0,0,0,.349-.042.826.826,0,0,0-.24-1.6H19.185Z" transform="translate(-0.09401 -0.03356)"/></svg>