<svg xmlns="http://www.w3.org/2000/svg" xmlns:xlink="http://www.w3.org/1999/xlink" width="19.516" height="21.226" viewBox="0 0 19.516 21.226"><defs><style>.a{fill:#fff;stroke-linecap:round;stroke-linejoin:round;}.b,.e{fill:#facb78;}.c{font-size:12px;font-family:SFCompactDisplay-Bold, SF Compact Display;font-weight:700;}.d,.e{stroke:none;}.f{filter:url(#a);}</style><filter id="a" x="2.552" y="0" width="12" height="20" filterUnits="userSpaceOnUse"><feOffset dx="-1" dy="1" input="SourceAlpha"/><feGaussianBlur stdDeviation="1" result="b"/><feFlood flood-opacity="0.161"/><feComposite operator="in" in2="b"/><feComposite in="SourceGraphic"/></filter></defs><g transform="translate(-125.075 6)"><g transform="translate(-56.373 -306)"><g class="a" transform="translate(182.151 300.738)"><path class="d" d="M 8.996674537658691 17.87812232971191 C 4.095814228057861 17.87812232971191 0.1086741462349892 13.89098167419434 0.1086741462349892 8.990121841430664 C 0.1086741462349892 8.462311744689941 0.07222414761781693 7.886951923370361 0.03363414481282234 7.277812004089355 C -0.09936585277318954 5.178391933441162 -0.2501058578491211 2.79885196685791 1.059144139289856 1.396772027015686 C 2.120314121246338 0.2481720447540283 4.770793914794922 0.09336204826831818 7.22361421585083 0.09336204826831818 C 7.548654079437256 0.09336204826831818 7.866524219512939 0.09571205079555511 8.173933982849121 0.09797205030918121 C 8.459553718566895 0.1000820472836494 8.735104560852051 0.1021120473742485 8.996674537658691 0.1021120473742485 C 9.345053672790527 0.1021120473742485 9.73160457611084 0.09355204552412033 10.14085388183594 0.08450204879045486 C 10.61481380462646 0.07400204986333847 11.10491371154785 0.06316204369068146 11.6159839630127 0.06316204369068146 C 13.56566429138184 0.06316204369068146 15.96651458740234 0.2152920514345169 17.23695373535156 1.401612043380737 C 18.33474349975586 2.415842056274414 18.16417503356934 4.651301860809326 17.99921417236328 6.813161849975586 C 17.9403133392334 7.585122108459473 17.88467407226562 8.314262390136719 17.88467407226562 8.990121841430664 C 17.88467407226562 13.89098167419434 13.89753437042236 17.87812232971191 8.996674537658691 17.87812232971191 Z"/><path class="e" d="M 11.61597442626953 0.1631622314453125 C 11.10601425170898 0.1631622314453125 10.61647415161133 0.1739921569824219 10.14305400848389 0.1844711303710938 C 9.733243942260742 0.19354248046875 9.34615421295166 0.2021121978759766 8.996674537658691 0.2021121978759766 C 8.734953880310059 0.2021121978759766 8.459104537963867 0.2000827789306641 8.173184394836426 0.1979713439941406 C 7.865923881530762 0.1957015991210938 7.54819393157959 0.1933612823486328 7.223624229431152 0.1933612823486328 C 4.792433738708496 0.1933612823486328 2.167593955993652 0.3443527221679688 1.132234573364258 1.465032577514648 C -0.1475753784179688 2.83558177947998 0.001714706420898438 5.192241668701172 0.1334342956542969 7.271482467651367 C 0.1721248626708984 7.882251739501953 0.2086734771728516 8.459152221679688 0.2086734771728516 8.990121841430664 C 0.2086734771728516 13.83584213256836 4.150954246520996 17.77812194824219 8.996674537658691 17.77812194824219 C 13.84239387512207 17.77812194824219 17.7846736907959 13.83584213256836 17.7846736907959 8.990121841430664 C 17.7846736907959 8.310452461242676 17.8404541015625 7.579462051391602 17.89950370788574 6.80555248260498 C 18.06265449523926 4.667411804199219 18.23135375976562 2.456472396850586 17.16870498657227 1.474712371826172 C 15.92379379272461 0.3122215270996094 13.54729461669922 0.1631526947021484 11.61597442626953 0.1631622314453125 M 11.61597061157227 -0.03684043884277344 C 13.71530723571777 -0.03685188293457031 16.04156112670898 0.1485481262207031 17.30520439147949 1.328531265258789 C 18.83282470703125 2.739862442016602 17.98467445373535 6.389001846313477 17.98467445373535 8.990121841430664 C 17.98467445373535 13.95405197143555 13.96061420440674 17.97812271118164 8.996674537658691 17.97812271118164 C 4.032733917236328 17.97812271118164 0.00867462158203125 13.95405197143555 0.00867462158203125 8.990121841430664 C 0.00867462158203125 6.627291679382324 -0.7347164154052734 3.17130184173584 0.986053466796875 1.328531265258789 C 2.103119850158691 0.119415283203125 4.840804100036621 -0.006633758544921875 7.223626136779785 -0.006633758544921875 C 7.851304054260254 -0.006633758544921875 8.454350471496582 0.002111434936523438 8.996674537658691 0.002111434936523438 C 9.739237785339355 0.002111434936523438 10.65384387969971 -0.03683662414550781 11.61597061157227 -0.03684043884277344 Z"/></g><path class="b" d="M21.516,7.455v8.511a1.971,1.971,0,0,1-2.091,1.824H4.091A1.971,1.971,0,0,1,2,15.965V7.455a1.55,1.55,0,0,1,.132-.608L10.6,11.771a2.35,2.35,0,0,0,2.314,0l8.468-4.924a1.55,1.55,0,0,1,.132.608Z" transform="translate(179.448 303.437)"/></g><g class="f" transform="matrix(1, 0, 0, 1, 125.07, -6)"><text class="c" transform="translate(6.55 13)"><tspan x="0" y="0">1</tspan></text></g></g></svg>