<svg xmlns="http://www.w3.org/2000/svg" xmlns:xlink="http://www.w3.org/1999/xlink" width="593.999" height="594" viewBox="0 0 593.999 594"><defs><style>.a{fill:#fff;}.b{fill:#464040;}.c{fill:#efada0;}.d{fill:#ded0cb;}.e{fill:#d8978a;}.f{fill:#d58f81;}.g{fill:#eb9d8e;}.h{fill:#e39f92;}.i{fill:#766e6e;}.j{fill:#5b5353;}.k{fill:#e4e7e7;}.l{fill:#066b8d;}.m{fill:#324d5b;}.n{fill:#d4edf6;}.o{fill:#d6dbde;}.p{fill:#2296bd;}.q{fill:#ffd54f;stroke:#fdd65c;stroke-width:5px;}.r{fill:#469a09;stroke:#469a21;stroke-width:3px;}.s{fill:rgba(255,255,255,0.45);}.t{fill:url(#g);}.u{fill:url(#h);}.v{fill:url(#i);}.w{fill:url(#j);}.x{fill:url(#k);}.y{filter:url(#e);}.z{filter:url(#c);}.aa{filter:url(#a);}</style><filter id="a" x="0" y="0" width="593.999" height="594" filterUnits="userSpaceOnUse"><feOffset dx="0.5" dy="0.5" input="SourceAlpha"/><feGaussianBlur stdDeviation="3" result="b"/><feFlood flood-opacity="0.424"/><feComposite operator="in" in2="b"/><feComposite in="SourceGraphic"/></filter><filter id="c" x="169.21" y="475.467" width="257.016" height="93.585" filterUnits="userSpaceOnUse"><feOffset dy="3" input="SourceAlpha"/><feGaussianBlur stdDeviation="3" result="d"/><feFlood flood-opacity="0.161"/><feComposite operator="in" in2="d"/><feComposite in="SourceGraphic"/></filter><filter id="e" x="103.609" y="371.121" width="214.449" height="112.172" filterUnits="userSpaceOnUse"><feOffset dy="3" input="SourceAlpha"/><feGaussianBlur stdDeviation="3" result="f"/><feFlood flood-opacity="0.161"/><feComposite operator="in" in2="f"/><feComposite in="SourceGraphic"/></filter><linearGradient id="g" x1="0.56" y1="1.28" x2="0.56" y2="0.214" gradientUnits="objectBoundingBox"><stop offset="0" stop-color="#5b6a6a"/><stop offset="1" stop-color="#303033"/></linearGradient><linearGradient id="h" x1="0.632" y1="-1.083" x2="0.432" y2="-1.283" xlink:href="#g"/><linearGradient id="i" x1="0.837" y1="-1.645" x2="0.458" y2="-1.267" gradientUnits="objectBoundingBox"><stop offset="0" stop-color="#97aaaa"/><stop offset="1" stop-color="#e8efee"/></linearGradient><linearGradient id="j" x1="0.279" y1="-1.595" x2="1.287" y2="-2.603" xlink:href="#i"/><linearGradient id="k" x1="1.179" y1="-3.828" x2="0.415" y2="-3.064" xlink:href="#i"/></defs><g transform="translate(-131.409 -97.499)"><ellipse class="a" cx="246.5" cy="207.5" rx="246.5" ry="207.5" transform="translate(183.911 142)"/><g transform="translate(139.999 105.999)"><g class="aa" transform="matrix(1, 0, 0, 1, -8.59, -8.5)"><path class="b" d="M288,576a290.309,290.309,0,0,1-58.109-5.865A287.9,287.9,0,0,1,5.851,346.04a290.809,290.809,0,0,1,0-116.084A287.9,287.9,0,0,1,229.96,5.851a290.812,290.812,0,0,1,116.084,0,287.9,287.9,0,0,1,224.1,224.11,290.809,290.809,0,0,1,0,116.084,287.9,287.9,0,0,1-224.109,224.1A290.132,290.132,0,0,1,288,576ZM210.093,262.146c-3.659,7.2-4.04,6.267-5.108,15.151.347,10.6,5.975,12.159,8.224,15.688,1.394,3.1-2.208,10.4.221,18.264,2.028,4.6,2.515,6.128,5.826,10.7l3.077,3.534c.813.756,1.709,2.011,2.561,2.764l.138,5.807a241.827,241.827,0,0,0-74.994,32.216,244.536,244.536,0,0,0-59.384,54.263,4.152,4.152,0,0,0,3.265,6.716H470.231a4.087,4.087,0,0,0,3-1.278,4.254,4.254,0,0,0,1.157-2.886,4.092,4.092,0,0,0-.893-2.553,242.78,242.78,0,0,0-134.261-86.449v-8.908c.846-.749,1.69-1.514,2.509-2.274h.035v-.034c1.107-1.031,2.186-2.072,3.207-3.1l.01-.01.01-.01.112-.112c7.188-7.233,12.171-14.271,14.812-20.92,0-.008.007-.016.01-.023v-.005a.1.1,0,0,1,.015-.037,30.2,30.2,0,0,0,2.255-11.074c0-1.441-.056-2.906-.167-4.355,4-.8,8.069-4.245,11.458-9.7a45.884,45.884,0,0,0,6.25-17.687l.009-.071a.56.56,0,0,1,.01-.081v-.031c.006-.041.01-.081.015-.122V255.5a.542.542,0,0,1,.008-.069.33.33,0,0,1,.007-.064.054.054,0,0,0,0-.007s0,0,0-.007a24.917,24.917,0,0,0-.13-7.344c-.022-.119-.046-.236-.069-.353v-.005l-.008-.039V247.6l-.01-.051v-.023l-.008-.039a.192.192,0,0,0-.01-.047l-.006-.025-.01-.043v-.007l-.01-.047V247.3l-.012-.051-.012-.051v-.041l-.006-.027-.008-.032-.007-.026-.007-.026-.006-.022-.007-.026-.007-.028-.007-.028a.151.151,0,0,0-.009-.035c-.014-.058-.029-.115-.045-.172l-.017-.065v-.009l-.022-.084a.013.013,0,0,1,0-.006,13.078,13.078,0,0,0-5.482-7.634,21.99,21.99,0,0,0-9.368-3.137,29.886,29.886,0,0,0-3.81-.26,16.761,16.761,0,0,0-8.473,2,13.986,13.986,0,0,0-5.866,7.019,58.384,58.384,0,0,1-4.572-22.669v-5.047a5.467,5.467,0,0,0,3.236-4.987V197.314a13.077,13.077,0,0,1,3.87-9.321,13.335,13.335,0,0,1,8.725-3.87l.394-.022a39.135,39.135,0,0,0,15.46-73.837,4.783,4.783,0,0,1-2.129-2.2,4.9,4.9,0,0,1-.481-2.119v-.031a39.143,39.143,0,0,0-53.1-36.559,4.766,4.766,0,0,1-1.71.316,4.7,4.7,0,0,1-3.65-1.711,39.135,39.135,0,0,0-60.539.007,4.7,4.7,0,0,1-3.649,1.711,4.76,4.76,0,0,1-1.71-.316,39.114,39.114,0,0,0-53.1,36.559v.031a4.827,4.827,0,0,1-2.61,4.314A39.158,39.158,0,0,0,206.27,184.1l.393.022a13.3,13.3,0,0,1,10.025,5.377h-.019a13.051,13.051,0,0,1,2.588,7.816v14.557c0,2.154,1.69,5.321,4.3,5.091l-.483,7.2a57.106,57.106,0,0,1-5,23.881C214.836,255.423,213.752,254.945,210.093,262.146Z" transform="translate(8.5 8.5)"/></g><g transform="translate(332.263 90.399) rotate(45)"><path class="c" d="M140.268,114.313c6.194-3.891,9.87-10.53,9.785-19.432-.044-4.96-2.738-13.457-7.71-20.605C129.353,55.6,126.455,41.7,126.455,19.121L114.463,0l-86.1,16.432L17.745,24.713C17.745,30.9.034,40.8,0,62.678-.084,115.52,54.887,179.5,65.962,186.785c14.216-1.11,41.953-6.758,60.493-27.986C150.657,133.43,134.878,122.369,140.268,114.313Z" transform="translate(0 118.12) rotate(-45)"/><path class="d" d="M88.215,22.3c5.824,0-13.24-18.106-13.24-22.3,0,0-50.084.352-59.974,4.552C7.123,7.876-26.8,22.964-10.393,26.164-5.182,27.2,72.757,21.721,88.215,22.3Z" transform="translate(25.45 86.14) rotate(-45)"/><g transform="translate(35.608 169.041) rotate(-45)"><path class="e" d="M35.283,7.5s5.777,8.058,6.693,15.834c2.632,22.338,4.343,22.479,4.343,22.479,8.226,2.4,11.056,8.294,10.251,14.534-.675,5.235-3.988,9.569-8.909,9.569,0,0-5.136-.054-8.111,3.285-2.514,2.821-5.285,3.856-7.446,3.856s-4.932-1.035-7.446-3.856c-2.975-3.339-5.111-3.285-5.111-3.285-4.92,0-8.234-4.334-8.909-9.569-.8-6.24-.975-12.13,7.251-14.534,0,0,1.711-.142,4.343-22.479A156.339,156.339,0,0,0,23.155,7.5Zm0,0" transform="translate(-6.53 -6.45)"/><path class="f" d="M253.327,45.813s-1.711-.142-4.343-22.479A70.324,70.324,0,0,0,244.765,7.5h-1.587a88.464,88.464,0,0,1,3.307,16.446c1.043,12.3,3.144,19.477,4.063,22.145a2.456,2.456,0,0,0,1.5,1.538c7.731,2.679,10.393,8.553,9.593,14.759a13.883,13.883,0,0,1-2.047,5.781,11.944,11.944,0,0,0,3.983-7.822C264.383,54.107,261.553,48.217,253.327,45.813Zm0,0" transform="translate(-213.537 -6.45)"/><path class="g" d="M261.553,427.58a8.37,8.37,0,0,0,1.821-.2,2.757,2.757,0,0,0-.531-3.686c-.921-.754-2.752.03-2.752.03-3.291,1.571-6.648,7.142-6.648,7.142C256.417,427.526,261.553,427.58,261.553,427.58Zm0,0" transform="translate(-220.42 -364.114)"/><path class="g" d="M61.666,427.58a8.368,8.368,0,0,1-1.82-.2,2.756,2.756,0,0,1,.53-3.686c.921-.754,2.752.03,2.752.03,3.291,1.571,6.648,7.142,6.648,7.142C66.8,427.526,61.666,427.58,61.666,427.58Zm0,0" transform="translate(-51.648 -364.114)"/><path class="h" d="M50.144,42.06a.922.922,0,0,0,.454-.121,17.785,17.785,0,0,1,3.725-1.547c.629-.126,1.185-.848,1.922-3.6,1.018-3.8,2.091-10.457,3.189-19.775A158.961,158.961,0,0,0,60.363,1.05,1.015,1.015,0,0,0,59.387,0h0a1.016,1.016,0,0,0-.977,1.049,156.412,156.412,0,0,1-.914,15.7c-2.052,17.411-3.509,21-3.884,21.674a19.538,19.538,0,0,0-3.923,1.655,1.086,1.086,0,0,0-.5,1.129,1.008,1.008,0,0,0,.955.853Zm0,0" transform="translate(-42.761)"/><path class="f" d="M49.107,197.068A15.284,15.284,0,0,0,40.3,190.9a66.173,66.173,0,0,1-4.607-17c-.084-.573-.135.787-.669.877s-1.113-1.035-1.029-.463a124.433,124.433,0,0,0,4.017,16.137c.509,1.577.957,2.275,1.566,2.408,6.868,2.024,10.328,6.892,9.494,13.363-.512,3.972-2.82,7.974-6.856,8.582v-.009a.938.938,0,0,0-1.351-.312c-.169.117-.338.227-.5.326a.978.978,0,0,0-.166.125,14.913,14.913,0,0,0-3.216.651,10.934,10.934,0,0,1,3.091-2.546,1.083,1.083,0,0,0,.5-1.386.952.952,0,0,0-1.29-.532c-3.314,1.582-6.535,6.659-7.014,7.436a9.416,9.416,0,0,1-6.684,3.472,9.416,9.416,0,0,1-6.683-3.472c-.479-.777-3.7-5.854-7.014-7.436a.951.951,0,0,0-1.29.532,1.082,1.082,0,0,0,.5,1.386,10.943,10.943,0,0,1,3.089,2.544,14.863,14.863,0,0,0-3.216-.65.971.971,0,0,0-.164-.124c-.165-.1-.335-.209-.5-.326a.938.938,0,0,0-1.351.312v.008c-4.04-.611-1.345-4.611-1.857-8.58-.451-3.5-1.645-6.613.332-9l.206-2.788-.94-.512V192.78l-.727,3.047c-2.368,2.86-1.339,6.554-.806,10.682a13.825,13.825,0,0,0,3.12,7.325c1.812,2.061-.852,3.151,1.767,3.151.047,0,4.743-.015,7.4,2.961a11.332,11.332,0,0,0,8.151,4.18,11.335,11.335,0,0,0,8.152-4.18c2.638-2.96,7.349-2.962,7.4-2.961a8.813,8.813,0,0,0,6.757-3.151,13.817,13.817,0,0,0,3.12-7.325,13.961,13.961,0,0,0-1.925-9.441Zm0,0" transform="translate(0 -152.472)"/><path class="f" d="M258.922,21.151a1,1,0,0,0,1.1.9,1.049,1.049,0,0,0,.835-1.183c-.167-1.3-.337-2.683-.506-4.112a90.257,90.257,0,0,0-3.677-15.7c0-.58.539-1.049,0-1.049h-1.566c-.54,0-1.679.47-1.679,1.049,0,.081,4.07,8.215,4.983,15.966.169,1.437.34,2.828.508,4.136C258.989,21.677,258.754,19.844,258.922,21.151Zm0,0" transform="translate(-225.936 1)"/><path class="f" d="M253.327,45.813s-3.7-2.39-2.779.278a2.456,2.456,0,0,0,1.5,1.538c7.731,2.679,10.393,8.553,9.593,14.759a13.883,13.883,0,0,1-2.047,5.781,11.944,11.944,0,0,0,3.983-7.822C264.383,54.107,261.553,48.217,253.327,45.813Zm0,0" transform="translate(-79.787 -96.138) rotate(17)"/></g><path class="i" d="M114.5,21.525a75.9,75.9,0,0,1-9.972.658A73.3,73.3,0,0,1,58.577,6.356,29.95,29.95,0,0,0,27.97,2.568,26.767,26.767,0,0,0,15.393,13.653,26.763,26.763,0,0,0,2.816,2.568C-7.291-1.928,12.869,42.34,15.393,37.973A26.342,26.342,0,0,0,27.38,48.665a74.628,74.628,0,0,0,31.345,6.809c24.686,0,46.372-11.764,58.821-29.523a2.913,2.913,0,0,0-3.046-4.426Z" transform="translate(85.979 202.886) rotate(-45)"/><path class="j" d="M90.654.814a75.829,75.829,0,0,1-9.973.658A76.064,76.064,0,0,1,65.811,0C53.1,16.1,32.488,26.576,9.2,26.576A76.8,76.8,0,0,1,0,26.007a29.253,29.253,0,0,0,3.539,1.948,74.632,74.632,0,0,0,31.345,6.809C59.57,34.763,81.256,23,93.7,5.239A2.913,2.913,0,0,0,90.654.814Z" transform="translate(117.483 200.67) rotate(-45)"/><path class="i" d="M9.567-.854c-.124.936,0,3.77,0,4.744A144.058,144.058,0,0,0,10.9,25.879c1.409,10.307,3.563,17.582,4.3,19.238,1.292,2.9-10.505-.383-9.25-1.108-1.255-.725-3.269-4.375-4-5.951C.7,35.349,0,20.29,0,17.05,0,9.956.85,2.723,5.953-.854,6.549-1.272,9.668-1.618,9.567-.854Z" transform="translate(97.947 72.123) rotate(45)"/><g transform="translate(92.808 96.921)"><path class="k" d="M15.911,0A16.027,16.027,0,0,1,31.822,16.142,16.028,16.028,0,0,1,15.911,32.284,16.028,16.028,0,0,1,0,16.142,16.027,16.027,0,0,1,15.911,0Z"/><path class="l" d="M54.263,43.746A10.741,10.741,0,1,1,43.755,54.485,10.625,10.625,0,0,1,54.263,43.746Z" transform="translate(-38.352 -38.344)"/><path class="m" d="M93.993,87.5a6.484,6.484,0,1,1-6.484,6.484A6.484,6.484,0,0,1,93.993,87.5Z" transform="translate(-78.082 -77.843)"/><path class="n" d="M160.218,87.5a2.7,2.7,0,1,1-2.7,2.7A2.7,2.7,0,0,1,160.218,87.5Z" transform="translate(-139.903 -77.545)"/><path class="o" d="M161.656,97.766a6.485,6.485,0,0,0-3.292-4.237,2.695,2.695,0,0,0,3.292,4.237Z" transform="translate(-139.827 -82.866)"/><path class="p" d="M56.723,87.5A11.874,11.874,0,0,1,47.8,67.775,11.876,11.876,0,1,0,64.562,84.534,11.83,11.83,0,0,1,56.723,87.5Z" transform="translate(-39.434 -60.801)"/></g></g></g><path class="a" d="M4.763.475,539.413.461a277.453,277.453,0,0,1-22.8,44.9c-5.126,8.293-10.521,15.606-10.521,15.606l-467.823.425C21.15,38.354,8.182,9.67,4.763.475Z" transform="translate(155.845 500.814)"/><g class="z" transform="matrix(1, 0, 0, 1, 131.41, 97.5)"><path class="q" d="M52.5-5.766q-.047.422-.258,2.367a10.23,10.23,0,0,0,.989,1.359A6.4,6.4,0,0,0,51.844.844H50.2A66,66,0,0,1,29.859-2.039a37.368,37.368,0,0,1-14.625-8.367A27.824,27.824,0,0,1,8.93-19.5a29.871,29.871,0,0,1-2.32-12.094,26.527,26.527,0,0,1,2.3-11.133,30.219,30.219,0,0,1,6-8.789,37.468,37.468,0,0,1,14.484-8.625,58.393,58.393,0,0,1,19.453-3.187h2.109c.031.563,2.278,3.188,2.278,3.188s-1.887,2.078-1.762,3.516H49.875a60.358,60.358,0,0,0-12.141,1.289,36.9,36.9,0,0,0-10.828,3.867,24.625,24.625,0,0,0-9.094,8.648,21.589,21.589,0,0,0-3.187,11.367,23.41,23.41,0,0,0,2.859,11.508,22.84,22.84,0,0,0,9.047,8.7,38.408,38.408,0,0,0,11.32,4.219A60.49,60.49,0,0,0,50.3-5.719h.891Q51.8-5.719,52.5-5.766ZM119.438,0H111.7q.047-2.812.117-10.383t.07-18.867q-.7,0-8.344-.023T92.063-29.3q-4.641,0-11.133.023t-7.055.023q0,13.031.07,19.734T74.063,0L70.588,3.663,66.328,0q.047-2.812.141-9.984t.094-24.234q0-5.156-.07-12.562t-.164-15.984h7.734q0,7.125-.094,13.992t-.094,13.055q.563,0,6.117.023t12.117.023q5.063,0,12.188-.023l7.594-.023q0-6.187-.094-13.031T111.7-62.766l3.84-2.67,3.894,2.67q-.094,7.078-.164,16.359t-.07,15.141q0,13.781.094,21.117T119.438,0Zm61.734-.094q-.422,0-6.234-.047T160.547-.187q-5.953,0-10.9.047c-1.451.014-4.609,2.372-4.609,2.372s-2.481-2.325-3.758-2.325q.094-2.719.164-11.766t.07-18.7q0-5.3-.047-14.016t-.187-18.047c1.176,0,3.758-2.014,3.758-2.014s3,2.046,4.562,2.061q4.992.047,10.289.047,8.953,0,14.578-.047t6.094-.047v6.516q-.469,0-5.883-.07T161.2-56.25q-3.516,0-6.891.023t-5.344.023q0,5.3-.094,10.57t-.094,9.961q2.109,0,4.992.023t5.133.023q8.25,0,14.742-.07t6.914-.07l1.94,3.055-1.94,3.414q-.375,0-7.734-.07t-13.453-.07q-2.25,0-5.367.023t-5.227.023q0,8.859.047,14.063t.094,8.719q2.766.047,6.7.07t8.484.023q6.984,0,11.742-.047t5.32-.047V-.094ZM237.7-56.109q-.8,0-6.141-.07t-13.125-.07q-3.516,0-6.445.023T207-56.2q0,5.3-.094,11.484t-.094,10.875q.563,0,3.234.023t5.109.023q7.688,0,14.508-.07t7.57-.07l2.656,3.375-2.656,3.094q-.891,0-8.648-.07t-13.9-.07q-1.922,0-4.594.023t-3.281.023q0,8.3.07,15.68T207,0l-4.033,3.663L199.266,0q.094-2.812.164-10.008t.07-20.7q0-5.3-.047-13.969t-.187-17.953q3.422,0,8.367.047t10.43.047q8.2,0,13.547-.047t6.094-.047l2.187,2.484Z" transform="translate(174.1 549.94)"/></g><g class="y" transform="matrix(1, 0, 0, 1, 131.41, 97.5)"><path class="r" d="M72.318-51.469a25.029,25.029,0,0,1-5.093,15.578,29.842,29.842,0,0,1-13.791,9.918A49.09,49.09,0,0,1,42.5-23.232a92.554,92.554,0,0,1-12.242.953L30.381,0l-9.73,5.754L10.663,0q.06-5.421.149-14.8T10.9-43.01q0-6.731-.06-16.352t-.179-20.4c1.906-.04,6.8-4.24,6.8-4.24s4.084,4.122,6.069,4.121a142.357,142.357,0,0,1,20.284,1.132,45.3,45.3,0,0,1,13.2,3.929,27.275,27.275,0,0,1,11.318,9.382,24.413,24.413,0,0,1,3.991,13.969ZM52.124-50.218A15.116,15.116,0,0,0,50.069-58.2a14.345,14.345,0,0,0-6.225-5.421,16.832,16.832,0,0,0-5.987-1.757,63.165,63.165,0,0,0-6.463-.328H29.606q0,.834-.06,6.94t-.06,9.918v14.714h1.906a44.8,44.8,0,0,0,6.4-.506,18.632,18.632,0,0,0,5.808-1.7,15.608,15.608,0,0,0,6.35-5.27,15.232,15.232,0,0,0,2.174-8.608ZM106.512,0l-9.76,3.312L86.794,0q.06-5.063.149-14.654t.089-26.032q0-6.91-.06-17.484t-.179-21.594l9.959-3.274,9.759,3.274q-.06,8.161-.149,18.794t-.089,18.914q0,16.858.089,26.062T106.512,0Zm97.576-79.765q-.119,10.365-.179,20.82t-.06,16.412q0,13.522.089,24.245t.089,13.582l-9.274,10.46C184.706-7.59,170.441-24.156,161.882-34.581s-13.771-16.73-15.637-18.913l-.3.119q0,12.808.149,31.006T146.245,0l-7.922,5.754L127.9,0q.06-2.979.149-13.1t.089-25.2q0-6.136-.06-15.756T127.9-74.7l15.429-6.2q2.621,3.157,15.548,19.122T185.8-29.368l.238-.119q0-8.221-.179-24.364t-.179-25.913l9.073-3.274Z" transform="translate(103.46 463.17)"/></g><g transform="translate(390.929 260.493) rotate(6)"><path class="s" d="M95.82,0A95.819,95.819,0,1,1,0,95.819,95.819,95.819,0,0,1,95.82,0Z" transform="translate(6.263 6.263)"/><path class="t" d="M102.082,0A102.081,102.081,0,1,1,0,102.081,102.081,102.081,0,0,1,102.082,0Zm0,187.227a85.146,85.146,0,1,0-85.146-85.146,85.146,85.146,0,0,0,85.146,85.146Z"/><path class="u" d="M82.61,93.529,93.529,82.61a10.306,10.306,0,0,0,0-14.574L25.493,0,0,25.493,68.036,93.529a10.306,10.306,0,0,0,14.574,0Z" transform="translate(167.703 170.361)"/><path class="v" d="M26.223,2.787,2.786,26.223a9.514,9.514,0,0,0,0,13.455l1.177,1.177a9.514,9.514,0,0,0,13.455,0L40.855,17.419a9.514,9.514,0,0,0,0-13.455L39.677,2.787a9.512,9.512,0,0,0-13.454,0Z" transform="translate(157.474 160.132)"/><path class="w" d="M17.106,2.342,2.343,17.1a8,8,0,0,0,0,11.312l3.321,3.321a8,8,0,0,0,11.312,0L31.739,16.974a8,8,0,0,0,0-11.312l-3.321-3.32a8,8,0,0,0-11.312,0Z" transform="translate(162.254 164.913)"/><path class="x" d="M5.456,1.548,1.548,5.456a5.283,5.283,0,0,0,0,7.472l7.159,7.159a5.283,5.283,0,0,0,7.473,0l3.908-3.908a5.283,5.283,0,0,0,0-7.472L12.929,1.548a5.283,5.283,0,0,0-7.473,0Z" transform="translate(168.476 171.134)"/></g></g></svg>