<svg xmlns="http://www.w3.org/2000/svg" width="18.689" height="18.689" viewBox="0 0 18.689 18.689"><defs><style>.a{fill:#3f8f22;}</style></defs><g transform="translate(-26 -196.311)"><path class="a" d="M9.344,0a9.344,9.344,0,1,0,9.344,9.344A9.345,9.345,0,0,0,9.344,0Zm0,17.481c-4.645,0-7.859-3.492-7.859-8.137A7.6,7.6,0,0,1,9.344,1.36a7.739,7.739,0,0,1,8.03,7.985A7.872,7.872,0,0,1,9.344,17.481Z" transform="translate(26 196.311)"/><path class="a" d="M208.071,198.541H207.3v-6.074c0-.258-.374-.467-.632-.467h-.935a.467.467,0,0,0,0,.934h.32v5.607h-.788a.489.489,0,0,0-.492.467.594.594,0,0,0,.492.577h2.8c.258,0,.463-.319.463-.577A.464.464,0,0,0,208.071,198.541Zm0,0" transform="translate(-171.325 11.319)"/><path class="a" d="M232.747,103.573a1.174,1.174,0,1,1-1.174-1.174A1.174,1.174,0,0,1,232.747,103.573Zm0,0" transform="translate(-196.468 97.65)"/></g></svg>