<svg xmlns="http://www.w3.org/2000/svg" width="19.472" height="21.666" viewBox="0 0 19.472 21.666"><defs><style>.a{fill:#5b5353;}.b{fill:#ffd54f;}.c{fill:silver;}.d{fill:#758f9b;}.e{fill:#469a09;}.f{fill:#fff;}.g{fill:#e0e0e0;}</style></defs><g transform="translate(-4.769 -5.004)"><path class="a" d="M231.766,95.576a2.991,2.991,0,0,1-2.129-.882l-.526-.526a3.01,3.01,0,0,1,0-4.257l4.229-4.229a3.01,3.01,0,0,1,4.257,0l.526.526a3.014,3.014,0,0,1,0,4.257h0l-4.229,4.229A2.991,2.991,0,0,1,231.766,95.576Zm3.7-8.888a1.119,1.119,0,0,0-.794.328l-4.229,4.229a1.124,1.124,0,0,0,0,1.587l.526.526a1.122,1.122,0,0,0,1.587,0l4.229-4.229h0a1.124,1.124,0,0,0,0-1.587l-.526-.526A1.119,1.119,0,0,0,235.468,86.689Z" transform="translate(-214.763 -79.796)"/><path class="b" d="M255.909,104l-.293-.293-1.335,1.335.293.293a1.124,1.124,0,0,1,0,1.587h0l-4.229,4.229a1.122,1.122,0,0,1-1.587,0l-.293-.293-1.335,1.335.293.293a3.01,3.01,0,0,0,4.257,0l4.229-4.229h0A3.014,3.014,0,0,0,255.909,104Z" transform="translate(-232.548 -97.586)"/><path class="b" d="M84.369,243a2.991,2.991,0,0,1-2.129-.882l-.526-.526a3.014,3.014,0,0,1,0-4.257l4.229-4.229a3.011,3.011,0,0,1,4.257,0l.526.526a3.014,3.014,0,0,1,0,4.257L86.5,242.116A2.991,2.991,0,0,1,84.369,243Zm3.7-8.888a1.119,1.119,0,0,0-.794.328l-4.229,4.229a1.124,1.124,0,0,0,0,1.587l.526.526a1.124,1.124,0,0,0,1.587,0l4.229-4.229h0a1.124,1.124,0,0,0,0-1.587l-.526-.526A1.119,1.119,0,0,0,88.071,234.11Z" transform="translate(-76.064 -218.519)"/><path class="a" d="M255.909,104l-.293-.293-1.335,1.335.293.293a1.124,1.124,0,0,1,0,1.587h0l-4.229,4.229a1.122,1.122,0,0,1-1.587,0l-.293-.293-1.335,1.335.293.293a3.01,3.01,0,0,0,4.257,0l4.229-4.229h0A3.014,3.014,0,0,0,255.909,104Z" transform="translate(-232.549 -97.586)"/><path class="a" d="M84.369,243a2.991,2.991,0,0,1-2.129-.882l-.526-.526a3.014,3.014,0,0,1,0-4.257l4.229-4.229a3.011,3.011,0,0,1,4.257,0l.526.526a3.014,3.014,0,0,1,0,4.257L86.5,242.116A2.991,2.991,0,0,1,84.369,243Zm3.7-8.888a1.119,1.119,0,0,0-.794.328l-4.229,4.229a1.124,1.124,0,0,0,0,1.587l.526.526a1.124,1.124,0,0,0,1.587,0l4.229-4.229h0a1.124,1.124,0,0,0,0-1.587l-.526-.526A1.119,1.119,0,0,0,88.071,234.11Z" transform="translate(-76.064 -218.519)"/><path class="a" d="M108.2,251.124l-1.335,1.335.293.293a1.124,1.124,0,0,1,0,1.587h0l-4.229,4.229a1.124,1.124,0,0,1-1.587,0l-.293-.293-1.335,1.335.293.293a3.01,3.01,0,0,0,4.257,0l4.229-4.229a3.014,3.014,0,0,0,0-4.257Z" transform="translate(-93.829 -236.307)"/><rect class="c" width="1.888" height="6.263" transform="translate(12.896 17.718) rotate(-135)"/><rect class="d" width="1.009" height="6.263" transform="translate(16.611 12.576) rotate(45)"/><path class="e" d="M4.6,0A4.6,4.6,0,1,1,0,4.6,4.6,4.6,0,0,1,4.6,0Z" transform="translate(10.475 17.475)"/><path class="e" d="M260.251,300.768a4.6,4.6,0,0,0-4.585-4.6v9.194A4.6,4.6,0,0,0,260.251,300.768Z" transform="translate(-240.581 -278.696)"/><path class="f" d="M208.261,322.943H205.9v-2.36h-1.593v2.36h-2.36v1.593h2.36v2.36H205.9v-2.36h2.36Z" transform="translate(-190.032 -301.667)"/><path class="g" d="M256.451,322.943v-2.36h-.784V326.9h.784v-2.36h2.36v-1.593Z" transform="translate(-240.582 -301.667)"/></g></svg>