<svg xmlns="http://www.w3.org/2000/svg" viewBox="0 0 27.18714 27.01219"><defs><style>.a{fill:#cbcac7;opacity:0.762;isolation:isolate;}.b{fill:#f0efeb;}.c{fill:#ee0005;}.d{fill:#f9a000;}.e{fill:#ff6300;}.f{fill:#171614;}</style></defs><path class="a" d="M13.933.513A13.249,13.249,0,1,1,.684,13.762h0A13.249,13.249,0,0,1,13.933.513Z" transform="translate(0.00514 0.00119)"/><path class="b" d="M25.644,12.822A12.822,12.822,0,0,1,2.786,20.8q-.258-.324-.5-.665A12.822,12.822,0,1,1,25.64,12.82Z" transform="translate(0.00514 0.00119)"/><circle class="c" cx="8.72114" cy="10.57119" r="6.609"/><circle class="d" cx="16.93214" cy="10.57119" r="6.609"/><path class="e" d="M10.318,10.57a6.6,6.6,0,0,0,2.5,5.179,6.609,6.609,0,0,0,0-10.358A6.6,6.6,0,0,0,10.318,10.57Z" transform="translate(0.00514 0.00119)"/><path class="f" d="M4.716,19.163a.8.8,0,0,0-.712.472.677.677,0,0,0-.619-.472.7.7,0,0,0-.627.359v-.17c0-.094-.1-.16-.222-.16-.146,0-.245.066-.245.16v.786q.237.341.5.665v-.71a.45.45,0,0,1,.407-.48919l.032-.0018a.456.456,0,0,1,.43973.47171L3.669,20.088v1.18c0,.113.132.16.245.16s.25-.047.25-.16V20.083a.444.444,0,1,1,.883.009v1.171c0,.08.118.165.245.165s.25-.085.25-.165V20.092a.849.849,0,0,0-.765-.92545Q4.74659,19.1637,4.716,19.163Z" transform="translate(0.00514 0.00119)"/><path class="f" d="M6.75,19.163c-.321,0-.713.132-.713.3,0,.113.062.25.18.25.094,0,.18-.142.524-.142a.46.46,0,0,1,.467.51v.085H7c-.656,0-1.1.142-1.1.675a.57995.57995,0,0,0,.627.623.925.925,0,0,0,.713-.368v.165c0,.09.1.165.227.165s.241-.075.241-.165V20.076a.859.859,0,0,0-.958-.913Zm.458,1.453a.549.549,0,0,1-.505.472.28.28,0,0,1-.307-.307c0-.3.335-.34.693-.34h.118Z" transform="translate(0.00514 0.00119)"/><path class="f" d="M8.572,19.819c0-.118.1-.274.382-.274s.411.137.51.137c.118,0,.189-.17.189-.241,0-.151-.354-.278-.708-.278-.595,0-.807.354-.807.679,0,.783,1.138.491,1.138.986,0,.127-.09.255-.4.255-.406,0-.5-.217-.627-.217-.1,0-.17.137-.17.222,0,.179.345.377.812.377.533,0,.831-.255.831-.656C9.718,19.964,8.572,20.234,8.572,19.819Z" transform="translate(0.00514 0.00119)"/><path class="f" d="M11.101,21.003h-.165c-.245,0-.33-.085-.33-.312V19.559h.576c.085,0,.137-.09.137-.184s-.052-.184-.137-.184h-.576v-.864c0-.094-.128-.16-.25-.16s-.245.066-.245.16v2.364c0,.514.288.736.826.736h.165a.212.212,0,1,0,0-.424Z" transform="translate(0.00514 0.00119)"/><path class="f" d="M13.267,20.885c-.128,0-.241.18-.576.18-.364,0-.614-.2-.614-.514v-.109h1c.212,0,.43-.014.43-.406a.9.9,0,0,0-.92577-.87347L12.568,19.163a.957.957,0,0,0-.982.915v.449a.978.978,0,0,0,1.0088.9462q.04573-.00147.0912-.0072c.476,0,.783-.217.783-.358C13.461,21.022,13.385,20.885,13.267,20.885Zm-1.19-.9a.48.48,0,0,1,.958.009c0,.113-.038.141-.175.141h-.783v-.15Z" transform="translate(0.00514 0.00119)"/><path class="f" d="M15.122,19.163h-.151a.7.7,0,0,0-.6.4v-.208c0-.094-.1-.16-.227-.16-.141,0-.241.066-.241.16v1.908c0,.08.1.165.241.165s.255-.085.255-.165v-.968a.63.63,0,0,1,.56-.69293l.011-.00107h.151a.222.222,0,0,0,0-.439Z" transform="translate(0.00514 0.00119)"/><path class="f" d="M17.043,20.871c-.108,0-.184.156-.5.156a.456.456,0,0,1-.524-.5v-.425a.45694.45694,0,0,1,.519-.5c.3,0,.387.146.486.146.118,0,.2-.146.2-.241,0-.165-.293-.344-.722-.344a.87791.87791,0,0,0-.977.939v.425a.87495.87495,0,0,0,.981.939c.434,0,.746-.193.746-.359A.235.235,0,0,0,17.043,20.871Z" transform="translate(0.00514 0.00119)"/><path class="f" d="M18.327,19.163c-.321,0-.713.132-.713.3,0,.113.062.25.18.25.095,0,.18-.142.524-.142a.46.46,0,0,1,.467.51v.085h-.208c-.656,0-1.1.142-1.1.675a.58.58,0,0,0,.627.623.924.924,0,0,0,.713-.368v.165c0,.09.1.165.227.165s.241-.075.241-.165V20.076a.859.859,0,0,0-.958-.913Zm.458,1.453a.549.549,0,0,1-.505.472.28.28,0,0,1-.307-.307c0-.3.335-.34.693-.34h.118v.175Z" transform="translate(0.00514 0.00119)"/><path class="f" d="M21.002,19.163h-.151a.7.7,0,0,0-.6.4v-.208c0-.094-.1-.16-.227-.16-.142,0-.241.066-.241.16v1.908c0,.08.1.165.241.165s.255-.085.255-.165v-.968a.63.63,0,0,1,.56-.69293l.011-.00107h.151a.222.222,0,0,0,0-.439Z" transform="translate(0.00514 0.00119)"/><path class="f" d="M23.107,17.86c-.141,0-.25.066-.25.16v1.5a.7.7,0,0,0-.613-.358.9.9,0,0,0-.845.929v.434a.919.919,0,0,0,.831.939h.065a12.8539,12.8539,0,0,0,1.058-1.325V18.022C23.353,17.926,23.249,17.86,23.107,17.86Zm-.25,2.775a.536.536,0,0,1-.486.392.505.505,0,0,1-.476-.5v-.434a.5.5,0,0,1,.481-.491.482.482,0,0,1,.48108.48294L22.857,20.093Z" transform="translate(0.00514 0.00119)"/></svg>