<svg xmlns="http://www.w3.org/2000/svg" xmlns:xlink="http://www.w3.org/1999/xlink" width="21.096" height="23.229" viewBox="0 0 21.096 23.229"><defs><style>.a{fill:#469a09;}.b{filter:url(#e);}.c{filter:url(#c);}.d{filter:url(#a);}</style><filter id="a" x="4.974" y="5.789" width="8.873" height="8.873" filterUnits="userSpaceOnUse"><feOffset dx="-0.1" dy="-0.3" input="SourceAlpha"/><feGaussianBlur stdDeviation="0.5" result="b"/><feFlood flood-opacity="0.776"/><feComposite operator="in" in2="b"/><feComposite in="SourceGraphic"/></filter><filter id="c" x="12.223" y="0" width="8.873" height="8.873" filterUnits="userSpaceOnUse"><feOffset dx="-0.1" dy="-0.3" input="SourceAlpha"/><feGaussianBlur stdDeviation="0.5" result="d"/><feFlood flood-opacity="0.776"/><feComposite operator="in" in2="d"/><feComposite in="SourceGraphic"/></filter><filter id="e" x="0" y="14.356" width="8.873" height="8.873" filterUnits="userSpaceOnUse"><feOffset dx="-0.1" dy="-0.3" input="SourceAlpha"/><feGaussianBlur stdDeviation="0.5" result="f"/><feFlood flood-opacity="0.776"/><feComposite operator="in" in2="f"/><feComposite in="SourceGraphic"/></filter></defs><g transform="matrix(-0.995, 0.105, -0.105, -0.995, 21.054, 20.043)"><g class="d" transform="matrix(-0.99, -0.1, 0.1, -0.99, 18.84, 22.13)"><path class="a" d="M2.672,5.344A2.672,2.672,0,1,1,5.344,2.672,2.671,2.671,0,0,1,2.672,5.344Z" transform="matrix(-0.99, 0.1, -0.1, -0.99, 12.45, 12.9)"/></g><g class="c" transform="matrix(-0.99, -0.1, 0.1, -0.99, 18.84, 22.13)"><path class="a" d="M2.672,5.344A2.672,2.672,0,1,1,5.344,2.672,2.671,2.671,0,0,1,2.672,5.344Z" transform="matrix(-0.99, 0.1, -0.1, -0.99, 19.7, 7.11)"/></g><g class="b" transform="matrix(-0.99, -0.1, 0.1, -0.99, 18.84, 22.13)"><path class="a" d="M2.672,5.344A2.672,2.672,0,1,1,5.344,2.672,2.671,2.671,0,0,1,2.672,5.344Z" transform="matrix(-0.99, 0.1, -0.1, -0.99, 7.47, 21.47)"/></g></g></svg>