<svg xmlns="http://www.w3.org/2000/svg" viewBox="0 0 19.516 20.52989"><defs><style>.a{fill:#fff;}.b{fill:#facb78;}</style></defs><path class="a" d="M9.69968,17.91513a8.89807,8.89807,0,0,1-8.888-8.888c0-.52781-.03645-1.10317-.075-1.71231-.133-2.09942-.28374-4.479,1.02551-5.881C2.82332.28518,5.4738.13037,7.92662.13037c.325,0,.64291.00235.95032.00461.28562.00211.56117.00414.82274.00414.34838,0,.73493-.00856,1.14418-.01761.474-.0105.96406-.02134,1.47513-.02134,1.94968,0,4.35053.15213,5.621,1.33845,1.09779,1.01423.92722,3.24969.76226,5.41155-.0589.772-.11454,1.5011-.11454,2.177A8.89807,8.89807,0,0,1,9.69968,17.91513Z" transform="translate(0 -0.00017)"/><path class="b" d="M12.319.20017c-.51,0-.9995.01083-1.47292.02131-.40981.00907-.7969.01764-1.14638.01764-.26172,0-.53757-.002-.82349-.00414C8.56893.23271,8.2512.23037,7.92663.23037c-2.43119,0-5.056.151-6.09139,1.27167C.55543,2.87259.70472,5.22925.83644,7.30849c.03869.61077.07524,1.18767.07524,1.71864a8.788,8.788,0,0,0,17.576,0c0-.67967.05578-1.41066.11483-2.18457.16315-2.13814.33185-4.34908-.7308-5.33084C16.6268.34923,14.2503.20016,12.319.20017m0-.2c2.09934,0,4.42559.18538,5.68924,1.36537,1.52762,1.41133.67947,5.06047.67947,7.66159a8.988,8.988,0,0,1-17.976,0c0-2.36283-.74339-5.81882.97738-7.66159C2.80612.15642,5.54381.03037,7.92663.03037c.62768,0,1.23072.00875,1.77305.00875C10.44224.03912,11.35685.00017,12.319.00017Z" transform="translate(0 -0.00017)"/><path class="b" d="M19.516,10.191v8.511a1.971,1.971,0,0,1-2.091,1.824H2.091A1.971,1.971,0,0,1,0,18.701v-8.51a1.54994,1.54994,0,0,1,.132-.608L8.6,14.507a2.35,2.35,0,0,0,2.314,0l8.468-4.924a1.54994,1.54994,0,0,1,.132.608Z" transform="translate(0 -0.00017)"/></svg>