<svg xmlns="http://www.w3.org/2000/svg" width="13.744" height="13.754" viewBox="0 0 13.744 13.754"><g transform="translate(-211 -274.212)"><path d="M7.6,7.4a1.073,1.073,0,1,1-1.61-.929V3.514H7.065V6.476A1.074,1.074,0,0,1,7.6,7.4Zm6.339,2.978L8.433,13.754V7.01ZM9.506,11.839l2.38-1.457L9.506,8.925ZM1.27,7.4a5.258,5.258,0,0,1,10.516,0q0,.2-.015.392l1.008.617A6.415,6.415,0,0,0,12.86,7.4a6.29,6.29,0,0,0-1.854-4.477c-.045-.045-.091-.089-.137-.132l.445-.533.728.607.687-.824L10.448.143,9.76.967l.728.607-.46.552A6.269,6.269,0,0,0,7.065,1.1V0H5.992V1.1a6.331,6.331,0,0,0-3.94,10.785,6.29,6.29,0,0,0,4.477,1.854,6.429,6.429,0,0,0,.832-.054V12.6A5.259,5.259,0,0,1,1.27,7.4Z" transform="translate(210.803 274.212)"/><path d="M11.715,2.87l-.539-.608-.728.608L9.76,2.046l2.281-1.9.687.824L12,1.575l.495.687Z" transform="translate(201.439 274.157)"/></g></svg>