<svg xmlns="http://www.w3.org/2000/svg" viewBox="0 0 115 116"><defs><style>.a{fill:#d9d9d9;}.b{fill:#f9f4ed;}.c{fill:#5b5353;}.d{fill:#707070;}.e{fill:#469a09;}.f{fill:#bf2604;}.g{fill:#656565;}.h{fill:#ff5352;}</style></defs><path class="a" d="M113,82a2,2,0,1,1-2,2A2,2,0,0,1,113,82Z"/><path class="a" d="M110,32a2,2,0,1,1-2,2A2,2,0,0,1,110,32Z"/><path class="b" d="M110,36.5a2.5,2.5,0,1,1,2.5-2.5A2.50263,2.50263,0,0,1,110,36.5Zm0-4a1.5,1.5,0,1,0,1.5,1.5A1.50164,1.50164,0,0,0,110,32.5Z"/><path class="c" d="M106.5,12a7.263,7.263,0,0,1,7.5,7,7.51786,7.51786,0,0,1-15,0A7.263,7.263,0,0,1,106.5,12Z"/><path class="c" d="M104,112a2,2,0,1,1-2,2A2,2,0,0,1,104,112Z"/><path class="c" d="M84,10a2,2,0,1,1-2,2A2,2,0,0,1,84,10Z"/><path class="a" d="M35,108a2,2,0,1,1-2,2A2,2,0,0,1,35,108Z"/><path class="a" d="M19,0a2,2,0,1,1-2,2A2,2,0,0,1,19,0Z"/><path class="d" d="M10.446,101.637a5.223,5.223,0,1,1-5.223,5.223h0a5.221,5.221,0,0,1,5.219-5.223Z"/><path class="c" d="M2,25a2,2,0,1,1-2,2A2,2,0,0,1,2,25Z"/><path class="e" d="M89.311,115.999a1.3,1.3,0,0,1-.807-.279L70.579,101.636H47.267a1.306,1.306,0,1,1-.07254-2.611q.03625-.001.07254,0H71.031a1.306,1.306,0,0,1,.807.279l16.168,12.7V100.331a1.306,1.306,0,0,1,1.306-1.306h9.226a5.143,5.143,0,0,0,5.137-5.137V51.933a5.143,5.143,0,0,0-5.137-5.137h-13.4a1.306,1.306,0,1,1-.072-2.611q.036-.001.072,0h13.4a7.757,7.757,0,0,1,7.748,7.748V93.885a7.757,7.757,0,0,1-7.748,7.748h-7.92V114.69a1.306,1.306,0,0,1-1.305,1.306Z"/><path class="e" d="M24.808,99.025a1.306,1.306,0,0,1-1.305-1.306V84.662H15.582a7.757,7.757,0,0,1-7.748-7.751V34.959a7.757,7.757,0,0,1,7.748-7.748h8.182a1.306,1.306,0,0,1,0,2.611H15.582a5.143,5.143,0,0,0-5.137,5.137V76.911a5.143,5.143,0,0,0,5.137,5.137h9.226a1.306,1.306,0,0,1,1.306,1.306V95.03l16.168-12.7a1.30588,1.30588,0,0,1,.807-.279h35.6a5.143,5.143,0,0,0,5.137-5.137V34.959a5.143,5.143,0,0,0-5.137-5.137h-7.92a1.306,1.306,0,1,1-.072-2.611q.036-.001.072,0h7.92a7.757,7.757,0,0,1,7.748,7.748V76.911a7.757,7.757,0,0,1-7.748,7.748H43.539L25.615,98.746a1.3,1.3,0,0,1-.806.279Z"/><path class="f" d="M47.267,53.325A24.809,24.809,0,1,1,72.076,28.516,24.809,24.809,0,0,1,47.267,53.325Zm0-47.006a22.2,22.2,0,1,0,22.2,22.2h0A22.222,22.222,0,0,0,47.267,6.319Z"/><path class="c" d="M106.416,27.211a8.487,8.487,0,1,1,8.487-8.487h0A8.5,8.5,0,0,1,106.416,27.211Zm0-14.363a5.876,5.876,0,1,0,5.876,5.876A5.876,5.876,0,0,0,106.416,12.848Z"/><path class="g" d="M10.446,113.388a6.529,6.529,0,1,1,6.529-6.529h0A6.536,6.536,0,0,1,10.446,113.388Zm0-10.446a3.917,3.917,0,1,0,3.917,3.917h0A3.922,3.922,0,0,0,10.446,102.942Z"/><path class="e" d="M50.923,62.465H18.28a1.306,1.306,0,1,1-.07254-2.611q.03625-.001.07254,0H50.923a1.306,1.306,0,1,1,.07254,2.611Q50.95929,62.466,50.923,62.465Z"/><path class="e" d="M66.591,67.688H18.28a1.306,1.306,0,1,1-.07254-2.611q.03625-.001.07254,0H66.591a1.306,1.306,0,1,1,.07254,2.611Q66.62729,67.689,66.591,67.688Z"/><path class="e" d="M66.591,72.911H18.28a1.306,1.306,0,0,1-.07254-2.611q.03625-.001.07254,0H66.591a1.306,1.306,0,0,1,.07254,2.611Q66.62729,72.912,66.591,72.911Z"/><path class="h" d="M34.533,21.337l5.14-5.14,7.711,7.711,7.711-7.711,5.14,5.14-7.711,7.711,7.711,7.711-5.14,5.14-7.711-7.711-7.711,7.709-5.14-5.14,7.711-7.711Z"/><path class="c" d="M62.332,21.337,55.095,14.1l-7.711,7.706-7.711-7.711-7.237,7.237,7.711,7.711-7.711,7.711,7.237,7.237,7.711-7.711,7.711,7.711,7.237-7.237-7.711-7.711Zm-4.19,15.422-3.044,3.044-7.711-7.711-7.711,7.711-3.044-3.044,7.711-7.711-7.711-7.711,3.044-3.044,7.711,7.711,7.711-7.711,3.044,3.044-7.711,7.711Z"/></svg>