<svg xmlns="http://www.w3.org/2000/svg" viewBox="0 0 114.29098 87.83199"><defs><style>.a{fill:#cbe3fa;}.b{fill:#eef7ff;}.c{fill:#ff6d7a;}.d{fill:#ffebd2;}.e{fill:#fff3e4;}.f{fill:#ffbd7b;}.g{fill:#ff8c95;}.h{fill:#ff5352;}</style></defs><path class="a" d="M107.376,12.625h-89.9a5.188,5.188,0,0,0-5.183,5.186v63.1a5.188,5.188,0,0,0,5.186,5.186h89.9a5.188,5.188,0,0,0,5.186-5.186v-63.1A5.188,5.188,0,0,0,107.376,12.625Z" transform="translate(-0.00002 0.005)"/><path class="b" d="M112.562,17.811v3.458H82.309A61.372,61.372,0,0,0,20.937,82.641a3.457,3.457,0,0,1-3.456,3.458h-.002a5.186,5.186,0,0,1-5.186-5.186V17.812a5.186,5.186,0,0,1,5.185-5.187h89.901A5.186,5.186,0,0,1,112.562,17.811Z" transform="translate(-0.00002 0.005)"/><path class="c" d="M107.376,12.625H76.69V86.098h30.686a5.188,5.188,0,0,0,5.186-5.186v-63.1A5.188,5.188,0,0,0,107.376,12.625Z" transform="translate(-0.00002 0.005)"/><path class="b" d="M102.189,60.599V72.27a1.729,1.729,0,0,1-1.729,1.729H88.791a1.729,1.729,0,0,1-1.729-1.729h0V60.599a1.729,1.729,0,0,1,1.729-1.729h11.671A1.729,1.729,0,0,1,102.189,60.599Z" transform="translate(-0.00002 0.005)"/><path class="d" d="M27.997,31.201l30.5,2.531a43.466,43.466,0,0,1-24.8,30.88l-9.273-28.91A3.457,3.457,0,0,1,28,31.202Z" transform="translate(-0.00002 0.005)"/><path class="e" d="M43.097,35.43a61.66907,61.66907,0,0,0-11.675,12.9,1.729,1.729,0,0,1-3.083-.429L24.428,35.706a3.457,3.457,0,0,1,3.576-4.5l14.138,1.173a1.729,1.729,0,0,1,.955,3.051Z" transform="translate(-0.00002 0.005)"/><path class="f" d="M62.568,34.068a3.456,3.456,0,0,1,3.16328,3.7258q-.01194.1463-.03628.2912A43.479,43.479,0,0,1,39.636,70.869a3.457,3.457,0,0,1-4.5183-1.86725q-.05553-.13371-.0997-.27175l-1.32-4.119a43.465,43.465,0,0,0,24.8-30.88Z" transform="translate(-0.00002 0.005)"/><path class="g" d="M112.562,17.811a3.457,3.457,0,0,1-3.456,3.458H76.69V12.625h30.686a5.186,5.186,0,0,1,5.186,5.186Z" transform="translate(-0.00002 0.005)"/><path d="M107.376,10.896H17.479a6.923,6.923,0,0,0-6.915,6.915v63.1a6.923,6.923,0,0,0,6.915,6.915H76.69c.955,0,4.906-.6,3.06-2.268s-.377-1.189-62.271-1.189a3.462,3.462,0,0,1-3.458-3.458v-63.1a3.462,3.462,0,0,1,3.458-3.458h89.9a3.462,3.462,0,0,1,3.458,3.458v63.1a3.462,3.462,0,0,1-3.458,3.458c-66.394-.986-31.641,3.458-30.686,3.458h30.683a6.923,6.923,0,0,0,6.915-6.915v-63.1A6.923,6.923,0,0,0,107.376,10.896Z" transform="translate(-0.00002 0.005)"/><path d="M62.711,32.345c-4.354-.361-4.272-.392-4.678-.278a1.733,1.733,0,0,0-1.226,1.314c-9.959.717,3.047,2.2,5.618,2.41a1.725,1.725,0,0,1,1.5825,1.85659q-.00574.072-.0175.14341a41.76,41.76,0,0,1-25.021,31.48,1.726,1.726,0,0,1-2.25488-.93472q-.028-.06754-.05012-.13729L26.074,35.175a1.727,1.727,0,0,1,1.789-2.251L62.43,35.791c5.627.245-5.166-1.458-5.087-2.41s2.105-1.235,1.153-1.314L28.144,29.478a5.188,5.188,0,0,0-5.367,6.753L33.374,69.257a5.188,5.188,0,0,0,6.52489,3.35507q.2071-.06645.40811-.15007A45.219,45.219,0,0,0,67.4,38.374a5.188,5.188,0,0,0-4.25531-5.97686q-.2146-.03612-.43168-.05414Z" transform="translate(-0.00002 0.005)"/><path d="M36.284,40.486a1.728,1.728,0,1,0-1.934,1.033A1.728,1.728,0,0,0,36.284,40.486Z" transform="translate(-0.00002 0.005)"/><path d="M37.318,52.409c.153,0-.023.014,3.19-.349a1.729,1.729,0,1,0-.34407-3.44084L40.121,48.624l-2.994.338a1.729,1.729,0,0,0,.191,3.447Z" transform="translate(-0.00002 0.005)"/><path d="M42.231,42.185a1.72905,1.72905,0,1,0,.216-2.183A1.729,1.729,0,0,0,42.231,42.185Z" transform="translate(-0.00002 0.005)"/><path d="M87.063,32.722H102.19a1.729,1.729,0,0,0,0-3.458H87.063a1.729,1.729,0,1,0-.00715,3.458Z" transform="translate(-0.00002 0.005)"/><path d="M87.063,46.12h10.8a1.729,1.729,0,1,0,.00714-3.458H87.063a1.729,1.729,0,1,0-.00715,3.458Z" transform="translate(-0.00002 0.005)"/><path d="M85.334,73.997a1.729,1.729,0,0,0,1.729,1.729H102.19a1.729,1.729,0,0,0,1.729-1.729h0V58.87a1.729,1.729,0,0,0-1.729-1.729H87.063a1.729,1.729,0,0,0-1.729,1.729h0Zm3.458-13.4h11.669V72.266H88.792Z" transform="translate(-0.00002 0.005)"/><path class="h" d="M2.097,7.237l5.14-5.14,7.711,7.711,7.711-7.711,5.14,5.14-7.711,7.711,7.711,7.711-5.14,5.14-7.711-7.711L7.237,27.797l-5.14-5.14,7.711-7.711Z" transform="translate(-0.00002 0.005)"/><path d="M29.896,7.237,22.659,0,14.948,7.706,7.237-.005,0,7.232l7.711,7.711L0,22.654l7.237,7.237,7.711-7.711,7.711,7.711,7.237-7.237-7.711-7.711Zm-4.19,15.422-3.044,3.044-7.711-7.711L7.24,25.703,4.196,22.659l7.711-7.711L4.196,7.237,7.24,4.193l7.711,7.711,7.711-7.711,3.044,3.044-7.711,7.711Z" transform="translate(-0.00002 0.005)"/></svg>