<svg xmlns="http://www.w3.org/2000/svg" viewBox="0 0 113.18098 111.84102"><defs><style>.a{fill:#cef;}.b{fill:#ff405c;}.c{fill:#fff;}.d{fill:#00215a;}.e{fill:#004db6;}.f{fill:#192b80;}.g{fill:#0089ff;}.h{fill:#295fcc;}.i{fill:#ffa64d;}.j{fill:#f93;}.k{fill:#7affe4;}.l{fill:#00ecce;}.m{fill:#fc9;}.n{fill:#ffb366;}.o{fill:#ff9100;}.p{fill:#ff641a;}.q{fill:#ffda2d;}.r{fill:#fdbf00;}.s{fill:#c1126b;}.t{fill:#ff5352;}</style></defs><path class="a" d="M103.114,87.441H18.066a6.986,6.986,0,0,1-6.986-6.986h0V16.962a6.986,6.986,0,0,1,6.986-6.986h85.048a6.986,6.986,0,0,1,6.986,6.986h0V80.455a6.986,6.986,0,0,1-6.986,6.986Z" transform="translate(-0.00002 0.005)"/><path class="b" d="M103.114,9.976H60.579V87.441h42.535a6.986,6.986,0,0,0,6.986-6.986V16.962A6.986,6.986,0,0,0,103.114,9.976Z" transform="translate(-0.00002 0.005)"/><path class="c" d="M11.08,48.706v31.75a6.986,6.986,0,0,0,6.986,6.986h85.048a6.986,6.986,0,0,0,6.986-6.986V48.706Z" transform="translate(-0.00002 0.005)"/><path class="d" d="M60.579,48.706V87.439h42.535a6.986,6.986,0,0,0,6.986-6.986h0V48.706Z" transform="translate(-0.00002 0.005)"/><path class="e" d="M43.534,108.772l3.349-21.331H74.175l3.006,21.329Z" transform="translate(-0.00002 0.005)"/><path class="f" d="M60.579,108.773h16.6L74.173,87.444h-13.6Z" transform="translate(-0.00002 0.005)"/><path class="g" d="M84.955,111.836H36.225a3.08051,3.08051,0,1,1,0-6.161h48.73a3.08051,3.08051,0,0,1,0,6.161Z" transform="translate(-0.00002 0.005)"/><path class="h" d="M84.955,105.675H60.579v6.161H84.955a3.08051,3.08051,0,0,0,0-6.161Z" transform="translate(-0.00002 0.005)"/><circle class="i" cx="84.62098" cy="65.645" r="7.112"/><path class="j" d="M84.621,58.528V72.751a7.112,7.112,0,1,0,.16934-14.223q-.08467-.001-.16934,0Z" transform="translate(-0.00002 0.005)"/><path class="k" d="M89.237,73.851H79.906a7.179,7.179,0,0,0-7.123,7.179v1.612a1.88,1.88,0,0,0,1.88,1.88H94.537a1.88,1.88,0,0,0,1.88-1.88h0V81.03A7.18,7.18,0,0,0,89.237,73.851Z" transform="translate(-0.00002 0.005)"/><path class="l" d="M89.237,73.851H84.621V84.524h9.917a1.88,1.88,0,0,0,1.88-1.88h0V81.032a7.18,7.18,0,0,0-7.179-7.181Z" transform="translate(-0.00002 0.005)"/><circle class="m" cx="36.68698" cy="65.645" r="7.112"/><path class="n" d="M36.692,58.528V72.751a7.112,7.112,0,0,0,.16935-14.223q-.08469-.001-.16935,0Z" transform="translate(-0.00002 0.005)"/><path class="o" d="M41.302,73.851h-9.33a7.179,7.179,0,0,0-7.123,7.179v1.612a1.88,1.88,0,0,0,1.88,1.88H46.602a1.88,1.88,0,0,0,1.88-1.88h0V81.03A7.18,7.18,0,0,0,41.302,73.851Z" transform="translate(-0.00002 0.005)"/><path class="p" d="M41.303,73.851H36.687V84.524h9.916a1.88,1.88,0,0,0,1.88-1.88h0V81.032a7.18,7.18,0,0,0-7.179-7.181Z" transform="translate(-0.00002 0.005)"/><circle class="i" cx="84.62098" cy="29.827" r="7.112"/><path class="j" d="M84.621,22.711V36.933a7.112,7.112,0,0,0,0-14.223Z" transform="translate(-0.00002 0.005)"/><path class="q" d="M89.237,38.033H79.906a7.179,7.179,0,0,0-7.123,7.179v1.612a1.88,1.88,0,0,0,1.88,1.88H94.537a1.88,1.88,0,0,0,1.88-1.88h0V45.216a7.18,7.18,0,0,0-7.177-7.183Z" transform="translate(-0.00002 0.005)"/><path class="r" d="M89.237,38.033H84.621V48.706h9.917a1.88,1.88,0,0,0,1.88-1.88h0v-1.61a7.18,7.18,0,0,0-7.177-7.183Z" transform="translate(-0.00002 0.005)"/><circle class="m" cx="36.68698" cy="29.827" r="7.112"/><path class="n" d="M36.692,22.711V36.933a7.112,7.112,0,0,0,0-14.223Z" transform="translate(-0.00002 0.005)"/><path class="b" d="M41.302,38.033h-9.33a7.179,7.179,0,0,0-7.123,7.179v1.612a1.88,1.88,0,0,0,1.88,1.88H46.602a1.88,1.88,0,0,0,1.88-1.88h0V45.216a7.18,7.18,0,0,0-7.177-7.183Z" transform="translate(-0.00002 0.005)"/><path class="s" d="M41.303,38.033H36.687V48.706h9.916a1.88,1.88,0,0,0,1.88-1.88h0v-1.61a7.18,7.18,0,0,0-7.177-7.183Z" transform="translate(-0.00002 0.005)"/><path class="g" d="M103.929,90.522H17.252A9.252,9.252,0,0,1,8,81.27V16.148a9.252,9.252,0,0,1,9.252-9.252h86.677a9.252,9.252,0,0,1,9.252,9.252V81.27A9.253,9.253,0,0,1,103.929,90.522ZM17.252,13.057a3.092,3.092,0,0,0-3.091,3.091V81.269a3.092,3.092,0,0,0,3.092,3.092h86.676a3.092,3.092,0,0,0,3.092-3.092h0V16.148a3.092,3.092,0,0,0-3.092-3.092H17.252Z" transform="translate(-0.00002 0.005)"/><path class="h" d="M104.704,6.896H60.579v6.161h44.125a2.316,2.316,0,0,1,2.316,2.316h0v65.7a3.285,3.285,0,0,1-3.285,3.285H60.579v6.161h44.125a8.476,8.476,0,0,0,8.476-8.476h0V15.372a8.476,8.476,0,0,0-8.476-8.476Z" transform="translate(-0.00002 0.005)"/><path class="t" d="M2.097,7.237l5.14-5.14,7.711,7.711,7.711-7.711,5.14,5.14-7.711,7.711,7.711,7.711-5.14,5.14-7.711-7.711L7.237,27.797l-5.14-5.14,7.711-7.711Z" transform="translate(-0.00002 0.005)"/><path d="M29.896,7.237,22.659,0,14.948,7.706,7.237-.005,0,7.232l7.711,7.711L0,22.654l7.237,7.237,7.711-7.711,7.711,7.711,7.237-7.237-7.711-7.711Zm-4.19,15.422-3.044,3.044-7.711-7.711L7.24,25.703,4.196,22.659l7.711-7.711L4.196,7.237,7.24,4.193l7.711,7.711,7.711-7.711,3.044,3.044-7.711,7.711Z" transform="translate(-0.00002 0.005)"/></svg>