<svg xmlns="http://www.w3.org/2000/svg" viewBox="0 0 100.7489 100.74892"><defs><style>.a{fill:#fdd844;}.b{fill:#d8d7da;}.c{fill:#4a8cff;}.d{fill:#ff5352;}.e{fill:#fff;}</style></defs><circle class="a" cx="50.37545" cy="50.37546" r="49.13"/><path class="b" d="M19.672,48.043H57.335L55.358,68.209H23.872Z" transform="translate(-0.23755 -0.23754)"/><circle class="c" cx="29.76145" cy="83.76246" r="4"/><circle class="c" cx="49.76145" cy="83.76246" r="4"/><path d="M86.4,14.824a50.613,50.613,0,1,0,0,71.0989A50.613,50.613,0,0,0,86.4,14.824ZM50.613,98.261A47.648,47.648,0,1,1,98.261,50.613,47.648,47.648,0,0,1,50.613,98.261Z" transform="translate(-0.23755 -0.23754)"/><path class="d" d="M57.533,22.341l5.14-5.14,7.711,7.711,7.711-7.711,5.14,5.14-7.711,7.711,7.711,7.711-5.14,5.14-7.711-7.711-7.711,7.709-5.14-5.14,7.711-7.711Z" transform="translate(-0.23755 -0.23754)"/><path d="M85.332,22.341l-7.237-7.237L70.384,22.81l-7.711-7.711-7.237,7.237,7.711,7.711-7.711,7.711,7.237,7.237,7.711-7.711,7.711,7.711,7.237-7.237-7.711-7.711Zm-4.19,15.422-3.044,3.044-7.711-7.711-7.711,7.711-3.044-3.044,7.711-7.711-7.711-7.711,3.044-3.044,7.711,7.711,7.711-7.711,3.044,3.044-7.711,7.711Z" transform="translate(-0.23755 -0.23754)"/><path d="M58.97,46.56H20.877l-1.444-6.93L8.943,37.879l-.488,2.925,8.489,1.415,6.959,33.4H57.335V72.653H26.315l-.618-2.966H56.703ZM28.964,66.726H25.079l-1.483-7.117h5.368Zm0-10.083H22.978l-1.483-7.117h7.469Zm8.9,10.083H31.93V59.609h5.931Zm0-10.083H31.93V49.526h5.931Zm8.9,10.083H40.827V59.609h5.931Zm0-10.083H40.827V49.526h5.931ZM54.02,66.726H49.73V59.609h4.988Zm.989-10.083H49.723V49.526H55.7Z" transform="translate(-0.23755 -0.23754)"/><path d="M30.052,78.391a5.437,5.437,0,1,0,5.437,5.437A5.437,5.437,0,0,0,30.052,78.391Zm0,7.908a2.471,2.471,0,1,1,2.471-2.471A2.471,2.471,0,0,1,30.052,86.299Z" transform="translate(-0.23755 -0.23754)"/><path d="M49.822,78.391a5.437,5.437,0,1,0,5.437,5.437A5.437,5.437,0,0,0,49.822,78.391Zm0,7.908a2.471,2.471,0,1,1,2.471-2.471A2.471,2.471,0,0,1,49.822,86.299Z" transform="translate(-0.23755 -0.23754)"/><path class="e" d="M35.404,8.785l1.012,2.788c.892-.324,1.808-.62,2.722-.882l-.815-2.852C37.343,8.12,36.361,8.438,35.404,8.785Z" transform="translate(-0.23755 -0.23754)"/><path class="e" d="M41.91,10.001a42.01276,42.01276,0,0,1,8.7-.907V6.129a44.98951,44.98951,0,0,0-9.314.971Z" transform="translate(-0.23755 -0.23754)"/><path class="e" d="M19.157,19.158l2.1,2.1a41.93358,41.93358,0,0,1,7.455-5.932l-1.569-2.517A44.91131,44.91131,0,0,0,19.157,19.158Z" transform="translate(-0.23755 -0.23754)"/><path class="e" d="M29.8,11.275l1.39,2.62c.839-.445,1.705-.867,2.573-1.252l-1.2-2.71C31.628,10.346,30.7,10.795,29.8,11.275Z" transform="translate(-0.23755 -0.23754)"/><path class="e" d="M95.019,47.961c-.06-1.018-.156-2.046-.285-3.054l-2.941.377c.121.941.21,1.9.266,2.852Z" transform="translate(-0.23755 -0.23754)"/><path class="e" d="M92.13,50.999c-.009.953-.05,1.916-.123,2.861l2.957.229c.078-1.012.123-2.043.132-3.063Z" transform="translate(-0.23755 -0.23754)"/><path class="e" d="M90.232,30.364l-2.64,1.352a41.23243,41.23243,0,0,1,3.739,10.742l2.908-.579A44.18617,44.18617,0,0,0,90.232,30.364Z" transform="translate(-0.23755 -0.23754)"/><path class="e" d="M76.731,82.891l1.867,2.3a44.81215,44.81215,0,0,0,6.733-6.765L83.018,76.57A41.86044,41.86044,0,0,1,76.731,82.891Z" transform="translate(-0.23755 -0.23754)"/><path class="e" d="M72.047,86.179l1.533,2.539c.872-.526,1.736-1.09,2.569-1.675l-1.7-2.427C73.667,85.162,72.861,85.688,72.047,86.179Z" transform="translate(-0.23755 -0.23754)"/><path class="e" d="M66.956,88.792l1.168,2.726c.936-.4,1.87-.84,2.776-1.306l-1.354-2.638C68.7,88.008,67.829,88.418,66.956,88.792Z" transform="translate(-0.23755 -0.23754)"/><rect class="e" x="72.91445" y="59.96446" width="2.966" height="2.966"/><rect class="e" x="78.84545" y="59.96446" width="2.966" height="2.966"/><rect class="e" x="66.98345" y="59.96446" width="2.966" height="2.966"/></svg>