<svg xmlns="http://www.w3.org/2000/svg" viewBox="0 0 103.31198 100.21301"><defs><style>.a{fill:#d9d9d9;}.b{fill:#5bd2de;}.c{fill:#00b55b;}.d{fill:#02c26a;}.e{fill:#ffd54f;}.f{fill:#ffc431;}.g{fill:#718799;}.h{fill:#d1e4ff;}.i{fill:#fa8669;}.j{fill:#7dafff;}.k{fill:#8be0e8;}.l{fill:#ff5352;}</style></defs><path class="a" d="M101.755,17.782V95.541a3.11,3.11,0,0,1-3.11,3.11H14.665a3.11,3.11,0,0,1-3.11-3.11h0V17.782Z" transform="translate(-0.00002 0.005)"/><path class="b" d="M20.886,39.555H92.424v38.88H20.886Z" transform="translate(-0.00002 0.005)"/><path class="c" d="M92.424,64.437,75.317,51.996,38.965,78.434H92.424Z" transform="translate(-0.00002 0.005)"/><path class="d" d="M76.873,78.434,39.548,48.886l-18.662,14V78.438Z" transform="translate(-0.00002 0.005)"/><path class="e" d="M11.555,17.782V11.561a3.11,3.11,0,0,1,3.11-3.11h83.98a3.11,3.11,0,0,1,3.11,3.11h0v6.221Z" transform="translate(-0.00002 0.005)"/><ellipse class="f" cx="22.49998" cy="28.901" rx="3.5" ry="3"/><path class="g" d="M44.214,59.772H69.097V70.658H44.214Z" transform="translate(-0.00002 0.005)"/><path class="h" d="M44.214,59.772V50.441H55.1l3.11,3.11H69.096v6.221Z" transform="translate(-0.00002 0.005)"/><path class="i" d="M20.886,86.855A2.2,2.2,0,0,1,24.641,85.3l.911.911.911-.911a2.2,2.2,0,0,1,3.11,3.11l-4.021,4.021L21.531,88.41A2.2,2.2,0,0,1,20.886,86.855Z" transform="translate(-0.00002 0.005)"/><circle class="j" cx="38.99998" cy="88.901" r="4"/><path class="j" d="M48.88,92.431V84.655l7.776,3.888Z" transform="translate(-0.00002 0.005)"/><circle class="k" cx="56.99998" cy="61.901" r="4"/><path d="M98.645,6.896H14.666A4.671,4.671,0,0,0,10,11.562v83.98a4.671,4.671,0,0,0,4.666,4.666h83.98a4.671,4.671,0,0,0,4.666-4.666V11.562A4.671,4.671,0,0,0,98.645,6.896Zm-83.98,3.11h83.98a1.557,1.557,0,0,1,1.555,1.555v4.666H13.11V11.562a1.557,1.557,0,0,1,1.555-1.555Zm83.98,87.09H14.666a1.557,1.557,0,0,1-1.555-1.555v-76.2H100.2v76.2A1.557,1.557,0,0,1,98.645,97.096Z" transform="translate(-0.00002 0.005)"/><circle cx="16.49998" cy="13.401" r="1.5"/><circle cx="20.49998" cy="13.401" r="1.5"/><circle cx="25.49998" cy="13.401" r="1.5"/><path d="M27.107,28.669a4.666,4.666,0,1,0-4.666,4.666,4.666,4.666,0,0,0,4.666-4.666Zm-6.221,0a1.555,1.555,0,1,1,1.555,1.555,1.555,1.555,0,0,1-1.555-1.555Z" transform="translate(-0.00002 0.005)"/><path d="M30.217,24.003h3.11v3.11h-3.11Z" transform="translate(-0.00002 0.005)"/><path d="M36.438,24.003H55.1v3.11H36.438Z" transform="translate(-0.00002 0.005)"/><path d="M30.217,30.224H41.103v3.11H30.217Z" transform="translate(-0.00002 0.005)"/><path d="M44.214,30.224h3.11v3.11h-3.11Z" transform="translate(-0.00002 0.005)"/><path d="M92.425,38H20.886a1.555,1.555,0,0,0-1.555,1.555v38.88a1.555,1.555,0,0,0,1.555,1.555H92.424a1.555,1.555,0,0,0,1.555-1.555V39.555A1.555,1.555,0,0,0,92.425,38ZM90.87,41.11V61.384L76.231,50.739a1.555,1.555,0,0,0-1.829,0L70.647,53.47A1.554,1.554,0,0,0,69.097,52H67.542a1.555,1.555,0,0,0-1.555-1.555h-3.11a1.555,1.555,0,0,0-1.556,1.554V52H58.855L56.2,49.345a1.555,1.555,0,0,0-1.1-.456H44.214a1.554,1.554,0,0,0-1.291.688L40.514,47.67a1.555,1.555,0,0,0-1.9-.025L22.441,59.773V41.11Zm-23.328,14v3.11H60.46a5.43,5.43,0,0,0-7.608,0H45.769V52h8.687l2.655,2.655a1.555,1.555,0,0,0,1.1.456Zm-8.554,7a2.333,2.333,0,1,1-2.333-2.333h0a2.333,2.333,0,0,1,2.333,2.328Zm-13.219-.778h5.5a5.443,5.443,0,1,0,10.773,0h5.5V69.1H45.769ZM22.441,63.66,39.523,50.85l3.136,2.483V70.66a1.555,1.555,0,0,0,1.555,1.555h22.3l5.893,4.666H22.441ZM77.414,76.879l-6.942-5.5a1.548,1.548,0,0,0,.18-.725V57.313l4.666-3.393L90.87,65.23V76.88Z" transform="translate(-0.00002 0.005)"/><path d="M28.018,83.101a3.72691,3.72691,0,0,0-2.466.923,3.755,3.755,0,0,0-5.121,5.486l4.021,4.021a1.555,1.555,0,0,0,2.1991.00088l.0009-.00088,4.021-4.022a3.755,3.755,0,0,0-2.655-6.408Zm.455,4.21-2.922,2.922-2.92-2.923a.64418.64418,0,0,1,.911-.911l.911.911a1.555,1.555,0,0,0,2.1991.00088L26.653,87.31l.911-.911a.64418.64418,0,0,1,.911.911h0Z" transform="translate(-0.00002 0.005)"/><path d="M38.771,83.1a5.443,5.443,0,1,0,5.443,5.443h0A5.443,5.443,0,0,0,38.771,83.1Zm0,7.776a2.333,2.333,0,1,1,2.333-2.333,2.333,2.333,0,0,1-2.333,2.333Z" transform="translate(-0.00002 0.005)"/><path d="M57.351,87.152l-7.776-3.888a1.555,1.555,0,0,0-2.251,1.391v7.776a1.555,1.555,0,0,0,2.251,1.391l7.776-3.888a1.555,1.555,0,0,0,0-2.782Zm-6.916,2.763V87.172l2.743,1.372Z" transform="translate(-0.00002 0.005)"/><path class="l" d="M2.097,7.237l5.14-5.14,7.711,7.711,7.711-7.711,5.14,5.14-7.711,7.711,7.711,7.711-5.14,5.14-7.711-7.711L7.237,27.797l-5.14-5.14,7.711-7.711Z" transform="translate(-0.00002 0.005)"/><path d="M29.896,7.237,22.659,0,14.948,7.706,7.237-.005,0,7.232l7.711,7.711L0,22.654l7.237,7.237,7.711-7.711,7.711,7.711,7.237-7.237-7.711-7.711Zm-4.19,15.422-3.044,3.044-7.711-7.711L7.24,25.703,4.196,22.659l7.711-7.711L4.196,7.237,7.24,4.193l7.711,7.711,7.711-7.711,3.044,3.044-7.711,7.711Z" transform="translate(-0.00002 0.005)"/></svg>