<svg xmlns="http://www.w3.org/2000/svg" width="99.986" height="98.882" viewBox="0 0 99.986 98.882"><defs><style>.a{fill:#918778;}.b{fill:#733125;}.c{fill:#da684e;}.d{fill:#ded0b3;}.e{fill:#eddebf;}.f{fill:#ffe8b8;}.g{fill:#ffebc2;}.h{fill:#696157;}.i{fill:#a64f3c;}.j{fill:#c1c4aa;}.k{fill:#d0d4b8;}.l{fill:#edd39c;}.m{fill:#f0daad;}.n{fill:#ea735c;}.o{fill:#e84655;}.p{fill:#658f41;}.q{fill:#96b343;}.r{fill:#bd4c3d;}.s{fill:#ffd0c9;}.t{fill:#c43b48;}.u{fill:#537134;}.v{fill:#f6fafd;}.w{fill:#fff3db;}.x{fill:#471e17;}.y{fill:#ff5352;}</style></defs><g transform="translate(-134 -226.104)"><g transform="translate(141 232)"><path class="a" d="M41.058,58.418H1V55.451S12.869,51,23.255,51C33.744,51,41.058,58.418,41.058,58.418Z" transform="translate(0 24.182)"/><path class="a" d="M76.058,55.451v2.967H36S43.314,51,53.8,51C64.189,51,76.058,55.451,76.058,55.451Z" transform="translate(16.927 24.182)"/><path class="b" d="M7,60H81.182v4.451H7Z" transform="translate(2.902 28.535)"/><path class="c" d="M81.182,56.967V62.9H7V56.967H38.156c0-1.647,2.656-2.967,5.935-2.967s5.935,1.32,5.935,2.967Z" transform="translate(2.902 25.633)"/><path class="c" d="M37.451,11.225v.267A29.088,29.088,0,0,0,33,14.89V11.225a2.225,2.225,0,0,1,4.451,0Z" transform="translate(15.477 3.869)"/><path class="c" d="M81.182,1V17.127c-4.139-2.552-10.7-5.742-17.8-5.742a25.142,25.142,0,0,0-13.353,3.976v-.267a2.225,2.225,0,0,0-4.451,0v3.665a19.022,19.022,0,0,0-1.484,1.528s-7.418-8.9-19.287-8.9c-7.107,0-13.664,3.19-17.8,5.742V1Z" transform="translate(2.902)"/><path class="d" d="M46.993,68.411v4.451c-3.279,0-5.935,1.32-5.935,2.967,0,0-7.314-7.418-17.8-7.418C12.869,68.411,1,72.862,1,72.862V17.967L5.451,15V65.444a40.273,40.273,0,0,1,19.287-4.451C36.607,60.993,46.993,68.411,46.993,68.411Z" transform="translate(0 6.771)"/><path class="e" d="M77.993,17.967V72.862s-11.869-4.451-22.255-4.451c-10.489,0-17.8,7.418-17.8,7.418,0-1.647-2.656-2.967-5.935-2.967V68.411s10.385-7.418,22.255-7.418a40.273,40.273,0,0,1,19.287,4.451V15Z" transform="translate(14.993 6.771)"/><path class="f" d="M24.771,42.124c-4.095,0-7.418,1.84-7.418,5.935a7.418,7.418,0,0,0,14.836,0C32.189,43.963,28.866,42.124,24.771,42.124ZM22.827,31.738h8.219a4.129,4.129,0,0,0,4.11-4.154,3.875,3.875,0,0,0-3.427-3.561s-4.11.593-4.11-1.78-4.852-2.374-4.852-2.374c-3.4,0-5.415,2.122-5.415,4.748C17.353,28.548,19.8,31.738,22.827,31.738Zm-14.376-18C12.59,11.19,19.148,8,26.255,8c11.869,0,19.287,8.9,19.287,8.9V71.8s-10.385-7.418-22.255-7.418A40.273,40.273,0,0,0,4,68.829V16.9a39.2,39.2,0,0,1,4.451-3.16Z" transform="translate(1.451 3.385)"/><path class="g" d="M54.255,53.993c0-11.869-11.869-11.869-11.869-11.869C42.385,53.993,54.255,53.993,54.255,53.993Zm1.484-11.869c0,11.869,11.869,11.869,11.869,11.869C67.607,42.124,55.738,42.124,55.738,42.124ZM69.091,13.742a39.2,39.2,0,0,1,4.451,3.16V68.829a40.273,40.273,0,0,0-19.287-4.451C42.385,64.378,32,71.8,32,71.8V16.9a19.022,19.022,0,0,1,1.484-1.528,29.089,29.089,0,0,1,4.451-3.4A25.142,25.142,0,0,1,51.287,8C58.394,8,64.952,11.19,69.091,13.742Z" transform="translate(14.993 3.385)"/><path class="h" d="M23.255,51C12.869,51,1,55.451,1,55.451v2.967s11.869-4.451,22.255-4.451a25.894,25.894,0,0,1,14.023,4.451h3.78S33.744,51,23.255,51Z" transform="translate(0 24.182)"/><path class="h" d="M53.8,51C43.314,51,36,58.418,36,58.418h3.78A25.894,25.894,0,0,1,53.8,53.967c10.385,0,22.255,4.451,22.255,4.451V55.451S64.189,51,53.8,51Z" transform="translate(16.927 24.182)"/><path class="i" d="M50.026,56.967C50.026,55.32,47.37,54,44.091,54s-5.935,1.32-5.935,2.967H7v2.967H38.156c0-1.647,2.656-2.967,5.935-2.967s5.935,1.32,5.935,2.967H81.182V56.967Z" transform="translate(2.902 25.633)"/><path class="i" d="M44.091,13.9S36.673,5,24.8,5C17.7,5,11.139,8.19,7,10.742v4.451c4.139-2.552,10.7-5.742,17.8-5.742,11.869,0,19.287,8.9,19.287,8.9a19.022,19.022,0,0,1,1.484-1.528V13.16a2.194,2.194,0,0,1,.254-1.012c-.082.073-.178.156-.254.226A19.023,19.023,0,0,0,44.091,13.9Z" transform="translate(2.902 1.935)"/><path class="i" d="M50.3,5A25.142,25.142,0,0,0,36.951,8.976a28.1,28.1,0,0,0-2.917,2.077,2.2,2.2,0,0,1,2.917,2.107v.267A25.142,25.142,0,0,1,50.3,9.451c7.107,0,13.664,3.19,17.8,5.742V10.742C63.968,8.19,57.41,5,50.3,5Z" transform="translate(15.977 1.935)"/><path class="j" d="M46.509,68.411s-10.385-7.418-22.255-7.418A40.273,40.273,0,0,0,4.967,65.444V15L2,16.978V69.895s14.736-6.77,22.255-5.935a40.705,40.705,0,0,1,20.707,9.016,11.533,11.533,0,0,1,1.547-.114Z" transform="translate(0.484 6.771)"/><path class="k" d="M76.509,69.895V16.978L73.542,15V65.444a40.273,40.273,0,0,0-19.287-4.451C42.385,60.993,32,68.411,32,68.411v4.451a11.534,11.534,0,0,1,1.547.114A40.705,40.705,0,0,1,54.255,63.96C61.774,63.125,76.509,69.895,76.509,69.895Z" transform="translate(14.993 6.771)"/><path class="l" d="M34.74,57.876a30.075,30.075,0,0,1-9.268-3.8c-.233.022-.46.071-.7.071a7.418,7.418,0,0,1-7.418-7.418c0-.036.01-.064.01-.1A29.449,29.449,0,0,1,11.418,28.9V10.741c-1.08.564-2.087,1.134-2.967,1.675A39.2,39.2,0,0,0,4,15.576V67.5a40.273,40.273,0,0,1,19.287-4.451c11.869,0,22.255,7.418,22.255,7.418v-8.9a54.2,54.2,0,0,0-10.8-3.693Z" transform="translate(1.451 4.711)"/><path class="m" d="M65.707,58.639A30.03,30.03,0,0,1,54.255,53.35v.08s-11.869,0-11.869-11.869a13.96,13.96,0,0,1,2.654.343,29.47,29.47,0,0,1-2.654-12.244V9.164a27.374,27.374,0,0,0-4.451,2.249,29.088,29.088,0,0,0-4.451,3.4A19.021,19.021,0,0,0,32,16.339V71.234s10.385-7.418,22.255-7.418a40.273,40.273,0,0,1,19.287,4.451v-7.2a53.384,53.384,0,0,0-7.835-2.427Z" transform="translate(14.993 3.948)"/><path class="n" d="M23.267,18.374c0,2.374,4.11,1.78,4.11,1.78A3.875,3.875,0,0,1,30.8,23.715a4.129,4.129,0,0,1-4.11,4.154H18.475c-3.027,0-5.475-3.19-5.475-7.121C13,18.122,15.018,16,18.415,16c0,0,4.852,0,4.852,2.374Z" transform="translate(5.804 7.255)"/><path class="o" d="M20.418,31c4.095,0,7.418,1.84,7.418,5.935a7.418,7.418,0,0,1-14.836,0C13,32.84,16.323,31,20.418,31Z" transform="translate(5.804 14.509)"/><path class="p" d="M39,31,50.869,42.869S39,42.869,39,31Z" transform="translate(18.378 14.509)"/><path class="p" d="M48,31,59.869,42.869S48,42.869,48,31Z" transform="translate(22.731 14.509)"/><path class="q" d="M50.869,42.869,39,31S50.869,31,50.869,42.869Z" transform="translate(18.378 14.509)"/><path class="q" d="M59.869,42.869,48,31S59.869,31,59.869,42.869Z" transform="translate(22.731 14.509)"/><path class="r" d="M27.376,20.154s-4.11.593-4.11-1.78S18.415,16,18.415,16C15.018,16,13,18.122,13,20.748c0,3.932,2.448,7.121,5.475,7.121h8.219a4.129,4.129,0,0,0,4.11-4.154,3.875,3.875,0,0,0-3.427-3.561Zm-.682,6.231H18.475c-2.163,0-3.991-2.582-3.991-5.638,0-1.984,1.543-3.264,3.932-3.264,1.7,0,3.368.562,3.368.89a2.957,2.957,0,0,0,1.031,2.3,6.5,6.5,0,0,0,4.632.964,2.478,2.478,0,0,1,1.874,2.073,2.653,2.653,0,0,1-2.626,2.671Z" transform="translate(5.804 7.255)"/><circle class="s" cx="1.5" cy="1.5" r="1.5" transform="translate(22.986 28)"/><path class="t" d="M21.9,40.745a7.418,7.418,0,0,1-7.418-7.418,6.494,6.494,0,0,1,.105-1A5.31,5.31,0,0,0,13,36.294,7.408,7.408,0,0,0,27.622,38,7.369,7.369,0,0,1,21.9,40.745Z" transform="translate(5.803 15.15)"/><path class="u" d="M20.676,30.577V27H19.193v3.2A10.423,10.423,0,0,0,14,29.225v1.484c4.576,0,5.193,1.125,5.193,2.225h1.484c0-1.05,2.225-2.225,5.193-2.225V29.225a9.322,9.322,0,0,0-5.193,1.352Z" transform="translate(6.287 12.575)"/><ellipse class="v" cx="1.224" cy="1.703" rx="1.224" ry="1.703" transform="translate(27.963 49.205) rotate(-45)"/><g transform="translate(56.636 25.48)"><path class="a" d="M64.464,21.951a.754.754,0,0,1-.276-.053,45.548,45.548,0,0,0-14.56-2.914c-7.16,0-10.026,1.392-10.053,1.405a.742.742,0,1,1-.665-1.326C39.037,19,42.12,17.5,49.627,17.5A46.236,46.236,0,0,1,64.74,20.521a.742.742,0,0,1-.276,1.43Z" transform="translate(-38.5 -17.5)"/><path class="a" d="M64.464,24.951a.754.754,0,0,1-.276-.053,45.548,45.548,0,0,0-14.56-2.914c-7.16,0-10.026,1.392-10.053,1.405a.742.742,0,1,1-.665-1.326C39.037,22,42.12,20.5,49.627,20.5A46.236,46.236,0,0,1,64.74,23.521a.742.742,0,0,1-.276,1.43Z" transform="translate(-38.5 -16.049)"/><path class="a" d="M64.464,27.951a.754.754,0,0,1-.276-.053,45.548,45.548,0,0,0-14.56-2.914c-7.16,0-10.026,1.392-10.053,1.405a.742.742,0,1,1-.665-1.326C39.037,25,42.12,23.5,49.627,23.5A46.236,46.236,0,0,1,64.74,26.521a.742.742,0,0,1-.276,1.43Z" transform="translate(-38.5 -14.598)"/></g><path class="q" d="M39.362,11.12A3.709,3.709,0,0,0,32,11.685v5.193a19.022,19.022,0,0,1,1.484-1.528c.408-.378.918-.817,1.484-1.277V11.685a.742.742,0,0,1,1.484,0v49.7a1.484,1.484,0,0,0,2.967,0v-49.7a3.742,3.742,0,0,0-.056-.565Z" transform="translate(14.993 3.41)"/><path class="p" d="M37.935,60.927v-49.7a2.225,2.225,0,0,0-4.451,0v.742A1.484,1.484,0,0,1,32,13.451v2.967a19.022,19.022,0,0,1,1.484-1.528c.408-.378.918-.817,1.484-1.277V11.225a.742.742,0,0,1,1.484,0v49.7a1.484,1.484,0,0,0,1.484,1.484,1.449,1.449,0,0,0,.742-.227,1.464,1.464,0,0,1-.742-1.257Z" transform="translate(14.993 3.869)"/><path class="w" d="M18.669,11.682A1.99,1.99,0,0,0,18,12.942a1.884,1.884,0,0,0,.4,1.144,7.494,7.494,0,0,0,2.862,2.086,20.826,20.826,0,0,1,7.162,5.706,40.558,40.558,0,0,0,3.622,5.009,2.242,2.242,0,0,0,2.36.792,1.807,1.807,0,0,0,.674-.593,5.889,5.889,0,0,0,.723-3.5q-.013-1.877-.093-3.751a10,10,0,0,0-.31-2.4,7.6,7.6,0,0,0-2.734-3.63C29.293,11.1,22.336,8.01,18.669,11.682Z" transform="translate(8.222 4.353)"/><path class="w" d="M48.962,10.1a4.635,4.635,0,0,0-3.923,3.412,2.39,2.39,0,0,0,.341,1.754,3.228,3.228,0,0,0,1.018.859,28.5,28.5,0,0,0,7.881,2.5,49.321,49.321,0,0,1,5.473,1.769c1.533.585,3.3,1.832,4.951,1.352a1.662,1.662,0,0,0,.675-.335c.742-.684.263-2.564-.068-3.344-1.509-3.561-5.883-5.73-9.406-6.9A14.529,14.529,0,0,0,48.962,10.1Z" transform="translate(21.278 4.372)"/><path class="x" d="M7,60v4.451H9.967a2.967,2.967,0,0,1,2.967-2.967H75.248a2.967,2.967,0,0,1,2.967,2.967h2.967V60Z" transform="translate(2.902 28.535)"/></g><g transform="translate(78.564 211)"><path class="y" d="M291,92.14,296.14,87l7.711,7.711L311.562,87l5.14,5.14-7.711,7.711,7.711,7.711-5.14,5.14-7.711-7.711L296.14,112.7l-5.14-5.14,7.711-7.711Z" transform="translate(-233.467 -69.799)"/><path d="M310.29,83.631l-7.237-7.237L295.342,84.1l-7.711-7.711-7.237,7.237,7.711,7.711-7.711,7.711,7.237,7.237,7.711-7.711,7.711,7.711,7.237-7.237-7.711-7.711ZM306.1,99.053l-3.044,3.044-7.711-7.711-7.711,7.711-3.044-3.044,7.711-7.711-7.711-7.711,3.044-3.044,7.711,7.711,7.711-7.711,3.044,3.044-7.711,7.711Z" transform="translate(-224.958 -61.29)"/></g></g></svg>