<svg xmlns="http://www.w3.org/2000/svg" viewBox="0 0 113.33202 111.44601"><defs><style>.a{fill:#fff;}.b{fill:#b6e6fa;}.c{fill:#54c9f3;}.d{fill:#fee95d;}.e{fill:#fcad42;}.f{fill:#8ad8f6;}.g{fill:#00adeb;}.h{fill:#fce7d1;}.i{fill:#ffceb7;}.j{fill:#ff5352;}</style></defs><path class="a" d="M98.341,91.511H5.786a4.208,4.208,0,0,1-4.208-4.208V13.682A4.208,4.208,0,0,1,5.786,9.474H98.34a4.208,4.208,0,0,1,4.208,4.208V87.303a4.208,4.208,0,0,1-4.208,4.208Z" transform="translate(0 0.005)"/><path class="b" d="M98.34,9.474H94.132a4.208,4.208,0,0,1,4.208,4.208h0V87.303a4.208,4.208,0,0,1-4.208,4.208H98.34a4.208,4.208,0,0,0,4.208-4.208h0V13.682A4.208,4.208,0,0,0,98.34,9.474Z" transform="translate(0 0.005)"/><path class="b" d="M102.549,25.268H1.578V13.682A4.208,4.208,0,0,1,5.786,9.474H98.34a4.208,4.208,0,0,1,4.208,4.208Z" transform="translate(0 0.005)"/><path class="c" d="M102.218,12.044a4.288,4.288,0,0,0-4.027-2.57H94.133a4.248,4.248,0,0,1,4.126,3.374,11.41566,11.41566,0,0,1,.083,2.216v10.2h4.208V14.64A6.40575,6.40575,0,0,0,102.218,12.044Z" transform="translate(0 0.005)"/><path class="d" d="M85.716,67.758H64.675a6.3125,6.3125,0,0,1,0-12.625H85.716a6.3125,6.3125,0,0,1,0,12.625Z" transform="translate(0 0.005)"/><path class="e" d="M85.716,55.133H81.508a6.3125,6.3125,0,0,1,0,12.625h4.208a6.3125,6.3125,0,0,0,0-12.625Z" transform="translate(0 0.005)"/><path class="f" d="M44.279,82.752H15.807L13.143,53.393h33.67Z" transform="translate(0 0.005)"/><path class="g" d="M42.605,53.393,40.066,82.752h4.208l2.539-29.359Z" transform="translate(0 0.005)"/><path class="d" d="M26.827,53.393v-17.2L39.452,38.31V53.39Z" transform="translate(0 0.005)"/><path class="h" d="M97.787,83.596a4.734,4.734,0,0,0-4.734,4.734V85.187a4.7345,4.7345,0,1,0-9.469,0V82.018a4.734,4.734,0,1,0-9.468-.01577V66.25a4.734,4.734,0,0,0-9.468-.01578V86.719l-4.708.092a4.734,4.734,0,0,0-4.734,4.734v0l-.026,13.091,3.235,6.051h44.16l-.053-22.358a4.734,4.734,0,0,0-4.735-4.733Z" transform="translate(0 0.005)"/><path class="i" d="M92.852,83.661h0a4.73314,4.73314,0,0,0-6.581-2.715,4.773,4.773,0,0,1,2.538,3.3,8.97949,8.97949,0,0,1,.093,1.774v7.065l4.208.03V85.761A6.34861,6.34861,0,0,0,92.852,83.661Z" transform="translate(0 0.005)"/><path class="i" d="M83.637,82.018a4.72123,4.72123,0,0,0-.245-1.5h0a4.786,4.786,0,0,0-2.123-2.6h0a4.75894,4.75894,0,0,0-4.466-.141,4.785,4.785,0,0,1,2.63,4.251V93.06l4.156.059Z" transform="translate(0 0.005)"/><path class="i" d="M69.96,66.25V93.091h4.208V66.25a4.734,4.734,0,0,0-6.834-4.241A4.734,4.734,0,0,1,69.96,66.25Z" transform="translate(0 0.005)"/><path class="i" d="M97.84,83.596a4.71314,4.71314,0,0,0-2.1.493,4.734,4.734,0,0,1,2.63,4.241v22.347l4.208.01V88.33a4.734,4.734,0,0,0-4.734-4.734Z" transform="translate(0 0.005)"/><path class="i" d="M64.696,86.719l-4.208.082v15.732h4.208Z" transform="translate(0 0.005)"/><path class="a" d="M23.644,18.85h-3.13V15.694h3.13Zm-6.286,0H14.202V15.694h3.156Zm-6.312,0H7.89V15.694h3.156Z" transform="translate(0 0.005)"/><path d="M104.1,88.331a6.31,6.31,0,0,0-9.827-5.241,6.30994,6.30994,0,0,0-9.461-3.148,6.31,6.31,0,0,0-9.118-3.388V69.337H85.716a7.89051,7.89051,0,1,0,0-15.781H64.675A7.891,7.891,0,0,0,63.07,69.171v16l-3.146.062a6.324,6.324,0,0,0-6.087,4.7H5.786a2.633,2.633,0,0,1-2.63-2.63V54.923H0v32.38a5.793,5.793,0,0,0,5.786,5.786H53.624L53.6,105.117l3.427,6.324,2.775-1.5-3.044-5.617.025-12.774a3.16,3.16,0,0,1,3.156-3.156l3.13-.061v14.2h3.156V66.251a3.156,3.156,0,1,1,6.312-.00661V93.079h3.156V82.019a3.156,3.156,0,1,1,6.312-.00661V93.079h3.156v-7.89a3.156,3.156,0,1,1,6.312-.0066V93.08h3.156V88.331a3.156,3.156,0,0,1,6.312-.00661V88.331L101,110.693l3.156-.007ZM69.382,59.938a6.32,6.32,0,0,0-6.3,5.964,4.734,4.734,0,0,1,1.6-9.191H85.716a4.734,4.734,0,0,1,0,9.468H75.693A6.319,6.319,0,0,0,69.382,59.938Z" transform="translate(0 0.005)"/><path d="M3.156,26.851h97.815V80.488h3.156V13.682a5.793,5.793,0,0,0-5.786-5.786H5.786A5.793,5.793,0,0,0,0,13.682V51.661H3.156Zm0-13.164a2.633,2.633,0,0,1,2.63-2.636H98.341a2.633,2.633,0,0,1,2.63,2.63V23.69H3.156Z" transform="translate(0 0.005)"/><path d="M58.363,33.145H77.3V36.3H58.363Z" transform="translate(0 0.005)"/><path d="M58.363,39.26H89.925v3.156H58.363Z" transform="translate(0 0.005)"/><path d="M74.143,45.707h3.225v3.156H74.142Z" transform="translate(0 0.005)"/><path d="M58.363,45.707H70.988v3.156H58.363Z" transform="translate(0 0.005)"/><path d="M9.215,62.373l2.769-4.283,2.379,26.24H45.722L47.99,58.097l2.737,4.208,2.646-1.718-4.941-7.6.1-1.173h-7.5V40.176l4.475.746.519-3.113L8.152,31.497,7.633,34.61l17.618,2.936V40.93H7.89v3.157H25.249v7.728H11.415l.107,1.179L6.563,60.659Zm34.546-7.4-3.471,4.9-20.083.066-3.844-4.968h27.4Zm-26.513,26.2L15.203,58.628l3.46,4.469,23.262-.076,2.814-3.972L42.826,81.174H17.249ZM37.873,51.814H34.718V39.124l3.156.526ZM28.405,38.071l3.156.526V51.814H28.405Z" transform="translate(0 0.005)"/><path class="j" d="M85.533,7.237l5.14-5.14,7.711,7.711,7.711-7.711,5.14,5.14-7.711,7.711,7.711,7.711-5.14,5.14-7.711-7.711-7.711,7.709-5.14-5.14,7.711-7.711Z" transform="translate(0 0.005)"/><path d="M113.332,7.237,106.095,0,98.384,7.706,90.673-.005,83.436,7.232l7.711,7.711-7.711,7.711,7.237,7.237,7.711-7.711,7.711,7.711,7.237-7.237-7.711-7.711Zm-4.19,15.422-3.044,3.044-7.711-7.711-7.711,7.711-3.044-3.044,7.711-7.711L87.632,7.237l3.044-3.044,7.711,7.711,7.711-7.711,3.044,3.044-7.711,7.711Z" transform="translate(0 0.005)"/></svg>