<svg xmlns="http://www.w3.org/2000/svg" viewBox="0 0 117.57999 40.886"><defs><style>.a{fill:#c1b11a;}.b{fill:#e48e66;}.c{fill:#d17950;}.d{fill:#f8ec7d;}</style></defs><path class="a" d="M99.82,7.966a2.527,2.527,0,0,1,2.559,2.493v4.986c-11.308,0-20.479,8.929-20.479,19.943H2.559A2.527,2.527,0,0,1,0,32.895V10.459A2.527,2.527,0,0,1,2.559,7.966Z" transform="translate(0.00001 0)"/><path class="b" d="M25.937,24.485a2.807,2.807,0,1,1,2.8-2.814v.007A2.808,2.808,0,0,1,25.937,24.485Zm0-2.992a.184.184,0,1,0,.184.184h0a.184.184,0,0,0-.184-.183Z" transform="translate(0.00001 0)"/><path class="b" d="M39.227,24.485a2.807,2.807,0,1,1,2.809-2.807,2.807,2.807,0,0,1-2.809,2.807Zm0-2.992a.183.183,0,1,0,.131.054.179.179,0,0,0-.131-.053Z" transform="translate(0.00001 0)"/><path class="b" d="M52.522,24.485a2.807,2.807,0,1,1,2.807-2.807A2.807,2.807,0,0,1,52.522,24.485Zm0-2.992a.184.184,0,1,0,.184.184.186.186,0,0,0-.184-.183Z" transform="translate(0.00001 0)"/><path class="b" d="M65.816,24.485a2.807,2.807,0,1,1,2.807-2.807,2.807,2.807,0,0,1-2.807,2.807Zm0-2.992a.184.184,0,1,0,.182.186v-.002a.184.184,0,0,0-.182-.183Z" transform="translate(0.00001 0)"/><path class="b" d="M79.111,24.485a2.807,2.807,0,1,1,2.8-2.814v.007A2.807,2.807,0,0,1,79.111,24.485Zm0-2.992a.184.184,0,1,0,.185.184.187.187,0,0,0-.185-.183Z" transform="translate(0.00001 0)"/><path class="b" d="M12.639,24.485a2.807,2.807,0,1,1,2.809-2.807A2.807,2.807,0,0,1,12.639,24.485Zm0-2.992a.185.185,0,1,0,.13.054.178.178,0,0,0-.13-.053Z" transform="translate(0.00001 0)"/><path class="c" d="M117.58,20.943c0,11.015-9.372,19.943-20.933,19.943S75.714,31.958,75.714,20.943,85.086,1,96.647,1,117.58,9.929,117.58,20.943Z" transform="translate(0.00001 0)"/><path class="d" d="M97.917,21.943l5.03-5.03a1.5,1.5,0,1,0-2.115-2.116l-5.031,5.031-5.319-5.32a1.5,1.5,0,1,0-2.115,2.116l5.321,5.319-5.32,5.319a1.5,1.5,0,0,0,2.115,2.116l5.32-5.32,5.03,5.031a1.5,1.5,0,1,0,2.115-2.116Z" transform="translate(0.00001 0)"/><path class="d" d="M98.887,5.966a2.493,2.493,0,0,1,2.493,2.493v4.986A19.943,19.943,0,0,0,81.436,33.387v.001H4.156a2.493,2.493,0,0,1-2.493-2.493V8.459A2.493,2.493,0,0,1,4.156,5.966Z" transform="translate(0.00001 0)"/><path class="b" d="M24.937,22.485a2.807,2.807,0,1,1,2.8-2.814v.007A2.808,2.808,0,0,1,24.937,22.485Zm0-2.992a.184.184,0,1,0,.184.184h0a.184.184,0,0,0-.184-.183Z" transform="translate(0.00001 0)"/><path class="b" d="M38.227,22.485a2.807,2.807,0,1,1,2.809-2.807,2.807,2.807,0,0,1-2.809,2.807Zm0-2.992a.183.183,0,1,0,.131.054.179.179,0,0,0-.131-.053Z" transform="translate(0.00001 0)"/><path class="b" d="M51.522,22.485a2.807,2.807,0,1,1,2.807-2.807A2.807,2.807,0,0,1,51.522,22.485Zm0-2.992a.184.184,0,1,0,.184.184.186.186,0,0,0-.184-.183Z" transform="translate(0.00001 0)"/><path class="b" d="M64.816,22.485a2.807,2.807,0,1,1,2.807-2.807,2.807,2.807,0,0,1-2.807,2.807Zm0-2.992a.184.184,0,1,0,.182.186v-.002a.184.184,0,0,0-.182-.183Z" transform="translate(0.00001 0)"/><path class="b" d="M78.111,22.485a2.807,2.807,0,1,1,2.8-2.814v.007A2.807,2.807,0,0,1,78.111,22.485Zm0-2.992a.184.184,0,1,0,.185.184.187.187,0,0,0-.185-.183Z" transform="translate(0.00001 0)"/><path class="b" d="M11.639,22.485a2.807,2.807,0,1,1,2.809-2.807A2.807,2.807,0,0,1,11.639,22.485Zm0-2.992a.185.185,0,1,0,.13.054.178.178,0,0,0-.13-.053Z" transform="translate(0.00001 0)"/><path class="b" d="M114.601,19.943a19.9425,19.9425,0,1,1,0-.001Z" transform="translate(0.00001 0)"/><path class="d" d="M96.917,19.943l5.03-5.03a1.5,1.5,0,1,0-2.115-2.116l-5.031,5.031-5.319-5.32a1.5,1.5,0,1,0-2.115,2.116l5.321,5.319-5.32,5.319a1.5,1.5,0,0,0,2.115,2.116l5.32-5.32,5.03,5.031a1.5,1.5,0,1,0,2.115-2.116Z" transform="translate(0.00001 0)"/></svg>