<svg xmlns="http://www.w3.org/2000/svg" width="19.14" height="27.407" viewBox="0 0 19.14 27.407"><defs><style>.a{fill:#296f0a;}.b{fill:#469a21;}</style></defs><g transform="translate(-12.054 -8)"><path class="a" d="M169.569,11.042h-.659V6.762c0-3.729-3.336-6.762-7.437-6.762s-7.437,3.034-7.437,6.762v4.28h-.659a1.307,1.307,0,0,0-1.365,1.241V25.166a1.307,1.307,0,0,0,1.365,1.241h16.192a1.307,1.307,0,0,0,1.365-1.241V12.283A1.307,1.307,0,0,0,169.569,11.042Zm-3.389,0h-9.415V6.762a4.729,4.729,0,0,1,9.415,0Z" transform="translate(-139.74 9)"/><path class="b" d="M168.581,11.461h-.622V7.018a7.018,7.018,0,1,0-14.037,0v4.442H153.3a1.288,1.288,0,0,0-1.288,1.288V26.119a1.288,1.288,0,0,0,1.288,1.288h15.281a1.288,1.288,0,0,0,1.288-1.288V12.749A1.288,1.288,0,0,0,168.581,11.461Zm-3.2,0H156.5V7.018a4.442,4.442,0,0,1,8.885,0Z" transform="translate(-139.958 8)"/></g></svg>