<svg xmlns="http://www.w3.org/2000/svg" viewBox="0 0 52.755 51.587"><defs><style>.a{fill:#cbcac7;opacity:0.762;isolation:isolate;}.b{fill:#f64019;}.c{fill:#fff;}</style></defs><path class="a" d="M27.255.587a25.5,25.5,0,1,1-25.5,25.5A25.5,25.5,0,0,1,27.255.587Z"/><circle class="b" cx="25" cy="25" r="25"/><path class="c" d="M47.643,12.279c-1.716-2.947-5.651-2.192-5.651-2.192-.313.07-.631.147-.948.206a20.17016,20.17016,0,0,0-5.443,1.89A41.89988,41.89988,0,0,0,25.47,19.444q-3.011,2.9-5.836,5.989A55.8708,55.8708,0,0,0,11.25,37.39a26.012,26.012,0,0,0-2.679,7.063,3.133,3.133,0,0,0,.208,1.461c.064.183.4.325.642.4.064.017.257-.289.342-.47a35.72212,35.72212,0,0,1,1.658-3.574c1.346-2.239,2.753-4.448,4.261-6.578A73.73579,73.73579,0,0,1,23.83,26.16a39.99994,39.99994,0,0,1,9.2-7.433,53.52605,53.52605,0,0,1,4.975-2.407,38.82425,38.82425,0,0,1,9.125-2.5,1.269,1.269,0,0,0,.893-.589C48.113,12.995,47.643,12.279,47.643,12.279Z"/><path class="c" d="M15.782,20.462a12.842,12.842,0,0,0-3.568-7.457,2.30812,2.30812,0,0,0-.882-.544c-.33-.119-.546.068-.515.444.028.33.057.663.115.991.4,2.273.791,4.55,1.223,6.821q.507,2.66,1.11,5.3a7.053,7.053,0,0,0,.634,1.652c.206.4.5.366.78,0a1.83916,1.83916,0,0,0,.306-.481,15.5711,15.5711,0,0,0,.94-5.054C15.878,21.581,15.848,21.019,15.782,20.462Z"/></svg>