<svg xmlns="http://www.w3.org/2000/svg" viewBox="0 0 52.755 51.587"><defs><style>.a{fill:#cbcac7;opacity:0.762;isolation:isolate;}.b{fill:#f0efeb;}.c{fill:#002c8d;}.d{fill:#008ee7;}.e{fill:#142171;}</style></defs><path class="a" d="M27.255.587a25.5,25.5,0,1,1-25.5,25.5A25.5,25.5,0,0,1,27.255.587Z"/><path class="b" d="M50,25A25,25,0,0,1,26.809,49.936Q25.912,50,25,50A25,25,0,1,1,50,25Z"/><path class="c" d="M41.995,16.238c-1.168,7.784-2.984,14.659-13.492,16.215a37.649,37.649,0,0,1-7.581.148,2.2,2.2,0,0,0-2.307,1.889L16.622,48.561a25.00687,25.00687,0,0,1-9.56-6.148l5.065-35.77a2.117,2.117,0,0,1,2.1-1.819h17.13C36.286,4.823,43.162,8.456,41.995,16.238Z"/><path class="d" d="M43.608,34.466c-3.308,6.292-10.443,6.6-12.129,6.6H29.708a1.9,1.9,0,0,0-1.879,1.633L26.81,49.934q-.9.064-1.809.064a24.94928,24.94928,0,0,1-8.378-1.439l4.335-30.61a1.832,1.832,0,0,1,1.813-1.575H37.599c2.681,0,6.141,1.55,7.244,4.014S46.917,28.175,43.608,34.466Z"/><path class="e" d="M41.804,17.454c-1.191,7.273-3.343,13.525-13.3,15a37.76613,37.76613,0,0,1-7.581.148,2.195,2.195,0,0,0-2.308,1.887l2.341-16.54a1.833,1.833,0,0,1,1.813-1.574H37.596A9.47991,9.47991,0,0,1,41.804,17.454Z"/></svg>