<?xml version="1.0" encoding="utf-8"?>
<!-- Generator: Adobe Illustrator 24.3.0, SVG Export Plug-In . SVG Version: 6.00 Build 0)  -->
<svg version="1.1" id="Layer_1" xmlns="http://www.w3.org/2000/svg" xmlns:xlink="http://www.w3.org/1999/xlink" x="0px" y="0px"
	 viewBox="0 0 22 22" style="enable-background:new 0 0 22 22;" xml:space="preserve">
<style type="text/css">
	.st0{fill:#3F8F22;}
</style>
<path class="st0" d="M19,22H2.9C1.3,22,0,20.7,0,19.1c0,0,0,0,0,0V2.9C0,1.3,1.3,0,2.9,0c0,0,0,0,0,0H19C20.7,0,22,1.3,22,2.9
	c0,0,0,0,0,0v16.1C22,20.7,20.7,22,19,22C19.1,22,19.1,22,19,22z M2.9,1.7c-0.7,0-1.3,0.6-1.3,1.3c0,0,0,0,0,0v16.1
	c0,0.7,0.6,1.3,1.3,1.3c0,0,0,0,0,0H19c0.7,0,1.3-0.6,1.3-1.3v0V2.9c0-0.7-0.6-1.3-1.3-1.3c0,0,0,0,0,0H2.9z"/>
<path class="st0" d="M0.8,18.5c-0.2,0-0.5-0.1-0.6-0.3C0.1,18.1,0,17.9,0,17.7c0-0.2,0.1-0.4,0.3-0.5l5.8-4.3c0.9-0.7,2.2-0.6,3,0.1
	l2.7,2.4c0.2,0.2,0.5,0.2,0.7,0l2.7-1.7c0.8-0.6,1.9-0.6,2.8,0l3.7,2.6c0.3,0.2,0.4,0.6,0.2,1c0,0,0,0.1-0.1,0.1
	c-0.3,0.3-0.8,0.4-1.2,0.1L17,14.9c-0.2-0.1-0.5-0.1-0.7,0l-2.7,1.8c-0.9,0.6-2.1,0.5-2.9-0.2L7.9,14c-0.2-0.2-0.5-0.2-0.8,0
	l-5.8,4.3C1.2,18.5,1,18.5,0.8,18.5z"/>
<path class="st0" d="M14.5,10.2c-1.5,0-2.8-1.2-2.8-2.8s1.2-2.8,2.8-2.8s2.8,1.2,2.8,2.8S16.1,10.2,14.5,10.2z M14.5,6.2
	c-0.7,0-1.2,0.6-1.2,1.2s0.6,1.2,1.2,1.2s1.2-0.6,1.2-1.2S15.2,6.2,14.5,6.2z"/>
</svg>
