<svg xmlns="http://www.w3.org/2000/svg" viewBox="0 0 12.2457 18.46739"><defs><style>.a{fill:#469a09;}</style></defs><path class="a" d="M.5,11.883a1.263,1.263,0,0,0,1.352,1.32H5.664v3.641c0,.758.7,2.125.953,2.125s.961-1.367.961-2.125V13.203h3.813a1.267,1.267,0,0,0,1.352-1.32c0-1.68-1.312-3.281-3.422-4.094L9.079,4.227a8.82092,8.82092,0,0,0,2.375-1.8,1.471,1.471,0,0,0,.344-.891A1.032,1.032,0,0,0,10.76788.50212Q10.7284.50206,10.689.505H2.555a1.034,1.034,0,0,0-1.11366.94766Q1.438,1.49426,1.438,1.536a1.484,1.484,0,0,0,.352.891,8.75209,8.75209,0,0,0,2.367,1.8L3.922,7.789C1.805,8.602.5,10.203.5,11.883Z" transform="translate(-0.49854 -0.50161)"/></svg>