<?xml version="1.0" encoding="utf-8"?>
<!-- Generator: Adobe Illustrator 24.3.0, SVG Export Plug-In . SVG Version: 6.00 Build 0)  -->
<svg version="1.1" id="Layer_1" xmlns="http://www.w3.org/2000/svg" xmlns:xlink="http://www.w3.org/1999/xlink" x="0px" y="0px"
	 viewBox="0 0 37 37" style="enable-background:new 0 0 37 37;" xml:space="preserve">
<style type="text/css">
	.st0{fill:#469A09;}
</style>
<path class="st0" d="M18.5,37c2.5,0,4.9-0.5,7.2-1.5c2.2-1,4.2-2.3,5.9-4c1.7-1.7,3.1-3.7,4-5.9c1-2.3,1.5-4.7,1.4-7.2
	c0-2.5-0.5-4.9-1.4-7.2c-0.9-2.2-2.3-4.2-4-5.9c-1.7-1.7-3.7-3.1-5.9-4c-2.3-1-4.7-1.5-7.2-1.4c-2.4,0-4.9,0.5-7.1,1.4
	c-2.2,0.9-4.2,2.3-5.9,4c-1.7,1.7-3.1,3.7-4,5.9C0.5,13.6,0,16,0,18.5c0,2.5,0.5,4.9,1.5,7.2c1,2.2,2.3,4.2,4,5.9
	c1.7,1.7,3.7,3.1,5.9,4C13.6,36.5,16.1,37,18.5,37z M9.8,18.5c0-0.5,0.2-0.9,0.5-1.2c0.3-0.3,0.8-0.5,1.2-0.5h5.3v-5.3
	c0-0.5,0.2-0.9,0.5-1.2c0.3-0.3,0.7-0.5,1.2-0.5c0.5,0,0.9,0.2,1.2,0.5c0.3,0.3,0.5,0.8,0.5,1.2v5.3h5.3c0.5,0,0.9,0.2,1.2,0.5
	c0.3,0.3,0.5,0.8,0.5,1.2c0,0.4-0.2,0.9-0.5,1.2c-0.3,0.3-0.8,0.5-1.2,0.5h-5.3v5.3c0,0.5-0.2,0.9-0.5,1.2c-0.3,0.3-0.8,0.5-1.2,0.5
	c-0.4,0-0.9-0.2-1.2-0.5c-0.3-0.3-0.5-0.8-0.5-1.2v-5.3h-5.3c-0.5,0-0.9-0.1-1.2-0.5C10,19.4,9.8,19,9.8,18.5L9.8,18.5z"/>
</svg>
