<?xml version="1.0" encoding="utf-8"?>
<!-- Generator: Adobe Illustrator 24.3.0, SVG Export Plug-In . SVG Version: 6.00 Build 0)  -->
<svg version="1.1" id="Layer_1" xmlns="http://www.w3.org/2000/svg" xmlns:xlink="http://www.w3.org/1999/xlink" x="0px" y="0px"
	 viewBox="0 0 13.4 12.4" style="enable-background:new 0 0 13.4 12.4;" xml:space="preserve">
<style type="text/css">
	.st0{fill:#FFFFFF;}
</style>
<g>
	<path class="st0" d="M12.9,5.7c0.1,0.7-0.4,1.4-1.2,1.5c-0.1,0-0.3,0-0.4,0H7.6V10c0,0.5,0.1,1,0.3,1.4c-0.2,0.3-0.5,0.5-0.8,0.5
		c-1.1,0-1.6-0.5-1.6-1.5V7.2H0.9c-0.2-0.3-0.3-0.6-0.4-1c0-0.3,0.1-0.6,0.3-0.8C1,5.1,1.3,5,1.6,5C2,5,2.4,5,2.9,5.1
		c0.4,0.1,0.8,0.1,1.3,0.1h1.3V0.8c0.3-0.2,0.7-0.3,1.1-0.3c0.3,0,0.7,0.1,0.9,0.3C7.8,1,8,1.2,8,1.5c0,0.4-0.1,0.8-0.2,1.2
		S7.6,3.4,7.6,3.8v1.4h3.2c0.5,0,1-0.1,1.5-0.2C12.7,5.1,12.9,5.4,12.9,5.7z"/>
	<path class="st0" d="M7.1,12.4c-1.4,0-2.2-0.7-2.2-2V7.7H0.6L0.4,7.5C0.2,7.1,0,6.7,0,6.2S0.2,5.3,0.5,5s0.7-0.5,1.1-0.5
		c0.5,0,0.9,0,1.3,0.1s0.8,0.1,1.2,0.1h0.8V0.6l0.2-0.1C5.6,0.2,6,0,6.4,0c0.5,0,0.9,0.2,1.2,0.4C8.2,0.7,8.5,1,8.5,1.5
		S8.4,2.4,8.3,2.8C8.2,3.1,8.1,3.5,8.1,3.9v0.8h2.7c0.5,0,0.9-0.1,1.4-0.2l0.2-0.1l0.2,0.1c0.7,0.4,0.8,0.8,0.8,1.1
		c0.1,0.5-0.1,1-0.4,1.3c-0.3,0.4-0.7,0.6-1.2,0.7c-0.2,0-0.3,0-0.5,0H8.2V10c0,0.4,0.1,0.9,0.2,1.3l0.1,0.2l-0.1,0.2
		C8,12.1,7.6,12.4,7.1,12.4L7.1,12.4z M1.1,6.7h4.8v3.8c0,0.6,0.2,1,1.1,1c0.1,0,0.2,0,0.2-0.1C7.1,11,7,10.5,7,10.1V6.8h4.2
		c0.2,0,0.2,0,0.3,0c0.2,0,0.4-0.1,0.6-0.3c0.1-0.2,0.2-0.4,0.2-0.6V5.8c0,0,0-0.1-0.1-0.2c-0.5,0.1-0.9,0.2-1.4,0.2H7.1v-2
		c0-0.5,0.1-0.9,0.2-1.3c0.1-0.3,0.2-0.7,0.2-1.1c0,0,0-0.1-0.3-0.2C6.9,1.1,6.7,1,6.5,1S6.1,1.1,5.9,1.1v4.5H4.1
		c-0.4,0-0.9,0-1.3-0.1c-0.4,0-0.8,0-1.2,0c-0.1,0-0.3,0.1-0.4,0.2C1.1,5.8,1,6,1,6.2C1,6.3,1.1,6.5,1.1,6.7z M13.3,5.7L13.3,5.7
		L13.3,5.7z"/>
</g>
</svg>
