<?xml version="1.0" encoding="utf-8"?>
<!-- Generator: Adobe Illustrator 24.3.0, SVG Export Plug-In . SVG Version: 6.00 Build 0)  -->
<svg version="1.1" id="Layer_1" xmlns="http://www.w3.org/2000/svg" xmlns:xlink="http://www.w3.org/1999/xlink" x="0px" y="0px"
	 viewBox="0 0 33.5 31" style="enable-background:new 0 0 33.5 31;" xml:space="preserve">
<style type="text/css">
	.st0{fill:#FFFFFF;}
</style>
<path class="st0" d="M33.5,14c0,2.8-1.4,4.1-4.3,4.1H19.2v7.6c0.1,1.3,0.3,2.6,0.7,3.9c-0.4,0.8-1.2,1.3-2.1,1.4c-3,0-4.4-1.3-4.4-4
	v-8.9H1c-0.5-0.8-0.9-1.7-1-2.7c0-0.8,0.3-1.6,0.9-2.2c0.5-0.6,1.3-1,2.1-1c1.1,0,2.3,0.1,3.4,0.3c1.1,0.1,2.3,0.2,3.4,0.3h3.5V0.9
	c0.9-0.5,1.9-0.8,2.9-0.9c0.9,0.1,1.8,0.3,2.5,0.8c1,0.6,1.5,1.2,1.5,1.8c-0.1,1.1-0.2,2.2-0.5,3.2c-0.3,1-0.5,2.1-0.5,3.2v3.7h8.6
	c1.4-0.1,2.8-0.3,4.1-0.6C33,12.6,33.5,13.3,33.5,14z"/>
</svg>
