<?xml version="1.0" encoding="utf-8"?>
<!-- Generator: Adobe Illustrator 24.3.0, SVG Export Plug-In . SVG Version: 6.00 Build 0)  -->
<svg version="1.1" id="Layer_1" xmlns="http://www.w3.org/2000/svg" xmlns:xlink="http://www.w3.org/1999/xlink" x="0px" y="0px"
	 viewBox="0 0 36.2 36.2" style="enable-background:new 0 0 36.2 36.2;" xml:space="preserve">
<style type="text/css">
	.st0{fill:#ECECEC;}
</style>
<path class="st0" d="M27.9,36.2H3.8c-2.1,0-3.8-1.7-3.8-3.8V11.3c0-2.1,1.7-3.8,3.8-3.8h10.6c0.4,0,0.8,0.3,0.8,0.8
	s-0.3,0.8-0.8,0.8l0,0H3.8c-1.3,0-2.3,1-2.3,2.3v21.1c0,1.3,1,2.3,2.3,2.3h23.8l7.1-7.1V11.3c0-1.3-1-2.3-2.3-2.3H21.9
	c-0.4,0-0.8-0.3-0.8-0.8s0.3-0.8,0.8-0.8h10.6c2.1,0,3.8,1.7,3.8,3.8v16.6c0,0.2-0.1,0.4-0.2,0.5L28.5,36
	C28.3,36.2,28.1,36.2,27.9,36.2z M35.5,27.9L35.5,27.9L35.5,27.9z"/>
<path class="st0" d="M27.9,36.2c-0.4,0-0.8-0.3-0.8-0.8c0,0,0,0,0,0v-7.5c0-0.4,0.3-0.8,0.8-0.8h7.5c0.4,0,0.8,0.3,0.8,0.8
	c0,0.4-0.3,0.8-0.8,0.8h-6.8v6.8C28.7,35.9,28.4,36.2,27.9,36.2C27.9,36.2,27.9,36.2,27.9,36.2z"/>
<path class="st0" d="M18.1,13.6c-0.4,0-0.8-0.3-0.8-0.8c0,0,0,0,0,0V5.3c0-0.4,0.3-0.8,0.8-0.8s0.8,0.3,0.8,0.8v7.5
	C18.9,13.2,18.5,13.6,18.1,13.6C18.1,13.6,18.1,13.6,18.1,13.6z"/>
<path class="st0" d="M18.1,6c-1.7,0-3-1.4-3-3s1.4-3,3-3s3,1.4,3,3C21.1,4.7,19.8,6,18.1,6z M18.1,1.5c-0.8,0-1.5,0.7-1.5,1.5
	s0.7,1.5,1.5,1.5s1.5-0.7,1.5-1.5C19.6,2.2,19,1.5,18.1,1.5z"/>
<path class="st0" d="M29.4,18.1H6.8c-0.4,0-0.8-0.3-0.8-0.8s0.3-0.8,0.8-0.8h22.6c0.4,0,0.8,0.3,0.8,0.8S29.9,18.1,29.4,18.1
	L29.4,18.1z"/>
<path class="st0" d="M29.4,24.2H6.8c-0.4,0-0.8-0.3-0.8-0.8c0-0.4,0.3-0.8,0.8-0.8h22.6c0.4,0,0.8,0.3,0.8,0.8
	C30.2,23.8,29.9,24.2,29.4,24.2L29.4,24.2z"/>
<path class="st0" d="M23.4,30.2H6.8c-0.4,0-0.8-0.3-0.8-0.8s0.3-0.8,0.8-0.8h16.6c0.4,0,0.8,0.3,0.8,0.8S23.8,30.2,23.4,30.2
	L23.4,30.2z"/>
</svg>
