<?xml version="1.0" encoding="utf-8"?>
<!-- Generator: Adobe Illustrator 24.3.0, SVG Export Plug-In . SVG Version: 6.00 Build 0)  -->
<svg version="1.1" id="Layer_1" xmlns="http://www.w3.org/2000/svg" xmlns:xlink="http://www.w3.org/1999/xlink" x="0px" y="0px"
	 viewBox="0 0 56 55" style="enable-background:new 0 0 56 55;" xml:space="preserve">
<style type="text/css">
	.st0{fill:#469A09;}
	.st1{fill:#3B8107;}
	.st2{fill:#FFC61B;}
	.st3{fill:#EAA22F;}
	.st4{fill:#FEE187;}
</style>
<ellipse class="st0" cx="28" cy="27.5" rx="28" ry="27.5"/>
<path class="st1" d="M38.7,17l-3.6-1L29,10.5l-1.1,8.1l-4.3-3.9l-8,6.4l-1.4,7.8l3,9.2L34,54.4c10.6-2.2,19-10.5,21.4-21.1L38.7,17z
	"/>
<path class="st2" d="M28,42.3c-8.3,0.1-15.1-6.5-15.2-14.8c0-5.9,3.6-11.3,9.1-13.6c0.7-0.3,1.4,0,1.7,0.7c0.3,0.6,0,1.4-0.6,1.7
	c0,0,0,0,0,0c-4.5,1.9-7.5,6.3-7.5,11.2c0.2,6.9,5.9,12.4,12.9,12.2c6.7-0.2,12.1-5.5,12.2-12.2c0-4.9-3-9.3-7.5-11.2
	c-0.7-0.3-1-1-0.7-1.7c0,0,0,0,0,0c0.3-0.7,1.1-1,1.7-0.7c5.5,2.3,9.1,7.6,9.1,13.6C43.1,35.8,36.3,42.4,28,42.3z"/>
<path class="st3" d="M34.1,13.9c-0.7-0.3-1.4,0-1.7,0.7c-0.3,0.6,0,1.4,0.6,1.7c0,0,0,0,0,0c4.5,1.9,7.5,6.3,7.5,11.2
	c-0.1,6.8-5.7,12.3-12.5,12.2h-0.1v2.6H28c8.3,0.1,15.1-6.5,15.2-14.8C43.1,21.6,39.6,16.2,34.1,13.9z"/>
<path class="st4" d="M28,28.8c-0.7,0-1.3-0.6-1.3-1.3c0,0,0,0,0,0V11.3c0-0.7,0.6-1.3,1.3-1.3c0.7,0,1.3,0.6,1.3,1.3v16.2
	C29.3,28.2,28.7,28.8,28,28.8C28,28.8,28,28.8,28,28.8z"/>
<path class="st2" d="M28,10C28,10,28,10,28,10l-0.1,18.8c0,0,0,0,0.1,0c0.7,0,1.3-0.6,1.3-1.3c0,0,0,0,0,0V11.3
	C29.3,10.6,28.7,10,28,10C28,10,28,10,28,10z"/>
</svg>
