<svg xmlns="http://www.w3.org/2000/svg" viewBox="0 0 40.827 25.01999"><defs><style>.a{opacity:0.775;}.b{fill:#ffd54f;}.c{fill:#5b5353;}.d{fill:#535353;}</style></defs><g class="a"><path class="b" d="M20.619,4.984l.854,1.558,1.754.332L22.012,8.172l.222,1.767-1.61-.756-1.612.755.222-1.767L18.012,6.874l1.754-.332Z"/><path class="b" d="M13.449,4.984l.854,1.558,1.754.332L14.842,8.172l.222,1.767-1.61-.756-1.612.755.222-1.767L10.842,6.874l1.754-.332Z"/><path class="b" d="M6.278,4.984l.854,1.558,1.754.332L7.671,8.172l.222,1.767L6.278,9.184l-1.607.754.222-1.767L3.671,6.874l1.754-.332Z"/><path class="b" d="M27.79,4.984l.854,1.558,1.754.332L29.183,8.172l.222,1.767-1.61-.756-1.612.755.222-1.767L25.183,6.874l1.754-.332Z"/><path class="b" d="M34.96,4.984l.854,1.558,1.754.332L36.353,8.172l.222,1.767-1.61-.756-1.612.755.222-1.767L32.353,6.874l1.754-.332Z"/><path class="c" d="M36.264.29H4.974A4.563,4.563,0,0,0,.411,4.853v5.215a4.563,4.563,0,0,0,4.563,4.563H25.182a.652.652,0,0,0,.652-.652h0v-.978a.978.978,0,0,1,1.956,0v.978a.652.652,0,0,0,.652.652h7.822a4.563,4.563,0,0,0,4.563-4.563V4.853A4.563,4.563,0,0,0,36.264.29Zm3.259,9.778a3.259,3.259,0,0,1-3.259,3.259H29.093v-.326a2.282,2.282,0,0,0-4.563-.09555q-.001.04777,0,.09555v.326H4.974a3.259,3.259,0,0,1-3.263-3.255V4.853A3.259,3.259,0,0,1,4.966,1.59H36.264a3.259,3.259,0,0,1,3.259,3.259Z"/><path class="d" d="M32.648,15.928a1.564,1.564,0,0,0-2.1544-.50073q-.04113.02562-.0806.05373a1.565,1.565,0,0,0-2-.586v-2.61a1.565,1.565,0,0,0-3.129,0v2.941a2.682,2.682,0,0,0-2.236,2.646v1.341a5.811,5.811,0,0,0,5.811,5.807h.447a5.811,5.811,0,0,0,5.811-5.811h0V17.202a1.564,1.564,0,0,0-2.469-1.274Zm1.578,3.285a4.917,4.917,0,0,1-4.917,4.917h-.447a4.917,4.917,0,0,1-4.917-4.917V17.872a1.788,1.788,0,0,1,1.341-1.725v2.619a.447.447,0,0,0,.894,0V12.285a.6705.6705,0,1,1,1.341,0h0v4.023a.447.447,0,1,0,.894,0,.6705.6705,0,0,1,1.341,0h0v.447a.447.447,0,1,0,.894,0,.671.671,0,0,1,1.341,0v.447a.447.447,0,1,0,.894,0,.6705.6705,0,0,1,1.341,0Z"/></g><path class="b" d="M20.208,4.694l.854,1.558,1.754.332L21.601,7.882l.222,1.767-1.61-.756-1.612.755.222-1.767L17.601,6.584l1.754-.332Z"/><path class="b" d="M13.038,4.694l.854,1.558,1.754.332L14.431,7.882l.222,1.767-1.61-.756-1.612.755.222-1.767L10.431,6.584l1.754-.332Z"/><path class="b" d="M5.867,4.694l.854,1.558,1.754.332L7.26,7.882l.222,1.767L5.867,8.894,4.26,9.648l.222-1.767L3.26,6.584l1.754-.332Z"/><path class="b" d="M27.379,4.694l.854,1.558,1.754.332L28.772,7.882l.222,1.767-1.61-.756-1.612.755.222-1.767L24.772,6.584l1.754-.332Z"/><path class="b" d="M34.549,4.694l.854,1.558,1.754.332L35.942,7.882l.222,1.767-1.61-.756-1.612.755.222-1.767L31.942,6.584l1.754-.332Z"/><path class="c" d="M35.853,0H4.563A4.563,4.563,0,0,0,0,4.563V9.778a4.563,4.563,0,0,0,4.563,4.563H24.771a.652.652,0,0,0,.652-.652h0v-.978a.978.978,0,0,1,1.956,0v.978a.652.652,0,0,0,.652.652h7.822a4.563,4.563,0,0,0,4.563-4.563V4.563A4.563,4.563,0,0,0,35.853,0Zm3.259,9.778a3.259,3.259,0,0,1-3.259,3.259H28.682v-.326a2.282,2.282,0,1,0-4.563-.09555q-.001.04776,0,.09555v.326H4.563A3.259,3.259,0,0,1,1.3,9.782V4.563A3.259,3.259,0,0,1,4.555,1.3H35.853a3.259,3.259,0,0,1,3.259,3.259Z"/><path class="d" d="M32.237,15.638a1.564,1.564,0,0,0-2.15441-.50073q-.04112.02561-.08059.05373a1.565,1.565,0,0,0-2-.586v-2.61a1.565,1.565,0,0,0-3.129,0v2.941a2.682,2.682,0,0,0-2.236,2.646v1.341a5.811,5.811,0,0,0,5.811,5.807h.447a5.811,5.811,0,0,0,5.811-5.811h0V16.912a1.564,1.564,0,0,0-2.469-1.274Zm1.578,3.285a4.917,4.917,0,0,1-4.917,4.917h-.447a4.917,4.917,0,0,1-4.917-4.917V17.582a1.788,1.788,0,0,1,1.341-1.725v2.619a.447.447,0,1,0,.894,0V11.995a.6705.6705,0,0,1,1.341,0h0v4.023a.447.447,0,0,0,.894,0,.6705.6705,0,1,1,1.341,0h0v.447a.447.447,0,1,0,.894,0,.671.671,0,0,1,1.341,0v.447a.447.447,0,0,0,.894,0,.6705.6705,0,0,1,1.341,0Z"/></svg>