<svg xmlns="http://www.w3.org/2000/svg" viewBox="0 0 16.696 16.696"><defs><style>.a{fill:#bf2604;}</style></defs><path class="a" d="M8.348,0a8.35,8.35,0,1,0,.004,0Zm0,15.617A6.9,6.9,0,0,1,1.3183,8.84918q-.00476-.25067.0087-.50118A6.791,6.791,0,0,1,7.763,1.21963q.29227-.01492.585-.00463a6.913,6.913,0,0,1,7.17163,6.64431q.00933.24425.00137.48869a7.033,7.033,0,0,1-6.79152,7.26646Q8.53882,15.62091,8.348,15.617Z" transform="translate(-0.004 0)"/><path class="a" d="M9.6,12.104H8.913V6.678c0-.231-.334-.417-.565-.417H7.513a.41751.41751,0,1,0,0,.835h.286v5.009h-.7a.437.437,0,0,0-.439.417.531.531,0,0,0,.439.515h2.5c.231,0,.414-.285.414-.515a.414.414,0,0,0-.41-.418Z" transform="translate(-0.004 0)"/><path class="a" d="M9.186,4.389A1.049,1.049,0,1,1,8.137,3.34h0A1.049,1.049,0,0,1,9.186,4.389Z" transform="translate(-0.004 0)"/></svg>