<svg xmlns="http://www.w3.org/2000/svg" viewBox="0 0 21.102 21.09795"><defs><style>.a{fill:#a5810f;}.b{fill:#ffd54f;}</style></defs><path class="a" d="M20.918,4.953,17.149,1.184a.629.629,0,0,0-1.073.443V3.512H7.91A6.909,6.909,0,0,0,1,10.42v.002a.628.628,0,0,0,.628.628H4.141a.628.628,0,0,0,.628-.628h0A3.14,3.14,0,0,1,7.908,7.281h8.168V9.165a.629.629,0,0,0,1.073.445l3.769-3.769A.62848.62848,0,0,0,20.918,4.953Z" transform="translate(0 -0.00052)"/><path class="a" d="M20.473,11.05H17.961a.628.628,0,0,0-.628.628,3.14,3.14,0,0,1-3.139,3.141H6.026V12.935a.628.628,0,0,0-1.073-.443L1.184,16.258a.629.629,0,0,0,0,.888l3.769,3.769a.629.629,0,0,0,1.073-.445V18.588h8.166a6.909,6.909,0,0,0,6.91-6.908v-.002a.628.628,0,0,0-.628-.628Z" transform="translate(0 -0.00052)"/><path class="b" d="M19.918,3.953,16.149.184a.629.629,0,0,0-1.073.443V2.512H6.91A6.909,6.909,0,0,0,0,9.42v.002a.628.628,0,0,0,.628.628H3.141a.628.628,0,0,0,.628-.628h0A3.14,3.14,0,0,1,6.908,6.281h8.168V8.165a.629.629,0,0,0,1.073.445l3.769-3.769A.62848.62848,0,0,0,19.918,3.953Z" transform="translate(0 -0.00052)"/><path class="b" d="M19.473,10.05H16.961a.628.628,0,0,0-.628.628,3.14,3.14,0,0,1-3.139,3.141H5.026V11.935a.628.628,0,0,0-1.073-.443L.184,15.258a.629.629,0,0,0,0,.888l3.769,3.769a.629.629,0,0,0,1.073-.445V17.588h8.166a6.909,6.909,0,0,0,6.91-6.908v-.002a.628.628,0,0,0-.628-.628Z" transform="translate(0 -0.00052)"/></svg>