<svg xmlns="http://www.w3.org/2000/svg" xmlns:xlink="http://www.w3.org/1999/xlink" viewBox="0 0 27.62402 21.50117"><defs><style>.a{fill:url(#a);}.b{fill:url(#b);}.c{fill:#fff;}.d{fill:#464040;}</style><linearGradient id="a" x1="-244.00315" y1="1285.99429" x2="-245.10215" y2="1285.99429" gradientTransform="matrix(1.04293, 4.18294, 4.18294, -1.04293, -5102.97613, 2381.73725)" gradientUnits="userSpaceOnUse"><stop offset="0" stop-color="#b5adb6"/><stop offset="0.511" stop-color="#918291"/><stop offset="1" stop-color="#554e56"/></linearGradient><linearGradient id="b" x1="-91.7781" y1="1313.77041" x2="-93.6781" y2="1313.77041" gradientTransform="matrix(0.69504, 2.78766, 2.78766, -0.69504, -3577.06768, 1190.6193)" xlink:href="#a"/></defs><path class="a" d="M23.35015,17.2376l-1.32928,2.21229L19.0073,17.63916l1.32928-2.2123Z" transform="translate(-2.06276 -2.06534)"/><path class="b" d="M20.2777,18.40249A9.79946,9.79946,0,0,0,21.607,16.1902l-1.2704-.76334-1.32928,2.2123Z" transform="translate(-2.06276 -2.06534)"/><path class="c" d="M21.26175,9.45258A9.742,9.742,0,0,0,2.35651,14.16619l.015.06015.045.18048.01282.05142.01645.066a9.74556,9.74556,0,0,0,18.816-5.07164ZM5.1335,13.4738a6.881,6.881,0,1,1,13.3532-3.32932l.01331.05336.01621.065A6.88,6.88,0,0,1,5.1531,13.54l-.01669-.067Z" transform="translate(-2.06276 -2.06534)"/><path class="d" d="M29.32277,22.331a2.547,2.547,0,0,1-3.82228.63763L21.0802,19.25673a.757.757,0,0,1-.1614-.96976l.89176-1.47454a.757.757,0,0,1,.93105-.31253l5.34994,2.15783A2.547,2.547,0,0,1,29.32277,22.331Z" transform="translate(-2.06276 -2.06534)"/><path class="d" d="M21.81056,16.81243,20.922,18.28721a.757.757,0,0,0,.15825.96952l.58929.49514.61959-1.0202a.757.757,0,0,1,.932-.31276L28.56959,20.575a2.53,2.53,0,0,1,1.08652.836,2.548,2.548,0,0,0-1.56577-2.754l-5.35067-2.15661A.757.757,0,0,0,21.81056,16.81243Z" transform="translate(-2.06276 -2.06534)"/></svg>