<svg xmlns="http://www.w3.org/2000/svg" viewBox="0 0 24.95889 22.08452"><defs><style>.a{fill:#469a09;}.b{fill:#fafafa;}.c{fill:#464040;}.d{fill:#ffd54f;}</style></defs><path class="a" d="M10.43,0A10.442,10.442,0,0,0,0,10.43v9.778a.652.652,0,0,0,.652.652H10.43A10.43,10.43,0,0,0,10.43,0Z"/><path class="b" d="M11.082,13.033H5.867a.652.652,0,1,1,0-1.3h5.215a.652.652,0,1,1,0,1.3Z"/><path class="b" d="M14.993,9.122H5.867a.652.652,0,0,1,0-1.3h9.126a.652.652,0,0,1,0,1.3Z"/><path class="c" d="M24.432,15.431l-6.856-4.525a1.16,1.16,0,0,0-1.8.968V13.99h-5.541a1.116,1.116,0,0,0-1.116,1.116v2.586a1.116,1.116,0,0,0,1.116,1.116H15.782v2.116a1.16,1.16,0,0,0,1.8.968l6.856-4.525a1.16,1.16,0,0,0,0-1.936Z"/><path class="d" d="M24.432,14.431,17.576,9.906a1.16,1.16,0,0,0-1.8.968V12.99h-5.541a1.116,1.116,0,0,0-1.116,1.116v2.586a1.116,1.116,0,0,0,1.116,1.116H15.782v2.116a1.16,1.16,0,0,0,1.8.968l6.856-4.525a1.16,1.16,0,0,0,0-1.936Z"/></svg>