<?xml version="1.0" encoding="utf-8"?>
<!-- Generator: Adobe Illustrator 24.3.0, SVG Export Plug-In . SVG Version: 6.00 Build 0)  -->
<svg version="1.1" id="Layer_1" xmlns="http://www.w3.org/2000/svg" xmlns:xlink="http://www.w3.org/1999/xlink" x="0px" y="0px"
	 viewBox="0 0 40 40" style="enable-background:new 0 0 40 40;" xml:space="preserve">
<style type="text/css">
	.st0{fill:#469A09;}
</style>
<g transform="matrix(1, 0, 0, 1, 0, 0)">
	<path class="st0" d="M19,37.5c2.5,0,4.9-0.5,7.2-1.5c2.2-1,4.2-2.3,5.9-4c1.7-1.7,3.1-3.7,4-5.9c1-2.3,1.5-4.7,1.4-7.2
		c0-2.5-0.5-4.9-1.4-7.2c-0.9-2.2-2.3-4.2-4-5.9c-1.7-1.7-3.7-3.1-5.9-4c-2.3-1-4.7-1.5-7.2-1.4c-2.4,0-4.9,0.5-7.1,1.4
		C9.7,2.9,7.7,4.3,6,6c-1.7,1.7-3.1,3.7-4,5.9c-1,2.3-1.5,4.7-1.4,7.2c0,2.5,0.5,4.9,1.5,7.2c1,2.2,2.3,4.2,4,5.9
		c1.7,1.7,3.7,3.1,5.9,4C14.1,37,16.6,37.5,19,37.5z M28.6,19c0,0.5-0.2,0.9-0.6,1.3l-6.3,6.3c-0.3,0.3-0.7,0.4-1.1,0.4
		c-0.4,0-0.8-0.1-1-0.4c-0.3-0.3-0.4-0.7-0.4-1.1c0-0.4,0.2-0.8,0.5-1.1l2.3-2.2l2.2-1.8l-3.9,0.2h-9.4c-0.4,0-0.8-0.1-1.1-0.4
		c-0.3-0.3-0.4-0.7-0.4-1.1c0-0.4,0.1-0.8,0.4-1.1c0.3-0.3,0.7-0.4,1.1-0.4h9.4l3.9,0.2l-2.2-1.8l-2.3-2.2c-0.3-0.3-0.5-0.7-0.5-1.1
		c0-0.4,0.1-0.8,0.4-1c0.3-0.3,0.6-0.4,1-0.4c0.4,0,0.8,0.1,1.1,0.4l6.3,6.3C28.4,18.1,28.6,18.5,28.6,19L28.6,19z"/>
</g>
</svg>
