<?xml version="1.0" encoding="utf-8"?>
<!-- Generator: Adobe Illustrator 24.3.0, SVG Export Plug-In . SVG Version: 6.00 Build 0)  -->
<svg version="1.1" id="Layer_1" xmlns="http://www.w3.org/2000/svg" xmlns:xlink="http://www.w3.org/1999/xlink" x="0px" y="0px"
	 viewBox="0 0 20.7 14.6" style="enable-background:new 0 0 20.7 14.6;" xml:space="preserve">
<path d="M19.4,10.9c-0.3-4.2-3.3-7.6-7.4-8.3c0.4-0.9,0-2-0.9-2.4c-0.9-0.4-2,0-2.4,0.9c-0.2,0.5-0.2,1,0,1.5
	c-4.1,0.8-7.1,4.2-7.4,8.3H0v0.6c0,0.8,0.3,1.6,0.9,2.2c0.6,0.6,1.4,0.9,2.2,0.9h14.6c0.8,0,1.6-0.3,2.2-0.9
	c0.6-0.6,0.9-1.3,0.9-2.1v-0.6L19.4,10.9z M9.7,1.8c0-0.3,0.3-0.6,0.6-0.6c0.3,0,0.6,0.3,0.6,0.6s-0.3,0.6-0.6,0.6
	C10,2.4,9.7,2.2,9.7,1.8z M10.4,3.6c4.1,0,7.5,3.2,7.9,7.3H2.5C2.8,6.8,6.2,3.6,10.4,3.6L10.4,3.6z M17.6,13.3H3.1
	c-0.8,0-1.5-0.5-1.8-1.2h18.1C19.1,12.9,18.4,13.3,17.6,13.3L17.6,13.3z"/>
</svg>
