<svg xmlns="http://www.w3.org/2000/svg" viewBox="0 0 34.25397 30.38126"><defs><style>.a{fill:#469a09;}.b{fill:#ffd54f;}</style></defs><path class="a" d="M10.54691,23.426a3.5613,3.5613,0,0,1-2.386-.887,3.15525,3.15525,0,0,1-1.05908-2.06494h6.88989A3.155,3.155,0,0,1,12.93265,22.539,3.5613,3.5613,0,0,1,10.54691,23.426Zm3.821-4.477H1.73392C.66385,18.94894,0,18.406,0,17.531c0-1.036.9419-1.97,1.853-2.873l.23291-.23206c.719-.73.926-2.19995,1.042-3.68a12.96556,12.96556,0,0,1,1.042-5.255,5.41565,5.41565,0,0,1,3.14209-2.9,3.369,3.369,0,0,1,3.23511-2.59,3.15583,3.15583,0,0,1,2.06494.75,3.81184,3.81184,0,0,1,1.168,1.84,5.41737,5.41737,0,0,1,3.14307,2.9,12.95673,12.95673,0,0,1,1.042,5.255c.03808.481.09009,1.046.18506,1.592a9.53253,9.53253,0,0,0-3.782,6.611Z" transform="translate(-0.00003 -0.00074)"/><path class="b" d="M24.791,30.382a9.4665,9.4665,0,1,0-9.473-9.47A9.53,9.53,0,0,0,24.791,30.382Zm-.023-4.87a.833.833,0,0,1-.84-.937V21.762h-2.96c-.566,0-.957-.3-.957-.83a.84.84,0,0,1,.957-.86h2.959V17.093a.829.829,0,0,1,.84-.937.843.843,0,0,1,.859.938v2.978h2.969a.8519.8519,0,1,1,.001,1.689H25.631v2.813a.843.843,0,0,1-.863.938Z" transform="translate(-0.00003 -0.00074)"/></svg>