<?xml version="1.0" encoding="utf-8"?>
<!-- Generator: Adobe Illustrator 24.3.0, SVG Export Plug-In . SVG Version: 6.00 Build 0)  -->
<svg version="1.1" id="Layer_1" xmlns="http://www.w3.org/2000/svg" xmlns:xlink="http://www.w3.org/1999/xlink" x="0px" y="0px"
	 viewBox="0 0 37 35" style="enable-background:new 0 0 37 35;" xml:space="preserve">
<style type="text/css">
	.st0{fill:#FFFFFF;}
	.st1{fill:#235A0A;}
	.st2{fill:#469A21;}
</style>
<path class="st0" d="M18.5,0C28.7,0,37,7.8,37,17.5S28.7,35,18.5,35S0,27.2,0,17.5S8.3,0,18.5,0z"/>
<path class="st1" d="M30.6,15.1l-7.5-7.8c-0.7-0.7-1.7-0.1-1.7,0.9v4.1C14.5,12.4,9,14.1,9,21.9c0.1,3,1.4,5.9,3.6,7.9
	c0.6,0.5,1.4-0.1,1.2-1c-1.9-7.5,0.9-9.4,7.6-9.6v4.5c0,1.1,1,1.6,1.7,0.9l7.6-7.8C31.1,16.5,31.1,15.7,30.6,15.1z"/>
<path class="st2" d="M29.6,14.1l-7.5-7.8c-0.7-0.7-1.7-0.1-1.7,0.9v4.1C13.5,11.4,8,13.1,8,20.9c0.1,3,1.4,5.9,3.6,7.9
	c0.6,0.5,1.4-0.1,1.2-1c-1.9-7.5,0.9-9.4,7.6-9.6v4.5c0,1.1,1,1.6,1.7,0.9l7.6-7.8C30.1,15.5,30.1,14.7,29.6,14.1z"/>
</svg>
