<svg xmlns="http://www.w3.org/2000/svg" viewBox="0 0 20.00364 19.35366"><defs><style>.a{fill:#2f6c02;}.b{fill:#469a09;}</style></defs><path class="a" d="M1.981,19.179a.9.9,0,0,0,.824.126.945.945,0,0,0,.628-.41c0-4.553,2.1-7.262,4.029-7.613H9.23a7.84992,7.84992,0,0,0,.251,2.369,1.991,1.991,0,0,0,1.368.859c.515.063.9-.331,1.21-.516l7.659-5.48c.28-.17.236-1.032.255-1.359C7.983,5.29.629,12.975,1.981,19.179Z" transform="translate(-0.00079 0.00016)"/><path class="b" d="M19.515,5.751l-8-5.586A.881.881,0,0,0,10.508.151,1.208,1.208,0,0,0,10,1.164V3.491c-.384,0-1.689-.021-2.061.037A8.5,8.5,0,0,0,1,8.729a11.294,11.294,0,0,0,.146,9.6.947.947,0,0,0,1.125.539,1.149,1.149,0,0,0,.74-1.124c0-5.3,3.06-7.273,4.99-7.273h2v1.862a1.208,1.208,0,0,0,.508,1.012.881.881,0,0,0,1.007-.014l8-5.586a1.268,1.268,0,0,0,0-2Z" transform="translate(-0.00079 0.00016)"/></svg>