<svg xmlns="http://www.w3.org/2000/svg" viewBox="0 0 63.338 63.338"><defs><style>.a{fill:#aaa6a6;}</style></defs><path class="a" d="M50.759,2H14.579A12.593,12.593,0,0,0,2,14.579v36.18A12.593,12.593,0,0,0,14.579,63.338h36.18A12.593,12.593,0,0,0,63.338,50.759V14.579A12.593,12.593,0,0,0,50.759,2ZM34.428,14.134a8.923,8.923,0,0,1,6.547-3.628A8.9,8.9,0,0,1,38.82,17.17c-2.906,3.492-6.208,2.92-6.208,2.92S31.992,17.344,34.428,14.134Zm6.005,38c-2.436,0-4.329-1.642-6.9-1.642-2.615,0-5.211,1.7-6.9,1.7-4.843,0-10.961-10.483-10.961-18.91,0-8.291,5.179-12.64,10.036-12.64,3.158,0,5.608,1.821,7.25,1.821,1.409,0,4.025-1.937,7.429-1.937a9.3,9.3,0,0,1,8.165,4.17,9.053,9.053,0,0,0-4.509,7.9,9.283,9.283,0,0,0,5.617,8.485s-3.924,11.055-9.227,11.055Z"/><path d="M48.759,0H12.579A12.593,12.593,0,0,0,0,12.579v36.18A12.593,12.593,0,0,0,12.579,61.338h36.18A12.593,12.593,0,0,0,61.338,48.759V12.579A12.593,12.593,0,0,0,48.759,0ZM32.428,12.134a8.923,8.923,0,0,1,6.547-3.628A8.9,8.9,0,0,1,36.82,15.17c-2.906,3.492-6.208,2.92-6.208,2.92S29.992,15.344,32.428,12.134Zm6.005,38c-2.436,0-4.329-1.642-6.9-1.642-2.615,0-5.211,1.7-6.9,1.7-4.843,0-10.961-10.483-10.961-18.91,0-8.291,5.179-12.64,10.036-12.64,3.158,0,5.608,1.821,7.25,1.821,1.409,0,4.025-1.937,7.429-1.937a9.3,9.3,0,0,1,8.165,4.17,9.053,9.053,0,0,0-4.509,7.9,9.283,9.283,0,0,0,5.617,8.485s-3.924,11.055-9.227,11.055Z"/></svg>