<svg xmlns="http://www.w3.org/2000/svg" viewBox="0 0 63.853 63.855"><defs><style>.a{fill:#aaa6a6;}.b{fill:#fff;}</style></defs><path class="a" d="M50.833,63.855H15.022A13.022,13.022,0,0,1,2.002,50.833V15.022A13.022,13.022,0,0,1,15.022,2H50.833A13.022,13.022,0,0,1,63.855,15.022V50.833A13.022,13.022,0,0,1,50.833,63.855ZM15.002,25.676V43.718a4.5,4.5,0,0,0,4.489,4.49h27.53a4.5,4.5,0,0,0,4.489-4.49V25.675L33.916,37.06a1.221,1.221,0,0,1-1.322,0ZM19.49,18a4.483,4.483,0,0,0-4.421,3.821L33.255,33.588,51.442,21.821A4.484,4.484,0,0,0,47.02,18Z" transform="translate(-0.002)"/><path class="b" d="M48.833,61.855H13.022A13.022,13.022,0,0,1,.002,48.833V13.022A13.022,13.022,0,0,1,13.022,0H48.833A13.022,13.022,0,0,1,61.855,13.022V48.833A13.022,13.022,0,0,1,48.833,61.855ZM13.002,23.676V41.718a4.5,4.5,0,0,0,4.489,4.49h27.53a4.5,4.5,0,0,0,4.489-4.49V23.675L31.916,35.06a1.221,1.221,0,0,1-1.322,0ZM17.49,16a4.483,4.483,0,0,0-4.421,3.821L31.255,31.588,49.442,19.821A4.484,4.484,0,0,0,45.02,16Z" transform="translate(-0.002)"/></svg>