<svg xmlns="http://www.w3.org/2000/svg" viewBox="0 0 63.855 63.855"><defs><style>.a{fill:#aaa6a6;}.b{fill:#fff;}.c{fill:#1e78ff;}.d{fill:#00b450;}.e{fill:#ffb400;}.f{fill:#e60014;}</style></defs><path class="a" d="M15.022,2H50.833A13.022,13.022,0,0,1,63.855,15.022V50.833A13.022,13.022,0,0,1,50.833,63.855H15.022A13.022,13.022,0,0,1,2,50.833V15.022A13.022,13.022,0,0,1,15.022,2Z"/><path class="b" d="M13.022,0H48.833A13.022,13.022,0,0,1,61.855,13.022V48.833A13.022,13.022,0,0,1,48.833,61.855H13.022A13.022,13.022,0,0,1,0,48.833V13.022A13.022,13.022,0,0,1,13.022,0Z"/><path class="c" d="M52.742,31.665c0-.84-.039-1.683-.118-2.521a2.152,2.152,0,0,0-2.143-1.945H33.77a2.156,2.156,0,0,0-2.16,2.152h0v4.158a2.157,2.157,0,0,0,2.156,2.156h9.725a10.178,10.178,0,0,1-4.4,6.685h0a5.494,5.494,0,0,0,5.494,5.494H46.18C50.349,44.017,52.742,38.358,52.742,31.665Z"/><path class="d" d="M31.613,53.158a21.054,21.054,0,0,0,14.581-5.311l-7.088-5.5A13.343,13.343,0,0,1,19.27,35.375H17.62a5.665,5.665,0,0,0-5.665,5.664h0A22,22,0,0,0,31.613,53.158Z"/><path class="e" d="M19.262,35.374a13.169,13.169,0,0,1,0-8.422h0a5.665,5.665,0,0,0-5.664-5.665H11.955a22.024,22.024,0,0,0,0,19.755Z"/><path class="f" d="M31.613,17.865a11.974,11.974,0,0,1,7.018,2.137,2.119,2.119,0,0,0,2.747-.216c.987-.936,2.284-2.233,3.306-3.255a2.156,2.156,0,0,0-.207-3.232A21.341,21.341,0,0,0,31.613,9.165,22,22,0,0,0,11.954,21.29l7.309,5.664A13.156,13.156,0,0,1,31.613,17.865Z"/></svg>