<svg xmlns="http://www.w3.org/2000/svg" viewBox="0 0 63.339 63.338"><defs><style>.a{fill:#aaa6a6;}.b{fill:#475993;}</style></defs><path class="a" d="M55.072,2H10.265a8.265,8.265,0,0,0-8.267,8.263v44.81a8.265,8.265,0,0,0,8.265,8.265h22.1l.035-21.919H26.707a1.344,1.344,0,0,1-1.344-1.338l-.027-7.065a1.344,1.344,0,0,1,1.339-1.349h5.689V24.84c0-7.923,4.839-12.237,11.906-12.237h5.8a1.344,1.344,0,0,1,1.344,1.344h0V19.9a1.344,1.344,0,0,1-1.343,1.344H46.512c-3.843,0-4.588,1.826-4.588,4.507v5.91h8.445a1.344,1.344,0,0,1,1.334,1.5l-.837,7.065a1.344,1.344,0,0,1-1.334,1.186h-7.57l-.038,21.919H55.072a8.265,8.265,0,0,0,8.265-8.265V10.265A8.266,8.266,0,0,0,55.072,2Z" transform="translate(0.002 0)"/><path class="b" d="M53.072,0H8.265A8.265,8.265,0,0,0-.002,8.263v44.81a8.265,8.265,0,0,0,8.265,8.265h22.1l.035-21.919H24.707a1.344,1.344,0,0,1-1.344-1.338l-.027-7.065a1.344,1.344,0,0,1,1.339-1.349h5.689V22.84c0-7.923,4.839-12.237,11.906-12.237h5.8a1.344,1.344,0,0,1,1.344,1.344h0V17.9a1.344,1.344,0,0,1-1.343,1.344H44.512c-3.843,0-4.588,1.826-4.588,4.507v5.91h8.445a1.344,1.344,0,0,1,1.334,1.5l-.837,7.065a1.344,1.344,0,0,1-1.334,1.186h-7.57l-.038,21.919H53.072a8.265,8.265,0,0,0,8.265-8.265V8.265A8.266,8.266,0,0,0,53.072,0Z" transform="translate(0.002 0)"/></svg>