<svg xmlns="http://www.w3.org/2000/svg" viewBox="0 0 28.798 13.62699"><defs><style>.a{opacity:0.464;}.b{fill:#469a21;}.c{fill:#5b5353;}.d{fill:#3a312a;}</style></defs><g class="a"><path class="b" d="M29.574,7.722h.01V3.861A1.17,1.17,0,0,0,28.415,2.69H2.34A1.17,1.17,0,0,0,1.169,3.859V7.722h.032a1.589,1.589,0,1,1,0,3.178H1.169v3.861a1.17,1.17,0,0,0,1.17,1.17H28.413a1.17,1.17,0,0,0,1.171-1.169V10.901h-.01a1.589,1.589,0,1,1,0-3.178Z" transform="translate(-0.97699 -2.49801)"/><path class="c" d="M29.584,7.912a.191.191,0,0,0,.191-.191h0V3.861a1.363,1.363,0,0,0-1.362-1.362H6.462a.191.191,0,0,0-.02767.381.18791.18791,0,0,0,.02767,0H28.413a.981.981,0,0,1,.98.98V7.538a1.78,1.78,0,0,0,0,3.541v3.679a.981.981,0,0,1-.98.98H2.34a.981.981,0,0,1-.98-.98V11.083a1.78,1.78,0,0,0,0-3.546V3.862a.981.981,0,0,1,.98-.98H6.462c.105,0-.133-.085-.133-.191s.238-.191.133-.191H2.34A1.363,1.363,0,0,0,.978,3.862V7.723a.194.194,0,0,0,.068.144.2.2,0,0,0,.154.046,1.4,1.4,0,0,1-.009,2.8.191.191,0,0,0-.21261.16661L.977,10.902v3.861a1.363,1.363,0,0,0,1.362,1.362H28.413a1.363,1.363,0,0,0,1.362-1.362v-3.86a.2.2,0,0,0-.2-.191,1.4,1.4,0,1,1,.01-2.8h0Z" transform="translate(-0.97699 -2.49801)"/><path class="d" d="M22.114,2.498a.191.191,0,0,0-.191.191v.509a.191.191,0,1,0,.381,0V2.689A.191.191,0,0,0,22.114,2.498Z" transform="translate(-0.97699 -2.49801)"/><path class="d" d="M22.114,11.436a.191.191,0,0,0-.191.191v.936a.191.191,0,1,0,.381,0v-.936A.191.191,0,0,0,22.114,11.436Zm0-1.873a.191.191,0,0,0-.191.191v.936a.191.191,0,1,0,.381,0V9.75A.191.191,0,0,0,22.114,9.563Zm0,3.746a.191.191,0,0,0-.191.191v.936a.191.191,0,0,0,.381,0V13.5A.191.191,0,0,0,22.114,13.309Zm0-5.619a.191.191,0,0,0-.191.191v.936a.191.191,0,1,0,.381,0V7.881A.191.191,0,0,0,22.114,7.69Zm0-1.873a.191.191,0,0,0-.191.191v.936a.191.191,0,1,0,.381,0V6.008A.191.191,0,0,0,22.114,5.817Zm0-1.873a.191.191,0,0,0-.191.191v.936a.191.191,0,1,0,.381,0V4.135A.191.191,0,0,0,22.114,3.944Z" transform="translate(-0.97699 -2.49801)"/><path class="d" d="M22.114,15.187a.191.191,0,0,0-.191.191v.509a.191.191,0,0,0,.381,0v-.509A.191.191,0,0,0,22.114,15.187Z" transform="translate(-0.97699 -2.49801)"/><path class="d" d="M20.25,14.281H14.402a.191.191,0,1,0,0,.381H20.25a.191.191,0,1,0,.02766-.381A.18777.18777,0,0,0,20.25,14.281Z" transform="translate(-0.97699 -2.49801)"/><path class="d" d="M20.25,12.967H14.402a.191.191,0,0,0,0,.381H20.25a.191.191,0,0,0,0-.381Z" transform="translate(-0.97699 -2.49801)"/><path class="d" d="M24.529,8.728a.191.191,0,0,0-.191.191v5.848a.191.191,0,1,0,.381,0V8.919A.191.191,0,0,0,24.529,8.728Z" transform="translate(-0.97699 -2.49801)"/><path class="d" d="M25.842,8.728a.191.191,0,0,0-.191.191v5.848a.191.191,0,1,0,.381.02766.18777.18777,0,0,0,0-.02766V8.919A.191.191,0,0,0,25.842,8.728Z" transform="translate(-0.97699 -2.49801)"/><rect class="c" x="22.96" y="1.76099" width="1.949" height="1.949"/><path class="c" d="M25.881,4.073H23.932a.191.191,0,0,0-.191.191h0V6.212a.191.191,0,0,0,.191.191h1.949a.191.191,0,0,0,.191-.191h0V4.264a.191.191,0,0,0-.191-.191ZM25.69,6.022H24.122V4.454H25.69Z" transform="translate(-0.97699 -2.49801)"/><path class="d" d="M17.893,9.361H5.345c-.18,0-.325.085-.325.191s.145.191.325.191H17.893c.18,0,.325-.085.325-.191S18.073,9.361,17.893,9.361Z" transform="translate(-0.97699 -2.49801)"/><path class="d" d="M18.869,6.821H4.38c-.207,0-.375.085-.375.191s.168.191.375.191H18.869c.207,0,.375-.085.375-.191S19.08,6.821,18.869,6.821Z" transform="translate(-0.97699 -2.49801)"/><path class="d" d="M18.869,4.661H4.38c-.207,0-.375.085-.375.191s.168.191.375.191H18.869c.207,0,.375-.085.375-.191S19.08,4.661,18.869,4.661Z" transform="translate(-0.97699 -2.49801)"/><path class="c" d="M10.954,13.147H4.789a.693.693,0,0,0,0,1.386h6.165a.693.693,0,0,0,0-1.386Z" transform="translate(-0.97699 -2.49801)"/><path class="c" d="M10.951,12.953H4.786a.884.884,0,0,0,0,1.768h6.165a.884.884,0,0,0,0-1.768Zm0,1.386H4.786a.5.5,0,0,1,0-1h6.165a.5.5,0,0,1,0,1Z" transform="translate(-0.97699 -2.49801)"/></g></svg>