<svg xmlns="http://www.w3.org/2000/svg" viewBox="0 0 45.67699 6.7928"><defs><style>.a{fill:#761d09;}.b{fill:#bf2604;}</style></defs><path class="a" d="M3.413,6.774c1.8,0,2.673-.9,2.673-1.953,0-2.313-3.663-1.512-3.663-2.673,0-.4.333-.72,1.2-.72a3.55787,3.55787,0,0,1,1.746.495L5.816.816A4.22592,4.22592,0,0,0,3.629.258C1.838.258.974,1.149.974,2.22c0,2.34,3.663,1.53,3.663,2.709,0,.387-.351.675-1.215.675a3.70606,3.70606,0,0,1-2.079-.657L.848,6.045A4.49005,4.49005,0,0,0,3.413,6.774Zm6.183,0a3.26,3.26,0,0,0,3.44164-3.06764q.00546-.09509.00536-.19036A3.26,3.26,0,0,0,9.78636.25262Q9.69113.25252,9.596.258A3.26,3.26,0,0,0,6.15436,3.32562Q6.1489,3.42071,6.149,3.516A3.26,3.26,0,0,0,9.40562,6.77935Q9.50087,6.77946,9.596,6.774Zm0-1.242a1.922,1.922,0,0,1-1.97265-1.87q-.00195-.073.00165-.146A1.922,1.922,0,0,1,9.45,1.50163q.073-.0036.146-.00164a1.922,1.922,0,0,1,1.97265,1.87q.002.073-.00165.146A1.922,1.922,0,0,1,9.742,5.53034Q9.66907,5.53394,9.596,5.532Zm4.005,1.134h4.617V5.478H15.059V.366H13.601Zm4.9,0h2.862c2.061,0,3.474-1.242,3.474-3.15S23.42.366,21.359.366H18.496Zm1.458-1.2v-3.9h1.332a1.88,1.88,0,0,1,2.07,1.953,1.88,1.88,0,0,1-2.074,1.947Zm10.49,1.308a3.26,3.26,0,0,0,3.44163-3.06764q.00548-.09509.00537-.19036A3.26,3.26,0,0,0,30.63936.25262Q30.54412.25252,30.449.258a3.26,3.26,0,0,0-3.44163,3.06763q-.00546.09509-.00537.19037a3.26,3.26,0,0,0,3.25663,3.26336Q30.35387,6.77946,30.449,6.774Zm0-1.242a1.922,1.922,0,0,1-1.97264-1.87q-.002-.073.00164-.146a1.922,1.922,0,0,1,1.825-2.01436q.073-.0036.146-.00165a1.922,1.922,0,0,1,1.97265,1.87q.002.073-.00165.146a1.922,1.922,0,0,1-1.825,2.01435Q30.52207,5.53394,30.449,5.532Zm6.8,1.242a2.609,2.609,0,0,0,2.853-2.88V.366H38.666V3.84c0,1.2-.513,1.692-1.4,1.692s-1.4-.495-1.4-1.692V.366h-1.47V3.894a2.609,2.609,0,0,0,2.857,2.88Zm4.954-.108h1.458V1.554h2.016V.366h-5.49V1.554h2.016Z" transform="translate(0 0.00547)"/><path class="b" d="M2.565,6.516c1.8,0,2.673-.9,2.673-1.953,0-2.313-3.663-1.512-3.663-2.673,0-.4.333-.72,1.2-.72a3.558,3.558,0,0,1,1.746.495L4.968.558A4.22592,4.22592,0,0,0,2.781,0C.99,0,.126.891.126,1.962c0,2.34,3.663,1.53,3.663,2.709,0,.387-.351.675-1.215.675A3.706,3.706,0,0,1,.495,4.689L0,5.787A4.49005,4.49005,0,0,0,2.565,6.516Zm6.183,0a3.26,3.26,0,0,0,3.44163-3.06763q.00548-.09509.00537-.19037A3.26,3.26,0,0,0,8.93837-.00538Q8.84313-.00547,8.748,0A3.26,3.26,0,0,0,5.30637,3.06762Q5.3009,3.16271,5.301,3.258A3.26,3.26,0,0,0,8.55763,6.52136Q8.65288,6.52145,8.748,6.516Zm0-1.242a1.922,1.922,0,0,1-1.97265-1.87q-.002-.073.00165-.146A1.922,1.922,0,0,1,8.602,1.24364q.073-.0036.146-.00165a1.922,1.922,0,0,1,1.97265,1.87q.002.073-.00165.146A1.922,1.922,0,0,1,8.894,5.27234Q8.82108,5.27594,8.748,5.274Zm4.005,1.134H17.37V5.22H14.211V.108H12.753Zm4.9,0h2.862c2.061,0,3.474-1.242,3.474-3.15S22.572.108,20.511.108H17.648Zm1.458-1.2v-3.9h1.332a1.88,1.88,0,0,1,2.07,1.953,1.88,1.88,0,0,1-2.074,1.947Zm10.49,1.308a3.26,3.26,0,0,0,3.44163-3.06763q.00548-.09509.00537-.19037A3.26,3.26,0,0,0,29.79137-.00538Q29.69612-.00547,29.601,0a3.26,3.26,0,0,0-3.44163,3.06763q-.00546.09509-.00537.19037a3.26,3.26,0,0,0,3.25663,3.26337Q29.50588,6.52145,29.601,6.516Zm0-1.242a1.922,1.922,0,0,1-1.97265-1.87q-.002-.073.00165-.146a1.922,1.922,0,0,1,1.825-2.01435q.073-.0036.146-.00165a1.922,1.922,0,0,1,1.97265,1.87q.002.073-.00165.146a1.922,1.922,0,0,1-1.825,2.01435Q29.67408,5.27594,29.601,5.274Zm6.8,1.242a2.609,2.609,0,0,0,2.853-2.88V.108H37.818V3.582c0,1.2-.513,1.692-1.4,1.692s-1.4-.495-1.4-1.692V.108h-1.47V3.636a2.609,2.609,0,0,0,2.857,2.88Zm4.954-.108h1.458V1.296h2.016V.108h-5.49V1.296h2.016Z" transform="translate(0 0.00547)"/></svg>