<svg xmlns="http://www.w3.org/2000/svg" viewBox="0 0 45.67699 13.62699"><defs><style>.a{opacity:0.464;}.b{fill:#469a21;}.c{fill:#5b5353;}.d{fill:#3a312a;}.e{fill:#761d09;}.f{fill:#bf2604;}</style></defs><g class="a"><path class="b" d="M36.344,7.722h.01V3.861A1.17,1.17,0,0,0,35.185,2.69H9.11A1.17,1.17,0,0,0,7.939,3.859V7.722h.032a1.589,1.589,0,1,1,0,3.178H7.939v3.861a1.17,1.17,0,0,0,1.17,1.17H35.183a1.17,1.17,0,0,0,1.171-1.169V10.901h-.01a1.589,1.589,0,1,1,0-3.178Z" transform="translate(0 -2.49801)"/><path class="c" d="M36.354,7.912a.191.191,0,0,0,.191-.191h0V3.861a1.363,1.363,0,0,0-1.362-1.362H13.232a.191.191,0,0,0-.02767.381.18791.18791,0,0,0,.02767,0H35.183a.981.981,0,0,1,.98.98V7.538a1.78,1.78,0,0,0,0,3.541v3.679a.981.981,0,0,1-.98.98H9.11a.981.981,0,0,1-.98-.98V11.083a1.78,1.78,0,0,0,0-3.546V3.862a.981.981,0,0,1,.98-.98h4.122c.105,0-.133-.085-.133-.191s.238-.191.133-.191H9.11A1.363,1.363,0,0,0,7.748,3.862V7.723a.194.194,0,0,0,.068.144.2.2,0,0,0,.154.046,1.4,1.4,0,0,1-.009,2.8.191.191,0,0,0-.21261.16661L7.747,10.902v3.861a1.363,1.363,0,0,0,1.362,1.362H35.183a1.363,1.363,0,0,0,1.362-1.362v-3.86a.2.2,0,0,0-.2-.191,1.4,1.4,0,1,1,.01-2.8h0Z" transform="translate(0 -2.49801)"/><path class="d" d="M28.884,2.498a.191.191,0,0,0-.191.191v.509a.191.191,0,1,0,.381,0V2.689A.191.191,0,0,0,28.884,2.498Z" transform="translate(0 -2.49801)"/><path class="d" d="M28.884,11.436a.191.191,0,0,0-.191.191v.936a.191.191,0,1,0,.381,0v-.936A.191.191,0,0,0,28.884,11.436Zm0-1.873a.191.191,0,0,0-.191.191v.936a.191.191,0,1,0,.381,0V9.75A.191.191,0,0,0,28.884,9.563Zm0,3.746a.191.191,0,0,0-.191.191v.936a.191.191,0,0,0,.381,0V13.5A.191.191,0,0,0,28.884,13.309Zm0-5.619a.191.191,0,0,0-.191.191v.936a.191.191,0,1,0,.381,0V7.881A.191.191,0,0,0,28.884,7.69Zm0-1.873a.191.191,0,0,0-.191.191v.936a.191.191,0,1,0,.381,0V6.008A.191.191,0,0,0,28.884,5.817Zm0-1.873a.191.191,0,0,0-.191.191v.936a.191.191,0,1,0,.381,0V4.135A.191.191,0,0,0,28.884,3.944Z" transform="translate(0 -2.49801)"/><path class="d" d="M28.884,15.187a.191.191,0,0,0-.191.191v.509a.191.191,0,0,0,.381,0v-.509A.191.191,0,0,0,28.884,15.187Z" transform="translate(0 -2.49801)"/><path class="d" d="M27.02,14.281H21.172a.191.191,0,1,0,0,.381H27.02a.191.191,0,1,0,.02767-.381A.18791.18791,0,0,0,27.02,14.281Z" transform="translate(0 -2.49801)"/><path class="d" d="M27.02,12.967H21.172a.191.191,0,0,0,0,.381H27.02a.191.191,0,0,0,0-.381Z" transform="translate(0 -2.49801)"/><path class="d" d="M31.299,8.728a.191.191,0,0,0-.191.191v5.848a.191.191,0,1,0,.381,0V8.919A.191.191,0,0,0,31.299,8.728Z" transform="translate(0 -2.49801)"/><path class="d" d="M32.612,8.728a.191.191,0,0,0-.191.191v5.848a.191.191,0,1,0,.381.02766.18777.18777,0,0,0,0-.02766V8.919A.191.191,0,0,0,32.612,8.728Z" transform="translate(0 -2.49801)"/><rect class="c" x="30.70699" y="1.76099" width="1.949" height="1.949"/><path class="c" d="M32.651,4.073H30.702a.191.191,0,0,0-.191.191h0V6.212a.191.191,0,0,0,.191.191h1.949a.191.191,0,0,0,.191-.191h0V4.264a.191.191,0,0,0-.191-.191ZM32.46,6.022H30.892V4.454H32.46Z" transform="translate(0 -2.49801)"/><path class="d" d="M24.663,9.361H12.115c-.18,0-.325.085-.325.191s.145.191.325.191H24.663c.18,0,.325-.085.325-.191S24.843,9.361,24.663,9.361Z" transform="translate(0 -2.49801)"/><path class="d" d="M25.639,6.821H11.15c-.207,0-.375.085-.375.191s.168.191.375.191H25.639c.207,0,.375-.085.375-.191S25.85,6.821,25.639,6.821Z" transform="translate(0 -2.49801)"/><path class="d" d="M25.639,4.661H11.15c-.207,0-.375.085-.375.191s.168.191.375.191H25.639c.207,0,.375-.085.375-.191S25.85,4.661,25.639,4.661Z" transform="translate(0 -2.49801)"/><path class="c" d="M17.724,13.147H11.559a.693.693,0,1,0,0,1.386h6.165a.693.693,0,1,0,0-1.386Z" transform="translate(0 -2.49801)"/><path class="c" d="M17.721,12.953H11.556a.884.884,0,0,0,0,1.768h6.165a.884.884,0,0,0,0-1.768Zm0,1.386H11.556a.5.5,0,0,1,0-1h6.165a.5.5,0,0,1,0,1Z" transform="translate(0 -2.49801)"/></g><path class="e" d="M3.413,13.566c1.8,0,2.673-.9,2.673-1.953,0-2.313-3.663-1.512-3.663-2.673,0-.4.333-.72,1.2-.72a3.558,3.558,0,0,1,1.746.495l.447-1.107A4.22592,4.22592,0,0,0,3.629,7.05C1.838,7.05.974,7.941.974,9.012c0,2.34,3.663,1.53,3.663,2.709,0,.387-.351.675-1.215.675a3.70606,3.70606,0,0,1-2.079-.657L.848,12.837A4.49005,4.49005,0,0,0,3.413,13.566Zm6.183,0a3.26,3.26,0,0,0,3.44164-3.06763q.00546-.09508.00536-.19037A3.26,3.26,0,0,0,9.78636,7.04464Q9.69113,7.04455,9.596,7.05a3.26,3.26,0,0,0-3.44163,3.06763q-.00546.09508-.00537.19037a3.26,3.26,0,0,0,3.25663,3.26336Q9.50087,13.57148,9.596,13.566Zm0-1.242a1.922,1.922,0,0,1-1.97265-1.87q-.00195-.073.00165-.146A1.922,1.922,0,0,1,9.45,8.29366q.073-.0036.146-.00165a1.922,1.922,0,0,1,1.97265,1.87q.002.073-.00165.146a1.922,1.922,0,0,1-1.825,2.01435Q9.66907,12.326,9.596,12.324Zm4.005,1.134h4.617V12.27H15.059V7.158H13.601Zm4.9,0h2.862c2.061,0,3.474-1.242,3.474-3.15s-1.417-3.15-3.478-3.15H18.496Zm1.458-1.2v-3.9h1.332a1.88,1.88,0,0,1,2.07,1.953,1.88,1.88,0,0,1-2.074,1.947Zm10.49,1.308a3.26,3.26,0,0,0,3.44163-3.06763q.00548-.09508.00537-.19037a3.26,3.26,0,0,0-3.25663-3.26337q-.09524-.00009-.19037.00537a3.26,3.26,0,0,0-3.44163,3.06763q-.00546.09508-.00537.19037a3.26,3.26,0,0,0,3.25663,3.26336Q30.35387,13.57148,30.449,13.566Zm0-1.242a1.922,1.922,0,0,1-1.97264-1.87q-.002-.073.00164-.146a1.922,1.922,0,0,1,1.825-2.01435q.073-.0036.146-.00165a1.922,1.922,0,0,1,1.97265,1.87q.002.073-.00165.146a1.922,1.922,0,0,1-1.825,2.01435Q30.52207,12.326,30.449,12.324Zm6.8,1.242a2.609,2.609,0,0,0,2.853-2.88V7.158H38.666v3.474c0,1.2-.513,1.692-1.4,1.692s-1.4-.495-1.4-1.692V7.158h-1.47v3.528a2.609,2.609,0,0,0,2.857,2.88Zm4.954-.108h1.458V8.346h2.016V7.158h-5.49V8.346h2.016Z" transform="translate(0 -2.49801)"/><path class="f" d="M2.565,13.308c1.8,0,2.673-.9,2.673-1.953,0-2.313-3.663-1.512-3.663-2.673,0-.4.333-.72,1.2-.72a3.558,3.558,0,0,1,1.746.495L4.968,7.35a4.22611,4.22611,0,0,0-2.187-.558C.99,6.792.126,7.683.126,8.754c0,2.34,3.663,1.53,3.663,2.709,0,.387-.351.675-1.215.675a3.706,3.706,0,0,1-2.079-.657L0,12.579A4.49,4.49,0,0,0,2.565,13.308Zm6.183,0a3.26,3.26,0,0,0,3.44163-3.06763q.00548-.09508.00537-.19037A3.26,3.26,0,0,0,8.93837,6.78665q-.09524-.0001-.19037.00536A3.26,3.26,0,0,0,5.30637,9.85964Q5.3009,9.95473,5.301,10.05a3.26,3.26,0,0,0,3.25663,3.26337Q8.65288,13.31347,8.748,13.308Zm0-1.242a1.922,1.922,0,0,1-1.97265-1.87q-.002-.073.00165-.146A1.922,1.922,0,0,1,8.602,8.03566q.073-.0036.146-.00165a1.922,1.922,0,0,1,1.97265,1.87q.002.073-.00165.146a1.922,1.922,0,0,1-1.825,2.01435Q8.82108,12.068,8.748,12.066ZM12.753,13.2H17.37V12.012H14.211V6.9H12.753Zm4.9,0h2.862c2.061,0,3.474-1.242,3.474-3.15S22.572,6.9,20.511,6.9H17.648ZM19.111,12V8.1h1.332a1.88,1.88,0,0,1,2.07,1.953A1.88,1.88,0,0,1,20.439,12Zm10.49,1.308a3.26,3.26,0,0,0,3.44163-3.06763q.00548-.09508.00537-.19037a3.26,3.26,0,0,0-3.25663-3.26336q-.09525-.0001-.19037.00536a3.26,3.26,0,0,0-3.44163,3.06763q-.00546.09508-.00537.19037a3.26,3.26,0,0,0,3.25663,3.26337Q29.50588,13.31347,29.601,13.308Zm0-1.242a1.922,1.922,0,0,1-1.97265-1.87q-.002-.073.00165-.146a1.922,1.922,0,0,1,1.825-2.01435q.073-.0036.146-.00165a1.922,1.922,0,0,1,1.97265,1.87q.002.073-.00165.146a1.922,1.922,0,0,1-1.825,2.01435Q29.67408,12.068,29.601,12.066Zm6.8,1.242a2.609,2.609,0,0,0,2.853-2.88V6.9H37.818v3.474c0,1.2-.513,1.692-1.4,1.692s-1.4-.495-1.4-1.692V6.9h-1.47v3.528a2.609,2.609,0,0,0,2.857,2.88Zm4.954-.108h1.458V8.088h2.016V6.9h-5.49V8.088h2.016Z" transform="translate(0 -2.49801)"/></svg>