<?xml version="1.0" encoding="utf-8"?>
<!-- Generator: Adobe Illustrator 24.3.0, SVG Export Plug-In . SVG Version: 6.00 Build 0)  -->
<svg version="1.1" id="Layer_1" xmlns="http://www.w3.org/2000/svg" xmlns:xlink="http://www.w3.org/1999/xlink" x="0px" y="0px"
	 viewBox="0 0 50.7 22.6" style="enable-background:new 0 0 50.7 22.6;" xml:space="preserve">
<style type="text/css">
	.st0{fill:#469A21;}
	.st1{fill:#5B5353;}
	.st2{fill:#3A312A;}
</style>
<g transform="translate(-160.139 -275.8)">
	<g transform="translate(146.368 203.872)">
		<g transform="translate(14.94 74.619)">
			<path class="st0" d="M37.4,7L37.4,7l0-3.9c0-0.6-0.5-1.2-1.2-1.2c0,0,0,0,0,0H10.1C9.5,2,9,2.5,9,3.1c0,0,0,0,0,0V7h0
				c0.9,0,1.6,0.7,1.6,1.6c0,0.9-0.7,1.6-1.6,1.6l0,0h0V14c0,0.6,0.5,1.2,1.2,1.2c0,0,0,0,0,0h26.1c0.6,0,1.2-0.5,1.2-1.2
				c0,0,0,0,0,0v-3.9h0c-0.9,0-1.6-0.7-1.6-1.6C35.8,7.7,36.5,7,37.4,7L37.4,7z"/>
		</g>
		<g transform="translate(14.749 74.428)">
			<g transform="translate(0 0)">
				<path class="st1" d="M37.6,7.4c0.1,0,0.2-0.1,0.2-0.2l0,0V3.3c0-0.8-0.6-1.4-1.4-1.4h-22c-0.1,0-0.2,0.1-0.2,0.2
					s0.1,0.2,0.2,0.2c0,0,0,0,0,0h22c0.5,0,1,0.4,1,1V7c-1,0.1-1.7,1-1.6,2c0.1,0.8,0.7,1.5,1.6,1.6v3.7c0,0.5-0.4,1-1,1H10.3
					c-0.5,0-1-0.4-1-1v-3.7c1-0.1,1.7-1,1.6-1.9C10.9,7.8,10.2,7.1,9.3,7V3.3c0-0.5,0.4-1,1-1h4.1c0.1,0-0.1-0.1-0.1-0.2
					S14.6,2,14.4,2h-4.1C9.6,2,9,2.6,9,3.3v3.9C9,7.3,9,7.3,9,7.3c0,0,0.1,0.1,0.2,0c0.8,0,1.4,0.6,1.4,1.4s-0.6,1.4-1.4,1.4
					c-0.1,0-0.2,0.1-0.2,0.2c0,0,0,0,0,0v3.9c0,0.8,0.6,1.4,1.4,1.4h26.1c0.8,0,1.4-0.6,1.4-1.4v-3.9c0-0.1-0.1-0.2-0.2-0.2
					c-0.8,0-1.4-0.6-1.4-1.4C36.2,8,36.8,7.4,37.6,7.4L37.6,7.4L37.6,7.4z"/>
			</g>
		</g>
		<g transform="translate(35.695 74.428)">
			<g transform="translate(0 0)">
				<g transform="matrix(1, 0, 0, 1, -21.92, -2.5)">
					<path class="st2" d="M31.1,4.5c-0.1,0-0.2,0.1-0.2,0.2v0.5c0,0.1,0.1,0.2,0.2,0.2c0.1,0,0.2-0.1,0.2-0.2c0,0,0,0,0,0V4.7
						C31.3,4.6,31.2,4.5,31.1,4.5z"/>
				</g>
				<g transform="matrix(1, 0, 0, 1, -21.92, -2.5)">
					<path class="st2" d="M31.1,13.4c-0.1,0-0.2,0.1-0.2,0.2v0.9c0,0.1,0.1,0.2,0.2,0.2c0.1,0,0.2-0.1,0.2-0.2c0,0,0,0,0,0v-0.9
						C31.3,13.5,31.2,13.4,31.1,13.4z M31.1,11.5c-0.1,0-0.2,0.1-0.2,0.2v0.9c0,0.1,0.1,0.2,0.2,0.2c0.1,0,0.2-0.1,0.2-0.2
						c0,0,0,0,0,0v-0.9C31.3,11.6,31.2,11.5,31.1,11.5z M31.1,15.3c-0.1,0-0.2,0.1-0.2,0.2v0.9c0,0.1,0.1,0.2,0.2,0.2
						c0.1,0,0.2-0.1,0.2-0.2v-0.9C31.3,15.4,31.2,15.3,31.1,15.3z M31.1,9.7c-0.1,0-0.2,0.1-0.2,0.2v0.9c0,0.1,0.1,0.2,0.2,0.2
						c0.1,0,0.2-0.1,0.2-0.2c0,0,0,0,0,0V9.9C31.3,9.8,31.2,9.7,31.1,9.7z M31.1,7.8c-0.1,0-0.2,0.1-0.2,0.2v0.9
						c0,0.1,0.1,0.2,0.2,0.2c0.1,0,0.2-0.1,0.2-0.2c0,0,0,0,0,0V8C31.3,7.9,31.2,7.8,31.1,7.8z M31.1,5.9c-0.1,0-0.2,0.1-0.2,0.2V7
						c0,0.1,0.1,0.2,0.2,0.2c0.1,0,0.2-0.1,0.2-0.2c0,0,0,0,0,0V6.1C31.3,6,31.2,5.9,31.1,5.9z"/>
				</g>
				<g transform="matrix(1, 0, 0, 1, -21.92, -2.5)">
					<path class="st2" d="M31.1,17.2c-0.1,0-0.2,0.1-0.2,0.2v0.5c0,0.1,0.1,0.2,0.2,0.2c0.1,0,0.2-0.1,0.2-0.2v-0.5
						C31.3,17.2,31.2,17.2,31.1,17.2z"/>
				</g>
			</g>
		</g>
		<g transform="translate(27.982 86.209)">
			<g transform="translate(0 0)">
				<path class="st2" d="M15,2H9.2C9,2,9,2,8.9,2.2c0,0.1,0.1,0.2,0.2,0.2c0,0,0,0,0,0H15c0.1,0,0.2-0.1,0.2-0.2
					C15.2,2.1,15.1,2,15,2C15,2,15,2,15,2z"/>
			</g>
		</g>
		<g transform="translate(27.982 84.895)">
			<path class="st2" d="M15,2H9.2C9,2,9,2.1,9,2.2c0,0.1,0.1,0.2,0.2,0.2H15c0.1,0,0.2-0.1,0.2-0.2C15.2,2.1,15.1,2,15,2z"/>
		</g>
		<g transform="translate(38.11 80.658)">
			<g transform="matrix(1, 0, 0, 1, -24.34, -8.73)">
				<path class="st2" d="M33.5,10.7c-0.1,0-0.2,0.1-0.2,0.2v5.8c0,0.1,0.1,0.2,0.2,0.2s0.2-0.1,0.2-0.2c0,0,0,0,0,0v-5.8
					C33.7,10.8,33.6,10.7,33.5,10.7z"/>
			</g>
			<g transform="matrix(1, 0, 0, 1, -24.34, -8.73)">
				<path class="st2" d="M34.8,10.7c-0.1,0-0.2,0.1-0.2,0.2v5.8c0,0.1,0.1,0.2,0.2,0.2s0.2-0.1,0.2-0.2c0,0,0,0,0,0v-5.8
					C35,10.8,34.9,10.7,34.8,10.7z"/>
			</g>
		</g>
		<g transform="translate(37.708 76.187)">
			<g transform="translate(0 0)">
				<rect x="9" y="2" class="st1" width="1.9" height="1.9"/>
			</g>
		</g>
		<g transform="matrix(1, 0, 0, 1, 13.77, 71.93)">
			<path class="st1" d="M34.8,6h-1.9c-0.1,0-0.2,0.1-0.2,0.2l0,0v1.9c0,0.1,0.1,0.2,0.2,0.2l0,0h1.9c0.1,0,0.2-0.1,0.2-0.2l0,0V6.2
				C35,6.1,34.9,6,34.8,6L34.8,6z M34.7,8h-1.6V6.4h1.6V8z"/>
		</g>
		<g transform="translate(17.771 76.588)">
			<g transform="matrix(1, 0, 0, 1, -4, -4.66)">
				<path class="st2" d="M26.9,11.3H14.3c-0.2,0-0.3,0.1-0.3,0.2s0.1,0.2,0.3,0.2h12.5c0.2,0,0.3-0.1,0.3-0.2S27,11.3,26.9,11.3z"/>
			</g>
			<g transform="matrix(1, 0, 0, 1, -4, -4.66)">
				<path class="st2" d="M27.8,8.8H13.3C13.1,8.8,13,8.9,13,9s0.2,0.2,0.4,0.2h14.5c0.2,0,0.4-0.1,0.4-0.2S28,8.8,27.8,8.8z"/>
			</g>
			<g transform="matrix(1, 0, 0, 1, -4, -4.66)">
				<path class="st2" d="M27.8,6.6H13.3c-0.2,0-0.4,0.1-0.4,0.2S13.1,7,13.3,7h14.5c0.2,0,0.4-0.1,0.4-0.2S28,6.6,27.8,6.6z"/>
			</g>
		</g>
		<g transform="translate(17.867 85.075)">
			<g transform="translate(0 0)">
				<path class="st1" d="M15.8,2H9.7C9.3,2,9,2.3,9,2.7c0,0.4,0.3,0.7,0.7,0.7h6.2c0.4,0,0.7-0.3,0.7-0.7C16.5,2.3,16.2,2,15.8,2z"
					/>
			</g>
		</g>
		<g transform="translate(17.677 84.885)">
			<g transform="matrix(1, 0, 0, 1, -3.91, -12.96)">
				<path class="st1" d="M19.9,14.9h-6.2c-0.5,0-0.9,0.4-0.9,0.9c0,0.5,0.4,0.9,0.9,0.9h6.2c0.5,0,0.9-0.4,0.9-0.9
					C20.8,15.3,20.4,14.9,19.9,14.9z M19.9,16.3h-6.2c-0.3,0-0.5-0.2-0.5-0.5c0-0.3,0.2-0.5,0.5-0.5h6.2c0.3,0,0.5,0.2,0.5,0.5
					C20.4,16.1,20.2,16.3,19.9,16.3z"/>
			</g>
		</g>
	</g>
</g>
</svg>
