<svg xmlns="http://www.w3.org/2000/svg" viewBox="0 0 32.50584 32.50492"><defs><style>.a{fill:#ffd54f;}</style></defs><path class="a" d="M14.478,25.339a1.809,1.809,0,1,0,1.809-1.809A1.809,1.809,0,0,0,14.478,25.339ZM14.478,0V7.235h3.618V3.766A12.661,12.661,0,1,1,3.618,16.287a12.534,12.534,0,0,1,2.858-8l9.811,9.811,2.553-2.553L6.531,3.242v.039A16.252,16.252,0,1,0,16.288,0Zm12.67,16.287a1.809,1.809,0,1,0-1.809,1.809A1.809,1.809,0,0,0,27.148,16.287Zm-21.721,0a1.81,1.81,0,1,0-.002,0Z" transform="translate(-0.07 0.00004)"/></svg>