<?xml version="1.0" encoding="utf-8"?>
<!-- Generator: Adobe Illustrator 24.3.0, SVG Export Plug-In . SVG Version: 6.00 Build 0)  -->
<svg version="1.1" id="Layer_1" xmlns="http://www.w3.org/2000/svg" xmlns:xlink="http://www.w3.org/1999/xlink" x="0px" y="0px"
	 viewBox="0 0 15.7 15.7" style="enable-background:new 0 0 15.7 15.7;" xml:space="preserve">
<path d="M7.8,15.7c4.3,0,7.8-3.5,7.8-7.8S12.2,0,7.8,0S0,3.5,0,7.8c0,0,0,0,0,0C0,12.2,3.5,15.7,7.8,15.7z M7.8,1
	c3.8,0,6.8,3,6.8,6.8s-3,6.8-6.8,6.8S1,11.6,1,7.8S4.1,1,7.8,1C7.8,1,7.8,1,7.8,1z"/>
<path d="M10.1,10.3c0.2,0.2,0.6,0.1,0.7-0.1c0,0,0,0,0,0C11,10,11,9.7,10.8,9.5L8.4,7.6V3.7c0-0.3-0.2-0.5-0.5-0.5
	c-0.3,0-0.5,0.2-0.5,0.5v4.2c0,0.2,0.1,0.3,0.2,0.4L10.1,10.3z"/>
</svg>
