<svg xmlns="http://www.w3.org/2000/svg" viewBox="0 0 34.36959 34.50717"><defs><style>.a{fill:#469a09;}.b{fill:#db5250;}</style></defs><path class="a" d="M25.036,24.131C25,24.131,7.168,5.59,6.652,6.212a10.243,10.243,0,0,0-2.15,6.4v4.184a10.062,10.062,0,0,1-3.584,7.7,2.626,2.626,0,0,0,1.708,4.621H27.387C28.836,29.123,30.4,28.593,25.036,24.131Z" transform="translate(0.00046 0.00117)"/><path class="a" d="M5.041,23.015V13.204a10.99992,10.99992,0,0,1,.425-3.038L24.448,29.148H3.863a1.4,1.4,0,0,1-1.084-2.3C3.7,25.311,5.041,25.043,5.041,23.015Z" transform="translate(0.00046 0.00117)"/><path class="a" d="M14.243,2.234V1.721c0-.677,1.159-1.226,1.836-1.226s1.869.549,1.869,1.226v.513c5.511.612,9.169,5.3,9.169,10.969v8.206L9.822,4.114A8.78987,8.78987,0,0,1,14.243,2.234Z" transform="translate(0.00046 0.00117)"/><path class="a" d="M16.258,34.506a5.636,5.636,0,0,0,5.514-4.5H10.744A5.637,5.637,0,0,0,16.258,34.506Z" transform="translate(0.00046 0.00117)"/><path class="b" d="M2.476.358A1.226,1.226,0,0,1,4.20983.35783L4.21.358l29.8,30.555a1.22612,1.22612,0,1,1-1.734,1.734L2.476,2.093A1.226,1.226,0,0,1,2.47583.35917L2.476.359Z" transform="translate(0.00046 0.00117)"/></svg>