<svg xmlns="http://www.w3.org/2000/svg" viewBox="0 0 27.14316 27"><defs><style>.a{fill:#cbcac7;opacity:0.762;isolation:isolate;}.b{fill:#f0efeb;}.c{fill:#e4363a;}.d{fill:#004a87;}.e{fill:#008286;}.f{fill:#fff;}</style></defs><path class="a" d="M13.894.502A13.249,13.249,0,1,1,.645,13.751h0A13.249,13.249,0,0,1,13.894.502Z" transform="translate(0.00016)"/><path class="b" d="M25.385,12.822A12.758,12.758,0,0,1,12.692,25.644a12.6,12.6,0,0,1-9.4-4.2,12.82706,12.82706,0,0,1-3.168-6.8A13.02929,13.02929,0,0,1,0,12.822,12.758,12.758,0,0,1,12.692,0,12.758,12.758,0,0,1,25.385,12.822Z" transform="translate(0.00016)"/><path class="c" d="M11.556,4.748a1.558,1.558,0,0,0-.83-.191H4.246c-.182,0-.364.019-.547.029-.066.09-.178.08-.266.118A2.249,2.249,0,0,0,2.057,6.292C1.946,6.743.94,11.11.127,14.641a12.826,12.826,0,0,0,3.168,6.8c1.166,0,2.333,0,3.5.015a2.365,2.365,0,0,0,2.246-1.8c.4-1.833.838-3.657,1.26-5.485q.913-3.952,1.826-7.9A1.348,1.348,0,0,0,11.556,4.748Z" transform="translate(0.00016)"/><path class="d" d="M8.101,6.293A2.249,2.249,0,0,1,9.477,4.705c.089-.038.2-.028.266-.118.182-.01.364-.028.546-.029H16.77a1.556,1.556,0,0,1,.83.191,1.348,1.348,0,0,1,.57,1.517l-1.825,7.9c-.422,1.828-.859,3.652-1.26,5.485a2.365,2.365,0,0,1-2.246,1.8c-2.123-.031-4.247-.009-6.371-.011-.188,0-.375-.017-.563-.026a.229.229,0,0,0-.152-.073,1.3,1.3,0,0,1-.791-1.092,4.394,4.394,0,0,1,.162-1.054S7.911,7.061,8.101,6.293Z" transform="translate(0.00016)"/><path class="e" d="M15.529,6.293a2.249,2.249,0,0,1,1.376-1.588c.089-.038.2-.028.266-.118.182-.01.364-.028.546-.029h6.481a1.5559,1.5559,0,0,1,.83.191,1.348,1.348,0,0,1,.57,1.517l-1.825,7.9c-.422,1.828-.859,3.652-1.26,5.485a2.365,2.365,0,0,1-2.246,1.8c-2.123-.031-4.247-.009-6.371-.011-.188,0-.375-.017-.563-.026a.229.229,0,0,0-.152-.073,1.3,1.3,0,0,1-.792-1.092,4.393,4.393,0,0,1,.162-1.054S15.339,7.061,15.529,6.293Z" transform="translate(0.00016)"/><path class="f" d="M16.404,12.368h-.519c-.072,0-.1.02-.117.1-.083.432-.173.863-.257,1.295-.015.08-.043.11-.129.106-.2-.008-.409-.008-.613,0-.1,0-.126-.02-.1-.122.13-.621.254-1.243.381-1.864.139-.68.28-1.359.415-2.039.017-.084.046-.107.129-.106h1.734a1.67345,1.67345,0,0,1,.408.05.784.784,0,0,1,.641.741,1.673,1.673,0,0,1-1,1.734,1.58816,1.58816,0,0,1-.611.111Zm.039-.72h.319a.675.675,0,0,0,.7337-.61069L17.498,11.002c.052-.334-.054-.5-.379-.543a7.1919,7.1919,0,0,0-.884-.017c-.046,0-.057.025-.065.066-.07.354-.14.708-.216,1.061-.015.069,0,.082.064.081.137-.005.278-.003.42-.003Z" transform="translate(0.00016)"/><path class="f" d="M22.172,12.989a.2.2,0,0,0,.068-.112c.21-.492.42-.982.626-1.476a.123.123,0,0,1,.138-.092q.2655.009.531,0c.1,0,.1.021.062.1q-.667,1.358-1.33,2.719a6.03569,6.03569,0,0,1-.648,1.131,1.453,1.453,0,0,1-.9.609.89006.89006,0,0,1-.383.017c.014-.122.027-.243.042-.365a.077.077,0,0,1,.049-.073,1.561,1.561,0,0,0,.73-.717c.121-.2.215-.414.318-.624a.24985.24985,0,0,0,.014-.139q-.102-1.2705-.2-2.542c-.008-.092.016-.117.1-.115.2,0,.409,0,.614-.007.1,0,.133.022.135.129C22.145,11.95,22.16,12.462,22.172,12.989Z" transform="translate(0.00016)"/><path class="f" d="M19.529,13.844c-.04,0-.081,0-.1-.042-.055-.1-.126-.083-.216-.045a1.506,1.506,0,0,1-.537.125.615.615,0,0,1-.68008-.54216L17.993,13.305a1.973,1.973,0,0,1,.444-1.521.909.909,0,0,1,1.263-.129c.075.055.13.074.2,0l.136-.142a.078.078,0,0,1,.054-.024l.594-.02c.1,0,.091.037.056.2q-.231,1.05-.458,2.1c-.016.073-.04.1-.115.095C20.06,13.855,19.635,13.844,19.529,13.844Zm.171-1.361a.73664.73664,0,0,0-.06-.3.282.282,0,0,0-.4-.143.50484.50484,0,0,0-.153.109,1.12411,1.12411,0,0,0-.315.9.4919.4919,0,0,0,.064.2.277.277,0,0,0,.36837.13326L19.207,13.381a.54609.54609,0,0,0,.2-.145,1.17106,1.17106,0,0,0,.291-.755Z" transform="translate(0.00016)"/><path class="f" d="M10.677,11.25a.916.916,0,0,1,.992.716,1.655,1.655,0,0,1-1.2,1.928,1.26305,1.26305,0,0,1-.809-.065.828.828,0,0,1-.5-.675,1.769,1.769,0,0,1,.79-1.717A1.45091,1.45091,0,0,1,10.677,11.25Zm-.863,1.556c0,.329.11.508.326.547a.6.6,0,0,0,.653-.253,1.352,1.352,0,0,0,.228-.915.4.4,0,0,0-.392-.374.616.616,0,0,0-.6.3,1.49992,1.49992,0,0,0-.216.695Z" transform="translate(0.00016)"/><path class="f" d="M13.877,11.256a1.077,1.077,0,0,0-.93.376,2.11449,2.11449,0,0,1,.043-.232c.024-.082-.007-.094-.078-.091-.145,0-.291.006-.437,0-.075,0-.1.023-.114.1-.055.282-.375,1.892-.473,2.37-.015.072,0,.089.071.087h.46c.082,0,.107-.029.119-.1.032-.188.254-1.285.3-1.461a.611.611,0,0,1,.64-.49.279.279,0,0,1,.3.331,1.544,1.544,0,0,1-.03.2c-.094.479-.187.957-.285,1.435-.015.072,0,.089.071.087h.46c.082,0,.107-.029.119-.1.032-.188.073-.374.108-.561.076-.413.181-.822.233-1.239a.587.587,0,0,0-.577-.712Z" transform="translate(0.00016)"/><path class="f" d="M6.182,11.821a.608.608,0,0,0-.529.518c-.094.417-.171.839-.252,1.259-.051.262-.048.263-.315.263-.094,0-.189-.006-.283,0s-.1-.022-.082-.1c.106-.521.208-1.042.311-1.563.052-.261.106-.521.154-.782.014-.077.034-.117.125-.111a4.45992,4.45992,0,0,0,.448,0c.06,0,.076.02.063.076a1.60778,1.60778,0,0,0-.039.255,1.27829,1.27829,0,0,1,.132-.131,1.06905,1.06905,0,0,1,.783-.253.83512.83512,0,0,1,.112.017.583.583,0,0,1,.47378.67477L7.276,11.981c-.067.41-.154.818-.233,1.226-.035.183-.075.365-.107.548-.013.073-.034.109-.117.105-.149-.008-.3-.005-.448,0-.075,0-.1-.007-.08-.1q.158-.768.3-1.54C6.648,11.915,6.495,11.77,6.182,11.821Z" transform="translate(0.00016)"/><path class="f" d="M7.66,13.859a.074.074,0,0,1-.07377-.07425L7.588,13.769c.1-.475.2-.941.3-1.407.067-.314.137-.628.2-.943.016-.079.039-.115.127-.11h.5c.074,0,.092.012.074.093-.172.791-.339,1.582-.507,2.374-.009.043-.011.085-.075.084C8.027,13.858,7.848,13.859,7.66,13.859Z" transform="translate(0.00016)"/><path class="f" d="M8.955,10.382H8.398c-.045,0-.074.01-.084.06q-.048.245-.1.488c-.011.052,0,.072.056.07h.557c.045,0,.074-.01.084-.06q.048-.245.1-.488C9.022,10.401,9.01,10.381,8.955,10.382Z" transform="translate(0.00016)"/><path class="f" d="M2.396,13.948a1.88707,1.88707,0,0,1-.888-.183.975.975,0,0,1-.527-.82,3.384,3.384,0,0,1,.13-.964c.152-.758.312-1.514.463-2.272.02-.1.057-.134.159-.129.216.009.433.007.649,0,.09,0,.1.027.088.108q-.243,1.17-.482,2.342c-.033.163-.071.326-.094.49a.528.528,0,0,0,.509.655.967.967,0,0,0,1.12126-.78291q.00531-.02989.00874-.06009c.179-.886.363-1.771.543-2.657.013-.064.032-.1.1-.094h.72c.052,0,.079,0,.065.072-.2.958-.383,1.921-.6,2.875a1.724,1.724,0,0,1-1.508,1.377,1.52526,1.52526,0,0,1-.151.022C2.596,13.937,2.496,13.942,2.396,13.948Z" transform="translate(0.00016)"/></svg>