<svg xmlns="http://www.w3.org/2000/svg" viewBox="0 0 130.03002 172.82301"><defs><style>.a{fill:#469a09;}.b{fill:#285a03;}</style></defs><path class="a" d="M130.03,41.161v2.045H86.818V0h2.045a8.1,8.1,0,0,1,5.73,2.373l33.065,33.06A8.1,8.1,0,0,1,130.03,41.161ZM84.117,54.008a8.126,8.126,0,0,1-8.1-8.1V0H8.493a8.1,8.1,0,0,0-8.1,8.1V164.723a8.1,8.1,0,0,0,8.1,8.1H121.928a8.1,8.1,0,0,0,8.1-8.1h0V54.008Zm-45.729,5.4a16.2,16.2,0,1,1-16.2,16.2h0A16.2,16.2,0,0,1,38.388,59.408Zm70.22,81.011H22.183l.164-16.366,13.34-13.338a3.86,3.86,0,0,1,5.45862.05117q.05431.05535.10638.11283l13.341,13.338L89.539,89.276a4.052,4.052,0,0,1,5.729,0l13.34,13.338Z" transform="translate(0.00003 0)"/><path class="b" d="M62.712,26.715a21.52,21.52,0,0,1-39.1,9.914,10.17021,10.17021,0,0,1-3.859.76c-5.61,0-10.158-4.935-10.244-10.531A14.015,14.015,0,0,1,0,13.558C0,6.356,5.839,0,13.042,0H60.416c7.2,0,13.042,6.356,13.042,13.558A13.392,13.392,0,0,1,62.712,26.715Z" transform="translate(0.00003 0)"/><path class="a" d="M60.647,24.387a19.645,19.645,0,0,1-35.69,9.05,9.2839,9.2839,0,0,1-3.523.694c-5.121,0-9.273-4.505-9.351-9.613A12.794,12.794,0,0,1,3.399,12.377C3.399,5.802,8.73,0,15.304,0H35.225V18.585l-6.274-6.182a1.70521,1.70521,0,0,0-2.4,2.423h0l9.168,9.037h0a1.6659,1.6659,0,0,0,.537.354,1.62508,1.62508,0,0,0,.655.131,1.707,1.707,0,0,0,1.192-.485l9.168-9.037a1.70521,1.70521,0,0,0-2.4-2.423h0l-6.247,6.182V0H58.551c6.575,0,11.905,5.8,11.905,12.377A12.225,12.225,0,0,1,60.647,24.387Z" transform="translate(0.00003 0)"/></svg>