<svg xmlns="http://www.w3.org/2000/svg" viewBox="0 0 15.38001 11.82402"><defs><style>.a{fill:#bf2612;}.b{fill:#ffc733;}.c{fill:#fede3a;}.d{fill:#e7ad27;}.e{fill:#d1d3d4;}</style></defs><path class="a" d="M14.732,4.826a.649.649,0,0,0-.649.649h0a.617.617,0,0,0,.064.28c.008.017.021.038.03.055a.54146.54146,0,0,0,.1.123.468.468,0,0,0,.047.042.089.089,0,0,0,.025.017l-1.484,1.7-1.052-4a.87851.87851,0,0,0,.148-.051l.055-.03a.54167.54167,0,0,0,.123-.1.64175.64175,0,0,0,.11-.148.1506.1506,0,0,0,.017-.038.649.649,0,1,0-1.238-.271.636.636,0,0,0,.059.271c0,.013.013.025.017.038a.64175.64175,0,0,0,.11.148.69987.69987,0,0,0,.123.1l.025.013L9.755,6.889l-1.9-5.046c.017-.008.034-.013.051-.021a.647.647,0,0,0,.305-.305.62984.62984,0,0,0,.064-.28.65.65,0,0,0-1.3,0,.617.617,0,0,0,.064.28.647.647,0,0,0,.305.305.26257.26257,0,0,0,.051.021L5.546,6.749,4.007,3.62l.025-.013a.54115.54115,0,0,0,.123-.1.64231.64231,0,0,0,.11-.148.152.152,0,0,0,.017-.038A.649.649,0,1,0,3.044,3.05a.636.636,0,0,0,.059.271c0,.013.013.025.017.038a.642.642,0,0,0,.11.148.6938.6938,0,0,0,.123.1.34425.34425,0,0,0,.055.03.86942.86942,0,0,0,.148.051L2.517,7.695l-1.476-1.7c.008,0,.017-.013.025-.017a.4208.4208,0,0,0,.047-.042.69959.69959,0,0,0,.1-.123.34788.34788,0,0,0,.03-.055.62994.62994,0,0,0,.064-.28.65.65,0,0,0-1.3,0h0a.61687.61687,0,0,0,.064.28c.008.017.021.038.03.055a.54167.54167,0,0,0,.1.123.46093.46093,0,0,0,.047.042.635.635,0,0,0,.411.148h.03a8.81615,8.81615,0,0,1,.437,2.553H.575a.275.275,0,0,0-.276.274v.032l.013.064a.08546.08546,0,0,0,.013.03c.005.009.021.034.03.051s0,0,0,.008a.279.279,0,0,0,.212.1H.978v2.027H.567a.275.275,0,0,0-.276.274v.032l.013.064a.08546.08546,0,0,0,.013.03c.005.009.021.034.03.051s0,0,0,.008a.279.279,0,0,0,.212.1H14.684a.277.277,0,0,0,.276-.25v-.03a.275.275,0,0,0-.274-.276h-.413V9.236h.411a.277.277,0,0,0,.276-.25v-.03a.275.275,0,0,0-.274-.276H14.26a8.81588,8.81588,0,0,1,.437-2.553h.03a.635.635,0,0,0,.411-.148.42349.42349,0,0,0,.047-.042.69413.69413,0,0,0,.1-.123.34511.34511,0,0,0,.03-.055.62987.62987,0,0,0,.064-.28.645.645,0,0,0-.63694-.653Z" transform="translate(0.00001)"/><rect class="b" x="0.97501" y="8.358" width="13.302" height="2.582"/><rect class="c" x="2.86701" y="8.358" width="9.528" height="2.582"/><path class="b" d="M7.629.649,4.618,8.63h6.017Z" transform="translate(0.00001)"/><path class="c" d="M7.631.649,5.937,8.63H9.321Z" transform="translate(0.00001)"/><circle class="c" cx="7.62901" cy="0.649" r="0.649"/><path class="b" d="M7.629,1.032A.65.65,0,0,1,6.993.515.69418.69418,0,0,0,6.98.646.65.65,0,1,0,8.267.515.65.65,0,0,1,7.629,1.032Z" transform="translate(0.00001)"/><path class="b" d="M.31,4.559a8.89983,8.89983,0,0,1,.8,4.071H3.846Z" transform="translate(0.00001)"/><path class="b" d="M3.732,2.464l-1.62,6.17H6.764Z" transform="translate(0.00001)"/><path class="c" d="M3.732,2.464,3.256,8.631H6.767Z" transform="translate(0.00001)"/><path class="c" d="M.31,4.559C1.001,6.013,1.896,8.63,1.896,8.63h1.95Z" transform="translate(0.00001)"/><circle class="c" cx="3.69801" cy="2.464" r="0.649"/><path class="b" d="M3.698,2.849a.65.65,0,0,1-.636-.517.69325.69325,0,0,0-.013.131.65.65,0,1,0,1.287-.131A.651.651,0,0,1,3.698,2.849Z" transform="translate(0.00001)"/><circle class="c" cx="0.64901" cy="4.881" r="0.649"/><path class="b" d="M.649,5.266a.65.65,0,0,1-.636-.517A.69492.69492,0,0,0,0,4.88a.649.649,0,1,0,1.285-.131A.654.654,0,0,1,.649,5.266Z" transform="translate(0.00001)"/><path class="b" d="M15.07,4.559a8.9,8.9,0,0,0-.8,4.071H11.535Z" transform="translate(0.00001)"/><path class="b" d="M11.644,2.464l1.62,6.17H8.612Z" transform="translate(0.00001)"/><path class="c" d="M11.644,2.464l.479,6.17H8.612Z" transform="translate(0.00001)"/><path class="c" d="M15.071,4.559C14.38,6.013,13.485,8.63,13.485,8.63H11.534Z" transform="translate(0.00001)"/><circle class="c" cx="11.67801" cy="2.464" r="0.649"/><path class="b" d="M11.678,2.849a.65.65,0,0,0,.636-.517.69161.69161,0,0,1,.013.131.65.65,0,1,1-1.287-.131A.651.651,0,0,0,11.678,2.849Z" transform="translate(0.00001)"/><circle class="c" cx="14.73101" cy="4.881" r="0.649"/><path class="b" d="M14.731,5.266a.65.65,0,0,0,.636-.517.69081.69081,0,0,1,.013.131.65.65,0,0,1-1.3,0h0a.65779.65779,0,0,1,.013-.131A.651.651,0,0,0,14.731,5.266Z" transform="translate(0.00001)"/><path class="c" d="M14.688,8.633H.564a.275.275,0,0,1-.276-.274V8.357h0a.275.275,0,0,1,.274-.276H14.689a.275.275,0,0,1,.276.274v.002h0a.272.272,0,0,1-.26792.276Z" transform="translate(0.00001)"/><path class="d" d="M.564,8.634H14.689a.275.275,0,0,0,.276-.274V8.358H.288a.275.275,0,0,0,.274.276Z" transform="translate(0.00001)"/><path class="c" d="M14.688,11.216H.564a.275.275,0,0,1-.276-.274V10.94h0a.275.275,0,0,1,.274-.276H14.689a.275.275,0,0,1,.276.274v.002h0a.275.275,0,0,1-.274.276Z" transform="translate(0.00001)"/><path class="d" d="M.564,11.216H14.689a.275.275,0,0,0,.276-.274V10.94H.288A.278.278,0,0,0,.564,11.216Z" transform="translate(0.00001)"/><rect class="e" x="0.97501" y="8.633" width="13.302" height="0.254"/></svg>