<svg xmlns="http://www.w3.org/2000/svg" viewBox="0 0 27.19224 27.01914"><defs><style>.a{fill:#cbcac7;opacity:0.762;isolation:isolate;}.b{fill:#f0efeb;}.c{fill:#191b73;}</style></defs><path class="a" d="M13.933.513A13.249,13.249,0,1,1,.684,13.762h0A13.249,13.249,0,0,1,13.933.513Z" transform="translate(0.01024 0.00814)"/><path class="b" d="M25.644,12.822a12.84943,12.84943,0,0,1-.119,1.748,12.67307,12.67307,0,0,1-.589,2.462A12.825,12.825,0,0,1,.5,9.262Q.6,8.928.71,8.6a12.824,12.824,0,0,1,24.934,4.219Z" transform="translate(0.01024 0.00814)"/><path class="c" d="M8.734,17.025h2.164l1.353-8.424H10.088Z" transform="translate(0.01024 0.00814)"/><path class="c" d="M9.216,8.602l-3.4,8.415H3.526l-1.67-6.23A2.273,2.273,0,0,0,.638,9.324L.501,9.262q.1-.334.209-.659H2.454A1.414,1.414,0,0,1,3.862,9.688l.731,3.572-.009-.023.222,1.088,2.12-5.724h2.29Z" transform="translate(0.01024 0.00814)"/><path class="c" d="M24.291,8.627H22.617a1.073,1.073,0,0,0-1.132.678l-3.214,7.721h2.271l.625-1.672h2.541l.324,1.678h.9a12.67378,12.67378,0,0,0,.589-2.462Zm-2.494,5.04c.045,0,.872-2.728.872-2.728l.659,2.728Z" transform="translate(0.01024 0.00814)"/><path class="c" d="M16.615,12.033c-.756-.373-1.22-.625-1.22-1.007.009-.347.392-.7,1.247-.7a3.76583,3.76583,0,0,1,1.612.312l.2.088.294-1.763a5.46063,5.46063,0,0,0-1.942-.347c-2.137,0-3.641,1.111-3.651,2.7-.018,1.173,1.077,1.823,1.9,2.214.837.4,1.122.66,1.122,1.016-.009.546-.677.8-1.3.8a4.40006,4.40006,0,0,1-2.031-.434l-.285-.13-.3,1.832a6.75809,6.75809,0,0,0,2.413.435c2.271,0,3.749-1.094,3.767-2.788C18.438,13.326,17.863,12.614,16.615,12.033Z" transform="translate(0.01024 0.00814)"/></svg>