<?xml version="1.0" encoding="utf-8"?>
<!-- Generator: Adobe Illustrator 24.3.0, SVG Export Plug-In . SVG Version: 6.00 Build 0)  -->
<svg version="1.1" id="Layer_1" xmlns="http://www.w3.org/2000/svg" xmlns:xlink="http://www.w3.org/1999/xlink" x="0px" y="0px"
	 viewBox="0 0 35.3 32.2" style="enable-background:new 0 0 35.3 32.2;" xml:space="preserve">
<style type="text/css">
	.st0{fill:#898787;}
</style>
<g transform="translate(-27 -229)">
	<g transform="translate(27.801 208.266)">
		<path class="st0" d="M34.5,27.4c0.1-1.3-0.8-2.5-2-2.9l0.3-0.8c0.3-0.7-0.1-1.5-0.8-1.8l-1.4-0.5c-0.7-0.3-1.5,0.1-1.8,0.8
			l-0.6,1.6c-0.3,0.1-0.5,0.3-0.6,0.6c-0.9,1.5-1.7,3-2.4,4.6c-7.6-0.6-15.2-0.6-22.8,0.1c-0.9,0.1-1.7,0.8-1.8,1.7
			c-0.8,6.6-0.8,13.2,0,19.8c0.1,0.9,0.9,1.7,1.8,1.8c0.4,0,0.7,0.1,1.1,0.1h0C3.7,52.5,4,52.3,4,52c0-0.3-0.2-0.5-0.5-0.5
			c-0.3,0-0.7-0.1-1-0.1c-0.5,0-0.8-0.4-0.9-0.9c-0.7-6.5-0.7-13.1,0-19.6c0.1-0.5,0.4-0.8,0.9-0.9c7.4-0.6,14.8-0.7,22.3-0.1
			c-0.3,0.7-0.6,1.4-0.8,2.2c-1,2.7-1.6,5.4-2,8.3c-0.2,2.2,0,3.6,0.7,4.2l-0.1,0.2c-0.1,0.3,0,0.6,0.3,0.7c0.3,0.1,0.6,0,0.7-0.3
			l0.1-0.2c0.9,0,2-1,3.2-2.9c0.2-0.4,0.5-0.7,0.7-1.1c0,3.2-0.2,6.4-0.6,9.5c-0.1,0.5-0.4,0.8-0.9,0.9C18.5,52,11,52,3.5,51.5
			C3.2,51.5,4,51.8,4,52s-0.7,0.4-0.5,0.5c2.9,0.2,7.8,0.4,10.7,0.4c4,0,7.9-0.2,11.8-0.5c0.9-0.1,1.7-0.8,1.8-1.7
			c0.4-3.8,0.6-7.7,0.6-11.5c0.7-1.5,1.4-3.1,1.9-4.7c0.5-1.5,1-3,1.3-4.5c0.1-0.3-0.1-0.5-0.4-0.6s-0.5,0.1-0.6,0.4
			c-0.4,1.5-0.8,3-1.3,4.4c-0.4,1.2-0.9,2.4-1.4,3.4l-4.3-1.5c0.3-1.1,0.7-2.3,1.1-3.5c0.9-2.7,2.1-5.2,3.5-7.6
			c0.2-0.3,0.6-0.4,0.9-0.3l1.4,0.5c0.3,0.1,0.6,0.5,0.5,0.8c0,0.5-0.1,1.1-0.2,1.7l-0.4,2l0.6-0.4l0.4,0.6l0.4-2
			c0.1-0.6,0.2-1.3,0.2-1.8c0-0.2,0-0.4-0.1-0.6c0.8,0.3,1.3,1.1,1.2,1.9c0,1.3-1.1,3.8-2.1,5.9c-1.2,2.6-1.9,4.3-1.7,5.2
			c0.1,0.3,0.4,0.4,0.6,0.4s0.4-0.4,0.4-0.6l0,0c-0.2-0.6,0.8-2.8,1.6-4.5C33.3,31.3,34.5,28.9,34.5,27.4L34.5,27.4z M27.6,38.5
			c-0.5,1.1-1.1,2.1-1.7,3.1c-1.4,2.1-2.2,2.5-2.5,2.4s-0.7-0.9-0.5-3.4c0.1-1.2,0.3-2.4,0.6-3.5L27.6,38.5z M29.7,23.7
			c-0.1,0-0.2-0.1-0.3-0.1l0.4-1.1c0.1-0.2,0.3-0.3,0.5-0.2c0,0,0,0,0,0l1.4,0.5c0.2,0.1,0.3,0.3,0.2,0.5c0,0,0,0,0,0l-0.4,1.1
			c-0.1-0.1-0.2-0.1-0.3-0.1L29.7,23.7z"/>
		<path class="st0" d="M3.2,35.9c0.5,0,1,0.2,1.4,0.6c1.2,1,2.9,1,4.1,0c0.8-0.8,2-0.8,2.8,0c1.2,1,2.9,1,4.1,0c0.8-0.8,2-0.8,2.8,0
			c0.6,0.5,1.3,0.8,2,0.8c0.3,0,0.5-0.2,0.5-0.5c0-0.3-0.2-0.5-0.5-0.5c-0.5,0-1-0.2-1.4-0.6c-1.2-1-2.9-1-4.1,0
			c-0.8,0.8-2,0.8-2.8,0c-1.2-1-2.9-1-4.1,0c-0.8,0.8-2,0.8-2.8,0c-0.6-0.5-1.3-0.8-2-0.8c-0.3,0-0.5,0.2-0.5,0.5
			C2.7,35.7,2.9,35.9,3.2,35.9L3.2,35.9z"/>
		<path class="st0" d="M3.2,40.1c0.5,0,1,0.2,1.4,0.6c1.2,1,2.9,1,4.1,0c0.8-0.8,2-0.8,2.8,0c1.2,1,2.9,1,4.1,0c0.8-0.8,2-0.8,2.8,0
			c0.6,0.5,1.3,0.8,2,0.8c0.3,0,0.5-0.2,0.5-0.5s-0.2-0.5-0.5-0.5c-0.5,0-1-0.2-1.4-0.6c-1.2-1-2.9-1-4.1,0c-0.8,0.8-2,0.8-2.8,0
			c-1.2-1-2.9-1-4.1,0c-0.8,0.8-2,0.8-2.8,0c-0.6-0.5-1.3-0.8-2-0.8c-0.3,0-0.5,0.2-0.5,0.5S2.9,40.1,3.2,40.1L3.2,40.1z"/>
		<path class="st0" d="M3.2,44.3c0.5,0,1,0.2,1.4,0.6c1.2,1,2.9,1,4.1,0c0.8-0.8,2-0.8,2.8,0c0.6,0.5,1.3,0.8,2,0.8
			c0.3,0,0.5-0.2,0.5-0.5s-0.2-0.5-0.5-0.5c-0.5,0-1-0.2-1.4-0.6c-1.2-1-2.9-1-4.1,0c-0.8,0.8-2,0.8-2.8,0c-0.6-0.5-1.3-0.8-2-0.8
			c-0.3,0-0.5,0.2-0.5,0.5S2.9,44.3,3.2,44.3z"/>
	</g>
	<g transform="translate(27.001 207.666)">
		<path d="M34.5,27.4c0.1-1.3-0.8-2.5-2-2.9l0.3-0.8c0.3-0.7-0.1-1.5-0.8-1.8l-1.4-0.5c-0.7-0.3-1.5,0.1-1.8,0.8l-0.6,1.6
			c-0.3,0.1-0.5,0.3-0.6,0.6c-0.9,1.5-1.7,3-2.4,4.6c-7.6-0.6-15.2-0.6-22.8,0.1c-0.9,0.1-1.7,0.8-1.8,1.7c-0.8,6.6-0.8,13.2,0,19.8
			c0.1,0.9,0.9,1.7,1.8,1.8c0.4,0,0.7,0.1,1.1,0.1h0C3.7,52.5,4,52.3,4,52c0-0.3-0.2-0.5-0.5-0.5c-0.3,0-0.7-0.1-1-0.1
			c-0.5,0-0.8-0.4-0.9-0.9c-0.7-6.5-0.7-13.1,0-19.6c0.1-0.5,0.4-0.8,0.9-0.9c7.4-0.6,14.8-0.7,22.3-0.1c-0.3,0.7-0.6,1.4-0.8,2.2
			c-1,2.7-1.6,5.4-2,8.3c-0.2,2.2,0,3.6,0.7,4.2l-0.1,0.2c-0.1,0.3,0,0.6,0.3,0.7c0.3,0.1,0.6,0,0.7-0.3l0.1-0.2c0.9,0,2-1,3.2-2.9
			c0.2-0.4,0.5-0.7,0.7-1.1c0,3.2-0.2,6.4-0.6,9.5c-0.1,0.5-0.4,0.8-0.9,0.9C18.5,52,11,52,3.5,51.5C3.2,51.5,4,51.8,4,52
			s-0.7,0.4-0.5,0.5c2.9,0.2,7.8,0.4,10.7,0.4c4,0,7.9-0.2,11.8-0.5c0.9-0.1,1.7-0.8,1.8-1.7c0.4-3.8,0.6-7.7,0.6-11.5
			c0.7-1.5,1.4-3.1,1.9-4.7c0.5-1.5,1-3,1.3-4.5c0.1-0.3-0.1-0.5-0.4-0.6s-0.5,0.1-0.6,0.4c-0.4,1.5-0.8,3-1.3,4.4
			c-0.4,1.2-0.9,2.4-1.4,3.4l-4.3-1.5c0.3-1.1,0.7-2.3,1.1-3.5c0.9-2.7,2.1-5.2,3.5-7.6c0.2-0.3,0.6-0.4,0.9-0.3l1.4,0.5
			c0.3,0.1,0.6,0.5,0.5,0.8c0,0.5-0.1,1.1-0.2,1.7l-0.4,2l0.6-0.4l0.4,0.6l0.4-2c0.1-0.6,0.2-1.3,0.2-1.8c0-0.2,0-0.4-0.1-0.6
			c0.8,0.3,1.3,1.1,1.2,1.9c0,1.3-1.1,3.8-2.1,5.9c-1.2,2.6-1.9,4.3-1.7,5.2c0.1,0.3,0.4,0.4,0.6,0.4s0.4-0.4,0.4-0.6l0,0
			c-0.2-0.6,0.8-2.8,1.6-4.5C33.3,31.3,34.5,28.9,34.5,27.4L34.5,27.4z M27.6,38.5c-0.5,1.1-1.1,2.1-1.7,3.1
			c-1.4,2.1-2.2,2.5-2.5,2.4s-0.7-0.9-0.5-3.4c0.1-1.2,0.3-2.4,0.6-3.5L27.6,38.5z M29.7,23.7c-0.1,0-0.2-0.1-0.3-0.1l0.4-1.1
			c0.1-0.2,0.3-0.3,0.5-0.2c0,0,0,0,0,0l1.4,0.5c0.2,0.1,0.3,0.3,0.2,0.5c0,0,0,0,0,0l-0.4,1.1c-0.1-0.1-0.2-0.1-0.3-0.1L29.7,23.7z
			"/>
		<path d="M3.2,35.9c0.5,0,1,0.2,1.4,0.6c1.2,1,2.9,1,4.1,0c0.8-0.8,2-0.8,2.8,0c1.2,1,2.9,1,4.1,0c0.8-0.8,2-0.8,2.8,0
			c0.6,0.5,1.3,0.8,2,0.8c0.3,0,0.5-0.2,0.5-0.5c0-0.3-0.2-0.5-0.5-0.5c-0.5,0-1-0.2-1.4-0.6c-1.2-1-2.9-1-4.1,0
			c-0.8,0.8-2,0.8-2.8,0c-1.2-1-2.9-1-4.1,0c-0.8,0.8-2,0.8-2.8,0c-0.6-0.5-1.3-0.8-2-0.8c-0.3,0-0.5,0.2-0.5,0.5
			C2.7,35.7,2.9,35.9,3.2,35.9L3.2,35.9z"/>
		<path d="M3.2,40.1c0.5,0,1,0.2,1.4,0.6c1.2,1,2.9,1,4.1,0c0.8-0.8,2-0.8,2.8,0c1.2,1,2.9,1,4.1,0c0.8-0.8,2-0.8,2.8,0
			c0.6,0.5,1.3,0.8,2,0.8c0.3,0,0.5-0.2,0.5-0.5s-0.2-0.5-0.5-0.5c-0.5,0-1-0.2-1.4-0.6c-1.2-1-2.9-1-4.1,0c-0.8,0.8-2,0.8-2.8,0
			c-1.2-1-2.9-1-4.1,0c-0.8,0.8-2,0.8-2.8,0c-0.6-0.5-1.3-0.8-2-0.8c-0.3,0-0.5,0.2-0.5,0.5S2.9,40.1,3.2,40.1L3.2,40.1z"/>
		<path d="M3.2,44.3c0.5,0,1,0.2,1.4,0.6c1.2,1,2.9,1,4.1,0c0.8-0.8,2-0.8,2.8,0c0.6,0.5,1.3,0.8,2,0.8c0.3,0,0.5-0.2,0.5-0.5
			s-0.2-0.5-0.5-0.5c-0.5,0-1-0.2-1.4-0.6c-1.2-1-2.9-1-4.1,0c-0.8,0.8-2,0.8-2.8,0c-0.6-0.5-1.3-0.8-2-0.8c-0.3,0-0.5,0.2-0.5,0.5
			S2.9,44.3,3.2,44.3z"/>
	</g>
</g>
</svg>
