<?xml version="1.0" encoding="utf-8"?>
<!-- Generator: Adobe Illustrator 24.3.0, SVG Export Plug-In . SVG Version: 6.00 Build 0)  -->
<svg version="1.1" id="Layer_1" xmlns="http://www.w3.org/2000/svg" xmlns:xlink="http://www.w3.org/1999/xlink" x="0px" y="0px"
	 viewBox="0 0 23 6.5" style="enable-background:new 0 0 23 6.5;" xml:space="preserve">
<style type="text/css">
	.st0{fill:#514949;stroke:#514949;stroke-width:2;}
</style>
<path class="st0" d="M5.6,3.3C5.6,2,4.5,1,3.3,1c0,0,0,0,0,0C2,1,1,2,1,3.3c0,0,0,0,0,0c0,1.3,1,2.3,2.3,2.3c0,0,0,0,0,0
	C4.5,5.5,5.5,4.5,5.6,3.3C5.6,3.3,5.6,3.3,5.6,3.3z M13.8,3.3c0-1.2-1-2.3-2.2-2.3c0,0,0,0,0,0c-1.2,0-2.3,1-2.3,2.2c0,0,0,0,0,0
	c0,1.2,1,2.3,2.2,2.3c0,0,0,0,0,0C12.8,5.5,13.8,4.5,13.8,3.3C13.8,3.3,13.8,3.3,13.8,3.3z M22,3.3C22,2,21,1,19.8,1c0,0,0,0,0,0
	c-1.2,0-2.3,1-2.3,2.2c0,0,0,0,0,0c0,1.2,1,2.3,2.3,2.3c0,0,0,0,0,0C21,5.5,22,4.5,22,3.3z"/>
</svg>
