<?xml version="1.0" encoding="utf-8"?>
<!-- Generator: Adobe Illustrator 24.3.0, SVG Export Plug-In . SVG Version: 6.00 Build 0)  -->
<svg version="1.1" id="Layer_1" xmlns="http://www.w3.org/2000/svg" xmlns:xlink="http://www.w3.org/1999/xlink" x="0px" y="0px"
	 viewBox="0 0 9.5 9.5" style="enable-background:new 0 0 9.5 9.5;" xml:space="preserve">
<style type="text/css">
	.st0{fill:#469A09;}
</style>
<path class="st0" d="M2.4,5.3h2.4c0.1,0,0.2,0,0.3-0.1C5.1,5.1,5.1,5,5.1,4.9V1.9c0-0.1,0-0.2-0.1-0.2C4.9,1.6,4.8,1.5,4.7,1.5
	c-0.1,0-0.2,0-0.2,0.1C4.4,1.7,4.4,1.8,4.4,1.9v2.7h-2c-0.1,0-0.2,0-0.2,0.1C2.1,4.8,2,4.8,2,4.9c0,0.1,0,0.2,0.1,0.2
	C2.2,5.3,2.3,5.3,2.4,5.3z M4.7,9.5c0.6,0,1.3-0.1,1.8-0.4c0.6-0.2,1.1-0.6,1.5-1c0.4-0.4,0.8-0.9,1-1.5C9.4,6,9.5,5.4,9.5,4.7
	c0-0.6-0.1-1.3-0.4-1.8c-0.2-0.6-0.6-1.1-1-1.5c-0.4-0.4-1-0.8-1.5-1C6,0.1,5.4,0,4.7,0C4.1,0,3.5,0.1,2.9,0.4
	C2.3,0.6,1.8,1,1.4,1.4C1,1.8,0.6,2.3,0.4,2.9C0.1,3.5,0,4.1,0,4.7C0,5.4,0.1,6,0.4,6.6c0.2,0.6,0.6,1.1,1,1.5
	c0.4,0.4,0.9,0.8,1.5,1C3.5,9.4,4.1,9.5,4.7,9.5L4.7,9.5z M4.7,8.6c-0.5,0-1-0.1-1.5-0.3C2.8,8.1,2.4,7.8,2,7.5
	C1.7,7.1,1.4,6.7,1.2,6.3C1,5.8,0.9,5.3,0.9,4.7c0-0.5,0.1-1,0.3-1.5C1.4,2.8,1.7,2.4,2,2c0.4-0.4,0.8-0.6,1.2-0.8
	c0.5-0.2,1-0.3,1.5-0.3c0.5,0,1,0.1,1.5,0.3C6.7,1.4,7.1,1.7,7.5,2c0.4,0.4,0.6,0.8,0.8,1.2c0.2,0.5,0.3,1,0.3,1.5
	c0,0.5-0.1,1-0.3,1.5C8.1,6.7,7.8,7.1,7.5,7.5C7.1,7.8,6.7,8.1,6.3,8.3C5.8,8.5,5.3,8.6,4.7,8.6L4.7,8.6z"/>
</svg>
