<svg xmlns="http://www.w3.org/2000/svg" xmlns:xlink="http://www.w3.org/1999/xlink" width="74" height="72" viewBox="0 0 74 72"><defs><style>.a{fill:#469a09;}.b,.d{fill:none;}.b{stroke:#469a21;stroke-width:2px;}.c{stroke:none;}.e{filter:url(#a);}</style><filter id="a" x="0" y="0" width="74" height="72" filterUnits="userSpaceOnUse"><feOffset input="SourceAlpha"/><feGaussianBlur stdDeviation="5" result="b"/><feFlood flood-opacity="0.263"/><feComposite operator="in" in2="b"/><feComposite in="SourceGraphic"/></filter></defs><g transform="translate(-292 -886)"><g transform="translate(295.243 891.092)"><path class="a" d="M45.014,24.963l-11.5,13.8-5.953-5.952a2.674,2.674,0,1,0-3.781,3.781l8.023,8.023a2.68,2.68,0,0,0,1.892.784c.04,0,.082,0,.122,0a2.673,2.673,0,0,0,1.934-.96L49.124,28.386a2.675,2.675,0,1,0-4.11-3.423Z" transform="translate(-2.615 -2.789)"/></g><g class="e" transform="matrix(1, 0, 0, 1, 292, 886)"><g class="b" transform="translate(15 15)"><rect class="c" width="44" height="42" rx="8"/><rect class="d" x="1" y="1" width="42" height="40" rx="7"/></g></g></g></svg>