<svg id="add-to-cart_on_icon" data-name="add-to-cart on icon" xmlns="http://www.w3.org/2000/svg" width="62.768" height="54.606" viewBox="0 0 62.768 54.606">
  <path id="Path_27414" data-name="Path 27414" d="M64.967,16.681a4.454,4.454,0,0,0-3.446-1.624H16.665L15.372,8.594A4.48,4.48,0,0,0,10.99,5H7.235a2.235,2.235,0,0,0,0,4.47H10.99s6.809,33.982,6.861,34.1a6.7,6.7,0,0,0,6.458,5.007H54.951a6.715,6.715,0,0,0,6.584-5.438l4.379-22.772a4.454,4.454,0,0,0-.948-3.691Z" transform="translate(-3.227 -3.227)" fill="#193802"/>
  <path id="Path_28166" data-name="Path 28166" d="M64.967,16.681a4.454,4.454,0,0,0-3.446-1.624H16.665L15.372,8.594A4.48,4.48,0,0,0,10.99,5H7.235a2.235,2.235,0,0,0,0,4.47H10.99s6.809,33.982,6.861,34.1a6.7,6.7,0,0,0,6.458,5.007H54.951a6.715,6.715,0,0,0,6.584-5.438l4.379-22.772a4.454,4.454,0,0,0-.948-3.691Z" transform="translate(-5 -5)" fill="#469a09"/>
  <g id="Group_1285" data-name="Group 1285" transform="translate(16.843 40.423)">
    <path id="Path_28212" data-name="Path 28212" d="M7.092,0A7.092,7.092,0,1,1,0,7.092,7.092,7.092,0,0,1,7.092,0Z" transform="translate(0)" fill="#2b2929"/>
    <path id="Path_28211" data-name="Path 28211" d="M7.092,0A7.092,7.092,0,1,1,0,7.092,7.092,7.092,0,0,1,7.092,0Z" transform="translate(23.048)" fill="#2b2929"/>
  </g>
  <path id="Path_28210" data-name="Path 28210" d="M6.612,0c3.652,0,6.612,3.33,6.612,7.439s-2.96,7.439-6.612,7.439S0,11.547,0,7.439,2.96,0,6.612,0Z" transform="translate(16.53 38.407)" fill="#5e5e5e"/>
  <path id="Path_28209" data-name="Path 28209" d="M6.612,0c3.652,0,6.612,3.33,6.612,7.439s-2.96,7.439-6.612,7.439S0,11.547,0,7.439,2.96,0,6.612,0Z" transform="translate(39.672 38.407)" fill="#5e5e5e"/>
</svg>
