<svg xmlns="http://www.w3.org/2000/svg" width="73.034" height="50.126" viewBox="0 0 73.034 50.126">
  <path id="Book_masterclass" data-name="Book masterclass" d="M-4539.335,6583.127a1.5,1.5,0,0,1-.937-.3l-6.855-5.649-3.385,2.343a1.514,1.514,0,0,1-.857.247,1.243,1.243,0,0,1-1.172-.6l-5.695-13.177a.59.59,0,0,1,.052-.584,1.324,1.324,0,0,1,1.1-.5,1.809,1.809,0,0,1,.357.037l19.037,3.943a1.008,1.008,0,0,1,.854.691.7.7,0,0,1-.343.712l-3.387,2.342,8.163,4.748a.777.777,0,0,1,.433.621.721.721,0,0,1-.355.618l-6.154,4.262A1.52,1.52,0,0,1-4539.335,6583.127Zm-32.5-5.266c-.67,0-1.215-.379-1.215-.844v-1.476c0-.465.545-.842,1.215-.842s1.219.377,1.219.842v1.476C-4570.612,6577.482-4571.159,6577.861-4571.831,6577.861Zm-12.1-2.3a1.19,1.19,0,0,1-1.189-.672.673.673,0,0,1,.331-.766l1.5-1.044a1.523,1.523,0,0,1,.861-.246,1.532,1.532,0,0,1,.862.246.74.74,0,0,1,.355.6.74.74,0,0,1-.355.6l-1.507,1.042A1.513,1.513,0,0,1-4583.926,6575.564Zm22.917-6.326h-35.472c-4.7,0-8.52-2.645-8.52-5.9V6547.52c0-3.251,3.822-5.9,8.52-5.9h49.3c4.7,0,8.521,2.647,8.521,5.9v15.821a4.5,4.5,0,0,1-.93,2.677,1.337,1.337,0,0,1-1.075.453,1.724,1.724,0,0,1-.352-.037l-15.006-3.107a5.254,5.254,0,0,0-1.062-.11,3.979,3.979,0,0,0-3.318,1.5,1.781,1.781,0,0,0-.164,1.757l.728,1.683a.6.6,0,0,1-.057.589A1.336,1.336,0,0,1-4561.009,6569.239Zm-4.031-19.65a6.309,6.309,0,0,0-4.344,1.61,5.493,5.493,0,0,0-1.723,4.065,5.494,5.494,0,0,0,1.723,4.066,6.309,6.309,0,0,0,4.344,1.61,6.3,6.3,0,0,0,4.343-1.61,5.493,5.493,0,0,0,1.723-4.066,5.493,5.493,0,0,0-1.723-4.065A6.3,6.3,0,0,0-4565.04,6549.588Zm-13.815,0a6.307,6.307,0,0,0-4.344,1.61,5.493,5.493,0,0,0-1.723,4.065,5.494,5.494,0,0,0,1.723,4.066,6.307,6.307,0,0,0,4.344,1.61,6.3,6.3,0,0,0,4.342-1.61,5.49,5.49,0,0,0,1.724-4.066,5.49,5.49,0,0,0-1.724-4.065A6.3,6.3,0,0,0-4578.855,6549.588Zm25.182.217h-3.056v10.917h3.056v-2.73l1.152-1.231h0l3.117,3.961h3.587l-4.694-6.083,4.461-4.834h-3.4l-4.227,4.537Zm-43.3,0v10.917h5.9c2.9,0,4.49-1.065,4.49-3a2.742,2.742,0,0,0-1.994-2.7,2.576,2.576,0,0,0,1.463-2.372c0-1.813-1.557-2.854-4.271-2.854Zm5.647,8.686h-2.588v-2.213h2.588c1.075,0,1.621.372,1.621,1.106S-4590.255,6558.491-4591.33,6558.491Zm26.29-.108a2.937,2.937,0,0,1-2.948-3.119,2.937,2.937,0,0,1,2.948-3.118,2.937,2.937,0,0,1,2.947,3.118A2.937,2.937,0,0,1-4565.04,6558.382Zm-13.815,0a2.937,2.937,0,0,1-2.948-3.119,2.937,2.937,0,0,1,2.948-3.118,2.937,2.937,0,0,1,2.947,3.118A2.937,2.937,0,0,1-4578.855,6558.382Zm-12.943-4.243h-2.12v-2.106h2.12c1.034,0,1.557.353,1.557,1.047S-4590.764,6554.14-4591.8,6554.14Zm30.555-16.115a1.192,1.192,0,0,1-1.19-.672.676.676,0,0,1,.331-.767l1.507-1.044a1.518,1.518,0,0,1,.86-.246,1.522,1.522,0,0,1,.861.246.739.739,0,0,1,.357.6.736.736,0,0,1-.357.6l-1.506,1.042A1.516,1.516,0,0,1-4561.243,6538.024Zm-21.177,0a1.526,1.526,0,0,1-.861-.248l-1.5-1.042a.736.736,0,0,1-.357-.6.738.738,0,0,1,.357-.6,1.512,1.512,0,0,1,.859-.246,1.522,1.522,0,0,1,.861.246l1.507,1.044a.675.675,0,0,1,.33.767A1.2,1.2,0,0,1-4582.419,6538.024Zm10.588-1.866c-.67,0-1.215-.377-1.215-.842v-1.476c0-.464.545-.841,1.215-.841s1.219.377,1.219.841v1.476C-4570.612,6535.782-4571.159,6536.159-4571.831,6536.159Z" transform="translate(4605 -6533)" fill="#ffd54f"/>
</svg>
