<svg xmlns="http://www.w3.org/2000/svg" width="65.065" height="58.471" viewBox="0 0 65.065 58.471">
  <g id="Cancel_notification_btn" data-name="Cancel notification btn" transform="translate(0)">
    <path id="Bell_icon" data-name="Bell icon" d="M-3537.692-1175.656a6.069,6.069,0,0,1-4.067-1.513,5.377,5.377,0,0,1-1.8-3.52h11.744a5.377,5.377,0,0,1-1.805,3.52A6.068,6.068,0,0,1-3537.692-1175.656Zm6.512-7.63h-21.532c-1.823,0-2.956-.926-2.956-2.418,0-1.766,1.606-3.358,3.158-4.9q.2-.2.4-.395c1.226-1.244,1.578-3.75,1.776-6.272a22.106,22.106,0,0,1,1.776-8.957,9.232,9.232,0,0,1,5.355-4.943,5.742,5.742,0,0,1,5.513-4.415,5.378,5.378,0,0,1,3.52,1.278,6.5,6.5,0,0,1,1.991,3.136,9.233,9.233,0,0,1,5.356,4.943,22.08,22.08,0,0,1,1.775,8.957c.064.819.153,1.782.316,2.713a16.247,16.247,0,0,0-6.447,11.267Z" transform="translate(3555.668 1215.582)" fill="#469a09"/>
    <path id="X_icon" data-name="X icon" d="M16.145,32.273A16.243,16.243,0,0,0,32.273,16.128,16.254,16.254,0,0,0,16.128,0,16.24,16.24,0,0,0,0,16.128,16.257,16.257,0,0,0,16.145,32.273Zm-.033-8.305a1.42,1.42,0,0,1-1.431-1.6V17.576H9.637c-.965,0-1.631-.516-1.631-1.415A1.431,1.431,0,0,1,9.637,14.7H14.68V9.62a1.412,1.412,0,0,1,1.431-1.6,1.437,1.437,0,0,1,1.465,1.6V14.7h5.06a1.448,1.448,0,1,1,0,2.879h-5.06V22.37A1.437,1.437,0,0,1,16.112,23.968Z" transform="translate(42.245 12.83) rotate(45)" fill="#bf2604"/>
  </g>
</svg>
