<svg xmlns="http://www.w3.org/2000/svg" width="23.843" height="25.608" viewBox="0 0 23.843 25.608">
  <path id="Path_28687" data-name="Path 28687" d="M1.517-21.351,8.04-12.606.97-3.3C-.353-1.551,1.791.363,4.3.363A4.061,4.061,0,0,0,8.04-1.584l4.425-6.5L16.89-1.518a4.062,4.062,0,0,0,3.6,1.881c2.646,0,4.79-2.277,3.558-3.894L16.845-12.87l6.706-8.745c1.505-1.947-.958-3.63-3.421-3.63A3.915,3.915,0,0,0,16.662-23.5L12.6-17.457,8.314-23.463a3.963,3.963,0,0,0-3.6-1.782c-1.825,0-3.376.99-3.6,2.244A2.037,2.037,0,0,0,1.517-21.351Z" transform="translate(-0.566 25.245)" fill="#b62414"/>
</svg>
