<svg xmlns="http://www.w3.org/2000/svg" width="34.995" height="34.995" viewBox="0 0 34.995 34.995">
  <g id="Cancel_masterclass" data-name="Cancel masterclass" transform="translate(0 0)">
    <ellipse id="Ellipse_676" data-name="Ellipse 676" cx="17.498" cy="17.498" rx="17.498" ry="17.498" transform="translate(0 0)" fill="#e24c4b"/>
    <path id="Path_16836" data-name="Path 16836" d="M80.283,63.159A17.177,17.177,0,0,1,63.157,80.285a16.853,16.853,0,0,1-13.38-6.422,16.9,16.9,0,0,0,10.7,3.746A17.176,17.176,0,0,0,77.607,60.483a16.9,16.9,0,0,0-3.746-10.7A16.852,16.852,0,0,1,80.283,63.159Z" transform="translate(-45.375 -45.943)" fill="#d1403f"/>
    <path id="Path_16837" data-name="Path 16837" d="M133.444,133.444a1.68,1.68,0,0,1-2.355,0l-5.459-5.459-5.459,5.459a1.665,1.665,0,1,1-2.355-2.355l5.459-5.459-5.459-5.459a1.665,1.665,0,0,1,2.355-2.355l5.459,5.459,5.459-5.459a1.665,1.665,0,1,1,2.355,2.355l-5.459,5.459,5.459,5.459A1.68,1.68,0,0,1,133.444,133.444Z" transform="translate(-107.848 -108.414)" fill="#fff"/>
  </g>
</svg>
