<svg xmlns="http://www.w3.org/2000/svg" width="296" height="223.647" viewBox="0 0 296 223.647">
  <g id="Chefs_onboarding_4" data-name="Chefs onboarding 4" transform="translate(-26 -260)">
    <g id="Group_1201" data-name="Group 1201" transform="translate(33 260)">
      <path id="Path_27764" data-name="Path 27764" d="M188.97,650.779c9.008,6.49,20.682,6.815,31.966,6.018,1.576-.111,3.14-.242,4.69-.382.009,0,.022,0,.031,0,.074-.007.149-.014.22-.018l.957-.09-.075.143-.235.443c.084-.148.169-.294.253-.442.025-.044.053-.089.077-.133,2.923-5.087,5.822-10.361,6.562-16.169.764-6.029-1.384-12.856-6.69-15.819a10.711,10.711,0,0,0-2.2-.92c-.317-.1-.639-.175-.964-.244a11.477,11.477,0,0,0-13.347,14.919c-4.5-4.613-3.66-12.1-2.108-18.351s3.437-13.214.275-18.831a12.418,12.418,0,0,0-8.319-5.848c-.106-.023-.213-.046-.319-.066a16.749,16.749,0,0,0-12.034,2.109c-6.634,4.18-10.041,12.106-11.147,19.871C174.786,629.457,178.729,643.4,188.97,650.779Z" transform="translate(-176.154 -433.512)" fill="#f2f2f2"/>
      <path id="Path_27765" data-name="Path 27765" d="M221.836,631.381A28.474,28.474,0,0,0,223.8,639.4a24.723,24.723,0,0,0,3.839,6.27,31.678,31.678,0,0,0,12.168,8.774,45.6,45.6,0,0,0,11.086,2.979c1.576-.111,3.14-.242,4.69-.382.009,0,.022,0,.031,0,.074-.007.149-.014.22-.018l.957-.09-.075.143-.235.443c.084-.148.169-.294.253-.442.025-.044.053-.089.077-.133a24.979,24.979,0,0,1-2.325-32.909c-.317-.1-.639-.175-.964-.244a26.349,26.349,0,0,0-2.4,3.982,25.822,25.822,0,0,0-2.228,16.064A26.4,26.4,0,0,0,255.58,657c-.3-.021-.6-.046-.9-.073a46.291,46.291,0,0,1-16.363-4.168,29.47,29.47,0,0,1-11.04-9.058,26.635,26.635,0,0,1-4.692-14.617,61.686,61.686,0,0,1,1.751-16.7,70.094,70.094,0,0,1,5.89-16.044.5.5,0,0,0-.2-.665.429.429,0,0,0-.319-.066.373.373,0,0,0-.246.211c-.322.628-.638,1.257-.942,1.893a70.888,70.888,0,0,0-5.549,16.645A57.07,57.07,0,0,0,221.836,631.381Z" transform="translate(-206.111 -434.142)" fill="#fff"/>
      <path id="Path_27766" data-name="Path 27766" d="M707.627,314.282H558.642a5.8,5.8,0,0,1-5.8-5.8V127.8a5.8,5.8,0,0,1,5.8-5.8H707.627a5.8,5.8,0,0,1,5.8,5.8v180.69a5.8,5.8,0,0,1-5.8,5.8Zm-148.984-191.6a5.12,5.12,0,0,0-5.114,5.114v180.69a5.12,5.12,0,0,0,5.114,5.114H707.627a5.12,5.12,0,0,0,5.114-5.114V127.8a5.12,5.12,0,0,0-5.114-5.114Z" transform="translate(-424.422 -122)" fill="#fff"/>
      <rect id="Rectangle_1816" data-name="Rectangle 1816" width="159.894" height="0.682" transform="translate(128.765 14.179)" fill="#fff"/>
      <circle id="Ellipse_1017" data-name="Ellipse 1017" cx="2.727" cy="2.727" r="2.727" transform="translate(133.879 4.773)" fill="#3f3d56"/>
      <circle id="Ellipse_1018" data-name="Ellipse 1018" cx="2.727" cy="2.727" r="2.727" transform="translate(142.402 4.773)" fill="#3f3d56"/>
      <circle id="Ellipse_1019" data-name="Ellipse 1019" cx="2.727" cy="2.727" r="2.727" transform="translate(150.925 4.773)" fill="#3f3d56"/>
      <path id="Path_27767" data-name="Path 27767" d="M724.907,225.864H618.538a4.432,4.432,0,1,1,0-8.864H724.907a4.432,4.432,0,0,1,0,8.864Zm-106.369-8.182a3.75,3.75,0,0,0,0,7.5H724.907a3.75,3.75,0,0,0,0-7.5Z" transform="translate(-464.797 -184.612)" fill="#fff"/>
      <path id="Path_27768" data-name="Path 27768" d="M651.576,337.025H609.642a5.8,5.8,0,0,1-5.8-5.8V296.8a5.8,5.8,0,0,1,5.8-5.8h41.934a5.8,5.8,0,0,1,5.8,5.8v34.433A5.8,5.8,0,0,1,651.576,337.025Zm-41.934-45.343a5.12,5.12,0,0,0-5.114,5.114v34.433a5.12,5.12,0,0,0,5.114,5.114h41.934a5.12,5.12,0,0,0,5.114-5.114V296.8a5.12,5.12,0,0,0-5.114-5.114Z" transform="translate(-458.035 -233.384)" fill="#fff"/>
      <rect id="Rectangle_1817" data-name="Rectangle 1817" width="52.843" height="45.343" rx="16" transform="translate(218.428 59.321)" fill="#f2f2f2"/>
      <path id="Path_27769" data-name="Path 27769" d="M651.576,525.025H609.642a5.8,5.8,0,0,1-5.8-5.8V484.8a5.8,5.8,0,0,1,5.8-5.8h41.934a5.8,5.8,0,0,1,5.8,5.8v34.433A5.8,5.8,0,0,1,651.576,525.025Zm-41.934-45.343a5.12,5.12,0,0,0-5.114,5.114v34.433a5.12,5.12,0,0,0,5.114,5.114h41.934a5.12,5.12,0,0,0,5.114-5.114V484.8a5.12,5.12,0,0,0-5.114-5.114Z" transform="translate(-458.035 -357.29)" fill="#fff"/>
      <rect id="Rectangle_1818" data-name="Rectangle 1818" width="52.843" height="45.343" rx="16" transform="translate(218.428 123.415)" fill="#f2f2f2"/>
      <circle id="Ellipse_1020" data-name="Ellipse 1020" cx="10.228" cy="10.228" r="10.228" transform="translate(55.448 100.094)" fill="#2f2e41"/>
      <circle id="Ellipse_1021" data-name="Ellipse 1021" cx="8.373" cy="8.373" r="8.373" transform="translate(58.162 103.822)" fill="#ffb8b8"/>
      <path id="Path_27774" data-name="Path 27774" d="M416.433,518.469a3.581,3.581,0,0,0-.366.431l-16.9-.6-1.933-3.624-5.851,2.2,2.8,6.749A2.727,2.727,0,0,0,397,525.3l19.121-2.1a3.579,3.579,0,1,0,.311-4.727Z" transform="translate(-318.008 -380.805)" fill="#ffb8b8"/>
      <path id="Path_27775" data-name="Path 27775" d="M377.652,500.864a1.64,1.64,0,0,1-.9-1.029l-2.354-7.9a4.561,4.561,0,0,1,8.253-3.884l4.559,6.9a1.642,1.642,0,0,1-.675,2.393l-7.515,3.509A1.64,1.64,0,0,1,377.652,500.864Z" transform="translate(-306.524 -361.53)" fill="#ccc"/>
      <path id="Path_27776" data-name="Path 27776" d="M242.545,610.852l3.671-2-5.961-15.11-5.418,2.949Z" transform="translate(-154.775 -391.321)" fill="#ffb8b8"/>
      <path id="Path_27777" data-name="Path 27777" d="M428.94,755.062l7.229-3.935h0a5.245,5.245,0,0,1,7.115,2.1l.082.15-11.837,6.444Z" transform="translate(-342.758 -536.22)" fill="#2f2e41"/>
      <path id="Path_27778" data-name="Path 27778" d="M138.957,612.809h4.179l1.989-16.122h-6.169Z" transform="translate(-91.582 -393.261)" fill="#ffb8b8"/>
      <path id="Path_27779" data-name="Path 27779" d="M311.985,761.972h8.232a5.245,5.245,0,0,1,5.246,5.246v.17H311.985Z" transform="translate(-265.677 -543.789)" fill="#2f2e41"/>
      <path id="Path_27780" data-name="Path 27780" d="M339.269,550.823l1.364,16.364,15.212,45.635a1.364,1.364,0,0,1-.978,1.758l-4.662,1.11a1.364,1.364,0,0,1-1.534-.713L329.223,576.4a.682.682,0,0,0-1.275.161l-8.559,38.989a1.364,1.364,0,0,1-1.332,1.071H313.72a1.361,1.361,0,0,1-1.363-1.382c.4-27.034-.914-57.839,9.524-62.712l1.7-4.432Z" transform="translate(-265.922 -402.829)" fill="#2f2e41"/>
      <path id="Path_27781" data-name="Path 27781" d="M340.178,507.25l-1.758-10.629a10.527,10.527,0,0,1,3.33-9.548,10.351,10.351,0,0,1,9.659-2.361l.3.082a10.5,10.5,0,0,1,7.578,9.323c.335,4.616.035,11.313-3.3,17l-.065.111Z" transform="translate(-283.005 -360.823)" fill="#ccc"/>
      <path id="Path_27782" data-name="Path 27782" d="M364.183,429.37a11.389,11.389,0,0,1-6.509,2.011,6.979,6.979,0,0,0,2.766,1.138,22.964,22.964,0,0,1-9.38.053,6.07,6.07,0,0,1-1.964-.674,2.485,2.485,0,0,1-1.212-1.621c-.206-1.176.71-2.244,1.662-2.964a12.262,12.262,0,0,1,10.3-2.059,5.643,5.643,0,0,1,3.052,1.725,2.78,2.78,0,0,1,.257,3.3Z" transform="translate(-289.318 -321.624)" fill="#2f2e41"/>
      <path id="Path_27783" data-name="Path 27783" d="M300.647,399.609a6.92,6.92,0,0,0-6.545-8.192c-4.1.083-7.11,3.784-9.181,7.318s-4.131,7.54-7.934,9.062a8.192,8.192,0,0,1-11.232-7.805c-.511,4.293.2,8.939,2.966,12.26s7.921,4.817,11.624,2.586c2.115-1.275,3.467-3.49,4.581-5.694s2.106-4.527,3.795-6.329,4.3-3,6.65-2.239a22.909,22.909,0,0,0,2.734,1.066c.964.178,2.177-.28,2.309-1.251Z" transform="translate(-235.106 -299.565)" fill="#2f2e41"/>
      <path id="Path_27784" data-name="Path 27784" d="M307.508,550.246a3.662,3.662,0,0,1,.935-5.537l7.264-32.557,7.368,3.024-9.457,31.052a3.682,3.682,0,0,1-6.11,4.019Z" transform="translate(-262.148 -379.139)" fill="#ffb8b8"/>
      <path id="Path_27785" data-name="Path 27785" d="M324.4,501.12a1.641,1.641,0,0,1-.115-1.363L327.078,492a4.561,4.561,0,1,1,8.948,1.772l-.424,8.258a1.642,1.642,0,0,1-1.964,1.526l-8.131-1.635a1.641,1.641,0,0,1-1.107-.8Z" transform="translate(-273.719 -363.437)" fill="#ccc"/>
      <path id="Path_22" data-name="Path 22" d="M474.153,502.58l-.121-.017.456-3.315a1.937,1.937,0,0,0-1.655-2.182l-7.023-.965a1.937,1.937,0,0,0-2.182,1.655l-2.5,18.185a1.937,1.937,0,0,0,1.655,2.182l7.023.965a1.936,1.936,0,0,0,2.182-1.655l1.72-12.511.121.017Z" transform="translate(-363.961 -368.548)" fill="#3f3d56"/>
      <path id="Path_23" data-name="Path 23" d="M474.2,500.007l-.874-.12a.655.655,0,0,1-.724.812l-3.838-.528a.655.655,0,0,1-.478-.977l-.817-.112a1.379,1.379,0,0,0-1.554,1.179l-2.381,17.32a1.38,1.38,0,0,0,1.179,1.555l6.731.925A1.379,1.379,0,0,0,473,518.881h0l2.381-17.32a1.379,1.379,0,0,0-1.179-1.555Z" transform="translate(-365.552 -370.516)" fill="#fff"/>
      <circle id="Ellipse_1022" data-name="Ellipse 1022" cx="3.75" cy="3.75" r="3.75" transform="translate(100.127 136.37)" fill="#ffd54f"/>
      <path id="Path_27786" data-name="Path 27786" d="M477.3,531.682a.389.389,0,0,1-.234-.078l0,0-.881-.675a.392.392,0,1,1,.476-.622l.571.438,1.349-1.759a.392.392,0,0,1,.549-.072l-.008.011.009-.011a.392.392,0,0,1,.072.549l-1.587,2.069A.392.392,0,0,1,477.3,531.682Z" transform="translate(-373.789 -390.132)" fill="#fff"/>
      <path id="Path_27787" data-name="Path 27787" d="M330.462,776.682H200.569a.341.341,0,1,1,0-.682H330.462a.341.341,0,1,1,0,.682Z" transform="translate(-192.021 -553.035)" fill="#3f3d56"/>
    </g>
    <path id="Path_27788" data-name="Path 27788" d="M898.494,344.661a3.387,3.387,0,1,0,3.387,3.387A3.387,3.387,0,0,0,898.494,344.661Zm-9.9-26.581v3.387h3.387l6.1,12.352-2.549,4.15a3.257,3.257,0,0,0-.424,1.61c0,2.268,1.55,3.388,3.653,3.388h19.806v-3.257H899.169a.4.4,0,0,1-.424-.424,2.13,2.13,0,0,1,.18-.421l1.693-2.673h12.62a3.314,3.314,0,0,0,2.964-1.778l6.1-10.489a1.968,1.968,0,0,0,.17-.847,1.629,1.629,0,0,0-1.695-1.61H895.706l-1.61-3.387Zm26.581,26.581a3.387,3.387,0,1,0,3.39,3.388A3.387,3.387,0,0,0,915.171,344.661Z" transform="translate(-764.158 132.14)" fill="#469a09"/>
    <g id="Group_1202" data-name="Group 1202" transform="translate(168 320)">
      <circle id="Ellipse_1026" data-name="Ellipse 1026" cx="20.328" cy="20.328" r="20.328" transform="translate(17.049 0)" fill="#ffd54f"/>
      <path id="Path_27795" data-name="Path 27795" d="M438.875,302.213a14.838,14.838,0,1,1,10.492-4.346A14.838,14.838,0,0,1,438.875,302.213Zm0-28.76A13.923,13.923,0,1,0,452.8,287.376,13.938,13.938,0,0,0,438.875,273.453Z" transform="translate(-401.498 -267.047)" opacity="0.2"/>
      <circle id="Ellipse_1027" data-name="Ellipse 1027" cx="14.38" cy="14.38" r="14.38" transform="translate(22.997 5.948)" fill="#3f3d56"/>
      <path id="Path_27796" data-name="Path 27796" d="M471.159,351.723a1.825,1.825,0,1,1,3.253-1.656l4.063,7.978a1.825,1.825,0,0,1-3.253,1.656Z" transform="translate(-444.475 -337.145)" fill="#ff6584"/>
      <path id="Path_27797" data-name="Path 27797" d="M476.674,369.157l-.188-.368a10.539,10.539,0,0,1,3.253-1.656l.188.368A5.953,5.953,0,0,0,476.674,369.157Z" transform="translate(-449.538 -353.689)" opacity="0.2"/>
      <path id="Path_27798" data-name="Path 27798" d="M487.081,389.593l-.188-.368a10.539,10.539,0,0,1,3.253-1.656l.188.368A5.953,5.953,0,0,0,487.081,389.593Z" transform="translate(-459.069 -372.406)" opacity="0.2"/>
      <path id="Path_27799" data-name="Path 27799" d="M497.487,410.028l-.187-.368A10.539,10.539,0,0,1,500.552,408l.188.368A5.954,5.954,0,0,0,497.487,410.028Z" transform="translate(-468.601 -391.123)" opacity="0.2"/>
      <path id="Path_27800" data-name="Path 27800" d="M507.894,430.463l-.188-.368a10.539,10.539,0,0,1,3.253-1.656l.188.368A5.954,5.954,0,0,0,507.894,430.463Z" transform="translate(-478.132 -409.84)" opacity="0.2"/>
      <path id="Path_27801" data-name="Path 27801" d="M518.3,450.9l-.187-.368a10.54,10.54,0,0,1,3.253-1.656l.188.368A5.954,5.954,0,0,0,518.3,450.9Z" transform="translate(-487.664 -428.557)" opacity="0.2"/>
      <path id="Path_27802" data-name="Path 27802" d="M434.91,387.242a1.825,1.825,0,0,1,3.253-1.656l4.063,7.978a1.825,1.825,0,1,1-3.253,1.656Z" transform="translate(-411.275 -369.677)" fill="#ff6584"/>
      <path id="Path_27803" data-name="Path 27803" d="M440.426,404.676l-.187-.368a10.539,10.539,0,0,1,3.253-1.656l.188.368A5.954,5.954,0,0,0,440.426,404.676Z" transform="translate(-416.338 -386.222)" opacity="0.2"/>
      <path id="Path_27804" data-name="Path 27804" d="M450.832,425.112l-.187-.368a10.539,10.539,0,0,1,3.253-1.656l.188.368A5.954,5.954,0,0,0,450.832,425.112Z" transform="translate(-425.869 -404.939)" opacity="0.2"/>
      <path id="Path_27805" data-name="Path 27805" d="M461.239,445.547l-.188-.368a10.538,10.538,0,0,1,3.253-1.656l.188.368A5.953,5.953,0,0,0,461.239,445.547Z" transform="translate(-435.401 -423.656)" opacity="0.2"/>
      <path id="Path_27806" data-name="Path 27806" d="M471.645,465.982l-.187-.368a10.538,10.538,0,0,1,3.253-1.656l.188.368A5.953,5.953,0,0,0,471.645,465.982Z" transform="translate(-444.932 -442.373)" opacity="0.2"/>
      <path id="Path_27807" data-name="Path 27807" d="M482.052,486.418l-.188-.368a10.539,10.539,0,0,1,3.253-1.656l.188.368A5.954,5.954,0,0,0,482.052,486.418Z" transform="translate(-454.464 -461.09)" opacity="0.2"/>
      <path id="Path_27808" data-name="Path 27808" d="M587.325,333.414h.013a2.177,2.177,0,0,0,2.038-1.365,7.125,7.125,0,1,0-9.492,3.9,2.158,2.158,0,0,0,2.4-.444A7.1,7.1,0,0,1,587.325,333.414Z" transform="translate(-540.339 -312.628)" fill="#e6e6e6"/>
      <circle id="Ellipse_1028" data-name="Ellipse 1028" cx="2.353" cy="2.353" r="2.353" transform="translate(40.972 13.923)" fill="#f9a825"/>
      <circle id="Ellipse_1029" data-name="Ellipse 1029" cx="0.277" cy="0.277" r="0.277" transform="translate(37.934 15.457)" fill="#3f3d56"/>
      <circle id="Ellipse_1030" data-name="Ellipse 1030" cx="0.277" cy="0.277" r="0.277" transform="translate(28.783 15.718)" fill="#3f3d56"/>
      <circle id="Ellipse_1031" data-name="Ellipse 1031" cx="0.277" cy="0.277" r="0.277" transform="translate(39.411 12.584)" fill="#3f3d56"/>
      <circle id="Ellipse_1032" data-name="Ellipse 1032" cx="0.277" cy="0.277" r="0.277" transform="translate(39.404 20.574)" fill="#3f3d56"/>
      <circle id="Ellipse_1033" data-name="Ellipse 1033" cx="0.277" cy="0.277" r="0.277" transform="translate(44.894 12.011)" fill="#3f3d56"/>
      <circle id="Ellipse_1034" data-name="Ellipse 1034" cx="0.277" cy="0.277" r="0.277" transform="translate(26.984 19.594)" fill="#3f3d56"/>
      <circle id="Ellipse_1035" data-name="Ellipse 1035" cx="0.277" cy="0.277" r="0.277" transform="translate(29.011 23.581)" fill="#3f3d56"/>
      <circle id="Ellipse_1036" data-name="Ellipse 1036" cx="1.046" cy="1.046" r="1.046" transform="translate(40.972 23.335)" fill="#ff6584"/>
      <path id="Path_27809" data-name="Path 27809" d="M647.94,497.982a.784.784,0,1,1-1.569,0" transform="translate(-605.138 -473.536)" opacity="0.2"/>
      <path id="Path_27810" data-name="Path 27810" d="M646.371,487.884a.784.784,0,0,1,1.569,0" transform="translate(-605.138 -463.568)" opacity="0.2"/>
      <ellipse id="Ellipse_1037" data-name="Ellipse 1037" cx="0.065" cy="0.098" rx="0.065" ry="0.098" transform="translate(41.561 23.923)" fill="#ff6584"/>
      <ellipse id="Ellipse_1038" data-name="Ellipse 1038" cx="0.065" cy="0.098" rx="0.065" ry="0.098" transform="translate(41.953 23.793)" fill="#ff6584"/>
      <ellipse id="Ellipse_1039" data-name="Ellipse 1039" cx="0.065" cy="0.098" rx="0.065" ry="0.098" transform="translate(41.953 24.642)" fill="#ff6584"/>
      <ellipse id="Ellipse_1040" data-name="Ellipse 1040" cx="0.065" cy="0.098" rx="0.065" ry="0.098" transform="translate(42.345 24.119)" fill="#ff6584"/>
      <ellipse id="Ellipse_1041" data-name="Ellipse 1041" cx="0.065" cy="0.098" rx="0.065" ry="0.098" transform="translate(42.28 24.838)" fill="#ff6584"/>
      <ellipse id="Ellipse_1042" data-name="Ellipse 1042" cx="0.065" cy="0.098" rx="0.065" ry="0.098" transform="translate(41.495 24.512)" fill="#ff6584"/>
      <circle id="Ellipse_1043" data-name="Ellipse 1043" cx="1.046" cy="1.046" r="1.046" transform="translate(43.064 20.524)" fill="#ff6584"/>
      <path id="Path_27811" data-name="Path 27811" d="M672.815,464.556a.784.784,0,0,1-1.569,0" transform="translate(-627.921 -442.921)" opacity="0.2"/>
      <path id="Path_27812" data-name="Path 27812" d="M671.246,454.458a.784.784,0,0,1,1.569,0" transform="translate(-627.921 -432.953)" opacity="0.2"/>
      <ellipse id="Ellipse_1044" data-name="Ellipse 1044" cx="0.065" cy="0.098" rx="0.065" ry="0.098" transform="translate(43.652 21.113)" fill="#ff6584"/>
      <ellipse id="Ellipse_1045" data-name="Ellipse 1045" cx="0.065" cy="0.098" rx="0.065" ry="0.098" transform="translate(44.044 20.982)" fill="#ff6584"/>
      <ellipse id="Ellipse_1046" data-name="Ellipse 1046" cx="0.065" cy="0.098" rx="0.065" ry="0.098" transform="translate(44.044 21.832)" fill="#ff6584"/>
      <ellipse id="Ellipse_1047" data-name="Ellipse 1047" cx="0.065" cy="0.098" rx="0.065" ry="0.098" transform="translate(44.437 21.309)" fill="#ff6584"/>
      <ellipse id="Ellipse_1048" data-name="Ellipse 1048" cx="0.065" cy="0.098" rx="0.065" ry="0.098" transform="translate(44.371 22.028)" fill="#ff6584"/>
      <ellipse id="Ellipse_1049" data-name="Ellipse 1049" cx="0.065" cy="0.098" rx="0.065" ry="0.098" transform="translate(43.587 21.701)" fill="#ff6584"/>
      <circle id="Ellipse_1050" data-name="Ellipse 1050" cx="1.046" cy="1.046" r="1.046" transform="translate(45.156 21.962)" fill="#ffd54f"/>
      <path id="Path_27813" data-name="Path 27813" d="M697.69,481.658a.784.784,0,1,1-1.569,0" transform="translate(-650.704 -458.584)" opacity="0.2"/>
      <path id="Path_27814" data-name="Path 27814" d="M696.121,471.56a.784.784,0,0,1,1.569,0" transform="translate(-650.704 -448.617)" opacity="0.2"/>
      <ellipse id="Ellipse_1051" data-name="Ellipse 1051" cx="0.065" cy="0.098" rx="0.065" ry="0.098" transform="translate(45.744 22.551)" fill="#ffd54f"/>
      <ellipse id="Ellipse_1052" data-name="Ellipse 1052" cx="0.065" cy="0.098" rx="0.065" ry="0.098" transform="translate(46.136 22.42)" fill="#ffd54f"/>
      <ellipse id="Ellipse_1053" data-name="Ellipse 1053" cx="0.065" cy="0.098" rx="0.065" ry="0.098" transform="translate(46.136 23.27)" fill="#ffd54f"/>
      <ellipse id="Ellipse_1054" data-name="Ellipse 1054" cx="0.065" cy="0.098" rx="0.065" ry="0.098" transform="translate(46.528 22.747)" fill="#ffd54f"/>
      <ellipse id="Ellipse_1055" data-name="Ellipse 1055" cx="0.065" cy="0.098" rx="0.065" ry="0.098" transform="translate(46.463 23.466)" fill="#ffd54f"/>
      <ellipse id="Ellipse_1056" data-name="Ellipse 1056" cx="0.065" cy="0.098" rx="0.065" ry="0.098" transform="translate(45.679 23.139)" fill="#ffd54f"/>
      <circle id="Ellipse_1057" data-name="Ellipse 1057" cx="1.046" cy="1.046" r="1.046" transform="translate(39.926 22.093)" fill="#ffd54f"/>
      <path id="Path_27815" data-name="Path 27815" d="M635.5,483.213a.784.784,0,0,1-1.569,0" transform="translate(-593.746 -460.008)" opacity="0.2"/>
      <path id="Path_27816" data-name="Path 27816" d="M633.934,473.114a.784.784,0,1,1,1.569,0" transform="translate(-593.746 -450.041)" opacity="0.2"/>
      <ellipse id="Ellipse_1058" data-name="Ellipse 1058" cx="0.065" cy="0.098" rx="0.065" ry="0.098" transform="translate(40.515 22.681)" fill="#ffd54f"/>
      <ellipse id="Ellipse_1059" data-name="Ellipse 1059" cx="0.065" cy="0.098" rx="0.065" ry="0.098" transform="translate(40.907 22.551)" fill="#ffd54f"/>
      <ellipse id="Ellipse_1060" data-name="Ellipse 1060" cx="0.065" cy="0.098" rx="0.065" ry="0.098" transform="translate(40.907 23.4)" fill="#ffd54f"/>
      <ellipse id="Ellipse_1061" data-name="Ellipse 1061" cx="0.065" cy="0.098" rx="0.065" ry="0.098" transform="translate(41.299 22.878)" fill="#ffd54f"/>
      <ellipse id="Ellipse_1062" data-name="Ellipse 1062" cx="0.065" cy="0.098" rx="0.065" ry="0.098" transform="translate(41.234 23.597)" fill="#ffd54f"/>
      <ellipse id="Ellipse_1063" data-name="Ellipse 1063" cx="0.065" cy="0.098" rx="0.065" ry="0.098" transform="translate(40.449 23.27)" fill="#ffd54f"/>
      <circle id="Ellipse_1064" data-name="Ellipse 1064" cx="1.046" cy="1.046" r="1.046" transform="translate(42.28 22.551)" fill="#ffd54f"/>
      <path id="Path_27817" data-name="Path 27817" d="M663.487,488.654a.784.784,0,1,1-1.569,0" transform="translate(-619.377 -464.992)" opacity="0.2"/>
      <path id="Path_27818" data-name="Path 27818" d="M661.918,478.556a.784.784,0,0,1,1.569,0" transform="translate(-619.377 -455.024)" opacity="0.2"/>
      <ellipse id="Ellipse_1065" data-name="Ellipse 1065" cx="0.065" cy="0.098" rx="0.065" ry="0.098" transform="translate(42.868 23.139)" fill="#ffd54f"/>
      <ellipse id="Ellipse_1066" data-name="Ellipse 1066" cx="0.065" cy="0.098" rx="0.065" ry="0.098" transform="translate(43.26 23.008)" fill="#ffd54f"/>
      <ellipse id="Ellipse_1067" data-name="Ellipse 1067" cx="0.065" cy="0.098" rx="0.065" ry="0.098" transform="translate(43.26 23.858)" fill="#ffd54f"/>
      <ellipse id="Ellipse_1068" data-name="Ellipse 1068" cx="0.065" cy="0.098" rx="0.065" ry="0.098" transform="translate(43.652 23.335)" fill="#ffd54f"/>
      <ellipse id="Ellipse_1069" data-name="Ellipse 1069" cx="0.065" cy="0.098" rx="0.065" ry="0.098" transform="translate(43.587 24.054)" fill="#ffd54f"/>
      <ellipse id="Ellipse_1070" data-name="Ellipse 1070" cx="0.065" cy="0.098" rx="0.065" ry="0.098" transform="translate(42.803 23.727)" fill="#ffd54f"/>
      <circle id="Ellipse_1071" data-name="Ellipse 1071" cx="1.046" cy="1.046" r="1.046" transform="translate(43.914 23.662)" fill="#ff6584"/>
      <path id="Path_27819" data-name="Path 27819" d="M682.921,501.869a.784.784,0,1,1-1.569,0" transform="translate(-637.177 -477.096)" opacity="0.2"/>
      <path id="Path_27820" data-name="Path 27820" d="M681.352,491.77a.784.784,0,0,1,1.569,0" transform="translate(-637.177 -467.128)" opacity="0.2"/>
      <ellipse id="Ellipse_1072" data-name="Ellipse 1072" cx="0.065" cy="0.098" rx="0.065" ry="0.098" transform="translate(44.502 24.25)" fill="#ff6584"/>
      <ellipse id="Ellipse_1073" data-name="Ellipse 1073" cx="0.065" cy="0.098" rx="0.065" ry="0.098" transform="translate(44.894 24.119)" fill="#ff6584"/>
      <ellipse id="Ellipse_1074" data-name="Ellipse 1074" cx="0.065" cy="0.098" rx="0.065" ry="0.098" transform="translate(44.894 24.969)" fill="#ff6584"/>
      <ellipse id="Ellipse_1075" data-name="Ellipse 1075" cx="0.065" cy="0.098" rx="0.065" ry="0.098" transform="translate(45.286 24.446)" fill="#ff6584"/>
      <ellipse id="Ellipse_1076" data-name="Ellipse 1076" cx="0.065" cy="0.098" rx="0.065" ry="0.098" transform="translate(45.221 25.165)" fill="#ff6584"/>
      <ellipse id="Ellipse_1077" data-name="Ellipse 1077" cx="0.065" cy="0.098" rx="0.065" ry="0.098" transform="translate(44.437 24.838)" fill="#ff6584"/>
      <circle id="Ellipse_1078" data-name="Ellipse 1078" cx="0.277" cy="0.277" r="0.277" transform="translate(31.233 20.443)" fill="#3f3d56"/>
      <path id="Path_27821" data-name="Path 27821" d="M391.828,335.651,385.17,333.8l.255-.947,6.658,1.846Z" transform="translate(-352.782 -304.868)" fill="#f9a825"/>
      <path id="Path_27822" data-name="Path 27822" d="M533.562,558.874a18.354,18.354,0,0,1-6.9,0v-.982a21.1,21.1,0,0,0,6.9,0Z" transform="translate(-495.493 -528.408)" fill="#f9a825"/>
      <path id="Path_27823" data-name="Path 27823" d="M542,523.839a18.353,18.353,0,0,1-6.9,0v-.982a21.1,21.1,0,0,0,6.9,0Z" transform="translate(-503.221 -496.319)" fill="#f9a825"/>
      <path id="Path_27824" data-name="Path 27824" d="M570.382,537.853a18.355,18.355,0,0,1-6.9,0v-.982a21.108,21.108,0,0,0,6.9,0Z" transform="translate(-529.216 -509.155)" fill="#f9a825"/>
      <path id="Path_27825" data-name="Path 27825" d="M577.286,551.089a18.353,18.353,0,0,1-6.9,0v-.982a21.1,21.1,0,0,0,6.9,0Z" transform="translate(-535.54 -521.277)" fill="#f9a825"/>
      <path id="Path_27826" data-name="Path 27826" d="M444.643,361.271l-6.809,1.144-.158-.969,6.809-1.144Z" transform="translate(-400.873 -330.005)" fill="#f9a825"/>
      <path id="Path_27827" data-name="Path 27827" d="M591.726,570.858a18.5,18.5,0,0,1-6.271,2.925l-.4-.892a21.272,21.272,0,0,0,6.271-2.925Z" transform="translate(-548.973 -539.466)" fill="#f9a825"/>
      <path id="Path_27828" data-name="Path 27828" d="M584.979,535.447a18.5,18.5,0,0,1-6.271,2.925l-.4-.892a21.272,21.272,0,0,0,6.271-2.925Z" transform="translate(-542.794 -507.033)" fill="#f9a825"/>
      <path id="Path_27829" data-name="Path 27829" d="M616.534,536.153a18.5,18.5,0,0,1-6.271,2.925l-.4-.892a21.271,21.271,0,0,0,6.271-2.925Z" transform="translate(-571.695 -507.679)" fill="#f9a825"/>
      <path id="Path_27830" data-name="Path 27830" d="M628.252,545.253a18.5,18.5,0,0,1-6.271,2.925l-.4-.892a21.271,21.271,0,0,0,6.271-2.925Z" transform="translate(-582.428 -516.015)" fill="#f9a825"/>
      <rect id="Rectangle_1825" data-name="Rectangle 1825" width="0.327" height="0.327" transform="translate(37.247 27.322)" fill="#00bf71"/>
      <rect id="Rectangle_1826" data-name="Rectangle 1826" width="0.327" height="0.327" transform="translate(38.227 33.009)" fill="#00bf71"/>
      <rect id="Rectangle_1827" data-name="Rectangle 1827" width="0.327" height="0.327" transform="translate(32.998 27.322)" fill="#00bf71"/>
      <rect id="Rectangle_1828" data-name="Rectangle 1828" width="0.327" height="0.327" transform="translate(40.58 31.375)" fill="#00bf71"/>
      <rect id="Rectangle_1829" data-name="Rectangle 1829" width="0.327" height="0.327" transform="translate(40.776 29.479)" fill="#00bf71"/>
      <rect id="Rectangle_1830" data-name="Rectangle 1830" width="0.458" height="0.261" transform="translate(35.333 28.327) rotate(34.156)" fill="#00bf71"/>
      <rect id="Rectangle_1831" data-name="Rectangle 1831" width="0.458" height="0.261" transform="translate(39.19 29.046) rotate(34.156)" fill="#00bf71"/>
      <rect id="Rectangle_1832" data-name="Rectangle 1832" width="0.458" height="0.261" transform="translate(34.483 30.288) rotate(34.156)" fill="#00bf71"/>
      <rect id="Rectangle_1833" data-name="Rectangle 1833" width="0.458" height="0.261" transform="translate(37.516 30.148) rotate(124.156)" fill="#00bf71"/>
      <rect id="Rectangle_1834" data-name="Rectangle 1834" width="0.458" height="0.261" transform="translate(39.281 30.605) rotate(124.156)" fill="#00bf71"/>
      <rect id="Rectangle_1835" data-name="Rectangle 1835" width="0.458" height="0.261" transform="translate(43.987 29.037) rotate(124.156)" fill="#00bf71"/>
    </g>
    <g id="Group_1204" data-name="Group 1204" transform="translate(-123.23 312.252)">
      <path id="Path_27887" data-name="Path 27887" d="M390.544,561.544s-2.546,5.037-.379,5.037,29.464.108,30.222-1.3c.531-.987.238-4.5.015-6.514a1.54,1.54,0,0,0-1.616-1.369c-5.9.326-27.959,1.533-27.863,1.383.19-.3.054-.217.054-.217S390.111,561.327,390.544,561.544Z" transform="translate(-76.909 -456.739)" fill="#3f3d56"/>
      <path id="Path_27888" data-name="Path 27888" d="M438.762,558.768a1.54,1.54,0,0,0-1.616-1.369c-5.9.326-27.959,1.533-27.863,1.383.19-.3.054-.217.054-.217s-.193.617-.352,1.29c.022,0,.039.019-.034.148l-.019.087c.883.087,22.067-1.073,27.835-1.391a1.54,1.54,0,0,1,1.616,1.369,32.7,32.7,0,0,1,.246,5.323.324.324,0,0,0,.118-.11C439.278,564.294,438.985,560.782,438.762,558.768Z" transform="translate(-95.215 -456.738)" opacity="0.1"/>
      <path id="Path_27889" data-name="Path 27889" d="M375.788,460.248c-.282-.087-.639-.2-.607-.38.017-.1.147-.172.24-.253.181-.156.23-.377.035-.528a.8.8,0,0,0-.833-.011c-.088.082-.083.185-.128.278-.142.29-.716.417-1.2.529s-1.034.322-.988.622c.05.327.8.617.5.9-.11.1-.341.158-.39.273-.035.081.035.164.1.238l.479.528c.191.21.387.439.323.673-.127.464-1.156.641-1.972.589a1.631,1.631,0,0,0-.855.08.28.28,0,0,0-.105.376,1.553,1.553,0,0,0,1.122.745c-.621.123-.865.639-.436.924a1.276,1.276,0,0,1-.76.022c-.212.2-.087.463.182.634a3.605,3.605,0,0,0,1.019.358l-.345.323a1.444,1.444,0,0,0,1.153,0,2.477,2.477,0,0,1,1.167-.224c.382.061.672.316,1.061.272a.684.684,0,0,0,.539-.4l.4-.712c.569.089,1.167-.3.939-.612.637.068,1.263-.345,1.054-.7a2.037,2.037,0,0,1,.694.884.844.844,0,0,0,.226.413.751.751,0,0,0,.657.119c-.116.225-.21.488.028.679s.927.137.9-.1a3.31,3.31,0,0,0,1.226.315c.455.012.952-.161.993-.42a6.35,6.35,0,0,0,1.985.32c.057-.173.458-.229.758-.187a6.237,6.237,0,0,0,.886.144c.309,0,.641-.186.483-.337a6.38,6.38,0,0,0,1.977.1c.623-.066,1.213-.223,1.844-.257a4.4,4.4,0,0,1,1.877.3,1.086,1.086,0,0,0,.691.128.827.827,0,0,0,.279-.188,2.526,2.526,0,0,1,1.742-.119,3.578,3.578,0,0,0,1.807.049c.2-.075.341-.191.55-.254.749-.225,1.645.352,2.44.186a4.84,4.84,0,0,1,.743-.2c.486-.028.808.3,1.28.372.491.074,1.022-.225.9-.507a4.4,4.4,0,0,0,1.393-.194l-.223-.4c.555-.009.963-.407.706-.688a1.423,1.423,0,0,0,1.111-.72c.114-.329-.1-.689-.545-.908a2.548,2.548,0,0,1-.755-.4c-.108-.129-.092-.278-.134-.419a1.268,1.268,0,0,0-1-.685,5.413,5.413,0,0,1-.669-.134c-.2-.071-.348-.225-.231-.343a2.367,2.367,0,0,1,.257-.156c.311-.23-.222-.521-.678-.65l1.088-.036.234-1.06a1.619,1.619,0,0,1-1.827-.12,1.032,1.032,0,0,0,.99-.241.761.761,0,0,0,.083-.68.33.33,0,0,0-.181-.27c-.107-.051-.276-.072-.311-.149s.1-.147.123-.227c.039-.154-.314-.221-.552-.3-.563-.175-.835-.668-1.475-.652a.8.8,0,0,0-.813.864.8.8,0,0,1-.851.843,1.742,1.742,0,0,1-.678-.181l-1.821-.785a4.361,4.361,0,0,0-.748-.268,5.831,5.831,0,0,0-1.169-.1l-2.547-.058a1.187,1.187,0,0,0-.386.033.724.724,0,0,0-.279.208,2.09,2.09,0,0,1-1.79.28c-.16-.049-.3-.116-.472-.152a4.852,4.852,0,0,0-1.645.175c-.907.126-2.034-.091-2.688.29-.218.127-.334.3-.536.436a.993.993,0,0,1-.821.125.959.959,0,0,1-.107.737,1.157,1.157,0,0,1-1.023.359c-.225-.059-.207-.249-.1-.376s.27-.259.216-.4-.293-.217-.473-.313-.3-.277-.109-.365c-.129-.166-.592-.145-.8-.007a.631.631,0,0,0-.246.515.574.574,0,0,1-.307.5c-.4.206-1.174.1-1.441.368-.085.085-.09.188-.138.282-.216.42-1.151.529-1.914.563a.936.936,0,0,0-.011.265C376.413,460.536,375.978,460.306,375.788,460.248Z" transform="translate(-59.119 -362.992)" fill="#61ab43"/>
      <path id="Path_27890" data-name="Path 27890" d="M839.185,495.906a.761.761,0,0,1-.083.68.527.527,0,0,1-.086.081l.69-.023.234-1.06a1.331,1.331,0,0,1-.78.224A.681.681,0,0,1,839.185,495.906Z" transform="translate(-496.061 -399.13)" opacity="0.1"/>
      <path id="Path_27891" data-name="Path 27891" d="M826.993,513.283c-.027-.143-.263-.289-.528-.393a1.075,1.075,0,0,1-.746.065A1.486,1.486,0,0,0,826.993,513.283Z" transform="translate(-483.669 -415.258)" opacity="0.1"/>
      <path id="Path_27892" data-name="Path 27892" d="M834.26,530.021l-.018.081-1.088.036c.456.129.99.42.678.65a2.348,2.348,0,0,0-.257.156c-.117.118.029.272.231.343a5.4,5.4,0,0,0,.669.135,1.268,1.268,0,0,1,1,.685c.042.14.026.29.134.419a2.546,2.546,0,0,0,.755.4l.073.039a.989.989,0,0,0,.471-.493c.115-.329-.1-.689-.545-.908a2.549,2.549,0,0,1-.755-.4c-.108-.129-.092-.278-.134-.419a1.268,1.268,0,0,0-1-.685C834.4,530.044,834.332,530.033,834.26,530.021Z" transform="translate(-490.597 -431.224)" opacity="0.1"/>
      <path id="Path_27893" data-name="Path 27893" d="M370.9,590.572a.83.83,0,0,1,.612-.4,2.07,2.07,0,0,1-.82-.37,1.238,1.238,0,0,1-.376-.047c-.212.2-.087.463.182.634A1.956,1.956,0,0,0,370.9,590.572Z" transform="translate(-59.119 -486.896)" opacity="0.1"/>
      <path id="Path_27894" data-name="Path 27894" d="M401.549,461.387a3.629,3.629,0,0,1,.475-.142c.488-.112,1.063-.24,1.2-.529.046-.093.04-.2.128-.278a.8.8,0,0,1,.833.011c.194.151.145.371-.035.528-.094.081-.223.157-.24.253-.032.182.325.294.607.38a1.2,1.2,0,0,1,.367.194c0-.019,0-.039.007-.058.764-.034,1.7-.143,1.914-.563.049-.094.053-.2.138-.282.267-.269,1.039-.162,1.441-.368a.574.574,0,0,0,.307-.5.63.63,0,0,1,.246-.515c.2-.139.667-.159.8.007-.191.088-.071.27.109.365s.421.176.473.313-.11.269-.216.4-.124.317.1.376a1.158,1.158,0,0,0,1.023-.359.959.959,0,0,0,.107-.737.993.993,0,0,0,.821-.125c.2-.135.318-.309.536-.436.654-.381,1.781-.163,2.688-.29a4.852,4.852,0,0,1,1.645-.175c.169.037.312.1.472.152a2.09,2.09,0,0,0,1.79-.28.724.724,0,0,1,.279-.208,1.187,1.187,0,0,1,.386-.033l2.547.058a5.831,5.831,0,0,1,1.169.1,4.361,4.361,0,0,1,.748.268l1.821.785a1.742,1.742,0,0,0,.678.181.8.8,0,0,0,.851-.843.8.8,0,0,1,.813-.864c.64-.016.913.477,1.475.652.238.074.592.142.552.3-.018.071-.129.134-.128.2a.838.838,0,0,0,.415-.238.761.761,0,0,0,.083-.68.33.33,0,0,0-.181-.27c-.106-.051-.276-.072-.311-.149s.1-.147.123-.228c.039-.154-.314-.221-.552-.3-.563-.175-.835-.668-1.475-.652a.8.8,0,0,0-.813.864.8.8,0,0,1-.851.843,1.743,1.743,0,0,1-.678-.181l-1.821-.785a4.36,4.36,0,0,0-.748-.268,5.831,5.831,0,0,0-1.169-.1l-2.547-.058a1.189,1.189,0,0,0-.386.033.724.724,0,0,0-.279.208,2.091,2.091,0,0,1-1.79.28c-.16-.049-.3-.116-.472-.152a4.852,4.852,0,0,0-1.645.175c-.907.126-2.034-.091-2.688.29-.218.127-.334.3-.536.436a.993.993,0,0,1-.821.125.96.96,0,0,1-.107.737,1.158,1.158,0,0,1-1.023.359c-.225-.059-.207-.249-.1-.376s.27-.259.216-.4-.293-.217-.473-.313-.3-.277-.109-.365c-.129-.166-.592-.145-.8-.007a.63.63,0,0,0-.246.515.574.574,0,0,1-.307.5c-.4.206-1.174.1-1.441.368-.085.085-.09.188-.138.282-.216.42-1.151.529-1.914.563,0,.019,0,.038-.007.058a1.2,1.2,0,0,0-.367-.194c-.282-.086-.639-.2-.607-.38.017-.1.147-.172.24-.253.181-.156.23-.377.035-.528a.8.8,0,0,0-.833-.011c-.088.082-.083.185-.128.278-.142.29-.716.417-1.2.529s-1.034.322-.988.622C401.085,460.826,401.814,461.112,401.549,461.387Z" transform="translate(-87.853 -362.992)" opacity="0.1"/>
      <path id="Path_27895" data-name="Path 27895" d="M373.563,557.273a1.069,1.069,0,0,0-.378.148c.073,0,.146.008.216.012.816.052,1.845-.125,1.972-.589.064-.234-.133-.463-.323-.673l-.23-.253a3.953,3.953,0,0,1-1.418.153,1.631,1.631,0,0,0-.855.08.28.28,0,0,0-.105.376A1.553,1.553,0,0,0,373.563,557.273Z" transform="translate(-61.174 -455.361)" opacity="0.1"/>
      <ellipse id="Ellipse_1085" data-name="Ellipse 1085" cx="8.124" cy="5.362" rx="8.124" ry="5.362" transform="translate(320.879 89.068)" fill="#ea565c"/>
      <path id="Path_27896" data-name="Path 27896" d="M554.779,418.882s-3.683.379-2.6-1.192,2.437-2.112,3.087-1.679a2.175,2.175,0,0,1,.812,1.625c-.108,0-1.679-.921-2.221-.217S554.779,418.882,554.779,418.882Z" transform="translate(-228.538 -324.831)" fill="#fff" opacity="0.2"/>
      <path id="Path_27897" data-name="Path 27897" d="M608.755,462.467s3.042,2.111,1.2,2.6-3.225.015-3.436-.737a2.174,2.174,0,0,1,.442-1.762c.082.071.674,1.792,1.544,1.611S608.755,462.467,608.755,462.467Z" transform="translate(-279.322 -368.263)" fill="#fff" opacity="0.2"/>
      <path id="Path_27898" data-name="Path 27898" d="M650.543,406.622s.24-3.695,1.608-2.365,1.677,2.755,1.141,3.324a2.175,2.175,0,0,1-1.738.53c.018-.107,1.188-1.5.584-2.153S650.543,406.622,650.543,406.622Z" transform="translate(-320.4 -313.741)" fill="#fff" opacity="0.2"/>
      <ellipse id="Ellipse_1086" data-name="Ellipse 1086" cx="8.124" cy="5.362" rx="8.124" ry="5.362" transform="translate(311.076 88.635)" fill="#ea565c"/>
      <path id="Path_27899" data-name="Path 27899" d="M410.574,412.508s-3.683.379-2.6-1.192,2.437-2.112,3.087-1.679a2.174,2.174,0,0,1,.812,1.625c-.108,0-1.679-.921-2.221-.217S410.574,412.508,410.574,412.508Z" transform="translate(-94.136 -318.89)" fill="#fff" opacity="0.2"/>
      <path id="Path_27900" data-name="Path 27900" d="M464.549,456.093s3.041,2.111,1.2,2.6-3.225.015-3.436-.737a2.175,2.175,0,0,1,.442-1.762c.082.071.674,1.792,1.544,1.611S464.549,456.093,464.549,456.093Z" transform="translate(-144.92 -362.322)" fill="#fff" opacity="0.2"/>
      <path id="Path_27901" data-name="Path 27901" d="M506.337,400.248s.24-3.695,1.608-2.365,1.677,2.755,1.141,3.324a2.175,2.175,0,0,1-1.738.53c.018-.107,1.188-1.5.584-2.154S506.337,400.248,506.337,400.248Z" transform="translate(-185.998 -307.8)" fill="#fff" opacity="0.2"/>
      <path id="Path_27902" data-name="Path 27902" d="M422.48,392.286a4.92,4.92,0,0,1,2.894,4.1c0,2.961-3.637,5.362-8.124,5.362a11.39,11.39,0,0,1-4.2-.772,10.867,10.867,0,0,0,5.23,1.259c4.487,0,8.124-2.4,8.124-5.362C426.4,394.93,424.832,393.226,422.48,392.286Z" transform="translate(-99.053 -302.853)" opacity="0.1"/>
      <path id="Path_27903" data-name="Path 27903" d="M566.686,397.864a4.919,4.919,0,0,1,2.894,4.1c0,2.961-3.637,5.362-8.124,5.362a11.389,11.389,0,0,1-4.2-.772,10.866,10.866,0,0,0,5.23,1.259c4.487,0,8.124-2.4,8.124-5.362C570.609,400.507,569.037,398.8,566.686,397.864Z" transform="translate(-233.454 -308.051)" opacity="0.1"/>
      <path id="Path_27904" data-name="Path 27904" d="M406.705,373.908s6.987-7.474,24.1-4.387c13.53,2.44,2.42,6.641-2.829,8.294a18.856,18.856,0,0,1-4.695.845C417.362,378.965,402.468,379.237,406.705,373.908Z" transform="translate(-92.443 -280.938)" fill="#714b4f"/>
      <path id="Path_27905" data-name="Path 27905" d="M427.984,416.479a18.857,18.857,0,0,1-4.695.845c-4.8.247-15.482.473-17.114-2.284-2.061,4.456,11.524,4.2,17.114,3.909a18.857,18.857,0,0,0,4.695-.845c3.847-1.211,10.843-3.792,8.977-6.044C435.7,413.827,430.925,415.553,427.984,416.479Z" transform="translate(-92.448 -321.282)" opacity="0.1"/>
      <line id="Line_44" data-name="Line 44" x2="1.896" y2="3.737" transform="translate(329.184 88.61)" fill="none" stroke="#000" stroke-miterlimit="10" stroke-width="2" opacity="0.1"/>
      <line id="Line_45" data-name="Line 45" x2="1.625" y2="3.141" transform="translate(323.335 89.964)" fill="none" stroke="#000" stroke-miterlimit="10" stroke-width="2" opacity="0.1"/>
      <line id="Line_46" data-name="Line 46" x2="2.546" y2="3.737" transform="translate(332.597 88.61)" fill="none" stroke="#000" stroke-miterlimit="10" stroke-width="2" opacity="0.1"/>
      <line id="Line_47" data-name="Line 47" y1="2.166" x2="17.061" transform="translate(323.335 91.263)" fill="none" stroke="#000" stroke-miterlimit="10" stroke-width="2" opacity="0.1"/>
      <line id="Line_48" data-name="Line 48" x2="1.192" y2="1.679" transform="translate(339.746 89.314)" fill="none" stroke="#000" stroke-miterlimit="10" stroke-width="2" opacity="0.1"/>
      <line id="Line_49" data-name="Line 49" x2="0.758" y2="1.571" transform="translate(319.977 91.263)" fill="none" stroke="#000" stroke-miterlimit="10" stroke-width="2" opacity="0.1"/>
      <path id="Path_27906" data-name="Path 27906" d="M397.3,340.3s15.58-.07,15.723-.211,3.431-.216,4.074.7.858,1.339,0,1.48-29.088,14.591-29.088,14.591-1.572.141-.786-1.41S397.3,340.3,397.3,340.3Z" transform="translate(-74.774 -254.121)" fill="#f6c964"/>
      <path id="Path_27907" data-name="Path 27907" d="M462.416,428.023c0,.583-2.813,2-6.283,2s-6.283-1.421-6.283-2,2.813-.812,6.283-.812S462.416,427.44,462.416,428.023Z" transform="translate(-133.351 -335.403)" fill="#61ab43"/>
      <ellipse id="Ellipse_1087" data-name="Ellipse 1087" cx="6.283" cy="1.056" rx="6.283" ry="1.056" transform="translate(316.499 91.537)" fill="#61ab43"/>
      <path id="Path_27908" data-name="Path 27908" d="M573.956,413.682c0,.583-2.813,2-6.283,2s-6.283-1.421-6.283-2,2.813-.812,6.283-.812S573.956,413.1,573.956,413.682Z" transform="translate(-237.309 -322.037)" fill="#61ab43"/>
      <ellipse id="Ellipse_1088" data-name="Ellipse 1088" cx="6.283" cy="1.056" rx="6.283" ry="1.056" transform="translate(324.082 90.562)" fill="#61ab43"/>
      <path id="Path_27909" data-name="Path 27909" d="M685.5,399.341c0,.583-2.813,2-6.283,2s-6.283-1.421-6.283-2,2.813-.812,6.283-.812S685.5,398.758,685.5,399.341Z" transform="translate(-341.266 -308.671)" fill="#61ab43"/>
      <ellipse id="Ellipse_1089" data-name="Ellipse 1089" cx="6.283" cy="1.056" rx="6.283" ry="1.056" transform="translate(331.664 89.587)" fill="#61ab43"/>
      <path id="Path_27910" data-name="Path 27910" d="M402.524,245.524s-2.584-.421-1.262-2.524,1.767-4.461,2.344-4.988c.645-.589,13.958-10.914,24.329.511a15.244,15.244,0,0,1,2.645,4.13,2.412,2.412,0,0,0,.4.677,1.593,1.593,0,0,1,0,2.223C430.2,246.155,407.182,248.5,402.524,245.524Z" transform="translate(-87.716 -154.554)" fill="#3f3d56"/>
      <path id="Path_27911" data-name="Path 27911" d="M588.276,283.806a1.011,1.011,0,0,1-.541.18c-.3,0-.541-.081-.541-.18s.242-.18.541-.18A1.011,1.011,0,0,1,588.276,283.806Z" transform="translate(-261.359 -201.579)" fill="#f2f2f2"/>
      <path id="Path_27912" data-name="Path 27912" d="M524.631,267.01a1.011,1.011,0,0,1-.541.18c-.3,0-.541-.081-.541-.18s.242-.18.541-.18A1.011,1.011,0,0,1,524.631,267.01Z" transform="translate(-202.04 -185.925)" fill="#f2f2f2"/>
      <path id="Path_27913" data-name="Path 27913" d="M698.162,288.507a1.011,1.011,0,0,1-.57.011c-.285-.089-.492-.239-.462-.334s.285-.1.57-.011A1.011,1.011,0,0,1,698.162,288.507Z" transform="translate(-363.817 -205.759)" fill="#f2f2f2"/>
      <path id="Path_27914" data-name="Path 27914" d="M580.6,243.425a1.011,1.011,0,0,1-.57.011c-.285-.089-.492-.238-.462-.334s.285-.1.57-.011A1.01,1.01,0,0,1,580.6,243.425Z" transform="translate(-254.243 -163.741)" fill="#f2f2f2"/>
      <path id="Path_27915" data-name="Path 27915" d="M708.769,259.337a1.011,1.011,0,0,1-.57.011c-.285-.089-.492-.239-.462-.334s.285-.1.57-.011A1.011,1.011,0,0,1,708.769,259.337Z" transform="translate(-373.704 -178.571)" fill="#f2f2f2"/>
      <path id="Path_27916" data-name="Path 27916" d="M681.976,259.939a1.011,1.011,0,0,1-.541.18c-.3,0-.541-.081-.541-.18s.242-.18.541-.18A1.011,1.011,0,0,1,681.976,259.939Z" transform="translate(-348.689 -179.334)" fill="#f2f2f2"/>
      <path id="Path_27917" data-name="Path 27917" d="M605.955,244.027a1.011,1.011,0,0,1-.541.18c-.3,0-.541-.081-.541-.18s.242-.18.541-.18A1.011,1.011,0,0,1,605.955,244.027Z" transform="translate(-277.836 -164.505)" fill="#f2f2f2"/>
      <path id="Path_27918" data-name="Path 27918" d="M664.3,244.027a1.011,1.011,0,0,1-.541.18c-.3,0-.541-.081-.541-.18s.242-.18.541-.18A1.011,1.011,0,0,1,664.3,244.027Z" transform="translate(-332.211 -164.505)" fill="#f2f2f2"/>
      <path id="Path_27919" data-name="Path 27919" d="M642.2,278.5a1.01,1.01,0,0,1-.541.18c-.3,0-.541-.081-.541-.18s.242-.18.541-.18A1.011,1.011,0,0,1,642.2,278.5Z" transform="translate(-311.614 -196.636)" fill="#f2f2f2"/>
      <path id="Path_27920" data-name="Path 27920" d="M592.75,264.571a1.01,1.01,0,0,1,.284-.495c.223-.2.457-.3.524-.226s-.061.3-.284.495A1.01,1.01,0,0,1,592.75,264.571Z" transform="translate(-266.536 -183.126)" fill="#f2f2f2"/>
      <path id="Path_27921" data-name="Path 27921" d="M552.971,254.847a1.011,1.011,0,0,1,.284-.495c.223-.2.457-.3.524-.226s-.061.3-.284.495A1.011,1.011,0,0,1,552.971,254.847Z" transform="translate(-229.462 -174.063)" fill="#f2f2f2"/>
      <path id="Path_27922" data-name="Path 27922" d="M484.023,302.581a1.011,1.011,0,0,1,.284-.495c.223-.2.457-.3.524-.226s-.061.3-.284.495a1.011,1.011,0,0,1-.524.226Z" transform="translate(-165.201 -218.552)" fill="#f2f2f2"/>
      <path id="Path_27923" data-name="Path 27923" d="M636.948,249.544a1.011,1.011,0,0,1,.284-.495c.223-.2.457-.3.524-.226s-.061.3-.283.495A1.011,1.011,0,0,1,636.948,249.544Z" transform="translate(-307.729 -169.12)" fill="#f2f2f2"/>
      <path id="Path_27924" data-name="Path 27924" d="M621.036,281.366a1.01,1.01,0,0,1,.284-.495c.223-.2.457-.3.524-.226s-.061.3-.284.495A1.011,1.011,0,0,1,621.036,281.366Z" transform="translate(-292.9 -198.779)" fill="#f2f2f2"/>
    </g>
    <g id="Group_1208" data-name="Group 1208" transform="translate(24 74.896)">
      <path id="Path_27931" data-name="Path 27931" d="M612.1,342.84s-2-4.115-5.8-3.693.264,4.326.264,4.326S611.207,343.843,612.1,342.84Z" transform="translate(-348.255 -88.503)" fill="#469a09"/>
      <path id="Path_27932" data-name="Path 27932" d="M612.1,342.84s-2-4.115-5.8-3.693.264,4.326.264,4.326S611.207,343.843,612.1,342.84Z" transform="translate(-348.255 -88.503)" opacity="0.1"/>
      <path id="Path_27933" data-name="Path 27933" d="M537.84,311s0-.054.01-.148c.068-.659.608-3.314,4.9-3.911,0,0,3.324-.633,3.851-1.741v3.377s-.686,2.375-4.115,3.166S537.84,311,537.84,311Z" transform="translate(-286.864 -57.35)" fill="#469a09"/>
      <path id="Path_27934" data-name="Path 27934" d="M400.14,491.826s-2.483,1.53-.739,4.537,29.439,0,29.439,0,1.793-3.693-1.424-5.012S400.14,491.826,400.14,491.826Z" transform="translate(-159.135 -227.888)" fill="#784f69"/>
      <path id="Path_27936" data-name="Path 27936" d="M675.74,459.8a3.069,3.069,0,0,0,5.012.369c2.849-2.849,1.635-4.748,0-4.8S675.74,459.8,675.74,459.8Z" transform="translate(-413.527 -195.278)" fill="#469a09"/>
      <path id="Path_27937" data-name="Path 27937" d="M675.74,459.8a3.069,3.069,0,0,0,5.012.369c2.849-2.849,1.635-4.748,0-4.8S675.74,459.8,675.74,459.8Z" transform="translate(-413.527 -195.278)" opacity="0.15"/>
      <path id="Path_27938" data-name="Path 27938" d="M616.263,434.12s.527-4.482-6.274-1.055-5.065,5.223-5.065,5.223,3.377,2.586,6.12.475S615.471,436.019,616.263,434.12Z" transform="translate(-348.299 -173.61)" fill="#469a09"/>
      <path id="Path_27939" data-name="Path 27939" d="M616.263,434.12s.527-4.482-6.274-1.055-5.065,5.223-5.065,5.223,3.377,2.586,6.12.475S615.471,436.019,616.263,434.12Z" transform="translate(-348.299 -173.61)" opacity="0.1"/>
      <path id="Path_27940" data-name="Path 27940" d="M511.542,434.739s-2.586-1.793-6.542,0-8.6,6.331-8.6,6.331,6.067,2.166,9.338-.317S511.384,436.427,511.542,434.739Z" transform="translate(-248.801 -175.602)" fill="#469a09"/>
      <path id="Path_27941" data-name="Path 27941" d="M511.542,434.739s-2.586-1.793-6.542,0-8.6,6.331-8.6,6.331,6.067,2.166,9.338-.317S511.384,436.427,511.542,434.739Z" transform="translate(-248.801 -175.602)" opacity="0.07"/>
      <path id="Path_27942" data-name="Path 27942" d="M447.061,438.41s-5.276-.738-7.7.738S432,444.556,432,444.556s1.5,2.876,5.878.659C437.881,445.214,446.955,439.57,447.061,438.41Z" transform="translate(-189.648 -179.535)" fill="#469a09"/>
      <path id="Path_27943" data-name="Path 27943" d="M447.061,438.41s-5.276-.738-7.7.738S432,444.556,432,444.556s1.5,2.876,5.878.659C437.881,445.214,446.955,439.57,447.061,438.41Z" transform="translate(-189.648 -179.535)" opacity="0.03"/>
      <path id="Path_27944" data-name="Path 27944" d="M419.926,441.266s-4.7,3.748-1,5.7c0,0,7.808-5.117,7.967-5.7A11.437,11.437,0,0,0,419.926,441.266Z" transform="translate(-176.336 -181.812)" fill="#469a09"/>
      <path id="Path_27945" data-name="Path 27945" d="M459.708,371.159s-3.113-.527-3.957,0-7.175,2.163-5.909,6.648l1.9-.683S455.382,372.53,459.708,371.159Z" transform="translate(-205.883 -117.719)" fill="#469a09"/>
      <path id="Path_27946" data-name="Path 27946" d="M459.708,371.159s-3.113-.527-3.957,0-7.175,2.163-5.909,6.648l1.9-.683S455.382,372.53,459.708,371.159Z" transform="translate(-205.883 -117.719)" opacity="0.1"/>
      <path id="Path_27947" data-name="Path 27947" d="M482.224,371.363s-2.216-2.058-7.123-.158a12.154,12.154,0,0,0-6.542,5.328l7.36.554S480.061,371.152,482.224,371.363Z" transform="translate(-223.229 -117.237)" fill="#469a09"/>
      <path id="Path_27948" data-name="Path 27948" d="M482.224,371.363s-2.216-2.058-7.123-.158a12.154,12.154,0,0,0-6.542,5.328l7.36.554S480.061,371.152,482.224,371.363Z" transform="translate(-223.229 -117.237)" opacity="0.07"/>
      <path id="Path_27949" data-name="Path 27949" d="M565.353,380.826s-3.535-1.16-6.274.422a9.3,9.3,0,0,0-3.748,4.7l4.379-.211S563.137,380.352,565.353,380.826Z" transform="translate(-302.929 -126.437)" fill="#469a09"/>
      <path id="Path_27950" data-name="Path 27950" d="M565.353,380.826s-3.535-1.16-6.274.422a9.3,9.3,0,0,0-3.748,4.7l4.379-.211S563.137,380.352,565.353,380.826Z" transform="translate(-302.929 -126.437)" opacity="0.03"/>
      <path id="Path_27951" data-name="Path 27951" d="M619.072,385.641s1.213-6.173-6.806-4.273c0,0-4.557,4.01-3.281,5.117S619.072,385.641,619.072,385.641Z" transform="translate(-352.005 -126.978)" fill="#469a09"/>
      <path id="Path_27952" data-name="Path 27952" d="M397.923,542.434l4.294,14.315a.46.46,0,0,0,.177.244c1.2.839,10.421,6.788,21.715,0a.462.462,0,0,0,.2-.264l4.28-14.325a.462.462,0,0,0-.555-.58l-1.859.464a.463.463,0,0,1-.2.007l-1.748-.326a.462.462,0,0,0-.3.046l-2.075,1.107a.462.462,0,0,1-.326.041l-2.232-.555a.463.463,0,0,0-.256.009l-2.592.848a.462.462,0,0,1-.354-.028l-1.717-.878a.462.462,0,0,0-.351-.029l-2.214.707a.465.465,0,0,1-.173.02l-2.132-.149a.46.46,0,0,1-.095-.016l-1.692-.483a.462.462,0,0,0-.219-.008l-2.344.476a.462.462,0,0,1-.262-.023l-2.282-.9a.461.461,0,0,0-.252-.025l-1.816.326a.463.463,0,0,1-.22-.014l-1.83-.575a.462.462,0,0,0-.579.574Z" transform="translate(-158.33 -274.68)" opacity="0.1"/>
      <path id="Path_27953" data-name="Path 27953" d="M397.923,543.724l4.294,14.315a.46.46,0,0,0,.177.244c1.2.839,10.421,6.788,21.715,0a.462.462,0,0,0,.2-.264l4.28-14.325a.462.462,0,0,0-.555-.58l-1.858.467a.462.462,0,0,1-.2.006l-1.748-.326a.462.462,0,0,0-.3.046l-2.075,1.107a.462.462,0,0,1-.326.041L419.3,543.9a.462.462,0,0,0-.256.009l-2.592.848a.462.462,0,0,1-.354-.028l-1.717-.88a.462.462,0,0,0-.351-.029l-2.214.707a.463.463,0,0,1-.173.02l-2.134-.149a.46.46,0,0,1-.095-.016l-1.692-.483a.463.463,0,0,0-.219-.008l-2.344.478a.461.461,0,0,1-.262-.023l-2.282-.9a.463.463,0,0,0-.252-.025l-1.816.326a.461.461,0,0,1-.22-.014l-1.83-.575a.462.462,0,0,0-.579.574Z" transform="translate(-158.33 -275.865)" fill="#4d4981"/>
      <path id="Path_27954" data-name="Path 27954" d="M289.721,408.671l-.449-.156-.252-.4,1.12-1.4.449.156.252.4Z" transform="translate(-45.417 -145.915)" fill="#fff" opacity="0.5"/>
      <path id="Path_27955" data-name="Path 27955" d="M550.651,437.811l-.45-.156-.251-.4,1.119-1.4.449.156.252.4Z" transform="translate(-285.085 -172.681)" fill="#fff" opacity="0.5"/>
      <path id="Path_27956" data-name="Path 27956" d="M436.051,343.921l-.449-.156-.252-.4,1.119-1.4.45.156.251.4Z" transform="translate(-179.824 -86.441)" fill="#fff" opacity="0.5"/>
      <path id="Path_27957" data-name="Path 27957" d="M463.215,407.751l-.434.192-.46-.122-.141-1.789.434-.192.46.122Z" transform="translate(-204.467 -145.116)" fill="#fff" opacity="0.5"/>
      <path id="Path_27958" data-name="Path 27958" d="M365.911,358.16l-.3.369-.465.1-.935-1.53.3-.369.465-.1Z" transform="translate(-114.481 -99.916)" fill="#fff" opacity="0.5"/>
      <path id="Path_27959" data-name="Path 27959" d="M359.441,411.25l-.3.369-.464.1-.935-1.53.3-.369.465-.1Z" transform="translate(-108.538 -148.68)" fill="#fff" opacity="0.5"/>
      <path id="Path_27960" data-name="Path 27960" d="M519.481,415.208l-.345.328-.474.038-.732-1.638.346-.328.473-.038Z" transform="translate(-255.674 -152.216)" fill="#fff" opacity="0.5"/>
      <path id="Path_27961" data-name="Path 27961" d="M508.11,356.376l.117-.461.38-.285,1.494.992-.117.461-.38.286Z" transform="translate(-246.655 -98.997)" fill="#fff" opacity="0.5"/>
      <path id="Path_27962" data-name="Path 27962" d="M305.261,351.051l-.449-.156-.252-.4,1.12-1.4.449.156.252.4Z" transform="translate(-59.691 -92.99)" fill="#fd6f8d" opacity="0.5"/>
      <path id="Path_27963" data-name="Path 27963" d="M381.3,330.771l-.11-.462.205-.429,1.784.19.11.463-.205.429Z" transform="translate(-130.077 -75.346)" fill="#fd6f8d" opacity="0.5"/>
      <path id="Path_27964" data-name="Path 27964" d="M488.62,299.8l.089-.467.363-.308,1.55.9-.089.467-.363.308Z" transform="translate(-228.753 -47.01)" fill="#fd6f8d" opacity="0.5"/>
      <path id="Path_27965" data-name="Path 27965" d="M443.868,278.436l.464-.106.427.209-.208,1.782-.464.105-.427-.209Z" transform="translate(-187.456 -27.996)" fill="#fd6f8d" opacity="0.5"/>
      <path id="Path_27966" data-name="Path 27966" d="M405.91,442.132l-.11-.463.2-.429,1.784.19.11.463-.2.429Z" transform="translate(-152.682 -177.631)" fill="#fd6f8d" opacity="0.5"/>
      <path id="Path_27967" data-name="Path 27967" d="M323.041,440.8l-.281-.384.021-.474,1.717-.521.282.384-.022.475Z" transform="translate(-76.408 -175.96)" fill="#fd6f8d" opacity="0.5"/>
      <path id="Path_27968" data-name="Path 27968" d="M546.9,397.326l-.39-.271-.133-.457,1.456-1.047.39.271.133.456Z" transform="translate(-281.806 -135.665)" fill="#fd6f8d" opacity="0.5"/>
      <path id="Path_27969" data-name="Path 27969" d="M395.394,401.856l-.39-.271-.134-.456,1.456-1.048.39.271.134.456Z" transform="translate(-142.642 -139.825)" fill="#fd6f8d" opacity="0.5"/>
      <path id="Path_27970" data-name="Path 27970" d="M402.389,542.457l-1.816.326a.462.462,0,0,1-.22-.014l-.03-.01,3.306,15.319-3.306-15.319-1.8-.565a.462.462,0,0,0-.581.57l4.294,14.315a.46.46,0,0,0,.177.244,17.258,17.258,0,0,0,3.311,1.745l-3.2-16.623A.461.461,0,0,0,402.389,542.457Z" transform="translate(-158.348 -275.013)" opacity="0.1"/>
      <path id="Path_27971" data-name="Path 27971" d="M670.065,541.845l-1.859.464a.462.462,0,0,1-.2.007l-1.748-.326a.462.462,0,0,0-.163,0l-3.056,16.6,3.054-16.6a.461.461,0,0,0-.137.047l-2.075,1.107a.462.462,0,0,1-.309.045L661.4,559.206a22.841,22.841,0,0,0,3.6-1.548l3.332-15.38L665,557.653q.566-.3,1.141-.645a.462.462,0,0,0,.2-.264l4.28-14.325a.462.462,0,0,0-.557-.574Z" transform="translate(-400.355 -274.699)" opacity="0.1"/>
      <path id="Path_27972" data-name="Path 27972" d="M642.064,552.005l-2.23-.557a.459.459,0,0,0-.131-.013L638,568.558q.937-.213,1.91-.531l2.177-16.017Z" transform="translate(-378.862 -283.52)" fill="#4d4981"/>
      <g id="Group_1205" data-name="Group 1205" transform="translate(241.949 267.358)" opacity="0.5">
        <rect id="Rectangle_1836" data-name="Rectangle 1836" width="0.053" height="15.669" transform="matrix(0.977, -0.211, 0.211, 0.977, 0, 0.498)" fill="#fff"/>
        <rect id="Rectangle_1837" data-name="Rectangle 1837" width="0.053" height="16.394" transform="matrix(0.99, -0.142, 0.142, 0.99, 4.73, 1.171)" fill="#fff"/>
        <rect id="Rectangle_1838" data-name="Rectangle 1838" width="0.053" height="16.946" transform="translate(2.193 0.175) rotate(-10.9)" fill="#fff"/>
        <rect id="Rectangle_1839" data-name="Rectangle 1839" width="0.053" height="17.279" transform="matrix(0.996, -0.088, 0.088, 0.996, 7.313, 0.645)" fill="#fff"/>
        <rect id="Rectangle_1840" data-name="Rectangle 1840" width="0.053" height="16.917" transform="translate(10.185 1.245) rotate(-1.68)" fill="#fff"/>
        <rect id="Rectangle_1841" data-name="Rectangle 1841" width="0.053" height="17.431" transform="translate(12.947 0.845) rotate(-0.37)" fill="#fff"/>
        <rect id="Rectangle_1842" data-name="Rectangle 1842" width="16.538" height="0.053" transform="translate(15.291 18.116) rotate(-87.65)" fill="#fff"/>
        <rect id="Rectangle_1843" data-name="Rectangle 1843" width="17.298" height="0.053" transform="matrix(0.1, -0.995, 0.995, 0.1, 17.146, 17.851)" fill="#fff"/>
        <rect id="Rectangle_1844" data-name="Rectangle 1844" width="16.289" height="0.053" transform="translate(18.795 17.031) rotate(-82.519)" fill="#fff"/>
        <rect id="Rectangle_1845" data-name="Rectangle 1845" width="16.907" height="0.053" transform="matrix(0.181, -0.983, 0.983, 0.181, 20.707, 16.626)" fill="#fff"/>
        <rect id="Rectangle_1846" data-name="Rectangle 1846" width="15.737" height="0.053" transform="translate(22.672 15.701) rotate(-77.81)" fill="#fff"/>
      </g>
    </g>
    <g id="Group_1209" data-name="Group 1209" transform="translate(258 387.929)">
      <rect id="Rectangle_1848" data-name="Rectangle 1848" width="0.295" height="1.593" transform="matrix(0.894, 0.448, -0.448, 0.894, 29.912, 6.956)" fill="#fff"/>
      <rect id="Rectangle_1855" data-name="Rectangle 1855" width="0.277" height="1.497" transform="translate(33.885 8.095)" fill="#3f3d56"/>
      <rect id="Rectangle_1856" data-name="Rectangle 1856" width="0.277" height="1.497" transform="translate(33.719 11.699)" fill="#fff"/>
      <path id="Path_27980" data-name="Path 27980" d="M192.873,170.618a19.134,19.134,0,1,0,2.219,8.949A19.134,19.134,0,0,0,192.873,170.618Zm-13.014,15.855a7.93,7.93,0,1,1,4.032-6.907A7.93,7.93,0,0,1,179.859,186.473Z" transform="translate(-155.439 -160.208)" fill="#ffd54f"/>
      <path id="Path_27981" data-name="Path 27981" d="M175.573,340.475a19.129,19.129,0,0,1-19.119-18.532q-.01.31-.01.623a19.129,19.129,0,1,0,38.259,0q0-.313-.01-.624A19.129,19.129,0,0,1,175.573,340.475Z" transform="translate(-155.106 -303.207)" opacity="0.2"/>
      <path id="Path_27982" data-name="Path 27982" d="M250.071,244.131a9.545,9.545,0,1,0,9.546,9.545A9.545,9.545,0,0,0,250.071,244.131Zm3.9,16.452A7.93,7.93,0,1,1,258,253.677,7.93,7.93,0,0,1,253.968,260.584Z" transform="translate(-229.549 -234.318)" opacity="0.2"/>
      <path id="Path_27983" data-name="Path 27983" d="M212.664,168.717V171.9a1.164,1.164,0,0,1-2,.806v.363a1.382,1.382,0,1,1-2.765,0v-.3a1.163,1.163,0,0,1-1.941-.866l-.055-3.382v-.78a.471.471,0,0,0-.943,0v.78l-.055,2.828a1.164,1.164,0,1,1-2.329,0l-.143-2.828v-1.446a.772.772,0,0,0-1.545,0v1.446l-.087,2.828a10.108,10.108,0,0,1-3.667.949v.773a1.382,1.382,0,1,1-2.765,0V170.68a1.164,1.164,0,0,1-2.226.477v1.911a1.382,1.382,0,1,1-2.765,0v-4.551h-.008v4.551a1.382,1.382,0,1,1-2.765,0v-1.895a1.164,1.164,0,0,1-2.218-.493v-2.162h-.119V172.4a1.382,1.382,0,1,1-2.765,0V170.68a1.164,1.164,0,1,1-2.329,0v-2.563a19.136,19.136,0,0,1,33.49.6Z" transform="translate(-175.23 -158.537)" fill="#5b5353"/>
      <path id="Path_27984" data-name="Path 27984" d="M245.36,280.856a1.382,1.382,0,0,1-1.382-1.382v.721a1.382,1.382,0,1,0,2.765,0v-.721a1.382,1.382,0,0,1-1.382,1.382Z" transform="translate(-232.604 -265.608)" opacity="0.2"/>
      <path id="Path_27985" data-name="Path 27985" d="M269.54,280.856a1.382,1.382,0,0,1-1.382-1.382v.721a1.382,1.382,0,1,0,2.765,0v-.721a1.382,1.382,0,0,1-1.382,1.382Z" transform="translate(-254.012 -265.608)" opacity="0.2"/>
      <path id="Path_27986" data-name="Path 27986" d="M226.851,259.138a1.164,1.164,0,0,1-2.218-.493v.721a1.164,1.164,0,0,0,2.218.493Z" transform="translate(-215.477 -247.167)" opacity="0.2"/>
      <rect id="Rectangle_1861" data-name="Rectangle 1861" width="0.008" height="0.721" transform="translate(14.138 9.315)" opacity="0.2"/>
      <path id="Path_27987" data-name="Path 27987" d="M181.5,258.645a1.164,1.164,0,1,1-2.329,0v.721a1.164,1.164,0,1,0,2.329,0Z" transform="translate(-175.23 -247.167)" opacity="0.2"/>
      <rect id="Rectangle_1862" data-name="Rectangle 1862" width="0.119" height="0.721" transform="translate(9.037 9.315)" opacity="0.2"/>
      <path id="Path_27988" data-name="Path 27988" d="M200.867,275.052a1.382,1.382,0,0,1-1.382-1.382v.721a1.382,1.382,0,0,0,2.765,0v-.721a1.382,1.382,0,0,1-1.382,1.382Z" transform="translate(-193.213 -260.47)" opacity="0.2"/>
      <path id="Path_27989" data-name="Path 27989" d="M313.066,280.856a1.382,1.382,0,0,1-1.382-1.382v.721a1.382,1.382,0,1,0,2.765,0v-.721a1.382,1.382,0,0,1-1.382,1.382Z" transform="translate(-292.547 -265.608)" opacity="0.2"/>
      <path id="Path_27990" data-name="Path 27990" d="M405,229.34a.471.471,0,1,0-.943,0v.721a.471.471,0,1,1,.943,0Z" transform="translate(-374.327 -220.805)" opacity="0.2"/>
      <path id="Path_27991" data-name="Path 27991" d="M294.5,258.645a1.164,1.164,0,0,1-2.226.477v.721a1.164,1.164,0,0,0,2.226-.477Z" transform="translate(-275.361 -247.167)" opacity="0.2"/>
      <path id="Path_27992" data-name="Path 27992" d="M383.322,243.776a1.164,1.164,0,0,1-1.164-1.165l-.142-2.828v.721l.142,2.828a1.164,1.164,0,0,0,2.329,0l.055-2.828v-.721l-.055,2.828a1.164,1.164,0,0,1-1.165,1.164Z" transform="translate(-354.815 -230.469)" opacity="0.2"/>
      <path id="Path_27993" data-name="Path 27993" d="M417.875,244.331a1.161,1.161,0,0,1-.839-.359v.363a1.382,1.382,0,0,1-2.765,0v-.3a1.163,1.163,0,0,1-1.941-.866l-.055-3.382v.721l.055,3.382a1.163,1.163,0,0,0,1.941.866v.3a1.382,1.382,0,0,0,2.765,0v-.363a1.164,1.164,0,0,0,2-.806v-.721a1.164,1.164,0,0,1-1.165,1.164Z" transform="translate(-381.606 -230.469)" opacity="0.2"/>
      <path id="Path_27994" data-name="Path 27994" d="M338.3,243.776a2.232,2.232,0,0,0-2.5-.215v.721a3.457,3.457,0,0,1,2.884.151,1.163,1.163,0,0,0,.783-1.1l.087-2.828v-.721l-.087,2.828a1.164,1.164,0,0,1-1.165,1.164Z" transform="translate(-313.896 -230.469)" opacity="0.2"/>
      <path id="Path_27995" data-name="Path 27995" d="M370.087,221.212a.772.772,0,1,0-1.545,0v.721a.772.772,0,1,1,1.545,0Z" transform="translate(-342.887 -213.342)" opacity="0.2"/>
      <rect id="Rectangle_1863" data-name="Rectangle 1863" width="0.277" height="1.497" transform="translate(14.007 8.012)" fill="#3f3d56"/>
      <rect id="Rectangle_1864" data-name="Rectangle 1864" width="0.277" height="1.497" transform="translate(19.247 7.208)" fill="#3f3d56"/>
      <rect id="Rectangle_1865" data-name="Rectangle 1865" width="0.277" height="1.497" transform="translate(12.593 13.085)" fill="#3f3d56"/>
      <rect id="Rectangle_1866" data-name="Rectangle 1866" width="0.277" height="1.497" transform="matrix(0.822, 0.569, -0.569, 0.822, 23.967, 10.312)" fill="#3f3d56"/>
      <rect id="Rectangle_1867" data-name="Rectangle 1867" width="0.277" height="1.497" transform="translate(9.342 8.322) rotate(-51.648)" fill="#3f3d56"/>
      <rect id="Rectangle_1868" data-name="Rectangle 1868" width="0.277" height="1.497" transform="translate(25.644 2.722) rotate(-51.648)" fill="#3f3d56"/>
      <rect id="Rectangle_1869" data-name="Rectangle 1869" width="0.277" height="1.497" transform="translate(6.292 9.874) rotate(-51.648)" fill="#3f3d56"/>
      <rect id="Rectangle_1870" data-name="Rectangle 1870" width="0.277" height="1.497" transform="translate(15.033 4.491)" fill="#fff"/>
      <rect id="Rectangle_1871" data-name="Rectangle 1871" width="0.277" height="1.497" transform="translate(7.437 12.198)" fill="#fff"/>
      <rect id="Rectangle_1872" data-name="Rectangle 1872" width="0.277" height="1.497" transform="translate(20.412 2.329)" fill="#fff"/>
      <rect id="Rectangle_1873" data-name="Rectangle 1873" width="0.277" height="1.497" transform="matrix(0.894, 0.448, -0.448, 0.894, 21.982, 7.447)" fill="#fff"/>
      <rect id="Rectangle_1874" data-name="Rectangle 1874" width="0.277" height="1.497" transform="matrix(0.894, 0.448, -0.448, 0.894, 20.706, 12.992)" fill="#fff"/>
      <rect id="Rectangle_1875" data-name="Rectangle 1875" width="0.277" height="1.497" transform="matrix(0.663, -0.748, 0.748, 0.663, 16.959, 10.281)" fill="#fff"/>
      <rect id="Rectangle_1876" data-name="Rectangle 1876" width="0.277" height="1.497" transform="matrix(0.663, -0.748, 0.748, 0.663, 11.47, 3.793)" fill="#fff"/>
      <rect id="Rectangle_1877" data-name="Rectangle 1877" width="0.277" height="1.497" transform="matrix(0.663, -0.748, 0.748, 0.663, 29.712, 6.288)" fill="#fff"/>
      <rect id="Rectangle_1878" data-name="Rectangle 1878" width="0.277" height="1.497" transform="matrix(0.663, -0.748, 0.748, 0.663, 23.003, 1.409)" fill="#fff"/>
      <rect id="Rectangle_1879" data-name="Rectangle 1879" width="0.277" height="1.497" transform="translate(17.14 7.208)" fill="#ff6584"/>
      <rect id="Rectangle_1880" data-name="Rectangle 1880" width="0.277" height="1.497" transform="matrix(0.92, 0.391, -0.391, 0.92, 32.803, 8.045)" fill="#ff6584"/>
      <rect id="Rectangle_1881" data-name="Rectangle 1881" width="0.277" height="1.497" transform="translate(11.628 9.762) rotate(-30)" fill="#ff6584"/>
      <rect id="Rectangle_1882" data-name="Rectangle 1882" width="0.277" height="1.497" transform="translate(27.486 8.708) rotate(-30)" fill="#ff6584"/>
      <rect id="Rectangle_1883" data-name="Rectangle 1883" width="0.277" height="1.497" transform="translate(17.616 3.219) rotate(-30)" fill="#ff6584"/>
      <rect id="Rectangle_1884" data-name="Rectangle 1884" width="0.277" height="1.497" transform="translate(29.371 2.942) rotate(-30)" fill="#ff6584"/>
      <rect id="Rectangle_1885" data-name="Rectangle 1885" width="0.277" height="1.497" transform="translate(14.123 1.722) rotate(-30)" fill="#ff6584"/>
      <rect id="Rectangle_1886" data-name="Rectangle 1886" width="0.277" height="1.497" transform="translate(24.071 4.214)" fill="#ff6584"/>
      <rect id="Rectangle_1887" data-name="Rectangle 1887" width="0.277" height="1.497" transform="translate(8.102 6.709)" fill="#ff6584"/>
      <rect id="Rectangle_1905" data-name="Rectangle 1905" width="0.083" height="0.446" transform="translate(31.535 41.354) rotate(-3.441)" fill="#fff"/>
      <rect id="Rectangle_1912" data-name="Rectangle 1912" width="0.083" height="0.446" transform="translate(30.21 41.259) rotate(45)" fill="#ff6584"/>
    </g>
    <g id="Group_1316" data-name="Group 1316" transform="translate(25.998 259.999)">
      <path id="Path_28207" data-name="Path 28207" d="M0,0H103.945V9.45H0Z" transform="translate(2.847 39.066) rotate(-16.244)" fill="#3f3d56"/>
      <path id="Path_28183" data-name="Path 28183" d="M330.841,272.226l-14.709-50.484a1.47,1.47,0,0,1,1-1.822l97.376-28.371a1.471,1.471,0,0,1,1.822,1l13.031,44.725-.4.118-13.031-44.725a1.052,1.052,0,0,0-1.3-.714l-97.376,28.371a1.05,1.05,0,0,0-.714,1.3l14.709,50.484Z" transform="translate(-316.071 -191.488)" fill="#3f3d56"/>
      <path id="Path_28184" data-name="Path 28184" d="M738.515,359.1a1.368,1.368,0,0,1-1.311-.983l-2.467-8.467a1.367,1.367,0,0,1,.929-1.692l8.468-2.467a1.366,1.366,0,0,1,1.692.929l2.467,8.467a1.366,1.366,0,0,1-.929,1.692l-8.468,2.467A1.36,1.36,0,0,1,738.515,359.1Z" transform="translate(-646.777 -313.108)" fill="#ffd54f"/>
      <path id="Path_28185" data-name="Path 28185" d="M366.732,329.466a2.468,2.468,0,0,0-.09-.256,2.52,2.52,0,0,0-4.811,1.4,2.384,2.384,0,0,0,.061.265,2.524,2.524,0,0,0,2.421,1.814,2.467,2.467,0,0,0,.7-.1A2.523,2.523,0,0,0,366.732,329.466Zm-1.833,2.719a2.1,2.1,0,0,1-2.6-1.428,2.4,2.4,0,0,1-.059-.265,2.1,2.1,0,0,1,4-1.163,1.743,1.743,0,0,1,.095.254,2.1,2.1,0,0,1-1.43,2.6Z" transform="translate(-352.189 -299.056)" fill="#ffd54f"/>
      <path id="Path_28186" data-name="Path 28186" d="M350.1,335.334a2.31,2.31,0,0,1,.884-2.532A2.31,2.31,0,1,0,352.2,337a2.31,2.31,0,0,1-2.105-1.661Z" transform="translate(-341.734 -303.125)" fill="#ffd54f"/>
      <path id="Path_28187" data-name="Path 28187" d="M602.765,390.935a1.269,1.269,0,0,0-1.564-.882l-13.941,3.9-1.5.42h9.429l1.5-.42,5.2-1.453A1.27,1.27,0,0,0,602.765,390.935Z" transform="translate(-529.125 -348.319)" fill="#ccc"/>
      <path id="Path_28188" data-name="Path 28188" d="M531.7,377.072a1.269,1.269,0,0,0-1.564-.88l-20.919,5.85a1.274,1.274,0,0,0-.918,1.38h5.416l1.5-.42,15.6-4.364A1.272,1.272,0,0,0,531.7,377.072Z" transform="translate(-467.927 -337.368)" fill="#ccc"/>
      <path id="Path_28189" data-name="Path 28189" d="M489.136,408.8H387.711a1.472,1.472,0,0,0-1.47,1.47v60.057a1.471,1.471,0,0,0,1.47,1.47H489.136a1.472,1.472,0,0,0,1.47-1.47V410.268A1.472,1.472,0,0,0,489.136,408.8Zm1.05,61.527a1.05,1.05,0,0,1-1.05,1.05H387.711a1.05,1.05,0,0,1-1.05-1.05V410.268a1.05,1.05,0,0,1,1.05-1.05H489.136a1.05,1.05,0,0,1,1.05,1.05Z" transform="translate(-371.505 -363.164)" fill="#3f3d56"/>
      <path id="Path_28190" data-name="Path 28190" d="M430.757,428.84a2.52,2.52,0,1,1,2.52-2.52A2.52,2.52,0,0,1,430.757,428.84Zm0-4.62a2.1,2.1,0,1,0,2.1,2.1A2.1,2.1,0,0,0,430.757,424.22Z" transform="translate(-404.682 -375.016)" fill="#ffd54f"/>
      <path id="Path_28191" data-name="Path 28191" d="M415.916,427.11a2.31,2.31,0,0,1,1.556-2.183,2.31,2.31,0,1,0,0,4.367,2.31,2.31,0,0,1-1.557-2.184Z" transform="translate(-393.758 -375.806)" fill="#ffd54f"/>
      <path id="Path_28192" data-name="Path 28192" d="M481.771,542.028a1.892,1.892,0,0,1-1.89-1.89v-5.67a1.89,1.89,0,1,1,3.78,0v5.67A1.892,1.892,0,0,1,481.771,542.028Z" transform="translate(-445.482 -460.952)" fill="#ffd54f"/>
      <path id="Path_28193" data-name="Path 28193" d="M505.771,542.028a1.892,1.892,0,0,1-1.89-1.89v-5.67a1.89,1.89,0,1,1,3.78,0v5.67A1.892,1.892,0,0,1,505.771,542.028Z" transform="translate(-464.442 -460.952)" fill="#ffd54f"/>
      <path id="Path_28194" data-name="Path 28194" d="M529.771,542.028a1.892,1.892,0,0,1-1.89-1.89v-5.67a1.89,1.89,0,1,1,3.78,0v5.67A1.892,1.892,0,0,1,529.771,542.028Z" transform="translate(-483.402 -460.952)" fill="#ffd54f"/>
      <path id="Path_28195" data-name="Path 28195" d="M566.771,542.028a1.892,1.892,0,0,1-1.89-1.89v-5.67a1.89,1.89,0,1,1,3.78,0v5.67A1.892,1.892,0,0,1,566.771,542.028Z" transform="translate(-512.632 -460.952)" fill="#ffd54f"/>
      <path id="Path_28196" data-name="Path 28196" d="M590.771,542.028a1.892,1.892,0,0,1-1.89-1.89v-5.67a1.89,1.89,0,1,1,3.78,0v5.67A1.892,1.892,0,0,1,590.771,542.028Z" transform="translate(-531.593 -460.952)" fill="#ffd54f"/>
      <path id="Path_28197" data-name="Path 28197" d="M614.771,542.028a1.892,1.892,0,0,1-1.89-1.89v-5.67a1.89,1.89,0,1,1,3.78,0v5.67A1.892,1.892,0,0,1,614.771,542.028Z" transform="translate(-550.553 -460.952)" fill="#ffd54f"/>
      <path id="Path_28198" data-name="Path 28198" d="M651.771,542.028a1.892,1.892,0,0,1-1.89-1.89v-5.67a1.89,1.89,0,1,1,3.78,0v5.67A1.892,1.892,0,0,1,651.771,542.028Z" transform="translate(-579.783 -460.952)" fill="#ffd54f"/>
      <path id="Path_28199" data-name="Path 28199" d="M675.771,542.028a1.892,1.892,0,0,1-1.89-1.89v-5.67a1.89,1.89,0,1,1,3.78,0v5.67A1.892,1.892,0,0,1,675.771,542.028Z" transform="translate(-598.744 -460.952)" fill="#ffd54f"/>
      <path id="Path_28200" data-name="Path 28200" d="M699.771,542.028a1.892,1.892,0,0,1-1.89-1.89v-5.67a1.89,1.89,0,1,1,3.78,0v5.67a1.892,1.892,0,0,1-1.89,1.89Z" transform="translate(-617.704 -460.952)" fill="#ffd54f"/>
      <path id="Path_28201" data-name="Path 28201" d="M736.771,542.028a1.892,1.892,0,0,1-1.89-1.89v-5.67a1.89,1.89,0,1,1,3.78,0v5.67A1.892,1.892,0,0,1,736.771,542.028Z" transform="translate(-646.934 -460.952)" fill="#ffd54f"/>
      <path id="Path_28202" data-name="Path 28202" d="M760.771,542.028a1.892,1.892,0,0,1-1.89-1.89v-5.67a1.89,1.89,0,1,1,3.78,0v5.67A1.892,1.892,0,0,1,760.771,542.028Z" transform="translate(-665.894 -460.952)" fill="#ffd54f"/>
      <path id="Path_28203" data-name="Path 28203" d="M784.771,542.028a1.892,1.892,0,0,1-1.89-1.89v-5.67a1.89,1.89,0,1,1,3.78,0v5.67A1.892,1.892,0,0,1,784.771,542.028Z" transform="translate(-684.855 -460.952)" fill="#ffd54f"/>
      <path id="Path_28204" data-name="Path 28204" d="M442.863,668.19H415.681a1.27,1.27,0,0,1,0-2.54h27.181a1.27,1.27,0,0,1,0,2.54Z" transform="translate(-393.76 -566.08)" fill="#e6e6e6"/>
      <path id="Path_28205" data-name="Path 28205" d="M466.933,642.19h-9.752a1.27,1.27,0,0,1,0-2.54h9.752a1.27,1.27,0,0,1,0,2.54Z" transform="translate(-426.545 -545.54)" fill="#e6e6e6"/>
      <path id="Path_28206" data-name="Path 28206" d="M0,0H103.525V.42H0Z" transform="translate(15.081 58.187)" fill="#3f3d56"/>
    </g>
  </g>
</svg>
