<svg xmlns="http://www.w3.org/2000/svg" width="280.173" height="265.969" viewBox="0 0 280.173 265.969">
  <g id="Chef_2nd_onboarding_icon" data-name="Chef 2nd onboarding icon" transform="translate(0 46.93)">
    <path id="Path_27336" data-name="Path 27336" d="M466.673,398.128s27.913,1.345,29.595,11.1-32.622,1.009-32.622,1.009Z" transform="translate(-339.283 -303.582)" fill="#a0616a"/>
    <path id="Path_27337" data-name="Path 27337" d="M337.664,306.128s4.708,1.345,8.408,9.417,11.1,15.47,11.1,15.47l29.931,5.717-5.045,15.134-28.586-3.7-17.824-10.089Z" transform="translate(-254.33 -242.522)" fill="#575a89"/>
    <path id="Path_27338" data-name="Path 27338" d="M337.664,306.128s4.708,1.345,8.408,9.417,11.1,15.47,11.1,15.47l29.931,5.717-5.045,15.134-28.586-3.7-17.824-10.089Z" transform="translate(-254.33 -242.522)" fill="#d9d9d9"/>
    <path id="Path_28228" data-name="Path 28228" d="M0,0H224.448V120.019H0Z" transform="translate(27.873 98.456)" fill="#3f3d56"/>
    <path id="Path_27339" data-name="Path 27339" d="M115.793,112.505l3.027,19.169,20.851,1.009-2.354-28.25Z" transform="translate(-76.851 -64.369)" fill="#a0616a"/>
    <path id="Path_27340" data-name="Path 27340" d="M142.155,627.994l-1.009,42.375h31.613l4.708-16.815,3.7,16.815h32.958S214.8,621.94,211.1,621.6,142.155,627.994,142.155,627.994Z" transform="translate(-125.242 -451.893)" fill="#2f2e41"/>
    <path id="Path_28227" data-name="Path 28227" d="M18.161,0A18.161,18.161,0,1,1,0,18.161,18.161,18.161,0,0,1,18.161,0Z" transform="translate(27.507 16.86)" fill="#a0616a"/>
    <path id="Path_27341" data-name="Path 27341" d="M132.673,405.923l9.417-46.41-12.443-61.544L158.3,287.215l14.053-1.69,7.065-1.319,5.042,1.319s20.178,5.045,21.187,8.744-4.036,33.967-4.036,33.967l-4.708,24.887,10.425,44.729s-43.383,14.8-73.987,8.071Z" transform="translate(-117.609 -227.973)" fill="#d9d9d9" opacity="0.871"/>
    <path id="Path_27342" data-name="Path 27342" d="M82.293,243.934v12.443l39.681.054-37.664-4.09Z" transform="translate(-54.617 -156.955)" opacity="0.1"/>
    <path id="Path_27343" data-name="Path 27343" d="M72.159,332.059l49.818-7.125-49.818,14.11Z" transform="translate(-47.892 -210.714)" opacity="0.1"/>
    <path id="Path_27344" data-name="Path 27344" d="M296.753,248.934l-5.341,19.245,9.04-18.61Z" transform="translate(-193.408 -160.273)" opacity="0.1"/>
    <path id="Path_27345" data-name="Path 27345" d="M195.4,143.558l3.34-1.337s-6.983-7.688-16.7-7.019l2.732-3.008s-6.679-2.674-12.751,4.345c-3.192,3.69-6.885,8.027-9.187,12.913h-3.576l1.493,3.287-5.224,3.287,5.362-.59a18.367,18.367,0,0,0-.146,5.452,7.054,7.054,0,0,0,2.583,4.614h0s4.142-8.573,4.142-9.91v3.342s3.34-3.008,3.34-5.014l1.822,2.34.911-3.677,11.233,3.677-1.822-3.008,6.983,1-2.732-3.677s7.893,4.345,8.2,8.022a17.652,17.652,0,0,0,2.614,7.16S204.205,148.571,195.4,143.558Z" transform="translate(-134.787 -126.751)" fill="#2f2e41"/>
    <path id="Path_28226" data-name="Path 28226" d="M0,0H129.141V134.859H0Z" transform="translate(78.458 83.953)" fill="#ffd54f"/>
    <path id="Path_28225" data-name="Path 28225" d="M0,0H95.511V13.452H0Z" transform="translate(91.91 113.548)" fill="#707070"/>
    <path id="Path_28224" data-name="Path 28224" d="M0,0H62.551V6.726H0Z" transform="translate(108.33 149.196)" fill="#707070"/>
    <path id="Path_28223" data-name="Path 28223" d="M0,0H62.551V6.726H0Z" transform="translate(108.45 160.967)" fill="#707070"/>
    <path id="Path_28222" data-name="Path 28222" d="M0,0H31.275V6.726H0Z" transform="translate(108.571 172.737)" fill="#707070"/>
    <path id="Path_28221" data-name="Path 28221" d="M0,0H14.461V6.726H0Z" transform="translate(174.641 206.704)" fill="#707070"/>
    <path id="Path_27346" data-name="Path 27346" d="M299.647,414.248s29.259-4.372,33.631,2.018-30.94,9.753-30.94,9.753Z" transform="translate(-230.437 -313.312)" fill="#a0616a"/>
    <path id="Path_27347" data-name="Path 27347" d="M109.254,324.128h-2.107a3.436,3.436,0,0,0-2.339.91c-2,1.857-6.23,6.65-8,15.232-2.354,11.434-6.39,33.631,2.69,35.312s68.606-6.39,68.606-6.39l-4.372-15.47-43.047.336s.673-7.4-.673-12.107S109.254,324.128,109.254,324.128Z" transform="translate(-93.853 -254.468)" fill="#d9d9d9"/>
    <path id="Path_28219" data-name="Path 28219" d="M-11027.6,11591.583v-.672h35.313v.672Zm-139.567,0v-.672h111.991v.672Z" transform="translate(11224.129 -11621.031)" fill="#3f3d56"/>
    <path id="Path_28215" data-name="Path 28215" d="M13.789,0A13.789,13.789,0,1,1,0,13.789,13.789,13.789,0,0,1,13.789,0Z" transform="translate(43.17 -43.575)" fill="#d9d9d9"/>
    <path id="Path_28214" data-name="Path 28214" d="M13.789,0A13.789,13.789,0,1,1,0,13.789,13.789,13.789,0,0,1,13.789,0Z" transform="translate(106.06 -43.575)" fill="#5b5353"/>
    <path id="Path_28218" data-name="Path 28218" d="M-11104.28,11605.035a14.125,14.125,0,0,1,14.125-14.125,14.126,14.126,0,0,1,14.125,14.125,14.141,14.141,0,0,1-14.125,14.125A14.125,14.125,0,0,1-11104.28,11605.035Zm.673,0a13.451,13.451,0,0,0,13.452,13.451,13.45,13.45,0,0,0,13.451-13.451,13.466,13.466,0,0,0-13.451-13.452A13.452,13.452,0,0,0-11103.607,11605.035Zm-63.563,0a14.126,14.126,0,0,1,14.126-14.125,14.126,14.126,0,0,1,14.125,14.125,14.141,14.141,0,0,1-14.125,14.125A14.126,14.126,0,0,1-11167.171,11605.035Zm.674,0a13.45,13.45,0,0,0,13.452,13.451,13.45,13.45,0,0,0,13.451-13.451,13.466,13.466,0,0,0-13.451-13.452A13.451,13.451,0,0,0-11166.5,11605.035Z" transform="translate(11335.781 -11634.82)" fill="#3f3d56"/>
    <path id="Path_27350" data-name="Path 27350" d="M391.849,65.968,385.873,58l2.152-1.615,4.114,5.485,18.914-18.913,1.9,1.9Z" transform="translate(-336.79 -89.889)" fill="#469a09"/>
    <path id="Path_28220" data-name="Path 28220" d="M0,0H274.625V.936H0Z" transform="translate(5.548 218.104)" fill="#3f3d56"/>
  </g>
</svg>
