<svg xmlns="http://www.w3.org/2000/svg" width="278.321" height="245.208" viewBox="0 0 278.321 245.208">
  <g id="Chef_Onboarding_3" data-name="Chef Onboarding 3" transform="translate(0 0)">
    <path id="Path_27373" data-name="Path 27373" d="M81.843,132.278H27V96.205H77.411Z" transform="translate(-19.081 -67.99)" fill="#efefef"/>
    <circle id="Ellipse_977" data-name="Ellipse 977" cx="4.986" cy="4.986" r="4.986" transform="translate(36.513 34.328)" fill="#3f3d56"/>
    <path id="Path_27374" data-name="Path 27374" d="M314.45,89.578c.473-.536.962-1.07,1.455-1.587l.516.493c-.487.51-.97,1.036-1.436,1.565Z" transform="translate(-259.035 -71.556)" fill="#3f3d56"/>
    <path id="Path_27375" data-name="Path 27375" d="M330.181,45.343c1.09-.967,2.233-1.9,3.4-2.773l.428.571c-1.149.861-2.277,1.781-3.353,2.736Zm7.015-5.254c1.234-.773,2.516-1.5,3.81-2.173l.328.634c-1.277.66-2.541,1.381-3.758,2.144Zm7.786-4.023c1.342-.558,2.727-1.068,4.115-1.516l.219.679c-1.37.442-2.735.945-4.06,1.5Zm8.5-2-.163-.694c1.42-.334,2.868-.613,4.3-.829l.106.706C356.315,33.463,354.886,33.739,353.485,34.068Zm8.548-1.285-.048-.712c1.453-.1,2.928-.135,4.383-.112l-.011.713c-1.436-.023-2.891.014-4.324.11Zm8.643.138.071-.71c1.449.144,2.911.351,4.345.615l-.129.7c-1.414-.26-2.856-.465-4.286-.607Zm26.736,94c1.139-.873,2.257-1.8,3.323-2.771l.479.529c-1.08.979-2.213,1.924-3.368,2.808Zm-18.229-92.43.187-.688c1.4.381,2.812.825,4.183,1.321l-.243.671C381.958,35.3,380.569,34.862,379.183,34.487Zm24.634,86.624c.981-1.049,1.931-2.152,2.822-3.279l.559.443c-.9,1.142-1.867,2.26-2.861,3.323Zm-16.5-83.682.3-.649c1.324.606,2.64,1.275,3.91,1.987l-.349.622C389.921,38.686,388.623,38.026,387.316,37.428Zm21.869,76.9c.8-1.2,1.554-2.44,2.25-3.7l.624.346c-.705,1.274-1.472,2.534-2.28,3.746ZM394.858,41.658l.4-.591c1.207.814,2.4,1.688,3.533,2.6l-.446.557C397.222,43.323,396.049,42.461,394.858,41.658Zm18.516,65.109c.591-1.31,1.135-2.661,1.616-4.014l.672.239c-.488,1.372-1.039,2.741-1.638,4.069ZM401.606,47.061l.49-.518c1.059,1,2.088,2.057,3.059,3.14l-.531.476C403.666,49.09,402.651,48.048,401.606,47.061ZM416.272,98.62c.369-1.391.684-2.813.936-4.225l.7.125c-.256,1.432-.575,2.873-.949,4.283Zm-8.9-45.125.569-.431c.879,1.16,1.72,2.371,2.5,3.6l-.6.382C409.072,55.834,408.242,54.639,407.375,53.495Zm10.416,36.612c.134-1.43.21-2.884.225-4.322l.713.008c-.015,1.457-.092,2.931-.228,4.381ZM412,60.791l.632-.331c.675,1.288,1.3,2.622,1.871,3.965l-.657.278C413.29,63.378,412.669,62.062,412,60.791Zm5.879,20.668c-.1-1.43-.269-2.876-.491-4.3l.7-.11c.225,1.441.392,2.907.5,4.357Zm-2.515-12.705.678-.223c.454,1.381.858,2.8,1.2,4.218l-.694.167c-.336-1.4-.735-2.8-1.183-4.163Z" transform="translate(-270.153 -31.952)" fill="#3f3d56"/>
    <path id="Path_27376" data-name="Path 27376" d="M541.012,365.44c.609-.356,1.219-.729,1.813-1.109l.385.6c-.6.386-1.221.764-1.838,1.125Z" transform="translate(-419.151 -266.851)" fill="#3f3d56"/>
    <path id="Path_27377" data-name="Path 27377" d="M27,133.012l10.93-10.93,9.893,9.893,18.77-18.77,15.4,15.69v15.4H27Z" transform="translate(-19.081 -80.004)" fill="#469a09"/>
    <path id="Path_27378" data-name="Path 27378" d="M762.5,555.158v70.68h90.916v-70.68Zm79.044,18.9H834.5v-7.041h7.042Z" transform="translate(-575.682 -401.713)" fill="#3f3d56"/>
    <rect id="Rectangle_1777" data-name="Rectangle 1777" width="5.866" height="7.625" transform="translate(39.593 125.583)" fill="#3f3d56"/>
    <rect id="Rectangle_1778" data-name="Rectangle 1778" width="5.866" height="7.625" transform="translate(133.184 171.845) rotate(45)" fill="#3f3d56"/>
    <rect id="Rectangle_1779" data-name="Rectangle 1779" width="5.866" height="7.625" transform="translate(115.881 38.696) rotate(45)" fill="#3f3d56"/>
    <path id="Path_27379" data-name="Path 27379" d="M781.556,717.621c-.325.637-.666,1.276-1.016,1.9l-.622-.349c.345-.615.682-1.245,1-1.873Z" transform="translate(-587.992 -516.301)" fill="#3f3d56"/>
    <path id="Path_27380" data-name="Path 27380" d="M539.622,586.368c-.816,1.208-1.692,2.4-2.6,3.53l-.556-.447c.9-1.12,1.763-2.291,2.568-3.483Zm-5.49,6.832c-1,1.056-2.063,2.082-3.151,3.051l-.475-.533c1.073-.956,2.119-1.969,3.108-3.01Zm-6.543,5.831c-1.162.874-2.376,1.712-3.609,2.49l-.381-.6c1.217-.768,2.415-1.595,3.561-2.457Zm-7.74,4.047.331.632c-1.292.676-2.626,1.306-3.964,1.873l-.278-.657C517.258,604.367,518.574,603.745,519.849,603.078Zm-7.961,3.368.223.678c-1.383.455-2.8.858-4.218,1.2l-.166-.694C509.123,607.292,510.523,606.9,511.888,606.446Zm-8.407,2.013.108.705c-1.44.22-2.907.383-4.361.484l-.049-.712C500.613,608.836,502.061,608.676,503.481,608.458Zm-49.243-84.41c-.887,1.128-1.738,2.309-2.53,3.509l-.6-.393c.8-1.216,1.666-2.413,2.565-3.557Zm40.614,85.006-.01.713c-1.456-.02-2.929-.1-4.38-.241l.068-.71C491.962,608.955,493.416,609.035,494.852,609.055Zm-45.377-77.791c-.69,1.26-1.335,2.564-1.92,3.877l-.652-.29c.592-1.331,1.247-2.653,1.946-3.929Zm36.768,76.961-.126.7c-1.434-.258-2.874-.579-4.281-.954l.183-.689c1.388.37,2.809.686,4.224.941ZM445.96,539.163c-.475,1.357-.9,2.749-1.261,4.139l-.69-.18c.367-1.409.8-2.82,1.278-4.2ZM477.888,606l-.239.672c-1.372-.488-2.74-1.04-4.067-1.639l.293-.65C475.184,604.975,476.534,605.519,477.888,606Zm-34.107-58.47c-.247,1.416-.438,2.859-.569,4.29l-.711-.065c.132-1.45.326-2.913.576-4.348Zm26.228,54.913-.346.624c-1.274-.706-2.533-1.474-3.743-2.282l.4-.593C467.509,600.989,468.752,601.747,470.009,602.444ZM443,556.143c-.012,1.439.036,2.894.143,4.325l-.712.053c-.108-1.451-.157-2.926-.145-4.384Zm19.825,41.5-.444.559c-1.14-.906-2.255-1.87-3.315-2.866l.489-.52C460.6,595.8,461.7,596.751,462.823,597.644ZM443.64,564.767c.225,1.419.513,2.846.855,4.242l-.693.17c-.347-1.415-.639-2.862-.867-4.3Zm12.886,26.959-.53.477c-.973-1.08-1.915-2.216-2.8-3.376l.568-.432C454.638,589.539,455.566,590.66,456.527,591.726ZM445.7,573.165c.456,1.36.975,2.719,1.543,4.042l-.656.282c-.576-1.34-1.1-2.719-1.564-4.1Zm5.592,11.683-.6.384c-.783-1.225-1.528-2.5-2.209-3.788l.63-.334C449.784,582.378,450.519,583.639,451.291,584.848Z" transform="translate(-349.377 -379.416)" fill="#3f3d56"/>
    <path id="Path_27381" data-name="Path 27381" d="M492.986,507.344c-.5.5-1,1.009-1.481,1.525l-.522-.486c.488-.523.993-1.043,1.5-1.546Z" transform="translate(-383.795 -367.564)" fill="#3f3d56"/>
    <path id="Path_27382" data-name="Path 27382" d="M1019.905,387.449c-.067-.11-1.654-2.76-2.2-8.262-.5-5.048-.18-13.557,4.233-25.427a51.276,51.276,0,0,0-2.032-40.809l.508-.294a45.035,45.035,0,0,1,4.249,12.037,52.515,52.515,0,0,1-2.175,29.271c-8.346,22.447-2.141,33.074-2.078,33.179Z" transform="translate(-755.912 -230.332)" fill="#3f3d56"/>
    <circle id="Ellipse_978" data-name="Ellipse 978" cx="3.813" cy="3.813" r="3.813" transform="translate(256.911 73.673)" fill="#bf2604"/>
    <circle id="Ellipse_979" data-name="Ellipse 979" cx="3.813" cy="3.813" r="3.813" transform="translate(268.936 87.75)" fill="#3f3d56"/>
    <circle id="Ellipse_980" data-name="Ellipse 980" cx="3.813" cy="3.813" r="3.813" transform="translate(260.724 97.135)" fill="#bf2604"/>
    <circle id="Ellipse_981" data-name="Ellipse 981" cx="3.813" cy="3.813" r="3.813" transform="translate(270.696 105.054)" fill="#bf2604"/>
    <circle id="Ellipse_982" data-name="Ellipse 982" cx="3.813" cy="3.813" r="3.813" transform="translate(257.791 117.371)" fill="#3f3d56"/>
    <path id="Path_27383" data-name="Path 27383" d="M1032.03,528.581s-3.813-9.385,7.625-16.424Z" transform="translate(-765.734 -371.324)" fill="#3f3d56"/>
    <path id="Path_27384" data-name="Path 27384" d="M980.969,543.733s-1.735-9.98-15.165-9.895Z" transform="translate(-719.361 -386.646)" fill="#3f3d56"/>
    <path id="Path_27385" data-name="Path 27385" d="M595.5,753.793a3.519,3.519,0,1,1,3.519-3.519A3.519,3.519,0,0,1,595.5,753.793Zm0-6.452a2.933,2.933,0,1,0,2.933,2.933A2.933,2.933,0,0,0,595.5,747.341Z" transform="translate(-455.174 -537.119)" fill="#2f2e41"/>
    <path id="Path_27386" data-name="Path 27386" d="M721.859,113.092h-5.79V107.3h5.79Zm-5.344-.445h4.9v-4.9h-4.9Z" transform="translate(-542.869 -85.204)" fill="#3f3d56"/>
    <path id="Path_27387" data-name="Path 27387" d="M187.939,658.405l-3.949-4.234,4.234-3.949,3.949,4.234Zm-3.32-4.212,3.341,3.582,3.582-3.341-3.342-3.582Z" transform="translate(-166.836 -468.898)" fill="#2f2e41"/>
    <path id="Path_27388" data-name="Path 27388" d="M349.226,413.256H244.286V370.895h87.289Z" transform="translate(-172.642 -262.12)" fill="#efefef"/>
    <path id="Path_27389" data-name="Path 27389" d="M444.273,423.1H326.017V371.115h96.811l.082.2Zm-117.614-.642H443.314l-20.916-50.7H326.659Z" transform="translate(-267.21 -271.646)" fill="#3f3d56"/>
    <rect id="Rectangle_1780" data-name="Rectangle 1780" width="52.309" height="4.814" transform="translate(88.973 115.515)" fill="#ffd54f"/>
    <rect id="Rectangle_1781" data-name="Rectangle 1781" width="52.309" height="4.814" transform="translate(88.973 125.463)" fill="#ffd54f"/>
    <rect id="Rectangle_1782" data-name="Rectangle 1782" width="52.309" height="4.814" transform="translate(88.973 135.411)" fill="#ffd54f"/>
    <path id="Path_27390" data-name="Path 27390" d="M213.317,146.534H125.5V93.158h68.245l.071.192Zm-87.23-.587h86.39l-19.141-52.2H126.087Z" transform="translate(-125.5 -75.208)" fill="#3f3d56"/>
    <path id="Path_27391" data-name="Path 27391" d="M206.93,152.51H151.5V111.158h55.43Zm-54.843-.587h54.256V111.744H152.087Z" transform="translate(-143.875 -87.929)" fill="#3f3d56"/>
    <circle id="Ellipse_983" data-name="Ellipse 983" cx="5.279" cy="5.279" r="5.279" transform="translate(82.118 65.755)" fill="#6c63ff"/>
    <circle id="Ellipse_984" data-name="Ellipse 984" cx="5.279" cy="5.279" r="5.279" transform="translate(170.688 146.113)" fill="#6c63ff"/>
    <circle id="Ellipse_985" data-name="Ellipse 985" cx="8.883" cy="8.883" r="8.883" transform="translate(204.94 61.428)" fill="#a0616a"/>
    <path id="Path_27392" data-name="Path 27392" d="M828.859,284.424s2.961,6.662-1.11,9.253S834.411,307,834.411,307l11.844-12.584s-6.292-4.071-5.182-10.734Z" transform="translate(-621.143 -209.856)" fill="#a0616a"/>
    <path id="Path_27393" data-name="Path 27393" d="M735.828,382.121l-2.591,14.8s-4.441,8.883-4.441,16.656-.74,9.253-.74,9.253-7.4,14.8-2.221,15.545,7.4-15.175,7.4-15.175,7.032-17.4,7.032-22.948l4.812-12.214Z" transform="translate(-548.469 -279.424)" fill="#a0616a"/>
    <path id="Path_27394" data-name="Path 27394" d="M925.04,384.645l.74,12.954s2.591,6.662.74,18.506l-1.48,11.474s3.331,12.954,0,13.324-7.4-8.143-5.182-12.954v-4.071s-2.221-17.4-1.48-20.357l-2.591-14.065Z" transform="translate(-684.013 -281.208)" fill="#a0616a"/>
    <path id="Path_27395" data-name="Path 27395" d="M657.776,696.92l3.7,9.623,8.143-1.48L664.438,694.7Z" transform="translate(-464.865 -490.959)" fill="#a0616a"/>
    <path id="Path_27396" data-name="Path 27396" d="M774.991,728.773l-1.11,14.065h9.253l-.37-12.214Z" transform="translate(-546.919 -515.04)" fill="#a0616a"/>
    <path id="Path_27397" data-name="Path 27397" d="M747.394,470.155l-1.11,5.552s-2.221,1.851-2.221,3.7a3.748,3.748,0,0,1-.74,2.591s-.37,0-.74.74a4.579,4.579,0,0,1-.74,1.11S720,506.057,724.816,517.161s14.065,33.681,14.065,33.681,10.734-3.331,10.734-5.922l-10.363-29.24,20.727-21.467,16.655,22.577s-3.331,39.6-1.11,39.973,14.435,2.961,14.8,1.851,2.221-50.337,1.48-52.187-11.474-24.058-11.474-24.058,1.851-2.221.74-2.961-2.961-7.773-2.961-7.773S749.244,466.824,747.394,470.155Z" transform="translate(-548.561 -340.81)" fill="#2f2e41"/>
    <path id="Path_27398" data-name="Path 27398" d="M807.789,319.413l-7.46-4.6s-4.383.16-5.494,1.27-7.773,4.071-7.773,4.071,1.48,44.415,4.441,42.934.74-2.591,2.961-1.48,28.5,1.48,28.87,1.48.74-.74.74-.74l1.481-22.577,4.812-18.876-14.245-6.554Z" transform="translate(-593.04 -231.522)" fill="#fff"/>
    <path id="Path_27399" data-name="Path 27399" d="M770.609,332.9h-2.961s-4.071,1.11-5.922,7.032-2.591,8.513-1.851,9.253,10.734,6.292,10.734,6.292Z" transform="translate(-573.627 -244.64)" fill="#fff"/>
    <path id="Path_27400" data-name="Path 27400" d="M910.806,335.426l5.182.37s6.662,15.545,4.812,16.285-12.584,6.292-12.584,5.182S910.806,335.426,910.806,335.426Z" transform="translate(-678.662 -246.424)" fill="#fff"/>
    <path id="Path_27401" data-name="Path 27401" d="M759.637,747.954l-3.018-1.11-6.975,9.253s-12.954,9.253-1.11,8.883c0,0,9.253-1.48,9.993-4.071,0,0,10.734-2.961,10.734-4.812s-2.467-6.784-3.269-6.908S761.857,750.545,759.637,747.954Z" transform="translate(-562.284 -537.182)" fill="#2f2e41"/>
    <path id="Path_27402" data-name="Path 27402" d="M904.087,794.7s-9-.146-8.94.112-2.533,6.18-2.163,8.4,3.7,5.182,2.961,6.662,2.221,5.922,8.143,6.292,5.182-6.292,5.182-6.292l-2.961-7.032Z" transform="translate(-667.872 -570.974)" fill="#2f2e41"/>
    <path id="Path_27403" data-name="Path 27403" d="M824.685,231.164a16.788,16.788,0,0,1-1.39,1.063,13.218,13.218,0,0,0-1.675,1.664l-.573.641a2.943,2.943,0,0,0-.984,1.9c.008.271.091.535.124.8.13,1.069-.524,2.244.014,3.177.156.27.4.481.568.741a1.732,1.732,0,0,1,.274,1.127,1.384,1.384,0,0,0,1.234-1.044,10.518,10.518,0,0,0,.245-1.715,1.84,1.84,0,0,1,.856-1.432c1.109-.543,2.381.869,3.565.517.826-.246,1.262-1.27,2.106-1.442a3,3,0,0,1,1.748.491c.562.255,1.32.372,1.717-.1.263-.312.291-.813.64-1.025.418-.254.942.1,1.259.473s.666.83,1.156.816c.649-.018,1.146-.883,1.762-.677.7.232.376,1.344.8,1.944.357.507,1.1.477,1.718.393a.615.615,0,0,0,.641-.822l-.256-3.4a1.644,1.644,0,0,0-.15-.679c-.179-.323-.548-.487-.8-.758-.529-.569-.5-1.567-1.161-1.981-.341-.215-.788-.208-1.127-.427-.435-.281-.575-.842-.879-1.26a2.685,2.685,0,0,0-1.932-.951c-.736-.076-1.478.016-2.217-.008-1.5-.049-3.005-.472-4.516-.224C826.13,229.186,825.577,230.3,824.685,231.164Z" transform="translate(-616.308 -171.135)" fill="#2f2e41"/>
  </g>
</svg>
