<svg xmlns="http://www.w3.org/2000/svg" width="29.352" height="28.205" viewBox="0 0 29.352 28.205">
  <g id="Comment_icon" data-name="Comment icon" transform="translate(0)">
    <path id="Path_26761" data-name="Path 26761" d="M149.886,134.11l-.141,3.946,3.788-2.081Z" transform="translate(-132.243 -119.437)" fill="#f9d0b4"/>
    <path id="Path_26762" data-name="Path 26762" d="M151.647,152.106l-1.831-.936-.071,1.981Z" transform="translate(-132.243 -134.569)" fill="#6d6c6b"/>
    <path id="Path_26786" data-name="Path 26786" d="M.534.1,2.579,0,2.045,9.844,0,9.948Z" transform="translate(22.617 6.384) rotate(30)" fill="#ffcd29"/>
    <path id="Path_26787" data-name="Path 26787" d="M0,0,9.844.534l.1,2.045L.1,2.045Z" transform="translate(19.467 15.871) rotate(-60)" fill="#ffcd29"/>
    <path id="Path_26763" data-name="Path 26763" d="M194.367,53.513,190.821,51.7a.824.824,0,0,0-1.048.249.639.639,0,0,0,.281.928L193.6,54.69a.824.824,0,0,0,1.048-.249.639.639,0,0,0-.281-.928Z" transform="translate(-166.976 -45.954)" fill="#e9e9ea"/>
    <path id="Path_26764" data-name="Path 26764" d="M200.268,43.295l-3.546-1.813a.824.824,0,0,0-1.048.249.639.639,0,0,0,.281.928l3.546,1.813a.824.824,0,0,0,1.048-.249.639.639,0,0,0-.281-.928Z" transform="translate(-172.11 -36.855)" fill="#e9e9ea"/>
    <path id="Path_26765" data-name="Path 26765" d="M207.1,31.318a2.26,2.26,0,0,0-2.876.682l-.213.326c.018.007.036.012.053.021l3.546,1.812c.017.009.031.02.048.03l.213-.326A1.753,1.753,0,0,0,207.1,31.318Z" transform="translate(-179.453 -27.49)" fill="#ea4647"/>
    <path id="Path_26766" data-name="Path 26766" d="M43.838,28.617l-5.211,7.574-1.886.982h0l-1.574.818-.329.171h0l.071-1.877.07-1.862L40.364,26.6l.051.024a.591.591,0,0,1-.281-.88.852.852,0,0,1,1.048-.236.71.71,0,0,1-.272-.228c-.051-.041-.1-.083-.152-.123a15.566,15.566,0,0,0-18.363.106c-4.665,3.661-5.65,9.558-2.363,14.154a.611.611,0,0,1,.036.664l-2.327,4.2a.636.636,0,0,0,.171.811.981.981,0,0,0,.967.143l5-1.953a1.016,1.016,0,0,1,.814.041,15.6,15.6,0,0,0,16.094-1.372c4.414-3.391,5.654-8.811,3.048-13.332Z" transform="translate(-17.336 -19.654)" fill="#ffd54f"/>
    <path id="Path_26767" data-name="Path 26767" d="M69.307,86.678H65.038a.29.29,0,1,0,0,.576h4.269a.29.29,0,1,0,0-.576Z" transform="translate(-58.269 -77.137)" fill="#231f20"/>
    <path id="Path_26768" data-name="Path 26768" d="M76.237,102.517h-11.2a.29.29,0,1,0,0,.576h11.2a.29.29,0,1,0,0-.576Z" transform="translate(-58.269 -91.232)" fill="#231f20"/>
    <path id="Path_26769" data-name="Path 26769" d="M75.048,118.356H65.038a.29.29,0,1,0,0,.576H75.048a.29.29,0,1,0,0-.576Z" transform="translate(-58.269 -105.328)" fill="#231f20"/>
    <path id="Path_26770" data-name="Path 26770" d="M74.042,134.2h-9a.29.29,0,1,0,0,.576h9a.29.29,0,1,0,0-.576Z" transform="translate(-58.269 -119.423)" fill="#231f20"/>
    <path id="Path_26771" data-name="Path 26771" d="M73.982,150.033H65.038a.29.29,0,1,0,0,.576h8.944a.29.29,0,1,0,0-.576Z" transform="translate(-58.269 -133.518)" fill="#231f20"/>
    <path id="Path_26772" data-name="Path 26772" d="M73.911,165.872H65.038a.29.29,0,1,0,0,.576h8.873a.29.29,0,1,0,0-.576Z" transform="translate(-58.269 -147.613)" fill="#231f20"/>
    <path id="Path_26773" data-name="Path 26773" d="M156.175,61.041a.3.3,0,0,0-.152-.175l-1.824-.933a.349.349,0,0,0-.444.105L148.371,68.3a.271.271,0,0,0,.119.393l1.824.933a.358.358,0,0,0,.163.039.335.335,0,0,0,.282-.144l5.384-8.258A.259.259,0,0,0,156.175,61.041Zm-5.817,7.939-1.26-.645,5.059-7.759,1.26.645Z" transform="translate(-131.01 -53.443)" fill="#231f20"/>
    <path id="Path_26774" data-name="Path 26774" d="M170.046,68.966l-1.824-.932a.349.349,0,0,0-.444.105L162.393,76.4a.271.271,0,0,0,.119.393l1.824.933a.349.349,0,0,0,.444-.105l5.384-8.258a.259.259,0,0,0,.033-.219A.3.3,0,0,0,170.046,68.966ZM164.38,77.08l-1.26-.645,5.059-7.759,1.26.645Z" transform="translate(-143.208 -60.671)" fill="#231f20"/>
    <path id="Path_26775" data-name="Path 26775" d="M192.355,51.054l-3.546-1.813a1.173,1.173,0,0,0-1.492.354.91.91,0,0,0,.4,1.322l3.546,1.813a1.173,1.173,0,0,0,1.492-.354.91.91,0,0,0-.4-1.322Zm-.163,1.034a.475.475,0,0,1-.6.143l-3.546-1.813a.368.368,0,0,1-.162-.535.475.475,0,0,1,.6-.143l3.546,1.813A.368.368,0,0,1,192.192,52.088Z" transform="translate(-164.801 -43.736)" fill="#231f20"/>
    <path id="Path_26776" data-name="Path 26776" d="M198.256,40.833,194.71,39.02a1.173,1.173,0,0,0-1.492.354.91.91,0,0,0,.4,1.322l3.546,1.813a1.173,1.173,0,0,0,1.492-.354.91.91,0,0,0-.4-1.322Zm-.163,1.034a.475.475,0,0,1-.6.143L193.942,40.2a.368.368,0,0,1-.162-.535.475.475,0,0,1,.6-.143l3.546,1.813A.369.369,0,0,1,198.093,41.867Z" transform="translate(-169.934 -34.634)" fill="#231f20"/>
    <path id="Path_26777" data-name="Path 26777" d="M205.091,28.863a2.612,2.612,0,0,0-3.32.788l-.212.326a.259.259,0,0,0-.029.229.3.3,0,0,0,.17.174l.04.016,3.53,1.8h0l.034.022a.36.36,0,0,0,.256.043.325.325,0,0,0,.209-.137l.212-.326A2.026,2.026,0,0,0,205.091,28.863Zm.327,2.652-.047.072-3.084-1.577.047-.072a1.911,1.911,0,0,1,2.432-.577,1.483,1.483,0,0,1,.652,2.154Z" transform="translate(-177.28 -25.285)" fill="#231f20"/>
    <path id="Path_26778" data-name="Path 26778" d="M151.522,133.513l-3.647-1.865a.362.362,0,0,0-.321,0,.286.286,0,0,0-.167.242l-.141,3.946a.282.282,0,0,0,.163.258.362.362,0,0,0,.334,0l3.788-2.081a.272.272,0,0,0-.009-.494Zm-3.607,1.8.1-2.928,2.706,1.384Z" transform="translate(-130.069 -117.228)" fill="#231f20"/>
    <path id="Path_26779" data-name="Path 26779" d="M149.636,149.64,147.8,148.7a.362.362,0,0,0-.321,0,.286.286,0,0,0-.167.243l-.071,1.981a.283.283,0,0,0,.163.258.362.362,0,0,0,.334,0l1.9-1.045a.272.272,0,0,0-.009-.494Zm-1.72.766.034-.963.89.455Z" transform="translate(-130.069 -132.356)" fill="#231f20"/>
    <path id="Path_26780" data-name="Path 26780" d="M41.96,26.3a.333.333,0,0,0-.281-.154.343.343,0,0,0-.293.136l-5.17,7.524-3.2,1.67.119-3.166,5.251-7.641a.277.277,0,0,0,.187-.236.267.267,0,0,0-.162-.248.341.341,0,0,1-.162-.508.491.491,0,0,1,.6-.136.361.361,0,0,0,.444-.1.251.251,0,0,0-.119-.373.406.406,0,0,1-.155-.132.291.291,0,0,0-.056-.059l-.06-.049c-.031-.026-.063-.052-.1-.076a15.932,15.932,0,0,0-18.8.108c-4.777,3.753-5.785,9.8-2.419,14.512a.375.375,0,0,1,.02.408l-2.328,4.2a.859.859,0,0,0,.075.951,1.251,1.251,0,0,0,.993.462,1.381,1.381,0,0,0,.5-.094l5-1.955a.635.635,0,0,1,.509.028,15.96,15.96,0,0,0,16.482-1.406C43.359,36.5,44.628,30.939,41.96,26.3ZM38.821,39.229a15.123,15.123,0,0,1-16.13,1.681,1.4,1.4,0,0,0-1.118-.055l-5,1.955a.608.608,0,0,1-.6-.089.4.4,0,0,1-.106-.5l2.327-4.2a.845.845,0,0,0-.052-.92C14.8,32.4,16.024,26.369,21.016,22.867a15.184,15.184,0,0,1,17.174.159.979.979,0,0,0-.626.627.811.811,0,0,0,.218.8L32.527,32.1a.241.241,0,0,0-.043.128l-.141,3.744a.267.267,0,0,0,.163.245.379.379,0,0,0,.334,0l3.788-1.974a.3.3,0,0,0,.11-.1l4.9-7.124c2.115,4.172,1,9-2.811,12.213Z" transform="translate(-15.165 -17.466)" fill="#231f20"/>
    <path id="Path_26781" data-name="Path 26781" d="M200.465,9.024h-.24V8.812a.328.328,0,0,0-.65,0v.212h-.24a.29.29,0,1,0,0,.576h.24v.212a.328.328,0,0,0,.65,0V9.6h.24a.29.29,0,1,0,0-.576Z" transform="translate(-175.101 -7.542)" fill="#ea4647"/>
    <path id="Path_26782" data-name="Path 26782" d="M178.457.228a.276.276,0,0,0-.018-.054.29.29,0,0,0-.03-.05.266.266,0,0,0-.04-.044.37.37,0,0,0-.46,0,.349.349,0,0,0-.04.044.409.409,0,0,0-.03.05.262.262,0,0,0-.018.054.273.273,0,0,0-.007.056.273.273,0,0,0,.007.056.252.252,0,0,0,.018.053.332.332,0,0,0,.03.05.281.281,0,0,0,.04.044.354.354,0,0,0,.46,0,.226.226,0,0,0,.04-.044.25.25,0,0,0,.03-.05.27.27,0,0,0,.018-.053.208.208,0,0,0,.006-.056.208.208,0,0,0-.006-.056Z" transform="translate(-156.661 0)" fill="#55acd5"/>
    <path id="Path_26783" data-name="Path 26783" d="M90.928,237.038a.282.282,0,0,0-.088-.147.37.37,0,0,0-.46,0,.341.341,0,0,0-.04.044.4.4,0,0,0-.03.049.267.267,0,0,0-.018.054.245.245,0,0,0,0,.113.258.258,0,0,0,.018.053.334.334,0,0,0,.03.05.284.284,0,0,0,.04.044.353.353,0,0,0,.46,0,.226.226,0,0,0,.04-.044.252.252,0,0,0,.03-.05.267.267,0,0,0,.018-.053A.25.25,0,0,0,90.928,237.038Z" transform="translate(-80.515 -210.815)" fill="#55acd5"/>
    <path id="Path_26784" data-name="Path 26784" d="M236.505,89.406a.282.282,0,0,0-.088-.147.37.37,0,0,0-.46,0,.34.34,0,0,0-.04.044.405.405,0,0,0-.03.05.265.265,0,0,0-.018.054.243.243,0,0,0,0,.113.255.255,0,0,0,.018.053.333.333,0,0,0,.03.05.284.284,0,0,0,.04.044.353.353,0,0,0,.46,0,.228.228,0,0,0,.04-.044.254.254,0,0,0,.03-.05.264.264,0,0,0,.018-.053A.249.249,0,0,0,236.505,89.406Z" transform="translate(-207.16 -79.362)" fill="#6dcc6d"/>
    <path id="Path_26785" data-name="Path 26785" d="M61.012,240.235a1.248,1.248,0,0,1-1.043-.924.024.024,0,0,0-.046,0,1.248,1.248,0,0,1-1.043.924.021.021,0,0,0,0,.041,1.248,1.248,0,0,1,1.043.924.024.024,0,0,0,.046,0,1.248,1.248,0,0,1,1.043-.924.021.021,0,0,0,0-.041Z" transform="translate(-53.177 -213.012)" fill="#ffcd29"/>
  </g>
</svg>
