<svg xmlns="http://www.w3.org/2000/svg" width="40.822" height="33.502" viewBox="0 0 40.822 33.502">
  <path id="Path_413" data-name="Path 413" d="M34.859,62.157v-4.63a.594.594,0,0,0-1.187,0v4.253a8.948,8.948,0,0,0-6.9,1.141L22.006,58.66,33.672,48.236v9.8c0,.328.266-.509.594-.509s.594.837.594.509V48.017a1.778,1.778,0,0,0-1.776-1.776H18.814a.594.594,0,0,0,0,1.187H32.794l-13.764,12.3a2.4,2.4,0,0,1-3.2,0L2.065,47.428H19.821c.328,0-1.151-.266-1.151-.594s.713-.594.385-.594H1.776A1.778,1.778,0,0,0,0,48.017V69.3A1.778,1.778,0,0,0,1.776,71.08H22.628a8.957,8.957,0,1,0,12.23-8.923ZM1.187,69.086V48.236L12.852,58.661Zm.878.807L13.743,59.457l1.3,1.157a3.586,3.586,0,0,0,4.782,0l1.3-1.157L25.8,63.64a8.944,8.944,0,0,0-3.169,6.253Zm29.5,8.363a7.77,7.77,0,1,1,7.77-7.77A7.779,7.779,0,0,1,31.565,78.256Z" transform="translate(0.15 -46.091)" fill="#469a09" stroke="#3f8f22" stroke-linecap="round" stroke-linejoin="round" stroke-width="0.3"/>
</svg>
