<svg id="Cover_Photo_button" data-name="Cover Photo button" xmlns="http://www.w3.org/2000/svg" width="61.259" height="42.615" viewBox="0 0 61.259 42.615">
  <path id="Path_28236" data-name="Path 28236" d="M18.644,0H39.952A18.644,18.644,0,0,1,58.6,18.644v2.663A18.644,18.644,0,0,1,39.952,39.952H18.644A18.644,18.644,0,0,1,0,21.308V18.644A18.644,18.644,0,0,1,18.644,0Z" transform="translate(2.663 2.663)" fill="#948f8c"/>
  <path id="Path_28235" data-name="Path 28235" d="M18.644,0H39.952A18.644,18.644,0,0,1,58.6,18.644v2.663A18.644,18.644,0,0,1,39.952,39.952H18.644A18.644,18.644,0,0,1,0,21.308V18.644A18.644,18.644,0,0,1,18.644,0Z" transform="translate(0 0)" fill="#fff"/>
  <path id="Icon_material-edit" data-name="Icon material-edit" d="M4.5,27.7v6.1h6.1L28.611,15.8l-6.1-6.1ZM33.332,11.077a1.621,1.621,0,0,0,0-2.3l-3.81-3.81a1.621,1.621,0,0,0-2.3,0L24.248,7.952l6.1,6.1Z" transform="translate(8.817 0.831)" fill="#baadad"/>
  <path id="Icon_material-edit-2" data-name="Icon material-edit" d="M4.5,27.7v6.1h6.1L28.611,15.8l-6.1-6.1ZM33.332,11.077a1.621,1.621,0,0,0,0-2.3l-3.81-3.81a1.621,1.621,0,0,0-2.3,0L24.248,7.952l6.1,6.1Z" transform="translate(11.481 0.831)" fill="#5b5353"/>
</svg>
