<svg xmlns="http://www.w3.org/2000/svg" width="31.925" height="30.368" viewBox="0 0 31.925 30.368"><defs><style>.a{fill:#bf2604;}.b{fill:#d9d9d9;}.c,.d{stroke:none;}.d{fill:#98918a;}</style></defs><g transform="translate(-200.21 -162.752)"><g transform="translate(207.385 167.935)"><path class="a" d="M62.205,150l1.038,12.529a1.767,1.767,0,0,0,1.751,1.612h9.563a1.767,1.767,0,0,0,1.751-1.612L77.345,150Zm4.64,11.8a.586.586,0,0,1-.584-.549l-.586-9.453a.586.586,0,0,1,.548-.621.577.577,0,0,1,.621.548l.586,9.453A.586.586,0,0,1,66.845,161.8Zm3.516-.586a.586.586,0,0,1-1.172,0v-9.453a.586.586,0,0,1,1.172,0Zm3.514-9.416-.586,9.453a.586.586,0,0,1-1.17-.073l.586-9.453a.6.6,0,0,1,.621-.548A.586.586,0,0,1,73.875,151.794Z" transform="translate(-60.986 -144.141)"/><path class="a" d="M47.406,2.344H43.891V1.758A1.76,1.76,0,0,0,42.133,0H37.445a1.76,1.76,0,0,0-1.758,1.758v.586H32.172a1.172,1.172,0,1,0,0,2.344H47.406a1.172,1.172,0,1,0,0-2.344Zm-4.687,0H36.859V1.758a.586.586,0,0,1,.586-.586h4.687a.586.586,0,0,1,.586.586Z" transform="translate(-31)"/></g><g transform="translate(207.385 167.935)"><g class="b" transform="translate(-7.174 -5.184)"><path class="c" d="M 15.9625997543335 29.36787605285645 C 11.95654964447021 29.36787605285645 8.19275951385498 27.88629531860352 5.36454963684082 25.19604682922363 C 2.550029754638672 22.5188159942627 0.9999997615814209 18.96311569213867 0.9999997615814209 15.18393611907959 C 0.9999997615814209 11.40475654602051 2.550029754638672 7.849056243896484 5.36454963684082 5.171825885772705 C 8.19275951385498 2.481576204299927 11.95654964447021 0.9999961256980896 15.9625997543335 0.9999961256980896 C 19.96864891052246 0.9999961256980896 23.7324390411377 2.481576204299927 26.56064987182617 5.171825885772705 C 29.37516975402832 7.849056243896484 30.92519950866699 11.40475654602051 30.92519950866699 15.18393611907959 C 30.92519950866699 18.96311569213867 29.37516975402832 22.5188159942627 26.56064987182617 25.19604682922363 C 23.7324390411377 27.88629531860352 19.96864891052246 29.36787605285645 15.9625997543335 29.36787605285645 Z"/><path class="d" d="M 15.9625997543335 1.999996185302734 C 12.21426963806152 1.999996185302734 8.695240020751953 3.383756637573242 6.053770065307617 5.896385192871094 C 3.43964958190918 8.382976531982422 2 11.68135643005371 2 15.18393611907959 C 2 18.68651580810547 3.43964958190918 21.98489570617676 6.053770065307617 24.47148513793945 C 8.695240020751953 26.98411560058594 12.21426963806152 28.36787605285645 15.9625997543335 28.36787605285645 C 19.71092987060547 28.36787605285645 23.22995948791504 26.98411560058594 25.87142944335938 24.47148513793945 C 28.48554992675781 21.98489570617676 29.92519950866699 18.68651580810547 29.92519950866699 15.18393611907959 C 29.92519950866699 11.68135643005371 28.48554992675781 8.382976531982422 25.87142944335938 5.896385192871094 C 23.22995948791504 3.383756637573242 19.71092987060547 1.999996185302734 15.9625997543335 1.999996185302734 M 15.9625997543335 -3.814697265625e-06 C 24.77849960327148 -3.814697265625e-06 31.92519950866699 6.798076629638672 31.92519950866699 15.18393611907959 C 31.92519950866699 23.56979560852051 24.77849960327148 30.36787605285645 15.9625997543335 30.36787605285645 C 7.146699905395508 30.36787605285645 0 23.56979560852051 0 15.18393611907959 C 0 6.798076629638672 7.146699905395508 -3.814697265625e-06 15.9625997543335 -3.814697265625e-06 Z"/></g><path class="a" d="M770.193,13239.544a1.766,1.766,0,0,1-1.751-1.615l-1.04-12.526h15.142l-1.037,12.526a1.769,1.769,0,0,1-1.751,1.615Zm7.712-12.42-.588,9.453a.586.586,0,0,0,1.17.073l.588-9.453a.588.588,0,0,0-.548-.622h-.02A.592.592,0,0,0,777.9,13227.124Zm-3.519.036v9.453a.586.586,0,0,0,1.173,0v-9.453a.586.586,0,0,0-1.173,0Zm-2.964-.585a.586.586,0,0,0-.548.622l.585,9.453a.586.586,0,0,0,1.17-.073l-.585-9.453a.579.579,0,0,0-.578-.55Zm-4.067-2.346a1.171,1.171,0,1,1,0-2.342h3.515v-.589a1.763,1.763,0,0,1,1.758-1.758h4.688a1.761,1.761,0,0,1,1.758,1.758v.589h3.515a1.171,1.171,0,1,1,0,2.342Zm4.688-2.931v.589H777.9v-.589a.586.586,0,0,0-.585-.585h-4.688A.586.586,0,0,0,772.043,13221.3Z" transform="translate(-766.184 -13219.543)"/></g></g></svg>