<svg xmlns="http://www.w3.org/2000/svg" width="34.13" height="44.807" viewBox="0 0 34.13 44.807">
  <g id="chef-4" transform="translate(0)">
    <path id="Path_27496" data-name="Path 27496" d="M70.845,326.123v-1.091A10.076,10.076,0,0,0,61,335.093v4.988a1.313,1.313,0,0,0,1.313,1.313h4.813v-4.988a1.313,1.313,0,1,1,2.625,0v4.988h4.376V332.17A7.218,7.218,0,0,1,70.845,326.123Z" transform="translate(-61 -296.588)" fill="#469a21"/>
    <path id="Path_27497" data-name="Path 27497" d="M249.533,325.032v1.091a7.212,7.212,0,0,1-8.533,7.1v8.173h9.626v-4.988a1.313,1.313,0,1,1,2.625,0v4.988h4.813a1.313,1.313,0,0,0,1.313-1.313v-4.988A10.076,10.076,0,0,0,249.533,325.032Zm-5.47,12.249a1.313,1.313,0,1,1,1.313-1.313A1.313,1.313,0,0,1,244.063,337.281Z" transform="translate(-225.248 -296.588)" fill="#469a21"/>
    <path id="Path_27498" data-name="Path 27498" d="M203.5,321.372v1.411a4.594,4.594,0,0,0,9.189,0v-1.411a11.814,11.814,0,0,1-9.189,0Z" transform="translate(-191.029 -293.248)" fill="#469a21"/>
    <path id="Path_27499" data-name="Path 27499" d="M151,163.238a9.189,9.189,0,0,0,18.378,0V160H151Z" transform="translate(-143.124 -145.998)" fill="#469a21"/>
    <path id="Path_27500" data-name="Path 27500" d="M151.128,10.258a4.8,4.8,0,0,0-3.063-8.507,4.7,4.7,0,0,0-1.743.333,5.653,5.653,0,0,0-8.767,0,4.7,4.7,0,0,0-1.743-.333,4.8,4.8,0,0,0-3.063,8.507v1.119h18.378Z" transform="translate(-124.874 0)" fill="#469a21"/>
  </g>
</svg>
