<svg xmlns="http://www.w3.org/2000/svg" width="32.978" height="32.978" viewBox="0 0 32.978 32.978">
  <path id="email" d="M16.489,0a16.489,16.489,0,1,0,8.246,30.771L22.672,27.2a12.369,12.369,0,1,1,6.183-10.713v1.8a2.133,2.133,0,0,1-2.061,2.327,2.064,2.064,0,0,1-2.061-2.061V10.305H21.884a8.236,8.236,0,1,0,.2,12.2,6.145,6.145,0,0,0,4.711,2.226,6.253,6.253,0,0,0,6.183-6.449v-1.8A16.508,16.508,0,0,0,16.489,0Zm0,20.611a4.122,4.122,0,1,1,4.122-4.122A4.126,4.126,0,0,1,16.489,20.611Z" fill="#469a09"/>
</svg>
