<svg xmlns="http://www.w3.org/2000/svg" width="27.833" height="24.133" viewBox="0 0 27.833 24.133">
    <g id="Like_button_full" data-name="Like button full" transform="translate(0 0)">
        <path id="Empty_heart" data-name="Empty heart" d="M27.5,6.257C25.9,4.12,24.013,3.024,21.9,3h-.071c-3.054,0-5.685,2.292-6.909,3.565C13.7,5.292,11.069,3,8.014,3h-.07c-2.11.024-3.992,1.12-5.624,3.294A7.672,7.672,0,0,0,3.3,16.062L14.275,26.868a.928.928,0,0,0,1.3,0L26.546,16.062a7.684,7.684,0,0,0,.956-9.8Zm-2.258,8.482L14.924,24.907,4.6,14.739a5.805,5.805,0,0,1-.772-7.367A5.343,5.343,0,0,1,7.962,4.857h.054c3.23,0,6.152,3.643,6.18,3.68a.963.963,0,0,0,1.457,0c.03-.037,2.97-3.761,6.234-3.68a5.312,5.312,0,0,1,4.1,2.478A5.816,5.816,0,0,1,25.245,14.739Z" transform="translate(-1.006 -3)" fill="#bf2604" />
    </g>
</svg>