<svg xmlns="http://www.w3.org/2000/svg" xmlns:xlink="http://www.w3.org/1999/xlink" width="60" height="59" viewBox="0 0 60 59">
  <defs>
    <filter id="Icon_background" x="0" y="0" width="60" height="59" filterUnits="userSpaceOnUse">
      <feOffset dy="3" input="SourceAlpha"/>
      <feGaussianBlur stdDeviation="3" result="blur"/>
      <feFlood flood-opacity="0.161"/>
      <feComposite operator="in" in2="blur"/>
      <feComposite in="SourceGraphic"/>
    </filter>
  </defs>
  <g id="Group_1102" data-name="Group 1102" transform="translate(8.861 5.607)">
    <g transform="matrix(1, 0, 0, 1, -8.86, -5.61)" filter="url(#Icon_background)">
      <ellipse id="Icon_background-2" data-name="Icon background" cx="21" cy="20.5" rx="21" ry="20.5" transform="translate(9 6)" fill="#fff"/>
    </g>
    <g id="LIke_btn" data-name="LIke btn" transform="translate(8.115 11.02)">
      <path id="Un_selected_like_icon" data-name="Un selected like icon" d="M6.376,0a6.161,6.161,0,0,0-4.5,2.057A7.232,7.232,0,0,0,0,6.974a7.365,7.365,0,0,0,1.881,4.917L12.753,23.781l.911-1,9.961-10.895a7.232,7.232,0,0,0,1.881-4.917,7.365,7.365,0,0,0-1.881-4.917A6.054,6.054,0,0,0,19.129,0a6.161,6.161,0,0,0-4.5,2.057,7.232,7.232,0,0,0-1.881,4.917,7.365,7.365,0,0,0-1.881-4.917A6.054,6.054,0,0,0,6.376,0Z" transform="translate(0 0)" fill="none" stroke="#b62414" stroke-linecap="round" stroke-linejoin="round" stroke-width="2"/>
    </g>
  </g>
</svg>
