<svg xmlns="http://www.w3.org/2000/svg" width="35.681" height="19" viewBox="0 0 35.681 19">
  <path id="Eye_icon" data-name="Eye icon" d="M19.63,27.446A23.715,23.715,0,0,0,36.415,20.5a3.666,3.666,0,0,0,0-5.147,23.765,23.765,0,0,0-33.57.063,3.666,3.666,0,0,0,0,5.147,23.715,23.715,0,0,0,16.785,6.88Zm0-15.793a6.277,6.277,0,1,1-6.277,6.277A6.277,6.277,0,0,1,19.63,11.652ZM34.959,17.93a1.1,1.1,0,0,1-.326.791,21.016,21.016,0,0,1-8.6,5.21,8.788,8.788,0,0,0,0-12,21.016,21.016,0,0,1,8.663,5.21,1.1,1.1,0,0,1,.264.791ZM4.627,17.139a21.016,21.016,0,0,1,8.6-5.21,8.788,8.788,0,0,0,0,12,21.016,21.016,0,0,1-8.6-5.21,1.117,1.117,0,0,1,0-1.582Z" transform="translate(-1.789 -8.446)" fill="#464040"/>
</svg>
