<svg xmlns="http://www.w3.org/2000/svg" width="46.482" height="36.953" viewBox="0 0 46.482 36.953">
  <g id="Faq_icon_on_menu" data-name="Faq icon on menu" transform="translate(0 0)">
    <path id="Path_415" data-name="Path 415" d="M23.071,24.021V9.343H7.577A4.082,4.082,0,0,0,3.5,13.42v6.524a4.082,4.082,0,0,0,4.077,4.077H9.547l2.473,4.713a.816.816,0,0,0,1.445,0l2.474-4.713ZM8.461,13.828H19.742a.815.815,0,0,1,0,1.631H8.461a.815.815,0,1,1,0-1.631Zm0,5.708a.815.815,0,0,1,0-1.631H19.742a.815.815,0,0,1,0,1.631Z" transform="translate(-3.5 -9.343)" fill="#469a09"/>
    <path id="Path_416" data-name="Path 416" d="M35.7,15.343a2.446,2.446,0,1,0,.89,4.719l-1.076-1.076a.815.815,0,1,1,1.153-1.153l1.153,1.153a2.417,2.417,0,0,0,.326-1.2A2.449,2.449,0,0,0,35.7,15.343Z" transform="translate(-8.99 -10.45)" fill="#469a09"/>
    <path id="Path_417" data-name="Path 417" d="M42.548,19.944V13.42A4.082,4.082,0,0,0,38.47,9.343H29.5V24.021h8.97A4.082,4.082,0,0,0,42.548,19.944Zm-4.858.806-.589-.589a4.034,4.034,0,0,1-2.1.6,4.107,4.107,0,1,1,3.3-1.7l.539.539A.815.815,0,1,1,37.69,20.75Z" transform="translate(-8.297 -9.343)" fill="#469a09"/>
    <path id="Path_418" data-name="Path 418" d="M18.5,34.42v6.524a4.082,4.082,0,0,0,4.077,4.077h8.97V30.343h-8.97A4.082,4.082,0,0,0,18.5,34.42Zm5.147.647a2.446,2.446,0,0,1,4.309,0,.834.834,0,0,1,.064.154l1.546,5.205A.816.816,0,0,1,28,40.891l-.465-1.566h-3.47L23.6,40.891a.816.816,0,0,1-1.564-.465l1.546-5.205A.835.835,0,0,1,23.647,35.068Z" transform="translate(-6.268 -13.218)" fill="#469a09"/>
    <path id="Path_419" data-name="Path 419" d="M27.853,36.926a.816.816,0,0,0-1.364,0l-.569,1.915h2.5Z" transform="translate(-7.637 -14.365)" fill="#469a09"/>
    <path id="Path_420" data-name="Path 420" d="M51.994,30.343H36.5V45.021h7.134l2.474,4.713a.816.816,0,0,0,1.445,0l2.473-4.713h1.969a4.082,4.082,0,0,0,4.077-4.077V34.42A4.082,4.082,0,0,0,51.994,30.343Zm-.883,10.193H39.83a.815.815,0,1,1,0-1.631H51.111a.815.815,0,1,1,0,1.631Zm0-4.077H39.83a.815.815,0,1,1,0-1.631H51.111a.815.815,0,1,1,0,1.631Z" transform="translate(-9.59 -13.218)" fill="#469a09"/>
  </g>
</svg>
