<svg xmlns="http://www.w3.org/2000/svg" width="8.923" height="14.701" viewBox="0 0 8.923 14.701">
  <path id="read_more_down_arrow_black" data-name="read more down arrow black" d="M.863-5.669a1.666,1.666,0,0,0,.573,1.253L7.247,1.262a1.366,1.366,0,0,0,1.029.423A1.507,1.507,0,0,0,9.787.191a1.5,1.5,0,0,0-.5-1.1L4.358-5.678l4.931-4.748a1.531,1.531,0,0,0,.5-1.1,1.506,1.506,0,0,0-1.511-1.486,1.389,1.389,0,0,0-1.029.415L1.436-6.923A1.683,1.683,0,0,0,.863-5.669Z" transform="translate(9.787 1.685) rotate(180)" fill="#464040"/>
</svg>
