<svg xmlns="http://www.w3.org/2000/svg" xmlns:xlink="http://www.w3.org/1999/xlink" width="61" height="61" viewBox="0 0 61 61">
  <defs>
    <filter id="Icon_background" x="0" y="0" width="61" height="61" filterUnits="userSpaceOnUse">
      <feOffset dy="3" input="SourceAlpha"/>
      <feGaussianBlur stdDeviation="3" result="blur"/>
      <feFlood flood-opacity="0.161"/>
      <feComposite operator="in" in2="blur"/>
      <feComposite in="SourceGraphic"/>
    </filter>
    <filter id="Selected_like_icon" x="12.58" y="14.434" width="36.506" height="34.781" filterUnits="userSpaceOnUse">
      <feOffset dy="2" input="SourceAlpha"/>
      <feGaussianBlur stdDeviation="1.5" result="blur-2"/>
      <feFlood flood-opacity="0.161"/>
      <feComposite operator="in" in2="blur-2"/>
      <feComposite in="SourceGraphic"/>
    </filter>
  </defs>
  <g id="LIke_btn" data-name="LIke btn" transform="translate(8.621 6.473)">
    <g transform="matrix(1, 0, 0, 1, -8.62, -6.47)" filter="url(#Icon_background)">
      <circle id="Icon_background-2" data-name="Icon background" cx="21.5" cy="21.5" r="21.5" transform="translate(9 6)" fill="#fff"/>
    </g>
    <g transform="matrix(1, 0, 0, 1, -8.62, -6.47)" filter="url(#Selected_like_icon)">
      <path id="Selected_like_icon-2" data-name="Selected like icon" d="M6.376,0a6.161,6.161,0,0,0-4.5,2.057A7.232,7.232,0,0,0,0,6.974a7.365,7.365,0,0,0,1.881,4.917L12.753,23.781l.911-1,9.961-10.895a7.232,7.232,0,0,0,1.881-4.917,7.365,7.365,0,0,0-1.881-4.917A6.054,6.054,0,0,0,19.129,0a6.161,6.161,0,0,0-4.5,2.057,7.232,7.232,0,0,0-1.881,4.917,7.365,7.365,0,0,0-1.881-4.917A6.054,6.054,0,0,0,6.376,0Z" transform="translate(18.08 17.93)" fill="#b62414" stroke="#b62414" stroke-linecap="round" stroke-linejoin="round" stroke-width="2"/>
    </g>
  </g>
</svg>
