<svg xmlns="http://www.w3.org/2000/svg" xmlns:xlink="http://www.w3.org/1999/xlink" width="48.37" height="48.558" viewBox="0 0 48.37 48.558">
  <defs>
    <filter id="Ellipse_1104" x="0" y="0" width="44.247" height="44.247" filterUnits="userSpaceOnUse">
      <feOffset input="SourceAlpha"/>
      <feGaussianBlur stdDeviation="3" result="blur"/>
      <feFlood flood-opacity="0.161"/>
      <feComposite operator="in" in2="blur"/>
      <feComposite in="SourceGraphic"/>
    </filter>
  </defs>
  <g id="Go_to_masterclass_link_icon" data-name="Go to masterclass link icon" transform="translate(9 9)">
    <path id="Path_28154" data-name="Path 28154" d="M234.222,103.059a5.067,5.067,0,0,1-3.607-1.494l-.892-.892a5.1,5.1,0,0,1,0-7.213l7.166-7.166a5.1,5.1,0,0,1,7.213,0l.892.892a5.106,5.106,0,0,1,0,7.213h0l-7.166,7.166A5.067,5.067,0,0,1,234.222,103.059ZM240.5,88a1.9,1.9,0,0,0-1.345.556l-7.166,7.166a1.9,1.9,0,0,0,0,2.689l.892.892a1.9,1.9,0,0,0,2.689,0l7.166-7.166h0a1.9,1.9,0,0,0,0-2.689l-.892-.892A1.9,1.9,0,0,0,240.5,88Z" transform="translate(-207.116 -78.239)" fill="#5b5353"/>
    <path id="Path_28155" data-name="Path 28155" d="M262.005,104.2l-.5-.5-2.262,2.262.5.5a1.9,1.9,0,0,1,0,2.689h0l-7.166,7.166a1.9,1.9,0,0,1-2.689,0l-.5-.5-2.262,2.262.5.5a5.1,5.1,0,0,0,7.214,0L262,111.414h0A5.106,5.106,0,0,0,262.005,104.2Z" transform="translate(-224.127 -95.254)" fill="#ffd54f"/>
    <path id="Path_28156" data-name="Path 28156" d="M86.823,250.48a5.068,5.068,0,0,1-3.607-1.494l-.892-.892a5.106,5.106,0,0,1,0-7.213l7.166-7.166a5.1,5.1,0,0,1,7.213,0l.892.892a5.107,5.107,0,0,1,0,7.214l-7.166,7.166A5.068,5.068,0,0,1,86.823,250.48ZM93.1,235.421a1.9,1.9,0,0,0-1.345.556l-7.166,7.166a1.9,1.9,0,0,0,0,2.689l.892.892a1.9,1.9,0,0,0,2.689,0l7.166-7.166h0a1.9,1.9,0,0,0,0-2.689l-.892-.892A1.9,1.9,0,0,0,93.1,235.421Z" transform="translate(-74.456 -210.922)" fill="#ffd54f"/>
    <g id="Group_1278" data-name="Group 1278" transform="translate(6.376 8.451)">
      <path id="Path_28162" data-name="Path 28162" d="M262.005,104.2l-.5-.5-2.262,2.262.5.5a1.9,1.9,0,0,1,0,2.689h0l-7.166,7.166a1.9,1.9,0,0,1-2.689,0l-.5-.5-2.262,2.262.5.5a5.1,5.1,0,0,0,7.214,0L262,111.414h0A5.106,5.106,0,0,0,262.005,104.2Z" transform="translate(-230.504 -103.705)" fill="#5b5353"/>
      <path id="Path_28163" data-name="Path 28163" d="M86.823,250.48a5.068,5.068,0,0,1-3.607-1.494l-.892-.892a5.106,5.106,0,0,1,0-7.213l7.166-7.166a5.1,5.1,0,0,1,7.213,0l.892.892a5.107,5.107,0,0,1,0,7.214l-7.166,7.166A5.068,5.068,0,0,1,86.823,250.48ZM93.1,235.421a1.9,1.9,0,0,0-1.345.556l-7.166,7.166a1.9,1.9,0,0,0,0,2.689l.892.892a1.9,1.9,0,0,0,2.689,0l7.166-7.166h0a1.9,1.9,0,0,0,0-2.689l-.892-.892A1.9,1.9,0,0,0,93.1,235.421Z" transform="translate(-80.833 -219.373)" fill="#5b5353"/>
    </g>
    <path id="Path_28157" data-name="Path 28157" d="M114.091,251.124l-2.262,2.262.5.5a1.9,1.9,0,0,1,0,2.689h0l-7.166,7.166a1.9,1.9,0,0,1-2.689,0l-.5-.5L99.712,265.5l.5.5a5.1,5.1,0,0,0,7.214,0l7.166-7.166a5.107,5.107,0,0,0,0-7.214Z" transform="translate(-91.447 -227.935)" fill="#5b5353"/>
    <rect id="Rectangle_1959" data-name="Rectangle 1959" width="3.199" height="10.612" transform="translate(20.147 28.103) rotate(-135)" fill="silver"/>
    <rect id="Rectangle_1960" data-name="Rectangle 1960" width="1.71" height="10.612" transform="translate(26.442 19.391) rotate(45)" fill="#758f9b"/>
    <g id="Share" transform="translate(0 0)">
      <g transform="matrix(1, 0, 0, 1, -9, -9)" filter="url(#Ellipse_1104)">
        <ellipse id="Ellipse_1104-2" data-name="Ellipse 1104" cx="13.123" cy="13.123" rx="13.123" ry="13.123" transform="translate(9 9)" fill="#fff"/>
      </g>
      <g id="Share_masterclass_post" data-name="Share masterclass post" transform="translate(4.661 4.31)">
        <path id="Icon_awesome-share" data-name="Icon awesome-share" d="M16.651,8.461,10.832,2.48c-.509-.524-1.312-.1-1.312.715v3.15C4.211,6.417,0,7.684,0,13.674a8.54,8.54,0,0,0,2.755,6.065c.451.391,1.095-.1.928-.733-1.5-5.706.711-7.221,5.838-7.309v3.459c0,.815.8,1.238,1.312.715L16.651,9.89A1.067,1.067,0,0,0,16.651,8.461Z" transform="translate(0 -2.25)" fill="#469a09"/>
      </g>
    </g>
  </g>
</svg>
