<?xml version="1.0" encoding="utf-8"?>
<!-- Generator: Adobe Illustrator 24.3.0, SVG Export Plug-In . SVG Version: 6.00 Build 0)  -->
<svg version="1.1" id="Layer_1" xmlns="http://www.w3.org/2000/svg" xmlns:xlink="http://www.w3.org/1999/xlink" x="0px" y="0px"
	 viewBox="0 0 21.9 18.9" style="enable-background:new 0 0 21.9 18.9;" xml:space="preserve">
<style type="text/css">
	.st0{fill:#464040;}
	.st1{fill:none;stroke:#464040;stroke-width:2;stroke-linecap:round;}
</style>
<g transform="translate(-302.469 -306.087)">
	<path class="st0" d="M313.4,321.7c3.9,0,7.6-1.5,10.3-4.3c0.9-0.9,0.9-2.3,0-3.2c-5.7-5.7-14.9-5.6-20.6,0c-0.9,0.9-0.9,2.3,0,3.2
		C305.9,320.2,309.6,321.7,313.4,321.7z M313.4,312c2.1,0,3.8,1.7,3.8,3.9c0,2.1-1.7,3.8-3.8,3.8c-2.1,0-3.9-1.7-3.9-3.8l0,0
		C309.6,313.7,311.3,312,313.4,312C313.4,312,313.4,312,313.4,312L313.4,312z M322.8,315.9c0,0.2-0.1,0.4-0.2,0.5
		c-1.5,1.5-3.3,2.6-5.3,3.2c1.9-2.1,1.9-5.3,0-7.4c2,0.6,3.8,1.7,5.3,3.2C322.8,315.5,322.8,315.7,322.8,315.9L322.8,315.9z
		 M304.2,315.4c1.5-1.5,3.3-2.6,5.3-3.2c-1.9,2.1-1.9,5.3,0,7.4c-2-0.6-3.8-1.7-5.3-3.2C303.9,316.1,303.9,315.6,304.2,315.4
		C304.2,315.4,304.2,315.4,304.2,315.4L304.2,315.4z"/>
	<path class="st1" d="M320.8,307.5l-14.6,16.1"/>
</g>
</svg>
