<svg id="Icon_ionic-ios-timer" data-name="Icon ionic-ios-timer" xmlns="http://www.w3.org/2000/svg" width="28.434" height="28.441" viewBox="0 0 28.434 28.441">
  <path id="Path_305" data-name="Path 305" d="M18.158,32.378A14.221,14.221,0,0,1,8.289,7.919,1.141,1.141,0,0,1,9.875,9.562,11.934,11.934,0,1,0,19.3,6.277v4.451a1.145,1.145,0,1,1-2.289,0V5.082a1.144,1.144,0,0,1,1.145-1.145,14.22,14.22,0,0,1,.007,28.441Z" transform="translate(-3.938 -3.938)"/>
  <path id="Path_306" data-name="Path 306" d="M12.381,11.385l7.075,5.084a2.141,2.141,0,0,1-2.489,3.484,2.067,2.067,0,0,1-.5-.5l-5.084-7.075a.713.713,0,0,1,1-1Z" transform="translate(-3.855 -3.855)"/>
</svg>
