<svg xmlns="http://www.w3.org/2000/svg" width="30.699" height="30.699" viewBox="0 0 30.699 30.699">
  <g id="info_icon_red" data-name="info icon red" transform="translate(0)">
    <path id="Path_16833" data-name="Path 16833" d="M15.35,0A15.35,15.35,0,1,0,30.7,15.35,15.35,15.35,0,0,0,15.35,0Zm0,28.716c-7.63,0-12.91-5.736-12.91-13.366S7.72,2.234,15.35,2.234,28.539,7.72,28.539,15.35,22.975,28.707,15.35,28.716Z" transform="translate(0 0)" fill="#bf2604"/>
    <path id="Path_16834" data-name="Path 16834" d="M210.189,202.745h-1.264v-9.977c0-.424-.614-.768-1.038-.768h-1.535a.767.767,0,0,0,0,1.535h.526v9.21h-1.294a.8.8,0,0,0-.808.767.976.976,0,0,0,.808.947h4.6c.424,0,.761-.523.761-.947A.762.762,0,0,0,210.189,202.745Zm0,0" transform="translate(-192.537 -180.488)" fill="#bf2604"/>
    <path id="Path_16835" data-name="Path 16835" d="M234.257,104.327a1.929,1.929,0,1,1-1.929-1.929A1.929,1.929,0,0,1,234.257,104.327Zm0,0" transform="translate(-217.372 -96.259)" fill="#bf2604"/>
  </g>
</svg>
