<svg xmlns="http://www.w3.org/2000/svg" width="28.762" height="24.939" viewBox="0 0 28.762 24.939">
  <g id="Like_button_full" data-name="Like button full" transform="translate(0 0)">
    <path id="Empty_heart" data-name="Empty heart" d="M28.387,6.366C26.728,4.158,24.781,3.025,22.6,3h-.073c-3.156,0-5.875,2.368-7.14,3.684C14.123,5.368,11.405,3,8.248,3H8.177C6,3.025,4.052,4.158,2.364,6.4A7.928,7.928,0,0,0,3.378,16.5L14.718,27.665a.959.959,0,0,0,1.343,0L27.4,16.5a7.941,7.941,0,0,0,.988-10.132Zm-2.333,8.765L15.389,25.639,4.724,15.131a6,6,0,0,1-.8-7.613c1.281-1.7,2.716-2.579,4.269-2.6H8.25c3.338,0,6.357,3.764,6.387,3.8a.995.995,0,0,0,1.506,0c.031-.038,3.07-3.887,6.442-3.8A5.49,5.49,0,0,1,26.827,7.48,6.01,6.01,0,0,1,26.054,15.131Z" transform="translate(-1.006 -3)" fill="#bf908f"/>
    <path id="_heart" data-name=" heart" d="M28.387,6.366C26.728,4.158,24.781,3.025,22.6,3h-.073c-3.156,0-5.875,2.368-7.14,3.684C14.123,5.368,11.405,3,8.248,3H8.177C6,3.025,4.052,4.158,2.364,6.4A7.928,7.928,0,0,0,3.378,16.5L14.718,27.665a.959.959,0,0,0,1.343,0L27.4,16.5a7.941,7.941,0,0,0,.988-10.132Zm-13,19.273Z" transform="translate(-1.006 -3)" fill="#bf2604"/>
  </g>
</svg>
