<svg xmlns="http://www.w3.org/2000/svg" width="28.804" height="35.205" viewBox="0 0 28.804 35.205">
  <g id="Layer_2" data-name="Layer 2" transform="translate(0 0)">
    <path id="Path_27408" data-name="Path 27408" d="M26.552,4.28A14.4,14.4,0,1,0,8.637,26.817a24.4,24.4,0,0,1,6.275,6.748l1.12,1.863a1.6,1.6,0,0,0,2.743,0l1.074-1.789a20.355,20.355,0,0,1,5.726-6.4,14.386,14.386,0,0,0,.979-22.967ZM17.4,21.8a6.4,6.4,0,1,1,6.4-6.4A6.4,6.4,0,0,1,17.4,21.8Z" transform="translate(-3.001 -0.999)" fill="#469a09"/>
  </g>
</svg>
