<svg xmlns="http://www.w3.org/2000/svg" width="21.785" height="25.136" viewBox="0 0 21.785 25.136">
  <path id="Location" d="M22.892,30.136a.838.838,0,0,1-.422-.114c-.428-.249-10.47-6.2-10.47-14.13a10.892,10.892,0,0,1,21.785,0c0,7.931-10.043,13.88-10.47,14.13A.838.838,0,0,1,22.892,30.136Zm0-23.461a9.227,9.227,0,0,0-9.217,9.217c0,6.117,7.356,11.226,9.217,12.42,1.86-1.194,9.217-6.3,9.217-12.42A9.227,9.227,0,0,0,22.892,6.676Zm0,14.244a5.027,5.027,0,1,1,5.027-5.027A5.033,5.033,0,0,1,22.892,20.92Zm0-8.379a3.352,3.352,0,1,0,3.352,3.352A3.355,3.355,0,0,0,22.892,12.541Z" transform="translate(-12 -5)"/>
</svg>
