<svg xmlns="http://www.w3.org/2000/svg" width="14.619" height="14.617" viewBox="0 0 14.619 14.617">
  <path id="Location_outlined" data-name="Location outlined" d="M19.31,19.617a.63.63,0,0,1-.283-.066c-.287-.145-7.026-3.6-7.026-8.216C12,7.841,15.279,5,19.31,5s7.31,2.841,7.31,6.334c0,4.612-6.739,8.071-7.026,8.216A.63.63,0,0,1,19.31,19.617Zm0-13.642c-3.411,0-6.185,2.4-6.185,5.359,0,3.557,4.937,6.528,6.185,7.222,1.248-.694,6.185-3.665,6.185-7.222C25.495,8.379,22.72,5.974,19.31,5.974Zm0,8.283a3.176,3.176,0,0,1-3.374-2.923A3.176,3.176,0,0,1,19.31,8.411a3.176,3.176,0,0,1,3.374,2.923A3.176,3.176,0,0,1,19.31,14.257Zm0-4.872a2.118,2.118,0,0,0-2.249,1.949,2.118,2.118,0,0,0,2.249,1.949,2.118,2.118,0,0,0,2.249-1.949A2.118,2.118,0,0,0,19.31,9.385Z" transform="translate(-12 -5)"/>
</svg>
