<svg xmlns="http://www.w3.org/2000/svg" width="33.335" height="33.335" viewBox="0 0 33.335 33.335">
  <g id="layer1" transform="translate(0.5 0.5)">
    <path id="path52" d="M16.679,291.179a1.621,1.621,0,0,0-1.6,1.643v13a1.619,1.619,0,1,0,3.237,0v-13a1.62,1.62,0,0,0-1.636-1.643Zm9.433,3.258q-.079,0-.158,0a1.626,1.626,0,0,0-.9,2.867,12.935,12.935,0,1,1-16.769.048,1.629,1.629,0,0,0,.18-2.29,1.612,1.612,0,0,0-2.28-.181A16.288,16.288,0,0,0,16.7,323.514a16.288,16.288,0,0,0,10.444-28.678A1.613,1.613,0,0,0,26.112,294.437Z" transform="translate(-0.529 -291.179)" fill="#bf2604" stroke="#bf2612" stroke-width="1"/>
  </g>
</svg>
