<svg xmlns="http://www.w3.org/2000/svg" width="30.061" height="30.084" viewBox="0 0 30.061 30.084">
  <g id="Masterclass_starts_in" data-name="Masterclass starts in" transform="translate(0)">
    <path id="speedometer" d="M16.392,16.2a2.347,2.347,0,1,1-3.521-2.031V7.687h2.347v6.477A2.348,2.348,0,0,1,16.392,16.2Zm13.866,6.513L18.211,30.084V15.333Zm-9.7,3.186,5.2-3.186-5.2-3.186ZM2.544,16.2a11.5,11.5,0,1,1,23,0q0,.432-.032.857l2.2,1.35a14.031,14.031,0,0,0,.175-2.206A13.757,13.757,0,0,0,23.837,6.4c-.1-.1-.2-.194-.3-.289l.972-1.166L26.1,6.277l1.5-1.8L22.617.313l-1.5,1.8,1.593,1.329L21.7,4.651A13.712,13.712,0,0,0,15.218,2.4V0H12.871V2.4a13.848,13.848,0,0,0-8.618,23.59,13.757,13.757,0,0,0,9.792,4.056,14.061,14.061,0,0,0,1.819-.119V27.551A11.5,11.5,0,0,1,2.544,16.2Z" transform="translate(-0.197 0)"/>
    <path id="speedometer-2" data-name="speedometer" d="M14.036,6.107,12.857,4.778,11.264,6.107,9.76,4.3,14.75.143l1.5,1.8L14.659,3.275l1.082,1.5Z" transform="translate(-9.323 0.049)"/>
  </g>
</svg>
