<svg xmlns="http://www.w3.org/2000/svg" width="32.574" height="32.574" viewBox="0 0 32.574 32.574">
  <path id="modal_TIme_icon" data-name="modal TIme icon" d="M17.853,28.714a1.809,1.809,0,1,0,1.809-1.809A1.815,1.815,0,0,0,17.853,28.714Zm0-25.339V10.61h3.618V7.141A12.661,12.661,0,1,1,6.993,19.662a12.534,12.534,0,0,1,2.858-8l9.811,9.811,2.553-2.553L9.906,6.617v.039a16.252,16.252,0,1,0,9.757-3.281ZM30.523,19.662a1.809,1.809,0,1,0-1.809,1.809A1.815,1.815,0,0,0,30.523,19.662Zm-21.721,0a1.809,1.809,0,1,0,1.809-1.809A1.815,1.815,0,0,0,8.8,19.662Z" transform="translate(-3.375 -3.375)" fill="#ffd54f"/>
</svg>
