<svg id="My_screenings_info" data-name="My screenings info" xmlns="http://www.w3.org/2000/svg" width="40.877" height="40.877" viewBox="0 0 40.877 40.877">
  <path id="Path_16833" data-name="Path 16833" d="M20.438,0A20.438,20.438,0,1,0,40.877,20.438,20.439,20.439,0,0,0,20.438,0Zm0,38.236c-10.159,0-17.19-7.638-17.19-17.8S10.279,2.974,20.438,2.974,38,10.279,38,20.438,30.592,38.224,20.438,38.236Z" fill="#3f8f22"/>
  <path id="Path_16834" data-name="Path 16834" d="M211.983,206.307H210.3V193.022c0-.564-.818-1.022-1.383-1.022h-2.044a1.022,1.022,0,0,0,0,2.044h.7v12.263h-1.723a1.069,1.069,0,0,0-1.076,1.022,1.3,1.3,0,0,0,1.076,1.261h6.132c.565,0,1.013-.7,1.013-1.261A1.014,1.014,0,0,0,211.983,206.307Zm0,0" transform="translate(-188.479 -176.671)" fill="#3f8f22"/>
  <path id="Path_16835" data-name="Path 16835" d="M235.536,104.967a2.569,2.569,0,1,1-2.569-2.569A2.569,2.569,0,0,1,235.536,104.967Zm0,0" transform="translate(-213.053 -94.223)" fill="#3f8f22"/>
</svg>
