<svg xmlns="http://www.w3.org/2000/svg" width="37.214" height="31.012" viewBox="0 0 37.214 31.012">
  <path id="name" d="M32.95,3.1H24.81V2.713A2.716,2.716,0,0,0,22.1,0H15.118A2.716,2.716,0,0,0,12.4,2.713V3.1H4.264A4.268,4.268,0,0,0,0,7.365V26.748a4.268,4.268,0,0,0,4.264,4.264H32.95a4.268,4.268,0,0,0,4.264-4.264V7.365A4.268,4.268,0,0,0,32.95,3.1ZM21.71,6.2h-6.2V3.1h6.2ZM11.63,10.854a3.877,3.877,0,1,1-3.876,3.877A3.882,3.882,0,0,1,11.63,10.854ZM18.607,25.2a1.163,1.163,0,0,1-1.163,1.163H5.815A1.163,1.163,0,0,1,4.652,25.2v-.775a4.268,4.268,0,0,1,4.264-4.264h5.427a4.268,4.268,0,0,1,4.264,4.264ZM31.4,26.36H22.872a1.163,1.163,0,0,1,0-2.326H31.4a1.163,1.163,0,1,1,0,2.326Zm0-6.2H22.872a1.163,1.163,0,0,1,0-2.326H31.4a1.163,1.163,0,1,1,0,2.326Zm0-6.2H22.872a1.163,1.163,0,0,1,0-2.326H31.4a1.163,1.163,0,1,1,0,2.326Zm0,0" fill="#469a09"/>
</svg>
