<svg xmlns="http://www.w3.org/2000/svg" width="41.347" height="37.818" viewBox="0 0 41.347 37.818">
  <g id="Payment_methods_icon" data-name="Payment methods icon" transform="translate(-0.59 -21.582)">
    <g id="Group_1237" data-name="Group 1237" transform="translate(0.59 21.582)">
      <path id="Path_28044" data-name="Path 28044" d="M12.253,295.758a2.1,2.1,0,0,0-2.168,2V309.07a2.1,2.1,0,0,0,2.168,2h2.318a2.1,2.1,0,0,0,2.168-2V297.762a2.1,2.1,0,0,0-2.168-2H12.253Z" transform="translate(-10.085 -273.506)" fill="#469a09" fill-rule="evenodd"/>
      <path id="Path_28046" data-name="Path 28046" d="M133.263,84.391a10.9,10.9,0,0,1-3.783,4.3,1.028,1.028,0,0,1-1.408,0,7.513,7.513,0,0,1-1.122-.822,14.705,14.705,0,0,0-.062,9.869,5.65,5.65,0,0,1,.569-.029H140.8a2.332,2.332,0,0,1,2.025,1.122,1.973,1.973,0,0,1,.272,1,2.219,2.219,0,0,1-2.3,2.121h-5.434a1.89,1.89,0,1,0,0,3.768c2.628,0,6.856.012,9.483.019a3.979,3.979,0,0,0,2.511-.56l5.734-5.3a2.668,2.668,0,0,1,.724-.477,14.647,14.647,0,0,0-19.084-19.892A12.093,12.093,0,0,1,133.263,84.391Z" transform="translate(-116.316 -74.279)" fill="#ffcd69" fill-rule="evenodd"/>
      <path id="Path_28047" data-name="Path 28047" d="M88.389,31.074l-5.5,2.967c-.717.386-.912.481-.92,1.346a12.594,12.594,0,0,0,1.6,5.979A13.3,13.3,0,0,0,86.426,45.1a8.49,8.49,0,0,0,1.208.882,1.1,1.1,0,0,0,1.51,0A11.7,11.7,0,0,0,93.2,41.367a12.957,12.957,0,0,0,1.582-5.231c.017-.25.024-.5.021-.748-.007-.865-.2-.96-.917-1.346Z" transform="translate(-75.928 -31.074)" fill="#469a09" fill-rule="evenodd"/>
    </g>
    <path id="Path_28048" data-name="Path 28048" d="M22.418,43.827a4.353,4.353,0,0,0,2.259-3.5,3.831,3.831,0,0,0-3.814-3.839H17.593a2.144,2.144,0,0,1,0-4.289h6.237a.848.848,0,1,0,0-1.7H20.06l.005-2.041c0-.468-1.694-.472-1.7,0L18.364,30.5h-.772a3.84,3.84,0,0,0,0,7.68h3.271a2.141,2.141,0,0,1,.795,4.12s-.655.326-.795.36C21.21,43.125,20.539,45.066,22.418,43.827Z" transform="translate(5.764 2.858)"/>
    <path id="Path_28050" data-name="Path 28050" d="M128.927,93.364a.846.846,0,0,0,.607-.256l2.992-3.07a.848.848,0,0,0-1.214-1.184L128.9,91.33l-.837-.783a.848.848,0,0,0-1.159,1.238l1.444,1.351A.845.845,0,0,0,128.927,93.364Z" transform="translate(-116.248 -62.182)"/>
    <path id="Path_28045" data-name="Path 28045" d="M107.06,309.79H93.717a5.771,5.771,0,0,0-4.488,2.15V320.6l6.568,2.946c1.558.572,3.866.6,9.4.632,4.469,0,5.053,0,5.9,0,2.07,0,2.882-.193,3.857-1.156l8.185-7.562a2.346,2.346,0,0,0,0-3.5,2.859,2.859,0,0,0-3.064-.477,2.666,2.666,0,0,0-.724.477l-5.734,5.3a3.979,3.979,0,0,1-2.511.56c-2.628-.007-6.856-.014-9.484-.019a1.89,1.89,0,1,1,0-3.768h5.434a2.218,2.218,0,0,0,2.3-2.121,1.974,1.974,0,0,0-.272-1A2.333,2.333,0,0,0,107.06,309.79Z" transform="translate(-81.986 -264.777)" fill="#d9d9d9" fill-rule="evenodd"/>
  </g>
</svg>
