<svg xmlns="http://www.w3.org/2000/svg" width="31.992" height="25.993" viewBox="0 0 31.992 25.993">
  <g id="Post_Share_count" data-name="Post Share count" transform="translate(0 0)">
    <path id="Path_26788" data-name="Path 26788" d="M33.215,9.906l-12.8-7.678A1.6,1.6,0,0,0,18,3.6V6.8c-.614,0-2.7-.029-3.3.052A13.567,13.567,0,0,0,3.832,27.2a1.6,1.6,0,0,0,2.982-.8c0-7.282,4.895-10,7.982-10H18v2.559a1.6,1.6,0,0,0,2.423,1.371l12.8-7.678a1.6,1.6,0,0,0,0-2.743Z" transform="translate(-2 -2)" fill="#ffca28"/>
    <path id="Path_26789" data-name="Path 26789" d="M4.958,24.571a1.586,1.586,0,0,0,.816-1.377c0-7.282,4.895-10,7.982-10h3.2v2.559a1.6,1.6,0,0,0,2.423,1.371l12.8-7.678a1.593,1.593,0,0,0,.763-1.269C13.755,5.2-.641,10,4.958,24.571Z" transform="translate(-0.959 1.199)" fill="#ffb300"/>
  </g>
</svg>
