<svg id="time-2" xmlns="http://www.w3.org/2000/svg" width="25.198" height="25.198" viewBox="0 0 25.198 25.198">
  <g id="Group_937" data-name="Group 937">
    <path id="Path_26797" data-name="Path 26797" d="M12.6,25.2A12.6,12.6,0,1,0,0,12.6,12.614,12.614,0,0,0,12.6,25.2Zm0-23.518A10.919,10.919,0,1,1,1.68,12.6,10.93,10.93,0,0,1,12.6,1.68Z"/>
    <path id="Path_26798" data-name="Path 26798" d="M172.182,83.432a.839.839,0,0,0,1.18-.13.84.84,0,0,0-.13-1.18l-3.885-3.108V72.7a.84.84,0,0,0-1.68,0v6.719a.843.843,0,0,0,.315.655Z" transform="translate(-155.908 -66.818)"/>
  </g>
</svg>
