<svg xmlns="http://www.w3.org/2000/svg" width="28.142" height="27.766" viewBox="0 0 28.142 27.766">
  <path id="Path_25431" data-name="Path 25431" d="M19.882,8.77V4.836c0-.452-.188-.951-1.03-1.221a1.59,1.59,0,0,0-1.708.264l-11,9.087a2.253,2.253,0,0,0-.9,1.8,2.157,2.157,0,0,0,.9,1.8l11,9.392a1.559,1.559,0,0,0,1.839.393,1.249,1.249,0,0,0,.9-1.409V20.811a11.922,11.922,0,0,1,9.3,6.094l2.09,3.775a1.127,1.127,0,0,0,.984.579l.282-.036a1.124,1.124,0,0,0,.843-1.089V22.924A14.19,14.19,0,0,0,19.882,8.77Z" transform="translate(-5.241 -3.493)" fill="#469a09"/>
</svg>
