<svg xmlns="http://www.w3.org/2000/svg" width="62.286" height="59.649" viewBox="0 0 62.286 59.649">
  <g id="EMail_icon_modal" data-name="EMail icon modal" transform="translate(-151 -440)">
    <g id="email-3" transform="translate(152.681 441.681)">
      <path id="Path_26351" data-name="Path 26351" d="M151.714,263.777c-1.75,0-2.635-1.318-2.635-3.952a6.666,6.666,0,1,0-1.6,4.261,4.7,4.7,0,0,0,4.24,2.327c5.27,0,5.27-4.959,5.27-6.587a14.492,14.492,0,1,0-4.416,10.416,1.322,1.322,0,0,0-1.844-1.895h0a11.857,11.857,0,1,1,3.626-8.521C154.349,262.778,153.685,263.777,151.714,263.777Zm-9.222,0a3.952,3.952,0,1,1,3.952-3.952A3.952,3.952,0,0,1,142.492,263.777Z" transform="translate(-112.19 -216.349)" fill="#455a64" opacity="0.928"/>
      <path id="Path_28164" data-name="Path 28164" d="M-3831.76,12042.827h-6.661a6.537,6.537,0,0,1-4.654-1.926l21.5-21.5,3.636,2.637a5.421,5.421,0,0,0,3.241,1.067,5.413,5.413,0,0,0,3.24-1.067l3.636-2.637,16.724,16.724-16.724-16.724-3.636,2.637a5.423,5.423,0,0,1-3.24,1.065,5.428,5.428,0,0,1-3.241-1.065l-3.636-2.637-21.5,21.5a6.543,6.543,0,0,1-1.925-4.663v-28.986a6.475,6.475,0,0,1,1.239-3.847,6.563,6.563,0,0,1,5.327-2.738h47.45a6.607,6.607,0,0,1,5.322,2.713,6.51,6.51,0,0,1,1.266,3.872v28.986a6.556,6.556,0,0,1-1.924,4.663h0a6.545,6.545,0,0,1-4.654,1.926h-8.224a24.127,24.127,0,0,0-.6-4.148,27.226,27.226,0,0,0-1.028-2.908,18.933,18.933,0,0,0-2.087-3.532,16.615,16.615,0,0,0-5.421-4.632,17.5,17.5,0,0,0-8.209-2.044c-3.328-.152-8.322,1.609-11.695,4.848s-4.956,8.087-5.284,12.417Z" transform="translate(3845.001 -12000.667)" fill="#be7316"/>
    </g>
    <g id="email-3-2" data-name="email-3" transform="translate(151 440)">
      <path id="Path_26348" data-name="Path 26348" d="M68.127,13.382,45.967,29.4l-3.636,2.635a5.454,5.454,0,0,1-6.482,0L32.213,29.4,10.027,13.408a6.55,6.55,0,0,1,5.349-2.74H62.8A6.587,6.587,0,0,1,68.127,13.382Z" transform="translate(-8.788 -10.668)" fill="#ffd54f"/>
      <g id="Group_856" data-name="Group 856" transform="translate(0 2.714)">
        <path id="Path_26349" data-name="Path 26349" d="M1.238,32.855,23.424,48.849l-21.5,21.5A6.587,6.587,0,0,1,0,65.686V36.7A6.508,6.508,0,0,1,1.238,32.855Z" transform="translate(0 -32.829)" fill="#ffc107"/>
        <path id="Path_26350" data-name="Path 26350" d="M324.438,36.515V65.5a6.587,6.587,0,0,1-1.923,4.664l-21.5-21.5,22.159-16.02A6.549,6.549,0,0,1,324.438,36.515Z" transform="translate(-263.835 -32.642)" fill="#ffc107"/>
      </g>
      <path id="Path_26351-2" data-name="Path 26351" d="M151.714,263.777c-1.75,0-2.635-1.318-2.635-3.952a6.666,6.666,0,1,0-1.6,4.261,4.7,4.7,0,0,0,4.24,2.327c5.27,0,5.27-4.959,5.27-6.587a14.492,14.492,0,1,0-4.416,10.416,1.322,1.322,0,0,0-1.844-1.895h0a11.857,11.857,0,1,1,3.626-8.521C154.349,262.778,153.685,263.777,151.714,263.777Zm-9.222,0a3.952,3.952,0,1,1,3.952-3.952A3.952,3.952,0,0,1,142.492,263.777Z" transform="translate(-112.191 -216.348)" fill="#455a64"/>
      <path id="Path_26352" data-name="Path 26352" d="M50.829,162.348l-3.636,2.635a5.454,5.454,0,0,1-6.482,0l-3.636-2.635-21.5,21.5a6.587,6.587,0,0,0,4.664,1.923h6.653a17.108,17.108,0,0,1,34.119,0h6.656a6.587,6.587,0,0,0,4.664-1.923Z" transform="translate(-13.65 -143.614)" fill="#ffa000"/>
    </g>
  </g>
</svg>
