<svg id="sand-clock" xmlns="http://www.w3.org/2000/svg" width="25.681" height="30.998" viewBox="0 0 25.681 30.998">
  <path id="Path_16865" data-name="Path 16865" d="M91.007,29.987c-.078.548.472,1.011,1.16,1.011h23.315a1.13,1.13,0,0,0,1.191-.8c.078-.548-.472-1.011-1.16-1.011h-2.245a4.526,4.526,0,0,0,1.088-2.857c-.04-4.8-9.348-8.621-9.348-10.765,0-2.186,9.306-6.142,9.311-10.949a4.506,4.506,0,0,0-1.059-2.794h2.222a1.13,1.13,0,0,0,1.191-.8C116.751.464,116.2,0,115.513,0H92.2a1.13,1.13,0,0,0-1.191.8c-.078.548.472,1.011,1.16,1.011H94.42A4.506,4.506,0,0,0,93.361,4.61c0,4.812,9.311,8.759,9.311,10.949,0,2.137-9.308,5.972-9.348,10.765a4.525,4.525,0,0,0,1.088,2.857H92.2A1.13,1.13,0,0,0,91.007,29.987ZM95.7,4.609a3.792,3.792,0,0,1,1.64-2.792h13.008a3.793,3.793,0,0,1,1.64,2.792c0,3.08-5.768,6.093-8.144,8.64C101.47,10.708,95.7,7.687,95.7,4.609Zm-.037,21.728c.026-3.061,5.807-6,8.181-8.5,2.373,2.5,8.155,5.439,8.181,8.5a3.838,3.838,0,0,1-1.676,2.845H97.335A3.838,3.838,0,0,1,95.659,26.336Z" transform="translate(-91 0)"/>
  <path id="Path_16866" data-name="Path 16866" d="M191.809,60h-9.27a1.063,1.063,0,0,0-1.173.962c.008,1.563,3.527,3.945,4.987,5.125a1.415,1.415,0,0,0,1.642,0c1.455-1.176,4.98-3.563,4.987-5.129A1.064,1.064,0,0,0,191.809,60Zm-4.635,4.166a29.356,29.356,0,0,1-2.8-2.35h5.6A29.343,29.343,0,0,1,187.174,64.166Z" transform="translate(-174.334 -56.367)"/>
</svg>
