<svg xmlns="http://www.w3.org/2000/svg" xmlns:xlink="http://www.w3.org/1999/xlink" width="58.079" height="58.079" viewBox="0 0 58.079 58.079">
  <defs>
    <filter id="_Send_btn" x="0" y="0" width="58.079" height="58.079" filterUnits="userSpaceOnUse">
      <feOffset dx="1" dy="1" input="SourceAlpha"/>
      <feGaussianBlur stdDeviation="0.5" result="blur"/>
      <feFlood flood-opacity="0.161"/>
      <feComposite operator="in" in2="blur"/>
      <feComposite in="SourceGraphic"/>
    </filter>
  </defs>
  <g transform="matrix(1, 0, 0, 1, 0, 0)" filter="url(#_Send_btn)">
    <path id="_Send_btn-2" data-name="ô€½ Send btn" d="M30.758,23.563A26.433,26.433,0,0,0,41.411,21.4a28.2,28.2,0,0,0,8.783-5.964,28.048,28.048,0,0,0,5.95-8.769A26.481,26.481,0,0,0,58.3-3.977a26.481,26.481,0,0,0-2.153-10.639A28.1,28.1,0,0,0,50.18-23.4a28.054,28.054,0,0,0-8.8-5.964,26.582,26.582,0,0,0-10.653-2.153,26.443,26.443,0,0,0-10.6,2.153,28.054,28.054,0,0,0-8.8,5.964,28.1,28.1,0,0,0-5.964,8.783A26.482,26.482,0,0,0,3.218-3.977,26.333,26.333,0,0,0,5.386,6.662a28.25,28.25,0,0,0,5.964,8.769A28.2,28.2,0,0,0,20.133,21.4,26.363,26.363,0,0,0,30.758,23.563Zm14.308-27.6a2.664,2.664,0,0,1-.85,1.87L34.809,7.158a2.246,2.246,0,0,1-1.615.623,2.08,2.08,0,0,1-1.53-.623,2.149,2.149,0,0,1-.623-1.587,2.115,2.115,0,0,1,.68-1.587L35.149.726l3.23-2.663-5.78.255H18.688a2.191,2.191,0,0,1-1.657-.666,2.339,2.339,0,0,1-.637-1.686,2.228,2.228,0,0,1,.652-1.643,2.228,2.228,0,0,1,1.643-.652H32.6l5.752.255-3.23-2.635-3.4-3.315a2.269,2.269,0,0,1-.68-1.615,2.067,2.067,0,0,1,.623-1.544,2.105,2.105,0,0,1,1.53-.609,2.185,2.185,0,0,1,1.615.623l9.406,9.35A2.519,2.519,0,0,1,45.066-4.033Z" transform="translate(-2.72 32.02)" fill="#469a09"/>
  </g>
</svg>
