<svg id="Send_chat_to_chef" data-name="Send chat to chef" xmlns="http://www.w3.org/2000/svg" width="42.751" height="37.837" viewBox="0 0 42.751 37.837">
  <g id="chat-9">
    <path id="Path_26892" data-name="Path 26892" d="M17.869,0A17.889,17.889,0,0,0,0,17.869V34.62a1.117,1.117,0,0,0,1.117,1.117H17.869A17.869,17.869,0,1,0,17.869,0Z" fill="#469a09"/>
    <g id="Group_983" data-name="Group 983" transform="translate(8.934 13.401)">
      <path id="Path_26893" data-name="Path 26893" d="M138.051,290.234h-8.934a1.117,1.117,0,1,1,0-2.234h8.934a1.117,1.117,0,1,1,0,2.234Z" transform="translate(-128 -281.299)" fill="#fafafa"/>
      <path id="Path_26894" data-name="Path 26894" d="M144.752,194.234H129.117a1.117,1.117,0,0,1,0-2.234h15.635a1.117,1.117,0,0,1,0,2.234Z" transform="translate(-128 -192)" fill="#fafafa"/>
    </g>
    <path id="Path_26891" data-name="Path 26891" d="M304.871,169.419l-11.746-7.752a1.987,1.987,0,0,0-3.081,1.658v3.625h-9.493a1.913,1.913,0,0,0-1.913,1.912v4.43a1.913,1.913,0,0,0,1.913,1.913h9.493v3.625a1.987,1.987,0,0,0,3.081,1.658l11.746-7.752a1.987,1.987,0,0,0,0-3.316Z" transform="translate(-263.012 -142.983)" fill="#464040"/>
    <path id="Path_26895" data-name="Path 26895" d="M304.871,169.419l-11.746-7.752a1.987,1.987,0,0,0-3.081,1.658v3.625h-9.493a1.913,1.913,0,0,0-1.913,1.912v4.43a1.913,1.913,0,0,0,1.913,1.913h9.493v3.625a1.987,1.987,0,0,0,3.081,1.658l11.746-7.752a1.987,1.987,0,0,0,0-3.316Z" transform="translate(-263.012 -144.696)" fill="#ffd54f"/>
  </g>
</svg>
