<svg xmlns="http://www.w3.org/2000/svg" width="32.781" height="23.049" viewBox="0 0 32.781 23.049">
  <path id="Serving_icon" data-name="Serving icon" d="M30.764,17.287A14.413,14.413,0,0,0,19.01,4.079a2.881,2.881,0,1,0-5.239,0A14.414,14.414,0,0,0,2.017,17.287H0v.96a4.729,4.729,0,0,0,1.446,3.4,4.867,4.867,0,0,0,3.42,1.4H27.915a4.867,4.867,0,0,0,3.42-1.4,4.729,4.729,0,0,0,1.446-3.4v-.96ZM15.43,2.881a.96.96,0,1,1,.96.96A.962.962,0,0,1,15.43,2.881Zm.96,2.881A12.5,12.5,0,0,1,28.839,17.287H3.942A12.5,12.5,0,0,1,16.391,5.762ZM27.915,21.128H4.866A2.989,2.989,0,0,1,2.1,19.208H30.685A2.989,2.989,0,0,1,27.915,21.128Zm0,0"/>
</svg>
