<svg xmlns="http://www.w3.org/2000/svg" width="58.381" height="51.787" viewBox="0 0 58.381 51.787">
  <g id="Set_notification_btn" data-name="Set notification btn" transform="translate(0 0)">
    <path id="Bell_icon" data-name="Bell icon" d="M-3537.692-1175.656a6.069,6.069,0,0,1-4.067-1.513,5.377,5.377,0,0,1-1.8-3.52h11.744a5.377,5.377,0,0,1-1.805,3.52A6.068,6.068,0,0,1-3537.692-1175.656Zm6.512-7.63h-21.532c-1.823,0-2.956-.926-2.956-2.418,0-1.766,1.606-3.358,3.158-4.9q.2-.2.4-.395c1.226-1.244,1.578-3.75,1.776-6.272a22.106,22.106,0,0,1,1.776-8.957,9.232,9.232,0,0,1,5.355-4.943,5.742,5.742,0,0,1,5.513-4.415,5.378,5.378,0,0,1,3.52,1.278,6.5,6.5,0,0,1,1.991,3.136,9.233,9.233,0,0,1,5.356,4.943,22.08,22.08,0,0,1,1.775,8.957c.064.819.153,1.782.316,2.713a16.247,16.247,0,0,0-6.447,11.267Z" transform="translate(3555.668 1215.582)" fill="#469a09"/>
    <path id="Add_btn" data-name="Add btn" d="M17.8,16.14A16.243,16.243,0,0,0,33.924,0,16.254,16.254,0,0,0,17.779-16.133,16.24,16.24,0,0,0,1.65,0,16.257,16.257,0,0,0,17.8,16.14Zm-.033-8.305a1.42,1.42,0,0,1-1.431-1.6V1.443H11.287c-.965,0-1.631-.516-1.631-1.415a1.431,1.431,0,0,1,1.631-1.465h5.043V-6.512a1.412,1.412,0,0,1,1.431-1.6,1.437,1.437,0,0,1,1.465,1.6v5.076h5.06a1.412,1.412,0,0,1,1.6,1.465,1.409,1.409,0,0,1-1.6,1.415h-5.06V6.237A1.437,1.437,0,0,1,17.762,7.835Z" transform="translate(24.458 35.647)" fill="#ffd54f"/>
  </g>
</svg>
