<svg xmlns="http://www.w3.org/2000/svg" viewBox="0 0 21.88185 11.65488"><defs><style>.a{fill:#464040;}</style></defs><path class="a" d="M10.94,11.654a14.54305,14.54305,0,0,0,10.294-4.26,2.248,2.248,0,0,0,0-3.157A14.574,14.574,0,0,0,.647,4.275a2.248,2.248,0,0,0,0,3.157A14.543,14.543,0,0,0,10.94,11.654Zm0-9.685a3.85,3.85,0,1,1-3.85,3.85h0a3.85,3.85,0,0,1,3.847-3.853h.003Zm9.4,3.85a.678.678,0,0,1-.2.485,12.88789,12.88789,0,0,1-5.274,3.2,5.389,5.389,0,0,0,0-7.36,12.888,12.888,0,0,1,5.312,3.2.677.677,0,0,1,.162.485ZM1.74,5.334a12.88789,12.88789,0,0,1,5.274-3.2,5.389,5.389,0,0,0,0,7.36,12.888,12.888,0,0,1-5.274-3.2.685.685,0,0,1-.00126-.96874L1.74,5.324Z" transform="translate(0.00043 0.00081)"/></svg>