<svg xmlns="http://www.w3.org/2000/svg" width="21.253" height="38.749" viewBox="0 0 21.253 38.749">
  <g id="smartphone" transform="translate(0)">
    <g id="Group_311" data-name="Group 311">
      <path id="Path_1485" data-name="Path 1485" d="M130.9,0H117.808a4.114,4.114,0,0,0-4.116,4.04V34.714a4.075,4.075,0,0,0,4.076,4.035l13.112-.014a4.049,4.049,0,0,0,4.046-4.036l.019-30.662A4.04,4.04,0,0,0,130.9,0Zm-8.436,2.422h3.8a.605.605,0,0,1,0,1.211h-3.8a.605.605,0,0,1,0-1.211Zm-2.282.193a.627.627,0,0,1,.857,0,.607.607,0,0,1-.427,1.035.62.62,0,0,1-.43-.179.611.611,0,0,1,0-.857Zm4.059,34.935a1.812,1.812,0,1,1,1.812-1.812A1.814,1.814,0,0,1,124.239,37.549Zm8.827-4.855H115.811V5.752h17.255V32.694Z" transform="translate(-113.692)" fill="#469a09"/>
    </g>
  </g>
</svg>
