<svg xmlns="http://www.w3.org/2000/svg" xmlns:xlink="http://www.w3.org/1999/xlink" width="83.523" height="33.819" viewBox="0 0 83.523 33.819">
  <defs>
    <filter id="Path_28419" x="48.468" y="0" width="9.697" height="10.627" filterUnits="userSpaceOnUse">
      <feOffset dx="0.5" dy="2" input="SourceAlpha"/>
      <feGaussianBlur stdDeviation="1.5" result="blur"/>
      <feFlood flood-opacity="0.161"/>
      <feComposite operator="in" in2="blur"/>
      <feComposite in="SourceGraphic"/>
    </filter>
    <filter id="Path_28420" x="48.468" y="2.642" width="9.697" height="28.534" filterUnits="userSpaceOnUse">
      <feOffset dx="0.5" dy="2" input="SourceAlpha"/>
      <feGaussianBlur stdDeviation="1.5" result="blur-2"/>
      <feFlood flood-opacity="0.161"/>
      <feComposite operator="in" in2="blur-2"/>
      <feComposite in="SourceGraphic"/>
    </filter>
    <filter id="Path_28421" x="48.468" y="23.191" width="9.697" height="10.627" filterUnits="userSpaceOnUse">
      <feOffset dx="0.5" dy="2" input="SourceAlpha"/>
      <feGaussianBlur stdDeviation="1.5" result="blur-3"/>
      <feFlood flood-opacity="0.161"/>
      <feComposite operator="in" in2="blur-3"/>
      <feComposite in="SourceGraphic"/>
    </filter>
    <filter id="Path_28424" x="54.385" y="13.891" width="6.697" height="17.391" filterUnits="userSpaceOnUse">
      <feOffset dx="0.5" dy="3" input="SourceAlpha"/>
      <feGaussianBlur stdDeviation="1" result="blur-4"/>
      <feFlood flood-opacity="0.161"/>
      <feComposite operator="in" in2="blur-4"/>
      <feComposite in="SourceGraphic"/>
    </filter>
    <filter id="Path_28425" x="56.787" y="13.891" width="6.697" height="17.391" filterUnits="userSpaceOnUse">
      <feOffset dx="0.5" dy="3" input="SourceAlpha"/>
      <feGaussianBlur stdDeviation="1" result="blur-5"/>
      <feFlood flood-opacity="0.161"/>
      <feComposite operator="in" in2="blur-5"/>
      <feComposite in="SourceGraphic"/>
    </filter>
    <filter id="Path_28427" x="53.3" y="4.367" width="10.262" height="10.262" filterUnits="userSpaceOnUse">
      <feOffset dx="0.5" dy="2" input="SourceAlpha"/>
      <feGaussianBlur stdDeviation="1" result="blur-6"/>
      <feFlood flood-opacity="0.161"/>
      <feComposite operator="in" in2="blur-6"/>
      <feComposite in="SourceGraphic"/>
    </filter>
    <filter id="Ticket_Number" x="17.553" y="12.552" width="33.134" height="9.697" filterUnits="userSpaceOnUse">
      <feOffset dx="0.5" dy="2" input="SourceAlpha"/>
      <feGaussianBlur stdDeviation="1.5" result="blur-7"/>
      <feFlood flood-opacity="0.161"/>
      <feComposite operator="in" in2="blur-7"/>
      <feComposite in="SourceGraphic"/>
    </filter>
    <filter id="TICKET_NUMBER_TEXT" x="15.694" y="7.903" width="36.876" height="9.697" filterUnits="userSpaceOnUse">
      <feOffset dx="0.5" dy="2" input="SourceAlpha"/>
      <feGaussianBlur stdDeviation="1.5" result="blur-8"/>
      <feFlood flood-opacity="0.161"/>
      <feComposite operator="in" in2="blur-8"/>
      <feComposite in="SourceGraphic"/>
    </filter>
    <filter id="Movie_Name" x="15.694" y="3.95" width="36.876" height="9.697" filterUnits="userSpaceOnUse">
      <feOffset dx="0.5" dy="2" input="SourceAlpha"/>
      <feGaussianBlur stdDeviation="1.5" result="blur-9"/>
      <feFlood flood-opacity="0.161"/>
      <feComposite operator="in" in2="blur-9"/>
      <feComposite in="SourceGraphic"/>
    </filter>
    <filter id="Path_28429" x="17.021" y="19.621" width="20.506" height="9.232" filterUnits="userSpaceOnUse">
      <feOffset dx="0.5" dy="1" input="SourceAlpha"/>
      <feGaussianBlur stdDeviation="1" result="blur-10"/>
      <feFlood flood-opacity="0.161"/>
      <feComposite operator="in" in2="blur-10"/>
      <feComposite in="SourceGraphic"/>
    </filter>
  </defs>
  <g id="Sold_Out" data-name="Sold Out" transform="translate(-128.421 2.5)">
    <g id="TIcket_count" data-name="TIcket count" transform="translate(142.589)">
      <g id="ticket_icon" data-name="ticket icon" transform="translate(0 0)" opacity="0.464">
        <g id="Group_1448" data-name="Group 1448" transform="translate(0.349 0.349)">
          <path id="Path_28417" data-name="Path 28417" d="M68.189,85.129h.019V78.071a2.14,2.14,0,0,0-2.141-2.141H18.39a2.14,2.14,0,0,0-2.141,2.141v7.06a.481.481,0,0,1,.058,0,2.906,2.906,0,0,1,0,5.812.487.487,0,0,1-.058,0V98a2.14,2.14,0,0,0,2.141,2.141H66.066A2.14,2.14,0,0,0,68.207,98V90.941h-.019a2.906,2.906,0,0,1,0-5.812Z" transform="translate(-16.249 -75.93)" fill="#469a21"/>
        </g>
        <g id="Group_1450" data-name="Group 1450" transform="translate(0 0.001)">
          <g id="Group_1449" data-name="Group 1449" transform="translate(0 0)">
            <path id="Path_28418" data-name="Path 28418" d="M67.056,84.327a.349.349,0,0,0,.349-.349V76.921a2.493,2.493,0,0,0-2.49-2.49H24.777a.349.349,0,0,0,0,.7H64.915a1.794,1.794,0,0,1,1.792,1.792v6.726a3.254,3.254,0,0,0,0,6.475v6.727a1.8,1.8,0,0,1-1.792,1.792H17.239a1.794,1.794,0,0,1-1.792-1.792V90.126a3.255,3.255,0,0,0,0-6.483V76.921a1.794,1.794,0,0,1,1.792-1.792h7.538c.193,0-.243-.156-.243-.349s.436-.349.243-.349H17.239a2.493,2.493,0,0,0-2.49,2.49v7.06a.354.354,0,0,0,.125.263.365.365,0,0,0,.282.083,2.557,2.557,0,1,1-.016,5.115.349.349,0,0,0-.391.346v7.06a2.493,2.493,0,0,0,2.49,2.49H64.915a2.493,2.493,0,0,0,2.49-2.49V89.79a.365.365,0,0,0-.367-.349,2.557,2.557,0,1,1,.018-5.114Z" transform="translate(-14.749 -74.431)" fill="#5b5353"/>
          </g>
        </g>
        <g id="Group_1451" data-name="Group 1451" transform="translate(38.3)">
          <g id="RIppable_dashes" data-name="RIppable dashes" transform="translate(0)">
            <g transform="matrix(1, 0, 0, 1, -52.47, -2.5)" filter="url(#Path_28419)">
              <path id="Path_28419-2" data-name="Path 28419" d="M179.848,74.428a.349.349,0,0,0-.349.349v.93a.349.349,0,0,0,.7,0v-.93A.349.349,0,0,0,179.848,74.428Z" transform="translate(-127.03 -71.93)" fill="#3a312a"/>
            </g>
            <g transform="matrix(1, 0, 0, 1, -52.47, -2.5)" filter="url(#Path_28420)">
              <path id="Path_28420-2" data-name="Path 28420" d="M179.848,99.494a.349.349,0,0,0-.349.349v1.712a.349.349,0,1,0,.7,0V99.842A.349.349,0,0,0,179.848,99.494Zm0-3.425a.349.349,0,0,0-.349.349V98.13a.349.349,0,1,0,.7,0V96.417A.349.349,0,0,0,179.848,96.068Zm0,6.85a.349.349,0,0,0-.349.349v1.712a.349.349,0,0,0,.7,0v-1.712A.349.349,0,0,0,179.848,102.918Zm0-10.274a.349.349,0,0,0-.349.349V94.7a.349.349,0,1,0,.7,0V92.992A.349.349,0,0,0,179.848,92.644Zm0-3.425a.349.349,0,0,0-.349.349V91.28a.349.349,0,1,0,.7,0V89.568A.349.349,0,0,0,179.848,89.219Zm0-3.425a.349.349,0,0,0-.349.349v1.712a.349.349,0,1,0,.7,0V86.143A.349.349,0,0,0,179.848,85.794Z" transform="translate(-127.03 -80.65)" fill="#3a312a"/>
            </g>
            <g transform="matrix(1, 0, 0, 1, -52.47, -2.5)" filter="url(#Path_28421)">
              <path id="Path_28421-2" data-name="Path 28421" d="M179.848,174.187a.349.349,0,0,0-.349.349v.93a.349.349,0,0,0,.7,0v-.93A.349.349,0,0,0,179.848,174.187Z" transform="translate(-127.03 -148.5)" fill="#3a312a"/>
            </g>
          </g>
        </g>
        <g id="Group_1453" data-name="Group 1453" transform="translate(24.197 21.543)">
          <g id="Group_1452" data-name="Group 1452" transform="translate(0 0)">
            <path id="Path_28422" data-name="Path 28422" d="M129.875,167.094H119.181a.349.349,0,0,0,0,.7h10.694a.349.349,0,1,0,0-.7Z" transform="translate(-118.832 -167.094)" fill="#3a312a"/>
          </g>
        </g>
        <g id="Group_1455" data-name="Group 1455" transform="translate(24.197 19.14)">
          <g id="Group_1454" data-name="Group 1454">
            <path id="Path_28423" data-name="Path 28423" d="M129.875,156.761H119.181a.349.349,0,0,0,0,.7h10.694a.349.349,0,1,0,0-.7Z" transform="translate(-118.832 -156.761)" fill="#3a312a"/>
          </g>
        </g>
        <g id="Vertical_Lines" data-name="Vertical Lines" transform="translate(42.717 11.391)">
          <g transform="matrix(1, 0, 0, 1, -56.88, -13.89)" filter="url(#Path_28424)">
            <path id="Path_28424-2" data-name="Path 28424" d="M198.848,123.428a.349.349,0,0,0-.349.349v10.694a.349.349,0,1,0,.7,0V123.777A.349.349,0,0,0,198.848,123.428Z" transform="translate(-141.61 -109.54)" fill="#3a312a"/>
          </g>
          <g transform="matrix(1, 0, 0, 1, -56.88, -13.89)" filter="url(#Path_28425)">
            <path id="Path_28425-2" data-name="Path 28425" d="M209.181,123.428a.349.349,0,0,0-.349.349v10.694a.349.349,0,1,0,.7,0V123.777A.349.349,0,0,0,209.181,123.428Z" transform="translate(-149.55 -109.54)" fill="#3a312a"/>
          </g>
        </g>
        <g id="Group_1459" data-name="Group 1459" transform="translate(41.981 3.216)">
          <g id="Group_1458" data-name="Group 1458" transform="translate(0 0)">
            <rect id="Rectangle_1993" data-name="Rectangle 1993" width="3.565" height="3.565" fill="#5b5353"/>
          </g>
        </g>
        <g transform="matrix(1, 0, 0, 1, -14.17, -2.5)" filter="url(#Path_28427)">
          <path id="Path_28427-2" data-name="Path 28427" d="M125.745,84.761h-3.565a.349.349,0,0,0-.349.349v3.565a.349.349,0,0,0,.349.349h3.565a.349.349,0,0,0,.349-.349V85.11A.349.349,0,0,0,125.745,84.761Zm-.349,3.565h-2.867V85.458H125.4Z" transform="translate(-66.03 -79.39)" fill="#5b5353"/>
        </g>
        <g id="TIcket_info" data-name="TIcket info" transform="translate(5.526 3.95)">
          <g transform="matrix(1, 0, 0, 1, -19.69, -6.45)" filter="url(#Ticket_Number)">
            <path id="Ticket_Number-2" data-name="Ticket Number" d="M62.059,128.421H39.114c-.328,0-.594.156-.594.349s.266.349.594.349H62.059c.328,0,.594-.156.594-.349S62.387,128.421,62.059,128.421Z" transform="translate(-16.97 -113.37)" fill="#3a312a"/>
          </g>
          <g transform="matrix(1, 0, 0, 1, -19.69, -6.45)" filter="url(#TICKET_NUMBER_TEXT)">
            <path id="TICKET_NUMBER_TEXT-2" data-name="TICKET NUMBER TEXT" d="M65.71,100.421h-26.5c-.379,0-.686.156-.686.349s.307.349.686.349h26.5c.379,0,.687-.156.687-.349S66.089,100.421,65.71,100.421Z" transform="translate(-18.83 -90.02)" fill="#3a312a"/>
          </g>
          <g transform="matrix(1, 0, 0, 1, -19.69, -6.45)" filter="url(#Movie_Name)">
            <path id="Movie_Name-2" data-name="Movie Name" d="M65.71,100.421h-26.5c-.379,0-.686.156-.686.349s.307.349.686.349h26.5c.379,0,.687-.156.687-.349S66.089,100.421,65.71,100.421Z" transform="translate(-18.83 -93.97)" fill="#3a312a"/>
          </g>
        </g>
        <g id="Group_1461" data-name="Group 1461" transform="translate(5.702 19.469)">
          <g id="Group_1460" data-name="Group 1460" transform="translate(0 0)">
            <path id="Path_28428" data-name="Path 28428" d="M51.817,143.176H40.544a1.267,1.267,0,1,0,0,2.535H51.817a1.267,1.267,0,1,0,0-2.535Z" transform="translate(-39.277 -143.176)" fill="#5b5353"/>
          </g>
        </g>
        <g id="Group_1463" data-name="Group 1463" transform="translate(5.353 19.121)">
          <g id="Group_1462" data-name="Group 1462">
            <g transform="matrix(1, 0, 0, 1, -19.52, -21.62)" filter="url(#Path_28429)">
              <path id="Path_28429-2" data-name="Path 28429" d="M50.665,141.676H39.392a1.616,1.616,0,1,0,0,3.232H50.665a1.616,1.616,0,1,0,0-3.232Zm0,2.535H39.392a.919.919,0,1,1,0-1.837H50.665a.919.919,0,1,1,0,1.837Z" transform="translate(-18.26 -120.06)" fill="#5b5353"/>
            </g>
          </g>
        </g>
      </g>
    </g>
    <g id="Sold_Out_text_icon" data-name="Sold Out text icon" transform="translate(128.421 7.849)">
      <path id="SOLD_OUT_text" data-name="SOLD OUT text" d="M4.942,5.507c3.291,0,4.888-1.646,4.888-3.571,0-4.229-6.7-2.765-6.7-4.888,0-.724.609-1.317,2.189-1.317a6.506,6.506,0,0,1,3.193.905l.823-2.024a7.728,7.728,0,0,0-4-1.02C2.062-6.408.482-4.779.482-2.82c0,4.279,6.7,2.8,6.7,4.954,0,.708-.642,1.234-2.222,1.234a6.776,6.776,0,0,1-3.8-1.2L.252,4.174A8.211,8.211,0,0,0,4.942,5.507Zm11.306,0a5.961,5.961,0,0,0,6.3-5.957,5.961,5.961,0,0,0-6.3-5.957,5.961,5.961,0,0,0-6.3,5.957A5.961,5.961,0,0,0,16.248,5.507Zm0-2.271a3.514,3.514,0,0,1-3.6-3.686,3.514,3.514,0,0,1,3.6-3.686,3.514,3.514,0,0,1,3.6,3.686A3.514,3.514,0,0,1,16.248,3.236Zm7.323,2.074h8.442V3.137H26.238V-6.211H23.572Zm8.953,0h5.233c3.769,0,6.352-2.271,6.352-5.76s-2.584-5.76-6.352-5.76H32.524ZM35.19,3.121V-4.022h2.436A3.438,3.438,0,0,1,41.411-.451a3.438,3.438,0,0,1-3.785,3.571ZM54.379,5.507a5.961,5.961,0,0,0,6.3-5.957,5.961,5.961,0,0,0-6.3-5.957,5.961,5.961,0,0,0-6.3,5.957A5.961,5.961,0,0,0,54.379,5.507Zm0-2.271a3.514,3.514,0,0,1-3.6-3.686,3.514,3.514,0,0,1,3.6-3.686,3.514,3.514,0,0,1,3.6,3.686A3.514,3.514,0,0,1,54.379,3.236ZM66.821,5.507c3.275,0,5.217-1.876,5.217-5.266V-6.211H69.4V.142c0,2.189-.938,3.094-2.567,3.094-1.613,0-2.567-.905-2.567-3.094V-6.211H61.6V.241C61.6,3.631,63.546,5.507,66.821,5.507Zm9.051-.2h2.666V-4.038h3.686V-6.211H72.186v2.172h3.686Z" transform="translate(1.299 6.879)" fill="#761d09"/>
      <path id="SOLD_OUT_text-2" data-name="SOLD OUT text" d="M4.942,5.507c3.291,0,4.888-1.646,4.888-3.571,0-4.229-6.7-2.765-6.7-4.888,0-.724.609-1.317,2.189-1.317a6.506,6.506,0,0,1,3.193.905l.823-2.024a7.728,7.728,0,0,0-4-1.02C2.062-6.408.482-4.779.482-2.82c0,4.279,6.7,2.8,6.7,4.954,0,.708-.642,1.234-2.222,1.234a6.776,6.776,0,0,1-3.8-1.2L.252,4.174A8.211,8.211,0,0,0,4.942,5.507Zm11.306,0a5.961,5.961,0,0,0,6.3-5.957,5.961,5.961,0,0,0-6.3-5.957,5.961,5.961,0,0,0-6.3,5.957A5.961,5.961,0,0,0,16.248,5.507Zm0-2.271a3.514,3.514,0,0,1-3.6-3.686,3.514,3.514,0,0,1,3.6-3.686,3.514,3.514,0,0,1,3.6,3.686A3.514,3.514,0,0,1,16.248,3.236Zm7.323,2.074h8.442V3.137H26.238V-6.211H23.572Zm8.953,0h5.233c3.769,0,6.352-2.271,6.352-5.76s-2.584-5.76-6.352-5.76H32.524ZM35.19,3.121V-4.022h2.436A3.438,3.438,0,0,1,41.411-.451a3.438,3.438,0,0,1-3.785,3.571ZM54.379,5.507a5.961,5.961,0,0,0,6.3-5.957,5.961,5.961,0,0,0-6.3-5.957,5.961,5.961,0,0,0-6.3,5.957A5.961,5.961,0,0,0,54.379,5.507Zm0-2.271a3.514,3.514,0,0,1-3.6-3.686,3.514,3.514,0,0,1,3.6-3.686,3.514,3.514,0,0,1,3.6,3.686A3.514,3.514,0,0,1,54.379,3.236ZM66.821,5.507c3.275,0,5.217-1.876,5.217-5.266V-6.211H69.4V.142c0,2.189-.938,3.094-2.567,3.094-1.613,0-2.567-.905-2.567-3.094V-6.211H61.6V.241C61.6,3.631,63.546,5.507,66.821,5.507Zm9.051-.2h2.666V-4.038h3.686V-6.211H72.186v2.172h3.686Z" transform="translate(-0.252 6.408)" fill="#bf2604"/>
    </g>
  </g>
</svg>
