<svg xmlns="http://www.w3.org/2000/svg" width="27.891" height="27.891" viewBox="0 0 27.891 27.891">
  <g id="Star_clicked_on" data-name="Star clicked on" transform="translate(0)">
    <path id="Subtraction_69" data-name="Subtraction 69" d="M13.947,27.891A13.946,13.946,0,1,1,27.891,13.944,13.964,13.964,0,0,1,13.947,27.891ZM3.165,9.724a.9.9,0,0,0-.528,1.632l5.515,4.009a.906.906,0,0,1,.328,1L6.371,22.853a.874.874,0,0,0,.123.8.919.919,0,0,0,.738.382.89.89,0,0,0,.526-.177l5.518-4.009a.9.9,0,0,1,1.058,0l5.515,4.009a.886.886,0,0,0,.528.176.917.917,0,0,0,.738-.382.873.873,0,0,0,.122-.8l-2.106-6.484a.9.9,0,0,1,.325-1.008l5.518-4.006a.9.9,0,0,0-.531-1.632H17.625a.9.9,0,0,1-.856-.623L14.663,2.616a.9.9,0,0,0-1.715,0L10.842,9.1a.9.9,0,0,1-.856.62Z" fill="#469a09"/>
    <path id="Path_26909" data-name="Path 26909" d="M117.105,74.024l2.107,6.485a.9.9,0,0,0,.857.622h6.819a.9.9,0,0,1,.53,1.63L121.9,86.769a.9.9,0,0,0-.328,1.007l2.107,6.486a.9.9,0,0,1-1.386,1.007l-5.516-4.008a.9.9,0,0,0-1.059,0L110.2,95.269a.9.9,0,0,1-1.386-1.007l2.107-6.485a.9.9,0,0,0-.327-1.007l-5.516-4.008a.9.9,0,0,1,.53-1.63h6.819a.9.9,0,0,0,.857-.622l2.107-6.485A.9.9,0,0,1,117.105,74.024Z" transform="translate(-102.443 -71.407)" fill="#fede3a"/>
  </g>
</svg>
