<svg xmlns="http://www.w3.org/2000/svg" xmlns:xlink="http://www.w3.org/1999/xlink" width="51.483" height="56.602" viewBox="0 0 51.483 56.602">
  <defs>
    <filter id="Subtraction_2" x="0" y="0" width="51.483" height="56.602" filterUnits="userSpaceOnUse">
      <feOffset dx="0.5" dy="1" input="SourceAlpha"/>
      <feGaussianBlur stdDeviation="0.5" result="blur"/>
      <feFlood flood-opacity="0.161"/>
      <feComposite operator="in" in2="blur"/>
      <feComposite in="SourceGraphic"/>
    </filter>
  </defs>
  <g id="Sticker_btn" data-name="Sticker btn" transform="translate(1 0.5)">
    <g transform="matrix(1, 0, 0, 1, -1, -0.5)" filter="url(#Subtraction_2)">
      <path id="Subtraction_2-2" data-name="Subtraction 2" d="M23.936,53.6H7.062c-3.2,0-5.141-1-6.106-3.132-.874-1.937-.942-4.66-.942-8.3v-28.6c0-.324,0-.666-.007-1.021-.029-3.008-.069-7.128,1.9-9.4C3.806.943,6.314,0,10.291,0h9.426l4.4.079A30.044,30.044,0,0,1,29.52,1.3c.57.25,1.006.417,1.469.594.778.3,1.658.634,3.472,1.465.417.255,3.1,1.968,3.877,2.579.381.349.586.519.822.715.268.223.572.476,1.217,1.056.409.4.637.663,1.312,1.437l.462.529c1.067,1.3,2.078,2.775,2.463,3.348l1.816,3.622,1.279,3.886.692,4.4a18.394,18.394,0,0,1-.072,4.1c0,.142-.167,1.966-.329,2.837l-.73,2.906-1.058,2.883L44.94,40.124,43.2,42.808l-1.813,2.213-2.082,2.018L36.577,49.2,34.1,50.652l-2.231,1.032-2.1.814-2.219.558-1.869.352-1.753.193ZM12.079,35.032a1.787,1.787,0,0,0-1.321,2.985,17.679,17.679,0,0,0,26.45,0,1.786,1.786,0,0,0-1.32-2.982,1.8,1.8,0,0,0-1.33.591,14.112,14.112,0,0,1-21.149,0A1.8,1.8,0,0,0,12.079,35.032ZM34.7,18.964a3.571,3.571,0,1,0,3.571,3.571A3.575,3.575,0,0,0,34.7,18.964Zm-21.429,0a3.571,3.571,0,1,0,3.573,3.571A3.575,3.575,0,0,0,13.269,18.964Z" transform="translate(1 0.5)" fill="#facb78"/>
    </g>
  </g>
</svg>
