<svg xmlns="http://www.w3.org/2000/svg" width="34.206" height="45.423" viewBox="0 0 34.206 45.423">
  <g id="terms_icon_on_menu" data-name="terms icon on menu" transform="translate(0.1 0.1)">
    <path id="Path_393" data-name="Path 393" d="M28.425,138.439a.663.663,0,0,0-.662.662v2.753H.8a.662.662,0,1,0,0,1.325H27.763v1.987a1.105,1.105,0,0,1-1.1,1.1H-2.489a1.105,1.105,0,0,1-1.1-1.1v-1.987h1.546a.662.662,0,0,0,.662-.662.662.662,0,0,0-.662-.662H-3.593V110.819a.662.662,0,0,0-.662-.662.662.662,0,0,0-.662.662v34.348A2.432,2.432,0,0,0-2.489,147.6H26.659a2.432,2.432,0,0,0,2.429-2.429V139.1A.663.663,0,0,0,28.425,138.439Zm0,0" transform="translate(4.918 -102.372)" fill="#469a09" stroke="#0e8c8c" stroke-linecap="round" stroke-linejoin="round" stroke-width="0.2"/>
    <path id="Path_394" data-name="Path 394" d="M26.659,2.65H18.228c-.4-.355-.953-.559-1.317-1.263A2.6,2.6,0,0,0,14.586,0H9.57a2.585,2.585,0,0,0-2.3,1.4c-.351.7-.871.888-1.285,1.253H-2.489A2.432,2.432,0,0,0-4.918,5.079v.552a.662.662,0,0,0,.662.662.662.662,0,0,0,.662-.662V5.079a1.105,1.105,0,0,1,1.1-1.1H5.043A3.458,3.458,0,0,0,4.8,5.255,1.371,1.371,0,0,0,6.167,6.624H18a1.371,1.371,0,0,0,1.369-1.369V5.18a3.372,3.372,0,0,0-.221-1.206h7.508a1.105,1.105,0,0,1,1.1,1.1V33.917a.662.662,0,0,0,1.325,0V5.079A2.432,2.432,0,0,0,26.659,2.65ZM18.047,5.255A.044.044,0,0,1,18,5.3H6.167a.044.044,0,0,1-.044-.044c0-1.8,1.507-1.626,2.327-3.265a1.249,1.249,0,0,1,1.12-.665h5.016A1.292,1.292,0,0,1,15.734,2c.833,1.608,2.313,1.465,2.313,3.184Zm0,0" transform="translate(4.918)" fill="#469a09" stroke="#0e8c8c" stroke-linecap="round" stroke-linejoin="round" stroke-width="0.2"/>
    <path id="Path_395" data-name="Path 395" d="M194.794,37.5h-5.3a.662.662,0,0,0,0,1.325h5.3a.662.662,0,1,0,0-1.325Zm0,0" transform="translate(-175.141 -34.85)" fill="#469a09" stroke="#0e8c8c" stroke-linecap="round" stroke-linejoin="round" stroke-width="0.2"/>
    <path id="Path_396" data-name="Path 396" d="M112.965,131.778a.662.662,0,1,0,0-1.325H90.9a.662.662,0,1,0,0,1.325Zm0,0" transform="translate(-83.511 -121.235)" fill="#469a09" stroke="#0e8c8c" stroke-linecap="round" stroke-linejoin="round" stroke-width="0.2"/>
    <path id="Path_397" data-name="Path 397" d="M50.043,182.752a.662.662,0,0,0,.662.662H75.613a.662.662,0,1,0,0-1.325H50.705A.663.663,0,0,0,50.043,182.752Zm0,0" transform="translate(-46.159 -169.223)" fill="#469a09" stroke="#0e8c8c" stroke-linecap="round" stroke-linejoin="round" stroke-width="0.2"/>
    <path id="Path_398" data-name="Path 398" d="M50.705,235.051H75.613a.662.662,0,1,0,0-1.325H50.705a.662.662,0,0,0,0,1.325Zm0,0" transform="translate(-46.159 -217.211)" fill="#469a09" stroke="#0e8c8c" stroke-linecap="round" stroke-linejoin="round" stroke-width="0.2"/>
    <path id="Path_399" data-name="Path 399" d="M50.705,286.692H75.613a.662.662,0,1,0,0-1.325H50.705a.662.662,0,1,0,0,1.325Zm0,0" transform="translate(-46.159 -265.203)" fill="#469a09" stroke="#0e8c8c" stroke-linecap="round" stroke-linejoin="round" stroke-width="0.2"/>
    <path id="Path_400" data-name="Path 400" d="M50.705,338.325h9.057a.662.662,0,0,0,0-1.325H50.705a.662.662,0,1,0,0,1.325Zm0,0" transform="translate(-46.159 -313.187)" fill="#469a09" stroke="#0e8c8c" stroke-linecap="round" stroke-linejoin="round" stroke-width="0.2"/>
    <path id="Path_401" data-name="Path 401" d="M50.705,389.962h9.057a.662.662,0,0,0,0-1.325H50.705a.662.662,0,0,0,0,1.325Zm0,0" transform="translate(-46.159 -361.175)" fill="#469a09" stroke="#0e8c8c" stroke-linecap="round" stroke-linejoin="round" stroke-width="0.2"/>
    <path id="Path_402" data-name="Path 402" d="M50.705,441.6h9.057a.662.662,0,1,0,0-1.325H50.705a.662.662,0,1,0,0,1.325Zm0,0" transform="translate(-46.159 -409.167)" fill="#469a09" stroke="#0e8c8c" stroke-linecap="round" stroke-linejoin="round" stroke-width="0.2"/>
    <path id="Path_404" data-name="Path 404" d="M237.178,327.078h-7.356a2.421,2.421,0,0,0-2.17,2.606v8.833a2.421,2.421,0,0,0,2.17,2.606h7.356a2.421,2.421,0,0,0,2.17-2.606v-8.833A2.421,2.421,0,0,0,237.178,327.078Zm1.067,11.438a1.19,1.19,0,0,1-1.067,1.281h-7.356a1.19,1.19,0,0,1-1.067-1.281v-8.833a1.19,1.19,0,0,1,1.067-1.281h7.356a1.19,1.19,0,0,1,1.067,1.281Zm0,0" transform="translate(-209.232 -303.966)" fill="#469a09" stroke="#0e8c8c" stroke-linecap="round" stroke-linejoin="round" stroke-width="0.2"/>
    <path id="Path_412" data-name="Path 412" d="M17.626,13.986c-11.473-.015-2.244-.042-10.822,0A1.791,1.791,0,0,0,5,15.829v7.985a1.829,1.829,0,0,0,1.8,1.843H17.626a1.829,1.829,0,0,0,1.8-1.843V15.829A1.791,1.791,0,0,0,17.626,13.986Zm-4.81,6.633v1.351a.6.6,0,1,1-1.2,0V20.619a1.8,1.8,0,1,1,1.2,0Z" transform="translate(11.934 12.774)" fill="#469a09" stroke="#0e8c8c" stroke-linecap="round" stroke-linejoin="round" stroke-width="0.2"/>
  </g>
</svg>
