<svg id="Ticket_price_icon" data-name="Ticket price icon" xmlns="http://www.w3.org/2000/svg" width="29.139" height="45.455" viewBox="0 0 29.139 45.455">
  <g id="Group_1167" data-name="Group 1167" transform="translate(13.234 14.845)">
    <g id="Group_1166" data-name="Group 1166">
      <path id="Path_27501" data-name="Path 27501" d="M244.835,139a1.335,1.335,0,1,0,1.335,1.335A1.337,1.337,0,0,0,244.835,139Z" transform="translate(-243.5 -139)" fill="#5b5353"/>
    </g>
  </g>
  <g id="Group_1169" data-name="Group 1169" transform="translate(0 7.01)">
    <g id="Group_1168" data-name="Group 1168">
      <path id="Path_27502" data-name="Path 27502" d="M141.418,65.64h-5.667v4.922a4.539,4.539,0,1,1-3.2,0V65.64h-5.667l-7.3,8.031v30.414h29.139V73.671ZM138.687,95.5a3.345,3.345,0,0,1-1.077,1.206,4.552,4.552,0,0,1-1.51.651c-.117.028-.236.052-.353.075V100.5h-3.2V97.372q-.471-.088-.939-.215a12.254,12.254,0,0,1-1.353-.452,8.677,8.677,0,0,1-1.207-.59l1.458-2.969a10.152,10.152,0,0,0,1.268.677,8.92,8.92,0,0,0,1.258.469,5.019,5.019,0,0,0,1.432.208,1.454,1.454,0,0,0,.772-.147.451.451,0,0,0,.217-.391.555.555,0,0,0-.217-.442,1.981,1.981,0,0,0-.6-.321c-.255-.093-.547-.185-.877-.278s-.68-.2-1.05-.33a9.048,9.048,0,0,1-1.407-.6,3.818,3.818,0,0,1-.972-.729,2.589,2.589,0,0,1-.564-.929,3.611,3.611,0,0,1-.183-1.2,4.138,4.138,0,0,1,.373-1.8,3.7,3.7,0,0,1,1.016-1.3,4.547,4.547,0,0,1,1.467-.79c.035-.012.07-.022.107-.032v-2.87h3.2v2.816a10.135,10.135,0,0,1,.993.277q.6.2,1.12.434t.937.443L137.342,89.1a9.489,9.489,0,0,0-1.077-.555,9.616,9.616,0,0,0-1.05-.39,3.784,3.784,0,0,0-1.137-.183,1.575,1.575,0,0,0-.72.139.486.486,0,0,0-.269.469.543.543,0,0,0,.156.4,1.518,1.518,0,0,0,.452.286,5.58,5.58,0,0,0,.72.251c.284.081.606.18.963.3a12.542,12.542,0,0,1,1.537.572,4.76,4.76,0,0,1,1.172.738,2.848,2.848,0,0,1,.747,1.033,3.749,3.749,0,0,1,.261,1.475A3.9,3.9,0,0,1,138.687,95.5Z" transform="translate(-119.58 -65.64)" fill="#5b5353"/>
    </g>
  </g>
  <g id="Group_1173" data-name="Group 1173" transform="translate(12.967)">
    <g id="Group_1172" data-name="Group 1172">
      <rect id="Rectangle_1798" data-name="Rectangle 1798" width="3.204" height="7.01" fill="#5b5353"/>
    </g>
  </g>
</svg>
