<svg id="time-2" xmlns="http://www.w3.org/2000/svg" width="25.09" height="25.09" viewBox="0 0 25.09 25.09">
  <g id="Group_937" data-name="Group 937">
    <path id="Path_26797" data-name="Path 26797" d="M12.545,25.09A12.545,12.545,0,1,0,0,12.545,12.56,12.56,0,0,0,12.545,25.09Zm0-23.417A10.872,10.872,0,1,1,1.673,12.545,10.883,10.883,0,0,1,12.545,1.673Z"/>
    <path id="Path_26798" data-name="Path 26798" d="M172.162,83.382a.835.835,0,0,0,1.175-.13.837.837,0,0,0-.13-1.175l-3.868-3.094V72.694a.836.836,0,0,0-1.673,0v6.691a.839.839,0,0,0,.314.652Z" transform="translate(-155.959 -66.84)"/>
  </g>
</svg>
