<svg id="user_Onboarding_2_image" data-name="user Onboarding 2 image" xmlns="http://www.w3.org/2000/svg" width="303.768" height="274.621" viewBox="0 0 303.768 274.621">
  <path id="Path_27233" data-name="Path 27233" d="M238.829,135.526a101.709,101.709,0,0,1-37.561-7.2c-16.2-6.4-29.463-15.217-39.434-26.22-18.861-20.813-34.325-23.949-43.974-22.916a29.152,29.152,0,0,0-16.585,7.289l-.415-.529a29.752,29.752,0,0,1,16.9-7.463,37.091,37.091,0,0,1,19.386,3.5c8.264,3.739,16.715,10.336,25.119,19.609,9.905,10.93,23.1,19.7,39.205,26.059,29.573,11.678,62.9,8.851,91.443-7.757a94.9,94.9,0,0,1,27.759-11.157c11.311-2.4,22.038-1.844,31.885,1.655,21.639,7.689,36.42,7.281,45.008,5.586,9.267-1.829,9.525-1.159.106.7-8.656,1.709-23.543,2.123-45.3-5.608-22.029-7.827-44.34.822-59.177,9.456a108.37,108.37,0,0,1-45.313,14.6Q243.34,135.526,238.829,135.526Z" transform="translate(-100.859 -73.081)" fill="#3f3d56"/>
  <circle id="Ellipse_865" data-name="Ellipse 865" cx="7.203" cy="7.203" r="7.203" transform="translate(126.649 56.859)" fill="#ffd54f"/>
  <circle id="Ellipse_866" data-name="Ellipse 866" cx="7.203" cy="7.203" r="7.203" transform="translate(238.236 28.074)" fill="#ffd54f"/>
  <circle id="Ellipse_867" data-name="Ellipse 867" cx="7.203" cy="7.203" r="7.203" transform="translate(6.179 0)" fill="#ffd54f"/>
  <path id="Path_27234" data-name="Path 27234" d="M685.6,421.86v69.591h10.942V427.988h43.768v63.464h10.942V352.269H740.313c-3.626,0-9.191,18.884-9.191,37.859,0,14.3,1.67,26.56,4.045,31.732Zm54.71,0h-.106c.036-.078.071-.16.106-.241Z" transform="translate(-500.1 -249.689)" fill="#3f3d56"/>
  <path id="Path_27235" data-name="Path 27235" d="M770.2,255.342h0c-8.982,0-16.263,8.08-16.263,18.048v12.664h3.895l2.255-4.692-.564,4.692h25.035l2.05-4.266-.513,4.266h2.819V276.11C788.918,264.64,780.54,255.342,770.2,255.342Z" transform="translate(-544.153 -187.207)" fill="#2f2e41"/>
  <path id="Path_27236" data-name="Path 27236" d="M648,488.168l-9.985,4.244-34.7,28.208a10.212,10.212,0,0,0-2.247,5.492c-.25,3.245-10.734,20.22-6.99,22.467s17.224,8.987,17.973,4.493,4.743-23.715,4.743-23.715l33.45-29.955Z" transform="translate(-440.579 -337.293)" fill="#2f2e41"/>
  <path id="Path_27237" data-name="Path 27237" d="M591.093,658.455l-4.244,12.481s4.493,4.743,2.247,8.737V693.4H585.6l-1-7.239s-3.981,7.148-5.991,7.239c-4.215.192-12.561,1.691-12.811-.556s6.32-4.437,6.32-4.437l6.99-19.221,3-11.733Z" transform="translate(-422.868 -446.422)" fill="#2f2e41"/>
  <path id="Path_27238" data-name="Path 27238" d="M709.083,457.3s2.247,21.967-4.244,25.961-35.2,16.725-35.2,16.725,12.232,11.483,9.735,14.229-13.73,10.235-15.227,8.737-18.223-19.471-16.226-25.212,29.706-24.464,29.706-24.464l3.245-11.733,1-9.486,10.484-6.74Z" transform="translate(-475.704 -309.671)" fill="#2f2e41"/>
  <circle id="Ellipse_868" data-name="Ellipse 868" cx="10.407" cy="10.407" r="10.407" transform="translate(211.535 75.671)" fill="#ffb9b9"/>
  <path id="Path_27239" data-name="Path 27239" d="M789.1,317.825s-.5,9.486,7.239,12.481-19.221,22.467-19.221,22.467V331.055s3.495-3.744,0-9.486Z" transform="translate(-559.096 -227.486)" fill="#ffb9b9"/>
  <path id="Path_27240" data-name="Path 27240" d="M832.136,443.211l-2,9.736-5.991,33.45s4.992,14.229-1.747,13.979-3.495-15.477-3.495-15.477L822.4,457.19V446.456Z" transform="translate(-585.527 -308.313)" fill="#ffb9b9"/>
  <path id="Path_27241" data-name="Path 27241" d="M707.72,429.865l-2.247,8.737-10.235,24.713s-6.99,11.733-1.248,11.483,5.741-11.483,5.741-11.483l11.733-19.97V432.111Z" transform="translate(-504.047 -299.71)" fill="#ffb9b9"/>
  <path id="Path_27242" data-name="Path 27242" d="M717.324,634.978l8.238,7.739s5.742-1.248,7.988,5.492,3.744,10.984,3.744,10.984l-3,1.747-3.744-5.242s-2.247,9.486-4.493,10.235-13.48,5.741-12.482,0l5.492-7.988s.749-8.987-1.5-9.735-8.238-8.238-8.238-8.238Z" transform="translate(-515.399 -431.932)" fill="#2f2e41"/>
  <path id="Path_27243" data-name="Path 27243" d="M769.776,479.38s-23.465-8.487-24.963-7.738a11.258,11.258,0,0,1-3.516.913l.021-3.409s7.738-2.746,11.982-1,17.224,9.486,17.224,9.486Z" transform="translate(-536.002 -324.012)" fill="#3f3d56"/>
  <path id="Path_27244" data-name="Path 27244" d="M755.491,367.921s6.74-7.738,8.737-12.481a12.255,12.255,0,0,1,6.479-6.371s14.989,3.375,14.74,9.366-9.486,15.227-9.486,15.227,1.248,33.2-5.492,32.7a14.457,14.457,0,0,1-3-5.991c-.749-3.495-23.964-7.239-23.964-7.239s-2,3.495-2.247,2,2-38.193,2-38.193l11.9-7.869Z" transform="translate(-535.967 -247.626)" fill="#d0cde1"/>
  <path id="Path_27245" data-name="Path 27245" d="M838.085,367.84l.167.094a3.444,3.444,0,0,1,1.759,3l0,18.526a3.471,3.471,0,0,0,1.235,2.642c.962.818,1.853,2,.013,2.61-3,1-14.728,5.991-14.978,4.244s-.749-3.744,0-3.744c.586,0,4.08-17.9,6.886-25.554a3.445,3.445,0,0,1,4.92-1.82Z" transform="translate(-590.529 -259.443)" fill="#d0cde1"/>
  <path id="Path_27246" data-name="Path 27246" d="M736.4,368.752l-3.495,1-3.994,17.224s-4.743,1-3.245,2.746,7.738,6.241,7.738,6.241Z" transform="translate(-525.736 -260.315)" fill="#d0cde1"/>
  <path id="Path_27247" data-name="Path 27247" d="M779.708,263.1a8.529,8.529,0,0,0-6.729-3.434h-.319c-6.156,0-11.146,5.571-11.146,12.442h2.063l.333-2.536.488,2.536h12.234l1.025-2.145-.256,2.145h2.407q1.684,8.366-4.841,16.732h4.1l2.05-4.29-.513,4.29h7.815l1.537-9.868C789.955,271.584,785.661,265.318,779.708,263.1Z" transform="translate(-549.033 -189.996)" fill="#2f2e41"/>
  <path id="Path_27248" data-name="Path 27248" d="M192.128,453.767c2.626-5.718,4.473-19.271,4.473-35.085,0-20.98-6.154-41.86-10.163-41.86h-12.1V530.712h12.1v-70.17h48.393v70.17h12.1V453.767Zm-5.689-.266c.039.09.078.18.118.266h-.118Z" transform="translate(-170.525 -265.517)" fill="#3f3d56"/>
  <path id="Path_27249" data-name="Path 27249" d="M356.623,514.342s14.57,6.041,9.95,9.6-14.215-4.265-13.859-5.331-1.422-3.554-1.422-3.554Z" transform="translate(-284.594 -354.166)" fill="#9f616a"/>
  <path id="Path_27250" data-name="Path 27250" d="M327.069,380.342l4.62,4.264,1.066,12.438,3.554,13.149s6.041,12.438,4.975,14.926,1.066,3.2,1.066,3.2l-8.174,3.2s-8.884-9.95-8.884-12.083S327.069,380.342,327.069,380.342Z" transform="translate(-267.833 -267.786)" fill="#575a88"/>
  <path id="Path_27251" data-name="Path 27251" d="M327.069,380.342l4.62,4.264,1.066,12.438,3.554,13.149s6.041,12.438,4.975,14.926,1.066,3.2,1.066,3.2l-8.174,3.2s-8.884-9.95-8.884-12.083S327.069,380.342,327.069,380.342Z" transform="translate(-267.833 -267.786)" opacity="0.1"/>
  <path id="Path_27252" data-name="Path 27252" d="M449.4,734.54s-1.777,8.174-2.132,8.884,6.752,3.2,6.752,3.2l8.529-6.041S459,732.763,459,731.342Z" transform="translate(-346.454 -494.05)" fill="#fff"/>
  <path id="Path_27253" data-name="Path 27253" d="M277.091,516.342l2.488,2.843s51.529,6.4,52.595,16.347,8.529,56.859,4.264,58.281-15.281,6.752-15.281,3.909-7.107-41.934-5.686-49.041c0,0-61.479-7.818-62.9-16.7s1.421-12.793,1.421-12.793Z" transform="translate(-220.698 -355.455)" fill="#2f2e41"/>
  <path id="Path_27254" data-name="Path 27254" d="M277.091,516.342l2.488,2.843s51.529,6.4,52.595,16.347,8.529,56.859,4.264,58.281-15.281,6.752-15.281,3.909-7.107-41.934-5.686-49.041c0,0-61.479-7.818-62.9-16.7s1.421-12.793,1.421-12.793Z" transform="translate(-220.698 -355.455)" opacity="0.1"/>
  <path id="Path_27255" data-name="Path 27255" d="M444.174,754.553s-1.421-3.2-2.132-2.132-3.2,13.5-.711,13.5,25.231,5.686,28.43,4.975,9.24.355,8.529-3.2a4.988,4.988,0,0,0-4.265-3.909s-13.149-7.818-13.859-11.727-4.62-1.777-4.62-1.777v2.488S448.083,758.462,444.174,754.553Z" transform="translate(-341.939 -505.89)" fill="#2f2e41"/>
  <path id="Path_27256" data-name="Path 27256" d="M253.672,300.088s2.488,12.083-2.843,13.149,6.752,8.174,6.752,8.174l7.818,4.264,5.686-5.686s-5.153-10.483-1.244-18.3S253.672,300.088,253.672,300.088Z" transform="translate(-218.957 -214.54)" fill="#9f616a"/>
  <path id="Path_27257" data-name="Path 27257" d="M271.085,319.989l-5.686,5.686-7.818-4.264s-12.083-7.107-6.752-8.174c3.429-.686,3.621-5.931,3.326-9.584a33.028,33.028,0,0,0-.483-3.564s20.078-6.219,16.169,1.6a13.632,13.632,0,0,0-1.222,3.824C267.421,312.537,271.085,319.989,271.085,319.989Z" transform="translate(-218.957 -214.54)" fill="#9f616a"/>
  <path id="Path_27258" data-name="Path 27258" d="M265.433,699.282v8.173h13.5l1.066-3.2-1.422-8.529Z" transform="translate(-193.404 -448.486)" fill="#fff"/>
  <path id="Path_27259" data-name="Path 27259" d="M209.292,528.606s0,20.967,8.529,21.678,39.091,4.62,39.091,4.62,1.777,34.826,4.975,46.2.355,12.083,3.2,12.793,14.926-1.777,14.57-4.264-1.777-65.388-1.777-65.388,3.2-13.5-39.446-19.9Z" transform="translate(-193.056 -360.612)" fill="#2f2e41"/>
  <path id="Path_27260" data-name="Path 27260" d="M360.72,774.9s-2.132-4.62-2.488-3.2-4.62,13.859-.355,14.926,17.769,6.752,26.653,6.4,9.95-.711,9.95-.711,2.488-3.554-.711-5.686-16.347-14.57-17.058-15.992-6.041-2.488-6.041,0S363.208,778.1,360.72,774.9Z" transform="translate(-287.625 -518.418)" fill="#2f2e41"/>
  <path id="Path_27261" data-name="Path 27261" d="M277.462,301.687a13.63,13.63,0,0,0-1.222,3.824c-1.77,1.07-2.953.8-5.174.8-3.294,0-4.623-4.211-6.752-6.4-.167-2.029-3.021.178-3.021.178S281.371,293.869,277.462,301.687Z" transform="translate(-226.577 -214.54)" opacity="0.1"/>
  <circle id="Ellipse_869" data-name="Ellipse 869" cx="11.727" cy="11.727" r="11.727" transform="translate(31.872 68.135)" fill="#9f616a"/>
  <path id="Path_27262" data-name="Path 27262" d="M248.931,358.038s-1.777,12.793-2.843,17.413-2.488,25.942-3.2,28.785-4.975,3.554-13.5,2.488a16.037,16.037,0,0,0-1.613-.121c-5.252-.167-11.262,1.8-16.823,3.341a42.3,42.3,0,0,1-8.927,1.755c-4.051.185-5.238-4.307-5.1-9.169.132-4.524,1.414-9.375,2.612-11.088,2.157-3.085.036-30.779.832-39.912v0a6.616,6.616,0,0,1,.59-2.729c2.132-2.843,15.992-9.95,17.545-9.663s14.794,8.6,14.794,8.6c3.2,0,3.1-3.468,3.1-3.468s2.235,4.179,6.5,5.245S248.931,358.038,248.931,358.038Z" transform="translate(-185.076 -241.218)" fill="#575a88"/>
  <path id="Path_27263" data-name="Path 27263" d="M270.5,521.984s22.892.729,18.881,3.449-21.779,5.207-22.134,1.654S270.5,521.984,270.5,521.984Z" transform="translate(-230.4 -359.093)" fill="#9f616a"/>
  <path id="Path_27264" data-name="Path 27264" d="M227.792,428.659c.075,1.365-3.6,4.439-4.783,6.518-.657,1.151-5.746-.366-12.04-3.177a123.436,123.436,0,0,1-14.026-7.413c.131-4.524,1.414-9.375,2.612-11.088,2.157-3.085.036-30.779.832-39.912v0a3.948,3.948,0,0,1,.59-.242h4.264c14.57,6.752-2.132,35.893-2.132,35.893s22.033,18.124,24.165,18.835a.639.639,0,0,1,.519.59Z" transform="translate(-185.095 -263.273)" opacity="0.1"/>
  <path id="Path_27265" data-name="Path 27265" d="M183.75,367.342h-4.264s-3.909,1.066-7.107,8.174-14.926,29.14-4.62,37.669,32.339,18.479,33.76,15.992,6.4-6.4,4.264-7.107-24.165-18.835-24.165-18.835S198.321,374.094,183.75,367.342Z" transform="translate(-163.606 -259.405)" fill="#575a88"/>
  <path id="Path_27266" data-name="Path 27266" d="M253.843,251.065s.515-7.124,6.864-4.219,5.935-5.1,4.016-6.517-1.858-1.765-8.875-.818-20.641,2.551-16.236,16.66,8.395,10.48,8.395,10.48-3.5-12.7.046-10.278l3.548,2.419,1.872-.4Z" transform="translate(-212.048 -176.66)" fill="#2f2e41"/>
  <path id="Path_27267" data-name="Path 27267" d="M632.15,540.592c0-6.414-47.666-11.614-106.464-11.614s-106.464,5.2-106.464,11.614c0,2.486,7.164,4.789,19.357,6.678v79.461h5.807V548.089c19.529,2.518,48.7,4.117,81.3,4.117,32.869,0,62.255-1.625,81.784-4.179v78.7h5.807V547.194C625.174,545.319,632.15,543.044,632.15,540.592Z" transform="translate(-328.383 -363.6)" fill="#3f3d56"/>
  <ellipse id="Ellipse_870" data-name="Ellipse 870" cx="21.678" cy="5.331" rx="21.678" ry="5.331" transform="translate(188.963 166.573)" fill="#f2f2f2"/>
  <ellipse id="Ellipse_871" data-name="Ellipse 871" cx="17.769" cy="4.369" rx="17.769" ry="4.369" transform="translate(192.872 167.534)" fill="#d0cde1"/>
  <ellipse id="Ellipse_872" data-name="Ellipse 872" cx="21.678" cy="5.331" rx="21.678" ry="5.331" transform="translate(108.294 170.837)" fill="#f2f2f2"/>
  <ellipse id="Ellipse_873" data-name="Ellipse 873" cx="17.769" cy="4.369" rx="17.769" ry="4.369" transform="translate(112.203 171.798)" fill="#d0cde1"/>
  <ellipse id="Ellipse_874" data-name="Ellipse 874" cx="10.334" cy="1.632" rx="10.334" ry="1.632" transform="translate(199.802 168.263)" fill="#9f616a"/>
  <ellipse id="Ellipse_875" data-name="Ellipse 875" cx="3.263" cy="1.768" rx="3.263" ry="1.768" transform="translate(201.366 165.748)" fill="#707070"/>
  <ellipse id="Ellipse_876" data-name="Ellipse 876" cx="3.263" cy="1.768" rx="3.263" ry="1.768" transform="translate(200.142 165.748)" fill="#707070"/>
  <ellipse id="Ellipse_877" data-name="Ellipse 877" cx="3.263" cy="1.768" rx="3.263" ry="1.768" transform="translate(214.42 166.156)" fill="#707070"/>
  <ellipse id="Ellipse_878" data-name="Ellipse 878" cx="3.263" cy="1.768" rx="3.263" ry="1.768" transform="translate(206.941 165.748)" fill="#707070"/>
  <ellipse id="Ellipse_879" data-name="Ellipse 879" cx="3.263" cy="1.768" rx="3.263" ry="1.768" transform="translate(212.516 165.748)" fill="#707070"/>
  <path id="Path_27268" data-name="Path 27268" d="M746.649,516.617q-8.847,3-19.853,0v-.275a8.109,8.109,0,0,1,7.7-8.1,50.929,50.929,0,0,1,5.25.007,7.328,7.328,0,0,1,6.9,7.334Z" transform="translate(-526.655 -350.189)" fill="#3f3d56"/>
  <path id="Path_27269" data-name="Path 27269" d="M743.877,545.47a65.23,65.23,0,0,1-13.11,0,4.189,4.189,0,0,1-3.78-4.162h20.669a4.188,4.188,0,0,1-3.779,4.162Z" transform="translate(-526.778 -371.549)" fill="#3f3d56"/>
  <path id="Path_27270" data-name="Path 27270" d="M741.65,514.938a3.889,3.889,0,0,1-2.992,0A3.89,3.89,0,0,1,741.65,514.938Z" transform="translate(-534.301 -354.357)" fill="#d0cde1"/>
  <path id="Path_27271" data-name="Path 27271" d="M750.068,518.381a3.889,3.889,0,0,1-2.992,0A3.889,3.889,0,0,1,750.068,518.381Z" transform="translate(-539.727 -356.577)" fill="#d0cde1"/>
  <path id="Path_27272" data-name="Path 27272" d="M750.833,512.259a3.889,3.889,0,0,1-2.992,0A3.888,3.888,0,0,1,750.833,512.259Z" transform="translate(-540.221 -352.631)" fill="#d0cde1"/>
  <path id="Path_27273" data-name="Path 27273" d="M766.521,512.259a3.89,3.89,0,0,1-2.992,0A3.889,3.889,0,0,1,766.521,512.259Z" transform="translate(-550.334 -352.631)" fill="#d0cde1"/>
  <path id="Path_27274" data-name="Path 27274" d="M762.312,515.7a3.889,3.889,0,0,1-2.991,0A3.889,3.889,0,0,1,762.312,515.7Z" transform="translate(-547.621 -354.85)" fill="#d0cde1"/>
  <ellipse id="Ellipse_880" data-name="Ellipse 880" cx="10.334" cy="1.632" rx="10.334" ry="1.632" transform="translate(119.488 172.528)" fill="#9f616a"/>
  <ellipse id="Ellipse_881" data-name="Ellipse 881" cx="3.263" cy="1.768" rx="3.263" ry="1.768" transform="translate(121.052 170.012)" fill="#707070"/>
  <ellipse id="Ellipse_882" data-name="Ellipse 882" cx="3.263" cy="1.768" rx="3.263" ry="1.768" transform="translate(119.828 170.012)" fill="#707070"/>
  <ellipse id="Ellipse_883" data-name="Ellipse 883" cx="3.263" cy="1.768" rx="3.263" ry="1.768" transform="translate(134.106 170.42)" fill="#707070"/>
  <ellipse id="Ellipse_884" data-name="Ellipse 884" cx="3.263" cy="1.768" rx="3.263" ry="1.768" transform="translate(126.627 170.012)" fill="#707070"/>
  <ellipse id="Ellipse_885" data-name="Ellipse 885" cx="3.263" cy="1.768" rx="3.263" ry="1.768" transform="translate(132.202 170.012)" fill="#707070"/>
  <path id="Path_27275" data-name="Path 27275" d="M520.649,528.617q-8.847,3-19.853,0v-.275a8.11,8.11,0,0,1,7.7-8.1,50.928,50.928,0,0,1,5.25.007,7.328,7.328,0,0,1,6.9,7.334Z" transform="translate(-380.968 -357.925)" fill="#3f3d56"/>
  <path id="Path_27276" data-name="Path 27276" d="M517.877,557.47a65.239,65.239,0,0,1-13.11,0,4.188,4.188,0,0,1-3.779-4.162h20.669A4.189,4.189,0,0,1,517.877,557.47Z" transform="translate(-381.092 -379.285)" fill="#3f3d56"/>
  <path id="Path_27277" data-name="Path 27277" d="M515.65,526.938a3.889,3.889,0,0,1-2.992,0A3.89,3.89,0,0,1,515.65,526.938Z" transform="translate(-388.615 -362.093)" fill="#d0cde1"/>
  <path id="Path_27278" data-name="Path 27278" d="M524.068,530.381a3.889,3.889,0,0,1-2.992,0A3.889,3.889,0,0,1,524.068,530.381Z" transform="translate(-394.041 -364.313)" fill="#d0cde1"/>
  <path id="Path_27279" data-name="Path 27279" d="M524.833,524.259a3.889,3.889,0,0,1-2.992,0A3.889,3.889,0,0,1,524.833,524.259Z" transform="translate(-394.535 -360.366)" fill="#d0cde1"/>
  <path id="Path_27280" data-name="Path 27280" d="M540.521,524.259a3.889,3.889,0,0,1-2.992,0A3.889,3.889,0,0,1,540.521,524.259Z" transform="translate(-404.648 -360.366)" fill="#d0cde1"/>
  <path id="Path_27281" data-name="Path 27281" d="M536.312,527.7a3.889,3.889,0,0,1-2.992,0,3.889,3.889,0,0,1,2.992,0Z" transform="translate(-401.934 -362.586)" fill="#d0cde1"/>
  <path id="Path_27282" data-name="Path 27282" d="M789.8,543.277l.05,1.1.064,1.428s-6.557.371-7.878,1.766a.8.8,0,0,0-.084.1l-2.627-.575-.007-1.294.107-.058.056-.03A23.908,23.908,0,0,1,789.8,543.277Z" transform="translate(-560.514 -372.819)" fill="#707070"/>
  <path id="Path_27283" data-name="Path 27283" d="M790,543.277l.05,1.1c-2.908.09-8.411,1.823-8.411,1.823l-2.014-.459A23.84,23.84,0,0,1,790,543.277Z" transform="translate(-560.707 -372.819)" opacity="0.1"/>
  <path id="Path_27284" data-name="Path 27284" d="M779.485,550.129l1.958.489.6,1.371a.814.814,0,0,0-.084.1l-2.627-.575-.007-1.294.107-.058Z" transform="translate(-560.514 -377.236)" fill="#fff" opacity="0.1"/>
  <path id="Path_27285" data-name="Path 27285" d="M566.8,556.277l.05,1.1.064,1.428s-6.557.371-7.878,1.766a.8.8,0,0,0-.084.1l-2.627-.575-.006-1.294.107-.058.056-.03A23.907,23.907,0,0,1,566.8,556.277Z" transform="translate(-416.762 -381.199)" fill="#707070"/>
  <path id="Path_27286" data-name="Path 27286" d="M567,556.277l.05,1.1c-2.908.09-8.411,1.823-8.411,1.823l-2.014-.459A23.841,23.841,0,0,1,567,556.277Z" transform="translate(-416.955 -381.199)" opacity="0.1"/>
  <path id="Path_27287" data-name="Path 27287" d="M556.485,563.13l1.958.489.6,1.371a.79.79,0,0,0-.084.1l-2.627-.575-.006-1.294.107-.058Z" transform="translate(-416.762 -385.616)" fill="#fff" opacity="0.1"/>
  <path id="Path_27288" data-name="Path 27288" d="M900.316,421.916a6.558,6.558,0,0,0-1.936-1.338V406.77a.611.611,0,0,0-.611-.611h-3.418a.611.611,0,0,0-.61.611v13.543a6.2,6.2,0,0,0-4.246,5.88v29.621a2.714,2.714,0,0,0,2.714,2.714h7.322a2.7,2.7,0,0,0,2.7-2.7V426.542a6.522,6.522,0,0,0-1.917-4.627Z" transform="translate(-631.534 -284.428)" fill="#3f3d56"/>
  <rect id="Rectangle_1747" data-name="Rectangle 1747" width="12.738" height="16.827" transform="translate(257.96 146.107)" fill="#707070"/>
  <path id="Path_27289" data-name="Path 27289" d="M905.858,407.1h-.275v-.333a.611.611,0,0,0-.61-.611h-3.418a.611.611,0,0,0-.61.611v.333h-.275v1.415h.275v7.234h4.639v-7.234h.275Z" transform="translate(-638.737 -284.428)" fill="#707070"/>
  <path id="Path_27290" data-name="Path 27290" d="M607.5,481.677c-.337-.72-.6-1.228-.7-1.4-5.718,1.411-9.533.219-10.135.008a33.6,33.6,0,0,0-2.873,7.512c-.671,3.071-.281,5.13,1.157,6.12l.043.03.009.006c1.588,1.046,3.1,1.973,4.5,2.754q.283.157.533.293l.018.01.013.016a8.5,8.5,0,0,1,.536.756,2.97,2.97,0,0,1,.543,1.469V514.5l-.1,0c-3.647.074-5.9.693-5.9,1.223,0,.582,2.707,1.23,6.592,1.23s6.591-.648,6.591-1.23c0-.522-2.219-1.137-5.8-1.22l-.1,0,.09-14.11a6.223,6.223,0,0,1,.649-2.753c.072-.144.15-.284.231-.416.065-.106.134-.21.2-.307l.013-.018.019-.011q.269-.147.572-.319l.024-.013c1.324-.748,2.75-1.625,4.241-2.607,1.33-.877,1.793-2.65,1.377-5.268A28.127,28.127,0,0,0,607.5,481.677Z" transform="translate(-440.711 -332.205)" fill="#d0cde1"/>
  <path id="Path_27291" data-name="Path 27291" d="M609.194,507.545c-1.562,1.03-2.852,1.8-3.838,2.358h0a22.461,22.461,0,0,0-4.315.121c-1.011-.564-2.375-1.374-4.053-2.479l-.048-.033h0c-1.539-1.059-1.577-3.3-1.076-5.594a13.563,13.563,0,0,1,6.033.9,14.084,14.084,0,0,0,8.574-.092C610.792,504.744,610.6,506.621,609.194,507.545Z" transform="translate(-442.067 -346.12)" fill="#707070"/>
  <circle id="Ellipse_886" data-name="Ellipse 886" cx="0.442" cy="0.442" r="0.442" transform="translate(157.398 154.083)" fill="#707070"/>
  <circle id="Ellipse_887" data-name="Ellipse 887" cx="0.442" cy="0.442" r="0.442" transform="translate(156.159 158.152)" fill="#fff"/>
  <circle id="Ellipse_888" data-name="Ellipse 888" cx="0.265" cy="0.265" r="0.265" transform="translate(158.636 155.322)" fill="#707070"/>
  <circle id="Ellipse_889" data-name="Ellipse 889" cx="0.265" cy="0.265" r="0.265" transform="translate(159.697 160.363)" fill="#fff"/>
  <circle id="Ellipse_890" data-name="Ellipse 890" cx="0.265" cy="0.265" r="0.265" transform="translate(157.84 160.629)" fill="#fff"/>
  <circle id="Ellipse_891" data-name="Ellipse 891" cx="0.265" cy="0.265" r="0.265" transform="translate(163.236 151.783)" fill="#707070"/>
  <path id="Path_27292" data-name="Path 27292" d="M665.876,441.212c-.337-.719-.6-1.228-.7-1.4-5.718,1.411-9.533.219-10.135.008a33.616,33.616,0,0,0-2.873,7.512c-.671,3.071-.281,5.13,1.157,6.12l.043.03.009.006c1.588,1.046,3.1,1.973,4.5,2.754q.283.157.533.292l.018.01.013.016a8.544,8.544,0,0,1,.535.756,2.971,2.971,0,0,1,.543,1.469v15.254l-.1,0c-3.647.074-5.9.693-5.9,1.223,0,.582,2.707,1.23,6.592,1.23s6.591-.648,6.591-1.23c0-.522-2.219-1.137-5.8-1.22l-.1,0,.09-14.11a6.222,6.222,0,0,1,.649-2.753c.072-.144.15-.284.231-.415.065-.106.134-.21.2-.307l.013-.018.019-.011q.27-.147.572-.319l.024-.013c1.324-.748,2.751-1.625,4.24-2.607,1.33-.877,1.793-2.649,1.377-5.268A28.134,28.134,0,0,0,665.876,441.212Z" transform="translate(-478.344 -306.119)" fill="#d0cde1"/>
  <path id="Path_27293" data-name="Path 27293" d="M667.573,467.08c-1.562,1.03-2.852,1.8-3.838,2.358h0a22.463,22.463,0,0,0-4.315.121c-1.011-.564-2.375-1.374-4.053-2.479l-.048-.033h0c-1.539-1.059-1.577-3.3-1.076-5.594a13.564,13.564,0,0,1,6.033.9,14.084,14.084,0,0,0,8.574-.092C669.171,464.278,668.975,466.155,667.573,467.08Z" transform="translate(-479.699 -320.035)" fill="#707070"/>
  <circle id="Ellipse_892" data-name="Ellipse 892" cx="0.442" cy="0.442" r="0.442" transform="translate(178.144 139.703)" fill="#707070"/>
  <circle id="Ellipse_893" data-name="Ellipse 893" cx="0.442" cy="0.442" r="0.442" transform="translate(176.905 143.772)" fill="#fff"/>
  <circle id="Ellipse_894" data-name="Ellipse 894" cx="0.265" cy="0.265" r="0.265" transform="translate(179.382 140.941)" fill="#707070"/>
  <circle id="Ellipse_895" data-name="Ellipse 895" cx="0.265" cy="0.265" r="0.265" transform="translate(180.443 145.983)" fill="#fff"/>
  <circle id="Ellipse_896" data-name="Ellipse 896" cx="0.265" cy="0.265" r="0.265" transform="translate(178.586 146.249)" fill="#fff"/>
  <circle id="Ellipse_897" data-name="Ellipse 897" cx="0.265" cy="0.265" r="0.265" transform="translate(183.982 137.403)" fill="#707070"/>
</svg>
