<svg xmlns="http://www.w3.org/2000/svg" width="314.79" height="232.512" viewBox="0 0 314.79 232.512">
  <g id="user_Onboarding_3_image" data-name="user Onboarding 3 image" transform="translate(0 0)">
    <g id="Group_1061" data-name="Group 1061" transform="translate(0 0)">
      <ellipse id="Ellipse_853" data-name="Ellipse 853" cx="114.594" cy="12.553" rx="114.594" ry="12.553" transform="translate(85.602 207.407)" fill="#ffd54f" opacity="0.536"/>
      <rect id="Rectangle_1706" data-name="Rectangle 1706" width="124.383" height="102.567" transform="translate(268.567 102.567) rotate(180)" fill="#3f3d56" opacity="0.3"/>
      <rect id="Rectangle_1707" data-name="Rectangle 1707" width="36.83" height="48.867" transform="translate(223.798 9.397)" fill="#f2f2f2"/>
      <rect id="Rectangle_1708" data-name="Rectangle 1708" width="35.507" height="2.953" transform="translate(201.082 12.351) rotate(180)" fill="#f2f2f2"/>
      <rect id="Rectangle_1709" data-name="Rectangle 1709" width="12.571" height="2.953" transform="translate(236.369 68.736) rotate(180)" fill="#f2f2f2"/>
      <rect id="Rectangle_1710" data-name="Rectangle 1710" width="35.948" height="2.953" transform="translate(260.187 74.106) rotate(180)" fill="#f2f2f2"/>
      <rect id="Rectangle_1711" data-name="Rectangle 1711" width="51.165" height="2.953" transform="translate(209.463 23.091) rotate(180)" fill="#f2f2f2"/>
      <rect id="Rectangle_1712" data-name="Rectangle 1712" width="51.165" height="2.953" transform="translate(209.463 31.414) rotate(180)" fill="#f2f2f2"/>
      <rect id="Rectangle_1713" data-name="Rectangle 1713" width="51.165" height="2.953" transform="translate(209.463 39.738) rotate(180)" fill="#f2f2f2"/>
      <rect id="Rectangle_1714" data-name="Rectangle 1714" width="51.165" height="2.953" transform="translate(209.463 48.061) rotate(180)" fill="#f2f2f2"/>
      <rect id="Rectangle_1715" data-name="Rectangle 1715" width="51.165" height="2.953" transform="translate(209.463 56.385) rotate(180)" fill="#f2f2f2"/>
      <rect id="Rectangle_1716" data-name="Rectangle 1716" width="51.165" height="2.953" transform="translate(209.463 64.708) rotate(180)" fill="#f2f2f2"/>
      <rect id="Rectangle_1717" data-name="Rectangle 1717" width="51.165" height="2.953" transform="translate(209.463 73.032) rotate(180)" fill="#f2f2f2"/>
      <path id="Path_27129" data-name="Path 27129" d="M841.988,221.784a6.154,6.154,0,0,1,1.783-1.089,38.659,38.659,0,0,1,12.565-3.33c3.736-.323,7.786.061,10.7,2.919a4.359,4.359,0,0,1,1.086,1.54,6.814,6.814,0,0,1,.137,3.139,4.179,4.179,0,0,1-.25,1.182,2.035,2.035,0,0,1-2.2,1.12,24.182,24.182,0,0,1-2.456-.742,9.085,9.085,0,0,0-1.551-.192l-5.195-.342a31.164,31.164,0,0,0-9.672.371,8.545,8.545,0,0,0-2.794,1.172c-.724.495-1.211,1.2-1.883.291C841.082,226.218,840.429,223.267,841.988,221.784Z" transform="translate(-612.659 -184.483)" fill="#2f2e41"/>
      <path id="Path_27130" data-name="Path 27130" d="M868.052,234.913s6.988-3.814,9.638.587-1.446,2.64-1.446,2.64l-4.578,1.76-5.06-1.173Z" transform="translate(-630.673 -194.815)" fill="#f2f2f2"/>
      <path id="Path_27131" data-name="Path 27131" d="M872.741,225.164s.964,5.574.241,7.04,4.1,3.52,4.1,3.52l4.578-2.347s-1.2-9.094,0-10.854Z" transform="translate(-635 -187.852)" fill="#ffb9b9"/>
      <path id="Path_27132" data-name="Path 27132" d="M872.741,225.164s.964,5.574.241,7.04,4.1,3.52,4.1,3.52l4.578-2.347s-1.2-9.094,0-10.854Z" transform="translate(-635 -187.852)" opacity="0.1"/>
      <path id="Path_27133" data-name="Path 27133" d="M875.747,198.607c0,4.859-3.238,8.8-7.229,8.8a5.834,5.834,0,0,1-1.284-.141c-3.764-.828-6.347-5.082-5.892-9.706s3.789-8.016,7.607-7.739S875.747,193.95,875.747,198.607Z" transform="translate(-626.922 -166.869)" fill="#ffb9b9"/>
      <path id="Path_27134" data-name="Path 27134" d="M869.98,255.829H846.927l.523-2.763,2.263-12,2.616-2.151,0,0,1.228-1.012.611-.5s.362.2.779.475c.121.083.245.169.368.26,0,0,0,0,0,0a4.423,4.423,0,0,1,.569.481c.033.038.062.07.09.1.459.558,1.8,3.523,4.012,2.006a3.358,3.358,0,0,0,.324-.247,17.03,17.03,0,0,0,1.647-1.592c.465-.518.768-.918,1.014-1.195a1.671,1.671,0,0,1,.375-.338.613.613,0,0,1,.337-.1c.723,0,1.687,1.759,1.687,1.759l.029.1,0,.008,3.041,11.116Z" transform="translate(-616.791 -197.297)" fill="#f2f2f2"/>
      <path id="Path_27135" data-name="Path 27135" d="M836.632,252.53h6.987a25.179,25.179,0,0,0-.126-2.943c-.214-1.963-.739-3.853-1.07-5.792A29.493,29.493,0,0,1,842,238.63c0-.239.007-.481.024-.722a3.85,3.85,0,0,1,.382-1.568c.165-.309.393-.572.569-.867a2.084,2.084,0,0,0,.161-.309v0q.033-.08.06-.164a1.58,1.58,0,0,0,.066-.4,2.434,2.434,0,0,0-1.332-2.105,4.145,4.145,0,0,0-3.121-.153,13.5,13.5,0,0,0-2.933,1.461c-.315.188-.629.381-.931.6a4.853,4.853,0,0,0-.986.913,8.424,8.424,0,0,0-1.343,3.525,9,9,0,0,0-.254,3.007c0,.032.009.067.013.1.262,1.673,1.383,2.929,1.98,4.471a11.8,11.8,0,0,1,.371,5.821c-.013.1-.029.2-.044.3h1.947Z" transform="translate(-606.496 -193.997)" fill="#2f2e41"/>
      <path id="Path_27136" data-name="Path 27136" d="M911.392,238.159a79.144,79.144,0,0,0-1.9,10.743h-9.96q-.39-1.3-.779-2.6-.31-.981-.531-2A11.549,11.549,0,0,1,898,241.9c0-.193.007-.389.02-.583a.01.01,0,0,0,0-.011,11.371,11.371,0,0,1,.576-2.972,12.225,12.225,0,0,1,.507-1.254c.463-1.02,1.023-1.982,1.522-2.98a14.967,14.967,0,0,0,.809-1.912.012.012,0,0,1,0-.008,8.16,8.16,0,0,0,.456-2.672c-.015-1.184-1.661-3.249.128-3.05,2.441.269,4.539,1.979,6.451,3.928.51.521,1.008,1.061,1.5,1.592a6.186,6.186,0,0,1,1.778,2.935,3.765,3.765,0,0,1,.064.585A9.6,9.6,0,0,1,911.392,238.159Z" transform="translate(-652.815 -190.368)" fill="#2f2e41"/>
      <path id="Path_27137" data-name="Path 27137" d="M873.187,243.408a6.91,6.91,0,0,0-1.131-2.22,3.977,3.977,0,0,0-1.727-1.065,7.888,7.888,0,0,0-2.534-.442,2.607,2.607,0,0,0-2.637,1.45,4.081,4.081,0,0,0,.269,2.843,2.816,2.816,0,0,0,.714,1.175,3.414,3.414,0,0,0,1.531.472,6.541,6.541,0,0,1,2.263,1.248l1.787,1.315,3.07,2.259c-.081-.06-.052-2.623-.146-3.043A33.12,33.12,0,0,0,873.187,243.408Z" transform="translate(-629.538 -198.856)" fill="#ffb9b9"/>
      <path id="Path_27138" data-name="Path 27138" d="M869.957,185.833a2.232,2.232,0,0,0-.8-1.265,6.183,6.183,0,0,0-.168-1.669c-.438-1.576-1.475-1.485-2.453-2.182-.425-.3-.4-.569-.619-1.066a3.7,3.7,0,0,0-1.252-1.555,4.13,4.13,0,0,0-2.033-1.05c-1.561-.13-2.757,1.658-4.249,2.231-.657.253-1.364.263-2.025.5a2.081,2.081,0,0,0-1.419,1.64c-.046.384.035.777-.011,1.16a5.171,5.171,0,0,1-1.009,1.923,5.633,5.633,0,0,0-.07,4.853,7.152,7.152,0,0,0,.469.893,6.407,6.407,0,0,0,.495,2.04,9.473,9.473,0,0,0,2.938,3.572,10.192,10.192,0,0,1-.173-1.523,1.265,1.265,0,0,1,.053-.5c.13-.331.474-.419.736-.6a2.469,2.469,0,0,0,.772-1.968c.016-.76-.117-1.522-.051-2.278a1.37,1.37,0,0,1,.35-.916,1.04,1.04,0,0,1,.66-.192,6.3,6.3,0,0,0,3.257-.721,4.568,4.568,0,0,1,1.014-.624c.834-.265,1.687.447,2.167,1.318s.72,1.908,1.164,2.808,1.21,1.7,2.067,1.6a.319.319,0,0,0,.256-.139.552.552,0,0,0,.047-.266l.048-3.991A7.3,7.3,0,0,0,869.957,185.833Z" transform="translate(-621.314 -158.681)" fill="#2f2e41"/>
      <path id="Path_27139" data-name="Path 27139" d="M831.191,258.93q.235,2.356.284,4.728h-6.065v-6.205c.031-.15.064-.3.1-.446a17.011,17.011,0,0,1,1.866-3.853c.033-.062.068-.124.1-.185a10.891,10.891,0,0,0,.754-1.657,10.589,10.589,0,0,1,.426-1.78c.719-.508,1.3,1.662,1.4,2.145.353,1.721.659,3.458.891,5.212Q831.091,257.908,831.191,258.93Z" transform="translate(-601.613 -205.125)" fill="#2f2e41"/>
      <path id="Path_27140" data-name="Path 27140" d="M905.887,260.7H891.964c-.119-.341-.236-.682-.359-1.02a31.6,31.6,0,0,0-3.339-6.667,1.926,1.926,0,0,1-.412-1,.992.992,0,0,1,.091-.448,2.44,2.44,0,0,1,1.226-.991,4.211,4.211,0,0,0,1.275-.977,3.246,3.246,0,0,0,.829-1.78l.194.309c.157.252.315.5.476.752,1.544,2.414,3.24,4.793,5.372,6.224a8.271,8.271,0,0,0,1.755.91.386.386,0,0,0,.37,0,.587.587,0,0,0,.161-.36c.19-.967.256-1.963.395-2.943a19.305,19.305,0,0,1,1.453-5.1c.395-.894,1.678-4.162,2.492-2.1q.351.89.706,1.786c.148.379.3.754.448,1.133a8.325,8.325,0,0,1,.726,3.947Q905.856,256.545,905.887,260.7Z" transform="translate(-645.66 -202.169)" fill="#2f2e41"/>
      <path id="Path_27141" data-name="Path 27141" d="M842.623,276.994h1.206l-.684-2.763-.986-3.982a16.143,16.143,0,0,1-1.056,6c-.095.244-.2.491-.278.744Z" transform="translate(-612.487 -218.461)" opacity="0.1"/>
      <path id="Path_27142" data-name="Path 27142" d="M927.688,265.38a3.454,3.454,0,0,0,.115,1.743,21.175,21.175,0,0,1,.526,5.1.214.214,0,0,1-.04.17.136.136,0,0,1-.138.052,1.671,1.671,0,0,1-1.57-.453Z" transform="translate(-672.98 -215.338)" opacity="0.1"/>
      <rect id="Rectangle_1718" data-name="Rectangle 1718" width="124.383" height="102.567" transform="translate(0 1.056)" fill="#3f3d56" opacity="0.3"/>
      <rect id="Rectangle_1719" data-name="Rectangle 1719" width="36.83" height="48.867" transform="translate(7.939 10.453)" fill="#f2f2f2"/>
      <rect id="Rectangle_1720" data-name="Rectangle 1720" width="35.507" height="2.953" transform="translate(67.485 10.453)" fill="#f2f2f2"/>
      <rect id="Rectangle_1721" data-name="Rectangle 1721" width="12.571" height="2.953" transform="translate(8.38 66.838)" fill="#f2f2f2"/>
      <rect id="Rectangle_1722" data-name="Rectangle 1722" width="35.948" height="2.953" transform="translate(8.38 72.208)" fill="#f2f2f2"/>
      <rect id="Rectangle_1723" data-name="Rectangle 1723" width="51.165" height="2.953" transform="translate(59.104 21.193)" fill="#f2f2f2"/>
      <rect id="Rectangle_1724" data-name="Rectangle 1724" width="51.165" height="2.953" transform="translate(59.104 29.517)" fill="#f2f2f2"/>
      <rect id="Rectangle_1725" data-name="Rectangle 1725" width="51.165" height="2.953" transform="translate(59.104 37.84)" fill="#f2f2f2"/>
      <rect id="Rectangle_1726" data-name="Rectangle 1726" width="51.165" height="2.953" transform="translate(59.104 46.164)" fill="#f2f2f2"/>
      <rect id="Rectangle_1727" data-name="Rectangle 1727" width="51.165" height="2.953" transform="translate(59.104 54.487)" fill="#f2f2f2"/>
      <rect id="Rectangle_1728" data-name="Rectangle 1728" width="51.165" height="2.953" transform="translate(59.104 62.811)" fill="#f2f2f2"/>
      <rect id="Rectangle_1729" data-name="Rectangle 1729" width="51.165" height="2.953" transform="translate(59.104 71.134)" fill="#f2f2f2"/>
      <path id="Path_27143" data-name="Path 27143" d="M193.988,261.661H189.2q-.552-1.808-.981-3.662a8.032,8.032,0,0,0-1.561-3.874,7.287,7.287,0,0,1-.673-1.112,6.228,6.228,0,0,1-.423-3.166q.041-.452.124-.9c.21-1.146.56-2.247.853-3.364a1.126,1.126,0,0,1,.856-.862,1.42,1.42,0,0,1,.935.132,1.1,1.1,0,0,1,.187.118,3.655,3.655,0,0,1,1.012,1.885q1.5,4.9,2.995,9.795.291.95.582,1.906c.287.934.571,1.869.814,2.822C193.944,261.475,193.966,261.567,193.988,261.661Z" transform="translate(-150.22 -202.072)" fill="#d0cde1"/>
      <path id="Path_27144" data-name="Path 27144" d="M125.854,170.763a4.177,4.177,0,0,0-2.513,3.135c-.113.7-.044,1.419-.139,2.118a8.152,8.152,0,0,1-2.231,4.013,7.119,7.119,0,0,0-2.032,4.131c-.077,1.8.994,3.483.809,5.27-.215,2.076-2.016,3.421-2.461,5.441a6.176,6.176,0,0,0,.666,3.994,9.773,9.773,0,0,0,5.173,4.638,17.961,17.961,0,0,0,6.479,1.028c2.662.034,5.553-.244,7.553-2.384a8.013,8.013,0,0,0,2.009-4.8c.19-2.478-.659-5.039-.074-7.423.369-1.5,1.294-2.871,1.156-4.428-.135-1.523-1.227-2.6-1.977-3.832a17.189,17.189,0,0,1-1.54-3.842l-1.424-4.575a5.613,5.613,0,0,0-1.211-2.436c-1.168-1.105-3.045-.888-4.41-.66A17.172,17.172,0,0,0,125.854,170.763Z" transform="translate(-102.018 -154.148)" fill="#2f2e41"/>
      <path id="Path_27145" data-name="Path 27145" d="M149.561,212.425s.139,5.09-.279,5.6,1.672,3.9,1.672,3.9l3.762-.17,1.951-1.866L155,217.175s-.7-4.411-.139-5.429S149.561,212.425,149.561,212.425Z" transform="translate(-124.624 -180.732)" fill="#a0616a"/>
      <path id="Path_27146" data-name="Path 27146" d="M149.561,212.425s.139,5.09-.279,5.6,1.672,3.9,1.672,3.9l3.762-.17,1.951-1.866L155,217.175s-.7-4.411-.139-5.429S149.561,212.425,149.561,212.425Z" transform="translate(-124.624 -180.732)" opacity="0.1"/>
      <ellipse id="Ellipse_854" data-name="Ellipse 854" cx="5.017" cy="6.108" rx="5.017" ry="6.108" transform="translate(22.22 21.429)" fill="#a0616a"/>
      <path id="Path_27147" data-name="Path 27147" d="M127.223,249.12h4.067c.152-.336.3-.685.461-1v0a2.588,2.588,0,0,1,.741-.945,2.873,2.873,0,0,0,.549-.4,1.868,1.868,0,0,0,.335-.762,14.17,14.17,0,0,0,.459-3.292c.007-.376,0-.757.018-1.133a5.752,5.752,0,0,1,.093-.873,7.7,7.7,0,0,1,.6-1.659q.827-1.832,1.658-3.665a3.514,3.514,0,0,0-.245-2.451c-.077-.169-.161-.338-.249-.5a11.133,11.133,0,0,0-1.182-1.837,9.715,9.715,0,0,0-3.365-2.774,1.833,1.833,0,0,1-.452-.269,2.24,2.24,0,0,1-.415-.6c-.441-.808-.979-1.718-1.775-1.667a.916.916,0,0,0-.842-.07,1,1,0,0,0-.124.048,7.456,7.456,0,0,0-.884.561,3.483,3.483,0,0,1-2.382.526.694.694,0,0,1-.278-.086,1.52,1.52,0,0,1-.256-.252,1.267,1.267,0,0,0-1.462-.285,1.364,1.364,0,0,0-.582.5c-.146.223-.247.491-.408.7a1.984,1.984,0,0,1-1.714.561,13.107,13.107,0,0,0-3.765.422,6.721,6.721,0,0,0-2.964,1.745l0,0c-.119.124-.229.25-.34.384a3.143,3.143,0,0,0-.587,1.02c-.168.526-.146,1.12-.3,1.654-.168.6-.54,1.087-.69,1.689a8.013,8.013,0,0,1-.289,1.375l.024.024c.8.859,1.489,1.987,2.294,2.838a5.422,5.422,0,0,1,1.164,1.584,2.967,2.967,0,0,1,.143.43,8,8,0,0,1,.119,1.563,14.08,14.08,0,0,0,2.47,6.785c.024.04.049.081.075.118Z" transform="translate(-97.415 -189.531)" fill="#d0cde1"/>
      <path id="Path_27148" data-name="Path 27148" d="M105.536,257.338q-.285,2.4-.573,4.806a25.067,25.067,0,0,1-.393,2.545c-.115.518-.262,1.026-.366,1.544H98.461a8.126,8.126,0,0,1,.055-.867,16.784,16.784,0,0,1,.717-3.01q1-3.294,2-6.594c.284-.937.529-1.917.842-2.846.055-.172.115-.344.179-.51.333-.891,1.257-.526,1.941-.392a1.6,1.6,0,0,1,.543.188,1.562,1.562,0,0,1,.509.585,6.958,6.958,0,0,1,.34,4.108Z" transform="translate(-88.813 -206.644)" fill="#d0cde1"/>
      <path id="Path_27149" data-name="Path 27149" d="M171.422,289.2c.009.038.1.438.26,1h-4.788c2.373-.5,4.528-1,4.528-1Z" transform="translate(-137.086 -230.614)" fill="#2f2e41"/>
      <ellipse id="Ellipse_855" data-name="Ellipse 855" cx="5.435" cy="3.563" rx="5.435" ry="3.563" transform="translate(22.22 20.411)" fill="#2f2e41"/>
      <path id="Path_27232" data-name="Path 27232" d="M0,0H124.383V102.567H0Z" transform="translate(79.682 38.814)" fill="#d9d9d9"/>
      <ellipse id="Ellipse_856" data-name="Ellipse 856" cx="14.556" cy="1.879" rx="14.556" ry="1.879" transform="translate(171.426 130.641)" opacity="0.1"/>
      <rect id="Rectangle_1731" data-name="Rectangle 1731" width="36.83" height="48.867" transform="translate(87.622 48.212)" fill="#f2f2f2"/>
      <path id="Path_27150" data-name="Path 27150" d="M394.868,294.561a.507.507,0,0,0,.634-.319c.509-.977-.428-2.237-.225-3.368.163-.906,1.008-1.443,1.181-2.346.168-.877-.35-1.866,0-2.66a1.332,1.332,0,0,1,1.531-.677,15.766,15.766,0,0,0,1.7.458,7.042,7.042,0,0,0,2.26-.561,1.788,1.788,0,0,1,2.117.645c.57.989-.008,2.366.19,3.549.157.94.8,1.718.817,2.676,0,.341-.731.066-.692.4s-.309.04-.031,0a.649.649,0,0,0,.418-.606c.033-.281.467-.375.462-.659-.012-.665.976-.217,1.139-.852a7.751,7.751,0,0,0-.216-4.495,10.162,10.162,0,0,1-.63-1.828,25.081,25.081,0,0,0-.156-2.681,2.709,2.709,0,0,0-2.381-1.851c-.991-.119-2,.094-2.984-.081a10.916,10.916,0,0,0-2.628-.555,4.239,4.239,0,0,0-2.739,1.86,26.5,26.5,0,0,1-2.21,2.83,4.716,4.716,0,0,0-.709.743,3.423,3.423,0,0,0-.353,2.35c.119.809.379,1.581.488,2.393.1.763.071,1.542.115,2.312a4.709,4.709,0,0,0,.557,2.183,1.627,1.627,0,0,0,1.317.837c.178.005.329-.19.509-.139C394.571,294.189,394.669,294.449,394.868,294.561Z" transform="translate(-295.387 -223.913)" fill="#2f2e41"/>
      <path id="Path_27151" data-name="Path 27151" d="M375.913,382.907c.161-2.688.282-4.7.282-4.7l1.041-3.34,3.341,8.036Z" transform="translate(-284.531 -285.56)" fill="#575a89"/>
      <path id="Path_27152" data-name="Path 27152" d="M375.913,382.907c.161-2.688.282-4.7.282-4.7l1.041-3.34,3.341,8.036Z" transform="translate(-284.531 -285.56)" opacity="0.1"/>
      <path id="Path_27153" data-name="Path 27153" d="M402.2,319.395s3.115,9.655,1.322,11.494,10.007-3.1,10.007-3.1l-.283-1.264s-3.871-1.839-1.983-7.126S402.2,319.395,402.2,319.395Z" transform="translate(-303.072 -248.473)" fill="#a0616a"/>
      <path id="Path_27154" data-name="Path 27154" d="M402.2,319.395s3.115,9.655,1.322,11.494,10.007-3.1,10.007-3.1l-.283-1.264s-3.871-1.839-1.983-7.126S402.2,319.395,402.2,319.395Z" transform="translate(-303.072 -248.473)" opacity="0.1"/>
      <ellipse id="Ellipse_857" data-name="Ellipse 857" cx="6.609" cy="8.046" rx="6.609" ry="8.046" transform="translate(96.953 58.738)" fill="#a0616a"/>
      <path id="Path_27155" data-name="Path 27155" d="M404.8,348.117l-.073,1.756c-.095,2.274-.265,6.535-.434,11.452H378.677a16.667,16.667,0,0,1-1.63-3.552,4.566,4.566,0,0,1-.192-1.144c-.141-3.047,2.1-7.3,3.685-7.706,1.793-.462,5.192-4.828,5.192-4.828a1.012,1.012,0,0,0,.432.795v0a1.5,1.5,0,0,0,.889.236c1.107,0,5.977-2.736,7.54-3.63.307-.175.485-.279.485-.279a32.394,32.394,0,0,0,5.571,2.3A6.53,6.53,0,0,1,404.8,348.117Z" transform="translate(-285.192 -263.978)" fill="#575a89"/>
      <path id="Path_27156" data-name="Path 27156" d="M391.022,292.317a.507.507,0,0,0,.634-.319c.509-.977-.428-2.237-.225-3.368.163-.906,1.008-1.443,1.181-2.346.168-.877-.35-1.866,0-2.66a1.332,1.332,0,0,1,1.531-.677,15.764,15.764,0,0,0,1.7.459,7.044,7.044,0,0,0,2.26-.561,1.788,1.788,0,0,1,2.117.645c.569.989-.008,2.366.19,3.549.157.94,1.952,1.6,2.114.964a7.752,7.752,0,0,0-.216-4.495,10.157,10.157,0,0,1-.63-1.828,25.073,25.073,0,0,0-.156-2.68,2.708,2.708,0,0,0-2.381-1.851c-.991-.119-2,.094-2.984-.081a10.916,10.916,0,0,0-2.628-.555,4.239,4.239,0,0,0-2.739,1.86,26.523,26.523,0,0,1-2.21,2.83,4.712,4.712,0,0,0-.709.743,3.423,3.423,0,0,0-.353,2.351c.119.809.379,1.581.488,2.393.1.762.071,1.542.115,2.312a4.71,4.71,0,0,0,.557,2.183,1.626,1.626,0,0,0,1.317.837c.178.005.329-.19.509-.139C390.725,291.946,390.823,292.206,391.022,292.317Z" transform="translate(-292.674 -222.474)" fill="#2f2e41"/>
      <path id="Path_27157" data-name="Path 27157" d="M462.465,373.659h-7.476c-.569-5.08-1.039-10.391-1.039-10.391l1.511-.806,3.07-2.011s.225.65.587,1.756C459.89,364.573,461.29,369.025,462.465,373.659Z" transform="translate(-339.58 -276.312)" opacity="0.1"/>
      <path id="Path_27158" data-name="Path 27158" d="M458.942,371.4H450.5c-1.25-5.558-2.483-11.6-2.483-11.6l3.211-2.873,3.776,1.265S457.218,364.594,458.942,371.4Z" transform="translate(-335.397 -274.051)" fill="#575a89"/>
      <rect id="Rectangle_1732" data-name="Rectangle 1732" width="35.507" height="2.953" transform="translate(147.167 48.212)" fill="#707070"/>
      <rect id="Rectangle_1733" data-name="Rectangle 1733" width="12.571" height="2.953" transform="translate(88.063 104.596)" fill="#707070"/>
      <rect id="Rectangle_1734" data-name="Rectangle 1734" width="35.948" height="2.953" transform="translate(88.063 109.966)" fill="#707070"/>
      <rect id="Rectangle_1735" data-name="Rectangle 1735" width="51.165" height="2.953" transform="translate(138.787 58.952)" fill="#f2f2f2"/>
      <rect id="Rectangle_1736" data-name="Rectangle 1736" width="51.165" height="2.953" transform="translate(138.787 67.275)" fill="#f2f2f2"/>
      <rect id="Rectangle_1737" data-name="Rectangle 1737" width="51.165" height="2.953" transform="translate(138.787 75.599)" fill="#f2f2f2"/>
      <rect id="Rectangle_1738" data-name="Rectangle 1738" width="51.165" height="2.953" transform="translate(138.787 83.922)" fill="#f2f2f2"/>
      <rect id="Rectangle_1739" data-name="Rectangle 1739" width="51.165" height="2.953" transform="translate(138.787 92.246)" fill="#f2f2f2"/>
      <rect id="Rectangle_1740" data-name="Rectangle 1740" width="51.165" height="2.953" transform="translate(138.787 100.569)" fill="#f2f2f2"/>
      <rect id="Rectangle_1741" data-name="Rectangle 1741" width="51.165" height="2.953" transform="translate(138.787 108.892)" fill="#f2f2f2"/>
      <path id="Path_27159" data-name="Path 27159" d="M687.932,429.105l-13.986,17.028-5.879-7.157a1.767,1.767,0,0,0-2.842,0l-.211-.385a3.446,3.446,0,0,0,.211,3.844l7.627,9.286a1.348,1.348,0,0,0,2.168,0l15.752-19.158a3.165,3.165,0,0,0,.285-3.662h0A2.072,2.072,0,0,0,687.932,429.105Z" transform="translate(-488.118 -319.814)" fill="#57b894"/>
      <path id="Path_27160" data-name="Path 27160" d="M687.932,429.105l-13.986,17.028-5.879-7.157a1.767,1.767,0,0,0-2.842,0l-.211-.385a3.446,3.446,0,0,0,.211,3.844l7.627,9.286a1.348,1.348,0,0,0,2.168,0l15.752-19.158a3.165,3.165,0,0,0,.285-3.662h0A2.072,2.072,0,0,0,687.932,429.105Z" transform="translate(-488.118 -319.814)" fill="#469a09" opacity="0.843"/>
      <path id="Path_27161" data-name="Path 27161" d="M688.21,427.2l-13.986,17.028-5.879-7.157a1.767,1.767,0,0,0-2.842,0h0a2.837,2.837,0,0,0,0,3.46l7.627,9.286a1.348,1.348,0,0,0,2.168,0l15.752-19.158a2.836,2.836,0,0,0,0-3.46h0A1.767,1.767,0,0,0,688.21,427.2Z" transform="translate(-488.397 -318.658)" fill="#469a09"/>
      <path id="Path_27162" data-name="Path 27162" d="M859.9,661.67c0,19.2-21.982,13.261-48.9,13.261s-48.57,5.939-48.57-13.261,21.979-23.376,48.893-23.376S859.9,642.47,859.9,661.67Z" transform="translate(-557.188 -454.506)" opacity="0.1"/>
      <path id="Path_27163" data-name="Path 27163" d="M859.9,651.67c0,19.2-21.982,13.261-48.9,13.261s-48.57,5.939-48.57-13.261,21.979-23.376,48.893-23.376S859.9,632.47,859.9,651.67Z" transform="translate(-557.188 -448.093)" fill="#3f3d56"/>
      <path id="Path_27164" data-name="Path 27164" d="M751.119,525.762l-1,1.408s-12.111,1.384-11.62,3.778,14.581-3.192,14.581-3.192Z" transform="translate(-540.297 -382.333)" fill="#ffc1c7"/>
      <path id="Path_27165" data-name="Path 27165" d="M808.025,522.425s-12.943,5.585-19.988,3.192l3.277,7.979s16.711-.6,19.661-4.189S808.025,522.425,808.025,522.425Z" transform="translate(-575.249 -380.193)" fill="#707070"/>
      <path id="Path_27166" data-name="Path 27166" d="M808.025,522.425s-12.943,5.585-19.988,3.192l3.277,7.979s16.711-.6,19.661-4.189S808.025,522.425,808.025,522.425Z" transform="translate(-575.249 -380.193)" opacity="0.1"/>
      <ellipse id="Ellipse_858" data-name="Ellipse 858" cx="8.683" cy="10.572" rx="8.683" ry="10.572" transform="translate(215.327 78.302)" fill="#ffc1c7"/>
      <path id="Path_27167" data-name="Path 27167" d="M819.138,392.687a8.4,8.4,0,0,0,1.125,1.9,14.827,14.827,0,0,0,4.186,3.813,119.019,119.019,0,0,1-14.913,2.7,10.84,10.84,0,0,0-1.1-6.753,39.159,39.159,0,0,1-2.713-6.231l5.869.192c1.065.035,2.133.074,3.2.01.8-.047,2.121-.628,2.864-.414C819.222,388.355,818.453,390.991,819.138,392.687Z" transform="translate(-587.723 -293.888)" fill="#ffc1c7"/>
      <path id="Path_27168" data-name="Path 27168" d="M765.953,534.315l4.915,7.181s8.192,23.338-9.666,25.731-31.129-1.8-31.129-1.8-7.209-4.189-7.373-1a60.5,60.5,0,0,1-4.751,20.944l-3.441,9.574a6.992,6.992,0,0,0-1.311,5.186c.492,2.992-10.977,3.989-10.813,0,0,0,1.638-3.391,1.638-5.386s2.621-6.782,2.621-6.782l4.751-28.723s-.328-14.761,10.813-11.968,27.033-.6,27.033-.6l3.6-15.359Z" transform="translate(-514.827 -385.9)" fill="#2f2e41"/>
      <path id="Path_27169" data-name="Path 27169" d="M765.953,534.315l4.915,7.181s8.192,23.338-9.666,25.731-31.129-1.8-31.129-1.8-7.209-4.189-7.373-1a60.5,60.5,0,0,1-4.751,20.944l-3.441,9.574a6.992,6.992,0,0,0-1.311,5.186c.492,2.992-10.977,3.989-10.813,0,0,0,1.638-3.391,1.638-5.386s2.621-6.782,2.621-6.782l4.751-28.723s-.328-14.761,10.813-11.968,27.033-.6,27.033-.6l3.6-15.359Z" transform="translate(-514.827 -385.9)" opacity="0.1"/>
      <path id="Path_27170" data-name="Path 27170" d="M711.291,535.318s14.991-6.855,23.347,7.706c0,0,2.13,22.54-6.39,23.537s-19.66.8-22.282-2.593S686.8,551,686.8,551s-8.237-5.115-9.853,1.531-1.78,8.242-1.78,8.242-8.52,7.58-11.96,8.976c0,0-2.294,3.989-3.6,3.989s-9.339,2.194-8.519-5.186L664.352,553.8l13.271-15.758s3.768-6.782,13.435-3.191a170.89,170.89,0,0,0,19.5,5.785Z" transform="translate(-478.597 -387.428)" fill="#2f2e41"/>
      <path id="Path_27171" data-name="Path 27171" d="M681.482,721.035s3.113,9.574.492,10.771-8.192.4-8.192.4-6.553-1-8.192-.8-8.356-1.4-7.373-4.588,6.062-2.394,6.062-2.394l4.587-2.593s.491-1.995,1.638-1.2S674.929,724.426,681.482,721.035Z" transform="translate(-483.604 -507.195)" fill="#cbceda"/>
      <path id="Path_27172" data-name="Path 27172" d="M634.046,635.264s3.441,9.375-2.13,8.577-9.83-2.194-11.469-2.394c-1.576-.192-6.032-2.045-5.349-5.736a3.979,3.979,0,0,0,.044-.725c0-.5.553-1.468,4.977-1.318a5.322,5.322,0,0,0,4.587-2.792S629.622,638.455,634.046,635.264Z" transform="translate(-453.206 -449.748)" fill="#cbceda"/>
      <path id="Path_27173" data-name="Path 27173" d="M805.833,413.514s11.8-8.976,21.626,0,16.384,49.867,16.384,49.867L821.07,457.2s-.983-4.787-2.294-5.585-1.474-4.189-1.474-4.189-7.045-2.593-6.553-12.566S805.833,413.514,805.833,413.514Z" transform="translate(-587.803 -307.785)" fill="#707070"/>
      <path id="Path_27174" data-name="Path 27174" d="M791.576,421.76h-6.062s-3.6,4.987-4.1,17.553l-1.966,9.973s-4.1,11.968-1.638,13.963,7.209,1.8,8.192-2.194,7.7-27.128,7.7-27.128Z" transform="translate(-567.483 -315.632)" fill="#707070"/>
      <path id="Path_27175" data-name="Path 27175" d="M782,333.862a7.587,7.587,0,0,1,9.079,1.812c3.146,3.419,3.781,9,4.577,14.038s2.4,10.657,6.3,12.6a13.53,13.53,0,0,1-5.288-.187l5.9,6.436-9.937-3.943c-3.119-1.238-6.394-2.491-9.623-1.792-5.35,1.158-9.074,7.281-14.213,9.432l.571-3.392-3.447-.032a8.009,8.009,0,0,0,1.975-2.817,1.834,1.834,0,0,0-1.319-.84c-1.437-10.913,3.886-21.7,10.823-28.831,1.364-1.4,2.874-2.749,4.636-3.1a3.855,3.855,0,0,1,4.432,2.65" transform="translate(-559.645 -258.746)" fill="#2f2e41"/>
      <path id="Path_27176" data-name="Path 27176" d="M310.2,614.159c0,22.959,11.831,41.538,26.451,41.538" transform="translate(-238.173 -439.027)" fill="#469a09" opacity="0.725"/>
      <path id="Path_27177" data-name="Path 27177" d="M399.987,654.863c0-23.217,13.2-42,29.518-42" transform="translate(-301.513 -438.193)" fill="#4eaf08"/>
      <path id="Path_27178" data-name="Path 27178" d="M342.729,619.963c0,21.809,7.544,39.457,16.867,39.457" transform="translate(-261.122 -442.749)" fill="#469a09" opacity="0.712"/>
      <path id="Path_27179" data-name="Path 27179" d="M399.987,634c0-29.667,15.26-53.673,34.118-53.673" transform="translate(-301.513 -417.328)" fill="#469a09"/>
      <path id="Path_27180" data-name="Path 27180" d="M381.1,726.38s3.751-.141,4.882-1.121,5.77-2.15,6.051-.578,5.637,7.818,1.4,7.859-9.84-.8-10.969-1.64S381.1,726.38,381.1,726.38Z" transform="translate(-288.188 -509.417)" fill="#a8a8a8"/>
      <path id="Path_27181" data-name="Path 27181" d="M393.507,736.4c-4.235.042-9.84-.8-10.969-1.64-.859-.637-1.2-2.924-1.316-3.979l-.125.006s.238,3.683,1.366,4.52,6.734,1.681,10.969,1.64c1.223-.012,1.645-.542,1.622-1.326C394.884,736.091,394.417,736.386,393.507,736.4Z" transform="translate(-288.188 -513.819)" opacity="0.2"/>
    </g>
    <g id="Group_1078" data-name="Group 1078" transform="translate(5.396 89.668)">
      <circle id="Ellipse_901" data-name="Ellipse 901" cx="35.709" cy="35.709" r="35.709" transform="translate(0 0)" fill="#d9d9d9" opacity="0.587"/>
      <path id="Path_27300" data-name="Path 27300" d="M450.1,324.667a26.064,26.064,0,1,1,18.43-7.634A26.064,26.064,0,0,1,450.1,324.667Zm0-50.52A24.456,24.456,0,1,0,474.559,298.6,24.484,24.484,0,0,0,450.1,274.146Z" transform="translate(-414.393 -262.894)" opacity="0.2"/>
      <circle id="Ellipse_902" data-name="Ellipse 902" cx="25.26" cy="25.26" r="25.26" transform="translate(10.449 10.449)" fill="#3f3d56"/>
      <path id="Path_27301" data-name="Path 27301" d="M471.309,353.731a3.206,3.206,0,0,1,5.714-2.91l7.137,14.014a3.206,3.206,0,0,1-5.713,2.91Z" transform="translate(-454.386 -328.123)" fill="#ff6584"/>
      <path id="Path_27302" data-name="Path 27302" d="M476.816,370.689l-.329-.647a18.511,18.511,0,0,1,5.714-2.91l.329.647A10.458,10.458,0,0,0,476.816,370.689Z" transform="translate(-459.097 -343.518)" opacity="0.2"/>
      <path id="Path_27303" data-name="Path 27303" d="M487.222,391.125l-.329-.647a18.513,18.513,0,0,1,5.713-2.91l.329.647A10.458,10.458,0,0,0,487.222,391.125Z" transform="translate(-467.966 -360.935)" opacity="0.2"/>
      <path id="Path_27304" data-name="Path 27304" d="M497.629,411.56l-.329-.647a18.512,18.512,0,0,1,5.714-2.91l.329.647A10.458,10.458,0,0,0,497.629,411.56Z" transform="translate(-476.835 -378.352)" opacity="0.2"/>
      <path id="Path_27305" data-name="Path 27305" d="M508.036,432l-.329-.647a18.512,18.512,0,0,1,5.714-2.91l.329.647A10.458,10.458,0,0,0,508.036,432Z" transform="translate(-485.705 -395.768)" opacity="0.2"/>
      <path id="Path_27306" data-name="Path 27306" d="M518.442,452.43l-.329-.647a18.514,18.514,0,0,1,5.714-2.91l.329.647A10.458,10.458,0,0,0,518.442,452.43Z" transform="translate(-494.574 -413.185)" opacity="0.2"/>
      <path id="Path_27307" data-name="Path 27307" d="M435.061,389.25a3.206,3.206,0,1,1,5.713-2.91l7.137,14.014a3.206,3.206,0,1,1-5.713,2.91Z" transform="translate(-423.492 -358.395)" fill="#ff6584"/>
      <path id="Path_27308" data-name="Path 27308" d="M440.568,406.208l-.329-.647a18.511,18.511,0,0,1,5.713-2.91l.329.647A10.458,10.458,0,0,0,440.568,406.208Z" transform="translate(-428.202 -373.79)" opacity="0.2"/>
      <path id="Path_27309" data-name="Path 27309" d="M450.974,426.643l-.329-.647a18.513,18.513,0,0,1,5.713-2.91l.329.647A10.458,10.458,0,0,0,450.974,426.643Z" transform="translate(-437.072 -391.207)" opacity="0.2"/>
      <path id="Path_27310" data-name="Path 27310" d="M461.381,447.079l-.329-.647a18.513,18.513,0,0,1,5.713-2.91l.329.647A10.458,10.458,0,0,0,461.381,447.079Z" transform="translate(-445.941 -408.624)" opacity="0.2"/>
      <path id="Path_27311" data-name="Path 27311" d="M471.787,467.514l-.329-.647a18.512,18.512,0,0,1,5.713-2.91l.329.647A10.458,10.458,0,0,0,471.787,467.514Z" transform="translate(-454.811 -426.041)" opacity="0.2"/>
      <path id="Path_27312" data-name="Path 27312" d="M482.194,487.949l-.329-.647a18.513,18.513,0,0,1,5.713-2.91l.329.647A10.458,10.458,0,0,0,482.194,487.949Z" transform="translate(-463.68 -443.458)" opacity="0.2"/>
      <path id="Path_27313" data-name="Path 27313" d="M596.178,341.822h.023a3.824,3.824,0,0,0,3.58-2.4,12.516,12.516,0,1,0-16.674,6.856,3.791,3.791,0,0,0,4.21-.781A12.475,12.475,0,0,1,596.178,341.822Z" transform="translate(-543.591 -305.309)" fill="#e6e6e6"/>
      <circle id="Ellipse_903" data-name="Ellipse 903" cx="4.133" cy="4.133" r="4.133" transform="translate(42.024 24.456)" fill="#f9a825"/>
      <circle id="Ellipse_904" data-name="Ellipse 904" cx="0.487" cy="0.487" r="0.487" transform="translate(36.687 27.151)" fill="#3f3d56"/>
      <circle id="Ellipse_905" data-name="Ellipse 905" cx="0.487" cy="0.487" r="0.487" transform="translate(20.612 27.611)" fill="#3f3d56"/>
      <circle id="Ellipse_906" data-name="Ellipse 906" cx="0.487" cy="0.487" r="0.487" transform="translate(39.282 22.105)" fill="#3f3d56"/>
      <circle id="Ellipse_907" data-name="Ellipse 907" cx="0.487" cy="0.487" r="0.487" transform="translate(39.268 36.14)" fill="#3f3d56"/>
      <circle id="Ellipse_908" data-name="Ellipse 908" cx="0.487" cy="0.487" r="0.487" transform="translate(48.913 21.099)" fill="#3f3d56"/>
      <circle id="Ellipse_909" data-name="Ellipse 909" cx="0.487" cy="0.487" r="0.487" transform="translate(17.453 34.418)" fill="#3f3d56"/>
      <circle id="Ellipse_910" data-name="Ellipse 910" cx="0.487" cy="0.487" r="0.487" transform="translate(21.012 41.422)" fill="#3f3d56"/>
      <circle id="Ellipse_911" data-name="Ellipse 911" cx="1.837" cy="1.837" r="1.837" transform="translate(42.024 40.99)" fill="#ff6584"/>
      <path id="Path_27314" data-name="Path 27314" d="M649.127,497.982a1.378,1.378,0,1,1-2.756,0" transform="translate(-603.888 -455.04)" opacity="0.2"/>
      <path id="Path_27315" data-name="Path 27315" d="M646.371,488.477a1.378,1.378,0,0,1,2.756,0" transform="translate(-603.888 -445.765)" opacity="0.2"/>
      <ellipse id="Ellipse_912" data-name="Ellipse 912" cx="0.115" cy="0.172" rx="0.115" ry="0.172" transform="translate(43.057 42.024)" fill="#ff6584"/>
      <ellipse id="Ellipse_913" data-name="Ellipse 913" cx="0.115" cy="0.172" rx="0.115" ry="0.172" transform="translate(43.746 41.794)" fill="#ff6584"/>
      <ellipse id="Ellipse_914" data-name="Ellipse 914" cx="0.115" cy="0.172" rx="0.115" ry="0.172" transform="translate(43.746 43.287)" fill="#ff6584"/>
      <ellipse id="Ellipse_915" data-name="Ellipse 915" cx="0.115" cy="0.172" rx="0.115" ry="0.172" transform="translate(44.435 42.368)" fill="#ff6584"/>
      <ellipse id="Ellipse_916" data-name="Ellipse 916" cx="0.115" cy="0.172" rx="0.115" ry="0.172" transform="translate(44.32 43.631)" fill="#ff6584"/>
      <ellipse id="Ellipse_917" data-name="Ellipse 917" cx="0.115" cy="0.172" rx="0.115" ry="0.172" transform="translate(42.942 43.057)" fill="#ff6584"/>
      <circle id="Ellipse_918" data-name="Ellipse 918" cx="1.837" cy="1.837" r="1.837" transform="translate(45.698 36.053)" fill="#ff6584"/>
      <path id="Path_27316" data-name="Path 27316" d="M674,464.556a1.378,1.378,0,1,1-2.756,0" transform="translate(-625.089 -426.551)" opacity="0.2"/>
      <path id="Path_27317" data-name="Path 27317" d="M671.246,455.051a1.378,1.378,0,0,1,2.756,0" transform="translate(-625.089 -417.276)" opacity="0.2"/>
      <ellipse id="Ellipse_919" data-name="Ellipse 919" cx="0.115" cy="0.172" rx="0.115" ry="0.172" transform="translate(46.731 37.087)" fill="#ff6584"/>
      <ellipse id="Ellipse_920" data-name="Ellipse 920" cx="0.115" cy="0.172" rx="0.115" ry="0.172" transform="translate(47.42 36.857)" fill="#ff6584"/>
      <ellipse id="Ellipse_921" data-name="Ellipse 921" cx="0.115" cy="0.172" rx="0.115" ry="0.172" transform="translate(47.42 38.35)" fill="#ff6584"/>
      <ellipse id="Ellipse_922" data-name="Ellipse 922" cx="0.115" cy="0.172" rx="0.115" ry="0.172" transform="translate(48.109 37.431)" fill="#ff6584"/>
      <ellipse id="Ellipse_923" data-name="Ellipse 923" cx="0.115" cy="0.172" rx="0.115" ry="0.172" transform="translate(47.994 38.694)" fill="#ff6584"/>
      <ellipse id="Ellipse_924" data-name="Ellipse 924" cx="0.115" cy="0.172" rx="0.115" ry="0.172" transform="translate(46.617 38.12)" fill="#ff6584"/>
      <circle id="Ellipse_925" data-name="Ellipse 925" cx="1.837" cy="1.837" r="1.837" transform="translate(49.372 38.579)" fill="#6c63ff"/>
      <path id="Path_27318" data-name="Path 27318" d="M698.877,481.658a1.378,1.378,0,1,1-2.756,0" transform="translate(-646.29 -441.127)" opacity="0.2"/>
      <path id="Path_27319" data-name="Path 27319" d="M696.121,472.153a1.378,1.378,0,1,1,2.756,0" transform="translate(-646.29 -431.851)" opacity="0.2"/>
      <ellipse id="Ellipse_926" data-name="Ellipse 926" cx="0.115" cy="0.172" rx="0.115" ry="0.172" transform="translate(50.406 39.613)" fill="#6c63ff"/>
      <ellipse id="Ellipse_927" data-name="Ellipse 927" cx="0.115" cy="0.172" rx="0.115" ry="0.172" transform="translate(51.095 39.383)" fill="#6c63ff"/>
      <ellipse id="Ellipse_928" data-name="Ellipse 928" cx="0.115" cy="0.172" rx="0.115" ry="0.172" transform="translate(51.095 40.876)" fill="#6c63ff"/>
      <ellipse id="Ellipse_929" data-name="Ellipse 929" cx="0.115" cy="0.172" rx="0.115" ry="0.172" transform="translate(51.783 39.957)" fill="#6c63ff"/>
      <ellipse id="Ellipse_930" data-name="Ellipse 930" cx="0.115" cy="0.172" rx="0.115" ry="0.172" transform="translate(51.669 41.22)" fill="#6c63ff"/>
      <ellipse id="Ellipse_931" data-name="Ellipse 931" cx="0.115" cy="0.172" rx="0.115" ry="0.172" transform="translate(50.291 40.646)" fill="#6c63ff"/>
      <circle id="Ellipse_932" data-name="Ellipse 932" cx="1.837" cy="1.837" r="1.837" transform="translate(40.187 38.809)" fill="#6c63ff"/>
      <path id="Path_27320" data-name="Path 27320" d="M636.69,483.213a1.378,1.378,0,1,1-2.756,0" transform="translate(-593.288 -442.452)" opacity="0.2"/>
      <path id="Path_27321" data-name="Path 27321" d="M633.934,473.708a1.378,1.378,0,1,1,2.756,0" transform="translate(-593.288 -433.176)" opacity="0.2"/>
      <ellipse id="Ellipse_933" data-name="Ellipse 933" cx="0.115" cy="0.172" rx="0.115" ry="0.172" transform="translate(41.22 39.842)" fill="#6c63ff"/>
      <ellipse id="Ellipse_934" data-name="Ellipse 934" cx="0.115" cy="0.172" rx="0.115" ry="0.172" transform="translate(41.909 39.613)" fill="#6c63ff"/>
      <ellipse id="Ellipse_935" data-name="Ellipse 935" cx="0.115" cy="0.172" rx="0.115" ry="0.172" transform="translate(41.909 41.105)" fill="#6c63ff"/>
      <ellipse id="Ellipse_936" data-name="Ellipse 936" cx="0.115" cy="0.172" rx="0.115" ry="0.172" transform="translate(42.598 40.187)" fill="#6c63ff"/>
      <ellipse id="Ellipse_937" data-name="Ellipse 937" cx="0.115" cy="0.172" rx="0.115" ry="0.172" transform="translate(42.483 41.45)" fill="#6c63ff"/>
      <ellipse id="Ellipse_938" data-name="Ellipse 938" cx="0.115" cy="0.172" rx="0.115" ry="0.172" transform="translate(41.105 40.876)" fill="#6c63ff"/>
      <circle id="Ellipse_939" data-name="Ellipse 939" cx="1.837" cy="1.837" r="1.837" transform="translate(44.32 39.613)" fill="#6c63ff"/>
      <path id="Path_27322" data-name="Path 27322" d="M664.674,488.654a1.378,1.378,0,1,1-2.756,0" transform="translate(-617.139 -447.09)" opacity="0.2"/>
      <path id="Path_27323" data-name="Path 27323" d="M661.918,479.149a1.378,1.378,0,1,1,2.756,0" transform="translate(-617.139 -437.814)" opacity="0.2"/>
      <ellipse id="Ellipse_940" data-name="Ellipse 940" cx="0.115" cy="0.172" rx="0.115" ry="0.172" transform="translate(45.354 40.646)" fill="#6c63ff"/>
      <ellipse id="Ellipse_941" data-name="Ellipse 941" cx="0.115" cy="0.172" rx="0.115" ry="0.172" transform="translate(46.042 40.416)" fill="#6c63ff"/>
      <ellipse id="Ellipse_942" data-name="Ellipse 942" cx="0.115" cy="0.172" rx="0.115" ry="0.172" transform="translate(46.042 41.909)" fill="#6c63ff"/>
      <ellipse id="Ellipse_943" data-name="Ellipse 943" cx="0.115" cy="0.172" rx="0.115" ry="0.172" transform="translate(46.731 40.99)" fill="#6c63ff"/>
      <ellipse id="Ellipse_944" data-name="Ellipse 944" cx="0.115" cy="0.172" rx="0.115" ry="0.172" transform="translate(46.617 42.253)" fill="#6c63ff"/>
      <ellipse id="Ellipse_945" data-name="Ellipse 945" cx="0.115" cy="0.172" rx="0.115" ry="0.172" transform="translate(45.239 41.679)" fill="#6c63ff"/>
      <circle id="Ellipse_946" data-name="Ellipse 946" cx="1.837" cy="1.837" r="1.837" transform="translate(47.191 41.565)" fill="#ff6584"/>
      <path id="Path_27324" data-name="Path 27324" d="M684.107,501.869a1.378,1.378,0,1,1-2.756,0" transform="translate(-633.702 -458.352)" opacity="0.2"/>
      <path id="Path_27325" data-name="Path 27325" d="M681.352,492.364a1.378,1.378,0,1,1,2.756,0" transform="translate(-633.702 -449.077)" opacity="0.2"/>
      <ellipse id="Ellipse_947" data-name="Ellipse 947" cx="0.115" cy="0.172" rx="0.115" ry="0.172" transform="translate(48.224 42.598)" fill="#ff6584"/>
      <ellipse id="Ellipse_948" data-name="Ellipse 948" cx="0.115" cy="0.172" rx="0.115" ry="0.172" transform="translate(48.913 42.368)" fill="#ff6584"/>
      <ellipse id="Ellipse_949" data-name="Ellipse 949" cx="0.115" cy="0.172" rx="0.115" ry="0.172" transform="translate(48.913 43.861)" fill="#ff6584"/>
      <ellipse id="Ellipse_950" data-name="Ellipse 950" cx="0.115" cy="0.172" rx="0.115" ry="0.172" transform="translate(49.602 42.942)" fill="#ff6584"/>
      <ellipse id="Ellipse_951" data-name="Ellipse 951" cx="0.115" cy="0.172" rx="0.115" ry="0.172" transform="translate(49.487 44.205)" fill="#ff6584"/>
      <ellipse id="Ellipse_952" data-name="Ellipse 952" cx="0.115" cy="0.172" rx="0.115" ry="0.172" transform="translate(48.109 43.631)" fill="#ff6584"/>
      <circle id="Ellipse_953" data-name="Ellipse 953" cx="0.487" cy="0.487" r="0.487" transform="translate(24.916 35.911)" fill="#3f3d56"/>
      <path id="Path_27326" data-name="Path 27326" d="M396.865,337.764l-11.695-3.243.448-1.664,11.695,3.243Z" transform="translate(-358.226 -283.692)" fill="#f9a825"/>
      <path id="Path_27327" data-name="Path 27327" d="M538.784,559.617a32.237,32.237,0,0,1-12.123,0v-1.725a37.074,37.074,0,0,0,12.123,0Z" transform="translate(-501.859 -506.101)" fill="#f9a825"/>
      <path id="Path_27328" data-name="Path 27328" d="M547.222,524.582a32.237,32.237,0,0,1-12.123,0v-1.725a37.071,37.071,0,0,0,12.123,0Z" transform="translate(-509.051 -476.241)" fill="#f9a825"/>
      <path id="Path_27329" data-name="Path 27329" d="M575.6,538.6a32.242,32.242,0,0,1-12.124,0v-1.725a37.071,37.071,0,0,0,12.124,0Z" transform="translate(-533.241 -488.185)" fill="#f9a825"/>
      <path id="Path_27330" data-name="Path 27330" d="M582.507,551.832a32.242,32.242,0,0,1-12.123,0v-1.725a37.071,37.071,0,0,0,12.123,0Z" transform="translate(-539.125 -499.465)" fill="#f9a825"/>
      <path id="Path_27331" data-name="Path 27331" d="M449.914,362l-11.961,2.009-.277-1.7,11.961-2.009Z" transform="translate(-402.976 -307.083)" fill="#f9a825"/>
      <path id="Path_27332" data-name="Path 27332" d="M596.776,571.533a32.491,32.491,0,0,1-11.016,5.138l-.71-1.567a37.36,37.36,0,0,0,11.016-5.138Z" transform="translate(-551.625 -516.391)" fill="#f9a825"/>
      <path id="Path_27333" data-name="Path 27333" d="M590.03,536.122a32.493,32.493,0,0,1-11.016,5.138l-.71-1.567a37.364,37.364,0,0,0,11.016-5.138Z" transform="translate(-545.875 -486.21)" fill="#f9a825"/>
      <path id="Path_27334" data-name="Path 27334" d="M621.584,536.828a32.489,32.489,0,0,1-11.016,5.138l-.71-1.568a37.361,37.361,0,0,0,11.016-5.138Z" transform="translate(-572.769 -486.812)" fill="#f9a825"/>
      <path id="Path_27335" data-name="Path 27335" d="M633.3,545.928a32.493,32.493,0,0,1-11.016,5.138l-.71-1.567a37.363,37.363,0,0,0,11.016-5.138Z" transform="translate(-582.756 -494.568)" fill="#f9a825"/>
      <rect id="Rectangle_1754" data-name="Rectangle 1754" width="0.574" height="0.574" transform="translate(35.479 47.994)" fill="#00bf71"/>
      <rect id="Rectangle_1755" data-name="Rectangle 1755" width="0.574" height="0.574" transform="translate(37.201 57.984)" fill="#00bf71"/>
      <rect id="Rectangle_1756" data-name="Rectangle 1756" width="0.574" height="0.574" transform="translate(28.016 47.994)" fill="#00bf71"/>
      <rect id="Rectangle_1757" data-name="Rectangle 1757" width="0.574" height="0.574" transform="translate(41.335 55.113)" fill="#00bf71"/>
      <rect id="Rectangle_1758" data-name="Rectangle 1758" width="0.574" height="0.574" transform="translate(41.679 51.783)" fill="#00bf71"/>
      <rect id="Rectangle_1759" data-name="Rectangle 1759" width="0.804" height="0.459" transform="translate(32.118 49.76) rotate(34.156)" fill="#00bf71"/>
      <rect id="Rectangle_1760" data-name="Rectangle 1760" width="0.804" height="0.459" transform="translate(38.892 51.023) rotate(34.156)" fill="#00bf71"/>
      <rect id="Rectangle_1761" data-name="Rectangle 1761" width="0.804" height="0.459" transform="translate(30.625 53.204) rotate(34.156)" fill="#00bf71"/>
      <rect id="Rectangle_1762" data-name="Rectangle 1762" width="0.804" height="0.459" transform="translate(35.953 52.958) rotate(124.156)" fill="#00bf71"/>
      <rect id="Rectangle_1763" data-name="Rectangle 1763" width="0.804" height="0.459" transform="translate(39.053 53.761) rotate(124.156)" fill="#00bf71"/>
      <rect id="Rectangle_1764" data-name="Rectangle 1764" width="0.804" height="0.459" transform="translate(47.32 51.006) rotate(124.156)" fill="#00bf71"/>
      <g id="Group_1079" data-name="Group 1079" transform="translate(46.973 31.057)">
        <rect id="Rectangle_1749" data-name="Rectangle 1749" width="1.595" height="1.595" transform="translate(0 9.005)" fill="#e6e6e6"/>
        <rect id="Rectangle_1750" data-name="Rectangle 1750" width="1.595" height="1.595" transform="translate(1.087 5.745)" fill="#e6e6e6"/>
        <rect id="Rectangle_1751" data-name="Rectangle 1751" width="1.595" height="1.595" transform="translate(4.827 7.052) rotate(36.562)" fill="#e6e6e6"/>
        <rect id="Rectangle_1752" data-name="Rectangle 1752" width="1.595" height="1.595" transform="translate(7.709 9.878) rotate(36.562)" fill="#e6e6e6"/>
        <rect id="Rectangle_1753" data-name="Rectangle 1753" width="1.595" height="1.595" transform="translate(2.819 11.509) rotate(36.562)" fill="#e6e6e6"/>
        <circle id="Ellipse_898" data-name="Ellipse 898" cx="0.326" cy="0.326" r="0.326" transform="translate(7.52 4.455)" fill="#3f3d56"/>
        <circle id="Ellipse_900" data-name="Ellipse 900" cx="0.326" cy="0.326" r="0.326" transform="translate(6.434)" fill="#3f3d56"/>
      </g>
    </g>
  </g>
</svg>
