<svg xmlns="http://www.w3.org/2000/svg" xmlns:xlink="http://www.w3.org/1999/xlink" width="287.58" height="264.014" viewBox="0 0 287.58 264.014">
  <defs>
    <linearGradient id="linear-gradient" x1="0.5" y1="1" x2="0.5" gradientUnits="objectBoundingBox">
      <stop offset="0" stop-color="gray" stop-opacity="0.251"/>
      <stop offset="0.54" stop-color="gray" stop-opacity="0.122"/>
      <stop offset="1" stop-color="gray" stop-opacity="0.102"/>
    </linearGradient>
    <linearGradient id="linear-gradient-2" y2="0" xlink:href="#linear-gradient"/>
  </defs>
  <g id="User_onbaording_1_image" data-name="User onbaording 1 image" transform="translate(-260.001 -150)">
    <g id="Group_1046" data-name="Group 1046" transform="translate(300.988 195.99)">
      <path id="Path_26961" data-name="Path 26961" d="M874.3,210.142c8.254,12.043,6.428,27.645,6.428,27.645s-15.21-3.925-23.464-15.968-6.428-27.645-6.428-27.645S866.041,198.1,874.3,210.142Z" transform="translate(-658.034 -169.888)" fill="#2f2e41"/>
      <path id="Path_26962" data-name="Path 26962" d="M907.791,192.769c.966,14.569,12.053,25.7,12.053,25.7s9.522-12.493,8.556-27.062-12.053-25.7-12.053-25.7S906.825,178.2,907.791,192.769Z" transform="translate(-697.468 -150.215)" fill="#ffd54f"/>
      <path id="Path_26963" data-name="Path 26963" d="M578.877,115.89l112.07,56.344a5.3,5.3,0,0,1,2.907,5.092l-6.511,96.447a2.626,2.626,0,0,1-3.8,2.166l-114.625-58.5,5.885-99.2a2.818,2.818,0,0,1,4.079-2.351Z" transform="translate(-463.325 -115.58)" fill="#d0cde1"/>
      <path id="Path_26964" data-name="Path 26964" d="M583.6,122.268l109.317,54.96a5.169,5.169,0,0,1,2.836,4.967L689.4,276.274a2.561,2.561,0,0,1-3.711,2.113L573.88,221.325l5.74-96.763a2.749,2.749,0,0,1,3.979-2.293Z" transform="translate(-466.758 -119.993)" fill="#3f3d56"/>
      <path id="Path_26965" data-name="Path 26965" d="M601.141,145.96l99.092,49.82a4.686,4.686,0,0,1,2.57,4.5l-5.757,85.279a2.322,2.322,0,0,1-3.364,1.916L592.331,235.752l5.2-87.713a2.492,2.492,0,0,1,3.607-2.079Z" transform="translate(-479.509 -136.385)" fill="#fff"/>
      <path id="Path_26966" data-name="Path 26966" d="M286.03,490.881l112.213,56.512a7.47,7.47,0,0,0,6.73-.009l83.012-42.139a3.483,3.483,0,0,0,.526-3.5,7.8,7.8,0,0,0-.614-1.513l-11.312-5.95L381.477,446.83l-5.682-3.017a10.522,10.522,0,0,0-9.773-.04L286,485.344a3.107,3.107,0,0,0,.035,5.538Z" transform="translate(-266.647 -341.562)" fill="#d0cde1"/>
      <path id="Path_26967" data-name="Path 26967" d="M286.027,591.584,398.24,648.1a7.471,7.471,0,0,0,6.73-.009l83.012-42.14a3.483,3.483,0,0,0,.526-3.5l-82.764,43.019a7.22,7.22,0,0,1-6.549.056L284.352,588.309A3.094,3.094,0,0,0,286.027,591.584Z" transform="translate(-266.644 -442.265)" opacity="0.1"/>
      <path id="Path_26968" data-name="Path 26968" d="M493.865,611.412l-36.34-18.364a5.107,5.107,0,0,0-4.709.054l-21.081,11.263a1.508,1.508,0,0,0,.032,2.677l37.053,18.685a4.2,4.2,0,0,0,3.95-.091l21.165-11.924a1.3,1.3,0,0,0-.069-2.3Z" transform="translate(-367.973 -445.161)" opacity="0.1"/>
      <path id="Path_26969" data-name="Path 26969" d="M568.179,514.563l-39.105,20.775a3.181,3.181,0,0,1-2.928.029l-110.49-55.875a1.879,1.879,0,0,1,.014-3.361l38.187-18.9a4.142,4.142,0,0,1,3.7.013l110.6,55.727a.9.9,0,0,1,.017,1.592Z" transform="translate(-356.701 -351.382)" opacity="0.1"/>
      <rect id="Rectangle_1686" data-name="Rectangle 1686" width="0.439" height="40.197" transform="matrix(0.447, -0.894, 0.894, 0.447, 148.895, 59.965)" fill="#ffd54f"/>
      <rect id="Rectangle_1687" data-name="Rectangle 1687" width="0.438" height="40.395" transform="translate(148.888 65.237) rotate(-62.909)" fill="#ffd54f"/>
      <rect id="Rectangle_1688" data-name="Rectangle 1688" width="0.439" height="23.138" transform="matrix(0.455, -0.89, 0.89, 0.455, 155.473, 75.308)" fill="#ffd54f"/>
      <path id="Path_26970" data-name="Path 26970" d="M336.242,425.467s-8.767-3.82-12.885.215S334.382,428.39,336.242,425.467Z" transform="translate(-293.139 -328.598)" fill="#3f3d56"/>
      <path id="Path_26971" data-name="Path 26971" d="M313.844,358.78c2.946-4.978,8.775-5.21,8.775-5.21s5.68-.726,9.324,6.856c3.4,7.067,8.084,13.891.755,15.545l-1.324-4.12-.82,4.427a28.666,28.666,0,0,1-3.136.054c-7.849-.253-15.323.074-15.083-2.742C312.656,369.844,311.009,363.57,313.844,358.78Z" transform="translate(-285.88 -280.029)" fill="#2f2e41"/>
      <path id="Path_26972" data-name="Path 26972" d="M290.033,662.62s3.719,6.908,6.111,6.908,2.125,4.516,1.594,5.579a6.311,6.311,0,0,0,.266,6.908,4.238,4.238,0,0,1,.122,3.845,3.364,3.364,0,0,1-6.505-1.327c0-.042,0-.084.007-.127.266-4.251-1.86-10.893-3.985-12.487s-3.985-5.845-3.985-5.845Z" transform="translate(-266.192 -493.62)" fill="#ffb8b8"/>
      <path id="Path_26973" data-name="Path 26973" d="M367.86,657.46s-3.719,6.908-6.111,6.908-2.125,4.517-1.594,5.579a6.311,6.311,0,0,1-.266,6.908,4.238,4.238,0,0,0-.122,3.845,3.364,3.364,0,0,0,6.505-1.327q0-.063-.007-.127c-.266-4.251,1.86-10.893,3.985-12.487s3.985-5.845,3.985-5.845Z" transform="translate(-318.513 -490.054)" fill="#ffb8b8"/>
      <path id="Path_26974" data-name="Path 26974" d="M273.545,540.841l1.594,3.454s23.38,7.7,21.254,16.738-12.487,23.114-14.081,22.583-10.1-2.125-10.361-6.642,6.111-12.487,6.111-12.487l-8.767-7.97-12.758-.266-10.887,8.236s11.424,10.1,6.376,14.081-12.487,6.642-13.55,5.048-13.018-25.24-11.159-27.365,20.723-10.1,20.723-10.1l5.048-7.173,19.66-1.063Z" transform="translate(-227.121 -407.441)" fill="#2f2e41"/>
      <path id="Path_26975" data-name="Path 26975" d="M336.362,400.986s-1.328,8.767,1.328,9.83-5.314,5.579-5.314,5.579H327.86l-2.922-6.111s2.657-4.782,1.063-9.3S336.362,400.986,336.362,400.986Z" transform="translate(-294.72 -311.423)" fill="#ffb8b8"/>
      <path id="Path_26976" data-name="Path 26976" d="M336.362,400.986s-1.328,8.767,1.328,9.83-5.314,5.579-5.314,5.579H327.86l-2.922-6.111s2.657-4.782,1.063-9.3S336.362,400.986,336.362,400.986Z" transform="translate(-294.72 -311.423)" opacity="0.1"/>
      <path id="Path_26977" data-name="Path 26977" d="M329.9,429.557s-2.922,3.188-3.454,3.719-2.922,3.454-7.97-.8-5.579.8-5.579.8v31.881s4.251-1.86,7.7,0,10.627-.531,10.627-.531l1.328-32.944Z" transform="translate(-286.399 -332.555)" fill="#d0cde1"/>
      <path id="Path_26978" data-name="Path 26978" d="M353.988,428.5a6.115,6.115,0,0,1,4.608,0c2.125,1.063,9.564,6.376,9.033,8.767s-7.439,19.129-2.657,27.1,5.579,10.1,5.579,10.1l-11.69-6.111s-9.033-5.579-8.236-9.033S353.988,428.5,353.988,428.5Z" transform="translate(-312.438 -331.498)" fill="#3f3d56"/>
      <path id="Path_26979" data-name="Path 26979" d="M291.587,429.557s-5.576.531-5.842,1.063-8.369,2.79-7.837,5.181,7.837,23.778,4.649,27.763-8.5,9.565-6.642,10.1,5.048-.8,8.236,0,10.627-5.845,9.83-13.018S293.975,431.416,291.587,429.557Z" transform="translate(-260.576 -332.555)" fill="#3f3d56"/>
      <path id="Path_26980" data-name="Path 26980" d="M358.58,590.847V593.5s1.328,6.111-2.922,5.845-1.594-7.439-1.594-7.439l.266-2.391Z" transform="translate(-314.281 -443.101)" fill="#ffb8b8"/>
      <path id="Path_26981" data-name="Path 26981" d="M320.525,594.679s2.922,6.111,0,6.642-5.048-3.454-5.048-4.516S320.525,594.679,320.525,594.679Z" transform="translate(-288.182 -446.667)" fill="#ffb8b8"/>
      <ellipse id="Ellipse_835" data-name="Ellipse 835" cx="0.531" cy="1.063" rx="0.531" ry="1.063" transform="translate(27.959 84.913)" fill="#ffb8b8"/>
      <ellipse id="Ellipse_836" data-name="Ellipse 836" cx="0.531" cy="1.063" rx="0.531" ry="1.063" transform="translate(43.634 84.913)" fill="#ffb8b8"/>
      <path id="Path_26982" data-name="Path 26982" d="M290.016,440.737s-6.642,0-6.376,2.657,9.033,48.354,9.033,48.354,3.719-3.454,6.908-2.657Z" transform="translate(-266.174 -340.281)" fill="#3f3d56"/>
      <path id="Path_26983" data-name="Path 26983" d="M363.945,443.317s6.642,1.328,6.642,5.314-9.564,42.243-10.893,42.243-6.376-.8-6.376-2.125S363.945,443.317,363.945,443.317Z" transform="translate(-314.333 -342.064)" fill="#3f3d56"/>
      <path id="Path_26984" data-name="Path 26984" d="M369.616,468.687l-5.978,23.377S366.428,471.61,369.616,468.687Z" transform="translate(-321.465 -359.597)" opacity="0.2"/>
      <path id="Path_26985" data-name="Path 26985" d="M307.723,458.054l6.046,30.565S311.836,459.817,307.723,458.054Z" transform="translate(-282.823 -352.249)" opacity="0.2"/>
      <circle id="Ellipse_837" data-name="Ellipse 837" cx="7.705" cy="7.705" r="7.705" transform="translate(28.624 78.404)" fill="#ffb8b8"/>
      <path id="Path_26986" data-name="Path 26986" d="M94.124,246.6l5.759-3.016,7.953,1.234,1.645,7.267-4.1-.157-1.144-2.67v2.626l-1.89-.073-1.1-4.251-.685,4.525-6.719-.137Z" transform="translate(-64.858 -168.326)" fill="#2f2e41"/>
      <path id="Path_26987" data-name="Path 26987" d="M367.176,97.8,364,105.357l26.8,14.07L399.835,93" transform="translate(-251.552 -64.263)" fill="#f2f2f2"/>
      <path id="Path_26988" data-name="Path 26988" d="M388.8,71.255l11.841-27.863L373.43,30,362,57.185Z" transform="translate(-250.17 -20.725)" fill="#ffd54f"/>
      <rect id="Rectangle_1689" data-name="Rectangle 1689" width="0.439" height="23.138" transform="matrix(0.455, -0.89, 0.89, 0.455, 122.418, 20.319)" fill="#fff"/>
      <rect id="Rectangle_1690" data-name="Rectangle 1690" width="0.439" height="23.138" transform="matrix(0.455, -0.89, 0.89, 0.455, 120.874, 24.027)" fill="#fff"/>
    </g>
    <g id="Group_1073" data-name="Group 1073" transform="translate(253.991 149.995)">
      <path id="Path_27182" data-name="Path 27182" d="M94.631,74.7a4.3,4.3,0,0,0-2.159,1.7,5.37,5.37,0,0,0-.339,3.034c.791,8.958,2.876,18.486-.724,26.6-1.748,3.937-4.671,7.092-7,10.667s-4.08,8.039-3,12.245c1.318,5.139,6.238,7.989,9.554,11.944,2.171,2.586,3.692,5.728,5.718,8.448s4.8,5.117,8.033,5.277c4.65.231,8.433-4.106,12.992-5.111,4.671-1.029,9.374,1.589,13.161,4.723s7.232,6.93,11.644,8.887c4.873,2.163,10.366,1.832,15.5,3.131,4.671,1.184,8.97,3.7,13.607,5.045s10.072,1.261,13.664-2.168c4.682-4.485,4.314-12.473,7.3-18.406,2.778-5.512,8.215-8.8,11.875-13.676,6.585-8.771,6.37-22.176.778-31.715s-15.72-15.314-26.077-16.818c-4.671-.677-9.48-.584-13.97-2.125-12.019-4.12-19.171-18.884-31.442-21.956-7.8-1.949-15.386,1.427-22.029,5.582C105.953,73.621,100.632,72.012,94.631,74.7Z" transform="translate(-69.898 -63.86)" fill="#ffd54f" opacity="0.367"/>
      <path id="Path_27183" data-name="Path 27183" d="M164.865,347.69s-4.783,4.514-9.917,4.649a9.963,9.963,0,0,0-5.938,2.112,16.757,16.757,0,0,0-2.22,2.112" transform="translate(-136.693 -307.907)" fill="none" stroke="#535461" stroke-miterlimit="10" stroke-width="2"/>
      <path id="Path_27184" data-name="Path 27184" d="M118.48,410.6a11.085,11.085,0,0,1,3.322-.118,11.1,11.1,0,0,1-2.055,2.614,1.4,1.4,0,1,1-1.261-2.5Z" transform="translate(-111.62 -361.837)" fill="#469a09"/>
      <path id="Path_27185" data-name="Path 27185" d="M134.348,383.224a11.1,11.1,0,0,1,2.852,1.707,11.2,11.2,0,0,1-3.145,1.078,1.4,1.4,0,0,1,.293-2.785Z" transform="translate(-124.718 -338.459)" fill="#469a09"/>
      <path id="Path_27186" data-name="Path 27186" d="M176.973,358.786a11.123,11.123,0,0,1,1.6,2.914,11.12,11.12,0,0,1-3.258-.657,1.4,1.4,0,0,1,1.658-2.256Z" transform="translate(-160.772 -317.246)" fill="#469a09"/>
      <path id="Path_27187" data-name="Path 27187" d="M216.885,349.7a11.112,11.112,0,0,1,2.07,2.6,11.094,11.094,0,0,1-3.323-.1,1.4,1.4,0,1,1,1.253-2.5Z" transform="translate(-195.164 -309.477)" fill="#469a09"/>
      <path id="Path_27188" data-name="Path 27188" d="M157.337,393.415a11.077,11.077,0,0,0-.443-3.295,11.112,11.112,0,0,0-2.231,2.465,1.4,1.4,0,1,0,2.674.83Z" transform="translate(-143.39 -344.391)" fill="#469a09"/>
      <path id="Path_27189" data-name="Path 27189" d="M203.01,383.53a11.015,11.015,0,0,0-1.409-3.01,11.066,11.066,0,0,0-1.392,3.019,1.4,1.4,0,1,0,2.8-.008Z" transform="translate(-182.626 -336.136)" fill="#469a09"/>
      <path id="Path_27190" data-name="Path 27190" d="M246.279,364.975a11.071,11.071,0,0,0-.88-3.205,11.078,11.078,0,0,0-1.881,2.741,1.4,1.4,0,0,0,2.761.465Z" transform="translate(-219.856 -320.014)" fill="#469a09"/>
      <path id="Path_27191" data-name="Path 27191" d="M234.177,173.6s-5.762-3.165-7.474-8.012a9.963,9.963,0,0,0-3.836-5,16.759,16.759,0,0,0-2.7-1.458" transform="translate(-199.789 -145.774)" fill="none" stroke="#535461" stroke-miterlimit="10" stroke-width="2"/>
      <path id="Path_27192" data-name="Path 27192" d="M197.977,135.134a11.084,11.084,0,0,1,1.132,3.125,11.067,11.067,0,0,1-3.118-1.152,1.4,1.4,0,0,1,1.986-1.973Z" transform="translate(-178.689 -124.827)" fill="#469a09"/>
      <path id="Path_27193" data-name="Path 27193" d="M228.544,140.192a11.087,11.087,0,0,1-.747,3.239,11.08,11.08,0,0,1-1.992-2.663,1.4,1.4,0,1,1,2.74-.577Z" transform="translate(-204.596 -128.479)" fill="#469a09"/>
      <path id="Path_27194" data-name="Path 27194" d="M265.277,173.678c-.244.733-2.28,2.419-2.28,2.419a11.108,11.108,0,0,1-.376-3.3,1.4,1.4,0,0,1,2.663.884Z" transform="translate(-236.242 -156.696)" fill="#469a09"/>
      <path id="Path_27195" data-name="Path 27195" d="M285.963,209.242a11.1,11.1,0,0,1-1.839,2.769,11.1,11.1,0,0,1-.929-3.191,1.4,1.4,0,1,1,2.768.42Z" transform="translate(-253.973 -187.418)" fill="#469a09"/>
      <path id="Path_27196" data-name="Path 27196" d="M217.462,168.89a11.073,11.073,0,0,0,3-1.435,11.1,11.1,0,0,0-3.031-1.365,1.4,1.4,0,1,0,.032,2.8Z" transform="translate(-196.241 -151.758)" fill="#469a09"/>
      <path id="Path_27197" data-name="Path 27197" d="M239.75,209.55c.734-.24,2.432-2.266,2.432-2.266a11.1,11.1,0,0,0-3.3-.4,1.4,1.4,0,1,0,.869,2.663Z" transform="translate(-215.003 -186.793)" fill="#469a09"/>
      <path id="Path_27198" data-name="Path 27198" d="M270.918,244.828a11.094,11.094,0,0,0,2.781-1.822,11.1,11.1,0,0,0-3.186-.947,1.4,1.4,0,1,0,.406,2.771Z" transform="translate(-241.995 -217.073)" fill="#469a09"/>
      <circle id="Ellipse_859" data-name="Ellipse 859" cx="50.734" cy="50.734" r="50.734" transform="translate(23.303 3.145)" fill="url(#linear-gradient)"/>
      <circle id="Ellipse_860" data-name="Ellipse 860" cx="49.893" cy="49.893" r="49.893" transform="translate(24.144 3.986)" fill="#707070"/>
      <circle id="Ellipse_861" data-name="Ellipse 861" cx="39.663" cy="39.663" r="39.663" transform="translate(34.375 14.216)" fill="#dde1ec"/>
      <rect id="Rectangle_1742" data-name="Rectangle 1742" width="2.242" height="35.038" transform="translate(72.916 21.224)" fill="#535461" opacity="0.3"/>
      <g id="Group_1062" data-name="Group 1062" transform="translate(52.757 42.551)" opacity="0.1">
        <rect id="Rectangle_1743" data-name="Rectangle 1743" width="31.674" height="2.803" transform="translate(23.663 10.487)"/>
        <rect id="Rectangle_1744" data-name="Rectangle 1744" width="2.803" height="22.497" transform="translate(0 2.483) rotate(-62.36)"/>
        <circle id="Ellipse_862" data-name="Ellipse 862" cx="4.205" cy="4.205" r="4.205" transform="translate(17.076 7.684)"/>
      </g>
      <rect id="Rectangle_1745" data-name="Rectangle 1745" width="31.674" height="2.803" transform="translate(76.42 52.478)" fill="#535461"/>
      <rect id="Rectangle_1746" data-name="Rectangle 1746" width="22.497" height="2.803" transform="translate(54.067 41.994) rotate(27.64)" fill="#535461"/>
      <circle id="Ellipse_863" data-name="Ellipse 863" cx="4.205" cy="4.205" r="4.205" transform="translate(69.833 49.674)" fill="#535461"/>
      <g id="Group_1063" data-name="Group 1063" transform="translate(34.372 14.216)" opacity="0.1">
        <path id="Path_27199" data-name="Path 27199" d="M323.083,209.7a39.665,39.665,0,0,1,71.359-23.848,39.667,39.667,0,1,0-66.472,42.931A39.482,39.482,0,0,1,323.083,209.7Z" transform="translate(-320 -165.27)"/>
      </g>
      <path id="Path_27200" data-name="Path 27200" d="M664.527,187.786c-.471-.453-4.434,2.523-4.434,2.523s-1.411.258-1.075,1.226-1.479,6.392-1.479,6.392l-.739-1.033a4.433,4.433,0,0,0-.587-2.607c-.027-.043-.053-.085-.08-.125l.129-.045c-.049-.662-1.107-1.669-1.669-2.163v-.213c.035-.79.352-1.624,0-2.341-.4-.817-1.563-1.228-1.661-2.125-.059-.535.3-1.019.462-1.535.381-1.233-.411-2.492-1.167-3.554a4.972,4.972,0,0,0-.926-1.068,4.5,4.5,0,0,0-1.113-.594,28.463,28.463,0,0,0-3.386-.981,5.393,5.393,0,0,0-3.223-.064,1.586,1.586,0,0,0-.7.4,4.341,4.341,0,0,0-.474,1.075,3.83,3.83,0,0,1-1.418,1.277,2.038,2.038,0,0,0-1.072,1.5c0,.9,1.023,1.459,1.365,2.293a4.2,4.2,0,0,1-.178,2.46,1.652,1.652,0,0,0-.021.811,1.745,1.745,0,0,0,.314.547c.212.28.439.541.664.807l-.1.041c-1.881-.193-3.09,2.195-3.09,2.195.087.018.17.039.251.063l-.08.1a10.2,10.2,0,0,0-1.38,2.415l-1.542,2.066s-.336-5.166.471-6.328-.739-1.872-.739-1.872-3.364-3.745-3.83-3.422,1.142,4.391,2.554,5.037a6.2,6.2,0,0,1-.14,2.13c-.17.531-1.075,6.134-1.075,6.134s-.806,4.713,2.89,2.383a14.142,14.142,0,0,0,4.743-5.746q.083-.172.156-.329a3.952,3.952,0,0,1,.074.526l.14,5.4a8.2,8.2,0,0,1-.849,3.857l-1.647,3.34.184.056-.111.16c-1.085,1.6-2.929,5.186.867,7.015l5.045.646-.269,1.291a34.7,34.7,0,0,0-2.688,6.65,19.924,19.924,0,0,1-1.748,4.778l.156.083c-.032.036-.066.074-.1.113a2.437,2.437,0,0,0-.583,1.222l-.684.97s-.269,4,.269,4.973a3.492,3.492,0,0,0,2.1,1.062,1.384,1.384,0,0,0,1.574-2.031l-.008-.014h-.013a13.765,13.765,0,0,1-.429-3.442c.039-.219.076-.436.094-.657a2.322,2.322,0,0,1,.261-.831c.022-.043.046-.085.07-.128l.073.031c.226.1.448.188.66.268-.328.3-.561.917-.28,2.188a21.9,21.9,0,0,0,.269,3.68c.242.5,2.956,1.162,3.427.646s-.3-2.293-.3-2.293l-.024.017c-.156-1.03-.348-2.874.125-3.6.191-.293.376-.6.541-.879l.1-.175h0a3.354,3.354,0,0,0,2.313.538s2.217-5.166,2.083-5.811,3.427-7.942,3.427-7.942,3.023-3.364-.671-5.682c-1.173-.739-2.028-1.235-2.649-1.57l-.52-2.719a9.939,9.939,0,0,1,.14-4.3l.561-2.139h0l.046-.182s1.411-2.905,1.344-4.262a.979.979,0,0,1,.035-.313q.023.1.05.2a26.052,26.052,0,0,0,1.46,4.115c1.072,2.419,2.663,2.227,3.535,1.884a1.207,1.207,0,0,0,.744-.872c.314-1.505,1.176-5.722,1.231-6.887a19.585,19.585,0,0,1,.336-2.712C663.117,190.5,665,188.238,664.527,187.786Z" transform="translate(-553.843 -163.083)" fill="url(#linear-gradient-2)"/>
      <path id="Path_27201" data-name="Path 27201" d="M720.876,530.985s-.3.593-.7,1.3c-.158.28-.335.582-.516.872-.641,1.025,0,4.289,0,4.289l-1.4.192-1.4-.7-.257-2.369v-1.732l1.6-1.787.7-.774Z" transform="translate(-626.644 -464.907)" fill="#f8bdc5"/>
      <g id="Group_1064" data-name="Group 1064" transform="translate(91.551 65.373)" opacity="0.1">
        <path id="Path_27202" data-name="Path 27202" d="M730.661,530.985s-.3.593-.7,1.3a17.349,17.349,0,0,1-1.791-1.1l-.123-.087-.066-.048.7-.774Z" transform="translate(-727.98 -530.28)"/>
      </g>
      <path id="Path_27203" data-name="Path 27203" d="M726.077,394.094s-3.393,7.233-3.264,7.874-1.985,5.762-1.985,5.762c-.482.227-1.368-.1-2.2-.533a17.27,17.27,0,0,1-1.822-1.121l-.123-.087-.074-.053,5.57-15.428-4.928-3.614-.364-.268L714.68,385l6.727,1.217s.234-.029,1.472.663c.594.332,1.42.83,2.56,1.578C728.956,390.766,726.077,394.094,726.077,394.094Z" transform="translate(-624.993 -339.988)" fill="#5e52ad"/>
      <g id="Group_1065" data-name="Group 1065" transform="translate(89.687 45.012)" opacity="0.03">
        <path id="Path_27204" data-name="Path 27204" d="M726.077,394.094s-3.393,7.233-3.264,7.874-1.985,5.762-1.985,5.762c-.482.227-1.368-.1-2.2-.533a17.27,17.27,0,0,1-1.822-1.121l-.123-.087-.074-.053,5.57-15.428-4.928-3.614-.364-.268L714.68,385l6.727,1.217s.234-.029,1.472.663c.594.332,1.42.83,2.56,1.578C728.956,390.766,726.077,394.094,726.077,394.094Z" transform="translate(-714.68 -385)"/>
      </g>
      <path id="Path_27205" data-name="Path 27205" d="M715.031,544.4s-1.665-.256-1.088,2.433a22.457,22.457,0,0,0,.256,3.644c.231.491,2.817,1.152,3.264.641s-.289-2.272-.289-2.272-1.888,1.376-2.4-.1S715.031,544.4,715.031,544.4Z" transform="translate(-624.255 -477.042)" fill="#5d3e53"/>
      <path id="Path_27206" data-name="Path 27206" d="M690.66,532.948a2.017,2.017,0,0,0-.436.605,2.369,2.369,0,0,0-.248.824c-.017.219-.052.436-.088.652a15.793,15.793,0,0,0,.453,3.616l-2.433.384-.9-.96-.192-2.112a7.655,7.655,0,0,0,.384-2.242,2.349,2.349,0,0,1,.561-1.4,3.854,3.854,0,0,1,.649-.643S691.173,532.5,690.66,532.948Z" transform="translate(-601.038 -466.102)" fill="#f8bdc5"/>
      <g id="Group_1066" data-name="Group 1066" transform="translate(86.732 65.565)" opacity="0.1">
        <path id="Path_27207" data-name="Path 27207" d="M696.49,532.931a2.017,2.017,0,0,0-.436.605c-1-.45-2.043-1.017-2.425-1.228l-.029-.015a3.852,3.852,0,0,1,.649-.643S697,532.483,696.49,532.931Z" transform="translate(-693.6 -531.65)"/>
      </g>
      <path id="Path_27208" data-name="Path 27208" d="M688.731,392.174s-1.6,3.009-2.625,5.505c-.673,1.64-2.063,5.544-2.943,8.031l-.129.367c-.387,1.1-.645,1.844-.645,1.844a1.665,1.665,0,0,1-.5-.074c-.151-.041-.321-.1-.5-.163l-.2-.077c-.2-.078-.42-.17-.629-.265-1.018-.454-2.1-1.046-2.5-1.261l-.149-.083a20.251,20.251,0,0,0,1.669-4.741,35.028,35.028,0,0,1,2.561-6.587l.256-1.281-4.8-.641c-3.617-1.808-1.86-5.372-.827-6.954a9.347,9.347,0,0,1,.57-.795l3.841.841s.605.193,1.951.789l.618.28c.754.346,1.682.792,2.8,1.364C690.33,390.186,688.731,392.174,688.731,392.174Z" transform="translate(-591.234 -339.988)" fill="#5e52ad"/>
      <path id="Path_27209" data-name="Path 27209" d="M688.344,549.623a1.359,1.359,0,0,1-1.5,2.013,3.29,3.29,0,0,1-2-1.054c-.512-.96-.256-4.929-.256-4.929l.673-.992s-.352,4.385.481,4.765a6.634,6.634,0,0,0,2.593.178Z" transform="translate(-599.066 -477.272)" fill="#5d3e53"/>
      <path id="Path_27210" data-name="Path 27210" d="M695.177,181.521a1.5,1.5,0,0,0-.673.4,4.611,4.611,0,0,0-.451,1.067,3.674,3.674,0,0,1-1.351,1.261,2.008,2.008,0,0,0-1.022,1.486c0,.889.981,1.446,1.3,2.272a4.326,4.326,0,0,1-.17,2.439,1.7,1.7,0,0,0-.02.8,1.748,1.748,0,0,0,.3.542,13.86,13.86,0,0,1,1.8,2.544,7.875,7.875,0,0,1,.484,2.319,11.661,11.661,0,0,1,.022,3.413.344.344,0,0,0,0,.206.319.319,0,0,0,.164.14,3.364,3.364,0,0,0,4.553-1.682c.28-.635.388-1.4.943-1.814a.473.473,0,0,1,.226-.1.66.66,0,0,1,.364.122,3.589,3.589,0,0,0,2.4.241,2.228,2.228,0,0,0,1.3-.647c.632-.751.28-1.874.322-2.853a4.931,4.931,0,0,0,0-2.319c-.378-.81-1.49-1.217-1.582-2.1a4.093,4.093,0,0,1,.441-1.521c.363-1.224-.391-2.471-1.111-3.523a4.878,4.878,0,0,0-.881-1.058,4.233,4.233,0,0,0-1.06-.589,25.9,25.9,0,0,0-3.223-.971A4.879,4.879,0,0,0,695.177,181.521Z" transform="translate(-605.217 -164.839)" fill="#2f2e41"/>
      <path id="Path_27211" data-name="Path 27211" d="M728.806,244.51h-3.714v-6.018a11.222,11.222,0,0,0,.193-1.752v-.6a3.1,3.1,0,0,0-.573-1.871c-1.024-1.152,3.329-.96,3.329-.96a10.834,10.834,0,0,0,.519,1.55,9.426,9.426,0,0,0,1.247,2.2,5.083,5.083,0,0,0,1.692,1.439C734.055,239.773,728.806,244.51,728.806,244.51Z" transform="translate(-633.485 -209.544)" fill="#f8bdc5"/>
      <g id="Group_1067" data-name="Group 1067" transform="translate(91.067 23.75)" opacity="0.1">
        <path id="Path_27212" data-name="Path 27212" d="M728.529,234.856a3.4,3.4,0,0,1-3.274,1.281,3.1,3.1,0,0,0-.573-1.871c-1.024-1.152,3.328-.96,3.328-.96A10.864,10.864,0,0,0,728.529,234.856Z" transform="translate(-724.526 -233.294)"/>
      </g>
      <circle id="Ellipse_864" data-name="Ellipse 864" cx="3.393" cy="3.393" r="3.393" transform="translate(88.982 19.667)" fill="#f8bdc5"/>
      <path id="Path_27213" data-name="Path 27213" d="M789.947,245.3a20.154,20.154,0,0,0-.32,2.688c-.052,1.153-.873,5.336-1.173,6.828a1.184,1.184,0,0,1-.709.865c-.833.341-2.346.531-3.364-1.867a26.53,26.53,0,0,1-1.392-4.078,11,11,0,0,1-.28-1.427l2.242-1.216a2.764,2.764,0,0,1,.53.68,4.546,4.546,0,0,1,.561,2.584l.7,1.025s1.728-5.378,1.4-6.338,1.024-1.217,1.024-1.217,3.777-2.943,4.226-2.5S792.059,244.014,789.947,245.3Z" transform="translate(-683.489 -216.411)" fill="#f8bdc5"/>
      <path id="Path_27214" data-name="Path 27214" d="M646.61,236.635a15.149,15.149,0,0,1-.6,1.472,13.9,13.9,0,0,1-4.518,5.7c-3.521,2.3-2.753-2.369-2.753-2.369s.862-5.556,1.024-6.081a6.643,6.643,0,0,0,.127-2.112c-1.344-.64-2.88-4.673-2.433-4.994s3.644,3.393,3.644,3.393,1.473.7.7,1.857-.448,6.273-.448,6.273l1.481-2.045a10.218,10.218,0,0,1,1.316-2.394c.28-.383.477-.614.477-.614Z" transform="translate(-558.523 -205.189)" fill="#f8bdc5"/>
      <g id="Group_1068" data-name="Group 1068" transform="translate(99.218 30.676)" opacity="0.1">
        <path id="Path_27215" data-name="Path 27215" d="M785.466,283.391c-.471.174-2.294.91-2.5,1.962a11.011,11.011,0,0,1-.28-1.427l2.242-1.216a2.762,2.762,0,0,1,.534.681Z" transform="translate(-782.69 -282.71)"/>
      </g>
      <g id="Group_1069" data-name="Group 1069" transform="translate(85.625 29.527)" opacity="0.1">
        <path id="Path_27216" data-name="Path 27216" d="M688.161,276.429a15.15,15.15,0,0,1-.6,1.472,3.355,3.355,0,0,0-1.858-2.776c.28-.383.477-.614.477-.614Z" transform="translate(-685.7 -274.51)"/>
      </g>
      <g id="Group_1070" data-name="Group 1070" transform="translate(91.607 27.196)" opacity="0.1">
        <path id="Path_27217" data-name="Path 27217" d="M732.094,265.65H728.38v-6.018a11.208,11.208,0,0,0,.193-1.752,2.31,2.31,0,0,1,.574,1.879l1.985,4.485.961-3.965-.32-.512,1.318-1.567a5.081,5.081,0,0,0,1.692,1.439C737.343,260.913,732.094,265.65,732.094,265.65Z" transform="translate(-728.38 -257.88)"/>
      </g>
      <g id="Group_1071" data-name="Group 1071" transform="translate(85.53 45.012)" opacity="0.1">
        <path id="Path_27218" data-name="Path 27218" d="M697.435,387.242s-2.909-.231-5.434-.341l-.254-.011c-.359-.014-.7-.025-1.036-.034a23.2,23.2,0,0,1-5.691-1.065,9.337,9.337,0,0,1,.572-.792l3.841.841s.605.193,1.951.789L689.177,385l6.727,1.217s.234-.029,1.472.663Z" transform="translate(-685.02 -385)"/>
      </g>
      <path id="Path_27219" data-name="Path 27219" d="M694.39,260.493l-.32-.512,1.421-1.7s2.931,1.437,3.7,1.121c0,0,1.857,1.542,1.92,2.433,0,0-2.688.9-2.625,2.242s-1.275,4.224-1.275,4.224l-.561,2.3a10.243,10.243,0,0,0-.14,4.261l.512,2.849s-4.034-.32-6.727-.384a23.329,23.329,0,0,1-5.762-1.088l1.571-3.306a8.41,8.41,0,0,0,.81-3.823l-.14-5.352s-.128-2.688-2.242-3.137c0,0,1.152-2.369,2.943-2.177,0,0,2.61-1.089,3.385-.353a2.306,2.306,0,0,1,.584,1.889l1.984,4.485Z" transform="translate(-599.069 -230.649)" fill="#ed677b"/>
      <g id="Group_1072" data-name="Group 1072" transform="translate(88.977 18.173)" opacity="0.1">
        <path id="Path_27220" data-name="Path 27220" d="M710.563,197.688c.514,0,.918-.545,1.432-.517a1.459,1.459,0,0,1,.715.336,8.726,8.726,0,0,0,2.734,1.261,2.386,2.386,0,0,0,1.163.084.992.992,0,0,0,.782-.783,1.336,1.336,0,0,0-.067-.509,6.289,6.289,0,0,0-2.738-3.615,2.156,2.156,0,0,0-1.773-.371,3.515,3.515,0,0,0-1.261,1.093,4.792,4.792,0,0,1-.981.8c-.28.17-.7.28-.862.591C709.4,196.636,709.88,197.682,710.563,197.688Z" transform="translate(-709.613 -193.5)"/>
      </g>
      <path id="Path_27221" data-name="Path 27221" d="M710.563,196.778c.514,0,.918-.545,1.432-.517a1.459,1.459,0,0,1,.715.336,8.726,8.726,0,0,0,2.734,1.261,2.386,2.386,0,0,0,1.163.084.992.992,0,0,0,.782-.783,1.336,1.336,0,0,0-.067-.509,6.289,6.289,0,0,0-2.738-3.614,2.156,2.156,0,0,0-1.773-.371,3.515,3.515,0,0,0-1.261,1.093,4.791,4.791,0,0,1-.981.8c-.28.17-.7.28-.862.591C709.4,195.731,709.88,196.771,710.563,196.778Z" transform="translate(-620.636 -174.545)" fill="#2e2e41"/>
      <path id="Path_27222" data-name="Path 27222" d="M705.32,326.79s3.136,1.152,5.186.256l1.025.064a4.532,4.532,0,0,0,3.5.66" transform="translate(-616.945 -289.936)" opacity="0.05"/>
      <path id="Path_27223" data-name="Path 27223" d="M809.279,313.09s-.512,1.217-.256,1.6" transform="translate(-706.052 -278.156)" opacity="0.05"/>
      <path id="Path_27224" data-name="Path 27224" d="M665.58,310.35s.256,1.216,0,1.6" transform="translate(-582.775 -275.801)" opacity="0.05"/>
    </g>
    <g id="Group_1074" data-name="Group 1074" transform="translate(375.981 280.995)">
      <path id="Path_27225" data-name="Path 27225" d="M995.343,508.14a16.411,16.411,0,0,0-2.993,17.071c3.88,10.2-6.65,27.157-6.65,27.157s.113-.016.328-.053a20.01,20.01,0,0,0,13.28-30.628C996.382,517.227,993.987,512,995.343,508.14Z" transform="translate(-835.092 -428.154)" fill="#469a09" opacity="0.59"/>
      <g id="Group_1076" data-name="Group 1076" transform="translate(1 12)">
        <g id="Group_1075" data-name="Group 1075">
          <path id="Path_27226" data-name="Path 27226" d="M995.343,508.84a16.411,16.411,0,0,0-2.993,17.071c3.88,10.2-6.65,27.156-6.65,27.156s.113-.016.328-.053a20.01,20.01,0,0,0,13.28-30.628C996.382,517.927,993.987,512.7,995.343,508.84Z" transform="translate(-837.092 -435.739)" fill="#469a09" opacity="0.61"/>
          <path id="Path_27228" data-name="Path 27228" d="M998.642,676.923s-7.842-1.248-8.557,5.779-15.085,8-15.085,8l.269.179c11.86,7.786,23.2,4.959,21.49-5.38C996.129,681.661,996.181,677.8,998.642,676.923Z" transform="translate(-828.149 -576.14)" fill="#469a09"/>
          <g id="Group_1074-2" data-name="Group 1074">
            <path id="Path_27227" data-name="Path 27227" d="M995.334,508.14s-3.88,8.424,0,15.3.657,26.16-9.644,28.931" transform="translate(-837.083 -435.154)" fill="none" stroke="#535461" stroke-miterlimit="10" stroke-width="1"/>
            <path id="Path_27229" data-name="Path 27229" d="M998.675,677.36s-6.088,1.336-5.585,6.871-9.035,12.171-18.05,6.911" transform="translate(-828.183 -576.576)" fill="none" stroke="#535461" stroke-miterlimit="10" stroke-width="1"/>
            <path id="Path_27230" data-name="Path 27230" d="M953.547,731.955s-6.177-1.235-7.824-2.883-9.06-4.529-9.883-2.464-11.118,9.06-4.118,10.295,16.471,1.643,18.53.821S953.547,731.955,953.547,731.955Z" transform="translate(-789.954 -617.134)" fill="#a8a8a8"/>
          </g>
        </g>
        <path id="Path_27231" data-name="Path 27231" d="M931.729,766.762c7,1.235,16.471,1.643,18.53.821,1.569-.628,2.658-3.64,3.088-5.043l.205.043s-1.235,4.941-3.294,5.764-11.53.412-18.53-.821c-2.02-.357-2.6-1.194-2.38-2.254C929.52,765.963,930.225,766.5,931.729,766.762Z" transform="translate(-789.961 -647.764)" opacity="0.2"/>
      </g>
    </g>
  </g>
</svg>
