<svg xmlns="http://www.w3.org/2000/svg" xmlns:xlink="http://www.w3.org/1999/xlink" width="100" height="98" viewBox="0 0 100 98">
  <defs>
    <filter id="Btn_background" x="0" y="0" width="100" height="98" filterUnits="userSpaceOnUse">
      <feOffset dx="-5" dy="3" input="SourceAlpha"/>
      <feGaussianBlur stdDeviation="3" result="blur"/>
      <feFlood flood-opacity="0.161"/>
      <feComposite operator="in" in2="blur"/>
      <feComposite in="SourceGraphic"/>
    </filter>
  </defs>
  <g transform="matrix(1, 0, 0, 1, 0, 0)" filter="url(#Btn_background)">
    <path id="Btn_background-2" data-name="Btn background" d="M32,0H44A38.063,38.063,0,0,1,72.089,12.407,37.677,37.677,0,0,1,82,38v4A38.068,38.068,0,0,1,69.287,70.366,37.667,37.667,0,0,1,44,80H25A25.1,25.1,0,0,1,6.044,71.3,24.71,24.71,0,0,1,0,55V32A32.087,32.087,0,0,1,13.254,6.063,31.645,31.645,0,0,1,32,0Z" transform="translate(14 6)" fill="#fff"/>
  </g>
</svg>
