<svg xmlns="http://www.w3.org/2000/svg" width="25.582" height="21.014" viewBox="0 0 25.582 21.014"><defs><style>.a{fill:#469a09;stroke:#469a21;stroke-linecap:round;stroke-width:0.3px;}</style></defs><path class="a" d="M-11839.882,3119.739h-13.01a1.111,1.111,0,0,1-1.109-1.11v-13.28a1.11,1.11,0,0,1,1.109-1.107h19.53a1.109,1.109,0,0,1,1.11,1.107v8.821a5.6,5.6,0,0,1,3.531,5.2,5.594,5.594,0,0,1-5.587,5.59A5.593,5.593,0,0,1-11839.882,3119.739Zm.729-.372a4.854,4.854,0,0,0,4.847,4.849,4.851,4.851,0,0,0,4.846-4.849,4.851,4.851,0,0,0-4.846-4.846A4.853,4.853,0,0,0-11839.153,3119.367Zm-13.56-.369h12.831a5.568,5.568,0,0,1,1.978-3.9l-2.921-2.609-.81.723a2.24,2.24,0,0,1-2.983,0l-.807-.723Zm-.548-.506,7.28-6.5-7.28-6.5Zm12.989-6.5,2.975,2.66a5.555,5.555,0,0,1,2.99-.869,5.48,5.48,0,0,1,1.314.158v-8.452Zm-3.853.667a1.5,1.5,0,0,0,2,0l8.588-7.672h-8.722c-1.759,0-6.117,0-10.451,0Zm6.3,6.711a3.518,3.518,0,0,1,3.514-3.513,3.52,3.52,0,0,1,3.516,3.513,1.063,1.063,0,0,1-1.591.919,2.138,2.138,0,0,1-1.925,1.217,2.136,2.136,0,0,1-2.134-2.136,2.135,2.135,0,0,1,2.134-2.133,2.135,2.135,0,0,1,2.133,2.133.322.322,0,0,0,.321.321.32.32,0,0,0,.318-.321,2.776,2.776,0,0,0-2.772-2.772,2.776,2.776,0,0,0-2.773,2.772,2.778,2.778,0,0,0,2.773,2.776,2.771,2.771,0,0,0,2.3-1.22.372.372,0,0,1,.515-.1.369.369,0,0,1,.1.515,3.51,3.51,0,0,1-2.909,1.544A3.519,3.519,0,0,1-11837.82,3119.367Zm2.121,0a1.4,1.4,0,0,0,1.393,1.4,1.4,1.4,0,0,0,1.395-1.4,1.4,1.4,0,0,0-1.395-1.392A1.394,1.394,0,0,0-11835.7,3119.367Z" transform="translate(11854.151 -3104.092)"/></svg>