<svg xmlns="http://www.w3.org/2000/svg" viewBox="0 0 36.925 36.924"><defs><style>.a{fill:#469a21;}</style></defs><path class="a" d="M18.97,37.425A18.584,18.584,0,0,0,37.423,18.954,18.6,18.6,0,0,0,18.951.501,18.58,18.58,0,0,0,.498,18.954,18.6,18.6,0,0,0,18.97,37.425Zm10.493-18.49a1.769,1.769,0,0,1-.609,1.314L21.98,27.066a1.667,1.667,0,0,1-1.124.457,1.544,1.544,0,0,1-1.562-1.52578q-.00023-.0186,0-.03722a1.547,1.547,0,0,1,.5-1.124l2.486-2.455,2.4-1.98-4.285.171h-10.3a1.545,1.545,0,0,1-1.60078-1.48713q-.00243-.06592.00078-.13187a1.55,1.55,0,0,1,1.45856-1.63634q.07064-.00407.14144-.00166h10.3l4.266.171L22.28,15.507,19.789,13.05a1.624,1.624,0,0,1-.5-1.124,1.517,1.517,0,0,1,1.49111-1.54246q.03545-.0006.07089.00046a1.492,1.492,0,0,1,1.124.438l6.878,6.838A1.686,1.686,0,0,1,29.463,18.935Z" transform="translate(-0.498 -0.501)"/></svg>