<svg xmlns="http://www.w3.org/2000/svg" width="21.416" height="28.414" viewBox="0 0 21.416 28.414"><defs><style>.a{fill:#469a09;stroke:#469a21;stroke-linecap:round;stroke-width:0.2px;}</style></defs><path class="a" d="M-11857.038,3147.213a1.517,1.517,0,0,1-1.516-1.515v-23.106a.169.169,0,0,1,0-.035.305.305,0,0,1,0-.042v-.345a1.518,1.518,0,0,1,1.516-1.515h5.285c.259-.229.583-.345.8-.783a1.612,1.612,0,0,1,1.438-.872h3.131a1.624,1.624,0,0,1,1.449.866c.227.438.568.565.821.789h5.262a1.515,1.515,0,0,1,1.515,1.515V3145.7a1.515,1.515,0,0,1-1.515,1.515Zm-.687-1.515a.69.69,0,0,0,.688.69h18.187a.69.69,0,0,0,.688-.69v-1.238h-19.562Zm19.562-2.065v-21.464a.69.69,0,0,0-.687-.69h-4.685a2.124,2.124,0,0,1,.137.753v.048a.856.856,0,0,1-.854.854h-7.384a.856.856,0,0,1-.854-.854,2.191,2.191,0,0,1,.152-.8h-4.7a.69.69,0,0,0-.687.69v.345a.316.316,0,0,1,0,.043.161.161,0,0,1,0,.034v21.041h19.562Zm-12.05-23.392c-.51,1.024-1.45.917-1.45,2.039a.027.027,0,0,0,.027.027h7.384a.027.027,0,0,0,.026-.027v-.048c0-1.071-.923-.982-1.443-1.985a.8.8,0,0,0-.714-.419h-3.131A.786.786,0,0,0-11850.214,3120.24Zm3.351,22.734a1.141,1.141,0,0,1-1.125-1.149v-4.982a1.118,1.118,0,0,1,.929-1.132v-.668a1.51,1.51,0,0,1,1.352-1.625h4.592a1.512,1.512,0,0,1,1.354,1.625v.7a1.122,1.122,0,0,1,.776,1.1v4.982a1.141,1.141,0,0,1-1.125,1.149Zm2.25-4.214a1.12,1.12,0,0,0,.75,1.074v.842a.358.358,0,0,0,.375.381.356.356,0,0,0,.375-.381v-.842a1.116,1.116,0,0,0,.75-1.074,1.123,1.123,0,0,0-1.125-1.158A1.124,1.124,0,0,0-11844.613,3138.76Zm4.16-3.065v-.652a.74.74,0,0,0-.663-.8h-4.592a.741.741,0,0,0-.664.8v.652Zm-15.264,3.542a.415.415,0,0,1-.414-.414.415.415,0,0,1,.414-.414h5.651a.415.415,0,0,1,.414.414.415.415,0,0,1-.414.414Zm0-2.277a.415.415,0,0,1-.414-.414.415.415,0,0,1,.414-.414h5.651a.415.415,0,0,1,.414.414.415.415,0,0,1-.414.414Zm0-2.277a.415.415,0,0,1-.414-.414.415.415,0,0,1,.414-.414h5.651a.415.415,0,0,1,.414.414.415.415,0,0,1-.414.414Zm0-2.277a.415.415,0,0,1-.414-.414.417.417,0,0,1,.414-.414h15.541a.417.417,0,0,1,.414.414.415.415,0,0,1-.414.414Zm0-2.277a.415.415,0,0,1-.414-.414.417.417,0,0,1,.414-.414h15.541a.417.417,0,0,1,.414.414.415.415,0,0,1-.414.414Zm0-2.277a.415.415,0,0,1-.414-.414.414.414,0,0,1,.414-.411h15.541a.414.414,0,0,1,.414.411.415.415,0,0,1-.414.414Zm1.771-2.277a.412.412,0,0,1-.411-.411.412.412,0,0,1,.411-.414h13.771a.415.415,0,0,1,.414.414.414.414,0,0,1-.414.411Zm4.348-4.1a.412.412,0,0,1-.413-.411.413.413,0,0,1,.413-.414h3.307a.415.415,0,0,1,.414.414.414.414,0,0,1-.414.411Z" transform="translate(11858.653 -3118.899)"/></svg>